<?xml version="1.0" encoding="UTF-8"?>
<svg id="Layer_4" xmlns="http://www.w3.org/2000/svg" version="1.1" viewBox="0 0 598.2 350.3">
  <!-- Generator: Adobe Illustrator 29.0.1, SVG Export Plug-In . SVG Version: 2.1.0 Build 192)  -->
  <defs>
    <style>
      .st0 {
        fill: #f4f4f4;
      }
    </style>
  </defs>
  <path class="st0" d="M293.4,243.9c-9,0-15.1-.1-15.2-.1l-22-1.7-26.5-2.8-25.6-4.5-28.6-6.2c-.8-.2-17.2-5.3-18.8-6-1.7-.7-4.5-2.6-6.7-5h0c-2-2.2-2.7-3-5.2-9.1-2.5-6.2-.2-20.8,0-21.4,0-.2,4.3-23.8,9.5-42.1,4.8-16.6,6.9-19.8,8.9-22.7.2-.3.5-.7.7-1,2.2-3.4,8.2-7.4,8.5-7.6h.3c0,0,6.1-1.9,6.1-1.9l13.8-.4h32.7l7.8.4,4.6,1.6,3.9,4.1,1.5,3.5v5.7l-.6,3.8-8.8,25c7.1.9,44.1,5.7,70.4,5.3,25.9-.4,54.8-4.7,60.8-5.6l-9.3-28.2c0-.2-.4-5.4,2.3-9.9,2.8-4.7,10.2-5.5,10.5-5.6h.1c2,0,48.4,0,51.4.3,3.4.2,7.9,2.4,10.3,4.4,2.5,2.1,5.4,5.2,8.4,11.8,2.9,6.5,5,13.3,8.5,26.3,3.4,12.6,7.1,35.1,7.1,35.4l.9,9.2-.6,6.5-1.1,3.8-1.3,3.6-3.9,5.6h-.1c-1.5,1.2-3.2,2.5-3.5,2.7h0c-.8,1-3.8,2.4-5.9,3.2-3.3,1.2-9.6,2.8-9.9,2.8l-28.8,7c-.2,0-19.8,3.9-47.5,7.4-17.7,2.2-42.7,2.6-58.6,2.6l-.5-.2ZM173.1,115.4c-.8.6-6,4.1-7.8,6.9-.2.4-.5.7-.7,1.1-1.8,2.8-3.9,5.9-8.6,22.2-5.2,18.2-9.4,41.6-9.5,41.9,0,.1-2.4,14.6,0,20.3,2.3,5.8,3,6.4,4.8,8.4h0c1.9,2.1,4.5,4,6,4.6,1.2.5,12.7,4.1,18.5,5.9l28.5,6.2,25.5,4.5,26.4,2.8,21.9,1.7c.4,0,45.9,1,73.5-2.5s47.1-7.3,47.3-7.4l28.7-7s6.5-1.6,9.7-2.8c2.8-1,4.6-2.2,5-2.5.2-.3,1-.9,3.8-2.9l3.6-5.2,1.1-3.2,1.1-3.6.5-6-.9-9c0-.2-3.6-22.6-7-35.1-3.5-12.9-5.5-19.7-8.4-26-2.8-6.2-5.5-9.1-7.8-11.1s-6.5-3.8-9-4c-2.8,0-49.3-.3-51.2-.3s-6.8.9-9,4.6-2.1,7.9-2.1,8.7l10,30.1-1.2.2c-.3,0-33.1,5.4-62.3,5.8-29.2.4-71.5-5.4-71.9-5.5l-1.2-.2,9.6-27.3.6-3.4v-5l-1.2-2.8-3.3-3.4-4-1.3-7.4-.4h-32.6l-13.6.4-5.5,1.7h0Z"/>
  <path class="st0" d="M397.6,195.2c-7.1,0-12.9-5.8-12.9-12.9s5.8-12.9,12.9-12.9,12.9,5.8,12.9,12.9-5.8,12.9-12.9,12.9ZM397.6,171.5c-6,0-10.9,4.9-10.9,10.9s4.9,10.9,10.9,10.9,10.9-4.9,10.9-10.9-4.9-10.9-10.9-10.9Z"/>
  <path class="st0" d="M426.3,185.3c-6,0-10.9-4.9-10.9-10.9s4.9-10.9,10.9-10.9,10.9,4.9,10.9,10.9-4.9,10.9-10.9,10.9ZM426.3,165.5c-4.9,0-8.9,4-8.9,8.9s4,8.9,8.9,8.9,8.9-4,8.9-8.9-4-8.9-8.9-8.9Z"/>
  <path class="st0" d="M418,157.5c-6,0-10.9-4.9-10.9-10.9s4.9-10.9,10.9-10.9,10.9,4.9,10.9,10.9-4.9,10.9-10.9,10.9ZM418,137.7c-4.9,0-8.9,4-8.9,8.9s4,8.9,8.9,8.9,8.9-4,8.9-8.9-4-8.9-8.9-8.9Z"/>
  <path class="st0" d="M389,164c-6,0-10.9-4.9-10.9-10.9s4.9-10.9,10.9-10.9,10.9,4.9,10.9,10.9-4.9,10.9-10.9,10.9ZM389,144.2c-4.9,0-8.9,4-8.9,8.9s4,8.9,8.9,8.9,8.9-4,8.9-8.9-4-8.9-8.9-8.9Z"/>
  <path class="st0" d="M322.6,210.2c-2,0-3.8-1.6-3.9-3.6-.2-2.2,1.5-4,3.6-4.2l30.5-2.2c1,0,2.1.3,2.9.9.8.7,1.3,1.6,1.4,2.7.2,2.2-1.5,4-3.6,4.2l-30.5,2.2h-.4ZM353.2,202.1h-.1l-30.5,2.2c-1.1,0-1.9,1-1.8,2.1,0,1.1,1,1.8,2.1,1.8l30.5-2.2c1.1,0,1.9-1,1.8-2.1,0-.5-.3-1-.7-1.3-.4-.3-.8-.5-1.3-.5Z"/>
  <path class="st0" d="M189.3,186.7c-13.1,0-23.7-10.6-23.7-23.7s10.6-23.7,23.7-23.7,23.7,10.6,23.7,23.7-10.6,23.7-23.7,23.7ZM189.3,141.3c-12,0-21.7,9.7-21.7,21.7s9.7,21.7,21.7,21.7,21.7-9.7,21.7-21.7-9.7-21.7-21.7-21.7Z"/>
  <path class="st0" d="M194,151.6c-2.3,0-4.1-1.9-4.1-4.1s1.9-4.1,4.1-4.1,4.1,1.9,4.1,4.1-1.9,4.1-4.1,4.1ZM194,145.3c-1.2,0-2.1,1-2.1,2.1s1,2.1,2.1,2.1,2.1-1,2.1-2.1-1-2.1-2.1-2.1Z"/>
  <path class="st0" d="M205,172c-2.3,0-4.1-1.9-4.1-4.1s1.9-4.1,4.1-4.1,4.1,1.9,4.1,4.1-1.9,4.1-4.1,4.1ZM205,165.7c-1.2,0-2.1,1-2.1,2.1s1,2.1,2.1,2.1,2.1-1,2.1-2.1-1-2.1-2.1-2.1Z"/>
  <path class="st0" d="M184.2,182.6c-2.3,0-4.1-1.9-4.1-4.1s1.9-4.1,4.1-4.1,4.1,1.9,4.1,4.1-1.9,4.1-4.1,4.1ZM184.2,176.4c-1.2,0-2.1,1-2.1,2.1s1,2.1,2.1,2.1,2.1-1,2.1-2.1-1-2.1-2.1-2.1Z"/>
  <path class="st0" d="M173.4,161.8c-2.3,0-4.1-1.9-4.1-4.1s1.9-4.1,4.1-4.1,4.1,1.9,4.1,4.1-1.9,4.1-4.1,4.1ZM173.4,155.6c-1.2,0-2.1,1-2.1,2.1s1,2.1,2.1,2.1,2.1-1,2.1-2.1-1-2.1-2.1-2.1Z"/>
  <path class="st0" d="M230.8,112.5h-51.7v-3.9c0-.2,0-.8.4-1.3.2-.3.7-.6,1.4-.6s47.1-.2,47.6-.2h.2c1,.2,2.1,1,2.1,2.3v3.8h0ZM181.1,110.5h47.7v-1.8s-.2-.2-.4-.3c-3.2,0-44.7.2-47.4.2v1.8h.1Z"/>
  <path class="st0" d="M419.9,112.5h-51.7v-3.9c0-.2,0-.8.4-1.3.2-.3.7-.6,1.4-.6s47.1-.2,47.6-.2h.2c1,.2,2.1,1,2.1,2.3v3.8h0ZM370.1,110.5h47.7v-1.8s-.2-.2-.4-.3c-3.2,0-44.7.2-47.4.2v1.8h0Z"/>
  <path class="st0" d="M218.1,236.5s-.7-4.8-1.1-8.9c-.5-4.2-.3-8.9,0-15.6.3-6.8,1.6-19.9,2.4-25.6.7-5.6,4.1-21.7,5.4-25,1.3-3.4,7-5.5,7.7-5.7l.7,1.9c-1.5.5-5.6,2.4-6.4,4.6-1.1,2.9-4.5,18.7-5.2,24.5-.7,5.6-2.1,18.6-2.3,25.4-.3,6.6-.4,11.2,0,15.3s1.1,8.8,1.1,8.8l-2,.3h-.3Z"/>
  <path class="st0" d="M381.1,236.3l-2-.3s.7-4.8,1.1-8.8c.4-4.1.3-8.7,0-15.3-.3-6.8-1.6-19.8-2.3-25.4-.8-5.8-4.1-21.6-5.2-24.5-.8-2.2-4.9-4-6.4-4.6l.7-1.9c.6.2,6.3,2.3,7.7,5.7,1.2,3.3,4.6,19.4,5.4,25,.7,5.7,2.1,18.7,2.4,25.6.3,6.7.4,11.4,0,15.6-.4,4.1-1.1,8.9-1.1,8.9h-.3Z"/>
  <path class="st0" d="M296.9,201.1c-45.6,0-76.4-6.4-76.7-6.5l.4-2c.3,0,34.5,7.2,84.1,6.4,35-.6,54.5-2.5,74.2-7.3l.5,1.9c-19.9,4.9-39.4,6.8-74.6,7.3h-7.8v.2Z"/>
  <path class="st0" d="M297.2,214.3c-45.9,0-78.2-6.7-78.6-6.8l.4-2c.4,0,36.1,7.5,85.7,6.7,34.3-.6,55.5-2.7,75.6-7.6l.5,1.9c-20.2,4.9-41.5,7.1-76,7.6h-7.5v.2Z"/>
</svg>