<?xml version="1.0" encoding="UTF-8"?>
<svg id="Layer_3" xmlns="http://www.w3.org/2000/svg" version="1.1" xmlns:cc="http://creativecommons.org/ns#" xmlns:dc="http://purl.org/dc/elements/1.1/" xmlns:rdf="http://www.w3.org/1999/02/22-rdf-syntax-ns#" viewBox="0 0 598.2 350.3">
  <!-- Generator: Adobe Illustrator 29.1.0, SVG Export Plug-In . SVG Version: 2.1.0 Build 142)  -->
  <defs>
    <style>
      .st0 {
        fill: #f4f4f4;
      }
    </style>
  </defs>
  <path class="st0" d="M475.1,115h1v-35.9H12.2v35.9h462.8ZM14.1,81h460v32.1H14.1v-32.1Z"/>
  <path class="st0" d="M454.8,85.4c-2.6,0-4.7,2.1-4.7,4.7s2.1,4.7,4.7,4.7,4.7-2.1,4.7-4.7-2.1-4.7-4.7-4.7ZM454.8,92.9c-1.5,0-2.8-1.3-2.8-2.8s1.3-2.8,2.8-2.8,2.8,1.2,2.8,2.8-1.2,2.8-2.8,2.8Z"/>
  <path class="st0" d="M508,118.8h19.7c1.2,0,2.2-.2,2.9-.9.7-.7.9-1.8.9-2.9v-19.8c0-1.2-.2-2.2-.9-2.9-.7-.7-1.8-.9-2.9-.9h-19.7c-1.2,0-2.2.2-2.9.9-.7.7-.9,1.8-.9,2.9v19.8c0,1.2.2,2.2.9,2.9.7.7,1.8.9,2.9.9ZM506.1,95.1c0-1,.2-1.4.4-1.6.2-.2.6-.4,1.6-.4h19.7c1,0,1.4.2,1.6.4s.4.6.4,1.6v19.8c0,1-.2,1.4-.4,1.6-.2.2-.6.4-1.6.4h-19.7c-1,0-1.4-.2-1.6-.4-.2-.2-.4-.6-.4-1.6v-19.8Z"/>
  <path class="st0" d="M537.4,118.8h19.7c1.2,0,2.2-.2,2.9-.9.7-.7.9-1.8.9-2.9v-19.8c0-1.2-.2-2.2-.9-2.9-.7-.7-1.8-.9-2.9-.9h-19.7c-1.2,0-2.2.2-2.9.9-.7.7-.9,1.8-.9,2.9v19.8c0,1.2.2,2.2.9,2.9.7.7,1.8.9,2.9.9ZM535.4,95.1c0-1,.2-1.4.4-1.6.2-.2.6-.4,1.6-.4h19.7c1,0,1.4.2,1.6.4.2.2.4.6.4,1.6v19.8c0,1-.2,1.4-.4,1.6-.2.2-.6.4-1.6.4h-19.7c-1,0-1.4-.2-1.6-.4-.2-.2-.4-.6-.4-1.6v-19.8Z"/>
  <path class="st0" d="M537.4,90.4h19.7c1.2,0,2.2-.2,2.9-.9s.9-1.8.9-2.9v-19.8c0-1.2-.2-2.2-.9-2.9-.7-.7-1.8-.9-2.9-.9h-19.7c-1.2,0-2.2.2-2.9.9-.7.7-.9,1.8-.9,2.9v19.8c0,1.2.2,2.2.9,2.9.7.7,1.7.9,2.9.9ZM535.4,66.7c0-1,.2-1.4.4-1.6.2-.2.6-.4,1.6-.4h0s19.7,0,19.7,0c1,0,1.4.2,1.6.4.2.2.4.6.4,1.6v19.8c0,1-.2,1.4-.4,1.6-.2.2-.6.4-1.6.4h-19.7c-1,0-1.4-.2-1.6-.4-.2-.2-.4-.6-.4-1.6v-19.8Z"/>
  <path class="st0" d="M537.4,147.2h19.7c1.2,0,2.2-.2,2.9-1,.7-.7.9-1.7.9-2.9v-19.9c0-1.2-.2-2.2-.9-2.9-.7-.7-1.8-1-2.9-1h-19.7c-1.2,0-2.2.2-2.9,1-.7.7-.9,1.7-.9,2.9v19.9c0,1.2.2,2.2.9,2.9.7.7,1.8,1,2.9,1ZM535.4,123.5c0-1,.2-1.4.4-1.6.2-.2.6-.4,1.6-.4h19.7c1,0,1.4.2,1.6.4.2.2.4.6.4,1.6v19.9c0,1-.2,1.4-.4,1.6-.2.2-.6.4-1.6.4h-19.7c-1,0-1.4-.2-1.6-.4-.2-.2-.4-.6-.4-1.6v-19.9Z"/>
  <path class="st0" d="M528,156.4h-19.8c-1.2,0-2.2.2-2.9.9-.7.7-.9,1.8-.9,2.9v19.8c0,1.2.2,2.2.9,2.9.7.7,1.8.9,2.9.9h19.8c1.2,0,2.2-.2,2.9-.9.7-.7,1-1.8,1-2.9v-19.8c0-1.2-.2-2.2-1-2.9-.7-.7-1.7-.9-2.9-.9ZM530,180.1c0,1-.2,1.4-.4,1.6-.2.2-.6.4-1.6.4h-19.8c-1,0-1.4-.2-1.6-.4s-.4-.6-.4-1.6v-19.8c0-1,.2-1.4.4-1.6.2-.2.6-.4,1.6-.4h19.8c1,0,1.4.2,1.6.4s.4.6.4,1.6v19.8Z"/>
  <path class="st0" d="M406,155.7h19.8c1.2,0,2.2-.2,2.9-1,.7-.7.9-1.7.9-2.9v-19.9c0-1.2-.2-2.2-.9-2.9-.7-.7-1.8-1-2.9-1h-19.8c-1.2,0-2.2.2-2.9,1-.7.7-1,1.7-1,2.9v19.9c0,1.2.2,2.2,1,2.9.7.7,1.7,1,2.9,1ZM404,131.9c0-1,.2-1.4.4-1.6.2-.2.6-.4,1.6-.4h19.8c1,0,1.4.2,1.6.4.2.2.4.6.4,1.6v19.9c0,1-.2,1.4-.4,1.6-.2.2-.6.4-1.6.4h-19.8c-1,0-1.4-.2-1.6-.4-.2-.2-.4-.6-.4-1.6v-19.9Z"/>
  <path class="st0" d="M469.2,128.1h-35.6c-1.2,0-2.2.2-2.9,1-.7.7-.9,1.7-.9,2.9v19.9c0,1.2.2,2.2.9,2.9.7.7,1.8,1,2.9,1h35.6c1.2,0,2.2-.2,2.9-1,.7-.7.9-1.7.9-2.9v-19.9c0-1.2-.2-2.2-.9-2.9-.7-.7-1.8-1-2.9-1ZM471.2,151.8c0,1-.2,1.4-.4,1.6-.2.2-.6.4-1.6.4h-35.6c-1,0-1.4-.2-1.6-.4-.2-.2-.4-.6-.4-1.6v-19.9c0-1,.2-1.4.4-1.6.2-.2.6-.4,1.6-.4h35.6c1,0,1.4.2,1.6.4.2.2.4.6.4,1.6v19.9Z"/>
  <path class="st0" d="M376.3,155.7h19.7c1.2,0,2.2-.2,2.9-1,.7-.7.9-1.7.9-2.9v-19.9c0-1.2-.2-2.2-.9-2.9-.7-.7-1.8-1-2.9-1h-19.7c-1.2,0-2.2.2-2.9,1-.7.7-.9,1.7-.9,2.9v19.9c0,1.2.2,2.2.9,2.9.7.7,1.8,1,2.9,1ZM374.3,131.9c0-1,.2-1.4.4-1.6.2-.2.6-.4,1.6-.4h19.7c1,0,1.4.2,1.6.4s.4.6.4,1.6v19.9c0,1-.2,1.4-.4,1.6-.2.2-.6.4-1.6.4h-19.7c-1,0-1.4-.2-1.6-.4-.2-.2-.4-.6-.4-1.6v-19.9Z"/>
  <path class="st0" d="M346.6,155.7h19.8c1.2,0,2.2-.2,2.9-1,.7-.7.9-1.7.9-2.9v-19.9c0-1.2-.2-2.2-.9-2.9-.7-.7-1.8-1-2.9-1h-19.8c-1.2,0-2.2.2-2.9,1-.7.7-.9,1.7-.9,2.9v19.9c0,1.2.2,2.2.9,2.9.7.7,1.8,1,2.9,1ZM344.6,131.9c0-1,.2-1.4.4-1.6.2-.2.6-.4,1.6-.4h19.8c1,0,1.4.2,1.6.4s.4.6.4,1.6v19.9c0,1-.2,1.4-.4,1.6-.2.2-.6.4-1.6.4h-19.8c-1,0-1.4-.2-1.6-.4-.2-.2-.4-.6-.4-1.6v-19.9Z"/>
  <path class="st0" d="M316.9,155.7h19.7c1.2,0,2.2-.2,2.9-1,.7-.7.9-1.7.9-2.9v-19.9c0-1.2-.2-2.2-.9-2.9-.7-.7-1.8-1-2.9-1h-19.7c-1.2,0-2.2.2-2.9,1-.7.7-.9,1.7-.9,2.9v19.9c0,1.2.2,2.2.9,2.9.7.7,1.8,1,2.9,1ZM314.9,131.9c0-1,.2-1.4.4-1.6.2-.2.6-.4,1.6-.4h19.7c1,0,1.4.2,1.6.4.2.2.4.6.4,1.6v19.9c0,1-.2,1.4-.4,1.6-.2.2-.6.4-1.6.4h-19.7c-1,0-1.4-.2-1.6-.4-.2-.2-.4-.6-.4-1.6v-19.9Z"/>
  <path class="st0" d="M287.2,155.7h19.8c1.2,0,2.2-.2,2.9-1,.7-.7,1-1.7,1-2.9v-19.9c0-1.2-.2-2.2-1-2.9-.7-.7-1.7-1-2.9-1h-19.8c-1.2,0-2.2.2-2.9,1-.7.7-.9,1.7-.9,2.9v19.9c0,1.2.2,2.2.9,2.9.7.7,1.8,1,2.9,1ZM285.2,131.9c0-1,.2-1.4.4-1.6.2-.2.6-.4,1.6-.4h0s19.8,0,19.8,0c1,0,1.4.2,1.6.4.2.2.4.6.4,1.6v19.9c0,1-.2,1.4-.4,1.6-.2.2-.6.4-1.6.4h-19.8c-1,0-1.4-.2-1.6-.4-.2-.2-.4-.6-.4-1.6v-19.9Z"/>
  <path class="st0" d="M257.5,155.7h19.7c1.2,0,2.2-.2,2.9-1,.7-.7.9-1.7.9-2.9v-19.9c0-1.2-.2-2.2-.9-2.9-.7-.7-1.8-1-2.9-1h-19.7c-1.2,0-2.2.2-2.9,1-.7.7-.9,1.7-.9,2.9v19.9c0,1.2.2,2.2.9,2.9.7.7,1.8,1,2.9,1ZM255.6,131.9c0-1,.2-1.4.4-1.6.2-.2.6-.4,1.6-.4h19.7c1,0,1.4.2,1.6.4.2.2.4.6.4,1.6v19.9c0,1-.2,1.4-.4,1.6-.2.2-.6.4-1.6.4h-19.7c-1,0-1.4-.2-1.6-.4-.2-.2-.4-.6-.4-1.6v-19.9Z"/>
  <path class="st0" d="M227.8,155.7h19.8c1.2,0,2.2-.2,2.9-1,.7-.7,1-1.7,1-2.9v-19.9c0-1.2-.2-2.2-1-2.9-.7-.7-1.7-1-2.9-1h-19.8c-1.2,0-2.2.2-2.9,1-.7.7-.9,1.7-.9,2.9v19.9c0,1.2.2,2.2.9,2.9.7.7,1.8,1,2.9,1ZM225.8,131.9c0-1,.2-1.4.4-1.6.2-.2.6-.4,1.6-.4h19.8c1,0,1.4.2,1.6.4.2.2.4.6.4,1.6v19.9c0,1-.2,1.4-.4,1.6s-.6.4-1.6.4h-19.8c-1,0-1.4-.2-1.6-.4-.2-.2-.4-.6-.4-1.6v-19.9Z"/>
  <path class="st0" d="M198.1,155.7h19.8c1.2,0,2.2-.2,2.9-1,.7-.7.9-1.7.9-2.9v-19.9c0-1.2-.2-2.2-.9-2.9-.7-.7-1.8-1-2.9-1h-19.8c-1.2,0-2.2.2-2.9,1-.7.7-1,1.7-1,2.9v19.9c0,1.2.2,2.2,1,2.9.7.7,1.7,1,2.9,1ZM196.1,131.9c0-1,.2-1.4.4-1.6.2-.2.6-.4,1.6-.4h19.8c1,0,1.4.2,1.6.4.2.2.4.6.4,1.6v19.9c0,1-.2,1.4-.4,1.6s-.6.4-1.6.4h-19.8c-1,0-1.4-.2-1.6-.4-.2-.2-.4-.6-.4-1.6v-19.9Z"/>
  <path class="st0" d="M168.4,155.7h19.8c1.2,0,2.2-.2,2.9-1,.7-.7,1-1.7,1-2.9v-19.9c0-1.2-.2-2.2-1-2.9-.7-.7-1.7-1-2.9-1h-19.8c-1.2,0-2.2.2-2.9,1-.7.7-.9,1.7-.9,2.9v19.9c0,1.2.2,2.2.9,2.9s1.8,1,2.9,1ZM166.5,131.9c0-1,.2-1.4.4-1.6.2-.2.6-.4,1.6-.4h19.8c1,0,1.4.2,1.6.4.2.2.4.6.4,1.6v19.9c0,1-.2,1.4-.4,1.6-.2.2-.6.4-1.6.4h-19.8c-1,0-1.4-.2-1.6-.4-.2-.2-.4-.6-.4-1.6v-19.9Z"/>
  <path class="st0" d="M138.7,155.7h19.8c1.2,0,2.2-.2,2.9-1,.7-.7.9-1.7.9-2.9v-19.9c0-1.2-.2-2.2-.9-2.9-.7-.7-1.8-1-2.9-1h-19.8c-1.2,0-2.2.2-2.9,1s-1,1.7-1,2.9v19.9c0,1.2.2,2.2,1,2.9.7.7,1.7,1,2.9,1ZM136.7,131.9c0-1,.2-1.4.4-1.6.2-.2.6-.4,1.6-.4h19.8c1,0,1.4.2,1.6.4.2.2.4.6.4,1.6v19.9c0,1-.2,1.4-.4,1.6-.2.2-.6.4-1.6.4h-19.8c-1,0-1.4-.2-1.6-.4-.2-.2-.4-.6-.4-1.6v-19.9Z"/>
  <path class="st0" d="M109,155.7h19.7c1.2,0,2.2-.2,2.9-1,.7-.7.9-1.7.9-2.9v-19.9c0-1.2-.2-2.2-.9-2.9-.7-.7-1.8-1-2.9-1h-19.7c-1.2,0-2.2.2-2.9,1-.7.7-.9,1.7-.9,2.9v19.9c0,1.2.2,2.2.9,2.9.7.7,1.8,1,2.9,1ZM107.1,131.9c0-1,.2-1.4.4-1.6.2-.2.6-.4,1.6-.4h0s19.7,0,19.7,0c1,0,1.4.2,1.6.4.2.2.4.6.4,1.6v19.9c0,1-.2,1.4-.4,1.6s-.6.4-1.6.4h-19.7c-1,0-1.4-.2-1.6-.4-.2-.2-.3-.6-.3-1.6v-19.9Z"/>
  <path class="st0" d="M79.3,155.7h19.8c1.2,0,2.2-.2,2.9-1,.7-.7.9-1.7.9-2.9v-19.9c0-1.2-.2-2.2-.9-2.9-.7-.7-1.8-1-2.9-1h-19.8c-1.2,0-2.2.2-2.9,1-.7.7-1,1.7-1,2.9v19.9c0,1.2.2,2.2,1,2.9.7.7,1.7,1,2.9,1ZM77.4,131.9c0-1,.2-1.4.4-1.6.2-.2.6-.4,1.6-.4h19.8c1,0,1.4.2,1.6.4.2.2.4.6.4,1.6v19.9c0,1-.2,1.4-.4,1.6-.2.2-.6.4-1.6.4h-19.8c-1,0-1.4-.2-1.6-.4-.2-.2-.4-.6-.4-1.6v-19.9Z"/>
  <path class="st0" d="M49.6,155.7h19.7c1.2,0,2.2-.2,2.9-1,.5-.5.7-1.2.8-2h0v-20.8c0-1.2-.2-2.2-.9-2.9-.7-.7-1.8-1-2.9-1h-19.7c-1.2,0-2.2.2-2.9,1-.7.7-.9,1.7-.9,2.9v19.9c0,1.2.2,2.2.9,2.9.7.7,1.8,1,2.9,1ZM47.7,131.9c0-1,.2-1.4.4-1.6.2-.2.6-.4,1.6-.4h19.7c1,0,1.4.2,1.6.4s.4.6.4,1.6v19.9c0,1-.2,1.4-.4,1.6-.2.2-.6.4-1.6.4h-19.7c-1,0-1.4-.2-1.6-.4-.2-.2-.4-.6-.4-1.6v-19.9Z"/>
  <path class="st0" d="M88.9,184.3c.7-.7,1-1.7,1-2.9v-19.9c0-1.2-.2-2.2-1-2.9-.7-.7-1.7-1-2.9-1h-19.8c-1.2,0-2.2.2-2.9,1-.7.7-.9,1.7-.9,2.9v19.9c0,1.2.2,2.2.9,2.9s1.8,1,2.9,1h19.8c1.2,0,2.2-.2,2.9-1ZM64.7,183c-.2-.2-.4-.6-.4-1.6v-19.9c0-1,.2-1.4.4-1.6.2-.2.6-.4,1.6-.4h0s19.8,0,19.8,0c1,0,1.4.2,1.6.4.2.2.4.6.4,1.6v19.9c0,1-.2,1.4-.4,1.6-.2.2-.6.4-1.6.4h-19.8c-1,0-1.4-.2-1.6-.4Z"/>
  <path class="st0" d="M19.1,185.2h37.9c1.2,0,2.2-.2,2.9-.9.7-.7.9-1.7.9-2.9v-19.9c0-1.2-.2-2.2-.9-2.9-.7-.7-1.8-1-2.9-1H19.1c-1.2,0-2.2.2-2.9,1-.7.7-.9,1.7-.9,2.9v19.9c0,1.2.2,2.2.9,2.9.7.7,1.8.9,2.9.9ZM17.1,161.5c0-1,.2-1.4.4-1.6.2-.2.6-.4,1.6-.4h0s37.9,0,37.9,0c1,0,1.4.2,1.6.4.2.2.4.6.4,1.6v19.9c0,1-.2,1.4-.4,1.6-.2.2-.6.4-1.6.4H19.1c-1,0-1.4-.2-1.6-.4-.2-.2-.4-.6-.4-1.6v-19.9Z"/>
  <path class="st0" d="M118.4,184.3c.7-.7.9-1.7.9-2.9v-19.9c0-1.2-.2-2.2-.9-2.9-.7-.7-1.8-1-2.9-1h-19.8c-1.2,0-2.2.2-2.9,1-.7.7-1,1.7-1,2.9v19.9c0,1.2.2,2.2,1,2.9.7.7,1.7,1,2.9,1h19.8c1.2,0,2.2-.2,2.9-1ZM94.1,183c-.2-.2-.4-.6-.4-1.6v-19.9c0-1,.2-1.4.4-1.6.2-.2.6-.4,1.6-.4h19.8c1,0,1.4.2,1.6.4.2.2.4.6.4,1.6v19.9c0,1-.2,1.4-.4,1.6-.2.2-.6.4-1.6.4h-19.8c-1,0-1.4-.2-1.6-.4Z"/>
  <path class="st0" d="M144.9,185.2c1.2,0,2.2-.2,2.9-1,.7-.7,1-1.7,1-2.9v-19.9c0-1.2-.2-2.2-1-2.9s-1.7-1-2.9-1h-19.8c-1.2,0-2.2.2-2.9,1-.7.7-.9,1.7-.9,2.9v19.9c0,1.2.2,2.2.9,2.9s1.8,1,2.9,1h19.8ZM123.1,181.4v-19.9c0-1,.2-1.4.4-1.6.2-.2.6-.4,1.6-.4h19.8c1,0,1.4.2,1.6.4.2.2.4.6.4,1.6v19.9c0,1-.2,1.4-.4,1.6-.2.2-.6.4-1.6.4h-19.8c-1,0-1.4-.2-1.6-.4-.2-.2-.4-.6-.4-1.6Z"/>
  <path class="st0" d="M154.5,185.2h19.8c1.2,0,2.2-.2,2.9-1,.7-.7.9-1.7.9-2.9v-19.9c0-1.2-.2-2.2-.9-2.9-.7-.7-1.8-1-2.9-1h-19.8c-1.2,0-2.2.2-2.9,1-.7.7-1,1.7-1,2.9v19.9c0,1.2.2,2.2,1,2.9.7.7,1.7,1,2.9,1ZM152.6,161.5c0-1,.2-1.4.4-1.6.2-.2.6-.4,1.6-.4h19.8c1,0,1.4.2,1.6.4s.4.6.4,1.6v19.9c0,1-.2,1.4-.4,1.6-.2.2-.6.4-1.6.4h-19.8c-1,0-1.4-.2-1.6-.4-.2-.2-.4-.6-.4-1.6v-19.9Z"/>
  <path class="st0" d="M184,185.2h19.7c1.2,0,2.2-.2,2.9-1,.7-.7.9-1.7.9-2.9v-19.9c0-1.2-.2-2.2-.9-2.9-.7-.7-1.8-1-2.9-1h-19.7c-1.2,0-2.2.2-2.9,1-.7.7-.9,1.7-.9,2.9v19.9c0,1.2.2,2.2.9,2.9.7.7,1.8,1,2.9,1ZM182,161.5c0-1,.2-1.4.4-1.6s.6-.4,1.6-.4h19.7c1,0,1.4.2,1.6.4.2.2.4.6.4,1.6v19.9c0,1-.2,1.4-.4,1.6-.2.2-.6.4-1.6.4h-19.7c-1,0-1.4-.2-1.6-.4-.2-.2-.4-.6-.4-1.6v-19.9Z"/>
  <path class="st0" d="M213.4,185.2h19.8c1.2,0,2.2-.2,2.9-1s.9-1.7.9-2.9v-19.9c0-1.2-.2-2.2-.9-2.9-.7-.7-1.8-1-2.9-1h-19.8c-1.2,0-2.2.2-2.9,1-.7.7-1,1.7-1,2.9v19.9c0,1.2.2,2.2,1,2.9.7.7,1.7,1,2.9,1ZM211.4,161.5c0-1,.2-1.4.4-1.6.2-.2.6-.4,1.6-.4h19.8c1,0,1.4.2,1.6.4.2.2.4.6.4,1.6v19.9c0,1-.2,1.4-.4,1.6s-.6.4-1.6.4h-19.8c-1,0-1.4-.2-1.6-.4-.2-.2-.4-.6-.4-1.6v-19.9Z"/>
  <path class="st0" d="M242.8,185.2h19.7c1.2,0,2.2-.2,2.9-1,.7-.7.9-1.7.9-2.9v-19.9c0-1.2-.2-2.2-.9-2.9-.7-.7-1.8-1-2.9-1h-19.7c-1.2,0-2.2.2-2.9,1-.7.7-.9,1.7-.9,2.9v19.9c0,1.2.2,2.2.9,2.9.7.7,1.8,1,2.9,1ZM240.8,161.5c0-1,.2-1.4.4-1.6s.6-.4,1.6-.4h19.7c1,0,1.4.2,1.6.4.2.2.4.6.4,1.6v19.9c0,1-.2,1.4-.4,1.6-.2.2-.6.4-1.6.4h-19.7c-1,0-1.4-.2-1.6-.4-.2-.2-.4-.6-.4-1.6v-19.9Z"/>
  <path class="st0" d="M272.2,185.2h19.8c1.2,0,2.2-.2,2.9-1,.7-.7.9-1.7.9-2.9v-19.9c0-1.2-.2-2.2-.9-2.9-.7-.7-1.8-1-2.9-1h-19.8c-1.2,0-2.2.2-2.9,1-.7.7-.9,1.7-.9,2.9v19.9c0,1.2.2,2.2.9,2.9.7.7,1.8,1,2.9,1ZM270.3,161.5c0-1,.2-1.4.4-1.6.2-.2.6-.4,1.6-.4h19.8c1,0,1.4.2,1.6.4.2.2.4.6.4,1.6v19.9c0,1-.2,1.4-.4,1.6-.2.2-.6.4-1.6.4h-19.8c-1,0-1.4-.2-1.6-.4-.2-.2-.4-.6-.4-1.6v-19.9Z"/>
  <path class="st0" d="M321.4,185.2c1.2,0,2.2-.2,2.9-1,.7-.7.9-1.7.9-2.9v-19.9c0-1.2-.2-2.2-.9-2.9-.7-.7-1.8-1-2.9-1h-19.7c-1.2,0-2.2.2-2.9,1-.7.7-.9,1.7-.9,2.9v19.9c0,1.2.2,2.2.9,2.9.7.7,1.8,1,2.9,1h19.7ZM299.7,181.4v-19.9c0-1,.2-1.4.4-1.6.2-.2.6-.4,1.6-.4h19.7c1,0,1.4.2,1.6.4.2.2.4.6.4,1.6v19.9c0,1-.2,1.4-.4,1.6-.2.2-.6.4-1.6.4h-19.7c-1,0-1.4-.2-1.6-.4-.2-.2-.4-.6-.4-1.6Z"/>
  <path class="st0" d="M350.8,185.2c1.2,0,2.2-.2,2.9-1,.7-.7,1-1.7,1-2.9v-19.9c0-1.2-.2-2.2-1-2.9-.7-.7-1.7-1-2.9-1h-19.8c-1.2,0-2.2.2-2.9,1-.7.7-.9,1.7-.9,2.9v19.9c0,1.2.2,2.2.9,2.9.7.7,1.8,1,2.9,1h19.8ZM329.1,181.4v-19.9c0-1,.2-1.4.4-1.6.2-.2.6-.4,1.6-.4h19.8c1,0,1.4.2,1.6.4.2.2.4.6.4,1.6v19.9c0,1-.2,1.4-.4,1.6-.2.2-.6.4-1.6.4h-19.8c-1,0-1.4-.2-1.6-.4-.2-.2-.4-.6-.4-1.6Z"/>
  <path class="st0" d="M360.5,185.2h19.7c1.2,0,2.2-.2,2.9-1,.7-.7.9-1.7.9-2.9v-19.9c0-1.2-.2-2.2-.9-2.9-.7-.7-1.8-1-2.9-1h-19.7c-1.2,0-2.2.2-2.9,1-.7.7-.9,1.7-.9,2.9v19.9c0,1.2.2,2.2.9,2.9.7.7,1.8,1,2.9,1ZM358.6,161.5c0-1,.2-1.4.4-1.6.2-.2.6-.4,1.6-.4h19.7c1,0,1.4.2,1.6.4.2.2.4.6.4,1.6v19.9c0,1-.2,1.4-.4,1.6-.2.2-.6.4-1.6.4h-19.7c-1,0-1.4-.2-1.6-.4-.2-.2-.4-.6-.4-1.6v-19.9Z"/>
  <path class="st0" d="M412.6,184.3c.7-.7,1-1.7,1-2.9v-19.9c0-1.2-.2-2.2-1-2.9-.7-.7-1.7-1-2.9-1h-19.8c-1.2,0-2.2.2-2.9,1-.7.7-.9,1.7-.9,2.9v19.9c0,1.2.2,2.2.9,2.9.7.7,1.8,1,2.9,1h19.8c1.2,0,2.2-.2,2.9-1ZM388.4,183c-.2-.2-.4-.6-.4-1.6v-19.9c0-1,.2-1.4.4-1.6.2-.2.6-.4,1.6-.4h19.8c1,0,1.4.2,1.6.4.2.2.4.6.4,1.6v19.9c0,1-.2,1.4-.4,1.6s-.6.4-1.6.4h-19.8c-1,0-1.4-.2-1.6-.4Z"/>
  <path class="st0" d="M422,212.8c.7.7,1.7.9,2.9.9h43.4c1.2,0,2.2-.2,2.9-.9.7-.7.9-1.7.9-2.9h0s.2-48.3.2-48.3h0c0-1.2-.2-2.2-1-2.9-.7-.7-1.7-1-2.9-1h-50.2c-1.2,0-2.2.2-2.9,1-.7.7-.9,1.7-.9,2.9v19.9c0,1.2.2,2.2.9,2.9.7.7,1.8,1,2.9,1s2.3.1,2.5.3c0,0,.1,0,.2.3,0,.2,0,.6,0,1.2v22.8c0,1.2.2,2.2,1,2.9ZM418.3,183.3c-1,0-1.4-.2-1.6-.4-.2-.2-.4-.6-.4-1.6v-19.9c0-1,.2-1.4.4-1.6.2-.2.6-.4,1.6-.4h0s50.2,0,50.2,0c1,0,1.4.2,1.6.4.2.2.4.6.4,1.6l-.2,48.3c0,1-.2,1.4-.4,1.6s-.6.4-1.6.4h-43.4c-1,0-1.4-.2-1.6-.4-.2-.2-.4-.6-.4-1.6v-22.8c0-.7,0-1.3-.2-1.8-.2-.5-.5-1-.9-1.4-.9-.6-2-.6-3.6-.6Z"/>
  <path class="st0" d="M72.1,213.9h19.8c1.2,0,2.2-.2,2.9-1,.7-.7,1-1.7,1-2.9v-19.9c0-1.2-.2-2.2-1-2.9-.7-.7-1.7-.9-2.9-.9h-19.8c-1.2,0-2.2.2-2.9.9-.7.7-.9,1.7-.9,2.9v19.9c0,1.2.2,2.2.9,2.9.7.7,1.8,1,2.9,1ZM70.1,190.2c0-1,.2-1.4.4-1.6.2-.2.6-.4,1.6-.4h19.8c1,0,1.4.2,1.6.4.2.2.4.6.4,1.6v19.9c0,1-.2,1.4-.4,1.6-.2.2-.6.4-1.6.4h-19.8c-1,0-1.4-.2-1.6-.4-.2-.2-.4-.6-.4-1.6v-19.9Z"/>
  <path class="st0" d="M18.7,213.9h45.7c1.2,0,2.2-.2,2.9-1,.7-.7,1-1.7,1-2.9v-19.9c0-1.2-.2-2.2-1-2.9-.7-.7-1.7-.9-2.9-.9H18.7c-1.2,0-2.2.2-2.9.9-.7.7-1,1.7-1,2.9v19.9c0,1.2.2,2.2,1,2.9.7.7,1.7,1,2.9,1ZM16.7,190.2c0-1,.2-1.4.4-1.6.2-.2.6-.4,1.6-.4h0s45.7,0,45.7,0c1,0,1.4.2,1.6.4s.4.6.4,1.6v19.9c0,1-.2,1.4-.4,1.6-.2.2-.6.4-1.6.4H18.7c-1,0-1.4-.2-1.6-.4-.2-.2-.4-.6-.4-1.6v-19.9Z"/>
  <path class="st0" d="M101.5,213.9h19.7c1.2,0,2.2-.2,2.9-1,.5-.5.7-1.2.8-2h0v-20.8c0-1.2-.2-2.2-.9-2.9-.7-.7-1.8-.9-2.9-.9h-19.7c-1.2,0-2.2.2-2.9.9-.7.7-.9,1.7-.9,2.9v19.9c0,1.2.2,2.2.9,2.9.7.7,1.8,1,2.9,1ZM99.6,190.2c0-1,.2-1.4.4-1.6.2-.2.6-.4,1.6-.4h19.7c1,0,1.4.2,1.6.4s.4.6.4,1.6v19.9c0,1-.2,1.4-.4,1.6-.2.2-.6.4-1.6.4h-19.7c-1,0-1.4-.2-1.6-.4-.2-.2-.4-.6-.4-1.6v-19.9Z"/>
  <path class="st0" d="M153.6,213c.7-.7,1-1.7,1-2.9v-19.9c0-1.2-.2-2.2-1-2.9-.7-.7-1.7-.9-2.9-.9h-19.8c-1.2,0-2.2.2-2.9.9-.7.7-.9,1.7-.9,2.9v19.9c0,1.2.2,2.2.9,2.9.7.7,1.8,1,2.9,1h19.8c1.2,0,2.2-.2,2.9-1ZM129.3,211.7c-.2-.2-.4-.6-.4-1.6v-19.9c0-1,.2-1.4.4-1.6.2-.2.6-.4,1.6-.4h19.8c1,0,1.4.2,1.6.4.2.2.4.6.4,1.6v19.9c0,1-.2,1.4-.4,1.6-.2.2-.6.4-1.6.4h-19.8c-1,0-1.4-.2-1.6-.4Z"/>
  <path class="st0" d="M183,213c.7-.7.9-1.7.9-2.9v-19.9c0-1.2-.2-2.2-.9-2.9-.7-.7-1.8-.9-2.9-.9h-19.8c-1.2,0-2.2.2-2.9.9-.7.7-1,1.7-1,2.9v19.9c0,1.2.2,2.2,1,2.9.7.7,1.7,1,2.9,1h19.8c1.2,0,2.2-.2,2.9-1ZM158.8,211.7c-.2-.2-.4-.6-.4-1.6v-19.9c0-1,.2-1.4.4-1.6s.6-.4,1.6-.4h19.8c1,0,1.4.2,1.6.4.2.2.4.6.4,1.6v19.9c0,1-.2,1.4-.4,1.6s-.6.4-1.6.4h-19.8c-1,0-1.4-.2-1.6-.4Z"/>
  <path class="st0" d="M212.4,213c.7-.7,1-1.7,1-2.9v-19.9c0-1.2-.2-2.2-1-2.9-.7-.7-1.7-.9-2.9-.9h-19.8c-1.2,0-2.2.2-2.9.9-.7.7-.9,1.7-.9,2.9v19.9c0,1.2.2,2.2.9,2.9.7.7,1.8,1,2.9,1h19.8c1.2,0,2.2-.2,2.9-1ZM188.2,211.7c-.2-.2-.4-.6-.4-1.6v-19.9c0-1,.2-1.4.4-1.6.2-.2.6-.4,1.6-.4h19.8c1,0,1.4.2,1.6.4s.4.6.4,1.6v19.9c0,1-.2,1.4-.4,1.6-.2.2-.6.4-1.6.4h-19.8c-1,0-1.4-.2-1.6-.4Z"/>
  <path class="st0" d="M241.9,213c.7-.7.9-1.7.9-2.9v-19.9c0-1.2-.2-2.2-.9-2.9-.7-.7-1.8-.9-2.9-.9h-19.8c-1.2,0-2.2.2-2.9.9-.7.7-1,1.7-1,2.9v19.9c0,1.2.2,2.2,1,2.9.7.7,1.7,1,2.9,1h19.8c1.2,0,2.2-.2,2.9-1ZM217.6,211.7c-.2-.2-.4-.6-.4-1.6v-19.9c0-1,.2-1.4.4-1.6.2-.2.6-.4,1.6-.4h19.8c1,0,1.4.2,1.6.4.2.2.4.6.4,1.6v19.9c0,1-.2,1.4-.4,1.6-.2.2-.6.4-1.6.4h-19.8c-1,0-1.4-.2-1.6-.4Z"/>
  <path class="st0" d="M271.3,213c.7-.7.9-1.7.9-2.9v-19.9c0-1.2-.2-2.2-.9-2.9-.7-.7-1.8-.9-2.9-.9h-19.7c-1.2,0-2.2.2-2.9.9-.7.7-.9,1.7-.9,2.9v19.9c0,1.2.2,2.2.9,2.9.7.7,1.8,1,2.9,1h19.7c1.2,0,2.2-.2,2.9-1ZM247,211.7c-.2-.2-.4-.6-.4-1.6v-19.9c0-1,.2-1.4.4-1.6.2-.2.6-.4,1.6-.4h19.7c1,0,1.4.2,1.6.4s.4.6.4,1.6v19.9c0,1-.2,1.4-.4,1.6-.2.2-.6.4-1.6.4h-19.7c-1,0-1.4-.2-1.6-.4Z"/>
  <path class="st0" d="M300.7,213c.7-.7.9-1.7.9-2.9v-19.9c0-1.2-.2-2.2-.9-2.9-.7-.7-1.8-.9-2.9-.9h-19.8c-1.2,0-2.2.2-2.9.9-.7.7-1,1.7-1,2.9v19.9c0,1.2.2,2.2,1,2.9.7.7,1.7,1,2.9,1h19.8c1.2,0,2.2-.2,2.9-1ZM276.5,211.7c-.2-.2-.4-.6-.4-1.6v-19.9c0-1,.2-1.4.4-1.6.2-.2.6-.4,1.6-.4h19.8c1,0,1.4.2,1.6.4.2.2.4.6.4,1.6v19.9c0,1-.2,1.4-.4,1.6-.2.2-.6.4-1.6.4h-19.8c-1,0-1.4-.2-1.6-.4Z"/>
  <path class="st0" d="M330.2,213c.7-.7.9-1.7.9-2.9v-19.9c0-1.2-.2-2.2-.9-2.9-.7-.7-1.8-.9-2.9-.9h-19.7c-1.2,0-2.2.2-2.9.9-.7.7-.9,1.7-.9,2.9v19.9c0,1.2.2,2.2.9,2.9.7.7,1.8,1,2.9,1h19.7c1.2,0,2.2-.2,2.9-1ZM305.9,211.7c-.2-.2-.4-.6-.4-1.6v-19.9c0-1,.2-1.4.4-1.6.2-.2.6-.4,1.6-.4h19.7c1,0,1.4.2,1.6.4.2.2.4.6.4,1.6v19.9c0,1-.2,1.4-.4,1.6-.2.2-.6.4-1.6.4h-19.7c-1,0-1.4-.2-1.6-.4Z"/>
  <path class="st0" d="M359.6,213c.7-.7.9-1.7.9-2.9v-19.9c0-1.2-.2-2.2-.9-2.9-.7-.7-1.8-.9-2.9-.9h-19.8c-1.2,0-2.2.2-2.9.9-.7.7-1,1.7-1,2.9v19.9c0,1.2.2,2.2.9,2.9.7.7,1.8,1,2.9,1h19.8c1.2,0,2.2-.2,2.9-1ZM335.3,211.7c-.2-.2-.4-.6-.4-1.6v-19.9c0-1,.2-1.4.4-1.6.2-.2.6-.4,1.6-.4h19.8c1,0,1.4.2,1.6.4.2.2.4.6.4,1.6v19.9c0,1-.2,1.4-.4,1.6s-.6.4-1.6.4h-19.8c-1,0-1.4-.2-1.6-.4Z"/>
  <path class="st0" d="M389,213c.7-.7.9-1.7.9-2.9v-19.9c0-1.2-.2-2.2-.9-2.9-.7-.7-1.8-.9-2.9-.9h-19.7c-1.2,0-2.2.2-2.9.9-.7.7-.9,1.7-.9,2.9v19.9c0,1.2.2,2.2.9,2.9.7.7,1.8,1,2.9,1h19.7c1.2,0,2.2-.2,2.9-1ZM364.7,211.7c-.2-.2-.4-.6-.4-1.6v-19.9c0-1,.2-1.4.4-1.6.2-.2.6-.4,1.6-.4h19.7c1,0,1.4.2,1.6.4.2.2.4.6.4,1.6v19.9c0,1-.2,1.4-.4,1.6-.2.2-.6.4-1.6.4h-19.7c-1,0-1.4-.2-1.6-.4Z"/>
  <path class="st0" d="M418.4,213c.7-.7,1-1.7,1-2.9v-19.9c0-1.2-.2-2.2-1-2.9-.7-.7-1.7-.9-2.9-.9h-19.8c-1.2,0-2.2.2-2.9.9-.7.7-.9,1.7-.9,2.9v19.9c0,1.2.2,2.2.9,2.9.7.7,1.8,1,2.9,1h19.8c1.2,0,2.2-.2,2.9-1ZM394.2,211.7c-.2-.2-.4-.6-.4-1.6v-19.9c0-1,.2-1.4.4-1.6.2-.2.6-.4,1.6-.4h19.8c1,0,1.4.2,1.6.4.2.2.4.6.4,1.6v19.9c0,1-.2,1.4-.4,1.6s-.6.4-1.6.4h-19.8c-1,0-1.4-.2-1.6-.4Z"/>
  <path class="st0" d="M109.5,239.7v-20.8c0-1.2-.2-2.2-1-2.9-.7-.7-1.7-1-2.9-1h-19.8c-1.2,0-2.2.2-2.9,1-.7.7-.9,1.7-.9,2.9v19.9c0,1.2.2,2.2.9,2.9.7.7,1.8,1,2.9,1h19.8c1.2,0,2.2-.2,2.9-1,.5-.5.7-1.2.8-2h.1ZM107.6,237.8v1c0,1-.2,1.4-.4,1.6s-.6.4-1.6.4h-19.8c-1,0-1.4-.2-1.6-.4-.2-.2-.4-.6-.4-1.6v-19.9c0-1,.2-1.4.4-1.6.2-.2.6-.4,1.6-.4h19.8c1,0,1.4.2,1.6.4.2.2.4.6.4,1.6v18.9Z"/>
  <path class="st0" d="M77.6,215H18.7c-1.2,0-2.2.2-2.9,1-.7.7-1,1.7-1,2.9v19.9c0,1.2.2,2.2,1,2.9.7.7,1.7,1,2.9,1h58.9c1.2,0,2.2-.2,2.9-1,.7-.7.9-1.7.9-2.9v-19.9c0-1.2-.2-2.2-.9-2.9-.7-.7-1.8-1-2.9-1ZM79.5,238.8c0,1-.2,1.4-.4,1.6s-.6.4-1.6.4H18.7c-1,0-1.4-.2-1.6-.4-.2-.2-.4-.6-.4-1.6v-19.9c0-1,.2-1.4.4-1.6.2-.2.6-.4,1.6-.4h0s58.9,0,58.9,0c1,0,1.4.2,1.6.4.2.2.4.6.4,1.6v19.9Z"/>
  <path class="st0" d="M115.3,242.6h19.8c1.2,0,2.2-.2,2.9-1,.7-.7.9-1.7.9-2.9v-19.9c0-1.2-.2-2.2-.9-2.9-.7-.7-1.8-1-2.9-1h-19.8c-1.2,0-2.2.2-2.9,1-.7.7-1,1.7-1,2.9v19.9c0,1.2.2,2.2,1,2.9.7.7,1.7,1,2.9,1ZM113.3,218.9c0-1,.2-1.4.4-1.6.2-.2.6-.4,1.6-.4h19.8c1,0,1.4.2,1.6.4.2.2.4.6.4,1.6v19.9c0,1-.2,1.4-.4,1.6-.2.2-.6.4-1.6.4h-19.8c-1,0-1.4-.2-1.6-.4-.2-.2-.4-.6-.4-1.6v-19.9Z"/>
  <path class="st0" d="M144.7,242.6h19.8c1.2,0,2.2-.2,2.9-1,.7-.7,1-1.7,1-2.9v-19.9c0-1.2-.2-2.2-1-2.9-.7-.7-1.7-1-2.9-1h-19.8c-1.2,0-2.2.2-2.9,1-.7.7-.9,1.7-.9,2.9v19.9c0,1.2.2,2.2.9,2.9s1.8,1,2.9,1ZM142.8,218.9c0-1,.2-1.4.4-1.6.2-.2.6-.4,1.6-.4h19.8c1,0,1.4.2,1.6.4.2.2.4.6.4,1.6v19.9c0,1-.2,1.4-.4,1.6-.2.2-.6.4-1.6.4h-19.8c-1,0-1.4-.2-1.6-.4-.2-.2-.4-.6-.4-1.6v-19.9Z"/>
  <path class="st0" d="M174.2,242.6h19.8c1.2,0,2.2-.2,2.9-1,.7-.7.9-1.7.9-2.9v-19.9c0-1.2-.2-2.2-.9-2.9-.7-.7-1.8-1-2.9-1h-19.8c-1.2,0-2.2.2-2.9,1-.7.7-1,1.7-1,2.9v19.9c0,1.2.2,2.2,1,2.9.7.7,1.7,1,2.9,1ZM172.2,218.9c0-1,.2-1.4.4-1.6.2-.2.6-.4,1.6-.4h19.8c1,0,1.4.2,1.6.4.2.2.4.6.4,1.6v19.9c0,1-.2,1.4-.4,1.6-.2.2-.6.4-1.6.4h-19.8c-1,0-1.4-.2-1.6-.4-.2-.2-.4-.6-.4-1.6v-19.9Z"/>
  <path class="st0" d="M203.6,242.6h19.7c1.2,0,2.2-.2,2.9-1,.7-.7.9-1.7.9-2.9v-19.9c0-1.2-.2-2.2-.9-2.9-.7-.7-1.8-1-2.9-1h-19.7c-1.2,0-2.2.2-2.9,1-.7.7-.9,1.7-.9,2.9v19.9c0,1.2.2,2.2.9,2.9.7.7,1.8,1,2.9,1ZM201.6,218.9c0-1,.2-1.4.4-1.6.2-.2.6-.4,1.6-.4h19.7c1,0,1.4.2,1.6.4.2.2.4.6.4,1.6v19.9c0,1-.2,1.4-.4,1.6s-.6.4-1.6.4h-19.7c-1,0-1.4-.2-1.6-.4-.2-.2-.4-.6-.4-1.6v-19.9Z"/>
  <path class="st0" d="M233,242.6h19.8c1.2,0,2.2-.2,2.9-1,.7-.7.9-1.7.9-2.9v-19.9c0-1.2-.2-2.2-.9-2.9-.7-.7-1.8-1-2.9-1h-19.8c-1.2,0-2.2.2-2.9,1-.7.7-1,1.7-1,2.9v19.9c0,1.2.2,2.2,1,2.9.7.7,1.7,1,2.9,1ZM231,218.9c0-1,.2-1.4.4-1.6.2-.2.6-.4,1.6-.4h19.8c1,0,1.4.2,1.6.4.2.2.4.6.4,1.6v19.9c0,1-.2,1.4-.4,1.6-.2.2-.6.4-1.6.4h-19.8c-1,0-1.4-.2-1.6-.4-.2-.2-.4-.6-.4-1.6v-19.9Z"/>
  <path class="st0" d="M262.4,242.6h19.7c1.2,0,2.2-.2,2.9-1,.7-.7.9-1.7.9-2.9v-19.9c0-1.2-.2-2.2-.9-2.9-.7-.7-1.8-1-2.9-1h-19.7c-1.2,0-2.2.2-2.9,1-.7.7-.9,1.7-.9,2.9v19.9c0,1.2.2,2.2.9,2.9.7.7,1.8,1,2.9,1ZM260.5,218.9c0-1,.2-1.4.4-1.6.2-.2.6-.4,1.6-.4h19.7c1,0,1.4.2,1.6.4.2.2.4.6.4,1.6v19.9c0,1-.2,1.4-.4,1.6-.2.2-.6.4-1.6.4h-19.7c-1,0-1.4-.2-1.6-.4-.2-.2-.4-.6-.4-1.6v-19.9Z"/>
  <path class="st0" d="M291.9,242.6h19.8c1.2,0,2.2-.2,2.9-1,.7-.7,1-1.7,1-2.9v-19.9c0-1.2-.2-2.2-.9-2.9-.7-.7-1.8-1-2.9-1h-19.8c-1.2,0-2.2.2-2.9,1-.7.7-.9,1.7-.9,2.9v19.9c0,1.2.2,2.2.9,2.9.7.7,1.8,1,2.9,1ZM289.9,218.9c0-1,.2-1.4.4-1.6.2-.2.6-.4,1.6-.4h19.8c1,0,1.4.2,1.6.4.2.2.4.6.4,1.6v19.9c0,1-.2,1.4-.4,1.6-.2.2-.6.4-1.6.4h-19.8c-1,0-1.4-.2-1.6-.4-.2-.2-.4-.6-.4-1.6v-19.9Z"/>
  <path class="st0" d="M321.3,242.6h19.7c1.2,0,2.2-.2,2.9-1,.7-.7.9-1.7.9-2.9v-19.9c0-1.2-.2-2.2-.9-2.9-.7-.7-1.8-1-2.9-1h-19.7c-1.2,0-2.2.2-2.9,1-.7.7-.9,1.7-.9,2.9v19.9c0,1.2.2,2.2.9,2.9.7.7,1.8,1,2.9,1ZM319.3,218.9c0-1,.2-1.4.4-1.6.2-.2.6-.4,1.6-.4h19.7c1,0,1.4.2,1.6.4.2.2.4.6.4,1.6v19.9c0,1-.2,1.4-.4,1.6-.2.2-.6.4-1.6.4h-19.7c-1,0-1.4-.2-1.6-.4-.2-.2-.4-.6-.4-1.6v-19.9Z"/>
  <path class="st0" d="M350.7,242.6h19.8c1.2,0,2.2-.2,2.9-1,.7-.7,1-1.7,1-2.9v-19.9c0-1.2-.2-2.2-1-2.9-.7-.7-1.7-1-2.9-1h-19.8c-1.2,0-2.2.2-2.9,1-.7.7-.9,1.7-.9,2.9v19.9c0,1.2.2,2.2.9,2.9.7.7,1.8,1,2.9,1ZM348.8,218.9c0-1,.2-1.4.4-1.6.2-.2.6-.4,1.6-.4h19.8c1,0,1.4.2,1.6.4.2.2.4.6.4,1.6v19.9c0,1-.2,1.4-.4,1.6-.2.2-.6.4-1.6.4h-19.8c-1,0-1.4-.2-1.6-.4-.2-.2-.4-.6-.4-1.6v-19.9Z"/>
  <path class="st0" d="M399.9,215h-19.8c-1.2,0-2.2.2-2.9,1-.7.7-1,1.7-1,2.9v19.9c0,1.2.2,2.2,1,2.9.7.7,1.7,1,2.9,1h19.8c1.2,0,2.2-.2,2.9-1,.7-.7.9-1.7.9-2.9v-19.9c0-1.2-.2-2.2-.9-2.9s-1.8-1-2.9-1ZM401.8,238.8c0,1-.2,1.4-.4,1.6-.2.2-.6.4-1.6.4h-19.8c-1,0-1.4-.2-1.6-.4-.2-.2-.4-.6-.4-1.6v-19.9c0-1,.2-1.4.4-1.6.2-.2.6-.4,1.6-.4h19.8c1,0,1.4.2,1.6.4.2.2.4.6.4,1.6v19.9Z"/>
  <path class="st0" d="M469,215h-59.5c-1.2,0-2.2.2-2.9,1-.7.7-1,1.7-1,2.9v19.9c0,1.2.2,2.2,1,2.9.7.7,1.8,1,2.9,1h59.5c1.2,0,2.2-.2,2.9-1,.7-.7.9-1.7.9-2.9v-19.9c0-1.2-.2-2.2-.9-2.9-.7-.7-1.8-1-2.9-1ZM470.9,238.8c0,1-.2,1.4-.4,1.6-.2.2-.6.4-1.6.4h-59.5c-1,0-1.4-.2-1.6-.4-.2-.2-.4-.6-.4-1.6v-19.9c0-1,.2-1.4.4-1.6.2-.2.6-.4,1.6-.4h59.5c1,0,1.4.2,1.6.4.2.2.4.6.4,1.6v19.9Z"/>
  <path class="st0" d="M399.9,243.3h-19.8c-1.2,0-2.2.2-2.9.9-.7.7-1,1.8-1,2.9v19.8c0,1.2.2,2.2,1,2.9.7.7,1.7.9,2.9.9h19.8c1.2,0,2.2-.2,2.9-.9.7-.7.9-1.8.9-2.9v-19.8c0-1.2-.2-2.2-.9-2.9-.7-.7-1.8-.9-2.9-.9ZM401.8,267c0,1-.2,1.4-.4,1.6-.2.2-.6.4-1.6.4h-19.8c-1,0-1.4-.2-1.6-.4-.2-.2-.4-.6-.4-1.6v-19.8c0-1,.2-1.4.4-1.6s.6-.4,1.6-.4h19.8c1,0,1.4.2,1.6.4.2.2.4.6.4,1.6v19.8Z"/>
  <path class="st0" d="M371.4,243.3H113.1c-1.2,0-2.2.2-2.9.9s-.9,1.8-.9,2.9v19.8c0,1.2.2,2.2.9,2.9s1.8.9,2.9.9h258.3c1.2,0,2.2-.2,2.9-.9.7-.7.9-1.8.9-2.9v-19.8c0-1.2-.2-2.2-.9-2.9-.7-.7-1.8-.9-2.9-.9ZM373.3,267c0,1-.2,1.4-.4,1.6s-.6.4-1.6.4H113.1c-1,0-1.4-.2-1.6-.4-.2-.2-.4-.6-.4-1.6v-19.8c0-1,.2-1.4.4-1.6s.6-.4,1.6-.4h258.3c1,0,1.4.2,1.6.4.2.2.4.6.4,1.6v19.8Z"/>
  <path class="st0" d="M19.9,155.7h19.8c1.2,0,2.2-.2,2.9-1,.7-.7.9-1.7.9-2.9v-19.9c0-1.2-.2-2.2-.9-2.9-.7-.7-1.8-1-2.9-1h-19.8c-1.2,0-2.2.2-2.9,1-.7.7-.9,1.7-.9,2.9v19.9c0,1.2.2,2.2.9,2.9s1.8,1,2.9,1ZM18,131.9c0-1,.2-1.4.4-1.6.2-.2.6-.4,1.6-.4h19.8c1,0,1.4.2,1.6.4.2.2.4.6.4,1.6v19.9c0,1-.2,1.4-.4,1.6-.2.2-.6.4-1.6.4h-19.8c-1,0-1.4-.2-1.6-.4-.2-.2-.4-.6-.4-1.6v-19.9Z"/>
  <path class="st0" d="M528,185.7h-19.8c-1.2,0-2.2.2-2.9.9-.7.7-.9,1.8-.9,2.9v19.8c0,1.2.2,2.2.9,2.9.7.7,1.8.9,2.9.9h19.8c1.2,0,2.2-.2,2.9-.9.7-.7,1-1.8,1-2.9v-19.8c0-1.2-.2-2.2-1-2.9-.7-.7-1.7-.9-2.9-.9ZM530,209.4c0,1-.2,1.4-.4,1.6-.2.2-.6.4-1.6.4h-19.8c-1,0-1.4-.2-1.6-.4-.2-.2-.4-.6-.4-1.6v-19.8c0-1,.2-1.4.4-1.6.2-.2.6-.4,1.6-.4h19.8c1,0,1.4.2,1.6.4.2.2.4.6.4,1.6v19.8Z"/>
  <path class="st0" d="M528,215h-19.8c-1.2,0-2.2.2-2.9.9-.7.7-.9,1.8-.9,2.9v19.8c0,1.2.2,2.2.9,2.9.7.7,1.8.9,2.9.9h19.8c1.2,0,2.2-.2,2.9-.9.7-.7,1-1.8,1-2.9v-19.8c0-1.2-.2-2.2-1-2.9-.7-.7-1.7-.9-2.9-.9ZM530,238.7c0,1-.2,1.4-.4,1.6-.2.2-.6.4-1.6.4h-19.8c-1,0-1.4-.2-1.6-.4s-.4-.6-.4-1.6v-19.8c0-1,.2-1.4.4-1.6.2-.2.6-.4,1.6-.4h19.8c1,0,1.4.2,1.6.4s.4.6.4,1.6v19.8Z"/>
  <path class="st0" d="M528,244.2h-19.8c-1.2,0-2.2.2-2.9.9-.7.7-.9,1.8-.9,2.9v19.8c0,1.2.2,2.2.9,2.9.7.7,1.8.9,2.9.9h19.8c1.2,0,2.2-.2,2.9-.9.7-.7,1-1.8,1-2.9v-19.8c0-1.2-.2-2.2-1-2.9-.7-.7-1.7-.9-2.9-.9ZM530,268c0,1-.2,1.4-.4,1.6-.2.2-.6.4-1.6.4h-19.8c-1,0-1.4-.2-1.6-.4-.2-.2-.4-.6-.4-1.6v-19.8c0-1,.2-1.4.4-1.6.2-.2.6-.4,1.6-.4h19.8c1,0,1.4.2,1.6.4.2.2.4.6.4,1.6v19.8Z"/>
  <path class="st0" d="M537.6,183.9h19.7c1.2,0,2.2-.2,2.9-.9.7-.7.9-1.8.9-2.9v-19.8c0-1.2-.2-2.2-.9-2.9-.7-.7-1.8-.9-2.9-.9h-19.7c-1.2,0-2.2.2-2.9.9s-.9,1.8-.9,2.9v19.8c0,1.2.2,2.2.9,2.9.7.7,1.8.9,2.9.9ZM535.7,160.2c0-1,.2-1.4.4-1.6s.6-.4,1.6-.4h19.7c1,0,1.4.2,1.6.4s.4.6.4,1.6v19.8c0,1-.2,1.4-.4,1.6-.2.2-.6.4-1.6.4h-19.7c-1,0-1.4-.2-1.6-.4-.2-.2-.4-.6-.4-1.6v-19.8Z"/>
  <path class="st0" d="M557.5,185.7h-19.7c-1.2,0-2.2.2-2.9.9-.7.7-.9,1.8-.9,2.9v19.8c0,1.2.2,2.2.9,2.9.7.7,1.8.9,2.9.9h19.7c1.2,0,2.2-.2,2.9-.9.7-.7.9-1.8.9-2.9v-19.8c0-1.2-.2-2.2-.9-2.9-.7-.7-1.8-.9-2.9-.9ZM559.4,209.4c0,1-.2,1.4-.4,1.6-.2.2-.6.4-1.6.4h-19.7c-1,0-1.4-.2-1.6-.4-.2-.2-.4-.6-.4-1.6v-19.8c0-1,.2-1.4.4-1.6.2-.2.6-.4,1.6-.4h19.7c1,0,1.4.2,1.6.4.2.2.4.6.4,1.6v19.8Z"/>
  <path class="st0" d="M557.5,215h-19.7c-1.2,0-2.2.2-2.9.9s-.9,1.8-.9,2.9v19.8c0,1.2.2,2.2.9,2.9.7.7,1.8.9,2.9.9h19.7c1.2,0,2.2-.2,2.9-.9.7-.7.9-1.8.9-2.9v-19.8c0-1.2-.2-2.2-.9-2.9-.7-.7-1.8-.9-2.9-.9ZM559.4,238.7c0,1-.2,1.4-.4,1.6-.2.2-.6.4-1.6.4h-19.7c-1,0-1.4-.2-1.6-.4s-.4-.6-.4-1.6v-19.8c0-1,.2-1.4.4-1.6.2-.2.6-.4,1.6-.4h19.7c1,0,1.4.2,1.6.4.2.2.4.6.4,1.6v19.8Z"/>
  <path class="st0" d="M557.5,244.2h-19.7c-1.2,0-2.2.2-2.9.9-.7.7-.9,1.8-.9,2.9v19.8c0,1.2.2,2.2.9,2.9.7.7,1.8.9,2.9.9h19.7c1.2,0,2.2-.2,2.9-.9.7-.7.9-1.8.9-2.9v-19.8c0-1.2-.2-2.2-.9-2.9-.7-.7-1.8-.9-2.9-.9ZM559.4,268c0,1-.2,1.4-.4,1.6-.2.2-.6.4-1.6.4h-19.7c-1,0-1.4-.2-1.6-.4-.2-.2-.4-.6-.4-1.6v-19.8c0-1,.2-1.4.4-1.6.2-.2.6-.4,1.6-.4h19.7c1,0,1.4.2,1.6.4.2.2.4.6.4,1.6v19.8Z"/>
  <path class="st0" d="M589.7,157.3c-.7-.7-1.8-.9-2.9-.9h-19.7c-1.2,0-2.2.2-2.9.9-.7.7-1,1.8-1,2.9v19.8c0,1.2.2,2.2,1,2.9.7.7,1.8.9,2.9.9h19.7c1.2,0,2.2-.2,2.9-.9.7-.7.9-1.8.9-2.9v-19.8c0-1.2-.2-2.2-.9-2.9ZM588.7,180.1c0,1-.2,1.4-.4,1.6-.2.2-.6.4-1.6.4h-19.7c-1,0-1.4-.2-1.6-.4-.2-.2-.4-.6-.4-1.6v-19.8c0-1,.2-1.4.4-1.6s.6-.4,1.6-.4h19.7c1,0,1.4.2,1.6.4.2.2.4.6.4,1.6v19.8Z"/>
  <path class="st0" d="M586.7,185.7h-19.7c-1.2,0-2.2.2-2.9.9s-1,1.8-1,2.9v19.8c0,1.2.2,2.2,1,2.9.7.7,1.8.9,2.9.9h19.7c1.2,0,2.2-.2,2.9-.9s.9-1.8.9-2.9v-19.8c0-1.2-.2-2.2-.9-2.9-.7-.7-1.8-.9-2.9-.9ZM588.7,209.4c0,1-.2,1.4-.4,1.6-.2.2-.6.4-1.6.4h-19.7c-1,0-1.4-.2-1.6-.4-.2-.2-.4-.6-.4-1.6v-19.8c0-1,.2-1.4.4-1.6.2-.2.6-.4,1.6-.4h19.7c1,0,1.4.2,1.6.4.2.2.4.6.4,1.6v19.8Z"/>
  <path class="st0" d="M586.7,215h-19.7c-1.2,0-2.2.2-2.9.9-.7.7-1,1.8-1,2.9v19.8c0,1.2.2,2.2,1,2.9.7.7,1.8.9,2.9.9h19.7c1.2,0,2.2-.2,2.9-.9.7-.7.9-1.8.9-2.9v-19.8c0-1.2-.2-2.2-.9-2.9-.7-.7-1.8-.9-2.9-.9ZM588.7,238.7c0,1-.2,1.4-.4,1.6-.2.2-.6.4-1.6.4h-19.7c-1,0-1.4-.2-1.6-.4-.2-.2-.4-.6-.4-1.6v-19.8c0-1,.2-1.4.4-1.6.2-.2.6-.4,1.6-.4h19.7c1,0,1.4.2,1.6.4.2.2.4.6.4,1.6v19.8Z"/>
  <path class="st0" d="M586.7,244.2h-19.7c-1.2,0-2.2.2-2.9.9-.7.7-1,1.8-1,2.9v19.8c0,1.2.2,2.2,1,2.9.7.7,1.8.9,2.9.9h19.7c1.2,0,2.2-.2,2.9-.9.7-.7.9-1.8.9-2.9v-19.8c0-1.2-.2-2.2-.9-2.9-.7-.7-1.8-.9-2.9-.9ZM588.7,268c0,1-.2,1.4-.4,1.6-.2.2-.6.4-1.6.4h-19.7c-1,0-1.4-.2-1.6-.4-.2-.2-.4-.6-.4-1.6v-19.8c0-1,.2-1.4.4-1.6.2-.2.6-.4,1.6-.4h19.7c1,0,1.4.2,1.6.4.2.2.4.6.4,1.6v19.8Z"/>
  <path class="st0" d="M566.4,118.8h19.7c1.2,0,2.2-.2,2.9-.9.7-.7.9-1.8.9-2.9v-19.8c0-1.2-.2-2.2-.9-2.9-.7-.7-1.8-.9-2.9-.9h-19.7c-1.2,0-2.2.2-2.9.9-.7.7-.9,1.8-.9,2.9v19.8c0,1.2.2,2.2.9,2.9.7.7,1.8.9,2.9.9ZM564.5,95.1c0-1,.2-1.4.4-1.6.2-.2.6-.4,1.6-.4h19.7c1,0,1.4.2,1.6.4.2.2.4.6.4,1.6v19.8c0,1-.2,1.4-.4,1.6-.2.2-.6.4-1.6.4h-19.7c-1,0-1.4-.2-1.6-.4-.2-.2-.4-.6-.4-1.6v-19.8Z"/>
  <path class="st0" d="M472.3,124.8H16.6h0c-1.2,0-2.2.2-2.9,1-.7.7-.9,1.7-.9,2.9v112.4c0,1.2.2,2.2.9,2.9.7.7,1.8,1,2.9,1h90c.5,0,.7,0,.6,0,0,0,0,0,0,.6v24.8c0,1.2.2,2.2.9,2.9.7.7,1.8.9,2.9.9h292.9c1.2,0,2.2-.2,2.9-.9.7-.7.9-1.8.9-2.9v-24.5c0-.5,0-.6.2-.7.1,0,.3-.2.8-.2h63.4c1.2,0,2.2-.2,2.9-.9.7-.7,1-1.7,1-2.9v-112.4c0-1.2-.2-2.2-1-2.9-.7-.7-1.7-1-2.9-1ZM474.3,241.2c0,1-.2,1.4-.4,1.6s-.6.4-1.6.4h-63.4c-.7,0-1.5.1-2.1.7-.6.5-.9,1.3-.9,2.2v24.5c0,1-.2,1.4-.4,1.6-.2.2-.6.4-1.6.4H111.1c-1,0-1.4-.2-1.6-.4-.2-.2-.4-.6-.4-1.6v-24.8c0-.8-.2-1.6-.8-2.1-.6-.5-1.2-.5-1.8-.5H16.6c-1,0-1.4-.2-1.6-.4-.2-.2-.4-.6-.4-1.6v-112.4c0-1,.2-1.4.4-1.6.2-.2.6-.4,1.6-.4h0s455.7,0,455.7,0c1,0,1.4.2,1.6.4.2.2.4.6.4,1.6v112.4Z"/>
</svg>