<?xml version="1.0" encoding="UTF-8"?>
<svg xmlns="http://www.w3.org/2000/svg" version="1.1" xmlns:cc="http://creativecommons.org/ns#" xmlns:dc="http://purl.org/dc/elements/1.1/" xmlns:inkscape="http://www.inkscape.org/namespaces/inkscape" xmlns:rdf="http://www.w3.org/1999/02/22-rdf-syntax-ns#" xmlns:sodipodi="http://sodipodi.sourceforge.net/DTD/sodipodi-0.dtd" xmlns:svg="http://www.w3.org/2000/svg" viewBox="0 0 598.9 351">
  <!-- Generator: Adobe Illustrator 29.0.1, SVG Export Plug-In . SVG Version: 2.1.0 Build 192)  -->
  <defs>
    <style>
      .st0 {
        fill: none;
        stroke: #f4f4f4;
        stroke-miterlimit: 10;
        stroke-width: 2px;
      }
    </style>
  </defs>
  <g id="svg9136" inkscape:version="0.91 r13725">
    <sodipodi:namedview id="syscarousel" bordercolor="#666666" borderopacity="1.0" fit-margin-bottom="0" fit-margin-left="0" fit-margin-right="0" fit-margin-top="0" inkscape:bbox-nodes="true" inkscape:bbox-paths="true" inkscape:current-layer="layer1" inkscape:cx="164.19731" inkscape:cy="128.25713" inkscape:document-units="px" inkscape:pageopacity="0.0" inkscape:pageshadow="2" inkscape:snap-bbox="true" inkscape:snap-global="false" inkscape:window-height="808" inkscape:window-maximized="0" inkscape:window-width="1440" inkscape:window-x="11" inkscape:window-y="120" inkscape:zoom="0.99" pagecolor="#ffffff" showgrid="false" showguides="false" units="px"/>
    <g>
      <path class="st0" d="M399.4,125.3c-9.2-.1-16.7,7.2-16.8,16.4v66.3c0,9.2,7.4,16.6,16.6,16.6s16.6-7.4,16.6-16.6v-66.3c-.1-9-7.4-16.3-16.4-16.4Z"/>
      <path class="st0" d="M199.9,125.3c-9.2-.1-16.7,7.2-16.8,16.4v66.3c0,9.2,7.4,16.6,16.6,16.6s16.6-7.4,16.6-16.6v-66.3c-.1-9-7.4-16.3-16.4-16.4Z"/>
      <path class="st0" d="M226.3,244.1h0c0,7.6,6.2,13.8,13.8,13.8h13.3v36.5c0,9.2,7.4,16.6,16.6,16.6s16.6-7.4,16.6-16.6v-36.5h25.4v36.5c0,9.2,7.4,16.6,16.6,16.6s16.6-7.4,16.6-16.6v-36.5h13.8c7.6,0,13.8-6.2,13.8-13.8v-119.2h-146.4v119.2Z"/>
      <path class="st0" d="M334.4,63.5l13.4-20.2c.7-1,.4-2.4-.6-3.1-1-.7-2.4-.4-3.1.6l-13.8,20.9c-9.3-3.6-19.7-5.6-30.7-5.6h0c-11,0-21.4,2-30.8,5.6l-13.8-20.9c-.7-1-2-1.3-3.1-.6-1,.7-1.3,2-.6,3.1l13.4,20.2c-22.3,10.1-37.5,29.6-38.2,52.1h146.1c-.7-22.5-15.9-42-38.2-52.1ZM268.1,94.5h0c-4.5,0-8.2-3.7-8.2-8.2.1-4.5,3.9-8.1,8.4-8,4.4.1,7.9,3.6,8,8,0,4.5-3.7,8.2-8.2,8.2ZM331,94.5c-4.5,0-8.2-3.7-8.2-8.2s3.7-8.2,8.2-8.2c4.5,0,8.2,3.7,8.2,8.2,0,4.5-3.7,8.2-8.2,8.2Z"/>
    </g>
  </g>
</svg>