<?xml version="1.0" encoding="UTF-8"?>
<svg id="Layer_4" xmlns="http://www.w3.org/2000/svg" version="1.1" viewBox="0 0 598.2 350.3">
  <!-- Generator: Adobe Illustrator 29.0.1, SVG Export Plug-In . SVG Version: 2.1.0 Build 192)  -->
  <defs>
    <style>
      .st0 {
        fill: #f4f4f4;
      }
    </style>
  </defs>
  <path class="st0" d="M100,133.1c-1.1,0-2-.9-2-2h0v-22.8c0-1.1.9-2,2-2h22.8c1.1,0,2,.9,2,2h0v22.8c0,1.1-.9,2-2,2h-22.8ZM100,108.3v22.8h22.8v-22.8h-22.8Z"/>
  <path class="st0" d="M127.8,133.1c-1.1,0-2-.9-2-2h0v-22.8c0-1.1.9-2,2-2h22.8c1.1,0,2,.9,2,2h0v22.8c0,1.1-.9,2-2,2h-22.8ZM127.8,108.3v22.8h22.8v-22.8h-22.8Z"/>
  <path class="st0" d="M155.5,133.1c-1.1,0-2-.9-2-2h0v-22.8c0-1.1.9-2,2-2h22.8c1.1,0,2,.9,2,2h0v22.8h0c0,1.1-.9,2-2,2h-22.8ZM155.5,108.3v22.8h22.8v-22.8h-22.8Z"/>
  <path class="st0" d="M183.3,133.1c-1.1,0-2-.9-2-2h0v-22.8c0-1.1.9-2,2-2h22.8c1.1,0,2,.9,2,2h0v22.8c0,1.1-.9,2-2,2h-22.8ZM183.3,108.3v22.8h22.8v-22.8h-22.8Z"/>
  <path class="st0" d="M211.1,133.1c-1.1,0-2-.9-2-2h0v-22.8c0-1.1.9-2,2-2h22.8c1.1,0,2,.9,2,2h0v22.8c0,1.1-.9,2-2,2h-22.8ZM211.1,108.3v22.8h22.8v-22.8h-22.8Z"/>
  <path class="st0" d="M238.8,133.1c-1.1,0-2-.9-2-2h0v-22.8c0-1.1.9-2,2-2h22.8c1.1,0,2,.9,2,2h0v22.8c0,1.1-.9,2-2,2h-22.8ZM238.8,108.3v22.8h22.8v-22.8h-22.8Z"/>
  <path class="st0" d="M266.6,133.1c-1.1,0-2-.9-2-2h0v-22.8c0-1.1.9-2,2-2h22.8c1.1,0,2,.9,2,2h0v22.8c0,1.1-.9,2-2,2h-22.8ZM289.4,131.1h0v-22.8h-22.8v22.8h22.8Z"/>
  <path class="st0" d="M294.4,133.1c-1.1,0-2-.9-2-2h0v-22.8c0-1.1.9-2,2-2h22.8c1.1,0,2,.9,2,2h0v22.8c0,1.1-.9,2-2,2h-22.8ZM294.4,108.3v22.8h22.8v-22.8h-22.8Z"/>
  <path class="st0" d="M322.2,133.1c-1.1,0-2-.9-2-2h0v-22.8c0-1.1.9-2,2-2h22.8c1.1,0,2,.9,2,2h0v22.8c0,1.1-.9,2-2,2h-22.8ZM322.2,108.3v22.8h22.8v-22.8h-22.8Z"/>
  <path class="st0" d="M349.9,133.1c-1.1,0-2-.9-2-2h0v-22.8c0-1.1.9-2,2-2h22.8c1.1,0,2,.9,2,2h0v22.8h0c0,1.1-.9,2-2,2h-22.8ZM349.9,108.3v22.8h22.8v-22.8h-22.8Z"/>
  <path class="st0" d="M377.7,133.1c-1.1,0-2-.9-2-2h0v-22.8c0-1.1.9-2,2-2h22.8c1.1,0,2,.9,2,2h0v22.8h0c0,1.1-.9,2-2,2h-22.8ZM377.7,108.3v22.8h22.8v-22.8h-22.8Z"/>
  <path class="st0" d="M405.5,133.1c-1.1,0-2-.9-2-2h0v-22.8c0-1.1.9-2,2-2h22.8c1.1,0,2,.9,2,2h0v22.8h0c0,1.1-.9,2-2,2h-22.8ZM405.5,108.3v22.8h22.8v-22.8h-22.8Z"/>
  <path class="st0" d="M142.3,160.8c-1.1,0-2-.9-2-2h0v-22.8c0-1.1.9-2,2-2h22.8c1.1,0,2,.9,2,2h0v22.8c0,1.1-.9,2-2,2h-22.8ZM142.3,136v22.8h22.8v-22.8h-22.8Z"/>
  <path class="st0" d="M170.1,160.8c-1.1,0-2-.9-2-2h0v-22.8c0-1.1.9-2,2-2h22.8c1.1,0,2,.9,2,2h0v22.8c0,1.1-.9,2-2,2h-22.8ZM170.1,136v22.8h22.8v-22.8h-22.8Z"/>
  <path class="st0" d="M197.9,160.8c-1.1,0-2-.9-2-2h0v-22.8c0-1.1.9-2,2-2h22.8c1.1,0,2,.9,2,2h0v22.8c0,1.1-.9,2-2,2h-22.8ZM197.9,136v22.8h22.8v-22.8h-22.8Z"/>
  <path class="st0" d="M225.7,160.8c-1.1,0-2-.9-2-2h0v-22.8c0-1.1.9-2,2-2h22.8c1.1,0,2,.9,2,2h0v22.8c0,1.1-.9,2-2,2h-22.8ZM225.6,136v22.8h22.8v-22.8h-22.8Z"/>
  <path class="st0" d="M253.4,160.8c-1.1,0-2-.9-2-2h0v-22.8c0-1.1.9-2,2-2h22.8c1.1,0,2,.9,2,2h0v22.8c0,1.1-.9,2-2,2h-22.8,0ZM253.4,136v22.8h22.8v-22.8h-22.8,0Z"/>
  <path class="st0" d="M281.2,160.8c-1.1,0-2-.9-2-2h0v-22.8c0-1.1.9-2,2-2h22.8c1.1,0,2,.9,2,2h0v22.8h0c0,1.1-.9,2-2,2h-22.8ZM281.2,136v22.8h22.8v-22.8h-22.8Z"/>
  <path class="st0" d="M309,160.8c-1.1,0-2-.9-2-2h0v-22.8c0-1.1.9-2,2-2h22.8c1.1,0,2,.9,2,2h0v22.8h0c0,1.1-.9,2-2,2h-22.8ZM331.7,158.8h0v-22.8h-22.8v22.8h22.8Z"/>
  <path class="st0" d="M336.7,160.8c-1.1,0-2-.9-2-2h0v-22.8c0-1.1.9-2,2-2h22.8c1.1,0,2,.9,2,2h0v22.8h0c0,1.1-.9,2-2,2h-22.8ZM336.7,136v22.8h22.8v-22.8h-22.8Z"/>
  <path class="st0" d="M364.5,160.8c-1.1,0-2-.9-2-2h0v-22.8c0-1.1.9-2,2-2h22.8c1.1,0,2,.9,2,2h0v22.8h0c0,1.1-.9,2-2,2h-22.8ZM387.3,158.8h0v-22.8h-22.8v22.8h22.8Z"/>
  <path class="st0" d="M392.3,160.8c-1.1,0-2-.9-2-2h0v-22.8c0-1.1.9-2,2-2h22.8c1.1,0,2,.9,2,2h0v22.8h0c0,1.1-.9,2-2,2h-22.8ZM392.3,136v22.8h22.8v-22.8h-22.8Z"/>
  <path class="st0" d="M420,160.8c-1.1,0-2-.9-2-2h0v-22.8c0-1.1.9-2,2-2h22.8c1.1,0,2,.9,2,2h0v22.8h0c0,1.1-.9,2-2,2h-22.8ZM420,136v22.8h22.8v-22.8h-22.8Z"/>
  <path class="st0" d="M447.8,160.8c-1.1,0-2-.9-2-2h0v-22.8c0-1.1.9-2,2-2h22.8c1.1,0,2,.9,2,2h0v22.8h0c0,1.1-.9,2-2,2h-22.8ZM447.8,136v22.8h22.8v-22.8h-22.8Z"/>
  <path class="st0" d="M149.2,188.5c-1.1,0-2-.9-2-2h0v-22.8c0-1.1.9-2,2-2h22.8c1.1,0,2,.9,2,2h0v22.8c0,1.1-.9,2-2,2h-22.8ZM172,186.5h0v-22.8h-22.8v22.8h22.8Z"/>
  <path class="st0" d="M177,188.5c-1.1,0-2-.9-2-2h0v-22.8c0-1.1.9-2,2-2h22.8c1.1,0,2,.9,2,2h0v22.8c0,1.1-.9,2-2,2h-22.8ZM199.8,186.5h0v-22.8h-22.8v22.8h22.8Z"/>
  <path class="st0" d="M204.8,188.5c-1.1,0-2-.9-2-2h0v-22.8c0-1.1.9-2,2-2h22.8c1.1,0,2,.9,2,2h0v22.8c0,1.1-.9,2-2,2h-22.8ZM227.5,186.5h0v-22.8h-22.8v22.8h22.8Z"/>
  <path class="st0" d="M232.5,188.5c-1.1,0-2-.9-2-2h0v-22.8c0-1.1.9-2,2-2h22.8c1.1,0,2,.9,2,2h0v22.8h0c0,1.1-.9,2-2,2h-22.8,0ZM255.3,186.5h0v-22.8h-22.8v22.8h22.8Z"/>
  <path class="st0" d="M260.3,188.5c-1.1,0-2-.9-2-2h0v-22.8c0-1.1.9-2,2-2h22.8c1.1,0,2,.9,2,2h0v22.8c0,1.1-.9,2-2,2h-22.8ZM283.1,186.5h0v-22.8h-22.8v22.8h22.8Z"/>
  <path class="st0" d="M288.1,188.5c-1.1,0-2-.9-2-2h0v-22.8c0-1.1.9-2,2-2h22.8c1.1,0,2,.9,2,2h0v22.8c0,1.1-.9,2-2,2h-22.8ZM310.9,186.5h0v-22.8h-22.8v22.8h22.8Z"/>
  <path class="st0" d="M315.9,188.5c-1.1,0-2-.9-2-2h0v-22.8c0-1.1.9-2,2-2h22.8c1.1,0,2,.9,2,2h0v22.8c0,1.1-.9,2-2,2h-22.8ZM315.8,163.7v22.8h22.8v-22.8h-22.8Z"/>
  <path class="st0" d="M343.6,188.5c-1.1,0-2-.9-2-2h0v-22.8c0-1.1.9-2,2-2h22.8c1.1,0,2,.9,2,2h0v22.8h0c0,1.1-.9,2-2,2h-22.8ZM366.4,186.5h0v-22.8h-22.8v22.8h22.8Z"/>
  <path class="st0" d="M371.4,188.5c-1.1,0-2-.9-2-2h0v-22.8c0-1.1.9-2,2-2h22.8c1.1,0,2,.9,2,2h0v22.8h0c0,1.1-.9,2-2,2h-22.8ZM371.4,163.7v22.8h22.8v-22.8h-22.8Z"/>
  <path class="st0" d="M399.2,188.5c-1.1,0-2-.9-2-2h0v-22.8c0-1.1.9-2,2-2h22.8c1.1,0,2,.9,2,2h0v22.8c0,1.1-.9,2-2,2h-22.8ZM399.2,163.7v22.8h22.8v-22.8h-22.8Z"/>
  <path class="st0" d="M426.9,188.5c-1.1,0-2-.9-2-2h0v-22.8c0-1.1.9-2,2-2h22.8c1.1,0,2,.9,2,2h0v22.8c0,1.1-.9,2-2,2h-22.8ZM449.7,186.5h0v-22.8h-22.8v22.8h22.8Z"/>
  <path class="st0" d="M454.7,188.9c-1.1,0-2-.9-2-2h0v-22.8c0-1.1.9-2,2-2h17.7c.7,0,.6,0,.8-.3h0c.2-.3.4-1.3.4-2.8h0v-22.8c0-1.1.9-2,2-2h22.8c.5,0,1.1.3,1.4.7h0c.3.4.4.9.4,1.3h0v50.7c0,1.1-.9,2-2,2h-43.5ZM454.7,164.1v22.8h43.4v-50.7h-22.6v22.8h-1,1c0,1.6-.1,2.7-.6,3.7h0c-.5,1-1.6,1.5-2.6,1.4h-17.7.1Z"/>
  <path class="st0" d="M163,216.2c-1.1,0-2-.9-2-2h0v-22.8c0-1.1.9-2,2-2h22.8c1.1,0,2,.9,2,2h0v22.8c0,1.1-.9,2-2,2h-22.8ZM185.8,214.2h0v-22.8h-22.8v22.8h22.8Z"/>
  <path class="st0" d="M100,216.2c-1.1,0-2-.9-2-2h0v-22.8c0-1.1.9-2,2-2h57.9c1.1,0,2,.9,2,2h0v22.8c0,1.1-.9,2-2,2,0,0-57.9,0-57.9,0ZM157.9,214.2h0v-22.8h-57.9v22.8h57.9Z"/>
  <path class="st0" d="M190.8,216.2c-1.1,0-2-.9-2-2h0v-22.8c0-1.1.9-2,2-2h22.8c1.1,0,2,.9,2,2h0v22.8h0c0,1.1-.9,2-2,2h-22.8ZM213.5,214.2h0v-22.8h-22.8v22.8h22.8Z"/>
  <path class="st0" d="M218.5,216.2c-1.1,0-2-.9-2-2h0v-22.8c0-1.1.9-2,2-2h22.8c1.1,0,2,.9,2,2h0v22.8c0,1.1-.9,2-2,2h-22.8ZM241.3,214.2h0v-22.8h-22.8v22.8h22.8Z"/>
  <path class="st0" d="M246.3,216.2c-1.1,0-2-.9-2-2h0v-22.8c0-1.1.9-2,2-2h22.8c1.1,0,2,.9,2,2h0v22.8c0,1.1-.9,2-2,2h-22.8ZM269.1,214.2h0v-22.8h-22.8v22.8h22.8Z"/>
  <path class="st0" d="M274.1,216.2c-1.1,0-2-.9-2-2h0v-22.8c0-1.1.9-2,2-2h22.8c1.1,0,2,.9,2,2h0v22.8c0,1.1-.9,2-2,2h-22.8ZM296.9,214.2h0v-22.8h-22.8v22.8h22.8Z"/>
  <path class="st0" d="M301.9,216.2c-1.1,0-2-.9-2-2h0v-22.8c0-1.1.9-2,2-2h22.8c1.1,0,2,.9,2,2h0v22.8c0,1.1-.9,2-2,2h-22.8ZM324.6,214.2h0v-22.8h-22.8v22.8h22.8Z"/>
  <path class="st0" d="M329.6,216.2c-1.1,0-2-.9-2-2h0v-22.8c0-1.1.9-2,2-2h22.8c1.1,0,2,.9,2,2h0v22.8c0,1.1-.9,2-2,2h-22.8ZM352.4,214.2h0v-22.8h-22.8v22.8h22.8Z"/>
  <path class="st0" d="M357.4,216.2c-1.1,0-2-.9-2-2h0v-22.8c0-1.1.9-2,2-2h22.8c1.1,0,2,.9,2,2h0v22.8h0c0,1.1-.9,2-2,2h-22.8ZM357.4,191.5v22.8h22.8v-22.8h-22.8Z"/>
  <path class="st0" d="M385.2,216.2c-1.1,0-2-.9-2-2h0v-22.8c0-1.1.9-2,2-2h22.8c1.1,0,2,.9,2,2h0v22.8h0c0,1.1-.9,2-2,2h-22.8ZM385.2,191.5v22.8h22.8v-22.8h-22.8Z"/>
  <path class="st0" d="M412.9,216.2c-1.1,0-2-.9-2-2h0v-22.8c0-1.1.9-2,2-2h22.8c1.1,0,2,.9,2,2h0v22.8h0c0,1.1-.9,2-2,2h-22.8ZM435.7,214.2h0v-22.8h-22.8v22.8h22.8Z"/>
  <path class="st0" d="M440.7,216.2c-1.1,0-2-.9-2-2h0v-22.8c0-1.1.9-2,2-2h56.9c1.1,0,2,.9,2,2h0v22.8h0c0,1.1-.9,2-2,2h-56.9ZM440.7,191.5v22.8h56.9v-22.8h-56.9Z"/>
  <path class="st0" d="M433.2,133.1c-1.1,0-2-.9-2-2h0v-22.8c0-1.1.9-2,2-2h22.8c1.1,0,2,.9,2,2h0v22.8h0c0,1.1-.9,2-2,2h-22.8ZM433.2,108.3v22.8h22.8v-22.8h-22.8Z"/>
  <path class="st0" d="M462,133.1c-1.1,0-2-.9-2-2h0v-22.8c0-1.1.9-2,2-2h36.2c1.1,0,2,.9,2,2h0v22.8h0c0,1.1-.9,2-2,2h-36.2ZM462,108.3v22.8h36.2v-22.8h-36.2Z"/>
  <path class="st0" d="M454.8,243.9c-1.1,0-2-.9-2-2h0v-22.8c0-1.1.9-2,2-2h43.4c1.1,0,2,.9,2,2h0v22.8h0c0,1.1-.9,2-2,2h-43.4ZM498.2,242h0v-22.8h-43.4v22.8h43.4Z"/>
  <path class="st0" d="M100,243.9c-1.1,0-2-.9-2-2h0v-22.8c0-1.1.9-2,2-2h41.4c1.1,0,2,.9,2,2h0v22.8c0,1.1-.9,2-2,2,0,0-41.4,0-41.4,0ZM141.4,242h0v-22.8h-41.4v22.8h41.4Z"/>
  <path class="st0" d="M100,188.5c-1.1,0-2-.9-2-2h0v-22.8c0-1.1.9-2,2-2h43.4c1.1,0,2,.9,2,2h0v22.8c0,1.1-.9,2-2,2,0,0-43.4,0-43.4,0ZM143.4,186.5h0v-22.8h-43.4v22.8h43.4Z"/>
  <path class="st0" d="M100,160.8c-1.1,0-2-.9-2-2h0v-22.8c0-1.1.9-2,2-2h37.2c1.1,0,2,.9,2,2h0v22.8c0,1.1-.9,2-2,2h-37.2ZM100,136v22.8h37.2v-22.8h-37.2Z"/>
  <path class="st0" d="M411.7,243.9c-1.1,0-2-.9-2-2h0v-22.8c0-1.1.9-2,2-2h38.3c1.1,0,2,.9,2,2h0v22.8h0c0,1.1-.9,2-2,2h-38.3ZM411.7,219.2v22.8h38.3v-22.8h-38.3Z"/>
  <path class="st0" d="M146.6,243.9c-1.1,0-2-.9-2-2h0v-22.8c0-1.1.9-2,2-2h40.3c1.1,0,2,.9,2,2h0v22.8h0c0,1.1-.9,2-2,2h-40.3ZM187,242h0v-22.8h-40.3v22.8h40.3Z"/>
  <path class="st0" d="M192.1,244c-1.1,0-2-.9-2-2h0v-22.8c0-1.1.9-2,2-2h214.9c1.1,0,2,.9,2,2h0v22.8c0,1.1-.9,2-2,2h-214.9ZM192.1,219.2v22.8h214.9v-22.8h-214.9Z"/>
</svg>