<?xml version="1.0" encoding="UTF-8"?>
<svg id="Layer_3" xmlns="http://www.w3.org/2000/svg" version="1.1" viewBox="0 0 598.2 350.3">
  <!-- Generator: Adobe Illustrator 29.0.1, SVG Export Plug-In . SVG Version: 2.1.0 Build 192)  -->
  <defs>
    <style>
      .st0 {
        fill: none;
        stroke: #f4f4f4;
        stroke-miterlimit: 10;
        stroke-width: 2px;
      }
    </style>
  </defs>
  <rect class="st0" x="198.9" y="23.3" width="202.7" height="319.4" rx="9.7" ry="9.7"/>
  <rect class="st0" x="232.9" y="43.9" width="134.1" height="74.4" rx="3.9" ry="3.9"/>
  <rect class="st0" x="274.7" y="310" width="50.1" height="32.7"/>
  <rect class="st0" x="287" y="315.7" width="25.6" height="26.9"/>
  <circle class="st0" cx="333.4" cy="233.8" r="16.3"/>
  <circle class="st0" cx="371.4" cy="217" r="16.3"/>
  <line class="st0" x1="198.9" y1="150.8" x2="401.7" y2="150.8"/>
  <line class="st0" x1="233.2" y1="50" x2="233.2" y2="150.8"/>
  <line class="st0" x1="367" y1="50" x2="367" y2="150.8"/>
  <circle class="st0" cx="219" cy="40.8" r="6.2"/>
  <circle class="st0" cx="380.3" cy="40.8" r="6.2"/>
  <circle class="st0" cx="219" cy="321.9" r="6.2"/>
  <circle class="st0" cx="380.3" cy="321.9" r="6.2"/>
  <path class="st0" d="M261.5,214.7l10.4-10.4s1.2-2,3.3-2h15.7s6.3.1,6.3,6.3v21.4s.2,5.7-5.7,5.7h-14.9s-3.2.6-5.2-1.4l-10-10s-4.4-5.1.2-9.7Z"/>
  <path class="st0" d="M244.7,214.7l-10.4-10.4s-1.2-2-3.3-2h-15.7s-6.3.1-6.3,6.3,0,21.4,0,21.4c0,0-.2,5.7,5.7,5.7,6,0,14.9,0,14.9,0,0,0,3.2.6,5.2-1.4l10-10s4.4-5.1-.2-9.7Z"/>
  <path class="st0" d="M247.8,227.3l-10.4,10.4s-2,1.2-2,3.3,0,15.7,0,15.7c0,0,.1,6.3,6.3,6.3,6.2,0,21.4,0,21.4,0,0,0,5.7.2,5.7-5.7,0-6,0-14.9,0-14.9,0,0,.6-3.2-1.4-5.2s-10-10-10-10c0,0-5.1-4.4-9.7.2Z"/>
  <path class="st0" d="M257.6,212l10.4-10.4s2-1.2,2-3.3v-15.7s-.1-6.3-6.3-6.3c-6.2,0-21.4,0-21.4,0,0,0-5.7-.2-5.7,5.7s0,14.9,0,14.9c0,0-.6,3.2,1.4,5.2l10,10s5.1,4.4,9.7-.2Z"/>
</svg>