<?xml version="1.0" encoding="UTF-8"?>
<svg id="Layer_3" xmlns="http://www.w3.org/2000/svg" version="1.1" xmlns:cc="http://creativecommons.org/ns#" xmlns:dc="http://purl.org/dc/elements/1.1/" xmlns:rdf="http://www.w3.org/1999/02/22-rdf-syntax-ns#" viewBox="0 0 598.2 350.3">
  <!-- Generator: Adobe Illustrator 29.1.0, SVG Export Plug-In . SVG Version: 2.1.0 Build 142)  -->
  <defs>
    <style>
      .st0 {
        fill: #f4f4f4;
      }
    </style>
  </defs>
  <path class="st0" d="M560.1,125.2s0,0,0,0c0,0,0,0,0,0Z"/>
  <path class="st0" d="M560.4,130.6v-3.2c.3-.1.6-.2.9-.4.4-.3.6-.8.6-1.2,0-.3,0-.5,0-.6,0-.2,0-.2,0-.3,0-.2,0-.4,0-.7,0-.6,0-1.5-.2-2.6-.1-2.2-.3-5.4-.6-9.1-.5-7.5-1.1-17.5-1.8-27.5-1.3-19.9-2.6-39.7-2.6-39.7v-.8h-10.7c-.2,0-2.8-.2-5.3,2.2l-.2.2c-.3-.7-.7-1.3-1.3-1.8-.4-.3-.8-.4-1.3-.5h0c0-.1-2.8-.4-5.4,2.1l-.2.2c-.3-.7-.7-1.3-1.3-1.8-.4-.3-.8-.4-1.3-.5h0c0-.1-2.8-.4-5.4,2.1l-.2.2c-.3-.7-.7-1.3-1.3-1.8-.4-.3-.9-.4-1.4-.5h0c0-.1-2.9-.3-5.5,2.1l-.2.2c-.3-.7-.7-1.3-1.3-1.8-.4-.3-.8-.4-1.3-.5h0c0-.1-2.8-.4-5.4,2.1l-.2.2c-.3-.7-.7-1.3-1.3-1.8-.4-.3-.8-.4-1.3-.5h0c0-.1-2.8-.4-5.4,2.1l-.2.2c-.3-.7-.7-1.3-1.3-1.8-.4-.3-.8-.4-1.3-.5h0c0-.1-2.9-.4-5.5,2.1l-.2.2c-.3-.7-.7-1.3-1.3-1.8-.4-.3-.8-.4-1.3-.5h0c0-.1-2.8-.4-5.4,2.1l-.2.2c-.3-.7-.7-1.3-1.3-1.8-.4-.3-.8-.4-1.3-.5h0c0-.1-2.9-.4-5.5,2.1l-.2.2c-.3-.7-.7-1.3-1.3-1.8-.4-.3-.8-.4-1.3-.5h0c0-.1-2.8-.4-5.4,2.1l-.2.2c-.3-.7-.7-1.3-1.3-1.8-.4-.3-.8-.4-1.3-.5h0c0-.1-2.9-.4-5.5,2.1l-.2.2c-.3-.7-.7-1.3-1.3-1.8-.3-.2-.8-.4-1.2-.5h0c0-.1-2.8-.4-5.4,2.1l-.2.2c-.3-.7-.7-1.3-1.3-1.8-.4-.3-.8-.4-1.3-.5h0c0-.1-2.8-.4-5.5,2.1l-.2.2c-.3-.7-.7-1.3-1.3-1.8-.4-.3-.8-.4-1.3-.5h0c0-.1-2.8-.4-5.4,2.1l-.2.2c-.3-.7-.7-1.3-1.3-1.8-.4-.3-.8-.4-1.3-.5h0c0-.1-2.8-.4-5.4,2.1l-.2.2c-.3-.7-.7-1.3-1.3-1.8-.4-.3-.8-.4-1.3-.5h0c0-.1-2.9-.4-5.5,2.1l-.2.2c-.3-.7-.7-1.3-1.3-1.8-.4-.3-.8-.4-1.3-.5h0c0-.1-2.8-.4-5.4,2.1l-.2.2c-.3-.7-.7-1.3-1.3-1.8-.4-.3-.8-.4-1.3-.5h0c0-.1-2.9-.4-5.5,2.1l-.2.2c-.3-.7-.7-1.3-1.3-1.8-.4-.3-.8-.4-1.3-.5h0c0-.1-2.8-.4-5.4,2.1l-.2.2c-.3-.7-.7-1.3-1.3-1.8-.3-.2-.7-.4-1.1-.4v-.2s-2.8-.2-5.4,2.2l-.2.2c-.3-.7-.7-1.3-1.3-1.8-.4-.3-.8-.4-1.3-.5h0c0-.1-2.9-.4-5.5,2.1l-.2.2c-.3-.7-.7-1.3-1.3-1.8-.4-.3-.8-.4-1.3-.5h0c0-.1-2.8-.4-5.4,2.1l-.2.2c-.3-.7-.7-1.3-1.3-1.8-.4-.3-.8-.4-1.3-.5h0c0-.1-2.9-.4-5.5,2.1l-.2.2c-.3-.7-.7-1.3-1.3-1.8-.4-.3-.8-.4-1.3-.5h0c0-.1-2.9-.4-5.5,2.1l-.2.2c-.3-.7-.7-1.3-1.3-1.8-.4-.3-.8-.4-1.3-.5h0c0-.1-2.8-.4-5.4,2.1l-.2.2c-.3-.7-.7-1.3-1.3-1.8-.4-.3-.8-.4-1.3-.5h0c0-.1-2.9-.4-5.5,2.1l-.2.2c-.3-.7-.7-1.3-1.3-1.8-.4-.3-.8-.4-1.3-.5h0c0-.1-2.8-.4-5.4,2.1l-.2.2c-.3-.7-.7-1.3-1.3-1.8-.3-.2-.8-.4-1.2-.5h0c0-.1-2.9-.4-5.5,2.1l-.2.2c-.3-.7-.7-1.3-1.3-1.8-.4-.3-.8-.4-1.3-.5h0c0-.1-2.8-.4-5.4,2.1l-.2.2c-.3-.7-.7-1.3-1.3-1.8-.4-.3-.8-.4-1.3-.5h0c0-.1-2.8-.3-5.4,2h0c0,0-.2.2-.2.2-.3-.7-.7-1.3-1.3-1.8-.4-.3-.8-.4-1.3-.5h0c0-.1-2.8-.4-5.4,2.1l-.2.2c-.3-.7-.7-1.3-1.3-1.8-.4-.3-.8-.4-1.3-.5h0c0-.1-2.9-.4-5.5,2.1l-.2.2c-.3-.7-.7-1.3-1.3-1.8-.4-.3-.8-.4-1.3-.5h0c0-.1-2.9-.4-5.5,2.1l-.2.2c-.3-.7-.7-1.3-1.3-1.8-.4-.3-.8-.4-1.3-.5h0c0-.1-2.8-.4-5.4,2.1l-.2.2c-.3-.7-.7-1.3-1.3-1.8-.4-.3-.8-.4-1.3-.5h0c0-.1-2.9-.4-5.5,2.1l-.2.2c-.3-.7-.7-1.3-1.3-1.8-.4-.3-.9-.5-1.4-.5h0c0-.1-2.8-.3-5.4,2.1l-.2.2c-.3-.7-.7-1.3-1.3-1.8-.4-.3-.8-.4-1.3-.5h0c0-.1-2.8-.4-5.4,2.1l-.2.2c-.3-.7-.7-1.3-1.3-1.8-.4-.3-.8-.4-1.3-.5h0c0-.1-2.9-.4-5.5,2.1l-.2.2c-.3-.7-.7-1.3-1.3-1.8-.4-.3-.8-.4-1.3-.5h0c0-.1-2.8-.4-5.4,2.1l-.2.2c-.3-.7-.7-1.3-1.3-1.8-.4-.3-.8-.4-1.3-.5h0c0-.1-2.9-.4-5.5,2.1l-.2.2c-.3-.7-.7-1.3-1.3-1.8-.4-.3-.8-.4-1.3-.5h0c0-.1-2.8-.4-5.4,2.1l-.2.2c-.3-.7-.7-1.3-1.3-1.8-.4-.3-.8-.4-1.3-.5h0c0-.1-2.9-.4-5.5,2.1l-.2.2c-.3-.7-.7-1.3-1.3-1.8-.4-.3-.8-.4-1.3-.5h0c0-.1-2.9-.4-5.5,2.1l-.2.2c-.3-.7-.7-1.3-1.3-1.8-.3-.2-.8-.4-1.2-.5h0c0-.1-2.9-.4-5.5,2.1l-.2.2c-.3-.7-.7-1.3-1.3-1.8-.4-.3-.8-.4-1.3-.5h0c0-.1-2.8-.4-5.4,2.1l-.2.2c-.3-.7-.7-1.3-1.3-1.8-.4-.3-.8-.4-1.3-.5h0c0-.1-2.8-.4-5.4,2.1l-.2.2c-.3-.7-.7-1.3-1.3-1.8-.4-.3-.8-.4-1.3-.5h0c0-.1-2.9-.4-5.5,2.1l-.2.2c-.3-.7-.7-1.3-1.3-1.8-.4-.3-.8-.4-1.3-.5h0c0-.1-2.8-.4-5.4,2.1l-.2.2c-.3-.7-.7-1.3-1.3-1.8-.4-.3-.8-.4-1.3-.5h0c0-.1-2.9-.4-5.5,2.1l-.2.2c-.3-.7-.7-1.3-1.3-1.8-.4-.3-.8-.4-1.3-.5h0c0-.1-2.8-.4-5.4,2.1l-.2.2c-.3-.7-.7-1.3-1.3-1.8-.4-.3-.8-.4-1.3-.5h0c0-.1-2.9-.4-5.5,2.1l-.2.2c-.3-.7-.7-1.3-1.3-1.8-.1,0-.3-.2-.4-.3h0c-.5-.3-.9-.3-1.4-.4-.5,0-1.2,0-2,0-1.5,0-3.4,0-5.5,0H35.8c-.7,0-1.3,0-2,.4-.7.4-1.1,1.2-1.1,2.2,0,0,0,.4,0,1,0,.6,0,1.5-.1,2.6-.1,2.2-.3,5.2-.5,8.9-.4,7.2-.9,16.8-1.5,26.3-.5,9.5-1,19-1.4,26.2-.2,3.6-.3,6.6-.5,8.7,0,1.1-.1,1.9-.1,2.5,0,.3,0,.5,0,.7,0,.2,0,.2,0,.3,0,.3-.1,1.1.1,2,.1.4.3.8.7,1.1v3.5h-1.2v47.8h1.2v.6h-1.2v134h533.5v-134h-1.3v-.6h1.3v-47.8h-1.3ZM538.9,48c-1.5,1.3-4.9,4.4-11.3,10.1-7.3,6.5-16.8,15.1-26.3,23.5-18.8,16.8-37,33.1-37.3,33.3h-3.1c1.6-1.4,17.7-16,35.7-32.3,9.4-8.5,18.9-17.1,26.3-23.8,7.3-6.6,12.4-11.3,13.1-11.9.6-.5,1-.7,1.3-.8.3,0,.5,0,.7.1.4.3.7,1,.9,1.7ZM530.6,48c-1.5,1.3-4.9,4.5-11.3,10.1-7.3,6.5-16.8,15.1-26.3,23.5-18.8,16.8-37,33.1-37.3,33.3h-3.1c1.6-1.4,17.6-16,35.6-32.3,9.4-8.5,18.9-17.1,26.3-23.8,7.3-6.6,12.4-11.3,13.2-11.9h.1c.5-.5.9-.7,1.2-.8.3,0,.5,0,.7.1.4.3.7,1,.8,1.7ZM521.5,46.3c.4.3.7,1,.8,1.7-1.5,1.3-4.9,4.4-11.3,10.1-7.3,6.5-16.8,15.1-26.3,23.5-18.8,16.8-37,33.1-37.2,33.3h-3.2c1.6-1.4,17.7-16,35.7-32.3,9.4-8.5,18.9-17.1,26.3-23.8,7.3-6.6,12.4-11.3,13.1-11.9.6-.5,1-.7,1.3-.8.3,0,.5,0,.7.1ZM514,48c-1.5,1.3-4.9,4.4-11.3,10.1-7.3,6.5-16.8,15.1-26.3,23.5-18.8,16.8-37,33.1-37.3,33.3h-3.1c1.6-1.4,17.7-16,35.7-32.3,9.4-8.5,18.9-17.1,26.3-23.8,7.3-6.6,12.4-11.3,13.1-11.9.6-.5,1-.7,1.3-.8.3,0,.5,0,.7.1.4.3.7,1,.9,1.7ZM505.7,48c-1.5,1.3-4.9,4.5-11.3,10.1-7.3,6.5-16.8,15.1-26.3,23.5-18.8,16.8-37,33.1-37.3,33.3h-3.1c1.6-1.4,17.6-16,35.6-32.3,9.4-8.5,18.9-17.1,26.3-23.8,7.3-6.6,12.4-11.3,13.2-11.9.6-.5,1-.7,1.3-.8.3,0,.5,0,.7.1.4.3.7,1,.9,1.7ZM497.4,48c-1.5,1.3-4.9,4.4-11.3,10.1-7.3,6.5-16.8,15.1-26.3,23.5-18.8,16.8-37,33.1-37.3,33.3h-3.1c1.6-1.4,17.7-16,35.7-32.3,9.4-8.5,18.9-17.1,26.3-23.8,7.3-6.6,12.4-11.3,13.1-11.9.6-.5,1-.7,1.3-.8.3,0,.5,0,.7.1.4.3.7,1,.9,1.7ZM489.1,48c-1.5,1.3-4.9,4.4-11.3,10.1-7.3,6.5-16.8,15.1-26.3,23.5-18.8,16.8-37,33.1-37.3,33.3h-3.1c1.6-1.4,17.7-16,35.7-32.3,9.4-8.5,18.9-17.1,26.3-23.8,7.3-6.6,12.4-11.3,13.1-11.9.6-.5,1-.7,1.3-.8.3,0,.5,0,.7.1.4.3.7,1,.9,1.7ZM480.9,48c-1.5,1.3-4.9,4.5-11.3,10.1-7.3,6.5-16.8,15.1-26.3,23.5-18.8,16.8-37,33.1-37.3,33.3h-3.2c1.6-1.4,17.7-16,35.7-32.3,9.4-8.5,18.9-17.1,26.3-23.8,7.3-6.6,12.4-11.3,13.1-11.9.6-.5,1.1-.7,1.4-.8.3,0,.5,0,.7.1.4.3.7,1,.9,1.7ZM472.6,48c-1.5,1.3-4.9,4.4-11.3,10.1-7.3,6.5-16.8,15.1-26.3,23.5-18.8,16.8-37,33.1-37.3,33.3h-3.1c1.6-1.4,17.7-16,35.7-32.3,9.4-8.5,18.9-17.1,26.3-23.8,7.1-6.4,11.7-10.6,12.7-11.6l.4-.4c.6-.5,1-.7,1.3-.8.3,0,.5,0,.7.1.4.3.7,1,.9,1.7ZM464.3,48c-1.5,1.3-4.9,4.5-11.3,10.1-7.3,6.5-16.8,15.1-26.3,23.5-18.8,16.8-37,33.1-37.3,33.3h-3.2c1.6-1.4,17.7-16,35.7-32.3,9.4-8.5,18.9-17.1,26.3-23.8,7.3-6.6,12.4-11.3,13.2-11.9.6-.5,1-.7,1.3-.8.3,0,.5,0,.7.1.4.3.7,1,.8,1.7ZM456,48c-1.5,1.3-4.9,4.4-11.3,10.1-7.3,6.5-16.8,15.1-26.3,23.5-18.8,16.8-37,33.1-37.3,33.3h-3.1c1.6-1.4,17.7-16,35.7-32.3,9.4-8.5,18.9-17.1,26.3-23.8,7.3-6.6,12.4-11.3,13.1-11.9.6-.5,1-.7,1.3-.8.3,0,.5,0,.7.1.4.3.7,1,.9,1.7ZM447.8,48c-1.5,1.3-4.9,4.5-11.3,10.1-7.3,6.5-16.8,15.1-26.3,23.5-18.8,16.8-37,33.1-37.3,33.3h-3.2c1.6-1.4,17.7-16,35.7-32.3,9.4-8.5,18.9-17.1,26.3-23.8,7.3-6.6,12.4-11.3,13.2-11.9.6-.5,1-.7,1.3-.8.3,0,.5,0,.7.1.4.3.7,1,.8,1.7ZM439.5,48c-1.5,1.3-4.9,4.4-11.3,10.1-7.3,6.5-16.8,15.1-26.3,23.5-18.8,16.8-37,33.1-37.3,33.3h-3.1c1.6-1.4,17.7-16,35.7-32.3,9.4-8.5,18.9-17.1,26.3-23.8,7.3-6.6,12.4-11.3,13.1-11.9.6-.5,1-.7,1.3-.8.3,0,.5,0,.7.1.4.3.7,1,.9,1.7ZM431.3,48c-1.5,1.3-4.9,4.5-11.3,10.1-7.3,6.5-16.8,15.1-26.3,23.5-18.8,16.8-37,33.1-37.3,33.3h-3.1c1.6-1.4,17.6-16,35.6-32.3,9.4-8.5,18.9-17.1,26.3-23.8,7.3-6.6,12.4-11.3,13.2-11.9.6-.5,1-.7,1.3-.8.3,0,.5,0,.7.1.4.3.7,1,.9,1.7ZM423,48c-1.5,1.3-4.9,4.4-11.3,10.1-7.3,6.5-16.8,15.1-26.3,23.5-18.8,16.8-37,33.1-37.3,33.3h-3.1c1.6-1.4,17.7-16,35.7-32.3,9.4-8.5,18.9-17.1,26.3-23.8,7.3-6.6,12.4-11.3,13.1-11.9.6-.5,1-.7,1.3-.8.3,0,.5,0,.7.1.4.3.7,1,.9,1.7ZM414.7,48c-1.5,1.3-4.9,4.5-11.3,10.1-7.3,6.5-16.8,15.1-26.3,23.5-18.8,16.8-37,33.1-37.3,33.3h-3.1c1.6-1.4,17.7-16,35.7-32.3,9.4-8.5,18.9-17.1,26.3-23.8,7.1-6.4,11.7-10.6,12.7-11.6l.4-.4c.6-.5,1-.7,1.3-.8.3,0,.5,0,.7.1.4.3.7,1,.9,1.7ZM406.4,48c-1.5,1.3-4.9,4.4-11.3,10.1-7.3,6.5-16.8,15.1-26.3,23.5-18.8,16.8-37,33.1-37.3,33.3h-3.2c1.6-1.4,17.7-16,35.7-32.3,9.4-8.5,18.9-17.1,26.3-23.8,7.3-6.6,12.4-11.3,13.1-11.9.6-.5,1-.7,1.3-.8.3,0,.5,0,.7.1.4.3.7,1,.8,1.7ZM398.2,48c-1.5,1.3-4.9,4.4-11.3,10.1-7.3,6.5-16.8,15.1-26.3,23.5-18.8,16.8-37,33.1-37.3,33.3h-3.1c1.6-1.4,17.7-16,35.7-32.3,9.4-8.5,18.9-17.1,26.3-23.8,7.1-6.4,11.7-10.6,12.7-11.6l.4-.4c.6-.5,1-.7,1.3-.8.3,0,.5,0,.7.1.4.3.7,1,.9,1.7ZM389.9,48c-1.5,1.3-4.9,4.5-11.3,10.1-7.3,6.5-16.8,15.1-26.3,23.5-18.8,16.8-37,33.1-37.3,33.3h-3.2c1.6-1.4,17.7-16,35.7-32.3,9.4-8.5,18.9-17.1,26.3-23.8,7.3-6.6,12.4-11.3,13.2-11.9.6-.5,1-.7,1.3-.8.3,0,.5,0,.7.1.4.3.7,1,.8,1.7ZM381.8,48c-1.5,1.3-4.9,4.5-11.3,10.1-7.3,6.5-16.8,15.1-26.3,23.5-18.8,16.8-37,33.1-37.3,33.3h-3.2c1.6-1.4,17.7-16,35.7-32.3,9.4-8.5,18.9-17.1,26.3-23.8,7.3-6.6,12.4-11.3,13.1-11.9.6-.5,1.1-.7,1.4-.8.3,0,.5,0,.7.1.4.3.7,1,.8,1.7ZM373.6,48c-1.5,1.3-4.9,4.4-11.3,10.1-7.3,6.5-16.8,15.1-26.3,23.5-18.8,16.8-37,33.1-37.3,33.3h-3.1c1.6-1.4,17.7-16,35.7-32.3,9.4-8.5,18.9-17.1,26.3-23.8,7.3-6.6,12.4-11.3,13.1-11.9.6-.5,1-.7,1.3-.8.3,0,.5,0,.7.1.4.3.7,1,.9,1.7ZM365.3,48c-1.5,1.3-4.9,4.5-11.3,10.1-7.3,6.5-16.8,15.1-26.3,23.5-18.8,16.8-37,33.1-37.3,33.3h-3.1c1.6-1.4,17.6-16,35.6-32.3,9.4-8.5,18.9-17.1,26.3-23.8,7.1-6.4,11.8-10.6,12.7-11.6l.4-.4c.6-.5,1-.7,1.3-.8.3,0,.5,0,.7.1.4.3.7,1,.9,1.7ZM357,48c-1.5,1.3-4.9,4.4-11.3,10.1-7.3,6.5-16.8,15.1-26.3,23.5-18.8,16.8-37,33.1-37.3,33.3h-3.1c1.6-1.4,17.7-16,35.7-32.3,9.4-8.5,18.9-17.1,26.3-23.8,7.3-6.6,12.4-11.3,13.1-11.9.6-.5,1-.7,1.3-.8.3,0,.5,0,.7.1.4.3.7,1,.9,1.7ZM348.7,48c-1.5,1.3-4.9,4.5-11.3,10.1-7.3,6.5-16.8,15.1-26.3,23.5-18.8,16.8-37,33.1-37.3,33.3h-3.1c1.6-1.4,17.6-16,35.6-32.3,9.4-8.5,19-17.1,26.3-23.8,7.1-6.4,11.7-10.6,12.7-11.6l.4-.4c.6-.5,1-.7,1.3-.8.3,0,.5,0,.7.1.4.3.7,1,.8,1.7ZM340.4,48c-1.5,1.3-4.9,4.4-11.3,10.1-7.3,6.5-16.8,15.1-26.3,23.5-18.8,16.8-37,33.1-37.2,33.3h-3.2c1.6-1.4,17.7-16,35.7-32.3,9.4-8.5,18.9-17.1,26.3-23.8,7.3-6.6,12.4-11.3,13.1-11.9.6-.5,1-.7,1.3-.8.3,0,.5,0,.7.1.4.3.7,1,.8,1.7ZM332.2,48c-1.5,1.3-4.9,4.4-11.3,10.1-7.3,6.5-16.8,15.1-26.3,23.5-18.8,16.8-37,33.1-37.3,33.3h-3.1c1.6-1.4,17.7-16,35.7-32.3,9.4-8.5,18.9-17.1,26.3-23.8,7.1-6.4,11.7-10.6,12.7-11.6l.4-.4c.6-.5,1-.7,1.3-.8.3,0,.5,0,.7.1.4.3.7,1,.9,1.7ZM323.9,48c-1.5,1.3-4.9,4.5-11.3,10.1-7.3,6.5-16.8,15.1-26.3,23.5-18.8,16.8-37,33.1-37.3,33.3h-3.2c1.6-1.4,17.7-16,35.7-32.3,9.4-8.5,18.9-17.1,26.3-23.8,7.3-6.6,12.4-11.3,13.1-11.9.6-.5,1.1-.7,1.4-.8.3,0,.5,0,.7.1.4.3.7,1,.8,1.7ZM315.7,48c-1.5,1.3-4.9,4.4-11.3,10.1-7.3,6.5-16.8,15.1-26.3,23.5-18.8,16.8-37,33.1-37.3,33.3h-3.1c1.6-1.4,17.7-16,35.7-32.3,9.4-8.5,18.9-17.1,26.3-23.8,7.1-6.4,11.7-10.6,12.7-11.6l.4-.4c.6-.5,1-.7,1.3-.8.3,0,.5,0,.7.1.4.3.7,1,.9,1.7ZM307.4,48c-1.5,1.3-4.9,4.5-11.3,10.1-7.3,6.5-16.8,15.1-26.3,23.5-18.8,16.8-37,33.1-37.3,33.3h-3.2c1.6-1.4,17.7-16,35.7-32.3,9.4-8.5,18.9-17.1,26.3-23.8,7.3-6.6,12.4-11.3,13.1-11.9.6-.5,1.1-.7,1.4-.8.3,0,.5,0,.7.1.4.3.7,1,.8,1.7ZM299.1,48c-1.5,1.3-4.9,4.4-11.3,10.1-7.3,6.5-16.8,15.1-26.3,23.5-18.8,16.8-37,33.1-37.3,33.3h-3.1c1.6-1.4,17.7-16,35.7-32.3,9.4-8.5,18.9-17.1,26.3-23.8,7.3-6.6,12.4-11.3,13.1-11.9.6-.5,1-.7,1.3-.8.3,0,.5,0,.7.1.4.3.7,1,.9,1.7ZM290.8,48c-1.5,1.3-4.9,4.5-11.3,10.1-7.3,6.5-16.8,15.1-26.3,23.5-18.8,16.8-37,33.1-37.3,33.3h-3.1c1.6-1.4,17.6-16,35.6-32.3,9.4-8.5,18.9-17.1,26.3-23.8,7.1-6.4,11.8-10.6,12.7-11.6l.4-.4c.6-.5,1-.7,1.3-.8.3,0,.5,0,.7.1.4.3.7,1,.9,1.7ZM282.6,48c-1.5,1.3-4.9,4.4-11.3,10.1-7.3,6.5-16.8,15.1-26.3,23.5-18.8,16.8-37,33.1-37.3,33.3h-3.1c1.6-1.4,17.7-16,35.7-32.3,9.4-8.5,18.9-17.1,26.3-23.8,7.3-6.6,12.4-11.3,13.1-11.9.6-.5,1-.7,1.3-.8.3,0,.5,0,.7.1.4.3.7,1,.9,1.7ZM274.3,48c-1.5,1.3-4.9,4.5-11.3,10.1-7.3,6.5-16.8,15.1-26.3,23.5-18.8,16.8-37,33.1-37.3,33.3h-3.1c1.6-1.4,17.6-16,35.6-32.3,9.4-8.5,18.9-17.1,26.3-23.8,7.1-6.4,11.8-10.6,12.7-11.6l.4-.4c.6-.5,1-.7,1.3-.8.3,0,.5,0,.7.1.4.3.7,1,.8,1.7ZM266,48c-1.5,1.3-4.9,4.4-11.3,10.1-7.3,6.5-16.8,15.1-26.3,23.5-18.8,16.8-37,33.1-37.2,33.3h-3.2c1.6-1.4,17.7-16,35.7-32.3,9.4-8.5,18.9-17.1,26.3-23.8,7.3-6.6,12.4-11.3,13.1-11.9.6-.5,1-.7,1.3-.8.3,0,.5,0,.7.1.4.3.7,1,.9,1.7ZM256.9,46.3c.4.3.7,1,.9,1.7-1.5,1.3-4.9,4.4-11.3,10.1-7.3,6.5-16.8,15.1-26.3,23.5-18.8,16.8-37,33.1-37.3,33.3h-3.1c1.6-1.4,17.7-16,35.7-32.3,9.4-8.5,18.9-17.1,26.3-23.8,7.1-6.4,11.7-10.6,12.7-11.6l.4-.4c.6-.5,1-.7,1.3-.8.3,0,.5,0,.7.1ZM249.4,48c-1.5,1.3-4.9,4.5-11.3,10.1-7.3,6.5-16.8,15.1-26.3,23.5-18.8,16.8-37,33.1-37.3,33.3h-3.1c1.6-1.4,17.6-16,35.6-32.3,9.4-8.5,18.9-17.1,26.3-23.8,7.1-6.4,11.8-10.6,12.7-11.6l.4-.4c.6-.5,1-.7,1.3-.8.3,0,.5,0,.7.1.4.3.7,1,.8,1.7ZM241.1,48c-1.5,1.3-4.9,4.4-11.3,10.1-7.3,6.5-16.8,15.1-26.3,23.5-18.8,16.8-37,33.1-37.3,33.3h-3.1c1.6-1.4,17.7-16,35.7-32.3,9.4-8.5,18.9-17.1,26.3-23.8,7.3-6.6,12.4-11.3,13.1-11.9.6-.5,1-.7,1.3-.8.3,0,.5,0,.7.1.4.3.7,1,.9,1.7ZM232.8,48c-1.5,1.3-4.9,4.4-11.3,10.1-7.3,6.5-16.8,15.1-26.3,23.5-18.8,16.8-37,33.1-37.3,33.3h-3.1c1.6-1.4,17.7-16,35.7-32.3,9.4-8.5,18.9-17.1,26.3-23.8,7.3-6.6,12.4-11.3,13.1-11.9.6-.5,1-.7,1.3-.8.3,0,.5,0,.7.1.4.3.7,1,.9,1.7ZM224.5,48c-1.5,1.3-4.9,4.5-11.3,10.1-7.3,6.5-16.8,15.1-26.3,23.5-18.8,16.8-37,33.1-37.3,33.3h-3.2c1.6-1.4,17.7-16,35.7-32.3,9.4-8.5,18.9-17.1,26.3-23.8,7.3-6.6,12.4-11.3,13.1-11.9.6-.5,1.1-.7,1.4-.8.3,0,.5,0,.7.1.4.3.7,1,.8,1.7ZM216.3,48c-1.5,1.3-4.9,4.4-11.3,10.1-7.3,6.5-16.8,15.1-26.3,23.5-18.8,16.8-37,33.1-37.3,33.3h-3.1c1.6-1.4,17.7-16,35.7-32.3,9.4-8.5,18.9-17.1,26.3-23.8,7.3-6.6,12.4-11.3,13.1-11.9.6-.5,1-.7,1.3-.8.3,0,.5,0,.7.1.4.3.7,1,.9,1.7ZM208,48c-1.5,1.3-4.9,4.5-11.3,10.1-7.3,6.5-16.8,15.1-26.3,23.5-18.8,16.8-37,33.1-37.3,33.3h-3.2c1.6-1.4,17.7-16,35.7-32.3,9.4-8.5,18.9-17.1,26.3-23.8,7.1-6.4,11.8-10.6,12.7-11.6l.4-.4c.6-.5,1-.7,1.3-.8.3,0,.5,0,.7.1.4.3.7,1,.8,1.7ZM199.7,48c-1.5,1.3-4.9,4.4-11.3,10.1-7.3,6.5-16.8,15.1-26.3,23.5-18.8,16.8-37,33.1-37.3,33.3h-3.1c1.6-1.4,17.7-16,35.7-32.3,9.4-8.5,18.9-17.1,26.3-23.8,7.3-6.6,12.4-11.3,13.1-11.9.6-.5,1-.7,1.3-.8.3,0,.5,0,.7.1.4.3.7,1,.9,1.7ZM191.4,48c-1.5,1.3-4.9,4.5-11.3,10.1-7.3,6.5-16.8,15.1-26.3,23.5-18.8,16.8-37,33.1-37.3,33.3h-3.1c1.6-1.4,17.6-16,35.6-32.3,9.4-8.5,18.9-17.1,26.3-23.8,7.3-6.6,12.4-11.3,13.2-11.9.6-.5,1-.7,1.3-.8.3,0,.5,0,.7.1.4.3.7,1,.8,1.7ZM183.2,48c-1.5,1.3-4.9,4.4-11.3,10.1-7.3,6.5-16.8,15.1-26.3,23.5-18.8,16.8-37,33.1-37.3,33.3h-3.1c1.6-1.4,17.7-16,35.7-32.3,9.4-8.5,18.9-17.1,26.3-23.8,7.3-6.6,12.4-11.3,13.1-11.9.6-.5,1-.7,1.3-.8.3,0,.5,0,.7.1.4.3.7,1,.9,1.7ZM174.9,48c-1.5,1.3-4.9,4.5-11.3,10.1-7.3,6.5-16.8,15.1-26.3,23.5-18.8,16.8-37,33.1-37.3,33.3h-3.1c1.6-1.4,17.6-16,35.6-32.3,9.4-8.5,18.9-17.1,26.3-23.8,7.1-6.4,11.8-10.6,12.7-11.6l.4-.4c.6-.5,1-.7,1.3-.8.3,0,.5,0,.7.1.4.3.7,1,.8,1.7ZM166.7,48c-1.5,1.3-4.9,4.4-11.3,10.1-7.3,6.5-16.8,15.1-26.3,23.5-18.8,16.8-37,33.1-37.3,33.3h-3.1c1.6-1.4,17.7-16,35.7-32.3,9.4-8.5,18.9-17.1,26.3-23.8,7.3-6.6,12.4-11.3,13.1-11.9.6-.5,1-.7,1.3-.8.3,0,.5,0,.7.1.4.3.7,1,.9,1.7ZM158.4,48c-1.5,1.3-4.9,4.5-11.3,10.1-7.3,6.5-16.8,15.1-26.3,23.5-18.8,16.8-37,33.1-37.3,33.3h-3.1c1.6-1.4,17.6-16,35.6-32.3,9.4-8.5,19-17.1,26.3-23.8,7.1-6.4,11.7-10.6,12.7-11.6l.4-.4c.6-.5,1-.7,1.3-.8.3,0,.5,0,.7.1.4.3.7,1,.8,1.7ZM150.1,48c-1.5,1.3-4.9,4.4-11.3,10.1-7.3,6.5-16.8,15.1-26.3,23.5-18.8,16.8-37,33.1-37.3,33.3h-3.2c1.6-1.4,17.7-16,35.7-32.3,9.4-8.5,18.9-17.1,26.3-23.8,7.3-6.6,12.4-11.3,13.1-11.9.6-.5,1-.7,1.3-.8.3,0,.5,0,.7.1.4.3.7,1,.9,1.7ZM141.9,48c-1.5,1.3-4.9,4.4-11.3,10.1-7.3,6.5-16.8,15.1-26.3,23.5-18.8,16.8-37,33.1-37.3,33.3h-3.1c1.6-1.4,17.7-16,35.7-32.3,9.4-8.5,18.9-17.1,26.3-23.8,7.1-6.4,11.7-10.6,12.7-11.6l.4-.4c.6-.5,1-.7,1.3-.8.3,0,.5,0,.7.1.4.3.7,1,.9,1.7ZM133.6,48c-1.5,1.3-4.9,4.5-11.3,10.1-7.3,6.5-16.8,15.1-26.3,23.5-18.8,16.8-37,33.1-37.3,33.3h-3.2c1.6-1.4,17.7-16,35.7-32.3,9.4-8.5,18.9-17.1,26.3-23.8,7.3-6.6,12.4-11.3,13.1-11.9.6-.5,1.1-.7,1.4-.8.3,0,.5,0,.7.1.4.3.7,1,.9,1.7ZM114,58.2c-7.3,6.5-16.8,15.1-26.3,23.5-18.8,16.8-37,33.1-37.3,33.3h-3.1c1.6-1.4,17.7-16,35.7-32.3,9.4-8.5,18.9-17.1,26.3-23.8,7.3-6.6,12.4-11.3,13.1-11.9.6-.5,1-.7,1.3-.8.3,0,.5,0,.7.1.4.3.7,1,.9,1.7-1.5,1.3-4.9,4.4-11.3,10.1ZM30.3,124c0,0,0,0,0-.2,0-.2,0-.4,0-.7,0-.6,0-1.5.1-2.5.1-2.1.3-5.1.5-8.7.4-7.2.9-16.7,1.4-26.2.5-9.5,1-19.1,1.4-26.3.2-3.6.4-6.6.5-8.8,0-1.1.1-2,.1-2.6,0-.6,0-.9,0-1.1,0-.6,0-.5.2-.6.1,0,.5-.1,1.1-.1h80.3c1.7,0,3.4,0,4.7,0-1.2,1.1-6,5.5-12.8,11.6-7.3,6.6-16.8,15.2-26.3,23.8-18.9,17.1-37.4,33.8-37.4,33.8l-1.8,1.6h413.8s2.1,0,2.1,0h6.2l.3-.3s18.6-16.6,37.5-33.5c9.5-8.5,19-17,26.3-23.5,7.3-6.5,12.3-11.1,13-11.7,2.1-2,4-1.7,4-1.7h9c0,.8,1.3,19.4,2.6,38.9.7,10,1.3,19.9,1.8,27.5.2,3.8.5,6.9.6,9.1,0,1.1.1,2,.2,2.6,0,.3,0,.6,0,.7,0,.1,0,.2,0,.3,0,.2,0,.3,0,.3,0,0-.8.3-2.7.3H31.1c-.4,0-.5,0-.6-.1,0,0-.1,0-.2-.3,0-.3,0-.9,0-1.4ZM31.2,127.7h526.2c.4,0,.8,0,1.2,0v2.9H31.2v-2.9ZM559.9,176.6h-178.1v-1.3s0,0,.1-.2c.2-.3.5-.8,1.2-1.5,1.8-1.8,17.6-17.3,17.6-17.3l1.6-1.6H63.5s-.3.3-.3.3c0,0-15.6,15.4-17.6,17.4-.8.8-1.2,1.4-1.5,1.9-.3.5-.3.9-.3.9h0v1.5h-13.8v-44.2h529.9v44.2ZM379.9,175.1h0v1.3h-31.8v-1.1s0,0,.1-.3c.2-.3.5-.8,1.2-1.5,1.7-1.7,15.3-15.1,17.3-17.1h31c-2.3,2.3-14.2,14-16,15.8-.8.8-1.2,1.4-1.5,1.9-.3.5-.3.9-.3.9ZM348.1,172.3c-.8.8-1.2,1.4-1.5,1.9-.3.5-.3.9-.3.9h0v1.3h-31.8v-1.1s0,0,.1-.3c.2-.3.5-.8,1.2-1.5,1.7-1.7,15.3-15.1,17.3-17.1h31c-4,4-14.4,14.2-16,15.8ZM314.5,172.3c-.8.8-1.2,1.4-1.5,1.9-.3.5-.3.9-.3.9h0v1.3h-31.8v-1.1s0,0,.1-.3c.2-.3.5-.8,1.2-1.5,1.7-1.7,15.3-15.1,17.3-17.1h31c-4,4-14.4,14.2-16,15.8ZM280.9,172.3c-.8.8-1.2,1.4-1.5,1.9-.3.5-.3.9-.3.9h0v1.3h-31.8v-1.1s0,0,.1-.2c.2-.3.5-.8,1.2-1.5,1.7-1.7,15.3-15.1,17.3-17.1h31c-4,4-14.4,14.2-16,15.8ZM247.3,172.3c-.8.8-1.2,1.4-1.5,1.9s-.3.9-.3.9h0v1.3h-31.8v-1.1s0,0,.1-.2c.2-.3.5-.8,1.2-1.5,1.7-1.7,15.3-15.1,17.3-17.1h31c-4,4-14.4,14.2-16,15.8ZM213.7,172.3c-.8.8-1.2,1.4-1.5,1.9-.3.5-.3.9-.3.9h0v1.3h-31.8v-1.1s0,0,.1-.3c.2-.3.5-.8,1.2-1.5,1.7-1.7,15.3-15.1,17.3-17.1h31c-4,4-14.4,14.2-16,15.8ZM180.1,172.3c-.8.8-1.2,1.4-1.5,1.9-.3.5-.3.9-.3.9h0v1.3h-31.8v-1.1s0,0,.1-.3c.2-.3.5-.8,1.2-1.5,1.7-1.7,15.3-15.1,17.3-17.1h31c-4,4-14.4,14.2-16,15.8ZM146.5,172.3c-.8.8-1.2,1.4-1.5,1.9-.3.5-.3.9-.3.9h0v1.3h-31.8v-1.1s0,0,.1-.3c.2-.3.5-.8,1.2-1.5,1.7-1.7,15.3-15.1,17.3-17.1h31c-4,4-14.4,14.2-16,15.8ZM112.9,172.3c-.8.8-1.2,1.4-1.5,1.9-.3.5-.3.9-.3.9h0v1.3h-31.8v-1.1s0,0,.1-.2c.2-.3.5-.8,1.2-1.5,1.7-1.7,15.3-15.1,17.3-17.1h31c-4,4-14.4,14.2-16,15.8ZM79.3,172.3c-.8.8-1.2,1.4-1.5,1.9s-.3.9-.3.9h0v1.3h-31.8v-1.1s0,0,.1-.3c.2-.3.5-.8,1.2-1.5,1.8-1.8,16.8-16.6,17.3-17.1h31c-4,4-14.4,14.2-16,15.8ZM559.9,311.1H30v-130.3h529.9v130.3ZM558.6,179H31.2v-.6h527.4v.6Z"/>
  <path class="st0" d="M535.5,154.2h.4l.3-.3,10.8-12,1.4-1.5h-106.7l-.3.3-12,12-1.6,1.6h107.6ZM442.5,142.2h101.9l-9.2,10.2h-102.8l10.2-10.2Z"/>
  <path class="st0" d="M43.3,212.6v20.1c0,.3.1.6.3.8-.1.2-.2.4-.2.7v20.1c0,.2,0,.5.2.7-.2.2-.3.5-.3.8v20.1c0,.7.6,1.2,1.2,1.2h23.4c0,0,0,.2,0,.3v20.1c0,.7.6,1.2,1.2,1.2h31.1c.3,0,.6-.1.8-.3.2.2.5.3.8.3h195.8c.3,0,.5-.1.7-.3h.1c.2.2.5.3.8.3h31.1c.7,0,1.2-.6,1.2-1.2v-20.1c0,0,0-.2,0-.3h9.6c.7,0,1.2-.6,1.2-1.2v-20.1c0,0,0-.2,0-.3h14.7c.3,0,.5-.1.7-.3.2.2.5.3.8.3h20.1c.7,0,1.2-.6,1.2-1.2v-20.1c0-.3-.1-.5-.3-.8.2-.2.3-.4.3-.7v-20.1c0-.4-.2-.7-.4-.9.1-.2.2-.4.2-.6v-20.1c0-.7-.6-1.2-1.2-1.2h-29.9c-.4,0-.7.2-.9.5-.2-.3-.6-.5-.9-.5h-20.1c-.3,0-.6.1-.8.3-.2-.2-.5-.3-.8-.3h-20.1c-.3,0-.6.1-.8.3-.2-.2-.5-.3-.8-.3h-20.1c-.3,0-.6.1-.8.3-.2-.2-.5-.3-.8-.3h-20.1c-.3,0-.6.1-.8.3-.2-.2-.5-.3-.8-.3h-20.1c-.3,0-.6.1-.8.3-.2-.2-.5-.3-.8-.3h-20.1c-.3,0-.6.1-.8.3-.2-.2-.5-.3-.8-.3h-20.1c-.3,0-.6.1-.8.3-.2-.2-.5-.3-.8-.3h-20.1c-.3,0-.6.1-.8.3-.2-.2-.5-.3-.8-.3h-20.1c-.3,0-.6.1-.8.3-.2-.2-.5-.3-.8-.3h-20.1c-.3,0-.6.1-.8.3-.2-.2-.5-.3-.8-.3h-20.1c-.3,0-.6.1-.8.3-.2-.2-.5-.3-.8-.3h-20.1c-.3,0-.6.1-.8.3-.2-.2-.5-.3-.8-.3h-20.1c-.3,0-.6.1-.8.3-.2-.2-.5-.3-.8-.3h-20.1c-.7,0-1.2.6-1.2,1.2v20.1c0,.3.1.6.4.9-.1.2-.2.4-.2.6ZM315.6,232.1v-18.9h18.9v18.9h-18.9ZM104.1,253.6v-18.9h18.9v18.9h-18.9ZM125.8,234.7h18.9v18.9h-18.9v-18.9ZM147.5,253.6v-18.9h18.9v18.9h-18.9ZM169.2,253.6v-18.9h18.9v18.9h-18.9ZM190.9,253.6v-18.9h18.9v18.9h-18.9ZM212.6,253.6v-18.9h18.9v18.9h-18.9ZM234.3,253.6v-18.9h18.9v18.9h-18.9ZM256,253.6v-18.9h18.9v18.9h-18.9ZM277.7,253.6v-18.9h18.9v18.9h-18.9ZM82.4,234.7h18.9v18.9h-18.9v-18.9ZM93.6,256.3h18.9v18.9h-18.9v-18.9ZM115.3,256.3h18.9v18.9h-18.9v-18.9ZM137,256.3h18.9v18.9h-18.9v-18.9ZM158.7,256.3h18.9v18.9h-18.9v-18.9ZM180.4,256.3h18.9v18.9h-18.9v-18.9ZM202,256.3h18.9v18.9h-18.9v-18.9ZM223.7,256.3h18.9v18.9h-18.9v-18.9ZM245.4,256.3h18.9v18.9h-18.9v-18.9ZM267.1,256.3h18.9v18.9h-18.9v-18.9ZM288.8,256.3h18.9v18.9h-18.9v-18.9ZM299.4,253.6v-18.9h18.9v18.9h-18.9ZM312.8,232.1h-18.9v-18.9h18.9v18.9ZM291.1,232.1h-18.9v-18.9h18.9v18.9ZM269.4,232.1h-18.9v-18.9h18.9v18.9ZM247.8,232.1h-18.9v-18.9h18.9v18.9ZM226,231.7v.3h-18.9v-18.9h18.9v18.6ZM204.4,232.1h-18.9v-18.9h18.9v18.9ZM182.7,232.1h-18.9v-18.9h18.9v18.9ZM161,232.1h-18.9v-18.9h18.9v18.9ZM139.3,232.1h-18.9v-18.9h18.9v18.9ZM117.6,232.1h-18.9v-18.9h18.9v18.9ZM95.9,232.1h-18.9v-18.9h18.9v18.9ZM45.2,234.7h34.4v18.9h-34.4v-18.9ZM74.1,213.1v18.9h-29v-18.9h29ZM377.9,213.1v18.9h-18.9v-18.9h18.9ZM45.1,256.3h45.7v18.9h-45.7v-18.9ZM99.6,296.8h-30v-18.9h30v18.9ZM297,296.5v.3H102.4v-18.9h194.6v18.6ZM329.8,296.8h-30v-18.9h30v18.9ZM340.5,275.2h-30v-18.9h30v18.9ZM356.3,253.3v.3h-35v-18.9h14.7c.2,0,.5,0,.7-.2.2-.2.4-.4.5-.6.1-.4.1-.7.1-1.2v-19.5h19v40.2ZM377.9,253.6h-18.9v-18.9h18.9v18.9ZM349,191.5h28.7v18.9h-28.7v-18.9ZM327,191.5h18.9v18.9h-18.9v-18.9ZM305.3,191.5h18.9v18.9h-18.9v-18.9ZM283.6,191.5h18.9v18.9h-18.9v-18.9ZM261.9,191.5h18.9v18.9h-18.9v-18.9ZM240.2,191.5h18.9v18.9h-18.9v-18.9ZM218.5,191.5h18.9v18.9h-18.9v-18.9ZM196.8,191.5h18.9v18.9h-18.9v-18.9ZM175.1,191.5h18.9v18.9h-18.9v-18.9ZM153.4,191.5h18.9v18.9h-18.9v-18.9ZM131.7,191.5h18.9v18.9h-18.9v-18.9ZM110.1,191.5h18.9v18.9h-18.9v-18.9ZM88.3,191.5h18.9v18.9h-18.9v-18.9ZM66.7,191.5h18.9v18.9h-18.9v-18.9ZM45,191.5h18.9v18.9h-18.9v-18.9Z"/>
  <path class="st0" d="M388.7,255.6h20.1c.4,0,.7-.2.9-.5.2.3.5.5.9.5h20.1c.4,0,.7-.2.9-.5.2.3.6.5.9.5h20.1c.7,0,1.2-.6,1.2-1.2v-20.1c0-.3-.1-.6-.3-.8.2-.2.3-.5.3-.8v-20.1c0-.4-.2-.7-.4-.9.1-.2.2-.4.2-.6v-20.1c0-.7-.6-1.2-1.2-1.2h-30.8c-.7,0-1.2.6-1.2,1.2,0-.7-.6-1.2-1.2-1.2h-30.5c-.7,0-1.2.6-1.2,1.2v20.1c0,.3.1.5.3.8-.2.2-.3.5-.3.7v20.1c0,.3.1.6.3.8-.2.2-.3.5-.3.8v20.1c0,.7.6,1.2,1.2,1.2ZM420.5,211.3h-.1c0,0,0-.2,0-.3,0,0,0,.2,0,.3ZM389.3,232.1v-18.9h18.9v18.9h-18.9ZM409.7,233.4s0,0,0,0c0,0,0,0,0,0,0,0,0,0,0,0,0,0,0,0,0,0ZM452.1,213.1v18.9h-18.9v-18.9h18.9ZM430.2,213.1v18.9h-18.9v-18.9h18.9ZM431.7,233.4s0,0,0,0c0,0,0,0,0,0,0,0,0,0,0,0,0,0,0,0,0,0ZM408.2,253.7h-18.9v-18.9h18.9v18.9ZM430.2,253.7h-18.9v-18.9h18.9v18.9ZM452.1,253.7h-18.9v-18.9h18.9v18.9ZM422.2,191.5h29.6v18.9h-29.6v-18.9ZM389.3,191.5h29.3v18.9h-29.3v-18.9Z"/>
  <path class="st0" d="M461.9,298.9h41.9c.4,0,.8-.3,1-.6.2.4.6.6,1,.6h20.1c.3,0,.6-.1.8-.3.2.2.5.4.9.4h20.1c.7,0,1.2-.6,1.2-1.2v-41.9c0-.3-.1-.6-.3-.8.2-.2.3-.5.3-.8v-20.1c0-.3-.1-.6-.3-.8.2-.2.3-.5.3-.8v-20.1c0-.3-.1-.6-.3-.8.2-.2.3-.5.3-.8v-20.1c0-.7-.6-1.2-1.2-1.2h-20.1c-.3,0-.6.1-.8.3-.2-.2-.5-.3-.8-.3h-20.1c-.4,0-.7.2-.9.5-.2-.3-.5-.5-.9-.5h-20.1c-.4,0-.7.2-.9.5-.2-.3-.6-.5-.9-.5h-20.1c-.7,0-1.2.6-1.2,1.2v20.1c0,.3.1.6.3.8-.2.2-.3.5-.3.8v20.1c0,.3.1.6.3.8-.2.2-.3.5-.3.8v20.1c0,.3.1.6.3.8-.2.2-.3.5-.3.8v20.1c0,.3.1.6.3.8-.2.2-.3.5-.3.8v20.1c0,.7.6,1.2,1.2,1.2ZM462.4,232.1v-18.9h18.9v18.9h-18.9ZM484.4,232.1v-18.9h18.9v18.9h-18.9ZM506.4,213.1h18.9v18.9h-18.9v-18.9ZM528.1,232.1v-18.9h18.9v18.9h-18.9ZM547,234.8v18.9h-18.9v-18.9h18.9ZM506.4,256.5h18.9v18.9h-18.9v-18.9ZM482.9,255.1s0,0,0,0c0,0,0,0,0,0,0,0,0,0,0,0,0,0,0,0,0,0ZM484.4,253.7v-18.9h18.9v18.9h-18.9ZM503.3,275.4h-18.9v-18.9h18.9v18.9ZM504.8,255.1s0,0,0,0c0,0,0,0,0,0,0,0,0,0,0,0,0,0,0,0,0,0ZM506.4,234.8h18.9v18.9h-18.9v-18.9ZM504.9,233.4s0,0,0,0c0,0,0,0,0,0,0,0,0,0,0,0,0,0,0,0,0,0ZM482.9,233.4s0,0,0,0c0,0,0,0,0,0,0,0,0,0,0,0,0,0,0,0,0,0ZM462.4,234.8h18.9v18.9h-18.9v-18.9ZM462.4,256.5h18.9v18.9h-18.9v-18.9ZM504.7,276.9s0,0,.1-.1c0,0,0,0,0,0,0,0,0,.1-.1.2,0,0,0,0,0,0ZM504.9,211.7s0,0,0,0c0,0,0,0,0,0,0,0,0,0,0,0,0,0,0,0,0,0ZM483,211.7s0,0,0,0c0,0,0,0,0,0,0,0,0,0,0,0,0,0,0,0,0,0ZM503.1,297.1h-40.7v-18.9h40.7v18.9ZM525.3,297.1h-18.9v-18.9h18.9v18.9ZM547,297.2h-18.9v-40.7h18.9v40.7ZM528.1,191.4h18.9v18.9h-18.9v-18.9ZM525.3,191.4v18.9h-18.9v-18.9h18.9ZM484.4,191.4h18.9v18.9h-18.9v-18.9ZM462.4,191.4h18.9v18.9h-18.9v-18.9Z"/>
</svg>