<?xml version="1.0" encoding="UTF-8"?>
<svg id="Layer_3" xmlns="http://www.w3.org/2000/svg" version="1.1" xmlns:cc="http://creativecommons.org/ns#" xmlns:dc="http://purl.org/dc/elements/1.1/" xmlns:rdf="http://www.w3.org/1999/02/22-rdf-syntax-ns#" xmlns:svg="http://www.w3.org/2000/svg" viewBox="0 0 593.8 308">
  <!-- Generator: Adobe Illustrator 29.1.0, SVG Export Plug-In . SVG Version: 2.1.0 Build 142)  -->
  <defs>
    <style>
      .st0 {
        fill: #f4f4f4;
      }
    </style>
  </defs>
  <path class="st0" d="M120.5,104.5h-25.3c-1,0-1.9.9-1.9,1.9v21.6c0,1,.9,1.9,1.9,1.9h25.3c1,0,1.9-.9,1.9-1.9v-21.6c0-1-.9-1.9-1.9-1.9ZM120.4,127.9h-25.2v-21.4h25.2v21.4Z"/>
  <path class="st0" d="M293.5,102.1H125.3c-1,0-1.9.9-1.9,1.9v24.9c0,1,.9,1.9,1.9,1.9h168.2c1,0,1.9-.9,1.9-1.9v-24.9c0-1-.9-1.9-1.9-1.9ZM293.4,128.8H125.4v-24.7h168v24.7Z"/>
  <path class="st0" d="M87.2,45h4.4V15.2h-4.9v29.8h.5ZM87.7,16.2h2.9v27.8h-2.9v-27.8Z"/>
  <path class="st0" d="M97.6,45h.5V15.2h-4.9v29.8h4.4ZM94.2,16.2h2.9v27.8h-2.9v-27.8Z"/>
  <path class="st0" d="M104.2,45h.5V15.2h-4.9v29.8h4.4ZM100.8,16.2h2.9v27.8h-2.9v-27.8Z"/>
  <path class="st0" d="M110.8,45h.5V15.2h-4.9v29.8h4.4ZM107.4,16.2h2.9v27.8h-2.9v-27.8Z"/>
  <path class="st0" d="M117.4,45h.5V15.2h-4.9v29.8h4.4ZM114.1,16.2h2.9v27.8h-2.9v-27.8Z"/>
  <path class="st0" d="M124,45h.5V15.2h-4.9v29.8h4.4ZM120.7,16.2h2.9v27.8h-2.9v-27.8Z"/>
  <path class="st0" d="M130.7,45h.5V15.2h-4.9v29.8h4.4ZM127.2,16.2h2.9v27.8h-2.9v-27.8Z"/>
  <path class="st0" d="M137.2,45h.5V15.2h-4.9v29.8h4.4ZM133.8,16.2h2.9v27.8h-2.9v-27.8Z"/>
  <path class="st0" d="M143.8,45h.5V15.2h-4.9v29.8h4.4ZM140.5,16.2h2.9v27.8h-2.9v-27.8Z"/>
  <path class="st0" d="M150.4,45h.5V15.2h-4.9v29.8h4.4ZM147.1,16.2h2.9v27.8h-2.9v-27.8Z"/>
  <path class="st0" d="M157.1,45h.5V15.2h-4.9v29.8h4.4ZM153.7,16.2h2.9v27.8h-2.9v-27.8Z"/>
  <path class="st0" d="M163.7,45h.5V15.2h-4.9v29.8h4.4ZM160.2,16.2h2.9v27.8h-2.9v-27.8Z"/>
  <path class="st0" d="M170.2,45h.5V15.2h-4.9v29.8h4.4ZM166.9,16.2h2.9v27.8h-2.9v-27.8Z"/>
  <path class="st0" d="M176.8,45h.5V15.2h-4.9v29.8h4.4ZM173.5,16.2h2.9v27.8h-2.9v-27.8Z"/>
  <path class="st0" d="M183.5,45h.5V15.2h-4.9v29.8h4.4ZM180.1,16.2h2.9v27.8h-2.9v-27.8Z"/>
  <path class="st0" d="M190.1,45h.5V15.2h-4.9v29.8h4.4ZM186.7,16.2h2.9v27.8h-2.9v-27.8Z"/>
  <path class="st0" d="M196.7,45h.5V15.2h-4.9v29.8h4.4ZM193.3,16.2h2.9v27.8h-2.9v-27.8Z"/>
  <path class="st0" d="M203.3,45h.5V15.2h-4.9v29.8h4.4ZM199.9,16.2h2.9v27.8h-2.9v-27.8Z"/>
  <path class="st0" d="M209.9,45h.5V15.2h-4.9v29.8h4.4ZM206.5,16.2h2.9v27.8h-2.9v-27.8Z"/>
  <path class="st0" d="M216.5,45h.5V15.2h-4.9v29.8h4.4ZM213.1,16.2h2.9v27.8h-2.9v-27.8Z"/>
  <path class="st0" d="M223.1,45h.5V15.2h-4.9v29.8h4.4ZM219.7,16.2h2.9v27.8h-2.9v-27.8Z"/>
  <path class="st0" d="M229.7,45h.5V15.2h-4.9v29.8h4.4ZM226.3,16.2h2.9v27.8h-2.9v-27.8Z"/>
  <path class="st0" d="M236.3,45h.5V15.2h-4.9v29.8h4.4ZM232.9,16.2h2.9v27.8h-2.9v-27.8Z"/>
  <path class="st0" d="M242.9,45h.5V15.2h-4.9v29.8h4.4ZM239.5,16.2h2.9v27.8h-2.9v-27.8Z"/>
  <path class="st0" d="M249.5,45h.5V15.2h-4.9v29.8h4.4ZM246.1,16.2h2.9v27.8h-2.9v-27.8Z"/>
  <path class="st0" d="M256.1,45h.5V15.2h-4.9v29.8h4.4ZM252.7,16.2h2.9v27.8h-2.9v-27.8Z"/>
  <path class="st0" d="M262.7,45h.5V15.2h-4.9v29.8h4.4ZM259.3,16.2h2.9v27.8h-2.9v-27.8Z"/>
  <path class="st0" d="M269.3,45h.5V15.2h-4.9v29.8h4.4ZM265.9,16.2h2.9v27.8h-2.9v-27.8Z"/>
  <path class="st0" d="M275.9,45h.5V15.2h-4.9v29.8h4.4ZM272.5,16.2h2.9v27.8h-2.9v-27.8Z"/>
  <path class="st0" d="M282.5,45h.5V15.2h-4.9v29.8h4.4ZM279.1,16.2h2.9v27.8h-2.9v-27.8Z"/>
  <path class="st0" d="M289.1,45h.5V15.2h-4.9v29.8h4.4ZM285.7,16.2h2.9v27.8h-2.9v-27.8Z"/>
  <path class="st0" d="M295.7,45h.5V15.2h-4.9v29.8h4.4ZM292.3,16.2h2.9v27.8h-2.9v-27.8Z"/>
  <path class="st0" d="M302.3,45h.5V15.2h-4.9v29.8h4.4ZM298.9,16.2h2.9v27.8h-2.9v-27.8Z"/>
  <path class="st0" d="M308.9,45h.5V15.2h-4.9v29.8h4.4ZM305.5,16.2h2.9v27.8h-2.9v-27.8Z"/>
  <path class="st0" d="M315.5,45h.5V15.2h-4.9v29.8h4.4ZM312.1,16.2h2.9v27.8h-2.9v-27.8Z"/>
  <path class="st0" d="M322.1,45h.5V15.2h-4.9v29.8h4.4ZM318.7,16.2h2.9v27.8h-2.9v-27.8Z"/>
  <path class="st0" d="M328.7,45h.5V15.2h-4.9v29.8h4.4ZM325.3,16.2h2.9v27.8h-2.9v-27.8Z"/>
  <path class="st0" d="M335.3,45h.5V15.2h-4.9v29.8h4.4ZM331.9,16.2h2.9v27.8h-2.9v-27.8Z"/>
  <path class="st0" d="M341.9,45h.5V15.2h-4.9v29.8h4.4ZM338.5,16.2h2.9v27.8h-2.9v-27.8Z"/>
  <path class="st0" d="M348.5,45h.5V15.2h-4.9v29.8h4.4ZM345.1,16.2h2.9v27.8h-2.9v-27.8Z"/>
  <path class="st0" d="M355.1,45h.5V15.2h-4.9v29.8h4.4ZM351.7,16.2h2.9v27.8h-2.9v-27.8Z"/>
  <path class="st0" d="M361.7,45h.5V15.2h-4.9v29.8h4.4ZM358.3,16.2h2.9v27.8h-2.9v-27.8Z"/>
  <path class="st0" d="M368.3,45h.5V15.2h-4.9v29.8h4.4ZM364.9,16.2h2.9v27.8h-2.9v-27.8Z"/>
  <path class="st0" d="M374.9,45h.5V15.2h-4.9v29.8h4.4ZM371.5,16.2h2.9v27.8h-2.9v-27.8Z"/>
  <path class="st0" d="M381.5,45h.5V15.2h-4.9v29.8h4.4ZM378.1,16.2h2.9v27.8h-2.9v-27.8Z"/>
  <path class="st0" d="M388.1,45h.5V15.2h-4.9v29.8h4.4ZM384.7,16.2h2.9v27.8h-2.9v-27.8Z"/>
  <path class="st0" d="M394.7,45h.5V15.2h-4.9v29.8h4.4ZM391.3,16.2h2.9v27.8h-2.9v-27.8Z"/>
  <path class="st0" d="M401.3,45h.5V15.2h-4.9v29.8h4.4ZM397.9,16.2h2.9v27.8h-2.9v-27.8Z"/>
  <path class="st0" d="M407.9,45h.5V15.2h-4.9v29.8h4.4ZM404.5,16.2h2.9v27.8h-2.9v-27.8Z"/>
  <path class="st0" d="M414.5,45h.5V15.2h-4.9v29.8h4.4ZM411.1,16.2h2.9v27.8h-2.9v-27.8Z"/>
  <path class="st0" d="M421.1,45h.5V15.2h-4.9v29.8h4.4ZM417.8,16.2h2.9v27.8h-2.9v-27.8Z"/>
  <path class="st0" d="M427.7,45h.5V15.2h-4.9v29.8h4.4ZM424.3,16.2h2.9v27.8h-2.9v-27.8Z"/>
  <path class="st0" d="M434.3,45h.5V15.2h-4.9v29.8h4.4ZM430.9,16.2h2.9v27.8h-2.9v-27.8Z"/>
  <path class="st0" d="M440.9,45h.5V15.2h-4.9v29.8h4.4ZM437.5,16.2h2.9v27.8h-2.9v-27.8Z"/>
  <path class="st0" d="M447.5,45h.5V15.2h-4.9v29.8h4.4ZM444.2,16.2h2.9v27.8h-2.9v-27.8Z"/>
  <path class="st0" d="M454.2,45h.5V15.2h-4.9v29.8h4.4ZM450.8,16.2h2.9v27.8h-2.9v-27.8Z"/>
  <path class="st0" d="M460.8,45h.5V15.2h-4.9v29.8h4.4ZM457.3,16.2h2.9v27.8h-2.9v-27.8Z"/>
  <path class="st0" d="M467.3,45h.5V15.2h-4.9v29.8h4.4ZM463.9,16.2h2.9v27.8h-2.9v-27.8Z"/>
  <path class="st0" d="M473.9,45h.5V15.2h-4.9v29.8h4.4ZM470.6,16.2h2.9v27.8h-2.9v-27.8Z"/>
  <path class="st0" d="M480.6,45h.5V15.2h-4.9v29.8h4.4ZM477.2,16.2h2.9v27.8h-2.9v-27.8Z"/>
  <path class="st0" d="M487.2,45h.5V15.2h-4.9v29.8h4.4ZM483.8,16.2h2.9v27.8h-2.9v-27.8Z"/>
  <path class="st0" d="M493.8,45h.5V15.2h-4.9v29.8h4.4ZM490.3,16.2h2.9v27.8h-2.9v-27.8Z"/>
  <path class="st0" d="M500.3,45h.5V15.2h-4.9v29.8h4.4ZM497,16.2h2.9v27.8h-2.9v-27.8Z"/>
  <path class="st0" d="M507,45h.5V15.2h-4.9v29.8h4.4ZM503.6,16.2h2.9v27.8h-2.9v-27.8Z"/>
  <path class="st0" d="M522.1,96V12h-9.9V.2h-1.6v-.2h-2v12H85.8V0h-2v.2h-1.4v11.9h-10.7v84L0,147.2l1.2,1.6,71.8-51.3h9.3v44.5c0,2.5,2.1,4.6,4.6,4.6h159.5v18.9H44.1v56.8h7.3v55.4h72.1v28.6h261.9v-28.6h87.1v-55.4h7.3v-56.8h-136.7v-18.8h0c0,0,164.6,0,164.6,0,2.5,0,4.6-2.1,4.6-4.6v-44.5h8.6l71.8,51.3,1.2-1.6-71.7-51.2ZM340,144.6v1.7h-.6v-3h-88.1v-3.7c0-.4.3-1.7.7-3s1.1-2.7,1.8-3.6l-1.6-1.2c-.8,1.2-1.5,2.7-2,4.1s-.8,2.7-.8,3.7v3.4H87.4c-.7,0-1.1-.1-1.3-.2s-.3-.3-.3-1.1v-44.2h422.8v44.2c0,.8-.2,1-.3,1.1s-.7.2-1.3.2h-164v-3.4c0-1-.3-2.2-.8-3.7-.5-1.4-1.2-3-2.1-4.1l-1.6,1.2c.7.9,1.3,2.3,1.8,3.6.5,1.3.8,2.6.8,3v4.9h-.9ZM249.4,145.6v-.5h1.1v1.2h-1.1v-.7ZM250.5,148.3h1.9v-3h84.9v3h1.2v17.1h-88.1v-17.1ZM508.6,14v81.5H85.8V14h422.8ZM73.7,95.5V14h8.7v81.5h-8.7ZM51,218.3c-1.4,0-2.6-1.1-2.6-2.6v-16.4c0-1.4,1.1-2.6,2.6-2.6h29.2c1.4,0,2.6,1.1,2.6,2.6v16.4c0,1.4-1.1,2.6-2.6,2.6h-29.2ZM477.7,167.5v52.8h-5.4c2.5,0,4.6-2.1,4.6-4.6v-16.4c0-2.5-2.1-4.6-4.6-4.6h-32.8c-2.5,0-4.6,2.1-4.6,4.6v16.4c0,2.5,2.1,4.6,4.6,4.6h30.9v55.4h-87.1v28.6H125.5v-28.6H53.4v-55.4h26.8c2.5,0,4.6-2.1,4.6-4.6v-16.4c0-2.5-2.1-4.6-4.6-4.6h-29.2c-2.5,0-4.6,2.1-4.6,4.6v16.4c0,2.5,2.1,4.6,4.6,4.6h-4.9v-52.8h202.3v-19.8h.2v19.8h92.1v-19.8h.4v19.8h136.7ZM439.5,218.3c-1.4,0-2.6-1.1-2.6-2.6v-16.4c0-1.4,1.1-2.6,2.6-2.6h32.8c1.4,0,2.6,1.1,2.6,2.6v16.4c0,1.4-1.1,2.6-2.6,2.6h-32.8ZM520.1,95.5h-7.9V14h7.9v81.5Z"/>
  <path class="st0" d="M287.1,157.8h-3.4l2.8,1.8,5.4,3.5.2.2h.8c0-.1,6.6-3.6,6.6-3.6l-.5-1.9h-12.1ZM292.6,161.2l-2.1-1.4h4.7l-2.6,1.4Z"/>
  <path class="st0" d="M67.4,168.4h-16.4c-2.5,0-4.6,2.1-4.6,4.6v16.4c0,2.5,2.1,4.6,4.6,4.6h16.4c2.5,0,4.6-2.1,4.6-4.6v-16.4c0-2.5-2.1-4.6-4.6-4.6ZM70,189.3c0,1.4-1.1,2.6-2.6,2.6h-16.4c-1.4,0-2.6-1.1-2.6-2.6v-16.4c0-1.4,1.1-2.6,2.6-2.6h16.4c1.4,0,2.6,1.1,2.6,2.6v16.4Z"/>
  <path class="st0" d="M100.7,190.3h.2v-17.4c0-2.5-2.1-4.6-4.6-4.6h-16.4c-2.5,0-4.6,2.1-4.6,4.6v16.4c0,2.5,2.1,4.6,4.6,4.6h16.3c2.2,0,3.9-1.6,4.4-3.6ZM77.3,189.3v-16.4c0-1.4,1.1-2.6,2.6-2.6h16.4c1.4,0,2.6,1.1,2.6,2.6v15.4h0v1c0,1.4-1.1,2.6-2.6,2.6h-16.3c-1.4,0-2.6-1.1-2.6-2.6Z"/>
  <path class="st0" d="M108.8,193.9h16.4c2.5,0,4.6-2.1,4.6-4.6v-16.4c0-2.5-2.1-4.6-4.6-4.6h-16.4c-2.5,0-4.6,2.1-4.6,4.6v16.4c0,2.5,2.1,4.6,4.6,4.6ZM106.2,173c0-1.4,1.1-2.6,2.6-2.6h16.4c1.4,0,2.6,1.1,2.6,2.6v16.4c0,1.4-1.1,2.6-2.6,2.6h-16.4c-1.4,0-2.6-1.1-2.6-2.6v-16.4Z"/>
  <path class="st0" d="M137.7,193.9h16.4c2.5,0,4.6-2.1,4.6-4.6v-16.4c0-2.5-2.1-4.6-4.6-4.6h-16.4c-2.5,0-4.6,2.1-4.6,4.6v16.4c0,2.5,2.1,4.6,4.6,4.6ZM135.1,173c0-1.4,1.1-2.6,2.6-2.6h16.4c1.4,0,2.6,1.1,2.6,2.6v16.4c0,1.4-1.1,2.6-2.6,2.6h-16.4c-1.4,0-2.6-1.1-2.6-2.6v-16.4Z"/>
  <path class="st0" d="M166.6,193.9h16.4c2.5,0,4.6-2.1,4.6-4.6v-16.4c0-2.5-2.1-4.6-4.6-4.6h-16.4c-2.5,0-4.6,2.1-4.6,4.6v16.4c0,2.5,2.1,4.6,4.6,4.6ZM164,173c0-1.4,1.1-2.6,2.6-2.6h16.4c1.4,0,2.6,1.1,2.6,2.6v16.4c0,1.4-1.1,2.6-2.6,2.6h-16.4c-1.4,0-2.6-1.1-2.6-2.6v-16.4Z"/>
  <path class="st0" d="M195.5,193.9h16.4c2.5,0,4.6-2.1,4.6-4.6v-16.4c0-2.5-2.1-4.6-4.6-4.6h-16.4c-2.5,0-4.6,2.1-4.6,4.6v16.4c0,2.5,2.1,4.6,4.6,4.6ZM192.9,173c0-1.4,1.1-2.6,2.6-2.6h16.4c1.4,0,2.6,1.1,2.6,2.6v16.4c0,1.4-1.1,2.6-2.6,2.6h-16.4c-1.4,0-2.6-1.1-2.6-2.6v-16.4Z"/>
  <path class="st0" d="M224.3,193.9h16.4c2.5,0,4.6-2.1,4.6-4.6v-16.4c0-2.5-2.1-4.6-4.6-4.6h-16.4c-2.5,0-4.6,2.1-4.6,4.6v16.4c0,2.5,2.1,4.6,4.6,4.6ZM221.8,173c0-1.4,1.1-2.6,2.6-2.6h16.4c1.4,0,2.6,1.1,2.6,2.6v16.4c0,1.4-1.1,2.6-2.6,2.6h-16.4c-1.4,0-2.6-1.1-2.6-2.6v-16.4Z"/>
  <path class="st0" d="M253.2,193.9h16.4c2.5,0,4.6-2.1,4.6-4.6v-16.4c0-2.5-2.1-4.6-4.6-4.6h-16.4c-2.5,0-4.6,2.1-4.6,4.6v16.4c0,2.5,2.1,4.6,4.6,4.6ZM250.7,173c0-1.4,1.1-2.6,2.6-2.6h16.4c1.4,0,2.6,1.1,2.6,2.6v16.4c0,1.4-1.1,2.6-2.6,2.6h-16.4c-1.4,0-2.6-1.1-2.6-2.6v-16.4Z"/>
  <path class="st0" d="M282.1,193.9h16.4c2.5,0,4.6-2.1,4.6-4.6v-16.4c0-2.5-2.1-4.6-4.6-4.6h-16.4c-2.5,0-4.6,2.1-4.6,4.6v16.4c0,2.5,2.1,4.6,4.6,4.6ZM279.5,173c0-1.4,1.1-2.6,2.6-2.6h16.4c1.4,0,2.6,1.1,2.6,2.6v16.4c0,1.4-1.1,2.6-2.6,2.6h-16.4c-1.4,0-2.6-1.1-2.6-2.6v-16.4Z"/>
  <path class="st0" d="M311,193.9h16.4c2.5,0,4.6-2.1,4.6-4.6v-16.4c0-2.5-2.1-4.6-4.6-4.6h-16.4c-2.5,0-4.6,2.1-4.6,4.6v16.4c0,2.5,2.1,4.6,4.6,4.6ZM308.4,173c0-1.4,1.1-2.6,2.6-2.6h16.4c1.4,0,2.6,1.1,2.6,2.6v16.4c0,1.4-1.1,2.6-2.6,2.6h-16.4c-1.4,0-2.6-1.1-2.6-2.6v-16.4Z"/>
  <path class="st0" d="M335.3,173v16.4c0,2.5,2.1,4.6,4.6,4.6h16.3c2.5,0,4.6-2.1,4.6-4.6v-16.4c0-2.5-2.1-4.6-4.6-4.6h-16.3c-2.5,0-4.6,2.1-4.6,4.6ZM358.9,173v16.4c0,1.4-1.1,2.6-2.6,2.6h-16.3c-1.4,0-2.6-1.1-2.6-2.6v-16.4c0-1.4,1.2-2.6,2.6-2.6h16.3c1.4,0,2.6,1.1,2.6,2.6Z"/>
  <path class="st0" d="M368.8,193.9h16.4c2.5,0,4.6-2.1,4.6-4.6v-16.4c0-2.5-2.1-4.6-4.6-4.6h-16.4c-2.5,0-4.6,2.1-4.6,4.6v16.4c0,2.5,2.1,4.6,4.6,4.6ZM366.2,173c0-1.4,1.1-2.6,2.6-2.6h16.4c1.4,0,2.6,1.1,2.6,2.6v16.4c0,1.4-1.1,2.6-2.6,2.6h-16.4c-1.4,0-2.6-1.1-2.6-2.6v-16.4Z"/>
  <path class="st0" d="M397.7,193.9h16.4c2.5,0,4.6-2.1,4.6-4.6v-16.4c0-2.5-2.1-4.6-4.6-4.6h-16.4c-2.5,0-4.6,2.1-4.6,4.6v16.4c0,2.5,2.1,4.6,4.6,4.6ZM395.1,173c0-1.4,1.1-2.6,2.6-2.6h16.4c1.4,0,2.6,1.1,2.6,2.6v16.4c0,1.4-1.1,2.6-2.6,2.6h-16.4c-1.4,0-2.6-1.1-2.6-2.6v-16.4Z"/>
  <path class="st0" d="M426.6,193.9h16.4c2.5,0,4.6-2.1,4.6-4.6v-16.4c0-2.5-2.1-4.6-4.6-4.6h-16.4c-2.5,0-4.6,2.1-4.6,4.6v16.4c0,2.5,2.1,4.6,4.6,4.6ZM424,173c0-1.4,1.1-2.6,2.6-2.6h16.4c1.4,0,2.6,1.1,2.6,2.6v16.4c0,1.4-1.1,2.6-2.6,2.6h-16.4c-1.4,0-2.6-1.1-2.6-2.6v-16.4Z"/>
  <path class="st0" d="M455.5,193.9h16.4c2.5,0,4.6-2.1,4.6-4.6v-16.4c0-2.5-2.1-4.6-4.6-4.6h-16.4c-2.5,0-4.6,2.1-4.6,4.6v16.4c0,2.5,2.1,4.6,4.6,4.6ZM452.9,173c0-1.4,1.1-2.6,2.6-2.6h16.4c1.4,0,2.6,1.1,2.6,2.6v16.4c0,1.4-1.1,2.6-2.6,2.6h-16.4c-1.4,0-2.6-1.1-2.6-2.6v-16.4Z"/>
  <path class="st0" d="M58.2,247.6h30.4c2.2,0,3.9-1.6,4.4-3.6h.2v-17.4c0-2.5-2.1-4.6-4.6-4.6h-30.4c-2.5,0-4.6,2.1-4.6,4.6v16.4c0,2.5,2.1,4.6,4.6,4.6ZM55.6,226.6c0-1.4,1.1-2.6,2.6-2.6h30.4c1.4,0,2.6,1.1,2.6,2.6v16.4c0,1.4-1.1,2.6-2.6,2.6h-30.4c-1.4,0-2.6-1.1-2.6-2.6v-16.4Z"/>
  <path class="st0" d="M101.2,247.6h16.4c2.5,0,4.6-2.1,4.6-4.6v-16.4c0-2.5-2.1-4.6-4.6-4.6h-16.4c-2.5,0-4.6,2.1-4.6,4.6v16.4c0,2.5,2.1,4.6,4.6,4.6ZM98.6,226.6c0-1.4,1.1-2.6,2.6-2.6h16.4c1.4,0,2.6,1.1,2.6,2.6v16.4c0,1.4-1.1,2.6-2.6,2.6h-16.4c-1.4,0-2.6-1.1-2.6-2.6v-16.4Z"/>
  <path class="st0" d="M130.1,247.6h16.4c2.5,0,4.6-2.1,4.6-4.6v-16.4c0-2.5-2.1-4.6-4.6-4.6h-16.4c-2.5,0-4.6,2.1-4.6,4.6v16.4c0,2.5,2.1,4.6,4.6,4.6ZM127.5,226.6c0-1.4,1.1-2.6,2.6-2.6h16.4c1.4,0,2.6,1.1,2.6,2.6v16.4c0,1.4-1.1,2.6-2.6,2.6h-16.4c-1.4,0-2.6-1.1-2.6-2.6v-16.4Z"/>
  <path class="st0" d="M179.9,243v-16.4c0-2.5-2.1-4.6-4.6-4.6h-16.4c-2.5,0-4.6,2.1-4.6,4.6v16.4c0,2.5,2.1,4.6,4.6,4.6h16.4c2.5,0,4.6-2.1,4.6-4.6ZM156.3,243v-16.4c0-1.4,1.1-2.6,2.6-2.6h16.4c1.4,0,2.6,1.1,2.6,2.6v16.4c0,1.4-1.1,2.6-2.6,2.6h-16.4c-1.4,0-2.6-1.1-2.6-2.6Z"/>
  <path class="st0" d="M208.8,243v-16.4c0-2.5-2.1-4.6-4.6-4.6h-16.4c-2.5,0-4.6,2.1-4.6,4.6v16.4c0,2.5,2.1,4.6,4.6,4.6h16.4c2.5,0,4.6-2.1,4.6-4.6ZM185.2,243v-16.4c0-1.4,1.1-2.6,2.6-2.6h16.4c1.4,0,2.6,1.1,2.6,2.6v16.4c0,1.4-1.1,2.6-2.6,2.6h-16.4c-1.4,0-2.6-1.1-2.6-2.6Z"/>
  <path class="st0" d="M237.7,243v-16.4c0-2.5-2.1-4.6-4.6-4.6h-16.4c-2.5,0-4.6,2.1-4.6,4.6v16.4c0,2.5,2.1,4.6,4.6,4.6h16.4c2.5,0,4.6-2.1,4.6-4.6ZM214.1,243v-16.4c0-1.4,1.1-2.6,2.6-2.6h16.4c1.4,0,2.6,1.1,2.6,2.6v16.4c0,1.4-1.1,2.6-2.6,2.6h-16.4c-1.4,0-2.6-1.1-2.6-2.6Z"/>
  <path class="st0" d="M266.6,243v-16.4c0-2.5-2.1-4.6-4.6-4.6h-16.4c-2.5,0-4.6,2.1-4.6,4.6v16.4c0,2.5,2.1,4.6,4.6,4.6h16.4c2.5,0,4.6-2.1,4.6-4.6ZM243,243v-16.4c0-1.4,1.1-2.6,2.6-2.6h16.4c1.4,0,2.6,1.1,2.6,2.6v16.4c0,1.4-1.1,2.6-2.6,2.6h-16.4c-1.4,0-2.6-1.1-2.6-2.6Z"/>
  <path class="st0" d="M295.5,243v-16.4c0-2.5-2.1-4.6-4.6-4.6h-16.4c-2.5,0-4.6,2.1-4.6,4.6v16.4c0,2.5,2.1,4.6,4.6,4.6h16.4c2.5,0,4.6-2.1,4.6-4.6ZM271.9,243v-16.4c0-1.4,1.1-2.6,2.6-2.6h16.4c1.4,0,2.6,1.1,2.6,2.6v16.4c0,1.4-1.2,2.6-2.6,2.6h-16.4c-1.4,0-2.6-1.1-2.6-2.6Z"/>
  <path class="st0" d="M324.4,243v-16.4c0-2.5-2.1-4.6-4.6-4.6h-16.4c-2.5,0-4.6,2.1-4.6,4.6v16.4c0,2.5,2.1,4.6,4.6,4.6h16.4c2.5,0,4.6-2.1,4.6-4.6ZM300.8,243v-16.4c0-1.4,1.1-2.6,2.6-2.6h16.4c1.4,0,2.6,1.1,2.6,2.6v16.4c0,1.4-1.1,2.6-2.6,2.6h-16.4c-1.4,0-2.6-1.1-2.6-2.6Z"/>
  <path class="st0" d="M327.7,226.6v16.4c0,2.5,2.1,4.6,4.6,4.6h16.4c2.5,0,4.6-2.1,4.6-4.6v-16.4c0-2.5-2.1-4.6-4.6-4.6h-16.4c-2.5,0-4.6,2.1-4.6,4.6ZM351.2,226.6v16.4c0,1.4-1.1,2.6-2.6,2.6h-16.4c-1.4,0-2.6-1.1-2.6-2.6v-16.4c0-1.4,1.1-2.6,2.6-2.6h16.4c1.4,0,2.6,1.1,2.6,2.6Z"/>
  <path class="st0" d="M356.6,226.6v16.4c0,2.5,2.1,4.6,4.6,4.6h16.4c2.5,0,4.6-2.1,4.6-4.6v-16.4c0-2.5-2.1-4.6-4.6-4.6h-16.4c-2.5,0-4.6,2.1-4.6,4.6ZM380.2,226.6v16.4c0,1.4-1.1,2.6-2.6,2.6h-16.4c-1.4,0-2.6-1.1-2.6-2.6v-16.4c0-1.4,1.1-2.6,2.6-2.6h16.4c1.4,0,2.6,1.1,2.6,2.6Z"/>
  <path class="st0" d="M385.5,226.6v16.4c0,2.5,2.1,4.6,4.6,4.6h16.3c2.5,0,4.6-2.1,4.6-4.6v-16.4c0-2.5-2.1-4.6-4.6-4.6h-16.3c-2.5,0-4.6,2.1-4.6,4.6ZM409.1,226.6v16.4c0,1.4-1.2,2.6-2.6,2.6h-16.3c-1.4,0-2.6-1.1-2.6-2.6v-16.4c0-1.4,1.2-2.6,2.6-2.6h16.3c1.4,0,2.6,1.1,2.6,2.6Z"/>
  <path class="st0" d="M414.4,226.6v16.4c0,2.5,2.1,4.6,4.6,4.6h16.4c2.5,0,4.6-2.1,4.6-4.6v-16.4c0-2.5-2.1-4.6-4.6-4.6h-16.4c-2.5,0-4.6,2.1-4.6,4.6ZM437.9,226.6v16.4c0,1.4-1.1,2.6-2.6,2.6h-16.4c-1.4,0-2.6-1.1-2.6-2.6v-16.4c0-1.4,1.1-2.6,2.6-2.6h16.4c1.4,0,2.6,1.1,2.6,2.6Z"/>
  <path class="st0" d="M447.9,247.6h16.4c2.5,0,4.6-2.1,4.6-4.6v-16.4c0-2.5-2.1-4.6-4.6-4.6h-16.4c-2.5,0-4.6,2.1-4.6,4.6v16.4c0,2.5,2.1,4.6,4.6,4.6ZM445.3,226.6c0-1.4,1.1-2.6,2.6-2.6h16.4c1.4,0,2.6,1.1,2.6,2.6v16.4c0,1.4-1.1,2.6-2.6,2.6h-16.4c-1.4,0-2.6-1.1-2.6-2.6v-16.4Z"/>
  <path class="st0" d="M100.3,249.2h-41.8c-2.5,0-4.6,2.1-4.6,4.6v16.4c0,2.5,2.1,4.6,4.6,4.6h41.8c2.5,0,4.6-2.1,4.6-4.6v-16.4c0-2.5-2.1-4.6-4.6-4.6ZM102.9,270.2c0,1.4-1.1,2.6-2.6,2.6h-41.8c-1.4,0-2.6-1.1-2.6-2.6v-16.4c0-1.4,1.1-2.6,2.6-2.6h41.8c1.4,0,2.6,1.1,2.6,2.6v16.4Z"/>
  <path class="st0" d="M377.7,277.8h-246.7c-2.5,0-4.6,2.1-4.6,4.6v16.4c0,2.5,2.1,4.6,4.6,4.6h246.7c2.5,0,4.6-2.1,4.6-4.6v-16.4c0-2.5-2.1-4.6-4.6-4.6ZM380.2,298.8c0,1.4-1.1,2.6-2.6,2.6h-246.7c-1.4,0-2.6-1.1-2.6-2.6v-16.4c0-1.4,1.1-2.6,2.6-2.6h246.7c1.4,0,2.6,1.1,2.6,2.6v16.4Z"/>
  <path class="st0" d="M133.8,270.2v-16.4c0-2.5-2.1-4.6-4.6-4.6h-16.4c-2.5,0-4.6,2.1-4.6,4.6v16.4c0,2.5,2.1,4.6,4.6,4.6h16.4c2.5,0,4.6-2.1,4.6-4.6ZM110.2,270.2v-16.4c0-1.4,1.1-2.6,2.6-2.6h16.4c1.4,0,2.6,1.1,2.6,2.6v16.4c0,1.4-1.1,2.6-2.6,2.6h-16.4c-1.4,0-2.6-1.1-2.6-2.6Z"/>
  <path class="st0" d="M141.7,274.8h16.4c2.5,0,4.6-2.1,4.6-4.6v-16.4c0-2.5-2.1-4.6-4.6-4.6h-16.4c-2.5,0-4.6,2.1-4.6,4.6v16.4c0,2.5,2.1,4.6,4.6,4.6ZM139.1,253.8c0-1.4,1.1-2.6,2.6-2.6h16.4c1.4,0,2.6,1.1,2.6,2.6v16.4c0,1.4-1.1,2.6-2.6,2.6h-16.4c-1.4,0-2.6-1.1-2.6-2.6v-16.4Z"/>
  <path class="st0" d="M170.6,274.8h16.4c2.5,0,4.6-2.1,4.6-4.6v-16.4c0-2.5-2.1-4.6-4.6-4.6h-16.4c-2.5,0-4.6,2.1-4.6,4.6v16.4c0,2.5,2.1,4.6,4.6,4.6ZM168,253.8c0-1.4,1.1-2.6,2.6-2.6h16.4c1.4,0,2.6,1.1,2.6,2.6v16.4c0,1.4-1.1,2.6-2.6,2.6h-16.4c-1.4,0-2.6-1.1-2.6-2.6v-16.4Z"/>
  <path class="st0" d="M199.5,274.8h16.4c2.5,0,4.6-2.1,4.6-4.6v-16.4c0-2.5-2.1-4.6-4.6-4.6h-16.4c-2.5,0-4.6,2.1-4.6,4.6v16.4c0,2.5,2.1,4.6,4.6,4.6ZM196.9,253.8c0-1.4,1.1-2.6,2.6-2.6h16.4c1.4,0,2.6,1.1,2.6,2.6v16.4c0,1.4-1.1,2.6-2.6,2.6h-16.4c-1.4,0-2.6-1.1-2.6-2.6v-16.4Z"/>
  <path class="st0" d="M228.4,274.8h16.4c2.5,0,4.6-2.1,4.6-4.6v-16.4c0-2.5-2.1-4.6-4.6-4.6h-16.4c-2.5,0-4.6,2.1-4.6,4.6v16.4c0,2.5,2.1,4.6,4.6,4.6ZM225.8,253.8c0-1.4,1.1-2.6,2.6-2.6h16.4c1.4,0,2.6,1.1,2.6,2.6v16.4c0,1.4-1.1,2.6-2.6,2.6h-16.4c-1.4,0-2.6-1.1-2.6-2.6v-16.4Z"/>
  <path class="st0" d="M257.3,274.8h16.4c2.5,0,4.6-2.1,4.6-4.6v-16.4c0-2.5-2.1-4.6-4.6-4.6h-16.4c-2.5,0-4.6,2.1-4.6,4.6v16.4c0,2.5,2.1,4.6,4.6,4.6ZM254.7,253.8c0-1.4,1.1-2.6,2.6-2.6h16.4c1.4,0,2.6,1.1,2.6,2.6v16.4c0,1.4-1.1,2.6-2.6,2.6h-16.4c-1.4,0-2.6-1.1-2.6-2.6v-16.4Z"/>
  <path class="st0" d="M286.2,274.8h16.4c2.5,0,4.6-2.1,4.6-4.6v-16.4c0-2.5-2.1-4.6-4.6-4.6h-16.4c-2.5,0-4.6,2.1-4.6,4.6v16.4c0,2.5,2.1,4.6,4.6,4.6ZM283.6,253.8c0-1.4,1.1-2.6,2.6-2.6h16.4c1.4,0,2.6,1.1,2.6,2.6v16.4c0,1.4-1.1,2.6-2.6,2.6h-16.4c-1.4,0-2.6-1.1-2.6-2.6v-16.4Z"/>
  <path class="st0" d="M315.1,274.8h16.4c2.5,0,4.6-2.1,4.6-4.6v-16.4c0-2.5-2.1-4.6-4.6-4.6h-16.4c-2.5,0-4.6,2.1-4.6,4.6v16.4c0,2.5,2.1,4.6,4.6,4.6ZM312.5,253.8c0-1.4,1.1-2.6,2.6-2.6h16.4c1.4,0,2.6,1.1,2.6,2.6v16.4c0,1.4-1.1,2.6-2.6,2.6h-16.4c-1.4,0-2.6-1.1-2.6-2.6v-16.4Z"/>
  <path class="st0" d="M344,249.2c-2.5,0-4.6,2.1-4.6,4.6v16.4c0,2.5,2.1,4.6,4.6,4.6h16.4c2.5,0,4.6-2.1,4.6-4.6v-16.4c0-2.5-2.1-4.6-4.6-4.6h-16.4ZM362.9,253.8v16.4c0,1.4-1.1,2.6-2.6,2.6h-16.4c-1.4,0-2.6-1.1-2.6-2.6v-16.4c0-1.4,1.1-2.6,2.6-2.6h16.4c1.4,0,2.6,1.1,2.6,2.6Z"/>
  <path class="st0" d="M389.2,249.2h-16.4c-2.5,0-4.6,2.1-4.6,4.6v16.4c0,2.5,2.1,4.6,4.6,4.6h16.4c2.5,0,4.6-2.1,4.6-4.6v-16.4c0-2.5-2.1-4.6-4.6-4.6ZM391.8,270.2c0,1.4-1.1,2.6-2.6,2.6h-16.4c-1.4,0-2.6-1.1-2.6-2.6v-16.4c0-1.4,1.1-2.6,2.6-2.6h16.4c1.4,0,2.6,1.1,2.6,2.6v16.4Z"/>
  <path class="st0" d="M418.1,249.2h-16.4c-2.5,0-4.6,2.1-4.6,4.6v16.4c0,2.5,2.1,4.6,4.6,4.6h16.4c2.5,0,4.6-2.1,4.6-4.6v-16.4c0-2.5-2.1-4.6-4.6-4.6ZM420.7,270.2c0,1.4-1.1,2.6-2.6,2.6h-16.4c-1.4,0-2.6-1.1-2.6-2.6v-16.4c0-1.4,1.1-2.6,2.6-2.6h16.4c1.4,0,2.6,1.1,2.6,2.6v16.4Z"/>
  <path class="st0" d="M465,249.2h-34.3c-2.5,0-4.6,2.1-4.6,4.6v16.4c0,2.5,2.1,4.6,4.6,4.6h34.3c2.5,0,4.6-2.1,4.6-4.6v-16.4c0-2.5-2.1-4.6-4.6-4.6ZM467.6,270.2c0,1.4-1.1,2.6-2.6,2.6h-34.3c-1.4,0-2.6-1.1-2.6-2.6v-16.4c0-1.4,1.1-2.6,2.6-2.6h34.3c1.4,0,2.6,1.1,2.6,2.6v16.4Z"/>
  <path class="st0" d="M113.5,216.7h.2v-17.4c0-2.5-2.1-4.6-4.6-4.6h-16.4c-2.5,0-4.6,2.1-4.6,4.6v16.4c0,2.5,2.1,4.6,4.6,4.6h16.4c2.2,0,3.9-1.6,4.4-3.6ZM90.2,215.7v-16.4c0-1.4,1.1-2.6,2.6-2.6h16.4c1.4,0,2.6,1.1,2.6,2.6v16.4c0,1.4-1.1,2.6-2.6,2.6h-16.4c-1.4,0-2.6-1.1-2.6-2.6Z"/>
  <path class="st0" d="M142.6,215.7v-16.4c0-2.5-2.1-4.6-4.6-4.6h-16.4c-2.5,0-4.6,2.1-4.6,4.6v16.4c0,2.5,2.1,4.6,4.6,4.6h16.4c2.5,0,4.6-2.1,4.6-4.6ZM119.1,215.7v-16.4c0-1.4,1.1-2.6,2.6-2.6h16.4c1.4,0,2.6,1.1,2.6,2.6v16.4c0,1.4-1.1,2.6-2.6,2.6h-16.4c-1.4,0-2.6-1.1-2.6-2.6Z"/>
  <path class="st0" d="M150.6,220.3h16.4c2.5,0,4.6-2.1,4.6-4.6v-16.4c0-2.5-2.1-4.6-4.6-4.6h-16.4c-2.5,0-4.6,2.1-4.6,4.6v16.4c0,2.5,2.1,4.6,4.6,4.6ZM148,199.3c0-1.4,1.1-2.6,2.6-2.6h16.4c1.4,0,2.6,1.1,2.6,2.6v16.4c0,1.4-1.1,2.6-2.6,2.6h-16.4c-1.4,0-2.6-1.1-2.6-2.6v-16.4Z"/>
  <path class="st0" d="M179.4,220.3h16.4c2.5,0,4.6-2.1,4.6-4.6v-16.4c0-2.5-2.1-4.6-4.6-4.6h-16.4c-2.5,0-4.6,2.1-4.6,4.6v16.4c0,2.5,2.1,4.6,4.6,4.6ZM176.8,199.3c0-1.4,1.1-2.6,2.6-2.6h16.4c1.4,0,2.6,1.1,2.6,2.6v16.4c0,1.4-1.1,2.6-2.6,2.6h-16.4c-1.4,0-2.6-1.1-2.6-2.6v-16.4Z"/>
  <path class="st0" d="M208.3,220.3h16.4c2.5,0,4.6-2.1,4.6-4.6v-16.4c0-2.5-2.1-4.6-4.6-4.6h-16.4c-2.5,0-4.6,2.1-4.6,4.6v16.4c0,2.5,2.1,4.6,4.6,4.6ZM205.8,199.3c0-1.4,1.1-2.6,2.6-2.6h16.4c1.4,0,2.6,1.1,2.6,2.6v16.4c0,1.4-1.1,2.6-2.6,2.6h-16.4c-1.4,0-2.6-1.1-2.6-2.6v-16.4Z"/>
  <path class="st0" d="M232.6,199.3v16.4c0,2.5,2.1,4.6,4.6,4.6h16.4c2.5,0,4.6-2.1,4.6-4.6v-16.4c0-2.5-2.1-4.6-4.6-4.6h-16.4c-2.5,0-4.6,2.1-4.6,4.6ZM256.2,199.3v16.4c0,1.4-1.1,2.6-2.6,2.6h-16.4c-1.4,0-2.6-1.1-2.6-2.6v-16.4c0-1.4,1.1-2.6,2.6-2.6h16.4c1.4,0,2.6,1.1,2.6,2.6Z"/>
  <path class="st0" d="M266.1,220.3h16.4c2.5,0,4.6-2.1,4.6-4.6v-16.4c0-2.5-2.1-4.6-4.6-4.6h-16.4c-2.5,0-4.6,2.1-4.6,4.6v16.4c0,2.5,2.1,4.6,4.6,4.6ZM263.5,199.3c0-1.4,1.1-2.6,2.6-2.6h16.4c1.4,0,2.6,1.1,2.6,2.6v16.4c0,1.4-1.1,2.6-2.6,2.6h-16.4c-1.4,0-2.6-1.1-2.6-2.6v-16.4Z"/>
  <path class="st0" d="M295,220.3h16.4c2.5,0,4.6-2.1,4.6-4.6v-16.4c0-2.5-2.1-4.6-4.6-4.6h-16.4c-2.5,0-4.6,2.1-4.6,4.6v16.4c0,2.5,2.1,4.6,4.6,4.6ZM292.4,199.3c0-1.4,1.1-2.6,2.6-2.6h16.4c1.4,0,2.6,1.1,2.6,2.6v16.4c0,1.4-1.1,2.6-2.6,2.6h-16.4c-1.4,0-2.6-1.1-2.6-2.6v-16.4Z"/>
  <path class="st0" d="M340.3,194.7h-16.4c-2.5,0-4.6,2.1-4.6,4.6v16.4c0,2.5,2.1,4.6,4.6,4.6h16.4c2.5,0,4.6-2.1,4.6-4.6v-16.4c0-2.5-2.1-4.6-4.6-4.6ZM342.9,215.7c0,1.4-1.1,2.6-2.6,2.6h-16.4c-1.4,0-2.6-1.1-2.6-2.6v-16.4c0-1.4,1.1-2.6,2.6-2.6h16.4c1.4,0,2.6,1.1,2.6,2.6v16.4Z"/>
  <path class="st0" d="M369.2,194.7h-16.4c-2.5,0-4.6,2.1-4.6,4.6v16.4c0,2.5,2.1,4.6,4.6,4.6h16.4c2.5,0,4.6-2.1,4.6-4.6v-16.4c0-2.5-2.1-4.6-4.6-4.6ZM371.8,215.7c0,1.4-1.1,2.6-2.6,2.6h-16.4c-1.4,0-2.6-1.1-2.6-2.6v-16.4c0-1.4,1.1-2.6,2.6-2.6h16.4c1.4,0,2.6,1.1,2.6,2.6v16.4Z"/>
  <path class="st0" d="M398.1,194.7h-16.4c-2.5,0-4.6,2.1-4.6,4.6v16.4c0,2.5,2.1,4.6,4.6,4.6h16.4c2.5,0,4.6-2.1,4.6-4.6v-16.4c0-2.5-2.1-4.6-4.6-4.6ZM400.7,215.7c0,1.4-1.1,2.6-2.6,2.6h-16.4c-1.4,0-2.6-1.1-2.6-2.6v-16.4c0-1.4,1.1-2.6,2.6-2.6h16.4c1.4,0,2.6,1.1,2.6,2.6v16.4Z"/>
  <path class="st0" d="M410.6,220.3h16.4c2.5,0,4.6-2.1,4.6-4.6v-16.4c0-2.5-2.1-4.6-4.6-4.6h-16.4c-2.5,0-4.6,2.1-4.6,4.6v16.4c0,2.5,2.1,4.6,4.6,4.6ZM408,199.3c0-1.4,1.1-2.6,2.6-2.6h16.4c1.4,0,2.6,1.1,2.6,2.6v16.4c0,1.4-1.1,2.6-2.6,2.6h-16.4c-1.4,0-2.6-1.1-2.6-2.6v-16.4Z"/>
  <path class="st0" d="M502.2,165.7h-1v142.3h46v-142.3h-45ZM545.2,306h-42v-138.3h42v138.3Z"/>
  <path class="st0" d="M543.9,195.2h1v-27.4h-41.4v27.4h40.4ZM505.5,169.8h37.4v23.4h-37.4v-23.4Z"/>
  <path class="st0" d="M543.9,222.8h1v-27.5h-41.4v27.5h40.4ZM505.5,197.4h37.4v23.5h-37.4v-23.5Z"/>
  <path class="st0" d="M543.9,250.5h1v-27.5h-41.4v27.5h40.4ZM505.5,225h37.4v23.5h-37.4v-23.5Z"/>
  <path class="st0" d="M543.9,278.1h1v-27.5h-41.4v27.5h40.4ZM505.5,252.6h37.4v23.5h-37.4v-23.5Z"/>
  <path class="st0" d="M543.9,305.7h1v-27.5h-41.4v27.5h40.4ZM505.5,280.2h37.4v23.5h-37.4v-23.5Z"/>
</svg>