<?xml version="1.0" encoding="UTF-8"?>
<svg id="Layer_3" xmlns="http://www.w3.org/2000/svg" version="1.1" xmlns:cc="http://creativecommons.org/ns#" xmlns:dc="http://purl.org/dc/elements/1.1/" xmlns:rdf="http://www.w3.org/1999/02/22-rdf-syntax-ns#" xmlns:x="http://ns.adobe.com/Extensibility/1.0/" viewBox="0 0 598.2 350.3">
  <!-- Generator: Adobe Illustrator 29.5.1, SVG Export Plug-In . SVG Version: 2.1.0 Build 141)  -->
  <defs>
    <style>
      .st0 {
        fill: #fff;
      }
    </style>
  </defs>
  <g id="Element_10">
    <g>
      <path class="st0" d="M190.3,345.1l-91.1-.2v-110.9l91.1.2v110.9ZM102.2,342l85.1.2v-104.9l-85.1-.2v104.9Z"/>
      <path class="st0" d="M192.1,324.7l-4.8-.3v-87.2l-85.8-.2v-29l90.6,5.7v111ZM104.5,234l84.6.2v-17.6l-84.6-5.3v22.8Z"/>
      <path class="st0" d="M197.7,305.8l-8.5-1.1v-88.1l-80.4-5.1v-28.5l88.9,11.8v111ZM192.1,302l2.5.3v-104.9l-82.9-11v22.3l80.4,5.1v88.3Z"/>
      <path class="st0" d="M207.3,287l-12.6-2.6v-87l-73.5-9.8v-29.2l86.1,17.5v111ZM197.7,282l6.6,1.4v-104.9l-80.1-16.3v22.9l73.5,9.8v87.1Z"/>
      <path class="st0" d="M221.2,267.8l-16.9-4.7v-84.7l-65.6-13.4v-31.1l82.5,22.8v111.1ZM207.3,260.9l10.9,3v-104.8l-76.5-21.1v24.7l65.6,13.4v84.9Z"/>
      <path class="st0" d="M237.5,250.7l-19.4-7v-84.6l-58.3-16.1v-31.5l77.7,28.1v111.1ZM221.2,241.6l13.4,4.8v-104.8l-71.7-25.9v24.9l58.3,16.1v84.8Z"/>
      <path class="st0" d="M256.9,235.2l-22.4-10.4v-83.1l-49.3-17.8v-33.2l71.7,33.3v111.3ZM237.5,222.9l16.4,7.6v-104.6l-65.7-30.5v26.4l49.3,17.8v83.3Z"/>
      <path class="st0" d="M280.8,220.1l-26.9-15.4v-78.9l-38.7-17.9v-36.7l65.5,37.6v111.4ZM256.9,203l20.9,12v-104.5l-59.5-34.1v29.6l38.7,17.9v79.1Z"/>
      <path class="st0" d="M307,206.8l-29.2-21v-75.3l-29-16.6v-40.5l58.2,41.8v111.6ZM280.8,184.3l23.2,16.7v-104.3l-52.2-37.5v32.9l29,16.6v75.5Z"/>
      <path class="st0" d="M334.2,196.1l-30.2-27.9v-71.5l-19.6-14.1v-44.5l49.8,45.9v112ZM307,166.9l24.2,22.3v-103.9l-43.8-40.4v36.1l19.6,14.1v71.8Z"/>
      <path class="st0" d="M364.2,187.4l-33-39.8v-62.2l-8-7.4V25.2l41,49.5v112.6ZM334.2,146.5l27,32.6v-103.2l-35-42.3v43.1l8,7.4v62.4Z"/>
      <path class="st0" d="M397.7,180.6l-32.3-52.9V14l32.3,52.9v113.7ZM368.4,126.8l26.3,43.1v-102.2l-26.3-43.1v102.2Z"/>
      <path class="st0" d="M430.4,177.5l-22.8-57.1V4.3l22.8,57.1v116.1ZM410.7,119.8l16.8,42.1V62l-16.8-42.1v99.8Z"/>
      <path class="st0" d="M460.4,166.8l-9.6-50.7V8l3-.3,9.6,50.7v108.1l-3,.3ZM453.9,115.8l6.5,34.7V58.7l-6.5-34.7v91.8Z"/>
      <polygon class="st0" points="496 165.5 495.7 114.6 495.7 6.6 498.7 6.6 499 57.5 499 165.5 496 165.5"/>
    </g>
  </g>
</svg>