<?xml version="1.0" encoding="UTF-8"?>
<svg id="Layer_4" xmlns="http://www.w3.org/2000/svg" version="1.1" viewBox="0 0 598.2 350.3">
  <!-- Generator: Adobe Illustrator 29.1.0, SVG Export Plug-In . SVG Version: 2.1.0 Build 142)  -->
  <defs>
    <style>
      .st0 {
        fill: #f4f4f4;
      }
    </style>
  </defs>
  <path class="st0" d="M474.8,241.6h-8.5c.5-.2.9-.7.9-1.3v-17.4c0-.8-.6-1.4-1.4-1.4h-18.3c-.3,0-.6.1-.8.3-.2-.2-.5-.3-.8-.3h-18.3c-.3,0-.6.1-.8.3-.2-.2-.5-.3-.8-.3h-15c.5-.2.9-.7.9-1.3h0v-17.4c0-.8-.6-1.4-1.4-1.4h-18.3c-.3,0-.6.1-.8.3-.2-.2-.5-.3-.8-.3h-18.3c-.3,0-.6.1-.8.3-.2-.2-.5-.3-.8-.3h-18.3c-.3,0-.6.1-.8.3-.2-.2-.5-.3-.8-.3h-18.3c-.3,0-.6.1-.8.3-.2-.2-.5-.3-.8-.3h-18.3c-.3,0-.6,0-.8.3-.2-.2-.5-.3-.8-.3h-18.3c-.3,0-.6.1-.8.3-.2-.2-.5-.3-.8-.3h-18.3c-.3,0-.6.1-.8.3-.2-.2-.5-.3-.8-.3h-18.3c-.3,0-.6,0-.8.3-.2-.2-.5-.3-.8-.3h-18.3c-.3,0-.6.1-.8.3-.2-.2-.5-.3-.8-.3h-18.3c-.3,0-.6.1-.8.3-.2-.2-.5-.3-.8-.3h-18.3c-.8,0-1.4.6-1.4,1.4v17.4c0,.6.4,1.1.9,1.3h-3.8c-.3,0-.6.1-.8.3-.2-.2-.5-.3-.8-.3h-18.3c-.3,0-.6,0-.8.3-.2-.2-.5-.3-.8-.3h-18.3c-.8,0-1.4.6-1.4,1.4v17.4c0,.6.4,1.2,1,1.3-.6.2-1,.7-1,1.3v17.4c0,.6.4,1.1.9,1.3h-5.5c-.8,0-1.4.6-1.4,1.4v17.4c0,.6.4,1.2,1,1.3-.6.2-1,.7-1,1.3v17.4c0,.8.6,1.4,1.4,1.4h18.3c.3,0,.6-.1.8-.3.2.2.5.3.8.3h0s28.1,0,28.1,0c.3,0,.6-.1.8-.3.2.2.5.3.8.3h0s18.3,0,18.3,0c.3,0,.6-.1.8-.3,0,0,.2.1.3.2-.8,0-1.4.6-1.4,1.4v17.4c0,.8.6,1.4,1.4,1.4h159.2c.8,0,1.4-.6,1.4-1.4v-17.4c0-.8-.6-1.4-1.4-1.4h-.2c0,0,.2,0,.2-.1.2.1.5.2.8.2h0s18.3,0,18.3,0c.3,0,.6-.1.8-.3.2.2.5.3.8.3h0s27.4,0,27.4,0c.3,0,.6-.1.8-.3.2.2.5.3.8.3h18.3c.3,0,.6,0,.8-.3.2.2.5.3.8.3h18.3c.8,0,1.4-.6,1.4-1.4h0v-17.4c0-.6-.4-1.2-1-1.3.6-.2,1-.7,1-1.3h0v-17.4c0-.6-.4-1.1-.9-1.3h15.7c.8,0,1.4-.6,1.4-1.4h0v-17.4c0-.8-.6-1.4-1.4-1.4ZM471,255c0,.3-.2.5-.5.5h-9.8c-.3,0-.5-.2-.5-.5v-9.3c0-.3.2-.5.5-.5h9.8c.3,0,.5.2.5.5v9.3s0,0,0,0ZM454.8,285.8v9.3c0,.3-.2.5-.5.5h-9.8c-.3,0-.5-.2-.5-.5v-9.3c0-.3.2-.5.5-.5h9.8c.3,0,.5.2.5.5ZM439.4,282c0,0-.2-.1-.3-.2h.6c-.1,0-.2,0-.3.2ZM434.9,285.8v9.3c0,.3-.2.5-.5.5h-9.8c-.3,0-.5-.2-.5-.5v-9.3c0-.3.2-.5.5-.5h9.8c.3,0,.5.2.5.5ZM414.9,285.8v9.3c0,.3-.2.5-.5.5h-18.8c-.3,0-.5-.2-.5-.5v-9.3c0-.3.2-.5.5-.5h18.8c.3,0,.5.2.5.5ZM390.5,282c0,0-.2-.1-.3-.2h.6c-.1,0-.2,0-.3.2ZM385.9,285.8v9.3c0,.3-.2.5-.5.5h-9.8c-.3,0-.5-.2-.5-.5v-9.3c0-.3.2-.5.5-.5h9.8c.3,0,.5.2.5.5ZM370.6,281.9c0,0-.2,0-.2-.1h.5c0,0-.2,0-.2.1ZM350.7,282c0,0-.2-.1-.3-.2h.6c-.1,0-.2,0-.3.2ZM366.8,305.8v9.3c0,.3-.2.5-.5.5h-150.7c-.3,0-.5-.2-.5-.5v-9.3c0-.3.2-.5.5-.5h150.7c.3,0,.5.2.5.5ZM206.5,285.8v9.3c0,.3-.2.5-.5.5h-9.8c-.3,0-.5-.2-.5-.5v-9.3c0-.3.2-.5.5-.5h9.8c.3,0,.5.2.5.5ZM191.1,282c0,0-.2-.1-.3-.2h.6c-.1,0-.2,0-.3.2ZM186.5,285.8v9.3c0,.3-.2.5-.5.5h-19.6c-.3,0-.5-.2-.5-.5v-9.3c0-.3.2-.5.5-.5h19.6c.3,0,.5.2.5.5ZM161.3,282c-.1,0-.3-.2-.5-.2.2,0,.3-.1.5-.2.1,0,.3.2.5.2-.2,0-.3.1-.5.2ZM156.8,285.8v9.3c0,.3-.2.5-.5.5h-9.8c-.3,0-.5-.2-.5-.5v-9.3c0-.3.2-.5.5-.5h9.8c.3,0,.5.2.5.5ZM156.8,265.7v9.3c0,.3-.2.5-.5.5h-9.8c-.3,0-.5-.2-.5-.5v-9.3c0-.3.2-.5.5-.5h9.8c.3,0,.5.2.5.5ZM167.4,241.5c0,0,.2.1.3.2h-.6c.1,0,.2,0,.3-.2ZM187.3,241.5c0,0,.2.1.3.2h-.6c.1,0,.2,0,.3-.2ZM202.7,225.7v9.3c0,.3-.2.5-.5.5h-9.8c-.3,0-.5-.2-.5-.5v-9.3c0-.3.2-.5.5-.5h9.8c.3,0,.5.2.5.5ZM211.6,221.4c0,0,.2.1.3.2h-.6c.1,0,.2,0,.3-.2ZM231.6,221.4c0,0,.2.1.3.2h-.6c.1,0,.2,0,.3-.2ZM251.5,221.4c0,0,.2.1.3.2h-.6c.1,0,.2,0,.3-.2ZM271.5,221.4c0,0,.2.1.3.2h-.6c.1,0,.2,0,.3-.2ZM291.4,221.4c0,0,.2.1.3.2h-.6c.1,0,.2,0,.3-.2ZM311.4,221.4c0,0,.2.1.3.2h-.6c.1,0,.2,0,.3-.2ZM331.3,221.4c0,0,.2.1.3.2h-.6c.1,0,.2,0,.3-.2ZM351.3,221.4c0,0,.2.1.3.2h-.6c.1,0,.2,0,.3-.2ZM371.2,221.4c0,0,.2.1.3.2h-.6c.1,0,.2,0,.3-.2ZM391.2,221.4c0,0,.2.1.3.2h-.6c.1,0,.2,0,.3-.2ZM426.6,241.5c0,0,.2.1.3.2h-.6c.1,0,.2,0,.3-.2ZM446.6,241.5c0,0,.2.1.3.2h-.6c.1,0,.2,0,.3-.2ZM454.8,265.7v9.3c0,.3-.2.5-.5.5h-28.6c-.3,0-.5-.2-.5-.5v-9.3c0-.3.2-.5.5-.5h28.6c.3,0,.5.2.5.5ZM420.6,261.9c0,0-.2-.1-.3-.2h.6c-.1,0-.2,0-.3.2ZM330.7,282c0,0-.2-.1-.3-.2h.6c-.1,0-.2,0-.3.2ZM171.8,255c0,.3-.2.5-.5.5h-18.8c-.3,0-.5-.2-.5-.5v-9.3c0-.3.2-.5.5-.5h18.8c.3,0,.5.2.5.5v9.3s0,0,0,0ZM176.4,261.5c0,0,.2.1.3.2h-.6c.1,0,.2,0,.3-.2ZM417.1,259.8v-16.1h2.2c-.7.5-1.1,1.2-1.1,2.1v9.3c0,1.4,1.1,2.5,2.5,2.5h9.8c1.4,0,2.5-1.1,2.5-2.5h0v-9.3c0-.9-.4-1.6-1.1-2.1h2.2v16.1h-17.1ZM431.1,245.7v9.3c0,.3-.2.5-.5.5h-9.8c-.3,0-.5-.2-.5-.5v-9.3c0-.3.2-.5.5-.5h9.8c.3,0,.5.2.5.5ZM416,261.7h-.6c.1,0,.2,0,.3-.2,0,0,.2.1.3.2ZM416,265.7v9.3c0,.3-.2.5-.5.5h-9.8c-.3,0-.5-.2-.5-.5v-9.3c0-.3.2-.5.5-.5h9.8c.3,0,.5.2.5.5ZM400.6,261.9c0,0-.2-.1-.3-.2h.6c-.1,0-.2,0-.3.2ZM396.1,265.7v9.3c0,.3-.2.5-.5.5h-9.8c-.3,0-.5-.2-.5-.5v-9.3c0-.3.2-.5.5-.5h9.8c.3,0,.5.2.5.5ZM380.7,261.9c0,0-.2-.1-.3-.2h.6c-.1,0-.2,0-.3.2ZM376.1,265.7v9.3c0,.3-.2.5-.5.5h-9.8c-.3,0-.5-.2-.5-.5v-9.3c0-.3.2-.5.5-.5h9.8c.3,0,.5.2.5.5ZM360.8,261.9c0,0-.2,0-.2-.1h.5c0,0-.2,0-.2.1ZM356.3,265.7v9.3c0,.3-.2.5-.5.5h-9.8c-.3,0-.5-.2-.5-.5v-9.3c0-.3.2-.5.5-.5h9.8c.3,0,.5.2.5.5ZM310.8,282c0,0-.2-.1-.3-.2h.6c-.1,0-.2,0-.3.2ZM216.6,265.7v9.3c0,.3-.2.5-.5.5h-9.8c-.3,0-.5-.2-.5-.5v-9.3c0-.3.2-.5.5-.5h9.8c.3,0,.5.2.5.5ZM201.2,261.9c0,0-.2-.1-.3-.2h.6c-.1,0-.2,0-.3.2ZM196.7,265.7v9.3c0,.3-.2.5-.5.5h-9.8c-.3,0-.5-.2-.5-.5v-9.3c0-.3.2-.5.5-.5h9.8c.3,0,.5.2.5.5ZM181.3,261.9c0,0-.2-.1-.3-.2h.6c-.1,0-.2,0-.3.2ZM176.7,265.7v9.3c0,.3-.2.5-.5.5h-9.8c-.3,0-.5-.2-.5-.5v-9.3c0-.3.2-.5.5-.5h9.8c.3,0,.5.2.5.5ZM191.8,245.7v9.3c0,.3-.2.5-.5.5h-9.8c-.3,0-.5-.2-.5-.5v-9.3c0-.3.2-.5.5-.5h9.8c.3,0,.5.2.5.5ZM181.5,257.5h9.8c1.4,0,2.5-1.1,2.5-2.5v-9.3c0-.9-.4-1.6-1.1-2.1h2.2v16.1h-17.1v-16.1h2.2c-.7.5-1.1,1.2-1.1,2.1v9.3c0,1.4,1.1,2.5,2.5,2.5ZM211.7,255c0,.3-.2.5-.5.5h-9.8c-.3,0-.5-.2-.5-.5v-9.3c0-.3.2-.5.5-.5h9.8c.3,0,.5.2.5.5v9.3s0,0,0,0ZM201.4,257.5h9.8c1.4,0,2.5-1.1,2.5-2.5v-9.3c0-.9-.4-1.6-1.1-2.1h2.2v16.1h-17.1v-16.1h2.2c-.7.5-1.1,1.2-1.1,2.1v9.3c0,1.4,1.1,2.5,2.5,2.5ZM411.1,245.7v9.3c0,.3-.2.5-.5.5h-9.8c-.3,0-.5-.2-.5-.5v-9.3c0-.3.2-.5.5-.5h9.8c.3,0,.5.2.5.5ZM400.8,257.5h9.8c1.4,0,2.5-1.1,2.5-2.5h0v-9.3c0-.9-.4-1.6-1.1-2.1h2.2s0,16.1,0,16.1h-17.1v-16.1h2.2c-.7.5-1.1,1.2-1.1,2.1v9.3c0,1.4,1.1,2.5,2.5,2.5ZM336.3,265.7v9.3c0,.3-.2.5-.5.5h-9.8c-.3,0-.5-.2-.5-.5v-9.3c0-.3.2-.5.5-.5h9.8c.3,0,.5.2.5.5ZM236.6,265.7v9.3c0,.3-.2.5-.5.5h-9.8c-.3,0-.5-.2-.5-.5v-9.3c0-.3.2-.5.5-.5h9.8c.3,0,.5.2.5.5ZM216.3,261.5c0,0,.2.1.3.2h-.6c.1,0,.2,0,.3-.2ZM217.7,259.8v-16.1h2.2c-.7.5-1.1,1.2-1.1,2.1v9.3c0,1.4,1.1,2.5,2.5,2.5h9.8c1.4,0,2.5-1.1,2.5-2.5h0v-9.3c0-.9-.4-1.6-1.1-2.1h2.2v16.1h-17.1ZM231.7,245.7v9.3c0,.3-.2.5-.5.5h-9.8c-.3,0-.5-.2-.5-.5v-9.3c0-.3.2-.5.5-.5h9.8c.3,0,.5.2.5.5ZM251.6,255c0,.3-.2.5-.5.5h-9.8c-.3,0-.5-.2-.5-.5v-9.3c0-.3.2-.5.5-.5h9.8c.3,0,.5.2.5.5v9.3s0,0,0,0ZM241.3,257.5h9.8c1.4,0,2.5-1.1,2.5-2.5v-9.3c0-.9-.4-1.6-1.1-2.1h2.2v16.1h-17.1v-16.1h2.2c-.7.5-1.1,1.2-1.1,2.1v9.3c0,1.4,1.1,2.5,2.5,2.5ZM271.6,245.7v9.3c0,.3-.2.5-.5.5h-9.8c-.3,0-.5-.2-.5-.5v-9.3c0-.3.2-.5.5-.5h9.8c.3,0,.5.2.5.5ZM261.3,257.5h9.8c1.4,0,2.5-1.1,2.5-2.5v-9.3c0-.9-.4-1.6-1.1-2.1h2.2v16.1h-17.1v-16.1h2.2c-.7.5-1.1,1.2-1.1,2.1v9.3c0,1.4,1.1,2.5,2.5,2.5ZM291.5,255c0,.3-.2.5-.5.5h-9.8c-.3,0-.5-.2-.5-.5v-9.3c0-.3.2-.5.5-.5h9.8c.3,0,.5.2.5.5v9.3s0,0,0,0ZM281.2,257.5h9.8c1.4,0,2.5-1.1,2.5-2.5v-9.3c0-.9-.4-1.6-1.1-2.1h2.2v16.1h-17.1v-16.1h2.2c-.7.5-1.1,1.2-1.1,2.1v9.3c0,1.4,1.1,2.5,2.5,2.5ZM311.5,245.7v9.3c0,.3-.2.5-.5.5h-9.8c-.3,0-.5-.2-.5-.5v-9.3c0-.3.2-.5.5-.5h9.8c.3,0,.5.2.5.5ZM301.2,257.5h9.8c1.4,0,2.5-1.1,2.5-2.5v-9.3c0-.9-.4-1.6-1.1-2.1h2.2v16.1h-17.1v-16.1h2.2c-.7.5-1.1,1.2-1.1,2.1v9.3c0,1.4,1.1,2.5,2.5,2.5ZM331.4,245.7v9.3c0,.3-.2.5-.5.5h-9.8c-.3,0-.5-.2-.5-.5v-9.3c0-.3.2-.5.5-.5h9.8c.3,0,.5.2.5.5ZM321.1,257.5h9.8c1.4,0,2.5-1.1,2.5-2.5v-9.3c0-.9-.4-1.6-1.1-2.1h2.2v16.1h-17.1s0-16.1,0-16.1h2.2c-.7.5-1.1,1.2-1.1,2.1v9.3c0,1.4,1.1,2.5,2.5,2.5ZM336.3,261.7h-.6c.1,0,.2,0,.3-.2,0,0,.2.1.3.2ZM316.4,265.7v9.3c0,.3-.2.5-.5.5h-9.8c-.3,0-.5-.2-.5-.5v-9.3c0-.3.2-.5.5-.5h9.8c.3,0,.5.2.5.5ZM296.4,265.7v9.3c0,.3-.2.5-.5.5h-9.8c-.3,0-.5-.2-.5-.5v-9.3c0-.3.2-.5.5-.5h9.8c.3,0,.5.2.5.5ZM276.5,265.7v9.3c0,.3-.2.5-.5.5h-9.8c-.3,0-.5-.2-.5-.5v-9.3c0-.3.2-.5.5-.5h9.8c.3,0,.5.2.5.5ZM256.5,265.7v9.3c0,.3-.2.5-.5.5h-9.8c-.3,0-.5-.2-.5-.5v-9.3c0-.3.2-.5.5-.5h9.8c.3,0,.5.2.5.5ZM261.1,281.5c0,0,.2.1.3.2h-.6c.1,0,.2,0,.3-.2ZM261.1,261.9c0,0-.2-.1-.3-.2h.6c-.1,0-.2,0-.3.2ZM281,281.5c0,0,.2.1.3.2h-.6c.1,0,.2,0,.3-.2ZM281,261.9c0,0-.2-.1-.3-.2h.6c-.1,0-.2,0-.3.2ZM301,281.5c0,0,.2.1.3.2h-.6c.1,0,.2,0,.3-.2ZM301,261.9c0,0-.2-.1-.3-.2h.6c-.1,0-.2,0-.3.2ZM316.3,261.7h-.6c.1,0,.2,0,.3-.2,0,0,.2.1.3.2ZM296.4,261.7h-.6c.1,0,.2,0,.3-.2,0,0,.2.1.3.2ZM276.4,261.7h-.6c.1,0,.2,0,.3-.2,0,0,.2.1.3.2ZM256.5,261.7h-.6c.1,0,.2,0,.3-.2,0,0,.2.1.3.2ZM236.5,261.7h-.6c.1,0,.2,0,.3-.2,0,0,.2.1.3.2ZM241.4,261.8c-.1,0-.2,0-.3.2,0,0-.2-.1-.3-.2h.6ZM241.1,281.5c0,0,.2.1.3.2h-.6c.1,0,.2,0,.3-.2ZM242.6,279.8v-16.1h2.2c-.7.5-1.1,1.2-1.1,2.1v9.3c0,1.4,1.1,2.5,2.5,2.5h9.8c1.4,0,2.5-1.1,2.5-2.5v-9.3c0-.9-.4-1.6-1.1-2.1h2.2v16.1h-17.1ZM266.3,285.8v9.3c0,.3-.2.5-.5.5h-9.8c-.3,0-.5-.2-.5-.5v-9.3c0-.3.2-.5.5-.5h9.8c.3,0,.5.2.5.5ZM252.4,283.7h2.2c-.7.5-1.1,1.2-1.1,2.1v9.3c0,1.4,1.1,2.5,2.5,2.5h9.8c1.4,0,2.5-1.1,2.5-2.5v-9.3c0-.9-.4-1.6-1.1-2.1h2.2v16.1h-17.1v-16.1ZM262.5,279.8v-16.1h2.2c-.7.5-1.1,1.2-1.1,2.1v9.3c0,1.4,1.1,2.5,2.5,2.5h9.8c1.4,0,2.5-1.1,2.5-2.5v-9.3c0-.9-.4-1.6-1.1-2.1h2.2v16.1h-17.1ZM286.3,285.8v9.3c0,.3-.2.5-.5.5h-9.8c-.3,0-.5-.2-.5-.5v-9.3c0-.3.2-.5.5-.5h9.8c.3,0,.5.2.5.5ZM272.3,283.7h2.2c-.7.5-1.1,1.2-1.1,2.1v9.3c0,1.4,1.1,2.5,2.5,2.5h9.8c1.4,0,2.5-1.1,2.5-2.5v-9.3c0-.9-.4-1.6-1.1-2.1h2.2v16.1h-17.1v-16.1ZM282.5,279.8v-16.1h2.2c-.7.5-1.1,1.2-1.1,2.1v9.3c0,1.4,1.1,2.5,2.5,2.5h9.8c1.4,0,2.5-1.1,2.5-2.5v-9.3c0-.9-.4-1.6-1.1-2.1h2.2v16.1h-17.1ZM306.2,285.8v9.3c0,.3-.2.5-.5.5h-9.8c-.3,0-.5-.2-.5-.5v-9.3c0-.3.2-.5.5-.5h9.8c.3,0,.5.2.5.5ZM292.3,283.7h2.2c-.7.5-1.1,1.2-1.1,2.1v9.3c0,1.4,1.1,2.5,2.5,2.5h9.8c1.4,0,2.5-1.1,2.5-2.5v-9.3c0-.9-.4-1.6-1.1-2.1h2.2v16.1h-17.1v-16.1ZM302.4,279.8v-16.1h2.2c-.7.5-1.1,1.2-1.1,2.1v9.3c0,1.4,1.1,2.5,2.5,2.5h9.8c1.4,0,2.5-1.1,2.5-2.5v-9.3c0-.9-.4-1.6-1.1-2.1h2.2v16.1h-17.1ZM320.9,281.5c0,0,.2.1.3.2h-.6c.1,0,.2,0,.3-.2ZM320.9,261.9c0,0-.2-.1-.3-.2h.6c-.1,0-.2,0-.3.2ZM337.4,259.8v-16.1h2.2c-.7.5-1.1,1.2-1.1,2.1v9.3c0,1.4,1.1,2.5,2.5,2.5h9.8c1.4,0,2.5-1.1,2.5-2.5h0v-9.3c0-.9-.4-1.6-1.1-2.1h2.2v16.1h-17.1ZM351.4,255c0,.3-.2.5-.5.5h-9.8c-.3,0-.5-.2-.5-.5v-9.3c0-.3.2-.5.5-.5h9.8c.3,0,.5.2.5.5v9.3s0,0,0,0ZM356,261.5c0,0,.2.1.3.2h-.6c.1,0,.2,0,.3-.2ZM357.4,259.8v-16.1h2.2c-.7.5-1.1,1.2-1.1,2.1v9.3c0,1.4,1.1,2.5,2.5,2.5h9.8c1.4,0,2.5-1.1,2.5-2.5v-9.3c0-.9-.4-1.6-1.1-2.1h2.2v16.1s-17.1,0-17.1,0ZM371.3,255c0,.3-.2.5-.5.5h-9.8c-.3,0-.5-.2-.5-.5v-9.3c0-.3.2-.5.5-.5h9.8c.3,0,.5.2.5.5v9.3s0,0,0,0ZM375.9,261.5c0,0,.2,0,.2.1h-.5c0,0,.2,0,.2-.1ZM377.2,259.8v-16.1h2.2c-.7.5-1.1,1.2-1.1,2.1v9.3c0,1.4,1.1,2.5,2.5,2.5h9.8c1.4,0,2.5-1.1,2.5-2.5h0v-9.3c0-.9-.4-1.6-1.1-2.1h2.2v16.1h-17.1ZM391.2,255c0,.3-.2.5-.5.5h-9.8c-.3,0-.5-.2-.5-.5v-9.3c0-.3.2-.5.5-.5h9.8c.3,0,.5.2.5.5v9.3s0,0,0,0ZM395.8,261.5c0,0,.2.1.3.2h-.6c.1,0,.2,0,.3-.2ZM395.8,241.9c0,0-.2-.1-.3-.2h.6c-.1,0-.2,0-.3.2ZM375.9,241.9c0,0-.2,0-.2-.1h.5c0,0-.2,0-.2.1ZM356,241.9c0,0-.2-.1-.3-.2h.6c-.1,0-.2,0-.3.2ZM336,241.9c0,0-.2-.1-.3-.2h.6c-.1,0-.2,0-.3.2ZM316.1,241.9c0,0-.2-.1-.3-.2h.6c-.1,0-.2,0-.3.2ZM296.1,241.9c0,0-.2-.1-.3-.2h.6c-.1,0-.2,0-.3.2ZM276.2,241.9c0,0-.2-.1-.3-.2h.6c-.1,0-.2,0-.3.2ZM256.2,241.9c0,0-.2-.1-.3-.2h.6c-.1,0-.2,0-.3.2ZM236.3,241.9c0,0-.2-.1-.3-.2h.6c-.1,0-.2,0-.3.2ZM216.3,241.9c0,0-.2-.1-.3-.2h.6c-.1,0-.2,0-.3.2ZM221.5,261.8c-.1,0-.2,0-.3.2,0,0-.2-.1-.3-.2h.6ZM221.2,281.5c0,0,.2.1.3.2h-.6c.1,0,.2,0,.3-.2ZM222.6,279.8v-16.1h2.2c-.7.5-1.1,1.2-1.1,2.1v9.3c0,1.4,1.1,2.5,2.5,2.5h9.8c1.4,0,2.5-1.1,2.5-2.5v-9.3c0-.9-.4-1.6-1.1-2.1h2.2v16.1h-17.1ZM246.4,285.8v9.3c0,.3-.2.5-.5.5h-9.8c-.3,0-.5-.2-.5-.5v-9.3c0-.3.2-.5.5-.5h9.8c.3,0,.5.2.5.5ZM232.4,283.7h2.2c-.7.5-1.1,1.2-1.1,2.1v9.3c0,1.4,1.1,2.5,2.5,2.5h9.8c1.4,0,2.5-1.1,2.5-2.5v-9.3c0-.9-.4-1.6-1.1-2.1h2.2v16.1h-17.1v-16.1ZM250.6,281.8h.6c-.1,0-.2,0-.3.2,0,0-.2-.1-.3-.2ZM270.6,281.8h.6c-.1,0-.2,0-.3.2,0,0-.2-.1-.3-.2ZM290.5,281.8h.6c-.1,0-.2,0-.3.2,0,0-.2-.1-.3-.2ZM326.2,285.8v9.3c0,.3-.2.5-.5.5h-9.8c-.3,0-.5-.2-.5-.5v-9.3c0-.3.2-.5.5-.5h9.8c.3,0,.5.2.5.5ZM312.2,283.7h2.2c-.7.5-1.1,1.2-1.1,2.1v9.3c0,1.4,1.1,2.5,2.5,2.5h9.8c1.4,0,2.5-1.1,2.5-2.5v-9.3c0-.9-.4-1.6-1.1-2.1h2.2v16.1s-17.1,0-17.1,0v-16.1ZM322.4,279.8v-16.1h2.2c-.7.5-1.1,1.2-1.1,2.1v9.3c0,1.4,1.1,2.5,2.5,2.5h9.8c1.4,0,2.5-1.1,2.5-2.5v-9.3c0-.9-.4-1.6-1.1-2.1h2.2v16.1h-17.1ZM340.9,281.6c0,0,.2.1.3.2h-.6c.1,0,.2,0,.3-.2ZM340.9,261.9c0,0-.2-.1-.3-.2h.6c-.1,0-.2,0-.3.2ZM402.1,225.7v9.3c0,.3-.2.5-.5.5h-9.8c-.3,0-.5-.2-.5-.5v-9.3c0-.3.2-.5.5-.5h9.8c.3,0,.5.2.5.5ZM391.8,237.5h9.8c1.4,0,2.5-1.1,2.5-2.5v-9.3c0-.9-.4-1.6-1.1-2.1h2.2v16.1h-17.1v-16.1h2.2c-.7.5-1.1,1.2-1.1,2.1v9.3c0,1.4,1.1,2.5,2.5,2.5ZM387,241.6h-.6c.1,0,.2,0,.3-.2,0,0,.2.1.3.2ZM382.2,225.7v9.3c0,.3-.2.5-.5.5h-9.8c-.3,0-.5-.2-.5-.5v-9.3c0-.3.2-.5.5-.5h9.8c.3,0,.5.2.5.5ZM371.8,237.5h9.8c1.4,0,2.5-1.1,2.5-2.5v-9.3c0-.9-.4-1.6-1.1-2.1h2.2v16.1h-17.1v-16.1h2.2c-.7.5-1.1,1.2-1.1,2.1v9.3c0,1.4,1.1,2.5,2.5,2.5ZM367.1,241.6h-.5c0,0,.2,0,.2-.1,0,0,.2,0,.2.1ZM362.3,225.7v9.3c0,.3-.2.5-.5.5h-9.8c-.3,0-.5-.2-.5-.5v-9.3c0-.3.2-.5.5-.5h9.8c.3,0,.5.2.5.5ZM352,237.5h9.8c1.4,0,2.5-1.1,2.5-2.5v-9.3c0-.9-.4-1.6-1.1-2.1h2.2v16.1h-17.1v-16.1h2.2c-.7.5-1.1,1.2-1.1,2.1v9.3c0,1.4,1.1,2.5,2.5,2.5ZM347.2,241.6h-.6c.1,0,.2,0,.3-.2,0,0,.2.1.3.2ZM342.3,225.7v9.3c0,.3-.2.5-.5.5h-9.8c-.3,0-.5-.2-.5-.5v-9.3c0-.3.2-.5.5-.5h9.8c.3,0,.5.2.5.5ZM332,237.5h9.8c1.4,0,2.5-1.1,2.5-2.5v-9.3c0-.9-.4-1.6-1.1-2.1h2.2s0,16.1,0,16.1h0s-17.1,0-17.1,0v-16.1s2.2,0,2.2,0c-.7.5-1.1,1.2-1.1,2.1v9.3c0,1.4,1.1,2.5,2.5,2.5ZM327.3,241.6h-.6c.1,0,.2,0,.3-.2,0,0,.2.1.3.2ZM322.4,225.7v9.3c0,.3-.2.5-.5.5h-9.8c-.3,0-.5-.2-.5-.5v-9.3c0-.3.2-.5.5-.5h9.8c.3,0,.5.2.5.5ZM312.1,237.5h9.8c1.4,0,2.5-1.1,2.5-2.5v-9.3c0-.9-.4-1.6-1.1-2.1h2.2v16.1h-17.1v-16.1h2.2c-.7.5-1.1,1.2-1.1,2.1v9.3c0,1.4,1.1,2.5,2.5,2.5ZM307.3,241.6h-.6c.1,0,.2,0,.3-.2,0,0,.2.1.3.2ZM302.4,225.7v9.3c0,.3-.2.5-.5.5h-9.8c-.3,0-.5-.2-.5-.5v-9.3c0-.3.2-.5.5-.5h9.8c.3,0,.5.2.5.5ZM292.1,237.5h9.8c1.4,0,2.5-1.1,2.5-2.5v-9.3c0-.9-.4-1.6-1.1-2.1h2.2v16.1h-17.1v-16.1h2.2c-.7.5-1.1,1.2-1.1,2.1v9.3c0,1.4,1.1,2.5,2.5,2.5ZM287.4,241.6h-.6c.1,0,.2,0,.3-.2,0,0,.2.1.3.2ZM282.5,225.7v9.3c0,.3-.2.5-.5.5h-9.8c-.3,0-.5-.2-.5-.5v-9.3c0-.3.2-.5.5-.5h9.8c.3,0,.5.2.5.5ZM272.2,237.5h9.8c1.4,0,2.5-1.1,2.5-2.5v-9.3c0-.9-.4-1.6-1.1-2.1h2.2v16.1h-17.1v-16.1h2.2c-.7.5-1.1,1.2-1.1,2.1v9.3c0,1.4,1.1,2.5,2.5,2.5ZM267.4,241.6h-.6c.1,0,.2,0,.3-.2,0,0,.2.1.3.2ZM262.5,225.7v9.3c0,.3-.2.5-.5.5h-9.8c-.3,0-.5-.2-.5-.5v-9.3c0-.3.2-.5.5-.5h9.8c.3,0,.5.2.5.5ZM252.2,237.5h9.8c1.4,0,2.5-1.1,2.5-2.5v-9.3c0-.9-.4-1.6-1.1-2.1h2.2v16.1h-17.1v-16.1h2.2c-.7.5-1.1,1.2-1.1,2.1v9.3c0,1.4,1.1,2.5,2.5,2.5ZM247.5,241.6h-.6c.1,0,.2,0,.3-.2,0,0,.2.1.3.2ZM242.6,225.7v9.3c0,.3-.2.5-.5.5h-9.8c-.3,0-.5-.2-.5-.5v-9.3c0-.3.2-.5.5-.5h9.8c.3,0,.5.2.5.5ZM232.3,237.5h9.8c1.4,0,2.5-1.1,2.5-2.5v-9.3c0-.9-.4-1.6-1.1-2.1h2.2v16.1h-17.1v-16.1h2.2c-.7.5-1.1,1.2-1.1,2.1v9.3c0,1.4,1.1,2.5,2.5,2.5ZM227.5,241.6h-.6c.1,0,.2,0,.3-.2,0,0,.2.1.3.2ZM222.7,225.7v9.3c0,.3-.2.5-.5.5h-9.8c-.3,0-.5-.2-.5-.5v-9.3c0-.3.2-.5.5-.5h9.8c.3,0,.5.2.5.5ZM212.3,237.5h9.8c1.4,0,2.5-1.1,2.5-2.5v-9.3c0-.9-.4-1.6-1.1-2.1h2.2v16.1h-17.1v-16.1h2.2c-.7.5-1.1,1.2-1.1,2.1v9.3c0,1.4,1.1,2.5,2.5,2.5ZM196.7,261.7h-.6c.1,0,.2,0,.3-.2,0,0,.2.1.3.2ZM162.8,263.7h2.2c-.7.5-1.1,1.2-1.1,2.1v9.3c0,1.4,1.1,2.5,2.5,2.5h9.8c1.4,0,2.5-1.1,2.5-2.5v-9.3c0-.9-.4-1.6-1.1-2.1h2.2v16.1h-17.1v-16.1ZM181.3,281.5c0,0,.2.1.3.2h-.6c.1,0,.2,0,.3-.2ZM182.7,279.8v-16.1h2.2c-.7.5-1.1,1.2-1.1,2.1v9.3c0,1.4,1.1,2.5,2.5,2.5h9.8c1.4,0,2.5-1.1,2.5-2.5v-9.3c0-.9-.4-1.6-1.1-2.1h2.2v16.1h-17.1ZM201.2,281.5c0,0,.2.1.3.2h-.6c.1,0,.2,0,.3-.2ZM202.7,279.8v-16.1h2.2c-.7.5-1.1,1.2-1.1,2.1v9.3c0,1.4,1.1,2.5,2.5,2.5h9.8c1.4,0,2.5-1.1,2.5-2.5v-9.3c0-.9-.4-1.6-1.1-2.1h2.2v16.1h-17.1ZM226.4,285.8v9.3c0,.3-.2.5-.5.5h-9.8c-.3,0-.5-.2-.5-.5v-9.3c0-.3.2-.5.5-.5h9.8c.3,0,.5.2.5.5ZM212.5,283.7h2.2c-.7.5-1.1,1.2-1.1,2.1v9.3c0,1.4,1.1,2.5,2.5,2.5h9.8c1.4,0,2.5-1.1,2.5-2.5v-9.3c0-.9-.4-1.6-1.1-2.1h2.2v16.1h-17.1v-16.1ZM230.7,281.8h.6c-.1,0-.2,0-.3.2,0,0-.2-.1-.3-.2ZM250.9,301.6c0,0,.2.1.3.2h-.6c.1,0,.2,0,.3-.2ZM270.9,301.6c0,0,.2.1.3.2h-.6c.1,0,.2,0,.3-.2ZM290.8,301.6c0,0,.2.1.3.2h-.6c.1,0,.2,0,.3-.2ZM310.8,301.6c0,0,.2.1.3.2h-.6c.1,0,.2,0,.3-.2ZM346.1,285.8v9.3c0,.3-.2.5-.5.5h-9.8c-.3,0-.5-.2-.5-.5v-9.3c0-.3.2-.5.5-.5h9.8c.3,0,.5.2.5.5ZM332.2,283.7h2.2c-.7.5-1.1,1.2-1.1,2.1v9.3c0,1.4,1.1,2.5,2.5,2.5h9.8c1.4,0,2.5-1.1,2.5-2.5v-9.3c0-.9-.4-1.6-1.1-2.1h2.2v16.1h-17.1v-16.1ZM342.3,279.8v-16.1h2.2c-.7.5-1.1,1.2-1.1,2.1v9.3c0,1.4,1.1,2.5,2.5,2.5h9.8c1.4,0,2.5-1.1,2.5-2.5v-9.3c0-.9-.4-1.6-1.1-2.1h2.2v16.1h-17.1ZM360.8,281.6c0,0,.2,0,.2.1h-.5c0,0,.2,0,.2-.1ZM362.2,279.8v-16.1h2.2c-.7.5-1.1,1.2-1.1,2.1v9.3c0,1.4,1.1,2.5,2.5,2.5h9.8c1.4,0,2.5-1.1,2.5-2.5v-9.3c0-.9-.4-1.6-1.1-2.1h2.2v16.1h-17.1ZM380.7,281.6c0,0,.2.1.3.2h-.6c.1,0,.2,0,.3-.2ZM382.1,279.8v-16.1h2.2c-.7.5-1.1,1.2-1.1,2.1v9.3c0,1.4,1.1,2.5,2.5,2.5h9.8c1.4,0,2.5-1.1,2.5-2.5v-9.3c0-.9-.4-1.6-1.1-2.1h2.2v16.1h-17.1ZM400.6,281.6c0,0,.2.1.3.2h-.6c.1,0,.2,0,.3-.2ZM419.2,279.8h-17.1v-16.1h2.2c-.7.5-1.1,1.2-1.1,2.1v9.3c0,1.4,1.1,2.5,2.5,2.5h0s9.8,0,9.8,0c1.4,0,2.5-1.1,2.5-2.5v-9.3c0-.9-.4-1.6-1.1-2.1h2.2v16.1ZM435.4,261.7c.1,0,.2,0,.3-.2,0,0,.2.1.3.2h-.6ZM451,255c0,.3-.2.5-.5.5h-9.8c-.3,0-.5-.2-.5-.5v-9.3c0-.3.2-.5.5-.5h9.8c.3,0,.5.2.5.5v9.3s0,0,0,0ZM440.7,257.5h9.8c1.4,0,2.5-1.1,2.5-2.5h0v-9.3c0-.9-.4-1.6-1.1-2.1h2.2v16.1h-17.1v-16.1h2.2c-.7.5-1.1,1.2-1.1,2.1v9.3c0,1.4,1.1,2.5,2.5,2.5ZM435.7,241.9c0,0-.2-.1-.3-.2h.6c-.1,0-.2,0-.3.2ZM415.7,241.9c0,0-.2-.1-.3-.2h.6c-.1,0-.2.1-.3.2ZM406.4,241.6c.1,0,.2,0,.3-.2,0,0,.2.1.3.2h-.6ZM406.7,221.8c0,0-.2-.1-.3-.2h.6c-.1,0-.2,0-.3.2ZM386.7,221.8c0,0-.2-.1-.3-.2h.6c-.1,0-.2,0-.3.2ZM366.8,221.8c0,0-.2,0-.2-.1h.5c0,0-.2,0-.2.1ZM346.9,221.8c0,0-.2-.1-.3-.2h.6c-.1,0-.2,0-.3.2ZM327,221.8c0,0-.2-.1-.3-.2h.6c-.1,0-.2,0-.3.2ZM307,221.8c0,0-.2-.1-.3-.2h.6c-.1,0-.2,0-.3.2ZM287.1,221.8c0,0-.2-.1-.3-.2h.6c-.1,0-.2,0-.3.2ZM267.1,221.8c0,0-.2-.1-.3-.2h.6c-.1,0-.2,0-.3.2ZM247.2,221.8c0,0-.2-.1-.3-.2h.6c-.1,0-.2,0-.3.2ZM227.2,221.8c0,0-.2-.1-.3-.2h.6c-.1,0-.2,0-.3.2ZM207.3,221.9c0,0-.2-.1-.3-.2h.6c-.1,0-.2,0-.3.2ZM207.3,241.5c0,0,.2.1.3.2h-.6c.1,0,.2,0,.3-.2ZM196.4,241.9c0,0-.2-.1-.3-.2h.6c-.1,0-.2,0-.3.2ZM176.4,241.9c0,0-.2-.1-.3-.2h.6c-.1,0-.2.1-.3.2ZM148.9,243.6h2.2c-.7.5-1.1,1.2-1.1,2.1v9.3c0,1.4,1.1,2.5,2.5,2.5h18.8c1.4,0,2.5-1.1,2.5-2.5h0v-9.3c0-.9-.4-1.6-1.1-2.1h2.2v16.1h-26.1v-16.1ZM161.3,261.9c0,0-.2-.1-.3-.2h.6c-.1,0-.2,0-.3.2ZM210.7,281.8h.6c-.1,0-.2,0-.3.2,0,0-.2-.1-.3-.2ZM231,301.6c0,0,.2.1.3.2h-.6c.1,0,.2,0,.3-.2ZM330.4,301.8c.1,0,.2,0,.3-.2,0,0,.2.1.3.2h-.6ZM366.1,285.8v9.3c0,.3-.2.5-.5.5h-9.8c-.3,0-.5-.2-.5-.5v-9.3c0-.3.2-.5.5-.5h9.8c.3,0,.5.2.5.5ZM352.1,283.7h2.2c-.7.5-1.1,1.2-1.1,2.1v9.3c0,1.4,1.1,2.5,2.5,2.5h9.8c1.4,0,2.5-1.1,2.5-2.5v-9.3c0-.9-.4-1.6-1.1-2.1h2.2v16.1h-17.1v-16.1ZM419.2,281.8h.6c-.1,0-.2,0-.3.2,0,0-.2-.1-.3-.2ZM420.6,281.6c0,0,.2.1.3.2h-.6c.1,0,.2,0,.3-.2ZM457.9,279.8h-35.9s0-16.1,0-16.1h2.2c-.7.5-1.1,1.2-1.1,2.1v9.3c0,1.4,1.1,2.5,2.5,2.5h28.6c1.4,0,2.5-1.1,2.5-2.5v-9.3c0-.9-.4-1.6-1.1-2.1h2.2v16.1ZM455.6,261.5c0,0,.2.1.3.2h-.6c.1,0,.2,0,.3-.2ZM455.6,241.9c0,0-.2-.1-.3-.2h.6c-.1,0-.2,0-.3.2ZM461.9,225.7v9.3c0,.3-.2.5-.5.5h-9.8c-.3,0-.5-.2-.5-.5v-9.3c0-.3.2-.5.5-.5h9.8c.3,0,.5.2.5.5ZM448,223.6h2.2c-.7.5-1.1,1.2-1.1,2.1v9.3c0,1.4,1.1,2.5,2.5,2.5h9.8c1.4,0,2.5-1.1,2.5-2.5v-9.3c0-.9-.4-1.6-1.1-2.1h2.2v16.1h-17.1v-16.1ZM442,225.7v9.3c0,.3-.2.5-.5.5h-9.8c-.3,0-.5-.2-.5-.5v-9.3c0-.3.2-.5.5-.5h9.8c.3,0,.5.2.5.5ZM428,223.6h2.2c-.7.5-1.1,1.2-1.1,2.1v9.3c0,1.4,1.1,2.5,2.5,2.5h9.8c1.4,0,2.5-1.1,2.5-2.5v-9.3c0-.9-.4-1.6-1.1-2.1h2.2v16.1h-17.1v-16.1ZM425.2,239.7h-17.1v-16.1h2.2c-.7.5-1.1,1.2-1.1,2.1v9.3c0,1.4,1.1,2.5,2.5,2.5h9.8c1.4,0,2.5-1.1,2.5-2.5v-9.3c0-.9-.4-1.6-1.1-2.1h2.2v16.1ZM422.1,225.7v9.3c0,.3-.2.5-.5.5h-9.8c-.3,0-.5-.2-.5-.5v-9.3c0-.3.2-.5.5-.5h9.8c.3,0,.5.2.5.5ZM406.6,205.6v9.3c0,.3-.2.5-.5.5h-9.8c-.3,0-.5-.2-.5-.5v-9.3c0-.3.2-.5.5-.5h9.8c.3,0,.5.2.5.5ZM392.6,203.5h2.2c-.7.5-1.1,1.2-1.1,2.1v9.3c0,1.4,1.1,2.5,2.5,2.5h9.8c1.4,0,2.5-1.1,2.5-2.5v-9.3c0-.9-.4-1.6-1.1-2.1h2.2v16.1h-17.1v-16.1ZM386.6,205.6v9.3c0,.3-.2.5-.5.5h-9.8c-.3,0-.5-.2-.5-.5v-9.3c0-.3.2-.5.5-.5h9.8c.3,0,.5.2.5.5ZM372.7,203.5h2.2c-.7.5-1.1,1.2-1.1,2.1v9.3c0,1.4,1.1,2.5,2.5,2.5h9.8c1.4,0,2.5-1.1,2.5-2.5v-9.3c0-.9-.4-1.6-1.1-2.1h2.2v16.1h-17.1v-16.1ZM366.7,205.6v9.3c0,.3-.2.5-.5.5h-9.8c-.3,0-.5-.2-.5-.5v-9.3c0-.3.2-.5.5-.5h9.8c.3,0,.5.2.5.5ZM352.7,203.5h2.2c-.7.5-1.1,1.2-1.1,2.1v9.3c0,1.4,1.1,2.5,2.5,2.5h9.8c1.4,0,2.5-1.1,2.5-2.5v-9.3c0-.9-.4-1.6-1.1-2.1h2.2v16.1h-17.1v-16.1ZM346.7,205.6v9.3c0,.3-.2.5-.5.5h-9.8c-.3,0-.5-.2-.5-.5v-9.3c0-.3.2-.5.5-.5h9.8c.3,0,.5.2.5.5ZM332.8,203.5h2.2c-.7.5-1.1,1.2-1.1,2.1v9.3c0,1.4,1.1,2.5,2.5,2.5h9.8c1.4,0,2.5-1.1,2.5-2.5v-9.3c0-.9-.4-1.6-1.1-2.1h2.2v16.1h-17.1v-16.1ZM326.8,205.6v9.3c0,.3-.2.5-.5.5h-9.8c-.3,0-.5-.2-.5-.5v-9.3c0-.3.2-.5.5-.5h9.8c.3,0,.5.2.5.5ZM312.8,203.5h2.2c-.7.5-1.1,1.2-1.1,2.1v9.3c0,1.4,1.1,2.5,2.5,2.5h9.8c1.4,0,2.5-1.1,2.5-2.5v-9.3c0-.9-.4-1.6-1.1-2.1h2.2v16.1h-17.1v-16.1ZM306.8,205.6v9.3c0,.3-.2.5-.5.5h-9.8c-.3,0-.5-.2-.5-.5v-9.3c0-.3.2-.5.5-.5h9.8c.3,0,.5.2.5.5ZM292.9,203.5h2.2c-.7.5-1.1,1.2-1.1,2.1v9.3c0,1.4,1.1,2.5,2.5,2.5h9.8c1.4,0,2.5-1.1,2.5-2.5v-9.3c0-.9-.4-1.6-1.1-2.1h2.2v16.1h-17.1v-16.1ZM286.9,205.6v9.3c0,.3-.2.5-.5.5h-9.8c-.3,0-.5-.2-.5-.5v-9.3c0-.3.2-.5.5-.5h9.8c.3,0,.5.2.5.5ZM272.9,203.5h2.2c-.7.5-1.1,1.2-1.1,2.1v9.3c0,1.4,1.1,2.5,2.5,2.5h0s9.8,0,9.8,0c1.4,0,2.5-1.1,2.5-2.5v-9.3c0-.9-.4-1.6-1.1-2.1h2.2v16.1h-17.1v-16.1ZM266.9,205.6v9.3c0,.3-.2.5-.5.5h-9.8c-.3,0-.5-.2-.5-.5v-9.3c0-.3.2-.5.5-.5h9.8c.3,0,.5.2.5.5ZM253,203.5h2.2c-.7.5-1.1,1.2-1.1,2.1v9.3c0,1.4,1.1,2.5,2.5,2.5h0s9.8,0,9.8,0c1.4,0,2.5-1.1,2.5-2.5v-9.3c0-.9-.4-1.6-1.1-2.1h2.2v16.1h-17.1v-16.1ZM247,205.6v9.3c0,.3-.2.5-.5.5h-9.8c-.3,0-.5-.2-.5-.5v-9.3c0-.3.2-.5.5-.5h9.8c.3,0,.5.2.5.5ZM233,203.5h2.2c-.7.5-1.1,1.2-1.1,2.1v9.3c0,1.4,1.1,2.5,2.5,2.5h9.8c1.4,0,2.5-1.1,2.5-2.5v-9.3c0-.9-.4-1.6-1.1-2.1h2.2v16.1h-17.1v-16.1ZM227,205.6v9.3c0,.3-.2.5-.5.5h-9.8c-.3,0-.5-.2-.5-.5v-9.3c0-.3.2-.5.5-.5h9.8c.3,0,.5.2.5.5ZM213.1,203.5h2.2c-.7.5-1.1,1.2-1.1,2.1v9.3c0,1.4,1.1,2.5,2.5,2.5h9.8c1.4,0,2.5-1.1,2.5-2.5v-9.3c0-.9-.4-1.6-1.1-2.1h2.2v16.1h-17.1v-16.1ZM207.1,205.6v9.3c0,.3-.2.5-.5.5h-9.8c-.3,0-.5-.2-.5-.5v-9.3c0-.3.2-.5.5-.5h9.8c.3,0,.5.2.5.5ZM193.1,203.5h2.2c-.7.5-1.1,1.2-1.1,2.1v9.3c0,1.4,1.1,2.5,2.5,2.5h9.8c1.4,0,2.5-1.1,2.5-2.5v-9.3c0-.9-.4-1.6-1.1-2.1h2.2v16.1h-17.1v-16.1ZM188.8,223.6h2.2c-.7.5-1.1,1.2-1.1,2.1v9.3c0,1.4,1.1,2.5,2.5,2.5h9.8c1.4,0,2.5-1.1,2.5-2.5v-9.3c0-.9-.4-1.6-1.1-2.1h2.2v16.1h-17.1v-16.1ZM182.8,225.7v9.3c0,.3-.2.5-.5.5h-9.8c-.3,0-.5-.2-.5-.5v-9.3c0-.3.2-.5.5-.5h9.8c.3,0,.5.2.5.5ZM168.8,223.6h2.2c-.7.5-1.1,1.2-1.1,2.1v9.3c0,1.4,1.1,2.5,2.5,2.5h9.8c1.4,0,2.5-1.1,2.5-2.5v-9.3c0-.9-.4-1.6-1.1-2.1h2.2v16.1h-17.1v-16.1ZM162.8,225.7v9.3c0,.3-.2.5-.5.5h-9.8c-.3,0-.5-.2-.5-.5v-9.3c0-.3.2-.5.5-.5h9.8c.3,0,.5.2.5.5ZM148.9,223.6h2.2c-.7.5-1.1,1.2-1.1,2.1v9.3c0,1.4,1.1,2.5,2.5,2.5h9.8c1.4,0,2.5-1.1,2.5-2.5v-9.3c0-.9-.4-1.6-1.1-2.1h2.2v16.1h-17.1v-16.1ZM142.8,263.7h2.2c-.7.5-1.1,1.2-1.1,2.1v9.3c0,1.4,1.1,2.5,2.5,2.5h9.8c1.4,0,2.5-1.1,2.5-2.5v-9.3c0-.9-.4-1.6-1.1-2.1h2.2v16.1h-17.1v-16.1ZM159.9,299.9h-17.1v-16.1h2.2c-.7.5-1.1,1.2-1.1,2.1v9.3c0,1.4,1.1,2.5,2.5,2.5h9.8c1.4,0,2.5-1.1,2.5-2.5v-9.3c0-.9-.4-1.6-1.1-2.1h2.2v16.1ZM189.7,299.9h-26.9v-16.1h2.2c-.7.5-1.1,1.2-1.1,2.1v9.3c0,1.4,1.1,2.5,2.5,2.5h19.6c1.4,0,2.5-1.1,2.5-2.5v-9.3c0-.9-.4-1.6-1.1-2.1h2.2v16.1ZM209.6,299.9h-17.1v-16.1h2.2c-.7.5-1.1,1.2-1.1,2.1v9.3c0,1.4,1.1,2.5,2.5,2.5h9.8c1.4,0,2.5-1.1,2.5-2.5v-9.3c0-.9-.4-1.6-1.1-2.1h2.2v16.1ZM370,319.9h-158v-16.1h2.2c-.7.5-1.1,1.2-1.1,2.1v9.3c0,1.4,1.1,2.5,2.5,2.5h150.7c1.4,0,2.5-1.1,2.5-2.5v-9.3c0-.9-.4-1.6-1.1-2.1h2.2v16.1ZM350.4,301.8c.1,0,.2,0,.3-.2,0,0,.2.1.3.2h-.6ZM389.1,299.9h-17.1v-16.1h2.2c-.7.5-1.1,1.2-1.1,2.1v9.3c0,1.4,1.1,2.5,2.5,2.5h9.8c1.4,0,2.5-1.1,2.5-2.5v-9.3c0-.9-.4-1.6-1.1-2.1h2.2v16.1ZM418,299.9h-26.1v-16.1h2.2c-.7.5-1.1,1.2-1.1,2.1v9.3c0,1.4,1.1,2.5,2.5,2.5h18.8c1.4,0,2.5-1.1,2.5-2.5v-9.3c0-.9-.4-1.6-1.1-2.1h2.2v16.1ZM438,299.9h-17.1v-16.1h2.2c-.7.5-1.1,1.2-1.1,2.1v9.3c0,1.4,1.1,2.5,2.5,2.5h0s9.8,0,9.8,0c1.4,0,2.5-1.1,2.5-2.5v-9.3c0-.9-.4-1.6-1.1-2.1h2.2v16.1ZM457.9,299.9h-17.1v-16.1h2.2c-.7.5-1.1,1.2-1.1,2.1v9.3c0,1.4,1.1,2.5,2.5,2.5h9.8c1.4,0,2.5-1.1,2.5-2.5v-9.3c0-.9-.4-1.6-1.1-2.1h2.2v16.1ZM474.1,259.8h-17.1v-16.1h2.2c-.7.5-1.1,1.2-1.1,2.1v9.3c0,1.4,1.1,2.5,2.5,2.5h9.8c1.4,0,2.5-1.1,2.5-2.5v-9.3c0-.9-.4-1.6-1.1-2.1h2.2v16.1Z"/>
  <path class="st0" d="M109.1,191.1c0,1.5,1.2,2.6,2.6,2.6,1.5,0,2.6-1.2,2.6-2.6v-15.1c0-1.5-1.2-2.6-2.6-2.6s-2.6,1.2-2.6,2.6v15.1ZM111.1,176c0-.3.3-.6.6-.6s.6.3.6.6v15.1c0,.3-.3.6-.6.6s-.6-.3-.6-.6v-15.1Z"/>
  <path class="st0" d="M118.4,193.7c1.5,0,2.6-1.2,2.6-2.6v-15.1c0-1.5-1.2-2.6-2.6-2.6s-2.6,1.2-2.6,2.6v15.1c0,1.5,1.2,2.6,2.6,2.6ZM117.8,176c0-.3.3-.6.6-.6.3,0,.6.3.6.6v15.1c0,.4-.3.6-.6.6s-.6-.3-.6-.6v-15.1Z"/>
  <path class="st0" d="M125.1,193.7c1.5,0,2.6-1.2,2.6-2.6v-15.1c0-1.5-1.2-2.6-2.6-2.6s-2.6,1.2-2.6,2.6v15.1c0,1.5,1.2,2.6,2.6,2.6ZM124.5,176c0-.3.3-.6.6-.6s.6.3.6.6v15.1c0,.3-.3.6-.6.6s-.6-.3-.6-.6v-15.1Z"/>
  <path class="st0" d="M131.8,193.7c1.5,0,2.6-1.2,2.6-2.6v-15.1c0-1.5-1.2-2.6-2.6-2.6s-2.6,1.2-2.6,2.6v15.1c0,1.5,1.2,2.6,2.6,2.6ZM131.2,176c0-.3.3-.6.6-.6s.6.3.6.6v15.1c0,.3-.3.6-.6.6s-.6-.3-.6-.6v-15.1Z"/>
  <path class="st0" d="M138.6,193.7c1.5,0,2.6-1.2,2.6-2.6v-15.1c0-1.5-1.2-2.6-2.6-2.6s-2.6,1.2-2.6,2.6v15.1c0,1.5,1.2,2.6,2.6,2.6ZM137.9,176c0-.3.3-.6.6-.6.3,0,.6.3.6.6v15.1c0,.4-.3.6-.6.6s-.6-.3-.6-.6v-15.1Z"/>
  <path class="st0" d="M145.3,193.7c1.5,0,2.6-1.2,2.6-2.6v-15.1c0-1.5-1.2-2.6-2.6-2.6s-2.6,1.2-2.6,2.6v15.1c0,1.5,1.2,2.6,2.6,2.6ZM144.6,176c0-.3.3-.6.6-.6.3,0,.6.3.6.6v15.1c0,.4-.3.6-.6.6s-.6-.3-.6-.6v-15.1Z"/>
  <path class="st0" d="M152,193.7c1.5,0,2.6-1.2,2.6-2.6v-15.1c0-1.5-1.2-2.6-2.6-2.6s-2.6,1.2-2.6,2.6v15.1c0,1.5,1.2,2.6,2.6,2.6ZM151.4,176c0-.3.3-.6.6-.6.3,0,.6.3.6.6v15.1c0,.4-.3.6-.6.6s-.6-.3-.6-.6v-15.1Z"/>
  <path class="st0" d="M99.8,330.9h383v-163H99.8v163ZM477.5,198.1v-27.4h2.5v27.4h-2.5ZM475.5,199.1H106.8v-29.2h368.6v29.2ZM102.3,198.1v-27.4h2.5s0,27.4,0,27.4h-2.5ZM101.8,328.9v-127.8h379v127.8H101.8Z"/>
  <path class="st0" d="M154.8,317.4c-2.3,0-4.2,1.9-4.2,4.2s1.9,4.2,4.2,4.2c2.3,0,4.2-1.9,4.2-4.2s-1.9-4.2-4.2-4.2ZM154.8,323.7c-1.2,0-2.2-1-2.2-2.2,0-1.2,1-2.2,2.2-2.2,1.2,0,2.2,1,2.2,2.2,0,1.2-1,2.1-2.2,2.2Z"/>
  <path class="st0" d="M175.4,317.4c-2.3,0-4.2,1.9-4.2,4.2s1.9,4.2,4.2,4.2c2.3,0,4.2-1.9,4.2-4.2h0c0-2.3-1.9-4.2-4.2-4.2ZM175.4,323.7c-1.2,0-2.2-1-2.2-2.2,0-1.2,1-2.2,2.2-2.2,1.2,0,2.2,1,2.2,2.2,0,1.2-1,2.1-2.2,2.2Z"/>
  <path class="st0" d="M196,317.4c-2.3,0-4.2,1.9-4.2,4.2s1.9,4.2,4.2,4.2c2.3,0,4.2-1.9,4.2-4.2s-1.9-4.2-4.2-4.2ZM196,323.7c-1.2,0-2.2-1-2.2-2.2,0-1.2,1-2.2,2.2-2.2,1.2,0,2.2,1,2.2,2.2,0,1.2-1,2.1-2.2,2.2Z"/>
  <path class="st0" d="M505.6,155.9l-11.3-140.9c0-3.5-2.8-6.2-6.3-6.2H94.5c-3.4,0-6.2,2.8-6.3,6.2l-11.3,140.9v182.6c0,3.5,2.8,6.3,6.3,6.3h416.1c3.5,0,6.3-2.8,6.3-6.3v-182.5s0,0,0,0ZM503.6,338.4c0,2.4-1.9,4.3-4.3,4.3H83.2c-2.4,0-4.3-1.9-4.3-4.3v-182.5L90.2,15h0c0-2.4,1.9-4.3,4.3-4.3h393.5c2.4,0,4.3,1.9,4.3,4.3h0s11.3,141,11.3,141v182.4Z"/>
</svg>