<?xml version="1.0" encoding="UTF-8"?>
<svg id="Layer_3" xmlns="http://www.w3.org/2000/svg" version="1.1" xmlns:cc="http://creativecommons.org/ns#" xmlns:dc="http://purl.org/dc/elements/1.1/" xmlns:rdf="http://www.w3.org/1999/02/22-rdf-syntax-ns#" viewBox="0 0 598.2 350.3">
  <!-- Generator: Adobe Illustrator 29.1.0, SVG Export Plug-In . SVG Version: 2.1.0 Build 142)  -->
  <defs>
    <style>
      .st0 {
        fill: #f4f4f4;
      }
    </style>
  </defs>
  <path class="st0" d="M211.2,81.4c0-3.9-3.2-7-7-7H74.2c-3.9,0-7,3.1-7,7s3.2,7,7,7h130c3.9,0,7-3.2,7-7ZM204.1,86.8H74.2c-3,0-5.4-2.4-5.4-5.4s2.4-5.3,5.4-5.3h130c3,0,5.4,2.4,5.4,5.3s-2.4,5.4-5.4,5.4Z"/>
  <path class="st0" d="M475.1,87.7s0,0,0,0c0-.1-.1-.3-.2-.4,0,0,0,0,0,0-1-.8-1.8-1.8-2.3-2.9-.1-.3-.5-.5-.8-.5h0c0,0-.2,0-.2,0h-.1c.4,0,.7-.4.7-.9,0,0,0-.2,0-.2,0-.5-.1-1-.1-1.4s0-.8.1-1.3c0-.5-.2-.9-.7-1h0c0,0-.1,0-.2,0H212.2c0,0-.1,0-.2,0h0s0,0,0,0c-.4,0-.7.5-.7,1,0,.4.1.8.1,1.3s0,.9-.1,1.3c0,.1,0,.2,0,.4,0,0,0,0,0,0,0,.4.2.7.6.8.2,0,.4,0,.6,0h258.5c0,0,.2,0,.3.1H211.8c-.1,0-.2,0-.4,0-.2,0-.4.1-.6.3-.1.1-.2.2-.2.4-.5,1-1.2,2-2.2,2.7,0,0,0,0,0,0-.3.2-.4.5-.4.8,0,.5.5.8.9.8,0,0,0,0,0,0h265.4c.5,0,.8-.4.9-.8,0,0,0,0,0,0,0,0,0-.1,0-.2ZM259.7,82.2h-46.7c0-.3,0-.5,0-.8s0-.4,0-.6h257.3c0,.2,0,.4,0,.6s0,.5,0,.8h-210.6ZM259.8,87.2h-48.8c.4-.5.7-1,1-1.5h259.4c.3.5.6,1.1,1,1.5h-212.6Z"/>
  <path class="st0" d="M208.8,75.9h0c.8.7,1.5,1.6,2,2.7.2.4.6.6,1.1.5h259.7c.4.1.9,0,1-.5.4-1,1.1-1.9,2-2.7.4-.2.6-.7.4-1.1-.1-.3-.5-.5-.8-.5H209.2c-.5,0-.9.3-.9.8,0,.3.2.7.5.8ZM259.7,76h212.4c-.3.4-.6.9-.8,1.4H212c-.2-.5-.5-.9-.8-1.4h48.6Z"/>
  <path class="st0" d="M479.2,74.4c-3.9,0-7,3.1-7,7s3.1,7,7,7h21c3.9,0,7-3.2,7-7s-3.1-7-7-7h-21ZM505.6,81.4c0,3-2.4,5.4-5.3,5.4h-21c-3,0-5.3-2.4-5.3-5.4s2.4-5.3,5.3-5.3h21c3,0,5.3,2.4,5.3,5.3Z"/>
  <path class="st0" d="M556.3,96.6c0-.5-.4-.8-.8-.8h-.4v-1.2h.2c.5,0,.8-.4.8-.8v-1.8c0-.5-.4-.8-.8-.8h-.2v-.4h.1c.5,0,.8-.4.8-.8v-1.8c0-.5-.3-.9-.8-.9h-.2v-1.5h.2c.5,0,.8-.4.8-.8v-1.8c0-.5-.4-.8-.8-.8h-.2v-1.3h.2c.5,0,.8-.4.8-.8v-1.8c0-.5-.4-.8-.8-.8h-.2v-1.4h.2c.5,0,.8-.4.8-.8v-1.8c0-.5-.4-.8-.8-.8h-.2v-.7h.4c.5,0,.8-.4.8-.8v-11.6c0-2.1-1.7-3.7-3.7-3.7H40.7c-2.1,0-3.7,1.7-3.7,3.7v11.6c0,.4.2.7.5.8v.8c-.3.1-.6.4-.6.8v1.8c0,.4.2.7.6.8v1.5c-.3.1-.6.4-.6.8v1.8c0,.4.2.7.6.8v1.4c-.3.1-.6.4-.6.8v1.8c0,.4.2.7.6.8v1.6c-.3.1-.6.4-.6.8h0s0,1.8,0,1.8c0,.3.2.6.5.8v.5c-.3.1-.6.4-.6.8v1.8c0,.4.2.7.6.8v1.3c-.3.1-.5.4-.5.8v210.8c0,2.1,1.7,3.7,3.7,3.7h511.9c2.1,0,3.7-1.7,3.7-3.7V96.6ZM553.4,95.8H39.1v-1.2h514.3v1.2ZM554.4,92.8h0c0,0,0,0,0,0,0,0,0,0-.1,0,0,0,0,0,0,0,0,0,0,0-.1,0H38.6c0,0,221.2,0,221.2,0h294.7ZM553.4,91.1H39.1v-.4h35.1s0,0,0,0h425.8s0,0,0,0h53.3v.4ZM554.2,74.2s0,0,0,0c0,0,0,0,0,0h.1c0,0-49,0-49,0,0,0-.1,0-.2,0h-.1c-.5.1-.7.6-.6,1,0,.2.1.3.3.5.9.7,1.6,1.7,2,2.7.1.3.5.5.8.5h46.4c0,0-.1,0-.2.1h-45.6c-.5,0-.8.4-.8.9,0,0,0,0,0,.1h0c0,.4.1.8.1,1.3s0,.9-.1,1.3c0,0,0,0,0,0h0c0,.3,0,.7.3.9h0c.2.2.5.3.8.2h45.8c-.1,0-.2,0-.3.1h-46c-.4-.1-.7,0-.9.3h0c0,0,0,0,0,.1,0,0,0,0,0,0-.5,1.1-1.3,2.1-2.3,2.8h0c-.4.3-.5.8-.2,1.2,0,0,0,0,0,0,.2.2.4.3.7.3h49.4c0,0,0,0-.1,0h0c-.1,0-.2,0-.3,0h-53.7s0,0,0,0H74.2s0,0,0,0h0s0,0,0,0h-35.5c0-.1,30.8-.1,30.8-.1h0c.3,0,.6-.2.7-.4.2-.4.1-.8-.2-1.1,0,0,0,0,0,0-1-.7-1.7-1.7-2.3-2.8,0,0,0,0,0,0,0,0,0,0,0,0,0,0,0,0,0,0,0,0,0,0,0,0h0c-.2-.3-.6-.5-1-.4h-27.9s0,0,0,0h0c0,0,27.5,0,27.5,0,.3,0,.5,0,.8-.2h0c.3-.2.4-.6.3-.9,0,0,0,0,0,0,0-.4-.1-.9-.1-1.3s0-.9.1-1.3c0-.5-.2-.9-.7-1,0,0,0,0-.1,0h-27.7c0-.1,28-.1,28-.1h.2c.3,0,.6-.2.8-.5.5-1.1,1.2-2,2.1-2.7.4-.3.4-.8.1-1.2-.1-.1-.3-.2-.5-.3h0c0,0-.1,0-.2,0h-30.4c0,0,34.4,0,34.4,0h481.2ZM554.3,83.9h.1s0,0-.1,0ZM67.1,76c-.3.4-.6.9-.8,1.4h-27.1v-1.4h28ZM65.3,80.8c0,.2,0,.4,0,.6s0,.5,0,.8h-26.2v-1.3h26.2ZM66.4,85.7c.3.5.6,1.1,1,1.5h-28.2v-1.5h27.2ZM553.5,87.2h-46.4c.4-.5.7-1,1-1.5h45.4v1.5ZM553.4,82.2h-44.4c0-.3,0-.5,0-.8s0-.4,0-.6h44.3v1.3ZM553.5,77.4h-45.3c-.2-.5-.5-.9-.8-1.4h46.1v1.4ZM553.4,72.5H39.1v-.7h514.3v.7ZM38.6,59.5c0-1.1.9-2.1,2.1-2.1h511.9c1.1,0,2.1.9,2.1,2.1v10.7H38.6v-10.7ZM554.7,307.5c0,1.1-.9,2.1-2.1,2.1H40.7c-1.2,0-2.1-.9-2.1-2.1V97.5h515.6s0,0,0,0c0,0,0,0,0,0h.3v210Z"/>
  <path class="st0" d="M61.5,167.7h17.5c1.6,0,2.8-1.3,2.8-2.8v-17.5c0-1.6-1.3-2.8-2.8-2.8h-17.5c-1.6,0-2.8,1.3-2.8,2.8v17.5c0,1.6,1.3,2.8,2.8,2.8ZM60.4,147.3c0-.6.5-1.2,1.1-1.2h17.5c.6,0,1.2.5,1.2,1.2v17.5c0,.6-.5,1.2-1.2,1.2h-17.5c-.6,0-1.1-.5-1.1-1.2v-17.5Z"/>
  <path class="st0" d="M86.2,167.7h17.5c1.6,0,2.8-1.3,2.8-2.8v-17.5c0-1.6-1.3-2.8-2.8-2.8h-17.5c-1.6,0-2.8,1.3-2.8,2.8v17.5c0,1.6,1.3,2.8,2.8,2.8ZM85,147.3c0-.6.5-1.2,1.2-1.2h17.5c.6,0,1.2.5,1.2,1.2v17.5c0,.6-.5,1.2-1.2,1.2h-17.5c-.6,0-1.2-.5-1.2-1.2v-17.5Z"/>
  <path class="st0" d="M110.9,167.7h17.5c1.4,0,2.5-1.1,2.7-2.5,0,0,0,0,0,0,0,0,0,0,0,0,0,0,0,0,0,0,0,0,0-.1,0-.2,0,0,0,0,0,0v-17.5c0-1.6-1.3-2.8-2.8-2.8h-17.5c-1.6,0-2.8,1.3-2.8,2.8v17.5c0,1.6,1.3,2.8,2.8,2.8ZM109.7,147.3c0-.6.5-1.2,1.2-1.2h17.5c.6,0,1.2.5,1.2,1.2v17.3s0,0,0,.1c0,0,0,0,0,0,0,.6-.5,1.2-1.1,1.2h-17.5c-.6,0-1.2-.5-1.2-1.2v-17.5Z"/>
  <path class="st0" d="M135.6,167.7h17.5c1.6,0,2.8-1.3,2.8-2.8v-17.5c0-1.6-1.3-2.8-2.8-2.8h-17.5c-1.6,0-2.8,1.3-2.8,2.8v17.5c0,1.6,1.3,2.8,2.8,2.8ZM134.4,147.3c0-.6.5-1.2,1.1-1.2h17.5c.6,0,1.2.5,1.2,1.2v17.5c0,.6-.5,1.2-1.2,1.2h-17.5c-.6,0-1.1-.5-1.1-1.2v-17.5Z"/>
  <path class="st0" d="M160.3,167.7h17.5c1.6,0,2.8-1.3,2.8-2.8v-17.5c0-1.6-1.3-2.8-2.8-2.8h-17.5c-1.6,0-2.8,1.3-2.8,2.8v17.5c0,1.6,1.3,2.8,2.8,2.8ZM159.1,147.3c0-.6.5-1.2,1.2-1.2h17.5c.6,0,1.2.5,1.2,1.2v17.5c0,.6-.5,1.2-1.2,1.2h-17.5c-.6,0-1.2-.5-1.2-1.2v-17.5Z"/>
  <path class="st0" d="M184.9,167.7h17.5c1.6,0,2.8-1.3,2.8-2.8v-17.5c0-1.6-1.3-2.8-2.8-2.8h-17.5c-1.6,0-2.8,1.3-2.8,2.8v17.5c0,1.6,1.3,2.8,2.8,2.8ZM183.8,147.3c0-.6.5-1.2,1.2-1.2h17.5c.6,0,1.1.5,1.1,1.2v17.5c0,.6-.5,1.2-1.1,1.2h-17.5c-.6,0-1.2-.5-1.2-1.2v-17.5Z"/>
  <path class="st0" d="M209.6,167.7h17.5c1.6,0,2.8-1.3,2.8-2.8v-17.5c0-1.6-1.3-2.8-2.8-2.8h-17.5c-1.6,0-2.8,1.3-2.8,2.8v17.5c0,1.6,1.3,2.8,2.8,2.8ZM208.5,147.3c0-.6.5-1.2,1.1-1.2h17.5c.6,0,1.2.5,1.2,1.2v17.5c0,.6-.5,1.2-1.2,1.2h-17.5c-.6,0-1.1-.5-1.1-1.2v-17.5Z"/>
  <path class="st0" d="M234.3,167.7h17.5c1.6,0,2.8-1.3,2.8-2.8v-17.5c0-1.6-1.3-2.8-2.8-2.8h-17.5c-1.6,0-2.8,1.3-2.8,2.8v17.5c0,1.6,1.3,2.8,2.8,2.8ZM233.2,147.3c0-.6.5-1.2,1.2-1.2h17.5c.6,0,1.2.5,1.2,1.2v17.5c0,.6-.5,1.2-1.2,1.2h-17.5c-.6,0-1.2-.5-1.2-1.2v-17.5Z"/>
  <path class="st0" d="M259,167.7h17.5c1.6,0,2.8-1.3,2.8-2.8v-17.5c0-1.6-1.3-2.8-2.8-2.8h-17.5c-1.6,0-2.8,1.3-2.8,2.8v17.5c0,1.6,1.3,2.8,2.8,2.8ZM257.8,147.3c0-.6.5-1.2,1.2-1.2h17.5c.6,0,1.1.5,1.1,1.2v17.5c0,.6-.5,1.2-1.1,1.2h-17.5c-.6,0-1.2-.5-1.2-1.2v-17.5Z"/>
  <path class="st0" d="M283.7,167.7h17.5c1.6,0,2.8-1.3,2.8-2.8v-17.5c0-1.6-1.3-2.8-2.8-2.8h-17.5c-1.6,0-2.8,1.3-2.8,2.8v17.5c0,1.6,1.3,2.8,2.8,2.8ZM282.5,147.3c0-.6.5-1.2,1.2-1.2h17.5c.6,0,1.2.5,1.2,1.2v17.5c0,.6-.5,1.2-1.2,1.2h-17.5c-.6,0-1.2-.5-1.2-1.2v-17.5Z"/>
  <path class="st0" d="M308.4,167.7h17.5c1.6,0,2.8-1.3,2.8-2.8v-17.5c0-1.6-1.3-2.8-2.8-2.8h-17.5c-1.6,0-2.8,1.3-2.8,2.8v17.5c0,1.6,1.3,2.8,2.8,2.8ZM307.2,147.3c0-.6.5-1.2,1.2-1.2h17.5c.6,0,1.2.5,1.2,1.2v17.5c0,.6-.5,1.2-1.2,1.2h-17.5c-.6,0-1.2-.5-1.2-1.2v-17.5Z"/>
  <path class="st0" d="M333,167.7h17.5c1.6,0,2.8-1.3,2.8-2.8v-17.5c0-1.6-1.3-2.8-2.8-2.8h-17.5c-1.6,0-2.8,1.3-2.8,2.8v17.5c0,1.6,1.3,2.8,2.8,2.8ZM331.9,147.3c0-.6.5-1.2,1.2-1.2h17.5c.6,0,1.1.5,1.1,1.2v17.5c0,.6-.5,1.2-1.1,1.2h-17.5c-.6,0-1.2-.5-1.2-1.2v-17.5Z"/>
  <path class="st0" d="M357.7,167.7h17.5c1.6,0,2.8-1.3,2.8-2.8v-17.5c0-1.6-1.3-2.8-2.8-2.8h-17.5c-1.6,0-2.8,1.3-2.8,2.8v17.5c0,1.6,1.3,2.8,2.8,2.8ZM356.6,147.3c0-.6.5-1.2,1.1-1.2h17.5c.6,0,1.2.5,1.2,1.2v17.5c0,.6-.5,1.2-1.2,1.2h-17.5c-.6,0-1.1-.5-1.1-1.2v-17.5Z"/>
  <path class="st0" d="M382.4,167.7h17.5c1.6,0,2.8-1.3,2.8-2.8,0,0,0,0,0,0v-17.4c0-1.6-1.3-2.8-2.8-2.8h-17.5c-1.6,0-2.8,1.3-2.8,2.8v17.5c0,1.6,1.3,2.8,2.8,2.8ZM381.3,147.3c0-.6.5-1.2,1.2-1.2h17.5c.6,0,1.2.5,1.2,1.2v17.5c0,.6-.5,1.2-1.2,1.2h-17.5c-.6,0-1.2-.5-1.2-1.2v-17.5Z"/>
  <path class="st0" d="M96.3,171.7v17.5c0,1.6,1.3,2.8,2.8,2.8h17.5c1.4,0,2.5-1.1,2.7-2.4,0,0,0,0,0,0,0,0,0,0,0,0,0,0,0,0,0,0,0,0,0-.1,0-.2,0,0,0,0,0,0v-17.5c0-1.6-1.3-2.8-2.8-2.8h-17.5c-1.6,0-2.8,1.3-2.8,2.8ZM116.6,170.6c.6,0,1.2.5,1.2,1.2v17.3s0,0,0,0c0,0,0,0,0,0,0,.6-.5,1.1-1.1,1.1h-17.5c-.6,0-1.2-.5-1.2-1.1v-17.5c0-.6.5-1.2,1.2-1.2h0s17.5,0,17.5,0Z"/>
  <path class="st0" d="M61.5,192.1h30.1c1.6,0,2.8-1.3,2.8-2.8v-17.5c0-1.6-1.3-2.8-2.8-2.8h-30.1c-1.6,0-2.8,1.3-2.8,2.8v17.5c0,1.6,1.3,2.8,2.8,2.8ZM60.4,171.7c0-.6.5-1.2,1.1-1.2h30.1c.6,0,1.2.5,1.2,1.2v17.5c0,.6-.5,1.1-1.2,1.1h-30.1c-.6,0-1.1-.5-1.1-1.1v-17.5Z"/>
  <path class="st0" d="M141.3,168.9h-17.5c-1.6,0-2.8,1.3-2.8,2.8v17.5c0,1.6,1.3,2.8,2.8,2.8h17.5c1.6,0,2.8-1.3,2.8-2.8v-17.5c0-1.6-1.3-2.8-2.8-2.8ZM142.5,189.2c0,.6-.5,1.1-1.2,1.1h-17.5c-.6,0-1.2-.5-1.2-1.1v-17.5c0-.6.5-1.2,1.2-1.2h17.5c.6,0,1.2.5,1.2,1.2v17.5Z"/>
  <path class="st0" d="M166,168.9h-17.5c-1.6,0-2.8,1.3-2.8,2.8v17.5c0,1.6,1.3,2.8,2.8,2.8h17.5c1.6,0,2.8-1.3,2.8-2.8v-17.5c0-1.6-1.3-2.8-2.8-2.8ZM167.1,189.2c0,.6-.5,1.1-1.2,1.1h-17.5c-.6,0-1.2-.5-1.2-1.1v-17.5c0-.6.5-1.2,1.2-1.2h17.5c.6,0,1.2.5,1.2,1.2v17.5Z"/>
  <path class="st0" d="M190.7,168.9h-17.5c-1.6,0-2.8,1.3-2.8,2.8v17.5c0,1.6,1.3,2.8,2.8,2.8h17.5c1.6,0,2.8-1.3,2.8-2.8v-17.5c0-1.6-1.3-2.8-2.8-2.8ZM191.8,189.2c0,.6-.5,1.1-1.1,1.1h-17.5c-.6,0-1.2-.5-1.2-1.1v-17.5c0-.6.5-1.2,1.2-1.2h17.5c.6,0,1.1.5,1.1,1.2v17.5Z"/>
  <path class="st0" d="M215.4,168.9h-17.5c-1.6,0-2.8,1.3-2.8,2.8v17.5c0,1.6,1.3,2.8,2.8,2.8h17.5c1.6,0,2.8-1.3,2.8-2.8v-17.5c0-1.6-1.3-2.8-2.8-2.8ZM216.5,189.2c0,.6-.5,1.1-1.2,1.1h-17.5c-.6,0-1.1-.5-1.1-1.1v-17.5c0-.6.5-1.2,1.1-1.2h17.5c.6,0,1.2.5,1.2,1.2v17.5Z"/>
  <path class="st0" d="M240,168.9h-17.5c-1.6,0-2.8,1.3-2.8,2.8v17.5c0,1.6,1.3,2.8,2.8,2.8h17.5c1.6,0,2.8-1.3,2.8-2.8v-17.5c0-1.6-1.3-2.8-2.8-2.8ZM241.2,189.2c0,.6-.5,1.1-1.2,1.1h-17.5c-.6,0-1.2-.5-1.2-1.1v-17.5c0-.6.5-1.2,1.2-1.2h17.5c.6,0,1.2.5,1.2,1.2v17.5Z"/>
  <path class="st0" d="M264.7,168.9h-17.5c-1.6,0-2.8,1.3-2.8,2.8v17.5c0,1.6,1.3,2.8,2.8,2.8h17.5c1.6,0,2.8-1.3,2.8-2.8v-17.5c0-1.6-1.3-2.8-2.8-2.8ZM265.9,189.2c0,.6-.5,1.1-1.1,1.1h-17.5c-.6,0-1.2-.5-1.2-1.1v-17.5c0-.6.5-1.2,1.2-1.2h17.5c.6,0,1.1.5,1.1,1.2v17.5Z"/>
  <path class="st0" d="M289.4,168.9h-17.5c-1.6,0-2.8,1.3-2.8,2.8v17.5c0,1.6,1.3,2.8,2.8,2.8h17.5c1.6,0,2.8-1.3,2.8-2.8v-17.5c0-1.6-1.3-2.8-2.8-2.8ZM290.6,189.2c0,.6-.5,1.1-1.2,1.1h-17.5c-.6,0-1.2-.5-1.2-1.1v-17.5c0-.6.5-1.2,1.2-1.2h17.5c.6,0,1.2.5,1.2,1.2v17.5Z"/>
  <path class="st0" d="M314.1,168.9h-17.5c-1.6,0-2.8,1.3-2.8,2.8v17.5c0,1.6,1.3,2.8,2.8,2.8h17.5c1.6,0,2.8-1.3,2.8-2.8v-17.5c0-1.6-1.3-2.8-2.8-2.8ZM315.3,189.2c0,.6-.5,1.1-1.2,1.1h-17.5c-.6,0-1.2-.5-1.2-1.1v-17.5c0-.6.5-1.2,1.2-1.2h17.5c.6,0,1.2.5,1.2,1.2v17.5Z"/>
  <path class="st0" d="M338.8,168.9h-17.5c-1.6,0-2.8,1.3-2.8,2.8v17.5c0,1.6,1.3,2.8,2.8,2.8h17.5c1.6,0,2.8-1.3,2.8-2.8v-17.5c0-1.6-1.3-2.8-2.8-2.8ZM339.9,189.2c0,.6-.5,1.1-1.1,1.1h-17.5c-.6,0-1.2-.5-1.2-1.1v-17.5c0-.6.5-1.2,1.2-1.2h17.5c.6,0,1.1.5,1.1,1.2v17.5Z"/>
  <path class="st0" d="M363.5,168.9h-17.5c-1.6,0-2.8,1.3-2.8,2.8v17.5c0,1.6,1.3,2.8,2.8,2.8h17.5c1.6,0,2.8-1.3,2.8-2.8v-17.5c0-1.6-1.3-2.8-2.8-2.8ZM364.6,189.2c0,.6-.5,1.1-1.2,1.1h-17.5c-.6,0-1.2-.5-1.2-1.1v-17.5c0-.6.5-1.2,1.2-1.2h17.5c.6,0,1.2.5,1.2,1.2v17.5Z"/>
  <path class="st0" d="M388.1,168.9h-17.5c-1.6,0-2.8,1.3-2.8,2.8v17.5c0,1.6,1.3,2.8,2.8,2.8h17.5c1.6,0,2.8-1.3,2.8-2.8v-17.5c0-1.6-1.3-2.8-2.8-2.8ZM389.3,189.2c0,.6-.5,1.1-1.2,1.1h-17.5c-.6,0-1.2-.5-1.2-1.1v-17.5c0-.6.5-1.2,1.2-1.2h17.5c.6,0,1.2.5,1.2,1.2v17.5Z"/>
  <path class="st0" d="M412.8,168.9h-17.5c-1.6,0-2.8,1.3-2.8,2.8v17.5c0,1.6,1.3,2.8,2.8,2.8h17.5c1.6,0,2.8-1.3,2.8-2.8v-17.5c0-1.6-1.3-2.8-2.8-2.8ZM414,189.2c0,.6-.5,1.1-1.1,1.1h-17.5c-.6,0-1.2-.5-1.2-1.1v-17.5c0-.6.5-1.2,1.2-1.2h17.5c.6,0,1.1.5,1.1,1.2v17.5Z"/>
  <path class="st0" d="M482.6,192.1h31.8c1.6,0,2.8-1.3,2.8-2.8v-17.5c0-1.6-1.3-2.8-2.8-2.8h-31.8c-1.6,0-2.8,1.3-2.8,2.8v17.5c0,1.6,1.3,2.8,2.8,2.8ZM481.5,171.7c0-.6.5-1.2,1.2-1.2h31.8c.6,0,1.2.5,1.2,1.2v17.5c0,.6-.5,1.1-1.2,1.1h-31.8c-.6,0-1.2-.5-1.2-1.1v-17.5Z"/>
  <path class="st0" d="M449.3,168.9h-29.4c-1.6,0-2.8,1.3-2.8,2.8v17.5c0,1.6,1.3,2.8,2.8,2.8h29.4c1.6,0,2.8-1.3,2.8-2.8v-17.5c0-1.6-1.3-2.8-2.8-2.8ZM450.4,189.2c0,.6-.5,1.1-1.2,1.1h-29.4c-.6,0-1.2-.5-1.2-1.1v-17.5c0-.6.5-1.2,1.2-1.2h29.4c.6,0,1.2.5,1.2,1.2v17.5Z"/>
  <path class="st0" d="M407.1,167.7h17.5c1.6,0,2.8-1.3,2.8-2.8v-17.5c0-1.6-1.3-2.8-2.8-2.8h-17.5c-1.6,0-2.8,1.3-2.8,2.8v17.5c0,1.6,1.3,2.8,2.8,2.8ZM405.9,147.3c0-.6.5-1.2,1.2-1.2h17.5c.6,0,1.1.5,1.1,1.2v17.5c0,.6-.5,1.2-1.1,1.2h-17.5c-.6,0-1.2-.5-1.2-1.2v-17.5Z"/>
  <path class="st0" d="M72.4,193.3h-17.5c-1.6,0-2.8,1.3-2.8,2.8v17.5c0,1.6,1.3,2.8,2.8,2.8h17.5c1.6,0,2.8-1.3,2.8-2.8v-17.5c0-1.6-1.3-2.8-2.8-2.8ZM73.5,213.6c0,.6-.5,1.2-1.1,1.2h-17.5c-.6,0-1.2-.5-1.2-1.2v-17.5c0-.6.5-1.2,1.2-1.2h17.5c.6,0,1.1.5,1.1,1.2v17.5Z"/>
  <path class="st0" d="M76.7,196.2v17.5c0,1.6,1.3,2.8,2.8,2.8h17.5c1.6,0,2.8-1.3,2.8-2.8v-17.5c0-1.6-1.3-2.8-2.8-2.8h-17.5c-1.6,0-2.8,1.3-2.8,2.8ZM98.2,196.2v17.5c0,.6-.5,1.2-1.2,1.2h-17.5c-.6,0-1.2-.5-1.2-1.2v-17.5c0-.6.5-1.2,1.2-1.2h17.5c.6,0,1.2.5,1.2,1.2Z"/>
  <path class="st0" d="M104.2,193.3c-1.6,0-2.8,1.3-2.8,2.8v17.5c0,1.6,1.3,2.8,2.8,2.8h17.5c1.4,0,2.6-1.1,2.8-2.4,0,0,0,0,0,0,0-.1,0-.2,0-.3v-17.5c0-1.6-1.3-2.8-2.8-2.8h-17.5ZM121.7,195c.6,0,1.2.5,1.2,1.2v17.3s0,0,0,0h0c0,.7-.5,1.2-1.2,1.2h-17.5c-.6,0-1.1-.5-1.1-1.2v-17.5c0-.6.5-1.2,1.1-1.2h17.5Z"/>
  <path class="st0" d="M126.1,196.2v17.5c0,1.6,1.3,2.8,2.8,2.8h17.5c1.6,0,2.8-1.3,2.8-2.8v-17.5c0-1.6-1.3-2.8-2.8-2.8h-17.5c-1.6,0-2.8,1.3-2.8,2.8ZM147.6,196.2v17.5c0,.6-.5,1.2-1.1,1.2h-17.5c-.6,0-1.2-.5-1.2-1.2v-17.5c0-.6.5-1.2,1.2-1.2h17.5c.6,0,1.1.5,1.1,1.2Z"/>
  <path class="st0" d="M150.8,196.2v17.5c0,1.6,1.3,2.8,2.8,2.8h17.5c1.6,0,2.8-1.3,2.8-2.8v-17.5c0-1.6-1.3-2.8-2.8-2.8h-17.5c-1.6,0-2.8,1.3-2.8,2.8ZM172.3,196.2v17.5c0,.6-.5,1.2-1.2,1.2h-17.5c-.6,0-1.2-.5-1.2-1.2v-17.5c0-.6.5-1.2,1.2-1.2h17.5c.6,0,1.2.5,1.2,1.2Z"/>
  <path class="st0" d="M175.5,196.2v17.5c0,1.6,1.3,2.8,2.8,2.8h17.5c1.6,0,2.8-1.3,2.8-2.8v-17.5c0-1.6-1.3-2.8-2.8-2.8h-17.5c-1.6,0-2.8,1.3-2.8,2.8ZM196.9,196.2v17.5c0,.6-.5,1.2-1.2,1.2h-17.5c-.6,0-1.1-.5-1.1-1.2v-17.5c0-.6.5-1.2,1.1-1.2h17.5c.6,0,1.2.5,1.2,1.2Z"/>
  <path class="st0" d="M200.1,196.2v17.5c0,1.6,1.3,2.8,2.8,2.8h17.5c1.6,0,2.8-1.3,2.8-2.8v-17.5c0-1.6-1.3-2.8-2.8-2.8h-17.5c-1.6,0-2.8,1.3-2.8,2.8ZM221.6,196.2v17.5c0,.6-.5,1.2-1.1,1.2h-17.5c-.6,0-1.2-.5-1.2-1.2v-17.5c0-.6.5-1.2,1.2-1.2h17.5c.6,0,1.1.5,1.1,1.2Z"/>
  <path class="st0" d="M224.8,196.2v17.5c0,1.6,1.3,2.8,2.8,2.8h17.5c1.6,0,2.8-1.3,2.8-2.8v-17.5c0-1.6-1.3-2.8-2.8-2.8h-17.5c-1.6,0-2.8,1.3-2.8,2.8ZM246.3,196.2v17.5c0,.6-.5,1.2-1.2,1.2h-17.5c-.6,0-1.2-.5-1.2-1.2v-17.5c0-.6.5-1.2,1.2-1.2h17.5c.6,0,1.2.5,1.2,1.2Z"/>
  <path class="st0" d="M249.5,196.2v17.5c0,1.6,1.3,2.8,2.8,2.8h17.5c1.6,0,2.8-1.3,2.8-2.8v-17.5c0-1.6-1.3-2.8-2.8-2.8h-17.5c-1.6,0-2.8,1.3-2.8,2.8ZM271,196.2v17.5c0,.6-.5,1.2-1.2,1.2h-17.5c-.6,0-1.1-.5-1.1-1.2v-17.5c0-.6.5-1.2,1.1-1.2h17.5c.6,0,1.2.5,1.2,1.2Z"/>
  <path class="st0" d="M274.2,196.2v17.5c0,1.6,1.3,2.8,2.8,2.8h17.5c1.6,0,2.8-1.3,2.8-2.8v-17.5c0-1.6-1.3-2.8-2.8-2.8h-17.5c-1.6,0-2.8,1.3-2.8,2.8ZM295.7,196.2v17.5c0,.6-.5,1.2-1.1,1.2h-17.5c-.6,0-1.2-.5-1.2-1.2v-17.5c0-.6.5-1.2,1.2-1.2h17.5c.6,0,1.1.5,1.1,1.2Z"/>
  <path class="st0" d="M298.9,196.2v17.5c0,1.6,1.3,2.8,2.8,2.8h17.5c1.6,0,2.8-1.3,2.8-2.8v-17.5c0-1.6-1.3-2.8-2.8-2.8h-17.5c-1.6,0-2.8,1.3-2.8,2.8ZM320.4,196.2v17.5c0,.6-.5,1.2-1.2,1.2h-17.5c-.6,0-1.2-.5-1.2-1.2v-17.5c0-.6.5-1.2,1.2-1.2h17.5c.6,0,1.2.5,1.2,1.2Z"/>
  <path class="st0" d="M323.6,196.2v17.5c0,1.6,1.3,2.8,2.8,2.8h17.5c1.6,0,2.8-1.3,2.8-2.8v-17.5c0-1.6-1.3-2.8-2.8-2.8h-17.5c-1.6,0-2.8,1.3-2.8,2.8ZM345,196.2v17.5c0,.6-.5,1.2-1.2,1.2h-17.5c-.6,0-1.1-.5-1.1-1.2v-17.5c0-.6.5-1.2,1.1-1.2h17.5c.6,0,1.2.5,1.2,1.2Z"/>
  <path class="st0" d="M348.2,196.2v17.5c0,1.6,1.3,2.8,2.8,2.8h17.5c1.6,0,2.8-1.3,2.8-2.8v-17.5c0-1.6-1.3-2.8-2.8-2.8h-17.5c-1.6,0-2.8,1.3-2.8,2.8ZM369.7,196.2v17.5c0,.6-.5,1.2-1.1,1.2h-17.5c-.6,0-1.2-.5-1.2-1.2v-17.5c0-.6.5-1.2,1.2-1.2h17.5c.6,0,1.1.5,1.1,1.2Z"/>
  <path class="st0" d="M372.9,196.2v17.5c0,1.6,1.3,2.8,2.8,2.8h17.5c1.6,0,2.8-1.3,2.8-2.8v-17.5c0-1.6-1.3-2.8-2.8-2.8h-17.5c-1.6,0-2.8,1.3-2.8,2.8ZM394.4,196.2v17.5c0,.6-.5,1.2-1.2,1.2h-17.5c-.6,0-1.2-.5-1.2-1.2v-17.5c0-.6.5-1.2,1.2-1.2h17.5c.6,0,1.2.5,1.2,1.2Z"/>
  <path class="st0" d="M482.6,216.5h31.8c1.6,0,2.8-1.3,2.8-2.8v-17.5c0-1.6-1.3-2.8-2.8-2.8h-31.8c-1.6,0-2.8,1.3-2.8,2.8v17.5c0,1.6,1.3,2.8,2.8,2.8ZM481.5,196.2c0-.6.5-1.2,1.2-1.2h31.8c.6,0,1.2.5,1.2,1.2v17.5c0,.6-.5,1.2-1.2,1.2h-31.8c-.6,0-1.2-.5-1.2-1.2v-17.5Z"/>
  <path class="st0" d="M398.3,196.2v17.5c0,1.6,1.3,2.8,2.8,2.8h41.1c1.6,0,2.8-1.3,2.8-2.8v-17.5c0-1.6-1.3-2.8-2.8-2.8h-41.1c-1.6,0-2.8,1.3-2.8,2.8ZM443.3,196.2v17.5c0,.6-.5,1.2-1.1,1.2h-41.1c-.6,0-1.2-.5-1.2-1.2v-17.5c0-.6.5-1.2,1.2-1.2h41.1c.6,0,1.1.5,1.1,1.2Z"/>
  <path class="st0" d="M72.4,217.7h-17.5c-1.6,0-2.8,1.3-2.8,2.8v17.5c0,1.6,1.3,2.8,2.8,2.8h17.5c1.6,0,2.8-1.3,2.8-2.8v-17.5c0-1.6-1.3-2.8-2.8-2.8ZM73.5,238c0,.6-.5,1.2-1.1,1.2h-17.5c-.6,0-1.2-.5-1.2-1.2v-17.5c0-.6.5-1.1,1.2-1.1h17.5c.6,0,1.1.5,1.1,1.1v17.5Z"/>
  <path class="st0" d="M109,217.7h-29.4c-1.6,0-2.8,1.3-2.8,2.8v17.5c0,1.6,1.3,2.8,2.8,2.8h29.4c1.4,0,2.6-1.1,2.8-2.4h0s0,0,0,0c0,0,0-.2,0-.3h0v-17.5c0-1.6-1.3-2.8-2.8-2.8ZM110.1,238h0c0,.7-.5,1.2-1.2,1.2h-29.4c-.6,0-1.2-.5-1.2-1.2v-17.5c0-.6.5-1.1,1.2-1.1h29.4c.6,0,1.2.5,1.2,1.1v17.4Z"/>
  <path class="st0" d="M136.5,238v-17.5c0-1.6-1.3-2.8-2.8-2.8h-17.5c-1.6,0-2.8,1.3-2.8,2.8v17.5c0,1.6,1.3,2.8,2.8,2.8h17.5c1.6,0,2.8-1.3,2.8-2.8ZM115,238v-17.5c0-.6.5-1.1,1.2-1.1h17.5c.6,0,1.1.5,1.1,1.1v17.5c0,.6-.5,1.2-1.1,1.2h-17.5c-.6,0-1.2-.5-1.2-1.2Z"/>
  <path class="st0" d="M140.9,217.7c-1.6,0-2.8,1.3-2.8,2.8v17.5c0,1.6,1.3,2.8,2.8,2.8h17.5c1.6,0,2.8-1.3,2.8-2.8v-17.5c0-1.6-1.3-2.8-2.8-2.8h-17.5ZM159.5,220.5v17.5c0,.6-.5,1.2-1.2,1.2h-17.5c-.6,0-1.2-.5-1.2-1.2v-17.5c0-.6.5-1.1,1.2-1.1h17.5c.6,0,1.2.5,1.2,1.1Z"/>
  <path class="st0" d="M165.6,217.7c-1.6,0-2.8,1.3-2.8,2.8v17.5c0,1.6,1.3,2.8,2.8,2.8h17.5c1.6,0,2.8-1.3,2.8-2.8v-17.5c0-1.6-1.3-2.8-2.8-2.8h-17.5ZM184.2,220.5v17.5c0,.6-.5,1.2-1.2,1.2h-17.5c-.6,0-1.2-.5-1.2-1.2v-17.5c0-.6.5-1.1,1.2-1.1h17.5c.6,0,1.2.5,1.2,1.1Z"/>
  <path class="st0" d="M340.1,242.1H122.4c-1.6,0-2.8,1.3-2.8,2.8v17.5c0,1.6,1.3,2.8,2.8,2.8h217.7c1.6,0,2.8-1.3,2.8-2.8v-17.5c0-1.6-1.3-2.8-2.8-2.8ZM341.3,262.4c0,.6-.5,1.2-1.2,1.2H122.4c-.6,0-1.2-.5-1.2-1.2v-17.5c0-.6.5-1.2,1.2-1.2h217.7c.6,0,1.2.5,1.2,1.2v17.5Z"/>
  <path class="st0" d="M190.2,217.7c-1.6,0-2.8,1.3-2.8,2.8v17.5c0,1.6,1.3,2.8,2.8,2.8h17.5c1.6,0,2.8-1.3,2.8-2.8v-17.5c0-1.6-1.3-2.8-2.8-2.8h-17.5ZM208.9,220.5v17.5c0,.6-.5,1.2-1.1,1.2h-17.5c-.6,0-1.2-.5-1.2-1.2v-17.5c0-.6.5-1.1,1.2-1.1h17.5c.6,0,1.1.5,1.1,1.1Z"/>
  <path class="st0" d="M214.9,217.7c-1.6,0-2.8,1.3-2.8,2.8v17.5c0,1.6,1.3,2.8,2.8,2.8h17.5c1.6,0,2.8-1.3,2.8-2.8v-17.5c0-1.6-1.3-2.8-2.8-2.8h-17.5ZM233.6,220.5v17.5c0,.6-.5,1.2-1.2,1.2h-17.5c-.6,0-1.2-.5-1.2-1.2v-17.5c0-.6.5-1.1,1.2-1.1h17.5c.6,0,1.2.5,1.2,1.1Z"/>
  <path class="st0" d="M239.6,217.7c-1.6,0-2.8,1.3-2.8,2.8v17.5c0,1.6,1.3,2.8,2.8,2.8h17.5c1.6,0,2.8-1.3,2.8-2.8v-17.5c0-1.6-1.3-2.8-2.8-2.8h-17.5ZM258.2,220.5v17.5c0,.6-.5,1.2-1.2,1.2h-17.5c-.6,0-1.2-.5-1.2-1.2v-17.5c0-.6.5-1.1,1.2-1.1h17.5c.6,0,1.2.5,1.2,1.1Z"/>
  <path class="st0" d="M264.3,217.7c-1.6,0-2.8,1.3-2.8,2.8v17.5c0,1.6,1.3,2.8,2.8,2.8h17.5c1.6,0,2.8-1.3,2.8-2.8v-17.5c0-1.6-1.3-2.8-2.8-2.8h-17.5ZM282.9,220.5v17.5c0,.6-.5,1.2-1.1,1.2h-17.5c-.6,0-1.2-.5-1.2-1.2v-17.5c0-.6.5-1.1,1.2-1.1h17.5c.6,0,1.1.5,1.1,1.1Z"/>
  <path class="st0" d="M289,217.7c-1.6,0-2.8,1.3-2.8,2.8v17.5c0,1.6,1.3,2.8,2.8,2.8h17.5c1.6,0,2.8-1.3,2.8-2.8v-17.5c0-1.6-1.3-2.8-2.8-2.8h-17.5ZM307.6,220.5v17.5c0,.6-.5,1.2-1.2,1.2h-17.5c-.6,0-1.2-.5-1.2-1.2v-17.5c0-.6.5-1.1,1.2-1.1h17.5c.6,0,1.2.5,1.2,1.1Z"/>
  <path class="st0" d="M313.7,217.7c-1.6,0-2.8,1.3-2.8,2.8v17.5c0,1.6,1.3,2.8,2.8,2.8h17.5c1.6,0,2.8-1.3,2.8-2.8v-17.5c0-1.6-1.3-2.8-2.8-2.8h-17.5ZM332.3,220.5v17.5c0,.6-.5,1.2-1.2,1.2h-17.5c-.6,0-1.2-.5-1.2-1.2v-17.5c0-.6.5-1.1,1.2-1.1h17.5c.6,0,1.2.5,1.2,1.1Z"/>
  <path class="st0" d="M355.8,217.7h-17.5c-1.6,0-2.8,1.3-2.8,2.8v17.5c0,1.6,1.3,2.8,2.8,2.8h17.5c1.6,0,2.8-1.3,2.8-2.8v-17.5c0-1.6-1.3-2.8-2.8-2.8ZM357,238c0,.6-.5,1.2-1.1,1.2h-17.5c-.6,0-1.2-.5-1.2-1.2v-17.5c0-.6.5-1.1,1.2-1.1h17.5c.6,0,1.1.5,1.1,1.1v17.5Z"/>
  <path class="st0" d="M393.5,217.7h-30.4c-1.6,0-2.8,1.3-2.8,2.8v17.5c0,1.6,1.3,2.8,2.8,2.8h30.4c1.6,0,2.8-1.3,2.8-2.8v-17.5c0-1.6-1.3-2.8-2.8-2.8ZM394.6,238c0,.6-.5,1.2-1.2,1.2h-30.4c-.6,0-1.2-.5-1.2-1.2v-17.5c0-.6.5-1.1,1.2-1.1h30.4c.6,0,1.2.5,1.2,1.1v17.5Z"/>
  <path class="st0" d="M417.5,217.7h-17.5c-1.6,0-2.8,1.3-2.8,2.8v17.5c0,1.6,1.3,2.8,2.8,2.8h17.5c1.6,0,2.8-1.3,2.8-2.8v-17.5c0-1.6-1.3-2.8-2.8-2.8ZM418.6,238c0,.6-.5,1.2-1.2,1.2h-17.5c-.6,0-1.2-.5-1.2-1.2v-17.5c0-.6.5-1.1,1.2-1.1h17.5c.6,0,1.2.5,1.2,1.1v17.5Z"/>
  <path class="st0" d="M482.6,240.9h31.8c1.6,0,2.8-1.3,2.8-2.8v-17.5c0-1.6-1.3-2.8-2.8-2.8h-31.8c-1.6,0-2.8,1.3-2.8,2.8v17.5c0,1.6,1.3,2.8,2.8,2.8ZM481.5,220.5c0-.6.5-1.1,1.2-1.1h31.8c.6,0,1.2.5,1.2,1.1v17.5c0,.6-.5,1.2-1.2,1.2h-31.8c-.6,0-1.2-.5-1.2-1.2v-17.5Z"/>
  <path class="st0" d="M442.2,217.7h-17.5c-1.6,0-2.8,1.3-2.8,2.8v17.5c0,1.6,1.3,2.8,2.8,2.8h17.5c1.6,0,2.8-1.3,2.8-2.8v-17.5c0-1.6-1.3-2.8-2.8-2.8ZM443.3,238c0,.6-.5,1.2-1.1,1.2h-17.5c-.6,0-1.2-.5-1.2-1.2v-17.5c0-.6.5-1.1,1.2-1.1h17.5c.6,0,1.1.5,1.1,1.1v17.5Z"/>
  <path class="st0" d="M431.8,167.7h17.5c1.6,0,2.8-1.3,2.8-2.8v-17.5c0-1.6-1.3-2.8-2.8-2.8h-17.5c-1.6,0-2.8,1.3-2.8,2.8v17.5c0,1.6,1.3,2.8,2.8,2.8ZM430.6,147.3c0-.6.5-1.2,1.2-1.2h17.5c.6,0,1.2.5,1.2,1.2v17.5c0,.6-.5,1.2-1.2,1.2h-17.5c-.6,0-1.2-.5-1.2-1.2v-17.5Z"/>
  <path class="st0" d="M482.6,167.7h31.8c1.6,0,2.8-1.3,2.8-2.8v-17.5c0-1.6-1.3-2.8-2.8-2.8h-31.8c-1.6,0-2.8,1.3-2.8,2.8v17.5c0,1.6,1.3,2.8,2.8,2.8ZM481.5,147.3c0-.6.5-1.2,1.2-1.2h31.8c.6,0,1.2.5,1.2,1.2v17.5c0,.6-.5,1.2-1.2,1.2h-31.8c-.6,0-1.2-.5-1.2-1.2v-17.5Z"/>
  <path class="st0" d="M454.2,141.7H56.7s0,0,0,0c-.4,0-.8.4-.8.8v48h-5.8c-.5,0-.8.4-.8.8v52.1c0,.5.4.8.8.8h66.2v23.1c0,.5.4.8.8.8h227.5c.5,0,.8-.4.8-.8v-23.4h101.4c.5,0,.8-.4.8-.8v-48h6.4c.5,0,.8-.4.8-.8v-51.8c0-.5-.4-.8-.8-.8ZM453.4,193.5h-6.4c-.5,0-.8.4-.8.8v48h-101.4c-.5,0-.8.4-.8.8v23.4H118v-23.1c0-.5-.4-.8-.8-.8H51v-50.4h5.8c.5,0,.8-.4.8-.8v-48s395.8,0,395.8,0v50.1Z"/>
  <path class="st0" d="M518.5,142.2h-40.2s0,0-.1,0c-.4,0-.7.4-.7.8v99.6c0,.5.4.8.8.8h40.2c.5,0,.8-.4.8-.8v-99.6c0-.5-.4-.8-.8-.8ZM517.7,241.9h-38.5v-97.9h38.5v97.9Z"/>
  <path class="st0" d="M548.2,133H45.8c-2.1,0-3.8,1.7-3.8,3.8v137.5c0,2.1,1.7,3.8,3.8,3.8h502.4c2.1,0,3.8-1.7,3.8-3.8v-137.5c0-2.1-1.7-3.8-3.8-3.8ZM550.3,274.3c0,1.2-.9,2.2-2.1,2.2H45.8c-1.2,0-2.2-1-2.2-2.2v-137.5c0-1.2,1-2.1,2.2-2.1h502.4c1.2,0,2.1.9,2.1,2.1v137.5Z"/>
  <path class="st0" d="M494.4,81.5c0,2.7,2.2,4.9,4.9,4.9s4.9-2.2,4.9-4.9-2.2-4.9-4.9-4.9-4.9,2.2-4.9,4.9ZM502.6,81.5c0,1.8-1.5,3.3-3.3,3.3s-3.3-1.5-3.3-3.3,1.5-3.2,3.3-3.2,3.3,1.4,3.3,3.2Z"/>
</svg>