<?xml version="1.0" encoding="UTF-8"?>
<svg id="Layer_3" xmlns="http://www.w3.org/2000/svg" version="1.1" xmlns:cc="http://creativecommons.org/ns#" xmlns:dc="http://purl.org/dc/elements/1.1/" xmlns:rdf="http://www.w3.org/1999/02/22-rdf-syntax-ns#" viewBox="0 0 598.2 350.3">
  <!-- Generator: Adobe Illustrator 29.0.1, SVG Export Plug-In . SVG Version: 2.1.0 Build 192)  -->
  <defs>
    <style>
      .st0 {
        fill: #f4f4f4;
      }
    </style>
  </defs>
  <path id="circle3" class="st0" d="M122.5,80.9c-39.2,0-71,31.8-71,71s31.8,71,71,71,71-31.8,71-71-31.8-71-71-71ZM122.5,82.7c38.2,0,69.1,30.9,69.1,69.1s-31,69.1-69.1,69.1-69.1-31-69.1-69.1c0-38.2,30.9-69.1,69.1-69.1Z"/>
  <path id="circle5" class="st0" d="M122.5,96.3c-30.7,0-55.5,24.9-55.5,55.6s24.9,55.6,55.5,55.6,55.6-24.9,55.6-55.6-24.9-55.6-55.6-55.6ZM122.5,98.2c29.7,0,53.7,24,53.7,53.7s-24,53.7-53.7,53.7-53.7-24-53.7-53.7c0-29.7,24-53.7,53.7-53.7Z"/>
  <path id="circle7" class="st0" d="M122.5,138.7c-7.2,0-13.1,5.9-13.1,13.1s5.9,13.1,13.1,13.1,13.1-5.9,13.1-13.1-5.9-13.1-13.1-13.1ZM122.5,140.6c6.2,0,11.2,5,11.2,11.2s-5,11.2-11.2,11.2-11.2-5-11.2-11.2c0-6.2,5-11.2,11.2-11.2Z"/>
  <g id="g101">
    <path id="circle103" class="st0" d="M458,105.1c-16.9,0-30.6,13.7-30.6,30.6s13.7,30.6,30.6,30.6,30.6-13.7,30.6-30.6-13.7-30.6-30.6-30.6ZM458,106.9c15.9,0,28.7,12.9,28.7,28.8s-12.8,28.7-28.7,28.7-28.7-12.9-28.7-28.7c0-15.9,12.9-28.8,28.7-28.8Z"/>
    <path id="circle105" class="st0" d="M458,114c-12,0-21.7,9.7-21.7,21.7s9.8,21.7,21.7,21.7,21.7-9.7,21.7-21.7-9.7-21.7-21.7-21.7ZM458,115.9c11,0,19.8,8.9,19.8,19.8s-8.9,19.8-19.8,19.8-19.9-8.9-19.9-19.8c0-11,8.9-19.8,19.9-19.8Z"/>
  </g>
  <g id="g107">
    <path id="circle109" class="st0" d="M458,196.1c-16.9,0-30.6,13.7-30.6,30.6s13.7,30.6,30.6,30.6,30.6-13.7,30.6-30.6-13.7-30.6-30.6-30.6ZM458,198c15.9,0,28.7,12.9,28.7,28.7s-12.8,28.7-28.7,28.7-28.7-12.9-28.7-28.7c0-15.9,12.9-28.7,28.7-28.7Z"/>
    <path id="circle111" class="st0" d="M458,205c-12,0-21.7,9.8-21.7,21.7s9.8,21.7,21.7,21.7,21.7-9.7,21.7-21.7-9.7-21.7-21.7-21.7ZM458,206.9c11,0,19.8,8.9,19.8,19.9s-8.9,19.8-19.8,19.8-19.9-8.9-19.9-19.8c0-11,8.9-19.9,19.9-19.9Z"/>
  </g>
  <g id="g113">
    <path id="circle115" class="st0" d="M403,149.8c-16.9,0-30.6,13.7-30.6,30.6s13.7,30.6,30.6,30.6,30.6-13.7,30.6-30.6c0-16.9-13.7-30.6-30.6-30.6ZM403,151.7c15.9,0,28.8,12.9,28.8,28.7s-12.9,28.8-28.8,28.8-28.7-12.9-28.7-28.8,12.9-28.7,28.7-28.7Z"/>
    <path id="circle117" class="st0" d="M403,158.7c-12,0-21.7,9.7-21.7,21.7s9.7,21.7,21.7,21.7,21.7-9.7,21.7-21.7-9.8-21.7-21.7-21.7ZM403,160.6c11,0,19.9,8.9,19.9,19.8s-8.9,19.8-19.9,19.8-19.8-8.9-19.8-19.8c0-11,8.9-19.8,19.8-19.8Z"/>
  </g>
  <g id="g119">
    <path id="circle121" class="st0" d="M512.3,149.8c-16.9,0-30.6,13.7-30.6,30.6s13.7,30.6,30.6,30.6,30.6-13.7,30.6-30.6c0-16.9-13.7-30.6-30.6-30.6ZM512.3,151.7c15.9,0,28.7,12.9,28.7,28.7s-12.9,28.8-28.7,28.8-28.7-12.9-28.7-28.8,12.9-28.7,28.7-28.7Z"/>
    <path id="circle123" class="st0" d="M512.3,158.7c-12,0-21.7,9.7-21.7,21.7s9.7,21.7,21.7,21.7,21.7-9.7,21.7-21.7-9.8-21.7-21.7-21.7ZM512.3,160.6c11,0,19.9,8.9,19.9,19.8s-8.9,19.8-19.9,19.8-19.8-8.9-19.8-19.8c0-11,8.9-19.8,19.8-19.8Z"/>
  </g>
  <path id="path125" class="st0" d="M138.7,99.6c-3.8,4.6-7,12.5-8.4,20.4-1.4,7.8-1,15.7,3.2,19.9,4.5,4.5,12.2,5.7,20.2,4.8,7.9-.9,16.1-4,21.6-8.5l-1.2-1.4c-5.1,4.2-13.1,7.1-20.7,8s-14.8-.4-18.6-4.3c-3.3-3.4-4-10.6-2.6-18.2,1.3-7.6,4.5-15.3,8-19.5l-1.4-1.2Z"/>
  <path id="path127" class="st0" d="M97.4,159.1c-1.9,0-3.9,0-5.9.3-7.9.9-16.1,4-21.6,8.4l1.2,1.4c5.1-4.2,13.1-7.1,20.7-8s14.8.4,18.6,4.3c3.3,3.4,4,10.6,2.6,18.2-1.3,7.6-4.5,15.3-8,19.5l1.4,1.2c3.8-4.6,7-12.5,8.4-20.4,1.4-7.8,1-15.7-3.2-19.9-3.4-3.4-8.6-4.9-14.3-5.1Z"/>
  <path id="path129" class="st0" d="M148.5,159.1c-5.7-.3-10.9.7-14,3.8-4.5,4.5-5.7,12.2-4.8,20.2.9,7.9,3.9,16.1,8.4,21.6l1.5-1.2c-4.2-5.1-7.2-13.1-8-20.7s.4-14.8,4.3-18.6c3.4-3.3,10.6-4,18.2-2.6,7.6,1.3,15.3,4.5,19.5,8l1.2-1.4c-4.6-3.8-12.5-7-20.4-8.4-2-.3-3.9-.6-5.8-.7Z"/>
  <path id="path131" class="st0" d="M106.8,99.6l-1.4,1.2c4.2,5.1,7.1,13,8,20.6.9,7.6-.4,14.8-4.3,18.6-3.4,3.3-10.6,4-18.2,2.7s-15.3-4.5-19.5-8l-1.2,1.4c4.6,3.8,12.5,7,20.4,8.4,7.8,1.4,15.7,1,19.9-3.2,4.5-4.5,5.7-12.3,4.8-20.2-.9-7.9-4-16.1-8.5-21.6Z"/>
  <path id="path133" class="st0" d="M383.1,69.9l-.3.2h-.2c0,.1,0,.2,0,.2h0c0,0-146.5,192.8-146.5,192.8h0s0,0,0,0l-.2.4-.8,1.4h159.6c2.8,0,6,3,6,3h0s0,0,0,0c19.6,16.6,45,26.7,72.7,26.7,62.1,0,112.4-50.3,112.4-112.4s-50.3-112.4-112.4-112.4h-90.1ZM383.8,71.8h89.4c61,0,110.5,49.5,110.5,110.5s-49.5,110.5-110.5,110.5-52.1-9.8-71.4-26.1c0,0,0,0,0,0,0-.1-3.3-3.5-7.3-3.5h-156.1l145.5-191.3Z"/>
  <path id="path135" class="st0" d="M123.2,40.2c-62.1,0-112.4,50.3-112.4,112.4s50.3,112.4,112.4,112.4h106.6l.3-.3.4-.4h0s0,0,0,0l146.5-192.6.6-.7-.7-.6h-.2c0-.1-.3-.3-.3-.3h-173.4c-1.7,0-3.9-1-5.5-2-1.6-1-2.8-2-2.8-2h0c-19.4-16-44.3-25.7-71.5-25.7ZM123.2,42.1c26.7,0,51.2,9.5,70.3,25.2h0s0,0,0,0c0,0,1.2,1.1,3,2.2,1.8,1.1,4.1,2.3,6.5,2.3h171.4l-145.3,191.2h0c0,0,0,0,0,0h-105.8c-61,0-110.5-49.4-110.5-110.5S62.2,42.1,123.2,42.1Z"/>
  <path id="line137" class="st0" d="M375.6,71v1.9h7v-1.9h-7Z"/>
  <path id="line139" class="st0" d="M230.2,262.1v1.9h6.8v-1.9h-6.8Z"/>
  <path id="circle141" class="st0" d="M122.5,142.9c-4.9,0-8.9,4-8.9,8.9s4,8.9,8.9,8.9,9-4,9-8.9c0-4.9-4-8.9-9-8.9ZM122.5,144.8c3.9,0,7.1,3.1,7.1,7s-3.2,7-7.1,7-7-3.1-7-7c0-3.9,3.1-7,7-7Z"/>
</svg>