<?xml version="1.0" encoding="UTF-8"?>
<svg id="Layer_3" xmlns="http://www.w3.org/2000/svg" version="1.1" xmlns:cc="http://creativecommons.org/ns#" xmlns:dc="http://purl.org/dc/elements/1.1/" xmlns:rdf="http://www.w3.org/1999/02/22-rdf-syntax-ns#" viewBox="0 0 598.2 350.3">
  <!-- Generator: Adobe Illustrator 29.1.0, SVG Export Plug-In . SVG Version: 2.1.0 Build 142)  -->
  <defs>
    <style>
      .st0 {
        fill: #f4f4f4;
      }
    </style>
  </defs>
  <path class="st0" d="M158.4,180.9h-7.4c-2.8,0-5.2,2.3-5.2,5.2v6.3c0,2.8,2.3,5.2,5.2,5.2h7.4c2.8,0,5.2-2.3,5.2-5.2v-6.3c0-2.8-2.3-5.2-5.2-5.2ZM161.9,192.4c0,2-1.6,3.5-3.5,3.5h-7.4c-2,0-3.5-1.6-3.5-3.5v-6.3c0-2,1.6-3.5,3.5-3.5h7.4c2,0,3.5,1.6,3.5,3.5v6.3s0,0,0,0Z"/>
  <path class="st0" d="M182.4,180.9h-7.4c-2.9,0-5.2,2.3-5.2,5.2v6.3c0,2.8,2.3,5.2,5.2,5.2h7.4c2.8,0,5.2-2.3,5.2-5.2v-6.3c0-2.8-2.3-5.2-5.2-5.2ZM185.9,192.4c0,2-1.6,3.5-3.5,3.5h-7.4c-2,0-3.5-1.6-3.5-3.5v-6.3c0-2,1.6-3.5,3.5-3.5h7.4c2,0,3.5,1.6,3.5,3.5v6.3s0,0,0,0Z"/>
  <path class="st0" d="M206.4,180.9h-7.4c-2.8,0-5.2,2.3-5.2,5.2v6.3c0,2.8,2.3,5.2,5.2,5.2h7.4c2.8,0,5.2-2.3,5.2-5.2v-6.3c0-2.8-2.3-5.2-5.2-5.2ZM209.9,192.4c0,2-1.6,3.5-3.5,3.5h-7.4c-2,0-3.5-1.6-3.5-3.5v-6.3c0-2,1.6-3.5,3.5-3.5h7.4c2,0,3.5,1.6,3.5,3.5v6.3Z"/>
  <path class="st0" d="M230.4,180.9h-7.4c-2.8,0-5.2,2.3-5.2,5.2v6.3c0,2.8,2.3,5.2,5.2,5.2h7.4c2.8,0,5.2-2.3,5.2-5.2v-6.3c0-2.8-2.3-5.2-5.2-5.2ZM233.9,192.4c0,2-1.6,3.5-3.5,3.5h-7.4c-2,0-3.5-1.6-3.5-3.5v-6.3c0-2,1.6-3.5,3.5-3.5h7.4c2,0,3.5,1.6,3.5,3.5v6.3Z"/>
  <path class="st0" d="M259.5,186c0-2.8-2.3-5.2-5.2-5.2h-7.4c-2.8,0-5.2,2.3-5.2,5.2v6.3c0,2.8,2.3,5.2,5.2,5.2h7.4c2.9,0,5.2-2.3,5.2-5.2h0v-6.3ZM257.9,192.4c0,2-1.6,3.5-3.5,3.5h-7.4c-2,0-3.5-1.6-3.5-3.5v-6.3c0-2,1.6-3.5,3.5-3.5h7.4c2,0,3.5,1.6,3.5,3.5v6.3Z"/>
  <path class="st0" d="M278.4,180.9h-7.4c-2.9,0-5.2,2.3-5.2,5.2v6.3c0,2.8,2.3,5.2,5.2,5.2h7.4c2.8,0,5.2-2.3,5.2-5.2v-6.3c0-2.8-2.3-5.2-5.2-5.2ZM281.9,192.4c0,2-1.6,3.5-3.5,3.5h-7.4c-2,0-3.5-1.6-3.5-3.5v-6.3c0-2,1.6-3.5,3.5-3.5h7.4c2,0,3.5,1.6,3.5,3.5v6.3s0,0,0,0Z"/>
  <path class="st0" d="M302.4,180.9h-7.4c-2.8,0-5.2,2.3-5.2,5.2v6.3c0,2.8,2.3,5.2,5.2,5.2h7.4c2.8,0,5.2-2.3,5.2-5.2v-6.3c0-2.8-2.3-5.2-5.2-5.2ZM305.9,192.4c0,2-1.6,3.5-3.5,3.5h-7.4c-2,0-3.5-1.6-3.5-3.5v-6.3c0-2,1.6-3.5,3.5-3.5h7.4c2,0,3.5,1.6,3.5,3.5v6.3s0,0,0,0Z"/>
  <path class="st0" d="M331.5,186c0-2.8-2.3-5.2-5.2-5.2h-7.4c-2.8,0-5.2,2.3-5.2,5.2v6.3c0,2.8,2.3,5.2,5.2,5.2h7.4c2.8,0,5.2-2.3,5.2-5.2h0v-6.3ZM329.9,192.4c0,2-1.6,3.5-3.5,3.5h-7.4c-2,0-3.5-1.6-3.5-3.5v-6.3c0-2,1.6-3.5,3.5-3.5h7.4c2,0,3.5,1.6,3.5,3.5v6.3Z"/>
  <path class="st0" d="M355.5,186c0-2.8-2.3-5.2-5.2-5.2h-7.4c-2.8,0-5.2,2.3-5.2,5.2v6.3c0,2.8,2.3,5.2,5.2,5.2h7.4c2.8,0,5.2-2.3,5.2-5.2h0v-6.3ZM353.9,192.4c0,2-1.6,3.5-3.5,3.5h-7.4c-2,0-3.5-1.6-3.5-3.5v-6.3c0-2,1.6-3.5,3.5-3.5h7.4c2,0,3.5,1.6,3.5,3.5v6.3s0,0,0,0Z"/>
  <path class="st0" d="M379.5,186c0-2.8-2.3-5.2-5.2-5.2h-7.4c-2.8,0-5.2,2.3-5.2,5.2v6.3c0,2.8,2.3,5.2,5.2,5.2h7.4c2.8,0,5.2-2.3,5.2-5.2h0v-6.3ZM377.9,192.4c0,2-1.6,3.5-3.5,3.5h-7.4c-2,0-3.5-1.6-3.5-3.5v-6.3c0-2,1.6-3.5,3.5-3.5h7.4c2,0,3.5,1.6,3.5,3.5v6.3Z"/>
  <path class="st0" d="M403.5,186c0-2.8-2.3-5.2-5.2-5.2h-7.4c-2.8,0-5.2,2.3-5.2,5.2v6.3c0,2.8,2.3,5.2,5.2,5.2h0s7.4,0,7.4,0c2.8,0,5.2-2.3,5.2-5.2h0v-6.3ZM401.9,192.4c0,2-1.6,3.5-3.5,3.5h-7.4c-2,0-3.5-1.6-3.5-3.5v-6.3c0-2,1.6-3.5,3.5-3.5h7.4c2,0,3.5,1.6,3.5,3.5v6.3Z"/>
  <path class="st0" d="M427.5,186c0-2.8-2.3-5.2-5.2-5.2h-7.4c-2.8,0-5.2,2.3-5.2,5.2v6.3c0,2.8,2.3,5.2,5.2,5.2h7.4c2.8,0,5.2-2.3,5.2-5.2h0v-6.3ZM425.9,192.4c0,2-1.6,3.5-3.5,3.5h-7.4c-2,0-3.5-1.6-3.5-3.5v-6.3c0-2,1.6-3.5,3.5-3.5h7.4c2,0,3.5,1.6,3.5,3.5v6.3s0,0,0,0Z"/>
  <path class="st0" d="M451.5,186c0-2.8-2.3-5.2-5.2-5.2h-7.4c-2.8,0-5.2,2.3-5.2,5.2v6.3c0,2.8,2.3,5.2,5.2,5.2h7.4c2.8,0,5.2-2.3,5.2-5.2h0v-6.3ZM449.9,192.4c0,2-1.6,3.5-3.5,3.5h-7.4c-2,0-3.5-1.6-3.5-3.5v-6.3c0-2,1.6-3.5,3.5-3.5h7.4c2,0,3.5,1.6,3.5,3.5v6.3Z"/>
  <path class="st0" d="M146.1,205.1h-7.4c-2.8,0-5.2,2.3-5.2,5.2v6.3c0,2.8,2.3,5.2,5.2,5.2h7.4c2.8,0,5.2-2.3,5.2-5.2v-6.3c0-2.8-2.3-5.2-5.2-5.2ZM149.6,216.6c0,2-1.6,3.5-3.5,3.5h-7.4c-2,0-3.5-1.6-3.5-3.5v-6.3c0-2,1.6-3.5,3.5-3.5h7.4c2,0,3.5,1.6,3.5,3.5v6.3Z"/>
  <path class="st0" d="M162.6,221.8h7.4c2.8,0,5.2-2.3,5.2-5.2v-6.3c0-2.8-2.3-5.2-5.2-5.2h-7.4c-2.8,0-5.2,2.3-5.2,5.2v6.3c0,2.8,2.3,5.2,5.2,5.2ZM159.1,210.3c0-2,1.6-3.5,3.5-3.5h7.4c2,0,3.5,1.6,3.5,3.5v6.3c0,2-1.6,3.5-3.5,3.5h-7.4c-2,0-3.5-1.6-3.5-3.5v-6.3Z"/>
  <path class="st0" d="M186.6,221.8h7.4c2.8,0,5.2-2.3,5.2-5.2v-6.3c0-2.8-2.3-5.2-5.2-5.2h-7.4c-2.8,0-5.2,2.3-5.2,5.2v6.3c0,2.8,2.3,5.2,5.2,5.2ZM183.1,210.3c0-2,1.6-3.5,3.5-3.5h7.4c2,0,3.5,1.6,3.5,3.5v6.3c0,2-1.6,3.5-3.5,3.5h-7.4c-2,0-3.5-1.6-3.5-3.5v-6.3Z"/>
  <path class="st0" d="M210.6,221.8h7.4c2.8,0,5.2-2.3,5.2-5.2v-6.3c0-2.8-2.3-5.2-5.2-5.2h-7.4c-2.8,0-5.2,2.3-5.2,5.2v6.3c0,2.8,2.3,5.2,5.2,5.2ZM207.1,210.3c0-2,1.6-3.5,3.5-3.5h7.4c2,0,3.5,1.6,3.5,3.5v6.3c0,2-1.6,3.5-3.5,3.5h-7.4c-2,0-3.5-1.6-3.5-3.5v-6.3Z"/>
  <path class="st0" d="M234.6,221.8h7.4c2.8,0,5.2-2.3,5.2-5.2v-6.3c0-2.8-2.3-5.2-5.2-5.2h-7.4c-2.8,0-5.2,2.3-5.2,5.2v6.3c0,2.8,2.3,5.2,5.2,5.2ZM231.1,210.3c0-2,1.6-3.5,3.5-3.5h7.4c2,0,3.5,1.6,3.5,3.5v6.3c0,2-1.6,3.5-3.5,3.5h-7.4c-2,0-3.5-1.6-3.5-3.5v-6.3Z"/>
  <path class="st0" d="M258.6,221.8h7.4c2.8,0,5.2-2.3,5.2-5.2v-6.3c0-2.8-2.3-5.2-5.2-5.2h-7.4c-2.8,0-5.2,2.3-5.2,5.2v6.3c0,2.8,2.3,5.2,5.2,5.2ZM255.1,210.3c0-2,1.6-3.5,3.5-3.5h7.4c2,0,3.5,1.6,3.5,3.5v6.3c0,2-1.6,3.5-3.5,3.5h-7.4c-2,0-3.5-1.6-3.5-3.5v-6.3Z"/>
  <path class="st0" d="M282.6,221.8h7.4c2.8,0,5.2-2.3,5.2-5.2v-6.3c0-2.8-2.3-5.2-5.2-5.2h-7.4c-2.8,0-5.2,2.3-5.2,5.2v6.3c0,2.8,2.3,5.2,5.2,5.2ZM279.1,210.3c0-2,1.6-3.5,3.5-3.5h7.4c2,0,3.5,1.6,3.5,3.5v6.3c0,2-1.6,3.5-3.5,3.5h-7.4c-2,0-3.5-1.6-3.5-3.5v-6.3Z"/>
  <path class="st0" d="M306.6,221.8h7.4c2.8,0,5.2-2.3,5.2-5.2v-6.3c0-2.8-2.3-5.2-5.2-5.2h-7.4c-2.8,0-5.2,2.3-5.2,5.2v6.3c0,2.8,2.3,5.2,5.2,5.2ZM303.1,210.3c0-2,1.6-3.5,3.5-3.5h7.4c2,0,3.5,1.6,3.5,3.5v6.3c0,2-1.6,3.5-3.5,3.5h-7.4c-2,0-3.5-1.6-3.5-3.5v-6.3Z"/>
  <path class="st0" d="M330.6,221.8h7.4c2.8,0,5.2-2.3,5.2-5.2v-6.3c0-2.8-2.3-5.2-5.2-5.2h-7.4c-2.8,0-5.2,2.3-5.2,5.2v6.3c0,2.8,2.3,5.2,5.2,5.2ZM327.1,210.3c0-2,1.6-3.5,3.5-3.5h7.4c2,0,3.5,1.6,3.5,3.5v6.3c0,2-1.6,3.5-3.5,3.5h-7.4c-2,0-3.5-1.6-3.5-3.5v-6.3Z"/>
  <path class="st0" d="M354.6,221.8h7.4c2.8,0,5.2-2.3,5.2-5.2v-6.3c0-2.8-2.3-5.2-5.2-5.2h-7.4c-2.8,0-5.2,2.3-5.2,5.2v6.3c0,2.8,2.3,5.2,5.2,5.2ZM351.1,210.3c0-2,1.6-3.5,3.5-3.5h7.4c2,0,3.5,1.6,3.5,3.5v6.3c0,2-1.6,3.5-3.5,3.5h-7.4c-2,0-3.5-1.6-3.5-3.5v-6.3Z"/>
  <path class="st0" d="M378.6,221.8h7.4c2.8,0,5.2-2.3,5.2-5.2v-6.3c0-2.8-2.3-5.2-5.2-5.2h-7.4c-2.8,0-5.2,2.3-5.2,5.2v6.3c0,2.8,2.3,5.2,5.2,5.2ZM375,210.3c0-2,1.6-3.5,3.5-3.5h7.4c2,0,3.5,1.6,3.5,3.5v6.3c0,2-1.6,3.5-3.5,3.5h-7.4c-2,0-3.5-1.6-3.5-3.5v-6.3Z"/>
  <path class="st0" d="M402.6,221.8h7.4c2.8,0,5.2-2.3,5.2-5.2v-6.3c0-2.8-2.3-5.2-5.2-5.2h-7.4c-2.8,0-5.2,2.3-5.2,5.2v6.3c0,2.8,2.3,5.2,5.2,5.2ZM399,210.3c0-2,1.6-3.5,3.5-3.5h7.4c2,0,3.5,1.6,3.5,3.5v6.3c0,2-1.6,3.5-3.5,3.5h-7.4c-2,0-3.5-1.6-3.5-3.5v-6.3Z"/>
  <path class="st0" d="M426.6,221.8h7.4c2.8,0,5.2-2.3,5.2-5.2v-6.3c0-2.8-2.3-5.2-5.2-5.2h-7.4c-2.8,0-5.2,2.3-5.2,5.2v6.3c0,2.8,2.3,5.2,5.2,5.2ZM423,210.3c0-2,1.6-3.5,3.5-3.5h7.4c2,0,3.5,1.6,3.5,3.5v6.3c0,2-1.6,3.5-3.5,3.5h-7.4c-2,0-3.5-1.6-3.5-3.5v-6.3Z"/>
  <path class="st0" d="M466.3,201.2h-11.8c.2-.2.4-.5.4-.8h0v-22.2c0-.6-.5-1.2-1.2-1.2h-22.2c-.4,0-.7.2-.9.4-.2-.3-.5-.4-.9-.4h-22.2c-.4,0-.7.2-.9.4-.2-.3-.5-.4-.9-.4h-22.2c-.4,0-.7.2-.9.4-.2-.3-.5-.4-.9-.4h-22.2c-.4,0-.7.2-.9.4-.2-.3-.5-.4-.9-.4h-22.2c-.4,0-.7.2-.9.4-.2-.3-.5-.4-.9-.4h-22.2c-.4,0-.7.2-.9.4-.2-.3-.5-.4-.9-.4h-22.2c-.4,0-.7.2-.9.4-.2-.3-.5-.4-.9-.4h-22.2c-.4,0-.7.2-.9.4-.2-.3-.5-.4-.9-.4h-22.2c-.4,0-.7.2-.9.4-.2-.3-.5-.4-.9-.4h-22.2c-.4,0-.7.2-.9.4-.2-.3-.5-.4-.9-.4h-22.2c-.4,0-.7.2-.9.4-.2-.3-.5-.4-.9-.4h-22.2c-.4,0-.7.2-.9.4-.2-.3-.5-.4-.9-.4h-22.2c-.6,0-1.2.5-1.2,1.2v22.2c0,.3.1.6.4.8h-11.5c-.6,0-1.2.5-1.2,1.2v22.2c0,.6.5,1.2,1.2,1.2h5.5c-.2.2-.4.5-.4.8v22.2c0,.4.2.8.6,1-.4.2-.6.6-.6,1v22.2c0,.6.5,1.2,1.2,1.2h34.9c.4,0,.7-.2.9-.4.2.3.5.4.9.4h22.2c.4,0,.7-.2.9-.4.2.3.5.4.9.4h4c-.1.2-.2.4-.2.6v22.2c0,.6.5,1.2,1.2,1.2h194.8c.6,0,1.2-.5,1.2-1.2v-22.2c0-.2,0-.4-.2-.6h13.4c.4,0,.7-.2.9-.4.2.3.5.4.9.4h36.7c.6,0,1.2-.5,1.2-1.2h0v-22.2c0-.3-.1-.6-.4-.8h10.6c.6,0,1.2-.5,1.2-1.2v-22.2c0-.3-.1-.6-.4-.8h3.3c.6,0,1.2-.5,1.2-1.2h0v-22.2c0-.6-.5-1.2-1.2-1.2ZM443.3,225.4h-1.1c.2-.2.4-.5.4-.8h0v-22.2c0-.3-.1-.6-.4-.8h1.1c-.2.2-.4.5-.4.8v22.2c0,.3.1.6.4.8ZM413.2,250s0,0,0-.1h.2s0,0,0,.1ZM197.3,250s0,0,0-.1h.2s0,0,0,.1ZM173.3,250s0,0,0-.1h.2s0,0,0,.1ZM166.7,201s0,0,0,.1h-.2s0,0,0-.1ZM190.7,201s0,0,0,.1h-.2s0,0,0-.1ZM214.7,201s0,0,0,.1h-.2s0,0,0-.1ZM238.7,201s0,0,0,.1h-.2s0,0,0-.1ZM262.7,201s0,0,0,.1h-.2s0,0,0-.1ZM286.7,201s0,0,0,.1h-.2s0,0,0-.1ZM310.7,201s0,0,0,.1h-.2s0,0,0-.1ZM334.7,201s0,0,0,.1h-.2s0,0,0-.1ZM358.6,201s0,0,0,.1h-.2s0,0,0-.1ZM382.6,201s0,0,0,.1h-.2s0,0,0-.1ZM406.6,201s0,0,0,.1h-.2s0,0,0-.1ZM430.6,201s0,0,0,.1h-.2s0,0,0-.1ZM441,224.1h-21.3s0-21.3,0-21.3h21.3s0,21.3,0,21.3ZM418.4,225.4h-.2s0,0,0-.1c0,0,0,0,0,.1ZM417,202.8v21.3h-21.3v-21.3h21.3ZM394.4,225.4h-.2s0,0,0-.1c0,0,0,0,0,.1ZM365.2,250s0,0,0-.1h.2s0,0,0,.1ZM341.2,250s0,0,0-.1h.2s0,0,0,.1ZM317.2,250s0,0,0-.1h.2s0,0,0,.1ZM293.2,250s0,0,0-.1h.2s0,0,0,.1ZM269.3,250s0,0,0-.1h.2s0,0,0,.1ZM245.3,250s0,0,0-.1h.2s0,0,0,.1ZM243.9,251.2v21.3h-21.3v-21.3h21.3ZM375.3,227v21.3s-21.3,0-21.3,0v-21.3s21.3,0,21.3,0ZM352.6,249.5s0,0,0,.1h-.2s0,0,0-.1ZM352.6,225.8s0,0,0-.1h.2s0,0,0,.1ZM351.3,227v21.3h-21.3s0-21.3,0-21.3h21.3ZM328.6,249.5s0,0,0,.1h-.2s0,0,0-.1ZM328.6,225.8s0,0,0-.1h.2s0,0,0,.1ZM327.3,227v21.3h-21.3v-21.3h21.3ZM304.6,249.5s0,0,0,.1h-.2s0,0,0-.1ZM304.6,225.8s0,0,0-.1h.2s0,0,0,.1ZM303.3,227v21.3h-21.3v-21.3h21.3ZM280.6,249.5s0,0,0,.1h-.2s0,0,0-.1ZM280.6,225.8s0,0,0-.1h.2s0,0,0,.1ZM279.3,227v21.3s-21.3,0-21.3,0v-21.3h21.3ZM256.6,249.5s0,0,0,.1h-.2s0,0,0-.1ZM256.6,225.8s0,0,0-.1h.2s0,0,0,.1ZM255.3,227v21.3h-21.3v-21.3h21.3ZM232.6,225.8s0,0,0-.1h.2s0,0,0,.1ZM232.6,249.5s0,0,0,.1h-.2s0,0,0-.1ZM246.6,251.2h21.3v21.3h-21.3v-21.3ZM270.6,251.2h21.3v21.3h-21.3v-21.3ZM294.6,251.2h21.3v21.3h-21.3v-21.3ZM318.6,251.2h21.3v21.3h-21.3v-21.3ZM342.6,251.2h21.3v21.3h-21.3v-21.3ZM366.6,251.2h21.3v21.3h-21.3v-21.3ZM376.6,249.5s0,0,0,.1h-.2s0,0,0-.1ZM376.6,225.8s0,0,0-.1h.2s0,0,0,.1ZM393,202.8v21.3h-21.3v-21.3h21.3ZM370.4,225.4h-.2s0,0,0-.1c0,0,0,0,0,.1ZM369,202.8v21.3h-21.3v-21.3h21.3ZM346.4,225.4h-.2s0,0,0-.1c0,0,0,0,0,.1ZM345,202.8v21.3h-21.3s0-21.3,0-21.3h21.3ZM322.4,225.4h-.2s0,0,0-.1c0,0,0,0,0,.1ZM321,202.8v21.3h-21.3v-21.3h21.3ZM298.4,225.4h-.2s0,0,0-.1c0,0,0,0,0,.1ZM297,202.8v21.3h-21.3v-21.3h21.3ZM274.4,225.4h-.2s0,0,0-.1c0,0,0,0,0,.1ZM273,202.8v21.3h-21.3v-21.3h21.3ZM250.4,225.4h-.2s0,0,0-.1c0,0,0,0,0,.1ZM249,202.8v21.3h-21.3v-21.3h21.3ZM226.4,225.4h-.2s0,0,0-.1c0,0,0,0,0,.1ZM225,202.8v21.3h-21.3v-21.3h21.3ZM202.4,225.4h-.2s0,0,0-.1c0,0,0,0,0,.1ZM201,202.8v21.3h-21.3v-21.3h21.3ZM178.4,225.4h-.2s0,0,0-.1c0,0,0,0,0,.1ZM177,202.8v21.3h-21.3v-21.3h21.3ZM160.5,225.7h.2s0,0,0,.1c0,0,0,0,0-.1ZM162,248.3v-21.3h21.3v21.3h-21.3ZM184.5,225.7h.2s0,0,0,.1c0,0,0,0,0-.1ZM186,248.3v-21.3h21.3v21.3h-21.3ZM208.5,225.7h.2s0,0,0,.1c0,0,0,0,0-.1ZM210,248.3v-21.3h21.3v21.3s-21.3,0-21.3,0ZM377.9,248.3v-21.3h21.3v21.3h-21.3ZM400.5,225.7h.2s0,0,0,.1c0,0,0,0,0-.1ZM401.9,248.3v-21.3h35.8v21.3h-35.8ZM418.3,201.6s0,0,0-.1h.2s0,0,0,.1ZM394.3,201.6s0,0,0-.1h.2s0,0,0,.1ZM370.3,201.6s0,0,0-.1h.2s0,0,0,.1ZM346.3,201.6s0,0,0-.1h.2s0,0,0,.1ZM322.3,201.6s0,0,0-.1h.2s0,0,0,.1ZM298.3,201.6s0,0,0-.1h.2s0,0,0,.1ZM274.3,201.6s0,0,0-.1h.2s0,0,0,.1ZM250.3,201.6s0,0,0-.1h.2s0,0,0,.1ZM226.3,201.6s0,0,0-.1h.2s0,0,0,.1ZM202.3,201.6s0,0,0-.1h.2s0,0,0,.1ZM178.3,201.6s0,0,0-.1h.2s0,0,0,.1ZM154.4,201.6s0,0,0-.1h.2s0,0,0,.1ZM154.4,225.3s0,0,0,.1h-.2s0,0,0-.1ZM159.3,227v21.3h-21.3v-21.3h21.3ZM160.6,249.5s0,0,0,.1h-.2s0,0,0-.1ZM184.6,249.5s0,0,0,.1h-.2s0,0,0-.1ZM208.6,249.5s0,0,0,.1h-.2s0,0,0-.1ZM221.3,249.9s0,0,0,.1c0,0,0,0,0-.1h.2ZM389.2,250s0,0,0-.1h.2s0,0,0,.1ZM400.6,249.5s0,0,0,.1h-.2s0,0,0-.1ZM439.1,249.5s0,0,0,.1h-.2s0,0,0-.1ZM439.1,225.8s0,0,0-.1h.2s0,0,0,.1ZM432,178.5h21.3s0,21.3,0,21.3h-21.3s0-21.3,0-21.3ZM408,178.5h21.3v21.3h-21.3s0-21.3,0-21.3ZM384,178.5h21.3v21.3h-21.3v-21.3ZM360,178.5h21.3v21.3h-21.3v-21.3ZM336,178.5h21.3v21.3h-21.3v-21.3ZM312,178.5h21.3v21.3h-21.3v-21.3ZM288,178.5h21.3v21.3s-21.3,0-21.3,0v-21.3ZM264,178.5h21.3v21.3h-21.3v-21.3ZM240,178.5h21.3v21.3h-21.3v-21.3ZM216,178.5h21.3v21.3h-21.3v-21.3ZM192,178.5h21.3v21.3h-21.3v-21.3ZM168,178.5h21.3v21.3h-21.3v-21.3ZM144,178.5h21.3v21.3h-21.3v-21.3ZM131.7,202.8h21.3v21.3h-21.3v-21.3ZM171.9,272.5h-34v-21.3h34v21.3ZM195.9,272.5h-21.3v-21.3h21.3v21.3ZM198.6,251.2h21.3v21.3h-21.3v-21.3ZM397.5,296.5h-194v-21.3h194v21.3ZM411.9,272.5h-21.3v-21.3h21.3v21.3ZM450.4,272.5h-35.8v-21.3h35.8v21.3ZM461.8,248.3h-21.3s0-21.3,0-21.3h21.3v21.3ZM465.9,224.1h-21.3v-21.3s21.3,0,21.3,0v21.3Z"/>
  <path class="st0" d="M451.5,221.8h7.4c2.8,0,5.2-2.3,5.2-5.2v-6.3c0-2.8-2.3-5.2-5.2-5.2h-7.4c-2.8,0-5.2,2.3-5.2,5.2v6.3c0,2.8,2.3,5.2,5.2,5.2ZM447.9,210.3c0-2,1.6-3.5,3.5-3.5h7.4c2,0,3.5,1.6,3.5,3.5v6.3c0,2-1.6,3.5-3.5,3.5h-7.4c-2,0-3.5-1.6-3.5-3.5v-6.3Z"/>
  <path class="st0" d="M144.9,246h7.4c2.8,0,5.2-2.3,5.2-5.2v-6.3c0-2.8-2.3-5.2-5.2-5.2h-7.4c-2.8,0-5.2,2.3-5.2,5.2v6.3c0,2.8,2.3,5.2,5.2,5.2ZM141.4,234.5c0-2,1.6-3.5,3.5-3.5h7.4c2,0,3.5,1.6,3.5,3.5v6.3c0,2-1.6,3.5-3.5,3.5h-7.4c-2,0-3.5-1.6-3.5-3.5v-6.3Z"/>
  <path class="st0" d="M176.4,229.3h-7.4c-2.8,0-5.2,2.3-5.2,5.2v6.3c0,2.8,2.3,5.2,5.2,5.2h7.4c2.8,0,5.2-2.3,5.2-5.2v-6.3c0-2.8-2.3-5.2-5.2-5.2ZM176.4,244.4h-7.4c-2,0-3.5-1.6-3.5-3.5v-6.3c0-2,1.6-3.5,3.5-3.5h7.4c2,0,3.5,1.6,3.5,3.5v6.3c0,2-1.6,3.5-3.5,3.5Z"/>
  <path class="st0" d="M200.3,229.3h-7.4c-2.8,0-5.2,2.3-5.2,5.2v6.3c0,2.8,2.3,5.2,5.2,5.2h7.4c2.8,0,5.2-2.3,5.2-5.2v-6.3c0-2.8-2.3-5.2-5.2-5.2ZM203.9,240.8c0,2-1.6,3.5-3.5,3.5h-7.4c-2,0-3.5-1.6-3.5-3.5v-6.3c0-2,1.6-3.5,3.5-3.5h7.4c2,0,3.5,1.6,3.5,3.5v6.3Z"/>
  <path class="st0" d="M224.3,229.3h-7.4c-2.8,0-5.2,2.3-5.2,5.2v6.3c0,2.8,2.3,5.2,5.2,5.2h7.4c2.8,0,5.2-2.3,5.2-5.2v-6.3c0-2.8-2.3-5.2-5.2-5.2ZM227.9,240.8c0,2-1.6,3.5-3.5,3.5h-7.4c-2,0-3.5-1.6-3.5-3.5v-6.3c0-2,1.6-3.5,3.5-3.5h7.4c2,0,3.5,1.6,3.5,3.5v6.3Z"/>
  <path class="st0" d="M240.9,246h7.4c2.8,0,5.2-2.3,5.2-5.2v-6.3c0-2.8-2.3-5.2-5.2-5.2h-7.4c-2.8,0-5.2,2.3-5.2,5.2v6.3c0,2.8,2.3,5.2,5.2,5.2ZM237.4,234.5c0-2,1.6-3.5,3.5-3.5h7.4c2,0,3.5,1.6,3.5,3.5v6.3c0,2-1.6,3.5-3.5,3.5h-7.4c-2,0-3.5-1.6-3.5-3.5v-6.3Z"/>
  <path class="st0" d="M264.9,246h7.4c2.8,0,5.2-2.3,5.2-5.2v-6.3c0-2.8-2.3-5.2-5.2-5.2h-7.4c-2.8,0-5.2,2.3-5.2,5.2v6.3c0,2.8,2.3,5.2,5.2,5.2ZM261.4,234.5c0-2,1.6-3.5,3.5-3.5h7.4c2,0,3.5,1.6,3.5,3.5v6.3c0,2-1.6,3.5-3.5,3.5h-7.4c-2,0-3.5-1.6-3.5-3.5v-6.3Z"/>
  <path class="st0" d="M288.9,246h7.4c2.8,0,5.2-2.3,5.2-5.2v-6.3c0-2.8-2.3-5.2-5.2-5.2h-7.4c-2.8,0-5.2,2.3-5.2,5.2v6.3c0,2.8,2.3,5.2,5.2,5.2ZM285.4,234.5c0-2,1.6-3.5,3.5-3.5h7.4c2,0,3.5,1.6,3.5,3.5v6.3c0,2-1.6,3.5-3.5,3.5h-7.4c-2,0-3.5-1.6-3.5-3.5v-6.3Z"/>
  <path class="st0" d="M312.9,246h7.4c2.8,0,5.2-2.3,5.2-5.2v-6.3c0-2.8-2.3-5.2-5.2-5.2h-7.4c-2.8,0-5.2,2.3-5.2,5.2v6.3c0,2.8,2.3,5.2,5.2,5.2ZM309.3,234.5c0-2,1.6-3.5,3.5-3.5h7.4c2,0,3.5,1.6,3.5,3.5v6.3c0,2-1.6,3.5-3.5,3.5h-7.4c-2,0-3.5-1.6-3.5-3.5v-6.3Z"/>
  <path class="st0" d="M336.9,246h7.4c2.8,0,5.2-2.3,5.2-5.2v-6.3c0-2.8-2.3-5.2-5.2-5.2h-7.4c-2.8,0-5.2,2.3-5.2,5.2v6.3c0,2.8,2.3,5.2,5.2,5.2ZM333.3,234.5c0-2,1.6-3.5,3.5-3.5h7.4c2,0,3.5,1.6,3.5,3.5v6.3c0,2-1.6,3.5-3.5,3.5h-7.4c-2,0-3.5-1.6-3.5-3.5v-6.3Z"/>
  <path class="st0" d="M360.9,246h7.4c2.8,0,5.2-2.3,5.2-5.2v-6.3c0-2.8-2.3-5.2-5.2-5.2h-7.4c-2.8,0-5.2,2.3-5.2,5.2v6.3c0,2.8,2.3,5.2,5.2,5.2ZM357.3,234.5c0-2,1.6-3.5,3.5-3.5h7.4c2,0,3.5,1.6,3.5,3.5v6.3c0,2-1.6,3.5-3.5,3.5h-7.4c-2,0-3.5-1.6-3.5-3.5v-6.3Z"/>
  <path class="st0" d="M392.3,229.3h-7.4c-2.9,0-5.2,2.3-5.2,5.2v6.3c0,2.8,2.3,5.2,5.2,5.2h7.4c2.8,0,5.2-2.3,5.2-5.2v-6.3c0-2.8-2.3-5.2-5.2-5.2ZM392.3,244.4h-7.4c-2,0-3.5-1.6-3.5-3.5v-6.3c0-2,1.6-3.5,3.5-3.5h7.4c2,0,3.5,1.6,3.5,3.5v6.3c0,2-1.6,3.5-3.5,3.5Z"/>
  <path class="st0" d="M430.8,229.3h-21.9c-2.8,0-5.2,2.3-5.2,5.2v6.3c0,2.8,2.3,5.2,5.2,5.2h21.9c2.8,0,5.2-2.3,5.2-5.2v-6.3c0-2.8-2.3-5.2-5.2-5.2ZM434.4,240.8c0,2-1.6,3.5-3.5,3.5h-21.9c-2,0-3.5-1.6-3.5-3.5v-6.3c0-2,1.6-3.5,3.5-3.5h21.9c2,0,3.5,1.6,3.5,3.5v6.3Z"/>
  <path class="st0" d="M447.4,246h7.4c2.8,0,5.2-2.3,5.2-5.2v-6.3c0-2.8-2.3-5.2-5.2-5.2h-7.4c-2.8,0-5.2,2.3-5.2,5.2v6.3c0,2.8,2.3,5.2,5.2,5.2ZM443.8,234.5c0-2,1.6-3.5,3.5-3.5h7.4c2,0,3.5,1.6,3.5,3.5v6.3c0,2-1.6,3.5-3.5,3.5h-7.4c-2,0-3.5-1.6-3.5-3.5v-6.3Z"/>
  <path class="st0" d="M144.9,270.2h0s20.1,0,20.1,0c2.8,0,5.2-2.3,5.2-5.2v-6.3c0-2.8-2.3-5.2-5.2-5.2h-20.1c-2.8,0-5.2,2.3-5.2,5.2v6.3c0,2.8,2.3,5.2,5.2,5.2ZM141.3,258.7c0-2,1.6-3.5,3.5-3.5h20.1c2,0,3.5,1.6,3.5,3.5v6.3h0c0,2-1.6,3.5-3.5,3.5h-20.1c-2,0-3.5-1.6-3.5-3.5v-6.3Z"/>
  <path class="st0" d="M210.5,294.2h180.1c2.8,0,5.2-2.3,5.2-5.2h0v-6.3c0-2.8-2.3-5.2-5.2-5.2h-180.1c-2.8,0-5.2,2.3-5.2,5.2v6.3c0,2.8,2.3,5.2,5.2,5.2ZM207,282.7c0-2,1.6-3.5,3.5-3.5h180.1c2,0,3.5,1.6,3.5,3.5v6.3c0,2-1.6,3.5-3.5,3.5h-180.1c-2,0-3.5-1.6-3.5-3.5v-6.3Z"/>
  <path class="st0" d="M181.6,270.2h7.4c2.8,0,5.2-2.3,5.2-5.2v-6.3c0-2.8-2.3-5.2-5.2-5.2h-7.4c-2.8,0-5.2,2.3-5.2,5.2v6.3c0,2.8,2.3,5.2,5.2,5.2ZM181.6,255.1h7.4c2,0,3.5,1.6,3.5,3.5v6.3c0,2-1.6,3.5-3.5,3.5h-7.4c-2,0-3.5-1.6-3.5-3.5v-6.3c0-2,1.6-3.5,3.5-3.5Z"/>
  <path class="st0" d="M213,253.5h-7.4c-2.8,0-5.2,2.3-5.2,5.2v6.3c0,2.8,2.3,5.2,5.2,5.2h7.4c2.8,0,5.2-2.3,5.2-5.2v-6.3c0-2.8-2.3-5.2-5.2-5.2ZM216.5,265c0,2-1.6,3.5-3.5,3.5h-7.4c-2,0-3.5-1.6-3.5-3.5v-6.3c0-2,1.6-3.5,3.5-3.5h7.4c2,0,3.5,1.6,3.5,3.5v6.3Z"/>
  <path class="st0" d="M229.5,270.2h7.4c2.9,0,5.2-2.3,5.2-5.2v-6.3c0-2.8-2.3-5.2-5.2-5.2h-7.4c-2.8,0-5.2,2.3-5.2,5.2v6.3c0,2.8,2.3,5.2,5.2,5.2ZM229.5,255.1h7.4c2,0,3.5,1.6,3.5,3.5v6.3h0c0,2-1.6,3.5-3.5,3.5h-7.4c-2,0-3.5-1.6-3.5-3.5v-6.3c0-2,1.6-3.5,3.5-3.5Z"/>
  <path class="st0" d="M266.1,258.7c0-2.8-2.3-5.2-5.2-5.2h-7.4c-2.8,0-5.2,2.3-5.2,5.2v6.3c0,2.8,2.3,5.2,5.2,5.2h7.4c2.8,0,5.2-2.3,5.2-5.2h0v-6.3ZM264.5,265c0,2-1.6,3.5-3.5,3.5h-7.4c-2,0-3.5-1.6-3.5-3.5v-6.3c0-2,1.6-3.5,3.5-3.5h7.4c2,0,3.5,1.6,3.5,3.5v6.3Z"/>
  <path class="st0" d="M285,253.5h-7.4c-2.8,0-5.2,2.3-5.2,5.2v6.3c0,2.8,2.3,5.2,5.2,5.2h7.4c2.9,0,5.2-2.3,5.2-5.2v-6.3c0-2.8-2.3-5.2-5.2-5.2ZM288.5,265c0,2-1.6,3.5-3.5,3.5h-7.4c-2,0-3.5-1.6-3.5-3.5v-6.3c0-2,1.6-3.5,3.5-3.5h7.4c2,0,3.5,1.6,3.5,3.5v6.3Z"/>
  <path class="st0" d="M314.1,258.7c0-2.8-2.3-5.2-5.2-5.2h-7.4c-2.8,0-5.2,2.3-5.2,5.2v6.3c0,2.8,2.3,5.2,5.2,5.2h7.4c2.8,0,5.2-2.3,5.2-5.2h0v-6.3ZM312.5,265h0c0,2-1.6,3.5-3.5,3.5h-7.4c-2,0-3.5-1.6-3.5-3.5v-6.3c0-2,1.6-3.5,3.5-3.5h7.4c2,0,3.5,1.6,3.5,3.5v6.3Z"/>
  <path class="st0" d="M333,253.5h-7.4c-2.9,0-5.2,2.3-5.2,5.2v6.3c0,2.8,2.3,5.2,5.2,5.2h7.4c2.8,0,5.2-2.3,5.2-5.2v-6.3c0-2.8-2.3-5.2-5.2-5.2ZM336.5,265h0c0,2-1.6,3.5-3.5,3.5h-7.4c-2,0-3.5-1.6-3.5-3.5v-6.3c0-2,1.6-3.5,3.5-3.5h7.4c2,0,3.5,1.6,3.5,3.5v6.3Z"/>
  <path class="st0" d="M357,253.5h-7.4c-2.8,0-5.2,2.3-5.2,5.2v6.3c0,2.8,2.3,5.2,5.2,5.2h7.4c2.8,0,5.2-2.3,5.2-5.2v-6.3c0-2.8-2.3-5.2-5.2-5.2ZM360.5,265c0,2-1.6,3.5-3.5,3.5h-7.4c-2,0-3.5-1.6-3.5-3.5v-6.3c0-2,1.6-3.5,3.5-3.5h7.4c2,0,3.5,1.6,3.5,3.5v6.3Z"/>
  <path class="st0" d="M386.1,258.7c0-2.8-2.3-5.2-5.2-5.2h-7.4c-2.8,0-5.2,2.3-5.2,5.2v6.3c0,2.8,2.3,5.2,5.2,5.2h7.4c2.8,0,5.2-2.3,5.2-5.2h0v-6.3ZM384.5,265h0c0,2-1.6,3.5-3.5,3.5h-7.4c-2,0-3.5-1.6-3.5-3.5v-6.3c0-2,1.6-3.5,3.5-3.5h7.4c2,0,3.5,1.6,3.5,3.5v6.3Z"/>
  <path class="st0" d="M397.5,270.2h7.4c2.8,0,5.2-2.3,5.2-5.2h0v-6.3c0-2.8-2.3-5.2-5.2-5.2h-7.4c-2.8,0-5.2,2.3-5.2,5.2v6.3c0,2.8,2.3,5.2,5.2,5.2ZM397.5,255.1h7.4c2,0,3.5,1.6,3.5,3.5v6.3c0,2-1.6,3.5-3.5,3.5h-7.4c-2,0-3.5-1.6-3.5-3.5v-6.3c0-2,1.6-3.5,3.5-3.5Z"/>
  <path class="st0" d="M421.5,270.2h21.9c2.8,0,5.2-2.3,5.2-5.2h0v-6.3c0-2.8-2.3-5.2-5.2-5.2h-21.9c-2.8,0-5.2,2.3-5.2,5.2v6.3c0,2.8,2.3,5.2,5.2,5.2ZM418,258.7c0-2,1.6-3.5,3.5-3.5h21.9c2,0,3.5,1.6,3.5,3.5v6.3h0c0,2-1.6,3.5-3.5,3.5h-21.9c-2,0-3.5-1.6-3.5-3.5v-6.3Z"/>
  <path class="st0" d="M474.8,166.9H125.1c-2.8,0-5.2,2.3-5.2,5.2v127.3c0,2.8,2.3,5.2,5.2,5.2h349.8c2.8,0,5.2-2.3,5.2-5.2h0v-127.3c0-2.8-2.3-5.2-5.2-5.2ZM478.4,299.4c0,2-1.6,3.5-3.5,3.5H125.1c-2,0-3.5-1.6-3.5-3.5v-127.3c0-2,1.6-3.5,3.5-3.5h349.8c2,0,3.5,1.6,3.5,3.5v127.3Z"/>
  <path class="st0" d="M530.8,156.6H69c-2.2,0-4.1,1.8-4.1,4.1v149c0,2.2,1.8,4.1,4.1,4.1h461.8c2.2,0,4.1-1.8,4.1-4.1v-149c0-2.2-1.8-4.1-4.1-4.1ZM533.3,309.7c0,1.4-1.1,2.5-2.5,2.5H69c-1.4,0-2.5-1.1-2.5-2.5v-149c0-1.4,1.1-2.5,2.5-2.5h461.8c1.4,0,2.5,1.1,2.5,2.5v149s0,0,0,0Z"/>
  <path class="st0" d="M533.8,20.6H66c-2.2,0-4.1,1.8-4.1,4.1v306.2c0,2.2,1.8,4.1,4.1,4.1h467.8c2.2,0,4.1-1.8,4.1-4.1h0V24.7c0-2.2-1.8-4.1-4.1-4.1ZM536.3,330.9c0,1.4-1.1,2.5-2.5,2.5H66c-1.4,0-2.5-1.1-2.5-2.5V24.7c0-1.4,1.1-2.5,2.5-2.5h467.8c1.4,0,2.5,1.1,2.5,2.5v306.2Z"/>
  <path class="st0" d="M375.4,112.1c.6,0,1.2-.5,1.2-1.2h0v-13.6c0-.6-.5-1.2-1.2-1.2h-152.9c-.6,0-1.2.5-1.2,1.2v13.6c0,.6.5,1.2,1.2,1.2h152.9ZM223,97.8h152s0,12.7,0,12.7h-152v-12.7Z"/>
  <path class="st0" d="M535.2,33.7c0-2.4-2-4.4-4.4-4.4H69.1c-2.4,0-4.4,2-4.4,4.4v43.9c0,2.4,2,4.4,4.4,4.4h461.6c2.5,0,4.4-2,4.4-4.4h0v-43.9ZM533.6,77.6c0,1.6-1.3,2.8-2.8,2.8H69.1c-1.6,0-2.8-1.3-2.8-2.8v-43.9c0-1.6,1.3-2.8,2.8-2.8h461.6c1.6,0,2.8,1.3,2.8,2.8v43.9s0,0,0,0Z"/>
  <path class="st0" d="M291.3,33.6H101.3c-.8,0-1.5.7-1.5,1.5v2.7c0,.8.7,1.5,1.5,1.5h190c.8,0,1.5-.7,1.5-1.5v-2.7c0-.8-.7-1.5-1.5-1.5ZM156.9,35.2h1.5v2.6h-1.5v-2.6ZM155.3,37.8h-49.6v-2.6h49.6v2.6ZM160,35.2h.8v2.6h-.8v-2.6ZM162.4,35.2h28.7v2.6h-28.7v-2.6ZM192.7,35.2h.8v2.6h-.8v-2.6ZM195.2,35.2h45.3v2.6h-45.3v-2.6ZM242,35.2h.8v2.6h-.8v-2.6ZM101.3,35.2h2.7v2.6h-2.7v-2.6ZM291.2,37.8h-46.7v-2.6h46.7v2.6Z"/>
  <path class="st0" d="M291.3,41.1H101.3c-.8,0-1.5.7-1.5,1.5v2.7c0,.8.7,1.5,1.5,1.5h190c.8,0,1.5-.7,1.5-1.5v-2.7c0-.8-.7-1.5-1.5-1.5ZM156.9,42.7h1.5v2.6h-1.5v-2.6ZM155.3,45.2h-49.6v-2.6h49.6v2.6ZM160,42.7h.8v2.6h-.8v-2.6ZM162.4,42.7h28.7v2.6h-28.7v-2.6ZM192.7,42.7h.8v2.6h-.8v-2.6ZM195.2,42.7h45.3v2.6h-45.3v-2.6ZM242,42.7h.8v2.6h-.8v-2.6ZM101.3,42.7h2.7v2.6h-2.7v-2.6ZM291.2,45.2h-46.7v-2.6h46.7v2.6Z"/>
  <path class="st0" d="M291.3,48.5H101.3c-.8,0-1.5.7-1.5,1.5v2.7c0,.8.7,1.5,1.5,1.5h190c.8,0,1.5-.7,1.5-1.5v-2.7c0-.8-.7-1.5-1.5-1.5ZM156.9,50.1h1.5v2.6h-1.5v-2.6ZM155.3,52.7h-49.6v-2.6h49.6v2.6ZM160,50.1h.8v2.6h-.8v-2.6ZM162.4,50.1h28.7v2.6h-28.7v-2.6ZM192.7,50.1h.8v2.6h-.8v-2.6ZM195.2,50.1h45.3v2.6h-45.3v-2.6ZM242,50.1h.8v2.6h-.8v-2.6ZM101.3,50.1h2.7v2.6h-2.7v-2.6ZM291.2,52.7h-46.7v-2.6h46.7v2.6Z"/>
  <path class="st0" d="M291.3,55.9H101.3c-.8,0-1.5.7-1.5,1.5v2.7c0,.8.7,1.5,1.5,1.5h190c.8,0,1.5-.7,1.5-1.5v-2.7c0-.8-.7-1.5-1.5-1.5ZM156.9,57.5h1.5v2.6h-1.5v-2.6ZM155.3,60.1h-49.6v-2.6h49.6v2.6ZM160,57.5h.8v2.6h-.8v-2.6ZM162.4,57.5h28.7v2.6h-28.7v-2.6ZM192.7,57.5h.8v2.6h-.8v-2.6ZM195.2,57.5h45.3v2.6h-45.3v-2.6ZM242,57.5h.8v2.6h-.8v-2.6ZM101.3,57.5h2.7v2.6h-2.7v-2.6ZM291.2,60.1h-46.7v-2.6h46.7v2.6Z"/>
  <path class="st0" d="M291.3,63.4H101.3c-.8,0-1.5.7-1.5,1.5v2.7c0,.8.7,1.5,1.5,1.5h190c.8,0,1.5-.7,1.5-1.5v-2.7c0-.8-.7-1.5-1.5-1.5ZM156.9,65h1.5v2.6h-1.5v-2.6ZM155.3,67.5h-49.6v-2.6h49.6v2.6ZM160,65h.8v2.6h-.8v-2.6ZM162.4,65h28.7v2.6h-28.7v-2.6ZM192.7,65h.8v2.6h-.8v-2.6ZM195.2,65h45.3v2.6h-45.3v-2.6ZM242,65h.8v2.6h-.8v-2.6ZM101.3,65h2.7v2.6h-2.7v-2.6ZM291.2,67.5h-46.7v-2.6h46.7v2.6Z"/>
  <path class="st0" d="M291.3,70.8H101.3c-.8,0-1.5.7-1.5,1.5v2.7c0,.8.7,1.5,1.5,1.5h190c.8,0,1.5-.7,1.5-1.5v-2.7c0-.8-.7-1.5-1.5-1.5ZM156.9,72.4h1.5v2.6h-1.5v-2.6ZM155.3,75h-49.6v-2.6h49.6v2.6ZM160,72.4h.8v2.6h-.8v-2.6ZM162.4,72.4h28.7v2.6h-28.7v-2.6ZM192.7,72.4h.8v2.6h-.8v-2.6ZM195.2,72.4h45.3v2.6h-45.3v-2.6ZM242,72.4h.8v2.6h-.8v-2.6ZM101.3,72.4h2.7v2.6h-2.7v-2.6ZM291.2,75h0s-46.7,0-46.7,0v-2.6h46.7v2.6Z"/>
  <path class="st0" d="M308.5,39.4h190c.8,0,1.5-.7,1.5-1.5v-2.7c0-.8-.7-1.5-1.5-1.5h-190c-.8,0-1.5.7-1.5,1.5v2.7c0,.8.7,1.5,1.5,1.5ZM451.1,37.8h-45.5v-2.6h45.5v2.6ZM452.7,35.2h.9v2.6h-.9v-2.6ZM404,37.8h-.9v-2.6h.9v2.6ZM401.5,37.8h-45.5v-2.6h45.5v2.6ZM354.4,37.8h-.9v-2.6h.9v2.6ZM498.5,37.8h-43.2v-2.6h43.2v2.6ZM308.6,35.2h43.2v2.6h-43.2v-2.6Z"/>
  <path class="st0" d="M308.5,46.8h190c.8,0,1.5-.7,1.5-1.5v-2.7c0-.8-.7-1.5-1.5-1.5h-190c-.8,0-1.5.7-1.5,1.5v2.7c0,.8.7,1.5,1.5,1.5ZM451.1,45.2h-45.5v-2.6h45.5v2.6ZM452.7,42.7h.9v2.6h-.9v-2.6ZM404,45.2h-.9v-2.6h.9v2.6ZM401.5,45.2h-45.5v-2.6h45.5v2.6ZM354.4,45.2h-.9v-2.6h.9v2.6ZM498.5,45.2h-43.2v-2.6h43.2v2.6ZM308.6,42.7h43.2v2.6h-43.2v-2.6Z"/>
  <path class="st0" d="M308.5,54.3h190c.8,0,1.5-.7,1.5-1.5v-2.7c0-.8-.7-1.5-1.5-1.5h-190c-.8,0-1.5.7-1.5,1.5v2.7c0,.8.7,1.5,1.5,1.5ZM451.1,52.7h-45.5v-2.6h45.5v2.6ZM452.7,50.1h.9v2.6h-.9v-2.6ZM404,52.7h-.9v-2.6h.9v2.6ZM401.5,52.7h-45.5v-2.6h45.5v2.6ZM354.4,52.7h-.9v-2.6h.9v2.6ZM498.5,52.7h-43.2v-2.6h43.2v2.6ZM308.6,50.1h43.2v2.6h-43.2v-2.6Z"/>
  <path class="st0" d="M308.5,61.7h190c.8,0,1.5-.7,1.5-1.5v-2.7c0-.8-.7-1.5-1.5-1.5h-190c-.8,0-1.5.7-1.5,1.5v2.7c0,.8.7,1.5,1.5,1.5ZM451.1,60.1h-45.5v-2.6h45.5v2.6ZM452.7,57.5h.9v2.6h-.9v-2.6ZM404,60.1h-.9v-2.6h.9v2.6ZM401.5,60.1h-45.5v-2.6h45.5v2.6ZM354.4,60.1h-.9v-2.6h.9v2.6ZM498.5,60.1h-43.2v-2.6h43.2v2.6ZM308.6,57.5h43.2v2.6h-43.2v-2.6Z"/>
  <path class="st0" d="M308.5,69.2h0s190,0,190,0c.8,0,1.5-.7,1.5-1.5v-2.7c0-.8-.7-1.5-1.5-1.5h-190c-.8,0-1.5.7-1.5,1.5v2.7c0,.8.7,1.5,1.5,1.5ZM451.1,67.5h-45.5v-2.6h45.5v2.6ZM452.7,65h.9v2.6h-.9v-2.6ZM404,67.5h-.9v-2.6h.9v2.6ZM401.5,67.5h-45.5v-2.6h45.5v2.6ZM354.4,67.5h-.9v-2.6h.9v2.6ZM498.5,67.5h-43.2v-2.6h43.2v2.6ZM308.6,65h43.2v2.6h-43.2v-2.6Z"/>
  <path class="st0" d="M498.6,70.8h-190c-.8,0-1.5.7-1.5,1.5v2.7c0,.8.7,1.5,1.5,1.5h190c.8,0,1.5-.7,1.5-1.5v-2.7c0-.8-.7-1.5-1.5-1.5ZM356.1,72.4h45.5v2.6h-45.5v-2.6ZM354.4,75h-.9v-2.6h.9v2.6ZM403.1,72.4h.9v2.6h-.9v-2.6ZM405.7,72.4h45.5v2.6h-45.5v-2.6ZM452.8,72.4h.9v2.6h-.9v-2.6ZM308.7,72.4h43.2v2.6h-43.2v-2.6ZM498.5,75h-43.2v-2.6h43.2v2.6Z"/>
</svg>