<?xml version="1.0" encoding="UTF-8"?>
<svg id="Layer_3" xmlns="http://www.w3.org/2000/svg" version="1.1" xmlns:cc="http://creativecommons.org/ns#" xmlns:dc="http://purl.org/dc/elements/1.1/" xmlns:rdf="http://www.w3.org/1999/02/22-rdf-syntax-ns#" viewBox="0 0 598.2 350.3">
  <!-- Generator: Adobe Illustrator 29.0.1, SVG Export Plug-In . SVG Version: 2.1.0 Build 192)  -->
  <defs>
    <style>
      .st0 {
        fill: #f4f4f4;
      }
    </style>
  </defs>
  <path id="path3" class="st0" d="M377.1,333.7c2.7,0,4.9-2,4.9-4.5V20.7c0-2.5-2.2-4.5-4.9-4.5h-142.8c-2.4,0-4.3,1.6-4.7,3.8h-.2v309.2c0,2.5,2.2,4.5,4.9,4.5h142.8ZM377.1,332.3h-142.8c-1.8,0-3.3-1.4-3.3-3.1V20.7c0-1.7,1.5-3.1,3.3-3.1h142.8c1.8,0,3.3,1.4,3.3,3.1v308.5c0,1.7-1.5,3.1-3.3,3.1h0Z"/>
  <path id="path5" class="st0" d="M358.6,333.7c9.5,0,17.2-8.8,17.2-19.7v-153c0-10.8-7.7-19.7-17.2-19.7h-105.8c-9.5,0-17.2,8.8-17.2,19.7v153c0,10.8,7.7,19.7,17.2,19.7,0,0,105.8,0,105.8,0ZM358.6,331.9h-105.8c-8.6,0-15.6-8-15.6-17.9v-153c0-9.9,7-17.9,15.6-17.9h105.8c8.6,0,15.6,8,15.6,17.9v153c0,9.9-7,17.9-15.6,17.9Z"/>
  <path id="circle9" class="st0" d="M305.7,131.7c28.2,0,51.1-22.9,51.1-51.1s-22.9-51.1-51.1-51.1-51.1,22.9-51.1,51.1,22.9,51.1,51.1,51.1ZM305.7,130.3c-27.5,0-49.7-22.2-49.7-49.7s22.2-49.7,49.7-49.7,49.7,22.2,49.7,49.7c0,27.5-22.2,49.7-49.7,49.7Z"/>
  <path id="circle11" class="st0" d="M305.7,117.4c20.6,0,37.4-16.8,37.4-37.4s-16.8-37.4-37.4-37.4-37.4,16.8-37.4,37.4,16.7,37.4,37.4,37.4ZM305.7,116c-19.9,0-35.9-16.1-35.9-36s16.1-36,35.9-36,36,16.1,36,36c0,19.9-16.1,36-36,36h0Z"/>
  <path id="path13" class="st0" d="M357.3,336.6c.8,0,1.5-.7,1.5-1.5v-2h-1.4v2s0,0,0,0h-113.9s0,0,0,0v-2.1h-1.4v2.1c0,.8.7,1.5,1.5,1.5h113.9Z"/>
  <g id="g15">
    <g id="g17">
      <path class="st0" d="M331.1,286.5c2.2,0,3.9,1.8,3.9,3.9h0v19.1c0,2.2-1.7,3.9-3.9,3.9h-20.3c-2.2,0-3.9-1.7-3.9-3.9h0v-19.1h0c0-2.2,1.7-3.9,3.9-3.9h20.3ZM333.6,309.6v-19.1c0-1.4-1.1-2.5-2.5-2.5h-20.3c-1.4,0-2.5,1.1-2.5,2.5h0v19.1c0,1.4,1.1,2.5,2.5,2.5h20.3c1.4,0,2.5-1.1,2.5-2.5h0ZM308.3,290.2l-.7.3.7-.3h0Z"/>
      <path id="circle21" class="st0" d="M320.9,310.5c5.8,0,10.6-4.7,10.6-10.6s-4.7-10.6-10.6-10.6-10.5,4.7-10.5,10.6c0,5.8,4.7,10.6,10.5,10.6ZM320.9,309.1c-5,0-9.1-4.1-9.1-9.1s4.1-9.1,9.1-9.1,9.1,4.1,9.1,9.1-4.1,9.1-9.1,9.1Z"/>
    </g>
    <g id="g23">
      <path class="st0" d="M299.5,286.5c2.2,0,3.9,1.7,3.9,3.9h0v19.1c0,2.2-1.7,3.9-3.9,3.9h-20.3c-2.2,0-3.9-1.7-3.9-3.9h0v-20.7l.2.2c.5-1.5,2-2.6,3.7-2.6h20.3ZM302,309.6v-19.1c0-1.4-1.1-2.5-2.5-2.5h-20.3c-1.4,0-2.5,1.1-2.5,2.5h0v1.5h0s0,17.6,0,17.6c0,1.4,1.1,2.5,2.5,2.5h20.3c1.4,0,2.5-1.1,2.5-2.5h0ZM276.5,289.9l-.5.6.5-.6h0Z"/>
      <path id="circle27" class="st0" d="M289.4,310.5c5.8,0,10.6-4.7,10.6-10.6s-4.7-10.6-10.6-10.6-10.5,4.7-10.5,10.6c0,5.8,4.7,10.6,10.5,10.6ZM289.4,309.1c-5,0-9.1-4.1-9.1-9.1s4.1-9.1,9.1-9.1,9.1,4.1,9.1,9.1-4.1,9.1-9.1,9.1Z"/>
    </g>
    <g id="g29">
      <path class="st0" d="M268,286.5c2.2,0,3.9,1.7,3.9,3.9h0v19.1c0,2.2-1.7,3.9-3.9,3.9h-20.3c-2.2,0-3.9-1.7-3.9-3.9h0v-19.1h0c0-2.2,1.8-3.9,3.9-3.9h20.3ZM270.5,309.6v-19.1c0-1.4-1.1-2.5-2.5-2.5h-20.3c-1.4,0-2.5,1.1-2.5,2.5h0v19.1c0,1.4,1.1,2.5,2.5,2.5h20.3c1.4,0,2.5-1.1,2.5-2.5h0Z"/>
      <path id="circle33" class="st0" d="M257.8,310.5c5.8,0,10.6-4.7,10.6-10.6s-4.7-10.6-10.6-10.6-10.5,4.7-10.5,10.6,4.7,10.6,10.5,10.6ZM257.8,309.1c-5,0-9.1-4.1-9.1-9.1s4.1-9.1,9.1-9.1,9.1,4.1,9.1,9.1-4.1,9.1-9.1,9.1Z"/>
    </g>
  </g>
  <g id="g35">
    <g id="g37">
      <path class="st0" d="M331.1,255.5c2.2,0,3.9,1.7,3.9,3.9h0v19.1c0,2.2-1.7,3.9-3.9,3.9h-20.3c-2.2,0-3.9-1.7-3.9-3.9h0v-20.9l.3.3c.6-1.4,2-2.5,3.6-2.5h20.3ZM333.6,278.5v-19.1c0-1.4-1.1-2.5-2.5-2.5h-20.3c-1.4,0-2.5,1.1-2.5,2.5h0v19.1c0,1.4,1.1,2.5,2.5,2.5h20.3c1.4,0,2.5-1.1,2.5-2.5h0ZM308.1,258.9l-.5.5.5-.5h0Z"/>
      <path id="circle41" class="st0" d="M320.9,279.5c5.8,0,10.6-4.7,10.6-10.6s-4.7-10.6-10.6-10.6-10.5,4.7-10.5,10.6c0,5.8,4.7,10.6,10.5,10.6ZM320.9,278.1c-5,0-9.1-4.1-9.1-9.1s4.1-9.1,9.1-9.1,9.1,4.1,9.1,9.1c0,5-4.1,9.1-9.1,9.1Z"/>
    </g>
    <g id="g43">
      <path class="st0" d="M299.5,255.5c2.2,0,3.9,1.8,3.9,3.9h0v19.1c0,2.2-1.7,3.9-3.9,3.9h-20.3c-2.2,0-3.9-1.7-3.9-3.9h0v-20.1h.1c.4-1.7,2-2.9,3.8-2.9h20.3ZM302,278.5v-19.1c0-1.4-1.1-2.5-2.5-2.5h-20.3c-1.4,0-2.5,1.1-2.5,2.5h0v1h0v18.1c0,1.4,1.1,2.5,2.5,2.5h20.3c1.4,0,2.5-1.1,2.5-2.5h0ZM276.3,258.7l-.2.7.2-.7h0Z"/>
      <path id="circle47" class="st0" d="M289.4,279.5c5.8,0,10.6-4.7,10.6-10.6s-4.7-10.6-10.6-10.6-10.5,4.7-10.5,10.6c0,5.8,4.7,10.6,10.5,10.6ZM289.4,278.1c-5,0-9.1-4.1-9.1-9.1s4.1-9.1,9.1-9.1,9.1,4.1,9.1,9.1-4.1,9.1-9.1,9.1Z"/>
    </g>
    <g id="g49">
      <path class="st0" d="M268,255.5c2.2,0,3.9,1.7,3.9,3.9h0v19.1c0,2.2-1.7,3.9-3.9,3.9h-20.3c-2.2,0-3.9-1.7-3.9-3.9h0v-19.1h0c0-2.2,1.8-3.9,3.9-3.9h20.3ZM270.5,278.5v-19.1c0-1.4-1.1-2.5-2.5-2.5h-20.3c-1.4,0-2.5,1.1-2.5,2.5h0v19.1c0,1.4,1.1,2.5,2.5,2.5h20.3c1.4,0,2.5-1.1,2.5-2.5h0Z"/>
      <path id="circle53" class="st0" d="M257.8,279.5c5.8,0,10.6-4.7,10.6-10.6s-4.7-10.6-10.6-10.6-10.5,4.7-10.5,10.6,4.7,10.6,10.5,10.6ZM257.8,278.1c-5,0-9.1-4.1-9.1-9.1s4.1-9.1,9.1-9.1,9.1,4.1,9.1,9.1c0,5-4.1,9.1-9.1,9.1Z"/>
    </g>
  </g>
  <g id="g55">
    <g id="g57">
      <path class="st0" d="M332,224.4c2.2,0,3.9,1.7,3.9,3.9h0v19.1c0,2.2-1.7,3.9-3.9,3.9h-20.3c-2.2,0-3.9-1.7-3.9-3.9h0v-19.1h0c0,0,0,0,0,0,0-2.1,1.8-3.8,3.9-3.8h20.3ZM334.4,247.5v-19.1c0-1.4-1.1-2.5-2.5-2.5h-20.3c-1.4,0-2.5,1.1-2.5,2.5h0c0,0,0,0,0,0v19c0,1.4,1.1,2.5,2.5,2.5h20.3c1.4,0,2.5-1.1,2.5-2.5h0Z"/>
      <path id="circle61" class="st0" d="M321.8,248.5c5.8,0,10.5-4.7,10.5-10.5s-4.7-10.6-10.5-10.6-10.6,4.7-10.6,10.6,4.7,10.5,10.6,10.5ZM321.8,247c-5,0-9.1-4.1-9.1-9.1s4.1-9.1,9.1-9.1,9.1,4.1,9.1,9.1-4.1,9.1-9.1,9.1Z"/>
    </g>
    <g id="g63">
      <path class="st0" d="M300.4,224.4c2.2,0,3.9,1.7,3.9,3.9h0v19.1c0,2.2-1.7,3.9-3.9,3.9h-20.3c-2.2,0-3.9-1.7-3.9-3.9h0v-19.1h0c0-2.2,1.7-3.9,3.9-3.9h20.3ZM302.9,247.5v-19.1c0-1.4-1.1-2.5-2.5-2.5h-20.3c-1.4,0-2.5,1.1-2.5,2.5h0v19.1c0,1.4,1.1,2.5,2.5,2.5h20.3c1.4,0,2.5-1.1,2.5-2.5h0Z"/>
      <path id="circle67" class="st0" d="M290.2,248.5c5.8,0,10.5-4.7,10.5-10.5s-4.7-10.6-10.5-10.6-10.6,4.7-10.6,10.6,4.7,10.5,10.6,10.5ZM290.2,247c-5,0-9.1-4.1-9.1-9.1s4.1-9.1,9.1-9.1,9.1,4.1,9.1,9.1-4.1,9.1-9.1,9.1Z"/>
    </g>
    <g id="g69">
      <path class="st0" d="M268.9,224.4c2.2,0,3.9,1.7,3.9,3.9h0v19.1c0,2.2-1.7,3.9-3.9,3.9h-20.3c-2.2,0-3.9-1.7-3.9-3.9h0v-19.1h0c0-2.2,1.7-3.9,3.9-3.9h20.3ZM271.3,247.5v-19.1c0-1.4-1.1-2.5-2.5-2.5h-20.3c-1.4,0-2.5,1.1-2.5,2.5h0v19.1c0,1.4,1.1,2.5,2.5,2.5h20.3c1.4,0,2.5-1.1,2.5-2.5h0Z"/>
      <path id="circle73" class="st0" d="M258.7,248.5c5.8,0,10.5-4.7,10.5-10.5s-4.7-10.6-10.5-10.6-10.6,4.7-10.6,10.6,4.7,10.5,10.6,10.5ZM258.7,247c-5,0-9.1-4.1-9.1-9.1s4.1-9.1,9.1-9.1,9.1,4.1,9.1,9.1-4.1,9.1-9.1,9.1Z"/>
    </g>
  </g>
  <g id="g75">
    <g id="g77">
      <path class="st0" d="M332,193.4c2.2,0,3.9,1.7,3.9,3.9h0v19.1c0,2.2-1.7,3.9-3.9,3.9h-20.3c-2.2,0-3.9-1.7-3.9-3.9h0v-19.1h0c0-2.2,1.8-3.9,3.9-3.9h20.3ZM334.4,216.4v-19.1c0-1.4-1.1-2.5-2.5-2.5h-20.3c-1.4,0-2.5,1.1-2.5,2.5h0v19.1c0,1.4,1.1,2.5,2.5,2.5h20.3c1.4,0,2.5-1.1,2.5-2.5h0Z"/>
      <path id="circle81" class="st0" d="M321.8,217.4c5.8,0,10.5-4.7,10.5-10.6s-4.7-10.5-10.5-10.5-10.6,4.7-10.6,10.5,4.7,10.6,10.6,10.6ZM321.8,216c-5,0-9.1-4.1-9.1-9.1s4.1-9.1,9.1-9.1,9.1,4.1,9.1,9.1-4.1,9.1-9.1,9.1Z"/>
    </g>
    <g id="g83">
      <path class="st0" d="M300.4,193.4c2.2,0,3.9,1.7,3.9,3.9h0v19.1c0,2.2-1.7,3.9-3.9,3.9h-20.3c-2.2,0-3.9-1.7-3.9-3.9h0v-19.1h0c0-2.2,1.7-3.9,3.9-3.9h20.3ZM302.9,216.4v-19.1c0-1.4-1.1-2.5-2.5-2.5h-20.3c-1.4,0-2.5,1.1-2.5,2.5h0v19.1c0,1.4,1.1,2.5,2.5,2.5h20.3c1.4,0,2.5-1.1,2.5-2.5h0Z"/>
      <path id="circle87" class="st0" d="M290.2,217.4c5.8,0,10.5-4.7,10.5-10.6s-4.7-10.5-10.5-10.5-10.6,4.7-10.6,10.5,4.7,10.6,10.6,10.6ZM290.2,216c-5,0-9.1-4.1-9.1-9.1s4.1-9.1,9.1-9.1,9.1,4.1,9.1,9.1-4.1,9.1-9.1,9.1Z"/>
    </g>
    <g id="g89">
      <path class="st0" d="M268.9,193.4c2.2,0,3.9,1.7,3.9,3.9h0v19.1c0,2.2-1.7,3.9-3.9,3.9h-20.3c-2.2,0-3.9-1.8-3.9-3.9h0v-19.1h0c0-2.2,1.7-3.9,3.9-3.9h20.3ZM271.3,216.4v-19.1c0-1.4-1.1-2.5-2.5-2.5h-20.3c-1.4,0-2.5,1.1-2.5,2.5h0v19.1c0,1.4,1.1,2.5,2.5,2.5h20.3c1.4,0,2.5-1.1,2.5-2.5h0Z"/>
      <path id="circle93" class="st0" d="M258.7,217.4c5.8,0,10.5-4.7,10.5-10.6s-4.7-10.5-10.5-10.5-10.6,4.7-10.6,10.5,4.7,10.6,10.6,10.6ZM258.7,216c-5,0-9.1-4.1-9.1-9.1s4.1-9.1,9.1-9.1,9.1,4.1,9.1,9.1-4.1,9.1-9.1,9.1Z"/>
    </g>
  </g>
  <g id="g751" data-name="g75">
    <g id="g771" data-name="g77">
      <path class="st0" d="M332,162.3c2.2,0,3.9,1.7,3.9,3.9h0v19.1c0,2.2-1.7,3.9-3.9,3.9h-20.3c-2.2,0-3.9-1.7-3.9-3.9h0v-19.1h0c0-2.2,1.8-3.9,3.9-3.9h20.3ZM334.4,185.4v-19.1c0-1.4-1.1-2.5-2.5-2.5h-20.3c-1.4,0-2.5,1.1-2.5,2.5h0v19.1c0,1.4,1.1,2.5,2.5,2.5h20.3c1.4,0,2.5-1.1,2.5-2.5h0Z"/>
    </g>
    <g id="g831" data-name="g83">
      <path class="st0" d="M300.4,162.3c2.2,0,3.9,1.7,3.9,3.9h0v19.1c0,2.2-1.7,3.9-3.9,3.9h-20.3c-2.2,0-3.9-1.7-3.9-3.9h0v-19.1h0c0-2.2,1.7-3.9,3.9-3.9h20.3ZM302.9,185.4v-19.1c0-1.4-1.1-2.5-2.5-2.5h-20.3c-1.4,0-2.5,1.1-2.5,2.5h0v19.1c0,1.4,1.1,2.5,2.5,2.5h20.3c1.4,0,2.5-1.1,2.5-2.5h0Z"/>
    </g>
    <g id="g891" data-name="g89">
      <path class="st0" d="M268.9,162.3c2.2,0,3.9,1.7,3.9,3.9h0v19.1c0,2.2-1.7,3.9-3.9,3.9h-20.3c-2.2,0-3.9-1.8-3.9-3.9h0v-19.1h0c0-2.2,1.7-3.9,3.9-3.9h20.3ZM271.3,185.4v-19.1c0-1.4-1.1-2.5-2.5-2.5h-20.3c-1.4,0-2.5,1.1-2.5,2.5h0v19.1c0,1.4,1.1,2.5,2.5,2.5h20.3c1.4,0,2.5-1.1,2.5-2.5h0Z"/>
    </g>
  </g>
  <g id="g772" data-name="g77">
    <path class="st0" d="M363.4,162.3c2.2,0,3.9,1.7,3.9,3.9h0v19.1c0,2.2-1.7,3.9-3.9,3.9h-20.3c-2.2,0-3.9-1.7-3.9-3.9h0v-19.1h0c0-2.2,1.8-3.9,3.9-3.9h20.3ZM365.8,185.4v-19.1c0-1.4-1.1-2.5-2.5-2.5h-20.3c-1.4,0-2.5,1.1-2.5,2.5h0v19.1c0,1.4,1.1,2.5,2.5,2.5h20.3c1.4,0,2.5-1.1,2.5-2.5h0Z"/>
  </g>
  <g id="g773" data-name="g77">
    <path class="st0" d="M363.4,193.4c2.2,0,3.9,1.7,3.9,3.9h0v19.1c0,2.2-1.7,3.9-3.9,3.9h-20.3c-2.2,0-3.9-1.7-3.9-3.9h0v-19.1h0c0-2.2,1.8-3.9,3.9-3.9h20.3ZM365.8,216.4v-19.1c0-1.4-1.1-2.5-2.5-2.5h-20.3c-1.4,0-2.5,1.1-2.5,2.5h0v19.1c0,1.4,1.1,2.5,2.5,2.5h20.3c1.4,0,2.5-1.1,2.5-2.5h0Z"/>
  </g>
  <g id="g774" data-name="g77">
    <path class="st0" d="M363.4,224.4c2.2,0,3.9,1.7,3.9,3.9h0v19.1c0,2.2-1.7,3.9-3.9,3.9h-20.3c-2.2,0-3.9-1.7-3.9-3.9h0v-19.1h0c0-2.2,1.8-3.9,3.9-3.9h20.3ZM365.8,247.5v-19.1c0-1.4-1.1-2.5-2.5-2.5h-20.3c-1.4,0-2.5,1.1-2.5,2.5h0v19.1c0,1.4,1.1,2.5,2.5,2.5h20.3c1.4,0,2.5-1.1,2.5-2.5h0Z"/>
  </g>
  <g id="g775" data-name="g77">
    <path class="st0" d="M363.4,255.5c2.2,0,3.9,1.7,3.9,3.9h0v19.1c0,2.2-1.7,3.9-3.9,3.9h-20.3c-2.2,0-3.9-1.7-3.9-3.9h0v-19.1h0c0-2.2,1.8-3.9,3.9-3.9h20.3ZM365.8,278.5v-19.1c0-1.4-1.1-2.5-2.5-2.5h-20.3c-1.4,0-2.5,1.1-2.5,2.5h0v19.1c0,1.4,1.1,2.5,2.5,2.5h20.3c1.4,0,2.5-1.1,2.5-2.5h0Z"/>
  </g>
  <g id="g776" data-name="g77">
    <path class="st0" d="M363.4,286.5c2.2,0,3.9,1.7,3.9,3.9h0v19.1c0,2.2-1.7,3.9-3.9,3.9h-20.3c-2.2,0-3.9-1.7-3.9-3.9h0v-19.1h0c0-2.2,1.8-3.9,3.9-3.9h20.3ZM365.8,309.6v-19.1c0-1.4-1.1-2.5-2.5-2.5h-20.3c-1.4,0-2.5,1.1-2.5,2.5h0v19.1c0,1.4,1.1,2.5,2.5,2.5h20.3c1.4,0,2.5-1.1,2.5-2.5h0Z"/>
  </g>
</svg>