<?xml version="1.0" encoding="UTF-8"?>
<svg id="Layer_3" xmlns="http://www.w3.org/2000/svg" version="1.1" xmlns:cc="http://creativecommons.org/ns#" xmlns:dc="http://purl.org/dc/elements/1.1/" xmlns:rdf="http://www.w3.org/1999/02/22-rdf-syntax-ns#" xmlns:svg="http://www.w3.org/2000/svg" viewBox="0 0 456.1 308">
  <!-- Generator: Adobe Illustrator 29.0.1, SVG Export Plug-In . SVG Version: 2.1.0 Build 192)  -->
  <defs>
    <style>
      .st0 {
        fill: #f4f4f4;
      }
    </style>
  </defs>
  <g>
    <path class="st0" d="M23.2,304.8c-12.8,0-23.2-10.4-23.2-23.2h0v-99.7c0-12.8,10.4-23.2,23.2-23.2h99.7c12.8,0,23.2,10.4,23.2,23.2h0v99.7c0,12.8-10.4,23.2-23.2,23.2,0,0-99.7,0-99.7,0ZM2,182v99.7c0,11.7,9.5,21.1,21.2,21.2h99.7c11.7,0,21.1-9.5,21.2-21.2h0v-99.7c0-11.7-9.5-21.1-21.2-21.2H23.2c-11.7,0-21.1,9.5-21.2,21.2h0Z"/>
    <path class="st0" d="M37.1,276.4c-8.7,0-15.7-7-15.7-15.7h0v-71.8c0-8.7,7-15.7,15.7-15.7h71.8c8.7,0,15.7,7,15.7,15.7h0v71.8c0,8.7-7,15.7-15.7,15.7H37.1ZM23.4,188.9v71.8c0,7.6,6.1,13.7,13.7,13.7h71.8c7.6,0,13.7-6.1,13.7-13.7h0v-71.8c0-7.6-6.1-13.7-13.7-13.7H37.1c-7.6,0-13.7,6.1-13.7,13.7h0Z"/>
  </g>
  <g>
    <path class="st0" d="M178.2,304.8c-12.8,0-23.2-10.4-23.2-23.2h0v-99.7c0-12.8,10.4-23.2,23.2-23.2h99.7c12.8,0,23.2,10.4,23.2,23.2h0v99.7c0,12.8-10.4,23.2-23.2,23.2h-99.7,0ZM157,182v99.7c0,11.7,9.5,21.1,21.2,21.2h99.7c11.7,0,21.1-9.5,21.2-21.2h0v-99.7c0-11.7-9.5-21.1-21.2-21.2h-99.7c-11.7,0-21.1,9.5-21.2,21.2h0Z"/>
    <path class="st0" d="M192.1,276.4c-8.7,0-15.7-7-15.7-15.7h0v-71.8c0-8.7,7-15.7,15.7-15.7h71.8c8.7,0,15.7,7,15.7,15.7h0v71.8c0,8.7-7,15.7-15.7,15.7h-71.8,0ZM178.4,188.9v71.8c0,7.6,6.1,13.7,13.7,13.7h71.8c7.6,0,13.7-6.1,13.7-13.7h0v-71.8c0-7.6-6.1-13.7-13.7-13.7h-71.8c-7.6,0-13.7,6.1-13.7,13.7h0Z"/>
  </g>
  <g>
    <path class="st0" d="M178.2,150.8c-12.8,0-23.2-10.4-23.2-23.2h0V28c0-12.8,10.4-23.2,23.2-23.2h99.7c12.8,0,23.2,10.4,23.2,23.2h0v99.7c0,12.8-10.4,23.2-23.2,23.2h-99.7,0ZM157,28v99.7c0,11.7,9.5,21.1,21.2,21.2h99.7c11.7,0,21.1-9.5,21.2-21.2h0V28c0-11.7-9.5-21.1-21.2-21.2h-99.7c-11.7,0-21.1,9.5-21.2,21.2h0Z"/>
    <path class="st0" d="M192.1,122.4c-8.7,0-15.7-7-15.7-15.7h0V34.9c0-8.7,7-15.7,15.7-15.7h71.8c8.7,0,15.7,7,15.7,15.7h0v71.8c0,8.7-7,15.7-15.7,15.7h-71.8,0ZM178.4,34.9v71.8c0,7.6,6.1,13.7,13.7,13.7h71.8c7.6,0,13.7-6.1,13.7-13.7h0V34.9c0-7.6-6.1-13.7-13.7-13.7h-71.8c-7.6,0-13.7,6.1-13.7,13.7h0Z"/>
  </g>
  <g>
    <path class="st0" d="M333.2,304.8c-12.8,0-23.2-10.4-23.2-23.2h0v-99.7c0-12.8,10.4-23.2,23.2-23.2h99.7c12.8,0,23.2,10.4,23.2,23.2h0v99.7c0,12.8-10.4,23.2-23.2,23.2h-99.7,0ZM312,182v99.7c0,11.7,9.5,21.1,21.2,21.2h99.7c11.7,0,21.1-9.5,21.2-21.2h0v-99.7c0-11.7-9.5-21.1-21.2-21.2h-99.7c-11.7,0-21.1,9.5-21.2,21.2h0Z"/>
    <path class="st0" d="M331.4,260.7v-71.8c0-8.7,7-15.7,15.7-15.7h71.8c8.7,0,15.7,7,15.7,15.7h0v71.8c0,8.7-7,15.7-15.7,15.7h-71.8c-8.7,0-15.7-7-15.7-15.7h0ZM333.4,188.9v71.8c0,7.6,6.1,13.7,13.7,13.7h71.8c7.6,0,13.7-6.1,13.7-13.7h0v-71.8c0-7.6-6.1-13.7-13.7-13.7h-71.8c-7.6,0-13.7,6.1-13.7,13.7h0Z"/>
  </g>
  <path class="st0" d="M219.5,75.3l-7.7-23.1-7.7,23.1h-8l-11.2-39.8h9.3l6.9,24.3,7.6-24.3h6.3l7.9,23.7,6.6-23.7h7.9v1-1h1.3l-11.7,39.8h-7.6.1ZM220.9,73.3h4.6l10.5-35.8h-5.1l-7.9,28.6-9.6-28.6h-3.4l-9.2,29.3-8.3-29.3h-5.1l10.1,35.8h5.1l9.1-27.4,9.1,27.4h.1Z"/>
  <path class="st0" d="M58.7,229.3l-3.2-9.1h-11.2l-3.2,9.1h-9.3l14.2-39.8h7.9l13.7,38.5-.9.3v-1,1l.9-.3.5,1.3h-9.4ZM56.9,218.2l3.2,9.1h5.1l-12.7-35.8h-5.1l-12.7,35.8h5.1l3.2-9.1h14,0ZM44.6,213.5l5.3-15.1,4.9,13.7-.9.3v-1,1l.9-.3.5,1.3h-10.7ZM47.4,211.5h5l-2.5-7.1-2.5,7.1h0Z"/>
  <path class="st0" d="M193.5,229.3c-2.3-.6-4.1-1.2-5.4-2.1h0l-.5-.3,1.1-10.6,1.5,1.5c1,1,2.5,1.9,4.5,2.7h0c1.9.7,4.2,1.1,6.7,1.1h0c2.1,0,3.7-.3,4.5-.9h0c.9-.6,1.2-1.1,1.2-2.2h0c0-.6-.1-1.2-.4-1.6h0c-.3-.5-.7-1-1.2-1.4h0c-.5-.4-1.1-.8-1.7-1.1h0c-.7-.3-1.3-.6-2-.8h0l-5.1-1.8-2.1-.9c-2.4-1-4.2-2.2-5.4-3.6h0c-1.2-1.5-1.8-3.5-1.9-6h0c0-1.6.3-3.1.9-4.6h0c.6-1.5,1.5-2.8,2.7-4h0c1.2-1.2,2.8-2.1,4.6-2.8h0c1.9-.7,4-1,6.5-1h0c1.2,0,2.5,0,3.7.3h0c1.2.2,2.4.4,3.5.7h0c1.1.3,2.1.6,3.1,1h0c.9.4,1.6.7,2.2,1.1h0l.5.3-.9,9.2-1.3-.7c-4.1-2.2-7.6-3.3-10.6-3.3h0c-.9,0-1.7,0-2.5.2h0c-.7.1-1.4.3-1.9.6h0c-.5.3-.9.6-1.2.9h0c-.2.3-.4.7-.4,1.2h0c0,.8.2,1.2.4,1.5h0c.3.4.9.8,1.6,1.1h0c.8.4,1.9.8,3.2,1.2h0c1.4.4,2.9,1,4.7,1.7h0l2.9,1.1c.8.3,1.7.8,2.6,1.3h0c.9.6,1.7,1.3,2.5,2.2h0c.8.9,1.4,1.9,1.9,3h0c.5,1.2.8,2.5.8,4h0c0,1.2-.2,2.5-.5,3.9h0c-.3,1.5-1.1,2.9-2.2,4.2h0c-1.1,1.3-2.8,2.4-4.8,3.2h0c-2.1.8-4.8,1.2-8.2,1.2h0v-2c3.2,0,5.7-.4,7.5-1.1h0c1.8-.7,3.2-1.6,4-2.6h0c.9-1.1,1.5-2.2,1.7-3.3h0c.3-1.3.4-2.4.4-3.5h0c0-1.2-.2-2.3-.6-3.2h0c-.4-1-1-1.8-1.6-2.5h0c-.6-.7-1.3-1.3-2.1-1.8h0c-.8-.5-1.5-.9-2.2-1.1h0l-2.9-1.1c-1.8-.7-3.3-1.2-4.6-1.6h0c-1.4-.4-2.5-.8-3.4-1.3h0c-1-.4-1.8-1-2.3-1.6h0c-.7-.8-.9-1.8-.9-2.8h0c0-.9.2-1.7.8-2.4h0c.5-.6,1.1-1.1,1.9-1.5h0c.7-.4,1.6-.6,2.5-.8h0c.9-.2,1.8-.2,2.8-.2h0c3.1,0,6.5,1,10.2,2.8h0l.5-5c-.4-.2-.9-.4-1.4-.7h0c-.8-.3-1.7-.6-2.8-.9h0c-1-.3-2.2-.5-3.3-.7h0c-1.2-.2-2.3-.3-3.4-.3h0c-2.2,0-4.2.3-5.8.9h0c-1.6.6-2.9,1.4-3.9,2.4h0c-1,1-1.8,2.1-2.2,3.3h0c-.5,1.2-.7,2.5-.7,3.8h0c.1,2.2.6,3.7,1.5,4.8h0c.9,1.1,2.4,2.2,4.6,3.1h0l2.1.9,5,1.8c.7.2,1.5.5,2.2.9h0c.8.4,1.5.8,2.1,1.3h0c.7.5,1.3,1.2,1.7,1.9h0c.5.8.7,1.7.7,2.7h0c0,1.6-.8,3.1-2.2,3.9h0c-1.4.8-3.2,1.2-5.6,1.2h0c-2.7,0-5.2-.4-7.4-1.2h0c-1.4-.5-2.6-1.2-3.7-1.9h0l-.6,5.4c1,.6,2.5,1.1,4.3,1.5h0c2.1.5,4.5.8,7.2.8h0v2c-2.8,0-5.3-.3-7.6-.8h0v-.2Z"/>
  <path class="st0" d="M361.3,229.3h-15.1v-39.8h15.1c2.8,0,5.5.5,7.9,1.4h0c2.4.9,4.5,2.3,6.2,4h0c1.7,1.7,3.1,3.8,4.1,6.3h0c1,2.5,1.4,5.2,1.4,8.2h0c0,3-.5,5.8-1.4,8.2h0c-1,2.5-2.3,4.6-4.1,6.3h0c-1.7,1.7-3.8,3-6.2,4h0c-2.4.9-5.1,1.4-7.9,1.4h0ZM348.2,227.3h13.1v2-2c2.6,0,5-.4,7.2-1.3h0c2.2-.8,4-2,5.5-3.5h0c1.5-1.5,2.7-3.4,3.6-5.6h0c.9-2.2,1.3-4.7,1.3-7.5h0c0-2.8-.4-5.3-1.3-7.5h0c-.9-2.2-2.1-4.1-3.6-5.6h0c-1.5-1.5-3.4-2.7-5.5-3.6h0c-2.2-.8-4.5-1.3-7.2-1.3h-13.1v35.8h0ZM361.3,222.8h-8.2v-26.6h8.2v2-2c3.8,0,6.9,1.2,9,3.6h0c2.1,2.4,3.1,5.7,3.1,9.7h0c0,4.1-1,7.4-3.1,9.7h0c-2.1,2.4-5.2,3.6-8.9,3.6h-.1ZM355.1,220.8h6.2c3.4,0,5.8-1,7.5-2.9h0c1.7-1.9,2.6-4.7,2.6-8.4h0c0-3.8-.9-6.5-2.6-8.4h0c-1.7-1.9-4.1-2.9-7.5-2.9h-6.2v22.6h0Z"/>
</svg>