<?xml version="1.0" encoding="UTF-8"?>
<svg xmlns="http://www.w3.org/2000/svg" version="1.1" xmlns:cc="http://creativecommons.org/ns#" xmlns:dc="http://purl.org/dc/elements/1.1/" xmlns:rdf="http://www.w3.org/1999/02/22-rdf-syntax-ns#" xmlns:xlink="http://www.w3.org/1999/xlink" viewBox="0 0 598.2 350.3">
  <!-- Generator: Adobe Illustrator 29.0.1, SVG Export Plug-In . SVG Version: 2.1.0 Build 192)  -->
  <defs>
    <style>
      .st0 {
        display: none;
      }

      .st1 {
        fill: #f4f4f4;
      }
    </style>
  </defs>
  <g id="Layer_2" class="st0">
    <image width="2000" height="1275" transform="translate(-3 -43.1) scale(.3)" xlink:href="X:\Emulation stuff\custom theme\consoles cut out\pc88.webp"/>
  </g>
  <g id="Layer_3">
    <g>
      <path id="rect4179-31-1-3" class="st1" d="M118.3,128.2c0,3.1,2.5,5.6,5.6,5.6h13.2c3.1,0,5.6-2.5,5.6-5.6v-12.4c0-3.1-2.5-5.6-5.6-5.6h-13.2c-3.1,0-5.6,2.5-5.6,5.6v12.4ZM119.4,128.2v-12.4c0-2.5,2-4.4,4.4-4.4h13.2c2.5,0,4.4,2,4.4,4.4v12.4c0,2.5-2,4.4-4.4,4.4h-13.2c-2.5,0-4.4-2-4.4-4.4Z"/>
      <path id="rect4179-31-1-31" data-name="rect4179-31-1-3" class="st1" d="M90.2,128.2c0,3.1,2.5,5.6,5.6,5.6h13.2c3.1,0,5.6-2.5,5.6-5.6v-12.4c0-3.1-2.5-5.6-5.6-5.6h-13.2c-3.1,0-5.6,2.5-5.6,5.6v12.4ZM91.3,128.2v-12.4c0-2.5,2-4.4,4.4-4.4h13.2c2.5,0,4.4,2,4.4,4.4v12.4c0,2.5-2,4.4-4.4,4.4h-13.2c-2.5,0-4.4-2-4.4-4.4Z"/>
      <path id="rect4179-31-1-32" data-name="rect4179-31-1-3" class="st1" d="M174.5,128.2c0,3.1,2.5,5.6,5.6,5.6h13.2c3.1,0,5.6-2.5,5.6-5.6v-12.4c0-3.1-2.5-5.6-5.6-5.6h-13.2c-3.1,0-5.6,2.5-5.6,5.6v12.4ZM175.6,128.2v-12.4c0-2.5,2-4.4,4.4-4.4h13.2c2.5,0,4.4,2,4.4,4.4v12.4c0,2.5-2,4.4-4.4,4.4h-13.2c-2.5,0-4.4-2-4.4-4.4Z"/>
      <path id="rect4179-31-1-33" data-name="rect4179-31-1-3" class="st1" d="M146.4,128.2c0,3.1,2.5,5.6,5.6,5.6h13.2c3.1,0,5.6-2.5,5.6-5.6v-12.4c0-3.1-2.5-5.6-5.6-5.6h-13.2c-3.1,0-5.6,2.5-5.6,5.6v12.4ZM147.5,128.2v-12.4c0-2.5,2-4.4,4.4-4.4h13.2c2.5,0,4.4,2,4.4,4.4v12.4c0,2.5-2,4.4-4.4,4.4h-13.2c-2.5,0-4.4-2-4.4-4.4Z"/>
      <path id="rect4179-31-1-34" data-name="rect4179-31-1-3" class="st1" d="M230.7,128.2c0,3.1,2.5,5.6,5.6,5.6h13.2c3.1,0,5.6-2.5,5.6-5.6v-12.4c0-3.1-2.5-5.6-5.6-5.6h-13.2c-3.1,0-5.6,2.5-5.6,5.6v12.4ZM231.8,128.2v-12.4c0-2.5,2-4.4,4.4-4.4h13.2c2.5,0,4.4,2,4.4,4.4v12.4c0,2.5-2,4.4-4.4,4.4h-13.2c-2.5,0-4.4-2-4.4-4.4Z"/>
      <path id="rect4179-31-1-35" data-name="rect4179-31-1-3" class="st1" d="M202.6,128.2c0,3.1,2.5,5.6,5.6,5.6h13.2c3.1,0,5.6-2.5,5.6-5.6v-12.4c0-3.1-2.5-5.6-5.6-5.6h-13.2c-3.1,0-5.6,2.5-5.6,5.6v12.4ZM203.7,128.2v-12.4c0-2.5,2-4.4,4.4-4.4h13.2c2.5,0,4.4,2,4.4,4.4v12.4c0,2.5-2,4.4-4.4,4.4h-13.2c-2.5,0-4.4-2-4.4-4.4Z"/>
      <path id="rect4179-31-1-36" data-name="rect4179-31-1-3" class="st1" d="M286.9,128.2c0,3.1,2.5,5.6,5.6,5.6h13.2c3.1,0,5.6-2.5,5.6-5.6v-12.4c0-3.1-2.5-5.6-5.6-5.6h-13.2c-3.1,0-5.6,2.5-5.6,5.6v12.4ZM288.1,128.2v-12.4c0-2.5,2-4.4,4.4-4.4h13.2c2.5,0,4.4,2,4.4,4.4v12.4c0,2.5-2,4.4-4.4,4.4h-13.2c-2.5,0-4.4-2-4.4-4.4Z"/>
      <path id="rect4179-31-1-37" data-name="rect4179-31-1-3" class="st1" d="M258.8,128.2c0,3.1,2.5,5.6,5.6,5.6h13.2c3.1,0,5.6-2.5,5.6-5.6v-12.4c0-3.1-2.5-5.6-5.6-5.6h-13.2c-3.1,0-5.6,2.5-5.6,5.6v12.4ZM260,128.2v-12.4c0-2.5,2-4.4,4.4-4.4h13.2c2.5,0,4.4,2,4.4,4.4v12.4c0,2.5-2,4.4-4.4,4.4h-13.2c-2.5,0-4.4-2-4.4-4.4Z"/>
      <path id="rect4179-31-1-38" data-name="rect4179-31-1-3" class="st1" d="M343.1,128.2c0,3.1,2.5,5.6,5.6,5.6h13.2c3.1,0,5.6-2.5,5.6-5.6v-12.4c0-3.1-2.5-5.6-5.6-5.6h-13.2c-3.1,0-5.6,2.5-5.6,5.6v12.4ZM344.3,128.2v-12.4c0-2.5,2-4.4,4.4-4.4h13.2c2.5,0,4.4,2,4.4,4.4v12.4c0,2.5-2,4.4-4.4,4.4h-13.2c-2.5,0-4.4-2-4.4-4.4Z"/>
      <path id="rect4179-31-1-39" data-name="rect4179-31-1-3" class="st1" d="M315,128.2c0,3.1,2.5,5.6,5.6,5.6h13.2c3.1,0,5.6-2.5,5.6-5.6v-12.4c0-3.1-2.5-5.6-5.6-5.6h-13.2c-3.1,0-5.6,2.5-5.6,5.6v12.4ZM316.2,128.2v-12.4c0-2.5,2-4.4,4.4-4.4h13.2c2.5,0,4.4,2,4.4,4.4v12.4c0,2.5-2,4.4-4.4,4.4h-13.2c-2.5,0-4.4-2-4.4-4.4Z"/>
      <path id="rect4179-31-1-310" data-name="rect4179-31-1-3" class="st1" d="M399.3,128.2c0,3.1,2.5,5.6,5.6,5.6h13.2c3.1,0,5.6-2.5,5.6-5.6v-12.4c0-3.1-2.5-5.6-5.6-5.6h-13.2c-3.1,0-5.6,2.5-5.6,5.6v12.4ZM400.5,128.2v-12.4c0-2.5,2-4.4,4.4-4.4h13.2c2.5,0,4.4,2,4.4,4.4v12.4c0,2.5-2,4.4-4.4,4.4h-13.2c-2.5,0-4.4-2-4.4-4.4Z"/>
      <path id="rect4179-31-1-311" data-name="rect4179-31-1-3" class="st1" d="M371.2,128.2c0,3.1,2.5,5.6,5.6,5.6h13.2c3.1,0,5.6-2.5,5.6-5.6v-12.4c0-3.1-2.5-5.6-5.6-5.6h-13.2c-3.1,0-5.6,2.5-5.6,5.6v12.4ZM372.4,128.2v-12.4c0-2.5,2-4.4,4.4-4.4h13.2c2.5,0,4.4,2,4.4,4.4v12.4c0,2.5-2,4.4-4.4,4.4h-13.2c-2.5,0-4.4-2-4.4-4.4Z"/>
      <path id="rect4179-31-1-312" data-name="rect4179-31-1-3" class="st1" d="M455.6,128.2c0,3.1,2.5,5.6,5.6,5.6h13.2c3.1,0,5.6-2.5,5.6-5.6v-12.4c0-3.1-2.5-5.6-5.6-5.6h-13.2c-3.1,0-5.6,2.5-5.6,5.6v12.4ZM456.7,128.2v-12.4c0-2.5,2-4.4,4.4-4.4h13.2c2.5,0,4.4,2,4.4,4.4v12.4c0,2.5-2,4.4-4.4,4.4h-13.2c-2.5,0-4.4-2-4.4-4.4Z"/>
      <path id="rect4179-31-1-313" data-name="rect4179-31-1-3" class="st1" d="M483.7,128.2c0,3.1,2.5,5.6,5.6,5.6h13.2c3.1,0,5.6-2.5,5.6-5.6v-12.4c0-3.1-2.5-5.6-5.6-5.6h-13.2c-3.1,0-5.6,2.5-5.6,5.6v12.4ZM484.8,128.2v-12.4c0-2.5,2-4.4,4.4-4.4h13.2c2.5,0,4.4,2,4.4,4.4v12.4c0,2.5-2,4.4-4.4,4.4h-13.2c-2.5,0-4.4-2-4.4-4.4Z"/>
      <path id="rect4179-31-1-314" data-name="rect4179-31-1-3" class="st1" d="M427.4,128.2c0,3.1,2.5,5.6,5.6,5.6h13.2c3.1,0,5.6-2.5,5.6-5.6v-12.4c0-3.1-2.5-5.6-5.6-5.6h-13.2c-3.1,0-5.6,2.5-5.6,5.6v12.4ZM428.6,128.2v-12.4c0-2.5,2-4.4,4.4-4.4h13.2c2.5,0,4.4,2,4.4,4.4v12.4c0,2.5-2,4.4-4.4,4.4h-13.2c-2.5,0-4.4-2-4.4-4.4Z"/>
      <path id="rect4179-31-1-315" data-name="rect4179-31-1-3" class="st1" d="M141.5,180.4c0,3.1,2.5,5.6,5.6,5.6h13.2c3.1,0,5.6-2.5,5.6-5.6v-12.4c0-3.1-2.5-5.6-5.6-5.6h-13.2c-3.1,0-5.6,2.5-5.6,5.6v12.4ZM142.6,180.4v-12.4c0-2.5,2-4.4,4.4-4.4h13.2c2.5,0,4.4,2,4.4,4.4v12.4c0,2.5-2,4.4-4.4,4.4h-13.2c-2.5,0-4.4-2-4.4-4.4Z"/>
      <path id="rect4179-31-1-316" data-name="rect4179-31-1-3" class="st1" d="M112.9,180.4c0,3.1,2.5,5.6,5.6,5.6h13.2c3.1,0,5.6-2.5,5.6-5.6v-12.4c0-3.1-2.5-5.6-5.6-5.6h-13.2c-3.1,0-5.6,2.5-5.6,5.6v12.4ZM114,180.4v-12.4c0-2.5,2-4.4,4.4-4.4h13.2c2.5,0,4.4,2,4.4,4.4v12.4c0,2.5-2,4.4-4.4,4.4h-13.2c-2.5,0-4.4-2-4.4-4.4Z"/>
      <path id="rect4179-31-1-317" data-name="rect4179-31-1-3" class="st1" d="M197.7,180.4c0,3.1,2.5,5.6,5.6,5.6h13.2c3.1,0,5.6-2.5,5.6-5.6v-12.4c0-3.1-2.5-5.6-5.6-5.6h-13.2c-3.1,0-5.6,2.5-5.6,5.6v12.4ZM198.8,180.4v-12.4c0-2.5,2-4.4,4.4-4.4h13.2c2.5,0,4.4,2,4.4,4.4v12.4c0,2.5-2,4.4-4.4,4.4h-13.2c-2.5,0-4.4-2-4.4-4.4Z"/>
      <path id="rect4179-31-1-318" data-name="rect4179-31-1-3" class="st1" d="M169.6,180.4c0,3.1,2.5,5.6,5.6,5.6h13.2c3.1,0,5.6-2.5,5.6-5.6v-12.4c0-3.1-2.5-5.6-5.6-5.6h-13.2c-3.1,0-5.6,2.5-5.6,5.6v12.4ZM170.7,180.4v-12.4c0-2.5,2-4.4,4.4-4.4h13.2c2.5,0,4.4,2,4.4,4.4v12.4c0,2.5-2,4.4-4.4,4.4h-13.2c-2.5,0-4.4-2-4.4-4.4Z"/>
      <path id="rect4179-31-1-319" data-name="rect4179-31-1-3" class="st1" d="M253.9,180.4c0,3.1,2.5,5.6,5.6,5.6h13.2c3.1,0,5.6-2.5,5.6-5.6v-12.4c0-3.1-2.5-5.6-5.6-5.6h-13.2c-3.1,0-5.6,2.5-5.6,5.6v12.4ZM255.1,180.4v-12.4c0-2.5,2-4.4,4.4-4.4h13.2c2.5,0,4.4,2,4.4,4.4v12.4c0,2.5-2,4.4-4.4,4.4h-13.2c-2.5,0-4.4-2-4.4-4.4Z"/>
      <path id="rect4179-31-1-320" data-name="rect4179-31-1-3" class="st1" d="M225.8,180.4c0,3.1,2.5,5.6,5.6,5.6h13.2c3.1,0,5.6-2.5,5.6-5.6v-12.4c0-3.1-2.5-5.6-5.6-5.6h-13.2c-3.1,0-5.6,2.5-5.6,5.6v12.4ZM227,180.4v-12.4c0-2.5,2-4.4,4.4-4.4h13.2c2.5,0,4.4,2,4.4,4.4v12.4c0,2.5-2,4.4-4.4,4.4h-13.2c-2.5,0-4.4-2-4.4-4.4Z"/>
      <path id="rect4179-31-1-321" data-name="rect4179-31-1-3" class="st1" d="M310.1,180.4c0,3.1,2.5,5.6,5.6,5.6h13.2c3.1,0,5.6-2.5,5.6-5.6v-12.4c0-3.1-2.5-5.6-5.6-5.6h-13.2c-3.1,0-5.6,2.5-5.6,5.6v12.4ZM311.3,180.4v-12.4c0-2.5,2-4.4,4.4-4.4h13.2c2.5,0,4.4,2,4.4,4.4v12.4c0,2.5-2,4.4-4.4,4.4h-13.2c-2.5,0-4.4-2-4.4-4.4Z"/>
      <path id="rect4179-31-1-322" data-name="rect4179-31-1-3" class="st1" d="M282,180.4c0,3.1,2.5,5.6,5.6,5.6h13.2c3.1,0,5.6-2.5,5.6-5.6v-12.4c0-3.1-2.5-5.6-5.6-5.6h-13.2c-3.1,0-5.6,2.5-5.6,5.6v12.4ZM283.2,180.4v-12.4c0-2.5,2-4.4,4.4-4.4h13.2c2.5,0,4.4,2,4.4,4.4v12.4c0,2.5-2,4.4-4.4,4.4h-13.2c-2.5,0-4.4-2-4.4-4.4Z"/>
      <path id="rect4179-31-1-323" data-name="rect4179-31-1-3" class="st1" d="M366.3,180.4c0,3.1,2.5,5.6,5.6,5.6h13.2c3.1,0,5.6-2.5,5.6-5.6v-12.4c0-3.1-2.5-5.6-5.6-5.6h-13.2c-3.1,0-5.6,2.5-5.6,5.6v12.4ZM367.5,180.4v-12.4c0-2.5,2-4.4,4.4-4.4h13.2c2.5,0,4.4,2,4.4,4.4v12.4c0,2.5-2,4.4-4.4,4.4h-13.2c-2.5,0-4.4-2-4.4-4.4Z"/>
      <path id="rect4179-31-1-324" data-name="rect4179-31-1-3" class="st1" d="M338.2,180.4c0,3.1,2.5,5.6,5.6,5.6h13.2c3.1,0,5.6-2.5,5.6-5.6v-12.4c0-3.1-2.5-5.6-5.6-5.6h-13.2c-3.1,0-5.6,2.5-5.6,5.6v12.4ZM339.4,180.4v-12.4c0-2.5,2-4.4,4.4-4.4h13.2c2.5,0,4.4,2,4.4,4.4v12.4c0,2.5-2,4.4-4.4,4.4h-13.2c-2.5,0-4.4-2-4.4-4.4Z"/>
      <path id="rect4179-31-1-325" data-name="rect4179-31-1-3" class="st1" d="M422.6,180.4c0,3.1,2.5,5.6,5.6,5.6h39.6c3.1,0,5.6-2.5,5.6-5.6v-12.4c0-3.1-2.5-5.6-5.6-5.6h-39.6c-3.1,0-5.6,2.5-5.6,5.6v12.4ZM423.7,180.4v-12.4c0-2.5,2-4.4,4.4-4.4h39.6c2.5,0,4.4,2,4.4,4.4v12.4c0,2.5-2,4.4-4.4,4.4h-39.6c-2.5,0-4.4-2-4.4-4.4Z"/>
      <path id="rect4179-31-1-326" data-name="rect4179-31-1-3" class="st1" d="M394.4,180.4c0,3.1,2.5,5.6,5.6,5.6h13.2c3.1,0,5.6-2.5,5.6-5.6v-12.4c0-3.1-2.5-5.6-5.6-5.6h-13.2c-3.1,0-5.6,2.5-5.6,5.6v12.4ZM395.6,180.4v-12.4c0-2.5,2-4.4,4.4-4.4h13.2c2.5,0,4.4,2,4.4,4.4v12.4c0,2.5-2,4.4-4.4,4.4h-13.2c-2.5,0-4.4-2-4.4-4.4Z"/>
      <path id="rect4179-31-1-327" data-name="rect4179-31-1-3" class="st1" d="M130.5,153.8c0,3.1,2.5,5.6,5.6,5.6h13.2c3.1,0,5.6-2.5,5.6-5.6v-12.4c0-3.1-2.5-5.6-5.6-5.6h-13.2c-3.1,0-5.6,2.5-5.6,5.6v12.4ZM131.6,153.8v-12.4c0-2.5,2-4.4,4.4-4.4h13.2c2.5,0,4.4,2,4.4,4.4v12.4c0,2.5-2,4.4-4.4,4.4h-13.2c-2.5,0-4.4-2-4.4-4.4Z"/>
      <path id="rect4179-31-1-328" data-name="rect4179-31-1-3" class="st1" d="M102.4,153.8c0,3.1,2.5,5.6,5.6,5.6h13.2c3.1,0,5.6-2.5,5.6-5.6v-12.4c0-3.1-2.5-5.6-5.6-5.6h-13.2c-3.1,0-5.6,2.5-5.6,5.6v12.4ZM103.5,153.8v-12.4c0-2.5,2-4.4,4.4-4.4h13.2c2.5,0,4.4,2,4.4,4.4v12.4c0,2.5-2,4.4-4.4,4.4h-13.2c-2.5,0-4.4-2-4.4-4.4Z"/>
      <path id="rect4179-31-1-329" data-name="rect4179-31-1-3" class="st1" d="M186.7,153.8c0,3.1,2.5,5.6,5.6,5.6h13.2c3.1,0,5.6-2.5,5.6-5.6v-12.4c0-3.1-2.5-5.6-5.6-5.6h-13.2c-3.1,0-5.6,2.5-5.6,5.6v12.4ZM187.8,153.8v-12.4c0-2.5,2-4.4,4.4-4.4h13.2c2.5,0,4.4,2,4.4,4.4v12.4c0,2.5-2,4.4-4.4,4.4h-13.2c-2.5,0-4.4-2-4.4-4.4Z"/>
      <path id="rect4179-31-1-330" data-name="rect4179-31-1-3" class="st1" d="M158.6,153.8c0,3.1,2.5,5.6,5.6,5.6h13.2c3.1,0,5.6-2.5,5.6-5.6v-12.4c0-3.1-2.5-5.6-5.6-5.6h-13.2c-3.1,0-5.6,2.5-5.6,5.6v12.4ZM159.7,153.8v-12.4c0-2.5,2-4.4,4.4-4.4h13.2c2.5,0,4.4,2,4.4,4.4v12.4c0,2.5-2,4.4-4.4,4.4h-13.2c-2.5,0-4.4-2-4.4-4.4Z"/>
      <path id="rect4179-31-1-331" data-name="rect4179-31-1-3" class="st1" d="M242.9,153.8c0,3.1,2.5,5.6,5.6,5.6h13.2c3.1,0,5.6-2.5,5.6-5.6v-12.4c0-3.1-2.5-5.6-5.6-5.6h-13.2c-3.1,0-5.6,2.5-5.6,5.6v12.4ZM244,153.8v-12.4c0-2.5,2-4.4,4.4-4.4h13.2c2.5,0,4.4,2,4.4,4.4v12.4c0,2.5-2,4.4-4.4,4.4h-13.2c-2.5,0-4.4-2-4.4-4.4Z"/>
      <path id="rect4179-31-1-332" data-name="rect4179-31-1-3" class="st1" d="M214.8,153.8c0,3.1,2.5,5.6,5.6,5.6h13.2c3.1,0,5.6-2.5,5.6-5.6v-12.4c0-3.1-2.5-5.6-5.6-5.6h-13.2c-3.1,0-5.6,2.5-5.6,5.6v12.4ZM215.9,153.8v-12.4c0-2.5,2-4.4,4.4-4.4h13.2c2.5,0,4.4,2,4.4,4.4v12.4c0,2.5-2,4.4-4.4,4.4h-13.2c-2.5,0-4.4-2-4.4-4.4Z"/>
      <path id="rect4179-31-1-333" data-name="rect4179-31-1-3" class="st1" d="M299.1,153.8c0,3.1,2.5,5.6,5.6,5.6h13.2c3.1,0,5.6-2.5,5.6-5.6v-12.4c0-3.1-2.5-5.6-5.6-5.6h-13.2c-3.1,0-5.6,2.5-5.6,5.6v12.4ZM300.2,153.8v-12.4c0-2.5,2-4.4,4.4-4.4h13.2c2.5,0,4.4,2,4.4,4.4v12.4c0,2.5-2,4.4-4.4,4.4h-13.2c-2.5,0-4.4-2-4.4-4.4Z"/>
      <path id="rect4179-31-1-334" data-name="rect4179-31-1-3" class="st1" d="M271,153.8c0,3.1,2.5,5.6,5.6,5.6h13.2c3.1,0,5.6-2.5,5.6-5.6v-12.4c0-3.1-2.5-5.6-5.6-5.6h-13.2c-3.1,0-5.6,2.5-5.6,5.6v12.4ZM272.1,153.8v-12.4c0-2.5,2-4.4,4.4-4.4h13.2c2.5,0,4.4,2,4.4,4.4v12.4c0,2.5-2,4.4-4.4,4.4h-13.2c-2.5,0-4.4-2-4.4-4.4Z"/>
      <path id="rect4179-31-1-335" data-name="rect4179-31-1-3" class="st1" d="M355.3,153.8c0,3.1,2.5,5.6,5.6,5.6h13.2c3.1,0,5.6-2.5,5.6-5.6v-12.4c0-3.1-2.5-5.6-5.6-5.6h-13.2c-3.1,0-5.6,2.5-5.6,5.6v12.4ZM356.4,153.8v-12.4c0-2.5,2-4.4,4.4-4.4h13.2c2.5,0,4.4,2,4.4,4.4v12.4c0,2.5-2,4.4-4.4,4.4h-13.2c-2.5,0-4.4-2-4.4-4.4Z"/>
      <path id="rect4179-31-1-336" data-name="rect4179-31-1-3" class="st1" d="M327.2,153.8c0,3.1,2.5,5.6,5.6,5.6h13.2c3.1,0,5.6-2.5,5.6-5.6v-12.4c0-3.1-2.5-5.6-5.6-5.6h-13.2c-3.1,0-5.6,2.5-5.6,5.6v12.4ZM328.3,153.8v-12.4c0-2.5,2-4.4,4.4-4.4h13.2c2.5,0,4.4,2,4.4,4.4v12.4c0,2.5-2,4.4-4.4,4.4h-13.2c-2.5,0-4.4-2-4.4-4.4Z"/>
      <path id="rect4179-31-1-337" data-name="rect4179-31-1-3" class="st1" d="M411.5,153.8c0,3.1,2.5,5.6,5.6,5.6h13.2c3.1,0,5.6-2.5,5.6-5.6v-12.4c0-3.1-2.5-5.6-5.6-5.6h-13.2c-3.1,0-5.6,2.5-5.6,5.6v12.4ZM412.7,153.8v-12.4c0-2.5,2-4.4,4.4-4.4h13.2c2.5,0,4.4,2,4.4,4.4v12.4c0,2.5-2,4.4-4.4,4.4h-13.2c-2.5,0-4.4-2-4.4-4.4Z"/>
      <path id="rect4179-31-1-338" data-name="rect4179-31-1-3" class="st1" d="M383.4,153.8c0,3.1,2.5,5.6,5.6,5.6h13.2c3.1,0,5.6-2.5,5.6-5.6v-12.4c0-3.1-2.5-5.6-5.6-5.6h-13.2c-3.1,0-5.6,2.5-5.6,5.6v12.4ZM384.5,153.8v-12.4c0-2.5,2-4.4,4.4-4.4h13.2c2.5,0,4.4,2,4.4,4.4v12.4c0,2.5-2,4.4-4.4,4.4h-13.2c-2.5,0-4.4-2-4.4-4.4Z"/>
      <path id="rect4179-31-1-339" data-name="rect4179-31-1-3" class="st1" d="M467.7,153.8c0,3.1,2.5,5.6,5.6,5.6h13.2c3.1,0,5.6-2.5,5.6-5.6v-12.4c0-3.1-2.5-5.6-5.6-5.6h-13.2c-3.1,0-5.6,2.5-5.6,5.6v12.4ZM468.9,153.8v-12.4c0-2.5,2-4.4,4.4-4.4h13.2c2.5,0,4.4,2,4.4,4.4v12.4c0,2.5-2,4.4-4.4,4.4h-13.2c-2.5,0-4.4-2-4.4-4.4Z"/>
      <path id="rect4179-31-1-340" data-name="rect4179-31-1-3" class="st1" d="M439.6,153.8c0,3.1,2.5,5.6,5.6,5.6h13.2c3.1,0,5.6-2.5,5.6-5.6v-12.4c0-3.1-2.5-5.6-5.6-5.6h-13.2c-3.1,0-5.6,2.5-5.6,5.6v12.4ZM440.8,153.8v-12.4c0-2.5,2-4.4,4.4-4.4h13.2c2.5,0,4.4,2,4.4,4.4v12.4c0,2.5-2,4.4-4.4,4.4h-13.2c-2.5,0-4.4-2-4.4-4.4Z"/>
      <path id="rect4179-31-1-341" data-name="rect4179-31-1-3" class="st1" d="M112.9,206.8c0,3.1,2.5,5.6,5.6,5.6h30.8c3.1,0,5.6-2.5,5.6-5.6v-12.4c0-3.1-2.5-5.6-5.6-5.6h-30.8c-3.1,0-5.6,2.5-5.6,5.6v12.4ZM114,206.8v-12.4c0-2.5,2-4.4,4.4-4.4h30.8c2.5,0,4.4,2,4.4,4.4v12.4c0,2.5-2,4.4-4.4,4.4h-30.8c-2.5,0-4.4-2-4.4-4.4Z"/>
      <path id="rect4179-31-1-342" data-name="rect4179-31-1-3" class="st1" d="M193.6,234.5c0,3.1,2.5,5.6,5.6,5.6h192.5c3.1,0,5.6-2.5,5.6-5.6v-12.4c0-3.1-2.5-5.6-5.6-5.6h-192.5c-3.1,0-5.6,2.5-5.6,5.6v12.4ZM194.7,234.5v-12.4c0-2.5,2-4.4,4.4-4.4h192.5c2.5,0,4.4,2,4.4,4.4v12.4c0,2.5-2,4.4-4.4,4.4h-192.5c-2.5,0-4.4-2-4.4-4.4Z"/>
      <path id="rect4179-31-1-343" data-name="rect4179-31-1-3" class="st1" d="M186.7,206.8c0,3.1,2.5,5.6,5.6,5.6h13.2c3.1,0,5.6-2.5,5.6-5.6v-12.4c0-3.1-2.5-5.6-5.6-5.6h-13.2c-3.1,0-5.6,2.5-5.6,5.6v12.4ZM187.8,206.8v-12.4c0-2.5,2-4.4,4.4-4.4h13.2c2.5,0,4.4,2,4.4,4.4v12.4c0,2.5-2,4.4-4.4,4.4h-13.2c-2.5,0-4.4-2-4.4-4.4Z"/>
      <path id="rect4179-31-1-344" data-name="rect4179-31-1-3" class="st1" d="M158.6,206.8c0,3.1,2.5,5.6,5.6,5.6h13.2c3.1,0,5.6-2.5,5.6-5.6v-12.4c0-3.1-2.5-5.6-5.6-5.6h-13.2c-3.1,0-5.6,2.5-5.6,5.6v12.4ZM159.7,206.8v-12.4c0-2.5,2-4.4,4.4-4.4h13.2c2.5,0,4.4,2,4.4,4.4v12.4c0,2.5-2,4.4-4.4,4.4h-13.2c-2.5,0-4.4-2-4.4-4.4Z"/>
      <path id="rect4179-31-1-345" data-name="rect4179-31-1-3" class="st1" d="M242.9,206.8c0,3.1,2.5,5.6,5.6,5.6h13.2c3.1,0,5.6-2.5,5.6-5.6v-12.4c0-3.1-2.5-5.6-5.6-5.6h-13.2c-3.1,0-5.6,2.5-5.6,5.6v12.4ZM244,206.8v-12.4c0-2.5,2-4.4,4.4-4.4h13.2c2.5,0,4.4,2,4.4,4.4v12.4c0,2.5-2,4.4-4.4,4.4h-13.2c-2.5,0-4.4-2-4.4-4.4Z"/>
      <path id="rect4179-31-1-346" data-name="rect4179-31-1-3" class="st1" d="M214.8,206.8c0,3.1,2.5,5.6,5.6,5.6h13.2c3.1,0,5.6-2.5,5.6-5.6v-12.4c0-3.1-2.5-5.6-5.6-5.6h-13.2c-3.1,0-5.6,2.5-5.6,5.6v12.4ZM215.9,206.8v-12.4c0-2.5,2-4.4,4.4-4.4h13.2c2.5,0,4.4,2,4.4,4.4v12.4c0,2.5-2,4.4-4.4,4.4h-13.2c-2.5,0-4.4-2-4.4-4.4Z"/>
      <path id="rect4179-31-1-347" data-name="rect4179-31-1-3" class="st1" d="M299.1,206.8c0,3.1,2.5,5.6,5.6,5.6h13.2c3.1,0,5.6-2.5,5.6-5.6v-12.4c0-3.1-2.5-5.6-5.6-5.6h-13.2c-3.1,0-5.6,2.5-5.6,5.6v12.4ZM300.2,206.8v-12.4c0-2.5,2-4.4,4.4-4.4h13.2c2.5,0,4.4,2,4.4,4.4v12.4c0,2.5-2,4.4-4.4,4.4h-13.2c-2.5,0-4.4-2-4.4-4.4Z"/>
      <path id="rect4179-31-1-348" data-name="rect4179-31-1-3" class="st1" d="M271,206.8c0,3.1,2.5,5.6,5.6,5.6h13.2c3.1,0,5.6-2.5,5.6-5.6v-12.4c0-3.1-2.5-5.6-5.6-5.6h-13.2c-3.1,0-5.6,2.5-5.6,5.6v12.4ZM272.1,206.8v-12.4c0-2.5,2-4.4,4.4-4.4h13.2c2.5,0,4.4,2,4.4,4.4v12.4c0,2.5-2,4.4-4.4,4.4h-13.2c-2.5,0-4.4-2-4.4-4.4Z"/>
      <path id="rect4179-31-1-349" data-name="rect4179-31-1-3" class="st1" d="M355.3,206.8c0,3.1,2.5,5.6,5.6,5.6h13.2c3.1,0,5.6-2.5,5.6-5.6v-12.4c0-3.1-2.5-5.6-5.6-5.6h-13.2c-3.1,0-5.6,2.5-5.6,5.6v12.4ZM356.4,206.8v-12.4c0-2.5,2-4.4,4.4-4.4h13.2c2.5,0,4.4,2,4.4,4.4v12.4c0,2.5-2,4.4-4.4,4.4h-13.2c-2.5,0-4.4-2-4.4-4.4Z"/>
      <path id="rect4179-31-1-350" data-name="rect4179-31-1-3" class="st1" d="M327.2,206.8c0,3.1,2.5,5.6,5.6,5.6h13.2c3.1,0,5.6-2.5,5.6-5.6v-12.4c0-3.1-2.5-5.6-5.6-5.6h-13.2c-3.1,0-5.6,2.5-5.6,5.6v12.4ZM328.3,206.8v-12.4c0-2.5,2-4.4,4.4-4.4h13.2c2.5,0,4.4,2,4.4,4.4v12.4c0,2.5-2,4.4-4.4,4.4h-13.2c-2.5,0-4.4-2-4.4-4.4Z"/>
      <path id="rect4179-31-1-351" data-name="rect4179-31-1-3" class="st1" d="M383.4,206.8c0,3.1,2.5,5.6,5.6,5.6h13.2c3.1,0,5.6-2.5,5.6-5.6v-12.4c0-3.1-2.5-5.6-5.6-5.6h-13.2c-3.1,0-5.6,2.5-5.6,5.6v12.4ZM384.5,206.8v-12.4c0-2.5,2-4.4,4.4-4.4h13.2c2.5,0,4.4,2,4.4,4.4v12.4c0,2.5-2,4.4-4.4,4.4h-13.2c-2.5,0-4.4-2-4.4-4.4Z"/>
      <path id="rect4179-31-1-352" data-name="rect4179-31-1-3" class="st1" d="M464,206.8c0,3.1,2.5,5.6,5.6,5.6h13.2c3.1,0,5.6-2.5,5.6-5.6v-12.4c0-3.1-2.5-5.6-5.6-5.6h-13.2c-3.1,0-5.6,2.5-5.6,5.6v12.4ZM465.1,206.8v-12.4c0-2.5,2-4.4,4.4-4.4h13.2c2.5,0,4.4,2,4.4,4.4v12.4c0,2.5-2,4.4-4.4,4.4h-13.2c-2.5,0-4.4-2-4.4-4.4Z"/>
      <path id="rect4179-31-1-353" data-name="rect4179-31-1-3" class="st1" d="M411.7,206.8c0,3.1,2.5,5.6,5.6,5.6h37.3c3.1,0,5.6-2.5,5.6-5.6v-12.4c0-3.1-2.5-5.6-5.6-5.6h-37.3c-3.1,0-5.6,2.5-5.6,5.6v12.4ZM412.8,206.8v-12.4c0-2.5,2-4.4,4.4-4.4h37.3c2.5,0,4.4,2,4.4,4.4v12.4c0,2.5-2,4.4-4.4,4.4h-37.3c-2.5,0-4.4-2-4.4-4.4Z"/>
    </g>
  </g>
</svg>