<?xml version="1.0" encoding="UTF-8"?>
<svg id="Layer_3" xmlns="http://www.w3.org/2000/svg" version="1.1" xmlns:cc="http://creativecommons.org/ns#" xmlns:dc="http://purl.org/dc/elements/1.1/" xmlns:rdf="http://www.w3.org/1999/02/22-rdf-syntax-ns#" viewBox="0 0 598.2 350.3">
  <!-- Generator: Adobe Illustrator 29.0.1, SVG Export Plug-In . SVG Version: 2.1.0 Build 192)  -->
  <defs>
    <style>
      .st0 {
        fill: #fbfbfb;
      }

      .st1 {
        fill: #f5f1f1;
        fill-opacity: 0;
      }
    </style>
  </defs>
  <g id="_x39_37113">
    <g vector-effect="non-scaling-stroke">
      <path class="st1" d="M466.6,52.4c-2.4-7-6.8-10.7-6.8-10.7-.2-9.2-3.2-10.8-3.2-10.8-14.5-11.5-37.1-17.4-47.1-17.7-10-.3-17.9-1.1-20.3,3-2.4,4.1-5.2,4.7-5.2,4.7,0,0-3.6-.2-7.4,2.1-3.8,2.3-19.1,11.1-25.8,13.9-6.7,2.9-22.7,3.6-28.9,4-5.5.4-17.3.8-19.9.9-3.6,0-20.1-.5-25.6-.9-6.2-.4-22.3-1.1-28.9-4-6.7-2.9-22-11.7-25.8-13.9-3.8-2.3-7.4-2.1-7.4-2.1,0,0-2.8-.7-5.2-4.7-2.4-4.1-10.3-3.3-20.3-3-10,.3-32.7,6.2-47.1,17.7,0,0-3,1.6-3.2,10.8,0,0-4.5,3.7-6.8,10.7-2.4,7-91.7,250.7-21.5,280.4,19.8,8.4,41.2-10.3,52.7-19.4,11.5-9.1,43.4-46.3,66.4-53.8,22.6-7.4,47.4-10.6,72.2-10.3h0c.2,0,.4,0,.6,0,.2,0,.4,0,.6,0h0c24.6-.3,43.7,2.9,66.3,10.3,23,7.5,54.9,44.7,66.4,53.8,11.5,9.1,32.9,27.8,52.7,19.4,70.2-29.7-19.2-273.4-21.5-280.4Z"/>
      <path class="st0" d="M477.6,336.4h0c-15.8,0-30.9-12.1-40.8-20.1-.8-.6-1.5-1.2-2.2-1.7-3.2-2.6-8.1-7.4-13.8-12.9-14.3-14.1-35.9-35.3-52.2-40.7-22.3-7.3-40.5-10.2-63-10.2s-.9,0-1.4,0h0s-2.1,0-2.1,0h-2.1s0,0,0,0c-.5,0-1,0-1.5,0-24.9,0-48.1,3.4-68.9,10.2-16.3,5.3-37.9,26.6-52.2,40.7-5.6,5.5-10.5,10.3-13.8,12.9-.7.5-1.4,1.1-2.2,1.7-10,8-25.1,20.1-40.8,20.1s-7.6-.7-11.1-2.2c-29-12.3-35.4-60.4-18.8-143.1,11-55.1,29.1-109.8,38.9-137.5.3-.9.5-1.5.6-1.7,2-5.9,5.4-9.6,6.7-10.9.4-8.5,3-10.9,3.9-11.4,14.2-11.2,36.9-17.6,47.9-17.9,1.1,0,2.2,0,3.3-.1,9-.3,15.7-.5,18.3,3.9,1.7,3,3.6,3.8,4.1,4,.9,0,4.3.1,7.9,2.3,3.7,2.2,19,11,25.6,13.9,5.8,2.5,19.8,3.3,26.5,3.7h2c5.5.5,22.3.9,25.6,1,2.3,0,14.2-.5,19.8-.9h2c6.7-.5,20.6-1.3,26.5-3.8,6.6-2.8,21.9-11.6,25.6-13.9,3.6-2.1,7-2.3,7.9-2.3.5-.2,2.4-1,4.1-4,2.5-4.4,9.3-4.2,18.3-3.9,1.1,0,2.2,0,3.3.1,10.9.3,33.7,6.7,47.9,17.9.8.5,3.5,2.9,3.9,11.4,1.3,1.3,4.7,4.9,6.7,10.9,0,.3.3.8.6,1.7,9.8,27.7,27.9,82.4,38.9,137.5,16.5,82.7,10.2,130.8-18.8,143.1-3.5,1.5-7.2,2.2-11.1,2.2ZM305.6,247.7c22.8,0,41.3,3,63.9,10.4,17,5.5,38,26.2,53.4,41.4,5.6,5.5,10.4,10.2,13.5,12.7.7.6,1.4,1.1,2.2,1.8,9.7,7.7,24.3,19.4,39.1,19.4h0c3.5,0,6.9-.7,10-2,14.9-6.3,23.5-23.5,25.5-51,1.6-22.7-1.2-52.5-8.4-88.6-11-54.9-29-109.4-38.8-137.1-.3-.9-.5-1.5-.6-1.8-2.2-6.4-6.3-9.9-6.3-10l-.5-.4v-.7c-.2-7.9-2.5-9.5-2.5-9.5h-.2c-13.7-11-35.7-17.2-46.3-17.5-1.1,0-2.2,0-3.3-.1-2.1,0-4.1-.1-6-.1-4.1,0-8.4.3-9.7,2.5-2.6,4.6-6,5.4-6.1,5.5h-.2s-.3,0-.3,0c-.8,0-3.5.1-6.4,1.9-3.8,2.3-19.2,11.1-26,14-6.3,2.7-20,3.5-27.4,3.9h-2c-5.6.5-17.6.9-19.9,1-3.4,0-20.2-.5-25.8-.9h-2c-7.4-.6-21.1-1.4-27.4-4.1-6.7-2.9-22.2-11.8-26-14-2.9-1.7-5.7-1.9-6.4-1.9h-.3s-.2,0-.2,0c-.1,0-3.5-.9-6.1-5.5-1.3-2.2-5.6-2.5-9.7-2.5s-3.8,0-6,.1c-1.1,0-2.2,0-3.3.1-10.6.3-32.6,6.5-46.3,17.4h-.2c0,.1-2.2,1.8-2.4,9.6v.7s-.6.5-.6.5c0,0-4.2,3.5-6.3,10,0,.3-.3.9-.6,1.8-9.8,27.6-27.8,82.2-38.8,137.1-7.2,36-10,65.8-8.4,88.6,2,27.5,10.5,44.7,25.5,51,3.1,1.3,6.5,2,10,2,14.8,0,29.4-11.7,39.1-19.4.8-.6,1.5-1.2,2.2-1.8,3.1-2.5,7.9-7.2,13.5-12.7,15.4-15.1,36.4-35.8,53.4-41.4,21.1-6.9,44.6-10.4,69.7-10.4s2,0,3,0h.8s.4,0,.4,0c1,0,1.9,0,2.9,0Z"/>
      <path class="st1" d="M393.6,94.5c0,8.5-6.5,15.4-14.4,15.4s-14.4-6.9-14.4-15.4,6.5-15.4,14.4-15.4,14.4,6.9,14.4,15.4Z"/>
      <path class="st0" d="M379.1,111.4c-8.7,0-15.8-7.6-15.8-16.9s7.1-16.9,15.8-16.9,15.8,7.6,15.8,16.9-7.1,16.9-15.8,16.9ZM379.1,80.6c-7.2,0-13.1,6.2-13.1,13.9s5.9,13.9,13.1,13.9,13.1-6.2,13.1-13.9-5.9-13.9-13.1-13.9Z"/>
      <path class="st0" d="M387.8,104.6h-4.5l-4.3-7.4-4.3,7.4h-4.2l6.1-10.1-5.7-9.5h4.3l4,7.1,3.9-7.1h4.2l-5.8,9.7,6.2,9.9Z"/>
      <path class="st1" d="M427.3,59c0,8.5-6.5,15.4-14.4,15.4s-14.4-6.9-14.4-15.4,6.5-15.4,14.4-15.4,14.4,6.9,14.4,15.4Z"/>
      <path class="st0" d="M412.8,75.9c-8.7,0-15.8-7.6-15.8-16.9s7.1-16.9,15.8-16.9,15.8,7.6,15.8,16.9c0,9.3-7.1,16.9-15.8,16.9ZM412.8,45.1c-7.2,0-13.1,6.2-13.1,13.9s5.9,13.9,13.1,13.9,13.1-6.2,13.1-13.9c0-7.7-5.9-13.9-13.1-13.9Z"/>
      <path class="st1" d="M461.5,94.5c0,8.5-6.5,15.4-14.4,15.4s-14.4-6.9-14.4-15.4,6.5-15.4,14.4-15.4,14.4,6.9,14.4,15.4Z"/>
      <path class="st0" d="M447.1,111.4c-8.7,0-15.8-7.6-15.8-16.9s7.1-16.9,15.8-16.9,15.8,7.6,15.8,16.9-7.1,16.9-15.8,16.9ZM447.1,80.6c-7.2,0-13.1,6.2-13.1,13.9s5.9,13.9,13.1,13.9,13.1-6.2,13.1-13.9c0-7.7-5.9-13.9-13.1-13.9Z"/>
      <path class="st0" d="M412.9,58.9l3.8-8.1h4.2l-6.1,12v7.7h-3.9v-7.5l-6.1-12.1h4.2l3.8,8.1Z"/>
      <path class="st1" d="M427.3,130.3c0,8.5-6.5,15.4-14.4,15.4s-14.4-6.9-14.4-15.4,6.5-15.4,14.4-15.4c8,0,14.4,6.9,14.4,15.4Z"/>
      <path class="st0" d="M412.8,147.2c-8.7,0-15.8-7.6-15.8-16.9s7.1-16.9,15.8-16.9,15.8,7.6,15.8,16.9-7.1,16.9-15.8,16.9ZM412.8,116.4c-7.2,0-13.1,6.2-13.1,13.9s5.9,13.9,13.1,13.9,13.1-6.2,13.1-13.9c0-7.7-5.9-13.9-13.1-13.9Z"/>
      <path class="st0" d="M441.3,84.7h5.7c2.6,0,4.5.4,5.7,1.2,1.2.8,1.8,2.1,1.8,3.8s-.3,2.1-.8,2.9c-.5.8-1.2,1.2-2.1,1.4h0c1.2.4,2,.9,2.5,1.7.5.8.8,1.8.8,3,0,1.8-.6,3.2-1.8,4.2-1.2,1-2.9,1.5-4.9,1.5h-6.9v-19.7h0ZM445.3,92.5h2.3c1.1,0,1.8-.2,2.3-.5.5-.3.7-.9.7-1.7s-.3-1.3-.8-1.6c-.5-.3-1.3-.5-2.4-.5h-2.1v4.4h0ZM445.3,95.8v5.1h2.5c1.1,0,1.9-.2,2.4-.7.5-.4.8-1.1.8-2,0-1.6-1.1-2.5-3.3-2.5h-2.4Z"/>
      <path class="st0" d="M417.3,138.7l-1.3-4.7h-6.7l-1.3,4.7h-4.2l6.5-19.7h4.8l6.5,19.7h-4.2ZM415.1,130.5c-1.2-4.2-1.9-6.6-2.1-7.2-.2-.6-.3-1-.3-1.3-.3,1.2-1.1,4-2.4,8.5h4.8Z"/>
      <ellipse class="st1" cx="255.4" cy="80.3" rx="9.1" ry="9.7"/>
      <path class="st0" d="M255.4,91c-5.5,0-10-4.8-10-10.7s4.5-10.7,10-10.7,10,4.8,10,10.7-4.5,10.7-10,10.7ZM255.4,71.6c-4.5,0-8.1,3.9-8.1,8.6s3.6,8.6,8.1,8.6,8.1-3.9,8.1-8.6-3.6-8.6-8.1-8.6Z"/>
      <polygon class="st0" points="249.3 80.3 254 77.4 258.7 74.5 258.7 80.3 258.7 86.1 254 83.2 249.3 80.3"/>
      <ellipse class="st1" cx="339.8" cy="80.3" rx="9.1" ry="9.7"/>
      <path class="st0" d="M339.8,91c-5.5,0-10-4.8-10-10.7s4.5-10.7,10-10.7,10,4.8,10,10.7-4.5,10.7-10,10.7ZM339.8,71.6c-4.5,0-8.1,3.9-8.1,8.6s3.6,8.6,8.1,8.6,8.1-3.9,8.1-8.6c0-4.8-3.6-8.6-8.1-8.6Z"/>
      <polygon class="st0" points="345.8 80.3 341.1 77.4 336.4 74.5 336.4 80.3 336.4 86.1 341.1 83.2 345.8 80.3"/>
      <path class="st1" d="M318.9,80.3c0,12.5-9.5,22.5-21.1,22.5s-21.1-10.1-21.1-22.5,9.5-22.5,21.1-22.5,21.1,10.1,21.1,22.5Z"/>
      <path class="st0" d="M297.7,104.7c-12.6,0-22.9-11-22.9-24.4s10.3-24.5,22.9-24.5,22.9,11,22.9,24.5-10.3,24.4-22.9,24.4ZM297.7,59.6c-10.7,0-19.4,9.3-19.4,20.6s8.7,20.6,19.4,20.6,19.4-9.3,19.4-20.6-8.7-20.6-19.4-20.6Z"/>
      <path class="st0" d="M283.5,63.1s.7,0,2,0c.6,0,1.4,0,2.3.3.9.1,1.8.4,2.9.7,1,.3,2.2.7,3.3,1.3,1.1.5,2.4,1.1,3.5,1.9,1.2.7,2.4,1.6,3.5,2.5,1.1.9,2.2,2,3.3,3,1,1.2,2.1,2.2,3,3.5.9,1.2,1.7,2.4,2.5,3.6.7,1.2,1.4,2.5,2,3.6.6,1.2,1,2.4,1.5,3.4.9,2.1,1.3,4,1.7,5.3.3,1.3.5,2.1.5,2.1,0,0-.5-.6-1.2-1.7-.4-.5-.8-1.2-1.3-2-.5-.8-1.1-1.6-1.7-2.5-.6-.9-1.3-1.9-2-2.9-.8-1-1.6-2-2.3-3.1-.8-1.1-1.7-2.1-2.6-3.2-.9-1-1.9-2-2.8-3.1-1-1-2-2-3-2.9-1-.9-2-1.8-3-2.6-1-.8-2-1.6-3-2.2-1-.7-1.9-1.3-2.8-1.8-1.8-1.1-3.3-1.9-4.4-2.4-1.1-.5-1.8-.8-1.8-.8Z"/>
      <path class="st0" d="M312.2,63.1s-.7.3-1.8.8c-1.1.6-2.7,1.4-4.5,2.4-.9.6-1.8,1.2-2.8,1.8-1,.7-2,1.4-3,2.2-1,.7-2,1.7-3,2.6-1,.9-2,1.9-3,2.9-.9,1.1-1.9,2-2.8,3.1-.8,1.1-1.8,2.1-2.6,3.2-.8,1.1-1.6,2.1-2.3,3.1-.7,1-1.3,2-2,2.9-.6.9-1.2,1.7-1.7,2.5-.5.8-.9,1.4-1.3,2-.7,1.1-1.2,1.7-1.2,1.7,0,0,.2-.8.5-2.1.4-1.3.8-3.2,1.7-5.3.4-1.1.9-2.2,1.5-3.4.6-1.2,1.3-2.4,2-3.6.8-1.2,1.6-2.4,2.5-3.6.9-1.2,2-2.3,3-3.5,1.1-1,2.2-2.1,3.3-3,1.2-.9,2.3-1.8,3.5-2.5,1.2-.8,2.4-1.4,3.5-1.9,1.1-.6,2.3-.9,3.3-1.3,1-.3,2-.6,2.9-.7.9-.2,1.7-.2,2.3-.3,1.3,0,2,0,2,0Z"/>
      <ellipse class="st1" cx="178.5" cy="94.7" rx="36.7" ry="39.2"/>
      <path class="st0" d="M178.5,135.4c-21.1,0-38.2-18.3-38.2-40.7s17.1-40.7,38.2-40.7,38.2,18.3,38.2,40.7-17.1,40.7-38.2,40.7ZM178.5,57c-19.5,0-35.3,16.9-35.3,37.6s15.8,37.6,35.3,37.6,35.3-16.9,35.3-37.6c0-20.7-15.8-37.6-35.3-37.6Z"/>
      <ellipse class="st1" cx="178.5" cy="94.7" rx="23" ry="24.5"/>
      <path class="st0" d="M178.5,120.7c-13.5,0-24.5-11.7-24.5-26.1s11-26.1,24.5-26.1,24.5,11.7,24.5,26.1c0,14.4-11,26.1-24.5,26.1ZM178.5,71.7c-11.9,0-21.5,10.3-21.5,23s9.7,23,21.5,23,21.5-10.3,21.5-23c0-12.7-9.7-23-21.5-23Z"/>
      <ellipse class="st1" cx="175.3" cy="92.4" rx="21.4" ry="22.8"/>
      <path class="st0" d="M175.3,116.8c-12.6,0-22.9-10.9-22.9-24.4s10.3-24.4,22.9-24.4,22.9,10.9,22.9,24.4-10.3,24.4-22.9,24.4ZM175.3,71.1c-11,0-20,9.6-20,21.3s9,21.3,20,21.3,20-9.6,20-21.3-9-21.3-20-21.3Z"/>
      <ellipse class="st1" cx="352.6" cy="185.3" rx="41.4" ry="44.1"/>
      <path class="st0" d="M352.6,231c-18.6,0-35-12.7-40.7-31.6-3.5-11.6-2.6-24,2.6-34.9,5.2-10.9,14-18.9,24.9-22.7,4.3-1.5,8.8-2.3,13.3-2.3,18.6,0,35,12.7,40.7,31.6,3.5,11.6,2.6,24-2.6,34.9-5.2,10.9-14,18.9-24.9,22.7-4.3,1.5-8.8,2.3-13.3,2.3ZM352.6,142.8c-4.2,0-8.3.7-12.4,2.1-10.1,3.5-18.4,11-23.2,21.2-4.8,10.1-5.7,21.7-2.4,32.5,5.4,17.6,20.6,29.4,38,29.4s8.3-.7,12.4-2.1c10.1-3.5,18.4-11,23.2-21.2,4.8-10.1,5.7-21.7,2.4-32.5-5.4-17.6-20.6-29.4-38-29.4Z"/>
      <ellipse class="st1" cx="246.7" cy="185.3" rx="41.4" ry="44.1"/>
      <path class="st0" d="M246.7,231c-18.6,0-35-12.7-40.7-31.6-3.5-11.6-2.6-24,2.6-34.9,5.2-10.9,14-18.9,24.9-22.7,4.3-1.5,8.8-2.3,13.3-2.3,18.6,0,35,12.7,40.7,31.6,3.5,11.6,2.6,24-2.6,34.9-5.2,10.9-14,18.9-24.9,22.7-4.3,1.5-8.8,2.3-13.3,2.3ZM246.7,142.8c-4.2,0-8.3.7-12.4,2.1-10.1,3.5-18.4,11-23.2,21.2-4.8,10.1-5.7,21.7-2.4,32.5,5.4,17.6,20.6,29.4,38,29.4s8.3-.7,12.4-2.1c10.1-3.5,18.4-11,23.2-21.2,4.8-10.1,5.7-21.7,2.4-32.5-5.4-17.6-20.6-29.4-38-29.4Z"/>
      <ellipse class="st1" cx="246.7" cy="185.3" rx="30.9" ry="32.9"/>
      <path class="st0" d="M246.7,219.8c-14,0-26.4-9.6-30.7-23.8-2.7-8.8-2-18.1,1.9-26.3,3.9-8.2,10.6-14.3,18.8-17.1,3.3-1.1,6.6-1.7,10-1.7,14,0,26.4,9.6,30.7,23.8,2.7,8.8,2,18.1-1.9,26.3s-10.6,14.3-18.8,17.1c-3.3,1.1-6.6,1.7-10,1.7ZM246.7,154c-3.1,0-6.1.5-9.1,1.5-7.5,2.6-13.6,8.1-17.1,15.6-3.6,7.5-4.2,16-1.8,23.9,4,13,15.2,21.7,28,21.7s6.2-.5,9.1-1.5c7.5-2.6,13.6-8.1,17.1-15.6,3.6-7.5,4.2-16,1.8-23.9-4-13-15.2-21.7-28-21.7Z"/>
      <ellipse class="st1" cx="352.6" cy="185.3" rx="25.9" ry="27.6"/>
      <path class="st0" d="M352.6,214.5c-11.9,0-22.3-8.1-26-20.2-4.7-15.3,3.2-31.8,17.6-36.8,2.8-1,5.6-1.4,8.5-1.4,11.9,0,22.3,8.1,26,20.2,2.3,7.4,1.7,15.3-1.6,22.3-3.3,6.9-9,12.1-15.9,14.5-2.8,1-5.6,1.4-8.5,1.4ZM352.6,159.3c-2.6,0-5.1.4-7.6,1.3-12.8,4.4-19.9,19.2-15.7,32.9,3.3,10.8,12.6,18,23.2,18s5.1-.4,7.6-1.3c6.2-2.2,11.3-6.8,14.2-13,3-6.2,3.5-13.3,1.5-19.9-3.3-10.8-12.6-18-23.2-18Z"/>
      <ellipse class="st1" cx="353.7" cy="181" rx="24.1" ry="25.7"/>
      <path class="st0" d="M353.7,208.3c-11.1,0-20.9-7.6-24.3-18.8-4.4-14.3,3-29.7,16.4-34.4,2.6-.9,5.2-1.3,7.9-1.3,11.1,0,20.9,7.6,24.3,18.8,2.1,6.9,1.6,14.3-1.5,20.8-3.1,6.5-8.4,11.3-14.9,13.6-2.6.9-5.2,1.3-7.9,1.3ZM353.7,156.8c-2.4,0-4.7.4-7,1.2-11.9,4.1-18.4,17.8-14.5,30.5,3,10,11.7,16.7,21.6,16.7s4.7-.4,7-1.2c5.8-2,10.4-6.3,13.2-12,2.7-5.8,3.2-12.3,1.4-18.4-3-10-11.7-16.7-21.6-16.7Z"/>
      <path class="st1" d="M269.9,176.5l-14.4-1-1-15.7c0-2.9-2.2-5.3-4.9-5.3h-6.8c-2.7,0-4.9,2.4-4.9,5.3l-1,15.7-14.4,1c-2.7,0-4.9,2.4-4.9,5.3v7.4c0,2.9,2.2,5.3,4.9,5.3l14.4,1,1,15.7c0,2.9,2.2,5.3,4.9,5.3h6.8c2.7,0,4.9-2.4,4.9-5.3l1-15.7,14.4-1c2.7,0,4.9-2.4,4.9-5.3v-7.4c0-2.9-2.2-5.3-4.9-5.3Z"/>
      <path class="st0" d="M249.7,218.1h-6.8c-3.5,0-6.3-3.1-6.3-6.8l-.9-14.3-13.1-.9c-3.5,0-6.3-3.1-6.3-6.8v-7.4c0-3.8,2.8-6.8,6.3-6.8l13.1-.9.9-14.4c0-3.7,2.8-6.7,6.3-6.7h6.8c3.5,0,6.3,3.1,6.3,6.8l.9,14.3,13.1.9c3.5,0,6.3,3.1,6.3,6.8v7.4c0,3.8-2.8,6.8-6.3,6.8l-13.1.9-.9,14.4c0,3.7-2.8,6.7-6.3,6.7ZM222.7,178c-1.9,0-3.4,1.7-3.4,3.7v7.4c0,2.1,1.5,3.7,3.4,3.7h0s15.7,1.1,15.7,1.1l1.1,17.1c0,2.2,1.5,3.8,3.4,3.8h6.8c1.9,0,3.4-1.7,3.4-3.7l1.1-17.2,15.8-1.1c1.9,0,3.4-1.7,3.4-3.7v-7.4c0-2.1-1.5-3.7-3.4-3.7h0s-15.7-1.1-15.7-1.1l-1.1-17.1c0-2.2-1.5-3.8-3.4-3.8h-6.8c-1.9,0-3.4,1.7-3.4,3.7l-1.1,17.2-15.8,1.1Z"/>
    </g>
  </g>
</svg>