<?xml version="1.0" encoding="UTF-8"?>
<svg xmlns="http://www.w3.org/2000/svg" version="1.1" xmlns:cc="http://creativecommons.org/ns#" xmlns:dc="http://purl.org/dc/elements/1.1/" xmlns:rdf="http://www.w3.org/1999/02/22-rdf-syntax-ns#" xmlns:xlink="http://www.w3.org/1999/xlink" viewBox="0 0 598.2 350.3">
  <!-- Generator: Adobe Illustrator 29.0.1, SVG Export Plug-In . SVG Version: 2.1.0 Build 192)  -->
  <defs>
    <style>
      .st0 {
        display: none;
      }

      .st1 {
        fill: #f4f4f4;
      }
    </style>
  </defs>
  <g id="Layer_2" class="st0">
    <image width="2000" height="1275" transform="translate(-3 -43.1) scale(.3)" xlink:href="X:\Emulation stuff\custom theme\consoles cut out\pc88.webp"/>
  </g>
  <g id="Layer_3">
    <path id="rect4179-31-1-3" class="st1" d="M61.5,151.9c0,3.1,2.5,5.6,5.6,5.6h13.2c3.1,0,5.6-2.5,5.6-5.6v-12.4c0-3.1-2.5-5.6-5.6-5.6h-13.2c-3.1,0-5.6,2.5-5.6,5.6v12.4ZM62.6,151.9v-12.4c0-2.5,2-4.4,4.4-4.4h13.2c2.5,0,4.4,2,4.4,4.4v12.4c0,2.5-2,4.4-4.4,4.4h-13.2c-2.5,0-4.4-2-4.4-4.4Z"/>
    <path id="rect4179-31-1-31" data-name="rect4179-31-1-3" class="st1" d="M33.4,151.9c0,3.1,2.5,5.6,5.6,5.6h13.2c3.1,0,5.6-2.5,5.6-5.6v-12.4c0-3.1-2.5-5.6-5.6-5.6h-13.2c-3.1,0-5.6,2.5-5.6,5.6v12.4ZM34.5,151.9v-12.4c0-2.5,2-4.4,4.4-4.4h13.2c2.5,0,4.4,2,4.4,4.4v12.4c0,2.5-2,4.4-4.4,4.4h-13.2c-2.5,0-4.4-2-4.4-4.4Z"/>
    <path id="rect4179-31-1-32" data-name="rect4179-31-1-3" class="st1" d="M33.4,118.6c0,3.1,2.5,5.6,5.6,5.6h13.2c3.1,0,5.6-2.5,5.6-5.6v-12.4c0-3.1-2.5-5.6-5.6-5.6h-13.2c-3.1,0-5.6,2.5-5.6,5.6v12.4ZM34.5,118.6v-12.4c0-2.5,2-4.4,4.4-4.4h13.2c2.5,0,4.4,2,4.4,4.4v12.4c0,2.5-2,4.4-4.4,4.4h-13.2c-2.5,0-4.4-2-4.4-4.4Z"/>
    <path id="rect4179-31-1-33" data-name="rect4179-31-1-3" class="st1" d="M117.7,151.9c0,3.1,2.5,5.6,5.6,5.6h13.2c3.1,0,5.6-2.5,5.6-5.6v-12.4c0-3.1-2.5-5.6-5.6-5.6h-13.2c-3.1,0-5.6,2.5-5.6,5.6v12.4ZM118.9,151.9v-12.4c0-2.5,2-4.4,4.4-4.4h13.2c2.5,0,4.4,2,4.4,4.4v12.4c0,2.5-2,4.4-4.4,4.4h-13.2c-2.5,0-4.4-2-4.4-4.4Z"/>
    <path id="rect4179-31-1-34" data-name="rect4179-31-1-3" class="st1" d="M89.6,151.9c0,3.1,2.5,5.6,5.6,5.6h13.2c3.1,0,5.6-2.5,5.6-5.6v-12.4c0-3.1-2.5-5.6-5.6-5.6h-13.2c-3.1,0-5.6,2.5-5.6,5.6v12.4ZM90.8,151.9v-12.4c0-2.5,2-4.4,4.4-4.4h13.2c2.5,0,4.4,2,4.4,4.4v12.4c0,2.5-2,4.4-4.4,4.4h-13.2c-2.5,0-4.4-2-4.4-4.4Z"/>
    <path id="rect4179-31-1-35" data-name="rect4179-31-1-3" class="st1" d="M471.2,151.9c0,3.1,2.5,5.6,5.6,5.6h13.2c3.1,0,5.6-2.5,5.6-5.6v-12.4c0-3.1-2.5-5.6-5.6-5.6h-13.2c-3.1,0-5.6,2.5-5.6,5.6v12.4ZM472.3,151.9v-12.4c0-2.5,2-4.4,4.4-4.4h13.2c2.5,0,4.4,2,4.4,4.4v12.4c0,2.5-2,4.4-4.4,4.4h-13.2c-2.5,0-4.4-2-4.4-4.4Z"/>
    <path id="rect4179-31-1-36" data-name="rect4179-31-1-3" class="st1" d="M443.1,151.9c0,3.1,2.5,5.6,5.6,5.6h13.2c3.1,0,5.6-2.5,5.6-5.6v-12.4c0-3.1-2.5-5.6-5.6-5.6h-13.2c-3.1,0-5.6,2.5-5.6,5.6v12.4ZM444.2,151.9v-12.4c0-2.5,2-4.4,4.4-4.4h13.2c2.5,0,4.4,2,4.4,4.4v12.4c0,2.5-2,4.4-4.4,4.4h-13.2c-2.5,0-4.4-2-4.4-4.4Z"/>
    <path id="rect4179-31-1-37" data-name="rect4179-31-1-3" class="st1" d="M527.4,151.9c0,3.1,2.5,5.6,5.6,5.6h13.2c3.1,0,5.6-2.5,5.6-5.6v-12.4c0-3.1-2.5-5.6-5.6-5.6h-13.2c-3.1,0-5.6,2.5-5.6,5.6v12.4ZM528.5,151.9v-12.4c0-2.5,2-4.4,4.4-4.4h13.2c2.5,0,4.4,2,4.4,4.4v12.4c0,2.5-2,4.4-4.4,4.4h-13.2c-2.5,0-4.4-2-4.4-4.4Z"/>
    <path id="rect4179-31-1-38" data-name="rect4179-31-1-3" class="st1" d="M499.3,151.9c0,3.1,2.5,5.6,5.6,5.6h13.2c3.1,0,5.6-2.5,5.6-5.6v-12.4c0-3.1-2.5-5.6-5.6-5.6h-13.2c-3.1,0-5.6,2.5-5.6,5.6v12.4ZM500.4,151.9v-12.4c0-2.5,2-4.4,4.4-4.4h13.2c2.5,0,4.4,2,4.4,4.4v12.4c0,2.5-2,4.4-4.4,4.4h-13.2c-2.5,0-4.4-2-4.4-4.4Z"/>
    <path id="rect4179-31-1-39" data-name="rect4179-31-1-3" class="st1" d="M471.2,178.6c0,3.1,2.5,5.6,5.6,5.6h13.2c3.1,0,5.6-2.5,5.6-5.6v-12.4c0-3.1-2.5-5.6-5.6-5.6h-13.2c-3.1,0-5.6,2.5-5.6,5.6v12.4ZM472.3,178.6v-12.4c0-2.5,2-4.4,4.4-4.4h13.2c2.5,0,4.4,2,4.4,4.4v12.4c0,2.5-2,4.4-4.4,4.4h-13.2c-2.5,0-4.4-2-4.4-4.4Z"/>
    <path id="rect4179-31-1-310" data-name="rect4179-31-1-3" class="st1" d="M443.1,178.6c0,3.1,2.5,5.6,5.6,5.6h13.2c3.1,0,5.6-2.5,5.6-5.6v-12.4c0-3.1-2.5-5.6-5.6-5.6h-13.2c-3.1,0-5.6,2.5-5.6,5.6v12.4ZM444.2,178.6v-12.4c0-2.5,2-4.4,4.4-4.4h13.2c2.5,0,4.4,2,4.4,4.4v12.4c0,2.5-2,4.4-4.4,4.4h-13.2c-2.5,0-4.4-2-4.4-4.4Z"/>
    <path id="rect4179-31-1-311" data-name="rect4179-31-1-3" class="st1" d="M527.4,178.6c0,3.1,2.5,5.6,5.6,5.6h13.2c3.1,0,5.6-2.5,5.6-5.6v-12.4c0-3.1-2.5-5.6-5.6-5.6h-13.2c-3.1,0-5.6,2.5-5.6,5.6v12.4ZM528.5,178.6v-12.4c0-2.5,2-4.4,4.4-4.4h13.2c2.5,0,4.4,2,4.4,4.4v12.4c0,2.5-2,4.4-4.4,4.4h-13.2c-2.5,0-4.4-2-4.4-4.4Z"/>
    <path id="rect4179-31-1-312" data-name="rect4179-31-1-3" class="st1" d="M499.3,178.6c0,3.1,2.5,5.6,5.6,5.6h13.2c3.1,0,5.6-2.5,5.6-5.6v-12.4c0-3.1-2.5-5.6-5.6-5.6h-13.2c-3.1,0-5.6,2.5-5.6,5.6v12.4ZM500.4,178.6v-12.4c0-2.5,2-4.4,4.4-4.4h13.2c2.5,0,4.4,2,4.4,4.4v12.4c0,2.5-2,4.4-4.4,4.4h-13.2c-2.5,0-4.4-2-4.4-4.4Z"/>
    <path id="rect4179-31-1-313" data-name="rect4179-31-1-3" class="st1" d="M471.2,92.3c0,3.1,2.5,5.6,5.6,5.6h13.2c3.1,0,5.6-2.5,5.6-5.6v-12.4c0-3.1-2.5-5.6-5.6-5.6h-13.2c-3.1,0-5.6,2.5-5.6,5.6v12.4ZM472.3,92.3v-12.4c0-2.5,2-4.4,4.4-4.4h13.2c2.5,0,4.4,2,4.4,4.4v12.4c0,2.5-2,4.4-4.4,4.4h-13.2c-2.5,0-4.4-2-4.4-4.4Z"/>
    <path id="rect4179-31-1-314" data-name="rect4179-31-1-3" class="st1" d="M443.1,92.3c0,3.1,2.5,5.6,5.6,5.6h13.2c3.1,0,5.6-2.5,5.6-5.6v-12.4c0-3.1-2.5-5.6-5.6-5.6h-13.2c-3.1,0-5.6,2.5-5.6,5.6v12.4ZM444.2,92.3v-12.4c0-2.5,2-4.4,4.4-4.4h13.2c2.5,0,4.4,2,4.4,4.4v12.4c0,2.5-2,4.4-4.4,4.4h-13.2c-2.5,0-4.4-2-4.4-4.4Z"/>
    <path id="rect4179-31-1-315" data-name="rect4179-31-1-3" class="st1" d="M527.4,92.3c0,3.1,2.5,5.6,5.6,5.6h13.2c3.1,0,5.6-2.5,5.6-5.6v-12.4c0-3.1-2.5-5.6-5.6-5.6h-13.2c-3.1,0-5.6,2.5-5.6,5.6v12.4ZM528.5,92.3v-12.4c0-2.5,2-4.4,4.4-4.4h13.2c2.5,0,4.4,2,4.4,4.4v12.4c0,2.5-2,4.4-4.4,4.4h-13.2c-2.5,0-4.4-2-4.4-4.4Z"/>
    <path id="rect4179-31-1-316" data-name="rect4179-31-1-3" class="st1" d="M499.3,92.3c0,3.1,2.5,5.6,5.6,5.6h13.2c3.1,0,5.6-2.5,5.6-5.6v-12.4c0-3.1-2.5-5.6-5.6-5.6h-13.2c-3.1,0-5.6,2.5-5.6,5.6v12.4ZM500.4,92.3v-12.4c0-2.5,2-4.4,4.4-4.4h13.2c2.5,0,4.4,2,4.4,4.4v12.4c0,2.5-2,4.4-4.4,4.4h-13.2c-2.5,0-4.4-2-4.4-4.4Z"/>
    <path id="rect4179-31-1-317" data-name="rect4179-31-1-3" class="st1" d="M471.2,119.1c0,3.1,2.5,5.6,5.6,5.6h13.2c3.1,0,5.6-2.5,5.6-5.6v-12.4c0-3.1-2.5-5.6-5.6-5.6h-13.2c-3.1,0-5.6,2.5-5.6,5.6v12.4ZM472.3,119.1v-12.4c0-2.5,2-4.4,4.4-4.4h13.2c2.5,0,4.4,2,4.4,4.4v12.4c0,2.5-2,4.4-4.4,4.4h-13.2c-2.5,0-4.4-2-4.4-4.4Z"/>
    <path id="rect4179-31-1-318" data-name="rect4179-31-1-3" class="st1" d="M443.1,119.1c0,3.1,2.5,5.6,5.6,5.6h13.2c3.1,0,5.6-2.5,5.6-5.6v-12.4c0-3.1-2.5-5.6-5.6-5.6h-13.2c-3.1,0-5.6,2.5-5.6,5.6v12.4ZM444.2,119.1v-12.4c0-2.5,2-4.4,4.4-4.4h13.2c2.5,0,4.4,2,4.4,4.4v12.4c0,2.5-2,4.4-4.4,4.4h-13.2c-2.5,0-4.4-2-4.4-4.4Z"/>
    <path id="rect4179-31-1-319" data-name="rect4179-31-1-3" class="st1" d="M397.1,92.3c0,3.1,2.5,5.6,5.6,5.6h13.2c3.1,0,5.6-2.5,5.6-5.6v-12.4c0-3.1-2.5-5.6-5.6-5.6h-13.2c-3.1,0-5.6,2.5-5.6,5.6v12.4ZM398.2,92.3v-12.4c0-2.5,2-4.4,4.4-4.4h13.2c2.5,0,4.4,2,4.4,4.4v12.4c0,2.5-2,4.4-4.4,4.4h-13.2c-2.5,0-4.4-2-4.4-4.4Z"/>
    <path id="rect4179-31-1-320" data-name="rect4179-31-1-3" class="st1" d="M369,92.3c0,3.1,2.5,5.6,5.6,5.6h13.2c3.1,0,5.6-2.5,5.6-5.6v-12.4c0-3.1-2.5-5.6-5.6-5.6h-13.2c-3.1,0-5.6,2.5-5.6,5.6v12.4ZM370.1,92.3v-12.4c0-2.5,2-4.4,4.4-4.4h13.2c2.5,0,4.4,2,4.4,4.4v12.4c0,2.5-2,4.4-4.4,4.4h-13.2c-2.5,0-4.4-2-4.4-4.4Z"/>
    <path id="rect4179-31-1-321" data-name="rect4179-31-1-3" class="st1" d="M397.1,119.1c0,3.1,2.5,5.6,5.6,5.6h13.2c3.1,0,5.6-2.5,5.6-5.6v-12.4c0-3.1-2.5-5.6-5.6-5.6h-13.2c-3.1,0-5.6,2.5-5.6,5.6v12.4ZM398.2,119.1v-12.4c0-2.5,2-4.4,4.4-4.4h13.2c2.5,0,4.4,2,4.4,4.4v12.4c0,2.5-2,4.4-4.4,4.4h-13.2c-2.5,0-4.4-2-4.4-4.4Z"/>
    <path id="rect4179-31-1-322" data-name="rect4179-31-1-3" class="st1" d="M369,119.1c0,3.1,2.5,5.6,5.6,5.6h13.2c3.1,0,5.6-2.5,5.6-5.6v-12.4c0-3.1-2.5-5.6-5.6-5.6h-13.2c-3.1,0-5.6,2.5-5.6,5.6v12.4ZM370.1,119.1v-12.4c0-2.5,2-4.4,4.4-4.4h13.2c2.5,0,4.4,2,4.4,4.4v12.4c0,2.5-2,4.4-4.4,4.4h-13.2c-2.5,0-4.4-2-4.4-4.4Z"/>
    <path id="rect4179-31-1-323" data-name="rect4179-31-1-3" class="st1" d="M527.4,119.1c0,3.1,2.5,5.6,5.6,5.6h13.2c3.1,0,5.6-2.5,5.6-5.6v-12.4c0-3.1-2.5-5.6-5.6-5.6h-13.2c-3.1,0-5.6,2.5-5.6,5.6v12.4ZM528.5,119.1v-12.4c0-2.5,2-4.4,4.4-4.4h13.2c2.5,0,4.4,2,4.4,4.4v12.4c0,2.5-2,4.4-4.4,4.4h-13.2c-2.5,0-4.4-2-4.4-4.4Z"/>
    <path id="rect4179-31-1-324" data-name="rect4179-31-1-3" class="st1" d="M499.3,119.1c0,3.1,2.5,5.6,5.6,5.6h13.2c3.1,0,5.6-2.5,5.6-5.6v-12.4c0-3.1-2.5-5.6-5.6-5.6h-13.2c-3.1,0-5.6,2.5-5.6,5.6v12.4ZM500.4,119.1v-12.4c0-2.5,2-4.4,4.4-4.4h13.2c2.5,0,4.4,2,4.4,4.4v12.4c0,2.5-2,4.4-4.4,4.4h-13.2c-2.5,0-4.4-2-4.4-4.4Z"/>
    <path id="rect4179-31-1-325" data-name="rect4179-31-1-3" class="st1" d="M471.2,205.2c0,3.1,2.5,5.6,5.6,5.6h13.2c3.1,0,5.6-2.5,5.6-5.6v-12.4c0-3.1-2.5-5.6-5.6-5.6h-13.2c-3.1,0-5.6,2.5-5.6,5.6v12.4ZM472.3,205.2v-12.4c0-2.5,2-4.4,4.4-4.4h13.2c2.5,0,4.4,2,4.4,4.4v12.4c0,2.5-2,4.4-4.4,4.4h-13.2c-2.5,0-4.4-2-4.4-4.4Z"/>
    <path id="rect4179-31-1-326" data-name="rect4179-31-1-3" class="st1" d="M443.1,205.2c0,3.1,2.5,5.6,5.6,5.6h13.2c3.1,0,5.6-2.5,5.6-5.6v-12.4c0-3.1-2.5-5.6-5.6-5.6h-13.2c-3.1,0-5.6,2.5-5.6,5.6v12.4ZM444.2,205.2v-12.4c0-2.5,2-4.4,4.4-4.4h13.2c2.5,0,4.4,2,4.4,4.4v12.4c0,2.5-2,4.4-4.4,4.4h-13.2c-2.5,0-4.4-2-4.4-4.4Z"/>
    <path id="rect4179-31-1-327" data-name="rect4179-31-1-3" class="st1" d="M527.4,205.2c0,3.1,2.5,5.6,5.6,5.6h13.2c3.1,0,5.6-2.5,5.6-5.6v-12.4c0-3.1-2.5-5.6-5.6-5.6h-13.2c-3.1,0-5.6,2.5-5.6,5.6v12.4ZM528.5,205.2v-12.4c0-2.5,2-4.4,4.4-4.4h13.2c2.5,0,4.4,2,4.4,4.4v12.4c0,2.5-2,4.4-4.4,4.4h-13.2c-2.5,0-4.4-2-4.4-4.4Z"/>
    <path id="rect4179-31-1-328" data-name="rect4179-31-1-3" class="st1" d="M499.3,205.2c0,3.1,2.5,5.6,5.6,5.6h13.2c3.1,0,5.6-2.5,5.6-5.6v-12.4c0-3.1-2.5-5.6-5.6-5.6h-13.2c-3.1,0-5.6,2.5-5.6,5.6v12.4ZM500.4,205.2v-12.4c0-2.5,2-4.4,4.4-4.4h13.2c2.5,0,4.4,2,4.4,4.4v12.4c0,2.5-2,4.4-4.4,4.4h-13.2c-2.5,0-4.4-2-4.4-4.4Z"/>
    <path id="rect4179-31-1-329" data-name="rect4179-31-1-3" class="st1" d="M471.2,231.6c0,3.1,2.5,5.6,5.6,5.6h13.2c3.1,0,5.6-2.5,5.6-5.6v-12.4c0-3.1-2.5-5.6-5.6-5.6h-13.2c-3.1,0-5.6,2.5-5.6,5.6v12.4ZM472.3,231.6v-12.4c0-2.5,2-4.4,4.4-4.4h13.2c2.5,0,4.4,2,4.4,4.4v12.4c0,2.5-2,4.4-4.4,4.4h-13.2c-2.5,0-4.4-2-4.4-4.4Z"/>
    <path id="rect4179-31-1-330" data-name="rect4179-31-1-3" class="st1" d="M443.1,231.6c0,3.1,2.5,5.6,5.6,5.6h13.2c3.1,0,5.6-2.5,5.6-5.6v-12.4c0-3.1-2.5-5.6-5.6-5.6h-13.2c-3.1,0-5.6,2.5-5.6,5.6v12.4ZM444.2,231.6v-12.4c0-2.5,2-4.4,4.4-4.4h13.2c2.5,0,4.4,2,4.4,4.4v12.4c0,2.5-2,4.4-4.4,4.4h-13.2c-2.5,0-4.4-2-4.4-4.4Z"/>
    <path id="rect4179-31-1-331" data-name="rect4179-31-1-3" class="st1" d="M527.4,231.6c0,3.1,2.5,5.6,5.6,5.6h13.2c3.1,0,5.6-2.5,5.6-5.6v-12.4c0-3.1-2.5-5.6-5.6-5.6h-13.2c-3.1,0-5.6,2.5-5.6,5.6v12.4ZM528.5,231.6v-12.4c0-2.5,2-4.4,4.4-4.4h13.2c2.5,0,4.4,2,4.4,4.4v12.4c0,2.5-2,4.4-4.4,4.4h-13.2c-2.5,0-4.4-2-4.4-4.4Z"/>
    <path id="rect4179-31-1-332" data-name="rect4179-31-1-3" class="st1" d="M499.3,231.6c0,3.1,2.5,5.6,5.6,5.6h13.2c3.1,0,5.6-2.5,5.6-5.6v-12.4c0-3.1-2.5-5.6-5.6-5.6h-13.2c-3.1,0-5.6,2.5-5.6,5.6v12.4ZM500.4,231.6v-12.4c0-2.5,2-4.4,4.4-4.4h13.2c2.5,0,4.4,2,4.4,4.4v12.4c0,2.5-2,4.4-4.4,4.4h-13.2c-2.5,0-4.4-2-4.4-4.4Z"/>
    <path id="rect4179-31-1-333" data-name="rect4179-31-1-3" class="st1" d="M471.2,259.3c0,3.1,2.5,5.6,5.6,5.6h13.2c3.1,0,5.6-2.5,5.6-5.6v-12.4c0-3.1-2.5-5.6-5.6-5.6h-13.2c-3.1,0-5.6,2.5-5.6,5.6v12.4ZM472.3,259.3v-12.4c0-2.5,2-4.4,4.4-4.4h13.2c2.5,0,4.4,2,4.4,4.4v12.4c0,2.5-2,4.4-4.4,4.4h-13.2c-2.5,0-4.4-2-4.4-4.4Z"/>
    <path id="rect4179-31-1-334" data-name="rect4179-31-1-3" class="st1" d="M443.1,259.3c0,3.1,2.5,5.6,5.6,5.6h13.2c3.1,0,5.6-2.5,5.6-5.6v-12.4c0-3.1-2.5-5.6-5.6-5.6h-13.2c-3.1,0-5.6,2.5-5.6,5.6v12.4ZM444.2,259.3v-12.4c0-2.5,2-4.4,4.4-4.4h13.2c2.5,0,4.4,2,4.4,4.4v12.4c0,2.5-2,4.4-4.4,4.4h-13.2c-2.5,0-4.4-2-4.4-4.4Z"/>
    <path id="rect4179-31-1-335" data-name="rect4179-31-1-3" class="st1" d="M527.4,259.3c0,3.1,2.5,5.6,5.6,5.6h13.2c3.1,0,5.6-2.5,5.6-5.6v-12.4c0-3.1-2.5-5.6-5.6-5.6h-13.2c-3.1,0-5.6,2.5-5.6,5.6v12.4ZM528.5,259.3v-12.4c0-2.5,2-4.4,4.4-4.4h13.2c2.5,0,4.4,2,4.4,4.4v12.4c0,2.5-2,4.4-4.4,4.4h-13.2c-2.5,0-4.4-2-4.4-4.4Z"/>
    <path id="rect4179-31-1-336" data-name="rect4179-31-1-3" class="st1" d="M499.3,259.3c0,3.1,2.5,5.6,5.6,5.6h13.2c3.1,0,5.6-2.5,5.6-5.6v-12.4c0-3.1-2.5-5.6-5.6-5.6h-13.2c-3.1,0-5.6,2.5-5.6,5.6v12.4ZM500.4,259.3v-12.4c0-2.5,2-4.4,4.4-4.4h13.2c2.5,0,4.4,2,4.4,4.4v12.4c0,2.5-2,4.4-4.4,4.4h-13.2c-2.5,0-4.4-2-4.4-4.4Z"/>
    <path id="rect4179-31-1-337" data-name="rect4179-31-1-3" class="st1" d="M173.9,151.9c0,3.1,2.5,5.6,5.6,5.6h13.2c3.1,0,5.6-2.5,5.6-5.6v-12.4c0-3.1-2.5-5.6-5.6-5.6h-13.2c-3.1,0-5.6,2.5-5.6,5.6v12.4ZM175.1,151.9v-12.4c0-2.5,2-4.4,4.4-4.4h13.2c2.5,0,4.4,2,4.4,4.4v12.4c0,2.5-2,4.4-4.4,4.4h-13.2c-2.5,0-4.4-2-4.4-4.4Z"/>
    <path id="rect4179-31-1-338" data-name="rect4179-31-1-3" class="st1" d="M145.8,151.9c0,3.1,2.5,5.6,5.6,5.6h13.2c3.1,0,5.6-2.5,5.6-5.6v-12.4c0-3.1-2.5-5.6-5.6-5.6h-13.2c-3.1,0-5.6,2.5-5.6,5.6v12.4ZM147,151.9v-12.4c0-2.5,2-4.4,4.4-4.4h13.2c2.5,0,4.4,2,4.4,4.4v12.4c0,2.5-2,4.4-4.4,4.4h-13.2c-2.5,0-4.4-2-4.4-4.4Z"/>
    <path id="rect4179-31-1-339" data-name="rect4179-31-1-3" class="st1" d="M230.1,151.9c0,3.1,2.5,5.6,5.6,5.6h13.2c3.1,0,5.6-2.5,5.6-5.6v-12.4c0-3.1-2.5-5.6-5.6-5.6h-13.2c-3.1,0-5.6,2.5-5.6,5.6v12.4ZM231.3,151.9v-12.4c0-2.5,2-4.4,4.4-4.4h13.2c2.5,0,4.4,2,4.4,4.4v12.4c0,2.5-2,4.4-4.4,4.4h-13.2c-2.5,0-4.4-2-4.4-4.4Z"/>
    <path id="rect4179-31-1-340" data-name="rect4179-31-1-3" class="st1" d="M202,151.9c0,3.1,2.5,5.6,5.6,5.6h13.2c3.1,0,5.6-2.5,5.6-5.6v-12.4c0-3.1-2.5-5.6-5.6-5.6h-13.2c-3.1,0-5.6,2.5-5.6,5.6v12.4ZM203.2,151.9v-12.4c0-2.5,2-4.4,4.4-4.4h13.2c2.5,0,4.4,2,4.4,4.4v12.4c0,2.5-2,4.4-4.4,4.4h-13.2c-2.5,0-4.4-2-4.4-4.4Z"/>
    <path id="rect4179-31-1-341" data-name="rect4179-31-1-3" class="st1" d="M286.4,151.9c0,3.1,2.5,5.6,5.6,5.6h13.2c3.1,0,5.6-2.5,5.6-5.6v-12.4c0-3.1-2.5-5.6-5.6-5.6h-13.2c-3.1,0-5.6,2.5-5.6,5.6v12.4ZM287.5,151.9v-12.4c0-2.5,2-4.4,4.4-4.4h13.2c2.5,0,4.4,2,4.4,4.4v12.4c0,2.5-2,4.4-4.4,4.4h-13.2c-2.5,0-4.4-2-4.4-4.4Z"/>
    <path id="rect4179-31-1-342" data-name="rect4179-31-1-3" class="st1" d="M258.3,151.9c0,3.1,2.5,5.6,5.6,5.6h13.2c3.1,0,5.6-2.5,5.6-5.6v-12.4c0-3.1-2.5-5.6-5.6-5.6h-13.2c-3.1,0-5.6,2.5-5.6,5.6v12.4ZM259.4,151.9v-12.4c0-2.5,2-4.4,4.4-4.4h13.2c2.5,0,4.4,2,4.4,4.4v12.4c0,2.5-2,4.4-4.4,4.4h-13.2c-2.5,0-4.4-2-4.4-4.4Z"/>
    <path id="rect4179-31-1-343" data-name="rect4179-31-1-3" class="st1" d="M342.6,151.9c0,3.1,2.5,5.6,5.6,5.6h13.2c3.1,0,5.6-2.5,5.6-5.6v-12.4c0-3.1-2.5-5.6-5.6-5.6h-13.2c-3.1,0-5.6,2.5-5.6,5.6v12.4ZM343.7,151.9v-12.4c0-2.5,2-4.4,4.4-4.4h13.2c2.5,0,4.4,2,4.4,4.4v12.4c0,2.5-2,4.4-4.4,4.4h-13.2c-2.5,0-4.4-2-4.4-4.4Z"/>
    <path id="rect4179-31-1-344" data-name="rect4179-31-1-3" class="st1" d="M314.5,151.9c0,3.1,2.5,5.6,5.6,5.6h13.2c3.1,0,5.6-2.5,5.6-5.6v-12.4c0-3.1-2.5-5.6-5.6-5.6h-13.2c-3.1,0-5.6,2.5-5.6,5.6v12.4ZM315.6,151.9v-12.4c0-2.5,2-4.4,4.4-4.4h13.2c2.5,0,4.4,2,4.4,4.4v12.4c0,2.5-2,4.4-4.4,4.4h-13.2c-2.5,0-4.4-2-4.4-4.4Z"/>
    <path id="rect4179-31-1-345" data-name="rect4179-31-1-3" class="st1" d="M398.8,151.9c0,3.1,2.5,5.6,5.6,5.6h13.2c3.1,0,5.6-2.5,5.6-5.6v-12.4c0-3.1-2.5-5.6-5.6-5.6h-13.2c-3.1,0-5.6,2.5-5.6,5.6v12.4ZM399.9,151.9v-12.4c0-2.5,2-4.4,4.4-4.4h13.2c2.5,0,4.4,2,4.4,4.4v12.4c0,2.5-2,4.4-4.4,4.4h-13.2c-2.5,0-4.4-2-4.4-4.4Z"/>
    <path id="rect4179-31-1-346" data-name="rect4179-31-1-3" class="st1" d="M370.7,151.9c0,3.1,2.5,5.6,5.6,5.6h13.2c3.1,0,5.6-2.5,5.6-5.6v-12.4c0-3.1-2.5-5.6-5.6-5.6h-13.2c-3.1,0-5.6,2.5-5.6,5.6v12.4ZM371.8,151.9v-12.4c0-2.5,2-4.4,4.4-4.4h13.2c2.5,0,4.4,2,4.4,4.4v12.4c0,2.5-2,4.4-4.4,4.4h-13.2c-2.5,0-4.4-2-4.4-4.4Z"/>
    <path id="rect4179-31-1-347" data-name="rect4179-31-1-3" class="st1" d="M84.7,204.1c0,3.1,2.5,5.6,5.6,5.6h13.2c3.1,0,5.6-2.5,5.6-5.6v-12.4c0-3.1-2.5-5.6-5.6-5.6h-13.2c-3.1,0-5.6,2.5-5.6,5.6v12.4ZM85.9,204.1v-12.4c0-2.5,2-4.4,4.4-4.4h13.2c2.5,0,4.4,2,4.4,4.4v12.4c0,2.5-2,4.4-4.4,4.4h-13.2c-2.5,0-4.4-2-4.4-4.4Z"/>
    <path id="rect4179-31-1-348" data-name="rect4179-31-1-3" class="st1" d="M33.4,204.1c0,3.1,2.5,5.6,5.6,5.6h36.4c3.1,0,5.6-2.5,5.6-5.6v-12.4c0-3.1-2.5-5.6-5.6-5.6h-36.4c-3.1,0-5.6,2.5-5.6,5.6v12.4ZM34.5,204.1v-12.4c0-2.5,2-4.4,4.4-4.4h36.4c2.5,0,4.4,2,4.4,4.4v12.4c0,2.5-2,4.4-4.4,4.4h-36.4c-2.5,0-4.4-2-4.4-4.4Z"/>
    <path id="rect4179-31-1-349" data-name="rect4179-31-1-3" class="st1" d="M140.9,204.1c0,3.1,2.5,5.6,5.6,5.6h13.2c3.1,0,5.6-2.5,5.6-5.6v-12.4c0-3.1-2.5-5.6-5.6-5.6h-13.2c-3.1,0-5.6,2.5-5.6,5.6v12.4ZM142.1,204.1v-12.4c0-2.5,2-4.4,4.4-4.4h13.2c2.5,0,4.4,2,4.4,4.4v12.4c0,2.5-2,4.4-4.4,4.4h-13.2c-2.5,0-4.4-2-4.4-4.4Z"/>
    <path id="rect4179-31-1-350" data-name="rect4179-31-1-3" class="st1" d="M112.8,204.1c0,3.1,2.5,5.6,5.6,5.6h13.2c3.1,0,5.6-2.5,5.6-5.6v-12.4c0-3.1-2.5-5.6-5.6-5.6h-13.2c-3.1,0-5.6,2.5-5.6,5.6v12.4ZM114,204.1v-12.4c0-2.5,2-4.4,4.4-4.4h13.2c2.5,0,4.4,2,4.4,4.4v12.4c0,2.5-2,4.4-4.4,4.4h-13.2c-2.5,0-4.4-2-4.4-4.4Z"/>
    <path id="rect4179-31-1-351" data-name="rect4179-31-1-3" class="st1" d="M197.1,204.1c0,3.1,2.5,5.6,5.6,5.6h13.2c3.1,0,5.6-2.5,5.6-5.6v-12.4c0-3.1-2.5-5.6-5.6-5.6h-13.2c-3.1,0-5.6,2.5-5.6,5.6v12.4ZM198.3,204.1v-12.4c0-2.5,2-4.4,4.4-4.4h13.2c2.5,0,4.4,2,4.4,4.4v12.4c0,2.5-2,4.4-4.4,4.4h-13.2c-2.5,0-4.4-2-4.4-4.4Z"/>
    <path id="rect4179-31-1-352" data-name="rect4179-31-1-3" class="st1" d="M169,204.1c0,3.1,2.5,5.6,5.6,5.6h13.2c3.1,0,5.6-2.5,5.6-5.6v-12.4c0-3.1-2.5-5.6-5.6-5.6h-13.2c-3.1,0-5.6,2.5-5.6,5.6v12.4ZM170.2,204.1v-12.4c0-2.5,2-4.4,4.4-4.4h13.2c2.5,0,4.4,2,4.4,4.4v12.4c0,2.5-2,4.4-4.4,4.4h-13.2c-2.5,0-4.4-2-4.4-4.4Z"/>
    <path id="rect4179-31-1-353" data-name="rect4179-31-1-3" class="st1" d="M253.4,204.1c0,3.1,2.5,5.6,5.6,5.6h13.2c3.1,0,5.6-2.5,5.6-5.6v-12.4c0-3.1-2.5-5.6-5.6-5.6h-13.2c-3.1,0-5.6,2.5-5.6,5.6v12.4ZM254.5,204.1v-12.4c0-2.5,2-4.4,4.4-4.4h13.2c2.5,0,4.4,2,4.4,4.4v12.4c0,2.5-2,4.4-4.4,4.4h-13.2c-2.5,0-4.4-2-4.4-4.4Z"/>
    <path id="rect4179-31-1-354" data-name="rect4179-31-1-3" class="st1" d="M225.3,204.1c0,3.1,2.5,5.6,5.6,5.6h13.2c3.1,0,5.6-2.5,5.6-5.6v-12.4c0-3.1-2.5-5.6-5.6-5.6h-13.2c-3.1,0-5.6,2.5-5.6,5.6v12.4ZM226.4,204.1v-12.4c0-2.5,2-4.4,4.4-4.4h13.2c2.5,0,4.4,2,4.4,4.4v12.4c0,2.5-2,4.4-4.4,4.4h-13.2c-2.5,0-4.4-2-4.4-4.4Z"/>
    <path id="rect4179-31-1-355" data-name="rect4179-31-1-3" class="st1" d="M309.6,204.1c0,3.1,2.5,5.6,5.6,5.6h13.2c3.1,0,5.6-2.5,5.6-5.6v-12.4c0-3.1-2.5-5.6-5.6-5.6h-13.2c-3.1,0-5.6,2.5-5.6,5.6v12.4ZM310.7,204.1v-12.4c0-2.5,2-4.4,4.4-4.4h13.2c2.5,0,4.4,2,4.4,4.4v12.4c0,2.5-2,4.4-4.4,4.4h-13.2c-2.5,0-4.4-2-4.4-4.4Z"/>
    <path id="rect4179-31-1-356" data-name="rect4179-31-1-3" class="st1" d="M281.5,204.1c0,3.1,2.5,5.6,5.6,5.6h13.2c3.1,0,5.6-2.5,5.6-5.6v-12.4c0-3.1-2.5-5.6-5.6-5.6h-13.2c-3.1,0-5.6,2.5-5.6,5.6v12.4ZM282.6,204.1v-12.4c0-2.5,2-4.4,4.4-4.4h13.2c2.5,0,4.4,2,4.4,4.4v12.4c0,2.5-2,4.4-4.4,4.4h-13.2c-2.5,0-4.4-2-4.4-4.4Z"/>
    <path id="rect4179-31-1-357" data-name="rect4179-31-1-3" class="st1" d="M365.8,204.1c0,3.1,2.5,5.6,5.6,5.6h13.2c3.1,0,5.6-2.5,5.6-5.6v-12.4c0-3.1-2.5-5.6-5.6-5.6h-13.2c-3.1,0-5.6,2.5-5.6,5.6v12.4ZM366.9,204.1v-12.4c0-2.5,2-4.4,4.4-4.4h13.2c2.5,0,4.4,2,4.4,4.4v12.4c0,2.5-2,4.4-4.4,4.4h-13.2c-2.5,0-4.4-2-4.4-4.4Z"/>
    <path id="rect4179-31-1-358" data-name="rect4179-31-1-3" class="st1" d="M337.7,204.1c0,3.1,2.5,5.6,5.6,5.6h13.2c3.1,0,5.6-2.5,5.6-5.6v-12.4c0-3.1-2.5-5.6-5.6-5.6h-13.2c-3.1,0-5.6,2.5-5.6,5.6v12.4ZM338.8,204.1v-12.4c0-2.5,2-4.4,4.4-4.4h13.2c2.5,0,4.4,2,4.4,4.4v12.4c0,2.5-2,4.4-4.4,4.4h-13.2c-2.5,0-4.4-2-4.4-4.4Z"/>
    <path id="rect4179-31-1-359" data-name="rect4179-31-1-3" class="st1" d="M73.7,177.5c0,3.1,2.5,5.6,5.6,5.6h13.2c3.1,0,5.6-2.5,5.6-5.6v-12.4c0-3.1-2.5-5.6-5.6-5.6h-13.2c-3.1,0-5.6,2.5-5.6,5.6v12.4ZM74.8,177.5v-12.4c0-2.5,2-4.4,4.4-4.4h13.2c2.5,0,4.4,2,4.4,4.4v12.4c0,2.5-2,4.4-4.4,4.4h-13.2c-2.5,0-4.4-2-4.4-4.4Z"/>
    <path id="rect4179-31-1-360" data-name="rect4179-31-1-3" class="st1" d="M33.4,177.5c0,3.1,2.5,5.6,5.6,5.6h25.4c3.1,0,5.6-2.5,5.6-5.6v-12.4c0-3.1-2.5-5.6-5.6-5.6h-25.4c-3.1,0-5.6,2.5-5.6,5.6v12.4ZM34.5,177.5v-12.4c0-2.5,2-4.4,4.4-4.4h25.4c2.5,0,4.4,2,4.4,4.4v12.4c0,2.5-2,4.4-4.4,4.4h-25.4c-2.5,0-4.4-2-4.4-4.4Z"/>
    <path id="rect4179-31-1-361" data-name="rect4179-31-1-3" class="st1" d="M103.2,258.1c0,3.1,2.5,5.6,5.6,5.6h25.4c3.1,0,5.6-2.5,5.6-5.6v-12.4c0-3.1-2.5-5.6-5.6-5.6h-25.4c-3.1,0-5.6,2.5-5.6,5.6v12.4ZM104.3,258.1v-12.4c0-2.5,2-4.4,4.4-4.4h25.4c2.5,0,4.4,2,4.4,4.4v12.4c0,2.5-2,4.4-4.4,4.4h-25.4c-2.5,0-4.4-2-4.4-4.4Z"/>
    <path id="rect4179-31-1-362" data-name="rect4179-31-1-3" class="st1" d="M358.7,258.1c0,3.1,2.5,5.6,5.6,5.6h25.4c3.1,0,5.6-2.5,5.6-5.6v-12.4c0-3.1-2.5-5.6-5.6-5.6h-25.4c-3.1,0-5.6,2.5-5.6,5.6v12.4ZM359.8,258.1v-12.4c0-2.5,2-4.4,4.4-4.4h25.4c2.5,0,4.4,2,4.4,4.4v12.4c0,2.5-2,4.4-4.4,4.4h-25.4c-2.5,0-4.4-2-4.4-4.4Z"/>
    <path id="rect4179-31-1-363" data-name="rect4179-31-1-3" class="st1" d="M129.9,177.5c0,3.1,2.5,5.6,5.6,5.6h13.2c3.1,0,5.6-2.5,5.6-5.6v-12.4c0-3.1-2.5-5.6-5.6-5.6h-13.2c-3.1,0-5.6,2.5-5.6,5.6v12.4ZM131,177.5v-12.4c0-2.5,2-4.4,4.4-4.4h13.2c2.5,0,4.4,2,4.4,4.4v12.4c0,2.5-2,4.4-4.4,4.4h-13.2c-2.5,0-4.4-2-4.4-4.4Z"/>
    <path id="rect4179-31-1-364" data-name="rect4179-31-1-3" class="st1" d="M101.8,177.5c0,3.1,2.5,5.6,5.6,5.6h13.2c3.1,0,5.6-2.5,5.6-5.6v-12.4c0-3.1-2.5-5.6-5.6-5.6h-13.2c-3.1,0-5.6,2.5-5.6,5.6v12.4ZM102.9,177.5v-12.4c0-2.5,2-4.4,4.4-4.4h13.2c2.5,0,4.4,2,4.4,4.4v12.4c0,2.5-2,4.4-4.4,4.4h-13.2c-2.5,0-4.4-2-4.4-4.4Z"/>
    <path id="rect4179-31-1-365" data-name="rect4179-31-1-3" class="st1" d="M186.1,177.5c0,3.1,2.5,5.6,5.6,5.6h13.2c3.1,0,5.6-2.5,5.6-5.6v-12.4c0-3.1-2.5-5.6-5.6-5.6h-13.2c-3.1,0-5.6,2.5-5.6,5.6v12.4ZM187.2,177.5v-12.4c0-2.5,2-4.4,4.4-4.4h13.2c2.5,0,4.4,2,4.4,4.4v12.4c0,2.5-2,4.4-4.4,4.4h-13.2c-2.5,0-4.4-2-4.4-4.4Z"/>
    <path id="rect4179-31-1-366" data-name="rect4179-31-1-3" class="st1" d="M158,177.5c0,3.1,2.5,5.6,5.6,5.6h13.2c3.1,0,5.6-2.5,5.6-5.6v-12.4c0-3.1-2.5-5.6-5.6-5.6h-13.2c-3.1,0-5.6,2.5-5.6,5.6v12.4ZM159.1,177.5v-12.4c0-2.5,2-4.4,4.4-4.4h13.2c2.5,0,4.4,2,4.4,4.4v12.4c0,2.5-2,4.4-4.4,4.4h-13.2c-2.5,0-4.4-2-4.4-4.4Z"/>
    <path id="rect4179-31-1-367" data-name="rect4179-31-1-3" class="st1" d="M242.3,177.5c0,3.1,2.5,5.6,5.6,5.6h13.2c3.1,0,5.6-2.5,5.6-5.6v-12.4c0-3.1-2.5-5.6-5.6-5.6h-13.2c-3.1,0-5.6,2.5-5.6,5.6v12.4ZM243.5,177.5v-12.4c0-2.5,2-4.4,4.4-4.4h13.2c2.5,0,4.4,2,4.4,4.4v12.4c0,2.5-2,4.4-4.4,4.4h-13.2c-2.5,0-4.4-2-4.4-4.4Z"/>
    <path id="rect4179-31-1-368" data-name="rect4179-31-1-3" class="st1" d="M214.2,177.5c0,3.1,2.5,5.6,5.6,5.6h13.2c3.1,0,5.6-2.5,5.6-5.6v-12.4c0-3.1-2.5-5.6-5.6-5.6h-13.2c-3.1,0-5.6,2.5-5.6,5.6v12.4ZM215.4,177.5v-12.4c0-2.5,2-4.4,4.4-4.4h13.2c2.5,0,4.4,2,4.4,4.4v12.4c0,2.5-2,4.4-4.4,4.4h-13.2c-2.5,0-4.4-2-4.4-4.4Z"/>
    <path id="rect4179-31-1-369" data-name="rect4179-31-1-3" class="st1" d="M298.5,177.5c0,3.1,2.5,5.6,5.6,5.6h13.2c3.1,0,5.6-2.5,5.6-5.6v-12.4c0-3.1-2.5-5.6-5.6-5.6h-13.2c-3.1,0-5.6,2.5-5.6,5.6v12.4ZM299.7,177.5v-12.4c0-2.5,2-4.4,4.4-4.4h13.2c2.5,0,4.4,2,4.4,4.4v12.4c0,2.5-2,4.4-4.4,4.4h-13.2c-2.5,0-4.4-2-4.4-4.4Z"/>
    <path id="rect4179-31-1-370" data-name="rect4179-31-1-3" class="st1" d="M270.4,177.5c0,3.1,2.5,5.6,5.6,5.6h13.2c3.1,0,5.6-2.5,5.6-5.6v-12.4c0-3.1-2.5-5.6-5.6-5.6h-13.2c-3.1,0-5.6,2.5-5.6,5.6v12.4ZM271.6,177.5v-12.4c0-2.5,2-4.4,4.4-4.4h13.2c2.5,0,4.4,2,4.4,4.4v12.4c0,2.5-2,4.4-4.4,4.4h-13.2c-2.5,0-4.4-2-4.4-4.4Z"/>
    <path id="rect4179-31-1-371" data-name="rect4179-31-1-3" class="st1" d="M354.7,177.5c0,3.1,2.5,5.6,5.6,5.6h13.2c3.1,0,5.6-2.5,5.6-5.6v-12.4c0-3.1-2.5-5.6-5.6-5.6h-13.2c-3.1,0-5.6,2.5-5.6,5.6v12.4ZM355.9,177.5v-12.4c0-2.5,2-4.4,4.4-4.4h13.2c2.5,0,4.4,2,4.4,4.4v12.4c0,2.5-2,4.4-4.4,4.4h-13.2c-2.5,0-4.4-2-4.4-4.4Z"/>
    <path id="rect4179-31-1-372" data-name="rect4179-31-1-3" class="st1" d="M401.6,159.5h-13.2c-3.1,0-5.6,2.5-5.6,5.6v12.4c0,3.1,2.5,5.6,5.6,5.6h13.2M401.6,181.9h-13.2c-2.5,0-4.4-2-4.4-4.4v-12.4c0-2.5,2-4.4,4.4-4.4h13.2"/>
    <path id="rect4179-31-1-373" data-name="rect4179-31-1-3" class="st1" d="M326.6,177.5c0,3.1,2.5,5.6,5.6,5.6h13.2c3.1,0,5.6-2.5,5.6-5.6v-12.4c0-3.1-2.5-5.6-5.6-5.6h-13.2c-3.1,0-5.6,2.5-5.6,5.6v12.4ZM327.8,177.5v-12.4c0-2.5,2-4.4,4.4-4.4h13.2c2.5,0,4.4,2,4.4,4.4v12.4c0,2.5-2,4.4-4.4,4.4h-13.2c-2.5,0-4.4-2-4.4-4.4Z"/>
    <path id="rect4179-31-1-374" data-name="rect4179-31-1-3" class="st1" d="M405.5,160.5h12.4c2.5,0,4.4,2,4.4,4.4v39.2c0,2.5-2,4.4-4.4,4.4h-12.4c-2.5,0-4.4-2-4.4-4.4l.3-21.1h-1.4v21.1c0,3.1,2.5,5.6,5.6,5.6h12.4c3.1,0,5.6-2.5,5.6-5.6v-39.2c0-3.1-2.5-5.6-5.6-5.6h-12.4l-6,.2,2.7,1h3.3Z"/>
    <path id="rect4179-31-1-375" data-name="rect4179-31-1-3" class="st1" d="M33.4,230.5c0,3.1,2.5,5.6,5.6,5.6h53.5c3.1,0,5.6-2.5,5.6-5.6v-12.4c0-3.1-2.5-5.6-5.6-5.6h-53.5c-3.1,0-5.6,2.5-5.6,5.6v12.4ZM34.5,230.5v-12.4c0-2.5,2-4.4,4.4-4.4h53.5c2.5,0,4.4,2,4.4,4.4v12.4c0,2.5-2,4.4-4.4,4.4h-53.5c-2.5,0-4.4-2-4.4-4.4Z"/>
    <path id="rect4179-31-1-376" data-name="rect4179-31-1-3" class="st1" d="M142.1,258.1c0,3.1,2.5,5.6,5.6,5.6h202.2c3.1,0,5.6-2.5,5.6-5.6v-12.4c0-3.1-2.5-5.6-5.6-5.6h-202.2c-3.1,0-5.6,2.5-5.6,5.6v12.4ZM143.2,258.1v-12.4c0-2.5,2-4.4,4.4-4.4h202.2c2.5,0,4.4,2,4.4,4.4v12.4c0,2.5-2,4.4-4.4,4.4h-202.2c-2.5,0-4.4-2-4.4-4.4Z"/>
    <path id="rect4179-31-1-377" data-name="rect4179-31-1-3" class="st1" d="M129.9,230.5c0,3.1,2.5,5.6,5.6,5.6h13.2c3.1,0,5.6-2.5,5.6-5.6v-12.4c0-3.1-2.5-5.6-5.6-5.6h-13.2c-3.1,0-5.6,2.5-5.6,5.6v12.4ZM131,230.5v-12.4c0-2.5,2-4.4,4.4-4.4h13.2c2.5,0,4.4,2,4.4,4.4v12.4c0,2.5-2,4.4-4.4,4.4h-13.2c-2.5,0-4.4-2-4.4-4.4Z"/>
    <path id="rect4179-31-1-378" data-name="rect4179-31-1-3" class="st1" d="M76.2,258.1c0,3.1,2.5,5.6,5.6,5.6h13.2c3.1,0,5.6-2.5,5.6-5.6v-12.4c0-3.1-2.5-5.6-5.6-5.6h-13.2c-3.1,0-5.6,2.5-5.6,5.6v12.4ZM77.3,258.1v-12.4c0-2.5,2-4.4,4.4-4.4h13.2c2.5,0,4.4,2,4.4,4.4v12.4c0,2.5-2,4.4-4.4,4.4h-13.2c-2.5,0-4.4-2-4.4-4.4Z"/>
    <path id="rect4179-31-1-379" data-name="rect4179-31-1-3" class="st1" d="M101.8,230.5c0,3.1,2.5,5.6,5.6,5.6h13.2c3.1,0,5.6-2.5,5.6-5.6v-12.4c0-3.1-2.5-5.6-5.6-5.6h-13.2c-3.1,0-5.6,2.5-5.6,5.6v12.4ZM102.9,230.5v-12.4c0-2.5,2-4.4,4.4-4.4h13.2c2.5,0,4.4,2,4.4,4.4v12.4c0,2.5-2,4.4-4.4,4.4h-13.2c-2.5,0-4.4-2-4.4-4.4Z"/>
    <path id="rect4179-31-1-380" data-name="rect4179-31-1-3" class="st1" d="M186.1,230.5c0,3.1,2.5,5.6,5.6,5.6h13.2c3.1,0,5.6-2.5,5.6-5.6v-12.4c0-3.1-2.5-5.6-5.6-5.6h-13.2c-3.1,0-5.6,2.5-5.6,5.6v12.4ZM187.2,230.5v-12.4c0-2.5,2-4.4,4.4-4.4h13.2c2.5,0,4.4,2,4.4,4.4v12.4c0,2.5-2,4.4-4.4,4.4h-13.2c-2.5,0-4.4-2-4.4-4.4Z"/>
    <path id="rect4179-31-1-381" data-name="rect4179-31-1-3" class="st1" d="M158,230.5c0,3.1,2.5,5.6,5.6,5.6h13.2c3.1,0,5.6-2.5,5.6-5.6v-12.4c0-3.1-2.5-5.6-5.6-5.6h-13.2c-3.1,0-5.6,2.5-5.6,5.6v12.4ZM159.1,230.5v-12.4c0-2.5,2-4.4,4.4-4.4h13.2c2.5,0,4.4,2,4.4,4.4v12.4c0,2.5-2,4.4-4.4,4.4h-13.2c-2.5,0-4.4-2-4.4-4.4Z"/>
    <path id="rect4179-31-1-382" data-name="rect4179-31-1-3" class="st1" d="M242.3,230.5c0,3.1,2.5,5.6,5.6,5.6h13.2c3.1,0,5.6-2.5,5.6-5.6v-12.4c0-3.1-2.5-5.6-5.6-5.6h-13.2c-3.1,0-5.6,2.5-5.6,5.6v12.4ZM243.5,230.5v-12.4c0-2.5,2-4.4,4.4-4.4h13.2c2.5,0,4.4,2,4.4,4.4v12.4c0,2.5-2,4.4-4.4,4.4h-13.2c-2.5,0-4.4-2-4.4-4.4Z"/>
    <path id="rect4179-31-1-383" data-name="rect4179-31-1-3" class="st1" d="M214.2,230.5c0,3.1,2.5,5.6,5.6,5.6h13.2c3.1,0,5.6-2.5,5.6-5.6v-12.4c0-3.1-2.5-5.6-5.6-5.6h-13.2c-3.1,0-5.6,2.5-5.6,5.6v12.4ZM215.4,230.5v-12.4c0-2.5,2-4.4,4.4-4.4h13.2c2.5,0,4.4,2,4.4,4.4v12.4c0,2.5-2,4.4-4.4,4.4h-13.2c-2.5,0-4.4-2-4.4-4.4Z"/>
    <path id="rect4179-31-1-384" data-name="rect4179-31-1-3" class="st1" d="M298.5,230.5c0,3.1,2.5,5.6,5.6,5.6h13.2c3.1,0,5.6-2.5,5.6-5.6v-12.4c0-3.1-2.5-5.6-5.6-5.6h-13.2c-3.1,0-5.6,2.5-5.6,5.6v12.4ZM299.7,230.5v-12.4c0-2.5,2-4.4,4.4-4.4h13.2c2.5,0,4.4,2,4.4,4.4v12.4c0,2.5-2,4.4-4.4,4.4h-13.2c-2.5,0-4.4-2-4.4-4.4Z"/>
    <path id="rect4179-31-1-385" data-name="rect4179-31-1-3" class="st1" d="M270.4,230.5c0,3.1,2.5,5.6,5.6,5.6h13.2c3.1,0,5.6-2.5,5.6-5.6v-12.4c0-3.1-2.5-5.6-5.6-5.6h-13.2c-3.1,0-5.6,2.5-5.6,5.6v12.4ZM271.6,230.5v-12.4c0-2.5,2-4.4,4.4-4.4h13.2c2.5,0,4.4,2,4.4,4.4v12.4c0,2.5-2,4.4-4.4,4.4h-13.2c-2.5,0-4.4-2-4.4-4.4Z"/>
    <path id="rect4179-31-1-386" data-name="rect4179-31-1-3" class="st1" d="M354.7,230.5c0,3.1,2.5,5.6,5.6,5.6h13.2c3.1,0,5.6-2.5,5.6-5.6v-12.4c0-3.1-2.5-5.6-5.6-5.6h-13.2c-3.1,0-5.6,2.5-5.6,5.6v12.4ZM355.9,230.5v-12.4c0-2.5,2-4.4,4.4-4.4h13.2c2.5,0,4.4,2,4.4,4.4v12.4c0,2.5-2,4.4-4.4,4.4h-13.2c-2.5,0-4.4-2-4.4-4.4Z"/>
    <path id="rect4179-31-1-387" data-name="rect4179-31-1-3" class="st1" d="M326.6,230.5c0,3.1,2.5,5.6,5.6,5.6h13.2c3.1,0,5.6-2.5,5.6-5.6v-12.4c0-3.1-2.5-5.6-5.6-5.6h-13.2c-3.1,0-5.6,2.5-5.6,5.6v12.4ZM327.8,230.5v-12.4c0-2.5,2-4.4,4.4-4.4h13.2c2.5,0,4.4,2,4.4,4.4v12.4c0,2.5-2,4.4-4.4,4.4h-13.2c-2.5,0-4.4-2-4.4-4.4Z"/>
    <path id="rect4179-31-1-388" data-name="rect4179-31-1-3" class="st1" d="M382.8,230.5c0,3.1,2.5,5.6,5.6,5.6h37.3c3.1,0,5.6-2.5,5.6-5.6v-12.4c0-3.1-2.5-5.6-5.6-5.6h-37.3c-3.1,0-5.6,2.5-5.6,5.6v12.4ZM384,230.5v-12.4c0-2.5,2-4.4,4.4-4.4h37.3c2.5,0,4.4,2,4.4,4.4v12.4c0,2.5-2,4.4-4.4,4.4h-37.3c-2.5,0-4.4-2-4.4-4.4Z"/>
    <path id="rect4179-31-1-389" data-name="rect4179-31-1-3" class="st1" d="M293.6,117.5c0,3.1,2.5,5.6,5.6,5.6h37.3c3.1,0,5.6-2.5,5.6-5.6v-12.4c0-3.1-2.5-5.6-5.6-5.6h-37.3c-3.1,0-5.6,2.5-5.6,5.6v12.4ZM294.7,117.5v-12.4c0-2.5,2-4.4,4.4-4.4h37.3c2.5,0,4.4,2,4.4,4.4v12.4c0,2.5-2,4.4-4.4,4.4h-37.3c-2.5,0-4.4-2-4.4-4.4Z"/>
    <path id="rect4179-31-1-390" data-name="rect4179-31-1-3" class="st1" d="M242.4,117.5c0,3.1,2.5,5.6,5.6,5.6h37.3c3.1,0,5.6-2.5,5.6-5.6v-12.4c0-3.1-2.5-5.6-5.6-5.6h-37.3c-3.1,0-5.6,2.5-5.6,5.6v12.4ZM243.5,117.5v-12.4c0-2.5,2-4.4,4.4-4.4h37.3c2.5,0,4.4,2,4.4,4.4v12.4c0,2.5-2,4.4-4.4,4.4h-37.3c-2.5,0-4.4-2-4.4-4.4Z"/>
    <path id="rect4179-31-1-391" data-name="rect4179-31-1-3" class="st1" d="M191.2,117.5c0,3.1,2.5,5.6,5.6,5.6h37.3c3.1,0,5.6-2.5,5.6-5.6v-12.4c0-3.1-2.5-5.6-5.6-5.6h-37.3c-3.1,0-5.6,2.5-5.6,5.6v12.4ZM192.3,117.5v-12.4c0-2.5,2-4.4,4.4-4.4h37.3c2.5,0,4.4,2,4.4,4.4v12.4c0,2.5-2,4.4-4.4,4.4h-37.3c-2.5,0-4.4-2-4.4-4.4Z"/>
    <path id="rect4179-31-1-392" data-name="rect4179-31-1-3" class="st1" d="M140,117.5c0,3.1,2.5,5.6,5.6,5.6h37.3c3.1,0,5.6-2.5,5.6-5.6v-12.4c0-3.1-2.5-5.6-5.6-5.6h-37.3c-3.1,0-5.6,2.5-5.6,5.6v12.4ZM141.2,117.5v-12.4c0-2.5,2-4.4,4.4-4.4h37.3c2.5,0,4.4,2,4.4,4.4v12.4c0,2.5-2,4.4-4.4,4.4h-37.3c-2.5,0-4.4-2-4.4-4.4Z"/>
    <path id="rect4179-31-1-393" data-name="rect4179-31-1-3" class="st1" d="M88.7,117.5c0,3.1,2.5,5.6,5.6,5.6h37.3c3.1,0,5.6-2.5,5.6-5.6v-12.4c0-3.1-2.5-5.6-5.6-5.6h-37.3c-3.1,0-5.6,2.5-5.6,5.6v12.4ZM89.8,117.5v-12.4c0-2.5,2-4.4,4.4-4.4h37.3c2.5,0,4.4,2,4.4,4.4v12.4c0,2.5-2,4.4-4.4,4.4h-37.3c-2.5,0-4.4-2-4.4-4.4Z"/>
    <path id="rect4179-31-1-394" data-name="rect4179-31-1-3" class="st1" d="M293.6,91.9c0,3.1,2.5,5.6,5.6,5.6h37.3c3.1,0,5.6-2.5,5.6-5.6v-12.4c0-3.1-2.5-5.6-5.6-5.6h-37.3c-3.1,0-5.6,2.5-5.6,5.6v12.4ZM294.7,91.9v-12.4c0-2.5,2-4.4,4.4-4.4h37.3c2.5,0,4.4,2,4.4,4.4v12.4c0,2.5-2,4.4-4.4,4.4h-37.3c-2.5,0-4.4-2-4.4-4.4Z"/>
    <path id="rect4179-31-1-395" data-name="rect4179-31-1-3" class="st1" d="M242.4,91.9c0,3.1,2.5,5.6,5.6,5.6h37.3c3.1,0,5.6-2.5,5.6-5.6v-12.4c0-3.1-2.5-5.6-5.6-5.6h-37.3c-3.1,0-5.6,2.5-5.6,5.6v12.4ZM243.5,91.9v-12.4c0-2.5,2-4.4,4.4-4.4h37.3c2.5,0,4.4,2,4.4,4.4v12.4c0,2.5-2,4.4-4.4,4.4h-37.3c-2.5,0-4.4-2-4.4-4.4Z"/>
    <path id="rect4179-31-1-396" data-name="rect4179-31-1-3" class="st1" d="M191.2,91.9c0,3.1,2.5,5.6,5.6,5.6h37.3c3.1,0,5.6-2.5,5.6-5.6v-12.4c0-3.1-2.5-5.6-5.6-5.6h-37.3c-3.1,0-5.6,2.5-5.6,5.6v12.4ZM192.3,91.9v-12.4c0-2.5,2-4.4,4.4-4.4h37.3c2.5,0,4.4,2,4.4,4.4v12.4c0,2.5-2,4.4-4.4,4.4h-37.3c-2.5,0-4.4-2-4.4-4.4Z"/>
    <path id="rect4179-31-1-397" data-name="rect4179-31-1-3" class="st1" d="M140,91.9c0,3.1,2.5,5.6,5.6,5.6h37.3c3.1,0,5.6-2.5,5.6-5.6v-12.4c0-3.1-2.5-5.6-5.6-5.6h-37.3c-3.1,0-5.6,2.5-5.6,5.6v12.4ZM141.2,91.9v-12.4c0-2.5,2-4.4,4.4-4.4h37.3c2.5,0,4.4,2,4.4,4.4v12.4c0,2.5-2,4.4-4.4,4.4h-37.3c-2.5,0-4.4-2-4.4-4.4Z"/>
    <path id="rect4179-31-1-398" data-name="rect4179-31-1-3" class="st1" d="M88.7,91.9c0,3.1,2.5,5.6,5.6,5.6h37.3c3.1,0,5.6-2.5,5.6-5.6v-12.4c0-3.1-2.5-5.6-5.6-5.6h-37.3c-3.1,0-5.6,2.5-5.6,5.6v12.4ZM89.8,91.9v-12.4c0-2.5,2-4.4,4.4-4.4h37.3c2.5,0,4.4,2,4.4,4.4v12.4c0,2.5-2,4.4-4.4,4.4h-37.3c-2.5,0-4.4-2-4.4-4.4Z"/>
  </g>
</svg>