<?xml version="1.0" encoding="UTF-8"?>
<svg id="Layer_3" xmlns="http://www.w3.org/2000/svg" version="1.1" xmlns:cc="http://creativecommons.org/ns#" xmlns:dc="http://purl.org/dc/elements/1.1/" xmlns:rdf="http://www.w3.org/1999/02/22-rdf-syntax-ns#" viewBox="0 0 598.2 350.3">
  <!-- Generator: Adobe Illustrator 29.0.1, SVG Export Plug-In . SVG Version: 2.1.0 Build 192)  -->
  <defs>
    <style>
      .st0 {
        fill: none;
        stroke: #f4f4f4;
        stroke-miterlimit: 10;
        stroke-width: 2px;
      }
    </style>
  </defs>
  <path class="st0" d="M159.8,109.4s-22.2,13.5-28.7,18.4-23.7,15.3-34.3,30.5-14.4,34-13.3,40.9,9.6,38.9,9.6,38.9c0,0,4.1,13.5,6.2,18s3.5,7.8,7.2,11,13.5,7.4,18.8,6.9,16.3-4.4,25.6-7.4,72-28.3,149.4-28.3,132.5,33.2,142.1,35.7,19,2.1,24.6,0,13.4-7.2,15.3-14.3c1.9-7.1,14.3-48.1,15-53,.7-4.9-.1-16.9-1.8-23.6-1.6-6.6-7.8-18.3-11.2-21.9-3.4-3.7-23-24.3-33.4-30.9-10.5-6.6-21.8-15.2-21.8-15.2,0,0-41.7-21.1-60.5-26.1-18.8-5-44.2-11.2-68.9-11.8s-46.2,1.5-64.5,5.9-32.1,7.5-50.2,14.9-25.3,11.3-25.3,11.3Z"/>
  <circle class="st0" cx="389.8" cy="217" r="18.9"/>
  <circle class="st0" cx="430.7" cy="182.4" r="18.9"/>
  <path class="st0" d="M173.2,259.1s45,26.3,115.9,26.3,122.5-24.5,122.5-24.5"/>
  <path class="st0" d="M282.4,252.8v19.5s.7,1.8-1.8,1.8-26.2-.6-40.3-4.1-8.1-13.4,3.2-15.5,27.5-3,31.6-3.1,7.2-.9,7.2,1.5Z"/>
  <path class="st0" d="M298.5,252.8v19.5s-.7,1.8,1.8,1.8,26.2-.6,40.3-4.1c14.1-3.6,8.1-13.4-3.2-15.5s-27.5-3-31.6-3.1-7.2-.9-7.2,1.5Z"/>
  <path class="st0" d="M221.7,180.1c0,22.9-18.5,41.4-41.4,41.4s-41.4-18.5-41.4-41.4.4-7,1.3-10.2c4.6-17.9,20.8-31.1,40.1-31.1s41.4,18.5,41.4,41.4Z"/>
  <path class="st0" d="M140.9,170.3h21.2c8.7,0,8.7-7.7,8.7-7.7v-22.9"/>
  <path class="st0" d="M220.2,170.3s-13,0-22,0c-9,0-9-7.7-9-7.7v-22.9"/>
  <path class="st0" d="M139.8,188.2h21.2c8.7,0,8.7,7.7,8.7,7.7v22.9"/>
  <path class="st0" d="M220.2,188.2s-13.5,0-22.8,0c-9.4,0-9.4,8.1-9.4,8.1v24.4"/>
  <circle class="st0" cx="180.3" cy="178.9" r="7.1"/>
</svg>