<?xml version="1.0" encoding="UTF-8"?>
<svg id="Layer_3" xmlns="http://www.w3.org/2000/svg" version="1.1" xmlns:cc="http://creativecommons.org/ns#" xmlns:dc="http://purl.org/dc/elements/1.1/" xmlns:rdf="http://www.w3.org/1999/02/22-rdf-syntax-ns#" viewBox="0 0 598.2 350.3">
  <!-- Generator: Adobe Illustrator 29.0.1, SVG Export Plug-In . SVG Version: 2.1.0 Build 192)  -->
  <defs>
    <style>
      .st0 {
        fill: #f4f4f4;
      }
    </style>
  </defs>
  <g id="g41">
    <path id="circle43" class="st0" d="M480.1,34.5c-45.2,0-81.9,36.7-81.9,81.9s36.7,82,81.9,82,81.9-36.8,81.9-82c0-45.2-36.7-81.9-81.9-81.9h0ZM480.1,39.1c42.8,0,77.3,34.6,77.3,77.3s-34.6,77.4-77.3,77.4-77.3-34.7-77.3-77.4,34.6-77.3,77.3-77.3h0Z"/>
    <path id="circle45" class="st0" d="M480.1,60.7c-30.7,0-55.7,25-55.7,55.7s25,55.8,55.7,55.8,55.7-25,55.7-55.8-25-55.7-55.7-55.7ZM480.1,65.3c28.3,0,51.1,22.9,51.1,51.1s-22.9,51.2-51.1,51.2-51.1-22.9-51.1-51.2,22.9-51.1,51.1-51.1Z"/>
  </g>
  <g id="g411" data-name="g41">
    <path id="circle431" data-name="circle43" class="st0" d="M123,34.5c-45.2,0-81.9,36.7-81.9,81.9s36.7,82,81.9,82,81.9-36.8,81.9-82c0-45.2-36.7-81.9-81.9-81.9h0ZM123,39.1c42.8,0,77.3,34.6,77.3,77.3s-34.6,77.4-77.3,77.4-77.3-34.7-77.3-77.4S80.3,39.1,123,39.1h0Z"/>
    <path id="circle451" data-name="circle45" class="st0" d="M123,60.7c-30.7,0-55.7,25-55.7,55.7s25,55.8,55.7,55.8,55.7-25,55.7-55.8-25-55.7-55.7-55.7ZM123,65.3c28.3,0,51.1,22.9,51.1,51.1s-22.9,51.2-51.1,51.2-51.1-22.9-51.1-51.2,22.9-51.1,51.1-51.1Z"/>
  </g>
</svg>