<?xml version="1.0" encoding="UTF-8"?>
<svg id="Layer_2" xmlns="http://www.w3.org/2000/svg" version="1.1" viewBox="0 0 598.2 350.3">
  <!-- Generator: Adobe Illustrator 29.0.1, SVG Export Plug-In . SVG Version: 2.1.0 Build 192)  -->
  <defs>
    <style>
      .st0 {
        fill: #f4f4f4;
      }
    </style>
  </defs>
  <path class="st0" d="M386.2,227h-169.6c-2.4,0-4.3-1.9-4.3-4.3V62.8c0-2.4,1.9-4.3,4.3-4.3h169.6c2.4,0,4.3,1.9,4.3,4.3v159.9c0,2.4-1.9,4.3-4.3,4.3ZM216.6,60.4c-1.3,0-2.3,1-2.3,2.3v159.9c0,1.3,1,2.3,2.3,2.3h169.6c1.3,0,2.3-1,2.3-2.3V62.8c0-1.3-1-2.3-2.3-2.3h-169.6Z"/>
  <path class="st0" d="M292,278.9c-36.3,0-69.7-2.6-100-7.9-2.3,0-4.2-2-4.2-4.3V33.1c0-2.4,1.9-4.3,4.3-4.3h216.9c2.4,0,4.3,1.9,4.3,4.3v233.7c0,2.4-1.9,4.3-4.2,4.3-41.7,5.3-80.8,7.9-117,7.9ZM192.1,30.7c-1.3,0-2.3,1-2.3,2.3v233.7c0,1.3,1,2.3,2.3,2.3h.2c60.5,10.5,133.3,10.5,216.6,0h.1c1.3,0,2.3-1,2.3-2.3V33.1c0-1.3-1-2.3-2.3-2.3h-216.9Z"/>
  <g id="circle9">
    <path class="st0" d="M107.5,166.6c-25.7,0-46.5,20.8-46.5,46.5s20.8,46.5,46.5,46.5,46.5-20.8,46.5-46.5-20.8-46.5-46.5-46.5ZM107.5,167.9c24.9,0,45.2,20.2,45.2,45.1s-20.2,45.1-45.2,45.1-45.1-20.2-45.1-45.1c0-24.9,20.2-45.1,45.1-45.1Z"/>
  </g>
  <g id="path11">
    <path class="st0" d="M99.7,178.8c-2.2,0-3.9,1.8-3.9,3.9v18.3c0,.4,0,.5,0,.4,0,0,0,0-.4,0h-18.2c-2.2,0-3.9,1.8-3.9,3.9v15.6c0,2.2,1.8,3.9,3.9,3.9h18.2c.3,0,.4,0,.4,0,0,0,0,0,0,.4v18.3c0,2.2,1.8,3.9,3.9,3.9h15.6c2.2,0,3.9-1.8,3.9-3.9v-18.3c0-.2,0-.2,0-.3,0,0,.1-.1.4-.1h18.2c2.2,0,3.9-1.8,3.9-3.9v-15.6c0-2.2-1.8-3.9-3.9-3.9h-18.2c-.2,0-.3,0-.4-.1,0,0,0-.1,0-.3v-18.3c0-2.2-1.8-3.9-3.9-3.9h-15.6ZM99.7,180.1h15.6c1.4,0,2.6,1.1,2.6,2.6v18.3c0,.5.1.9.5,1.3.3.3.8.5,1.3.5h18.2c1.4,0,2.6,1.1,2.6,2.6v15.6c0,1.4-1.2,2.6-2.6,2.6h-18.2c-.5,0-1,.2-1.3.5-.3.3-.5.8-.5,1.2v18.3c0,1.4-1.1,2.6-2.6,2.6h-15.6c-1.4,0-2.6-1.1-2.6-2.6v-18.3c0-.5-.1-1-.5-1.3-.4-.3-.8-.4-1.3-.4h-18.2c-1.4,0-2.6-1.1-2.6-2.6v-15.6c0-1.4,1.2-2.6,2.6-2.6h18.2c.6,0,1.1,0,1.4-.5.4-.4.3-.9.3-1.3v-18.3c0-1.4,1.1-2.6,2.6-2.6h0Z"/>
  </g>
  <g id="path13">
    <path class="st0" d="M98.3,177c-2.2,0-3.9,1.8-3.9,3.9v18.3c0,.4,0,.4,0,.4,0,0,0,0-.4,0h-18.2c-2.2,0-3.9,1.8-3.9,3.9v19.2c0,2.2,1.8,3.9,3.9,3.9h18.2c.3,0,.4,0,.4,0,0,0,0,0,0,.3v18.3c0,2.2,1.8,3.9,3.9,3.9h18.5c2.2,0,3.9-1.8,3.9-3.9v-18.3c0-.2,0-.3,0-.3,0,0,.1,0,.4,0h18.2c2.2,0,3.9-1.8,3.9-3.9v-19.2c0-2.2-1.8-3.9-3.9-3.9h-18.2c-.2,0-.3,0-.4,0,0,0,0-.1,0-.3v-18.3c0-2.2-1.8-3.9-3.9-3.9h-18.5ZM98.3,178.3h18.5c1.4,0,2.6,1.1,2.6,2.6v18.3c0,.5.1.9.5,1.3.3.3.8.5,1.3.5h18.2c1.4,0,2.6,1.2,2.6,2.6v19.2c0,1.4-1.2,2.6-2.6,2.6h-18.2c-.5,0-1,.1-1.3.5-.3.3-.5.8-.5,1.3v18.3c0,1.4-1.1,2.6-2.6,2.6h-18.5c-1.4,0-2.6-1.1-2.6-2.6v-18.3c0-.5-.1-1-.5-1.3s-.8-.4-1.3-.4h-18.2c-1.4,0-2.6-1.2-2.6-2.6v-19.2c0-1.4,1.2-2.6,2.6-2.6h18.2c.6,0,1.1,0,1.4-.5.4-.4.3-.8.3-1.3v-18.3c0-1.4,1.1-2.6,2.6-2.6h0Z"/>
  </g>
  <g id="circle15">
    <path class="st0" d="M107.5,204.3c-4.9,0-8.8,3.9-8.8,8.8s3.9,8.8,8.8,8.8,8.8-3.9,8.8-8.8-4-8.8-8.8-8.8ZM107.5,205.6c4.1,0,7.5,3.3,7.5,7.5s-3.4,7.5-7.5,7.5-7.5-3.3-7.5-7.5c0-4.1,3.3-7.5,7.5-7.5Z"/>
  </g>
  <g id="path17">
    <path class="st0" d="M107.5,181.7c-1,0-1.8.6-2.3,1.4h0s0,0,0,0l-5.1,10.6c-.2.3-.3.7-.3,1.1,0,1.4,1.2,2.6,2.6,2.6h10c1.4,0,2.6-1.2,2.6-2.6s0-.8-.3-1.1l-5.1-10.6h0s0,0,0,0c-.5-.8-1.3-1.3-2.2-1.3h0ZM107.5,183c.5,0,.9.3,1.1.6h0s5.1,10.6,5.1,10.6c0,.2.1.3.1.5,0,.7-.6,1.3-1.3,1.3h-10c-.7,0-1.3-.5-1.3-1.3s0-.4.1-.5l5.1-10.6h0c.2-.4.6-.7,1.1-.7h0Z"/>
  </g>
  <g id="path19">
    <path class="st0" d="M89.2,205.4c-.4,0-.8,0-1.1.3l-10.7,5.1h0c-.8.5-1.3,1.3-1.3,2.3s.5,1.8,1.3,2.3h0s0,0,0,0l10.6,5.1h0c.3.2.7.3,1.1.3,1.4,0,2.6-1.2,2.6-2.6v-10c0-1.4-1.2-2.6-2.6-2.6h0ZM89.2,206.8c.7,0,1.3.6,1.3,1.3v10c0,.7-.6,1.3-1.3,1.3s-.4,0-.5-.1h0l-10.6-5.1s0,0,0,0c-.4-.2-.6-.6-.6-1.1s.2-.8.6-1l10.6-5.1c.2,0,.3-.1.5-.1h0Z"/>
  </g>
  <g id="path21">
    <path class="st0" d="M102.5,228.8c-1.4,0-2.6,1.2-2.6,2.6s0,.8.3,1.1l5.1,10.7h0s0,0,0,0c.5.8,1.3,1.3,2.2,1.3s1.9-.6,2.3-1.4h0s0,0,0,0l5.1-10.6h0c.2-.4.3-.7.3-1.1,0-1.4-1.2-2.6-2.6-2.6h-10ZM102.5,230.1h10c.7,0,1.3.6,1.3,1.3s0,.4-.1.5l-5.1,10.6s0,0,0,0c-.2.4-.6.6-1.1.6s-.8-.2-1-.6h0c0,0,0,0,0,0l-5.1-10.6s0,0,0,0c0-.2-.1-.3-.1-.5,0-.7.6-1.3,1.3-1.3h0Z"/>
  </g>
  <g id="path23">
    <path class="st0" d="M125.8,205.4c-1.4,0-2.6,1.2-2.6,2.6v10c0,1.4,1.2,2.6,2.6,2.6s.8,0,1.1-.3l10.7-5.1h0c.8-.5,1.3-1.3,1.3-2.3s-.5-1.8-1.3-2.3h0s0,0,0,0l-10.6-5.1c-.3-.2-.7-.3-1.1-.3h0ZM125.8,206.8c.2,0,.4,0,.5.1,0,0,0,0,0,0l10.6,5.1h0c.4.2.6.6.6,1.1s-.2.8-.6,1.1c0,0,0,0,0,0l-10.6,5.1c-.2,0-.3.1-.5.1-.7,0-1.3-.5-1.3-1.3v-10c0-.7.6-1.3,1.3-1.3h0Z"/>
  </g>
  <path class="st0" d="M474,247.4c-9,0-16.3-7.3-16.3-16.3s7.3-16.3,16.3-16.3,16.3,7.3,16.3,16.3-7.3,16.3-16.3,16.3ZM474,216.7c-7.9,0-14.3,6.4-14.3,14.3s6.4,14.3,14.3,14.3,14.3-6.4,14.3-14.3-6.4-14.3-14.3-14.3Z"/>
  <path class="st0" d="M513.7,207.7c-9,0-16.3-7.3-16.3-16.3s7.3-16.3,16.3-16.3,16.3,7.3,16.3,16.3-7.3,16.3-16.3,16.3ZM513.7,177c-7.9,0-14.3,6.4-14.3,14.3s6.4,14.3,14.3,14.3,14.3-6.4,14.3-14.3-6.4-14.3-14.3-14.3Z"/>
  <path class="st0" d="M473.8,253.2c-5.6,0-11.2-2.1-15.5-6.4-8.6-8.6-8.6-22.5,0-31l40.5-40.5c8.6-8.5,22.5-8.6,31,0,8.6,8.6,8.6,22.5,0,31l-40.5,40.5c-4.3,4.3-9.9,6.4-15.5,6.4ZM514.3,170.9c-5.1,0-10.2,1.9-14.1,5.8l-40.5,40.5c-3.8,3.8-5.8,8.8-5.8,14.1s2.1,10.3,5.8,14.1,8.8,5.8,14.1,5.8,10.3-2.1,14.1-5.8l40.5-40.5c3.8-3.8,5.8-8.8,5.8-14.1s-2.1-10.3-5.8-14.1-9-5.8-14.1-5.8Z"/>
  <path class="st0" d="M78.1,76c-2.3,0-4.3-1.9-4.3-4.3s1.9-4.3,4.3-4.3,4.3,1.9,4.3,4.3-1.9,4.3-4.3,4.3ZM78.1,69.5c-1.2,0-2.3,1-2.3,2.3s1,2.3,2.3,2.3,2.3-1,2.3-2.3-1-2.3-2.3-2.3Z"/>
  <path class="st0" d="M90.2,76c-2.3,0-4.3-1.9-4.3-4.3s1.9-4.3,4.3-4.3,4.3,1.9,4.3,4.3-1.9,4.3-4.3,4.3ZM90.2,69.5c-1.2,0-2.3,1-2.3,2.3s1,2.3,2.3,2.3,2.3-1,2.3-2.3-1-2.3-2.3-2.3Z"/>
  <path class="st0" d="M102.3,76c-2.3,0-4.3-1.9-4.3-4.3s1.9-4.3,4.3-4.3,4.3,1.9,4.3,4.3-1.9,4.3-4.3,4.3ZM102.3,69.5c-1.2,0-2.3,1-2.3,2.3s1,2.3,2.3,2.3,2.3-1,2.3-2.3-1-2.3-2.3-2.3Z"/>
  <path class="st0" d="M114.3,76c-2.3,0-4.3-1.9-4.3-4.3s1.9-4.3,4.3-4.3,4.3,1.9,4.3,4.3-1.9,4.3-4.3,4.3ZM114.3,69.5c-1.2,0-2.3,1-2.3,2.3s1,2.3,2.3,2.3,2.3-1,2.3-2.3-1-2.3-2.3-2.3Z"/>
  <path class="st0" d="M126.4,76c-2.3,0-4.3-1.9-4.3-4.3s1.9-4.3,4.3-4.3,4.3,1.9,4.3,4.3-1.9,4.3-4.3,4.3ZM126.4,69.5c-1.2,0-2.3,1-2.3,2.3s1,2.3,2.3,2.3,2.3-1,2.3-2.3-1-2.3-2.3-2.3Z"/>
  <path class="st0" d="M138.5,76c-2.3,0-4.3-1.9-4.3-4.3s1.9-4.3,4.3-4.3,4.3,1.9,4.3,4.3-1.9,4.3-4.3,4.3ZM138.5,69.5c-1.2,0-2.3,1-2.3,2.3s1,2.3,2.3,2.3,2.3-1,2.3-2.3-1-2.3-2.3-2.3Z"/>
  <path class="st0" d="M78.1,87c-2.3,0-4.3-1.9-4.3-4.3s1.9-4.3,4.3-4.3,4.3,1.9,4.3,4.3-1.9,4.3-4.3,4.3ZM78.1,80.5c-1.2,0-2.3,1-2.3,2.3s1,2.3,2.3,2.3,2.3-1,2.3-2.3-1-2.3-2.3-2.3Z"/>
  <path class="st0" d="M90.2,87c-2.3,0-4.3-1.9-4.3-4.3s1.9-4.3,4.3-4.3,4.3,1.9,4.3,4.3-1.9,4.3-4.3,4.3ZM90.2,80.5c-1.2,0-2.3,1-2.3,2.3s1,2.3,2.3,2.3,2.3-1,2.3-2.3-1-2.3-2.3-2.3Z"/>
  <path class="st0" d="M102.3,87c-2.3,0-4.3-1.9-4.3-4.3s1.9-4.3,4.3-4.3,4.3,1.9,4.3,4.3-1.9,4.3-4.3,4.3ZM102.3,80.5c-1.2,0-2.3,1-2.3,2.3s1,2.3,2.3,2.3,2.3-1,2.3-2.3-1-2.3-2.3-2.3Z"/>
  <path class="st0" d="M114.3,87c-2.3,0-4.3-1.9-4.3-4.3s1.9-4.3,4.3-4.3,4.3,1.9,4.3,4.3-1.9,4.3-4.3,4.3ZM114.3,80.5c-1.2,0-2.3,1-2.3,2.3s1,2.3,2.3,2.3,2.3-1,2.3-2.3-1-2.3-2.3-2.3Z"/>
  <path class="st0" d="M126.4,87c-2.3,0-4.3-1.9-4.3-4.3s1.9-4.3,4.3-4.3,4.3,1.9,4.3,4.3-1.9,4.3-4.3,4.3ZM126.4,80.5c-1.2,0-2.3,1-2.3,2.3s1,2.3,2.3,2.3,2.3-1,2.3-2.3-1-2.3-2.3-2.3Z"/>
  <path class="st0" d="M138.5,87c-2.3,0-4.3-1.9-4.3-4.3s1.9-4.3,4.3-4.3,4.3,1.9,4.3,4.3-1.9,4.3-4.3,4.3ZM138.5,80.5c-1.2,0-2.3,1-2.3,2.3s1,2.3,2.3,2.3,2.3-1,2.3-2.3-1-2.3-2.3-2.3Z"/>
  <path class="st0" d="M78.1,98.8c-2.3,0-4.3-1.9-4.3-4.3s1.9-4.3,4.3-4.3,4.3,1.9,4.3,4.3-1.9,4.3-4.3,4.3ZM78.1,92.3c-1.2,0-2.3,1-2.3,2.3s1,2.3,2.3,2.3,2.3-1,2.3-2.3-1-2.3-2.3-2.3Z"/>
  <path class="st0" d="M90.2,98.8c-2.3,0-4.3-1.9-4.3-4.3s1.9-4.3,4.3-4.3,4.3,1.9,4.3,4.3-1.9,4.3-4.3,4.3ZM90.2,92.3c-1.2,0-2.3,1-2.3,2.3s1,2.3,2.3,2.3,2.3-1,2.3-2.3-1-2.3-2.3-2.3Z"/>
  <path class="st0" d="M102.3,98.8c-2.3,0-4.3-1.9-4.3-4.3s1.9-4.3,4.3-4.3,4.3,1.9,4.3,4.3-1.9,4.3-4.3,4.3ZM102.3,92.3c-1.2,0-2.3,1-2.3,2.3s1,2.3,2.3,2.3,2.3-1,2.3-2.3-1-2.3-2.3-2.3Z"/>
  <path class="st0" d="M114.3,98.8c-2.3,0-4.3-1.9-4.3-4.3s1.9-4.3,4.3-4.3,4.3,1.9,4.3,4.3-1.9,4.3-4.3,4.3ZM114.3,92.3c-1.2,0-2.3,1-2.3,2.3s1,2.3,2.3,2.3,2.3-1,2.3-2.3-1-2.3-2.3-2.3Z"/>
  <path class="st0" d="M126.4,98.8c-2.3,0-4.3-1.9-4.3-4.3s1.9-4.3,4.3-4.3,4.3,1.9,4.3,4.3-1.9,4.3-4.3,4.3ZM126.4,92.3c-1.2,0-2.3,1-2.3,2.3s1,2.3,2.3,2.3,2.3-1,2.3-2.3-1-2.3-2.3-2.3Z"/>
  <path class="st0" d="M138.5,98.8c-2.3,0-4.3-1.9-4.3-4.3s1.9-4.3,4.3-4.3,4.3,1.9,4.3,4.3-1.9,4.3-4.3,4.3ZM138.5,92.3c-1.2,0-2.3,1-2.3,2.3s1,2.3,2.3,2.3,2.3-1,2.3-2.3-1-2.3-2.3-2.3Z"/>
  <path class="st0" d="M78.1,110.5c-2.3,0-4.3-1.9-4.3-4.3s1.9-4.3,4.3-4.3,4.3,1.9,4.3,4.3-1.9,4.3-4.3,4.3ZM78.1,104c-1.2,0-2.3,1-2.3,2.3s1,2.3,2.3,2.3,2.3-1,2.3-2.3-1-2.3-2.3-2.3Z"/>
  <path class="st0" d="M90.2,110.5c-2.3,0-4.3-1.9-4.3-4.3s1.9-4.3,4.3-4.3,4.3,1.9,4.3,4.3-1.9,4.3-4.3,4.3ZM90.2,104c-1.2,0-2.3,1-2.3,2.3s1,2.3,2.3,2.3,2.3-1,2.3-2.3-1-2.3-2.3-2.3Z"/>
  <path class="st0" d="M102.3,110.5c-2.3,0-4.3-1.9-4.3-4.3s1.9-4.3,4.3-4.3,4.3,1.9,4.3,4.3-1.9,4.3-4.3,4.3ZM102.3,104c-1.2,0-2.3,1-2.3,2.3s1,2.3,2.3,2.3,2.3-1,2.3-2.3-1-2.3-2.3-2.3Z"/>
  <path class="st0" d="M114.3,110.5c-2.3,0-4.3-1.9-4.3-4.3s1.9-4.3,4.3-4.3,4.3,1.9,4.3,4.3-1.9,4.3-4.3,4.3ZM114.3,104c-1.2,0-2.3,1-2.3,2.3s1,2.3,2.3,2.3,2.3-1,2.3-2.3-1-2.3-2.3-2.3Z"/>
  <path class="st0" d="M126.4,110.5c-2.3,0-4.3-1.9-4.3-4.3s1.9-4.3,4.3-4.3,4.3,1.9,4.3,4.3-1.9,4.3-4.3,4.3ZM126.4,104c-1.2,0-2.3,1-2.3,2.3s1,2.3,2.3,2.3,2.3-1,2.3-2.3-1-2.3-2.3-2.3Z"/>
  <path class="st0" d="M138.5,110.5c-2.3,0-4.3-1.9-4.3-4.3s1.9-4.3,4.3-4.3,4.3,1.9,4.3,4.3-1.9,4.3-4.3,4.3ZM138.5,104c-1.2,0-2.3,1-2.3,2.3s1,2.3,2.3,2.3,2.3-1,2.3-2.3-1-2.3-2.3-2.3Z"/>
  <path class="st0" d="M78.1,122.3c-2.3,0-4.3-1.9-4.3-4.3s1.9-4.3,4.3-4.3,4.3,1.9,4.3,4.3-1.9,4.3-4.3,4.3ZM78.1,115.8c-1.2,0-2.3,1-2.3,2.3s1,2.3,2.3,2.3,2.3-1,2.3-2.3-1-2.3-2.3-2.3Z"/>
  <path class="st0" d="M90.2,122.3c-2.3,0-4.3-1.9-4.3-4.3s1.9-4.3,4.3-4.3,4.3,1.9,4.3,4.3-1.9,4.3-4.3,4.3ZM90.2,115.8c-1.2,0-2.3,1-2.3,2.3s1,2.3,2.3,2.3,2.3-1,2.3-2.3-1-2.3-2.3-2.3Z"/>
  <path class="st0" d="M102.3,122.3c-2.3,0-4.3-1.9-4.3-4.3s1.9-4.3,4.3-4.3,4.3,1.9,4.3,4.3-1.9,4.3-4.3,4.3ZM102.3,115.8c-1.2,0-2.3,1-2.3,2.3s1,2.3,2.3,2.3,2.3-1,2.3-2.3-1-2.3-2.3-2.3Z"/>
  <path class="st0" d="M114.3,122.3c-2.3,0-4.3-1.9-4.3-4.3s1.9-4.3,4.3-4.3,4.3,1.9,4.3,4.3-1.9,4.3-4.3,4.3ZM114.3,115.8c-1.2,0-2.3,1-2.3,2.3s1,2.3,2.3,2.3,2.3-1,2.3-2.3-1-2.3-2.3-2.3Z"/>
  <path class="st0" d="M126.4,122.3c-2.3,0-4.3-1.9-4.3-4.3s1.9-4.3,4.3-4.3,4.3,1.9,4.3,4.3-1.9,4.3-4.3,4.3ZM126.4,115.8c-1.2,0-2.3,1-2.3,2.3s1,2.3,2.3,2.3,2.3-1,2.3-2.3-1-2.3-2.3-2.3Z"/>
  <path class="st0" d="M138.5,122.3c-2.3,0-4.3-1.9-4.3-4.3s1.9-4.3,4.3-4.3,4.3,1.9,4.3,4.3-1.9,4.3-4.3,4.3ZM138.5,115.8c-1.2,0-2.3,1-2.3,2.3s1,2.3,2.3,2.3,2.3-1,2.3-2.3-1-2.3-2.3-2.3Z"/>
  <path class="st0" d="M78.1,134c-2.3,0-4.3-1.9-4.3-4.3s1.9-4.3,4.3-4.3,4.3,1.9,4.3,4.3-1.9,4.3-4.3,4.3ZM78.1,127.5c-1.2,0-2.3,1-2.3,2.3s1,2.3,2.3,2.3,2.3-1,2.3-2.3-1-2.3-2.3-2.3Z"/>
  <path class="st0" d="M90.2,134c-2.3,0-4.3-1.9-4.3-4.3s1.9-4.3,4.3-4.3,4.3,1.9,4.3,4.3-1.9,4.3-4.3,4.3ZM90.2,127.5c-1.2,0-2.3,1-2.3,2.3s1,2.3,2.3,2.3,2.3-1,2.3-2.3-1-2.3-2.3-2.3Z"/>
  <path class="st0" d="M102.3,134c-2.3,0-4.3-1.9-4.3-4.3s1.9-4.3,4.3-4.3,4.3,1.9,4.3,4.3-1.9,4.3-4.3,4.3ZM102.3,127.5c-1.2,0-2.3,1-2.3,2.3s1,2.3,2.3,2.3,2.3-1,2.3-2.3-1-2.3-2.3-2.3Z"/>
  <path class="st0" d="M114.3,134c-2.3,0-4.3-1.9-4.3-4.3s1.9-4.3,4.3-4.3,4.3,1.9,4.3,4.3-1.9,4.3-4.3,4.3ZM114.3,127.5c-1.2,0-2.3,1-2.3,2.3s1,2.3,2.3,2.3,2.3-1,2.3-2.3-1-2.3-2.3-2.3Z"/>
  <path class="st0" d="M126.4,134c-2.3,0-4.3-1.9-4.3-4.3s1.9-4.3,4.3-4.3,4.3,1.9,4.3,4.3-1.9,4.3-4.3,4.3ZM126.4,127.5c-1.2,0-2.3,1-2.3,2.3s1,2.3,2.3,2.3,2.3-1,2.3-2.3-1-2.3-2.3-2.3Z"/>
  <path class="st0" d="M138.5,134c-2.3,0-4.3-1.9-4.3-4.3s1.9-4.3,4.3-4.3,4.3,1.9,4.3,4.3-1.9,4.3-4.3,4.3ZM138.5,127.5c-1.2,0-2.3,1-2.3,2.3s1,2.3,2.3,2.3,2.3-1,2.3-2.3-1-2.3-2.3-2.3Z"/>
  <path class="st0" d="M78.1,145.8c-2.3,0-4.3-1.9-4.3-4.3s1.9-4.3,4.3-4.3,4.3,1.9,4.3,4.3-1.9,4.3-4.3,4.3ZM78.1,139.3c-1.2,0-2.3,1-2.3,2.3s1,2.3,2.3,2.3,2.3-1,2.3-2.3-1-2.3-2.3-2.3Z"/>
  <path class="st0" d="M90.2,145.8c-2.3,0-4.3-1.9-4.3-4.3s1.9-4.3,4.3-4.3,4.3,1.9,4.3,4.3-1.9,4.3-4.3,4.3ZM90.2,139.3c-1.2,0-2.3,1-2.3,2.3s1,2.3,2.3,2.3,2.3-1,2.3-2.3-1-2.3-2.3-2.3Z"/>
  <path class="st0" d="M102.3,145.8c-2.3,0-4.3-1.9-4.3-4.3s1.9-4.3,4.3-4.3,4.3,1.9,4.3,4.3-1.9,4.3-4.3,4.3ZM102.3,139.3c-1.2,0-2.3,1-2.3,2.3s1,2.3,2.3,2.3,2.3-1,2.3-2.3-1-2.3-2.3-2.3Z"/>
  <path class="st0" d="M114.3,145.8c-2.3,0-4.3-1.9-4.3-4.3s1.9-4.3,4.3-4.3,4.3,1.9,4.3,4.3-1.9,4.3-4.3,4.3ZM114.3,139.3c-1.2,0-2.3,1-2.3,2.3s1,2.3,2.3,2.3,2.3-1,2.3-2.3-1-2.3-2.3-2.3Z"/>
  <path class="st0" d="M126.4,145.8c-2.3,0-4.3-1.9-4.3-4.3s1.9-4.3,4.3-4.3,4.3,1.9,4.3,4.3-1.9,4.3-4.3,4.3ZM126.4,139.3c-1.2,0-2.3,1-2.3,2.3s1,2.3,2.3,2.3,2.3-1,2.3-2.3-1-2.3-2.3-2.3Z"/>
  <path class="st0" d="M138.5,145.8c-2.3,0-4.3-1.9-4.3-4.3s1.9-4.3,4.3-4.3,4.3,1.9,4.3,4.3-1.9,4.3-4.3,4.3ZM138.5,139.3c-1.2,0-2.3,1-2.3,2.3s1,2.3,2.3,2.3,2.3-1,2.3-2.3-1-2.3-2.3-2.3Z"/>
  <path class="st0" d="M465.1,112.2c-1.9,0-3.8-.7-5.3-2.2-2.9-2.9-2.9-7.7,0-10.6l8.1-8.1c1.4-1.4,3.3-2.2,5.3-2.2s3.9.8,5.3,2.2c1.4,1.4,2.2,3.3,2.2,5.3s-.8,3.9-2.2,5.3l-8.1,8.1c-1.5,1.5-3.4,2.2-5.3,2.2ZM473.2,91.1c-1.5,0-2.8.6-3.9,1.6l-8.1,8.1c-2.1,2.1-2.1,5.6,0,7.8,2.1,2.1,5.6,2.1,7.8,0l8.1-8.1c1-1,1.6-2.4,1.6-3.9s-.6-2.8-1.6-3.9-2.4-1.6-3.9-1.6Z"/>
  <path class="st0" d="M510.6,112.2c-1.9,0-3.8-.7-5.3-2.2-2.9-2.9-2.9-7.7,0-10.6l8.1-8.1c2.9-2.9,7.7-2.9,10.6,0,1.4,1.4,2.2,3.3,2.2,5.3s-.8,3.9-2.2,5.3l-8.1,8.1c-1.5,1.5-3.4,2.2-5.3,2.2ZM518.7,91.1c-1.4,0-2.8.5-3.9,1.6l-8.1,8.1c-2.1,2.1-2.1,5.6,0,7.8,2.1,2.1,5.6,2.1,7.8,0l8.1-8.1c1-1,1.6-2.4,1.6-3.9s-.6-2.8-1.6-3.9-2.5-1.6-3.9-1.6Z"/>
  <path class="st0" d="M285.1,330.5c-52.7,0-164.1-5.2-167.5-5.3-1.3.1-19.9,1.6-39-4.1-18.3-5.5-40.9-18.9-44.4-51.6-8.2-76.9-4.9-149.7,2.7-181.9,8.1-34.5,25.4-40.9,40.7-46.6,14.8-5.5,80.9-6.6,89.3-6.7,3.4-13.5,14.3-14.6,14.4-14.6h237.3c2.4,0,4.3,2.8,6.7,6.4,2.2,3.2,4.6,6.7,7.5,8.3h.1c1.1.7,9.8,1,18.2,1.2,12.5.4,28.1.9,40.5,2.6,2.3.3,4.5.6,6.5.9,17.4,2.3,24.7,3.2,43.9,15.6,21.4,13.8,24.6,83.7,24.8,86.7.3,4.7,7.8,116.2-8.9,148.3-14.3,27.5-41.7,29.5-61.8,30.9-3.9.3-7.6.5-11,1-20.6,2.6-129.3,8.4-141.5,8.4h-1.8q-.9,0-7,0c-6.1,0-18.4.2-43.8.4-1.9,0-3.8,0-5.9,0ZM117.6,323.2h0c1.2,0,123.2,5.8,173.4,5.3,25.4-.2,37.7-.3,43.8-.4,1.7,0,2.9,0,3.8,0h0s5,0,5,0c9.5,0,120.1-5.7,141.2-8.4,3.4-.4,7.1-.7,11.1-1,20.6-1.5,46.3-3.3,60.1-29.8,16.5-31.6,8.8-146.1,8.7-147.3,0-.7-3.3-71.9-23.8-85.1-18.8-12.2-25.4-13-43-15.3-2-.3-4.2-.5-6.5-.9-12.3-1.7-27.8-2.2-40.3-2.6-13.1-.4-18-.7-19.3-1.5-3.3-1.8-5.8-5.6-8.1-8.9-1.8-2.7-3.8-5.5-5.1-5.5h-237.2c-.3,0-9.8,1-12.7,13.8l-.2.8h-.8c-.7,0-74.2,1-89.4,6.6-15.6,5.8-31.7,11.8-39.6,45.2-7.5,32-10.8,104.5-2.6,181.2,2.7,25.4,17.1,42.1,42.9,49.9,19.3,5.8,38.2,4,38.4,4h0Z"/>
</svg>