<?xml version="1.0" encoding="UTF-8"?>
<svg id="Layer_3" xmlns="http://www.w3.org/2000/svg" version="1.1" xmlns:cc="http://creativecommons.org/ns#" xmlns:dc="http://purl.org/dc/elements/1.1/" xmlns:rdf="http://www.w3.org/1999/02/22-rdf-syntax-ns#" viewBox="0 0 598.2 350.3">
  <!-- Generator: Adobe Illustrator 29.0.1, SVG Export Plug-In . SVG Version: 2.1.0 Build 192)  -->
  <defs>
    <style>
      .st0, .st1, .st2 {
        stroke: #f4f4f4;
        stroke-miterlimit: 10;
      }

      .st0, .st3 {
        fill: #f4f4f4;
      }

      .st1, .st2 {
        fill: none;
      }

      .st2 {
        stroke-width: 2px;
      }
    </style>
  </defs>
  <rect class="st1" x="426" y="217.1" width="27.3" height="5.5" rx="2.8" ry="2.8" transform="translate(-32.3 82.4) rotate(-10.3)"/>
  <rect class="st1" x="456.3" y="212.3" width="27.3" height="5.5" rx="2.8" ry="2.8" transform="translate(-21.6 55.5) rotate(-6.6)"/>
  <rect class="st1" x="486.9" y="209.1" width="27.3" height="5.5" rx="2.8" ry="2.8" transform="translate(-13.4 35.1) rotate(-4)"/>
  <rect class="st2" x="187.6" y="70.1" width="222.8" height="153.9"/>
  <line class="st2" x1="188.7" y1="70.1" x2="216.2" y2="78.2"/>
  <line class="st2" x1="382.9" y1="79.7" x2="410.4" y2="70.1"/>
  <line class="st2" x1="410.4" y1="224.1" x2="382.8" y2="215"/>
  <line class="st2" x1="187.6" y1="224.1" x2="215.2" y2="215"/>
  <g>
    <circle class="st2" cx="111.8" cy="74" r="1.5"/>
    <circle class="st2" cx="118.9" cy="74.7" r="1.5"/>
    <circle class="st2" cx="126" cy="75.4" r="1.5"/>
    <circle class="st2" cx="133.2" cy="76.2" r="1.5"/>
    <circle class="st2" cx="140.3" cy="76.9" r="1.5"/>
    <circle class="st2" cx="147.7" cy="77.6" r="1.5"/>
    <circle class="st2" cx="154.9" cy="78.3" r="1.5"/>
    <circle class="st2" cx="162" cy="79" r="1.5"/>
    <circle class="st2" cx="169.2" cy="79.7" r="1.5"/>
  </g>
  <g>
    <circle class="st2" cx="108.1" cy="79.8" r="1.5"/>
    <circle class="st2" cx="115.2" cy="80.5" r="1.5"/>
    <circle class="st2" cx="122.3" cy="81.2" r="1.5"/>
    <circle class="st2" cx="129.5" cy="81.9" r="1.5"/>
    <circle class="st2" cx="136.6" cy="82.6" r="1.5"/>
    <circle class="st2" cx="144" cy="83.4" r="1.5"/>
    <circle class="st2" cx="151.2" cy="84.1" r="1.5"/>
    <circle class="st2" cx="158.3" cy="84.8" r="1.5"/>
    <circle class="st2" cx="165.5" cy="85.5" r="1.5"/>
  </g>
  <g>
    <circle class="st2" cx="103.8" cy="85.5" r="1.5"/>
    <circle class="st2" cx="110.9" cy="86.2" r="1.5"/>
    <circle class="st2" cx="118" cy="86.9" r="1.5"/>
    <circle class="st2" cx="125.3" cy="87.7" r="1.5"/>
    <circle class="st2" cx="132.4" cy="88.4" r="1.5"/>
    <circle class="st2" cx="139.7" cy="89.1" r="1.5"/>
    <circle class="st2" cx="146.9" cy="89.8" r="1.5"/>
    <circle class="st2" cx="154" cy="90.5" r="1.5"/>
    <circle class="st2" cx="161.2" cy="91.2" r="1.5"/>
  </g>
  <g>
    <circle class="st2" cx="99.6" cy="91.3" r="1.5"/>
    <circle class="st2" cx="106.7" cy="92" r="1.5"/>
    <circle class="st2" cx="113.8" cy="92.7" r="1.5"/>
    <circle class="st2" cx="121.1" cy="93.4" r="1.5"/>
    <circle class="st2" cx="128.2" cy="94.1" r="1.5"/>
    <circle class="st2" cx="135.5" cy="94.8" r="1.5"/>
    <circle class="st2" cx="142.7" cy="95.5" r="1.5"/>
    <circle class="st2" cx="149.8" cy="96.2" r="1.5"/>
    <circle class="st2" cx="157" cy="96.9" r="1.5"/>
  </g>
  <g>
    <circle class="st2" cx="95.9" cy="97.4" r="1.5"/>
    <circle class="st2" cx="103" cy="98.1" r="1.5"/>
    <circle class="st2" cx="110.1" cy="98.8" r="1.5"/>
    <circle class="st2" cx="117.3" cy="99.5" r="1.5"/>
    <circle class="st2" cx="124.5" cy="100.2" r="1.5"/>
    <circle class="st2" cx="131.8" cy="101" r="1.5"/>
    <circle class="st2" cx="139" cy="101.7" r="1.5"/>
    <circle class="st2" cx="146.1" cy="102.4" r="1.5"/>
    <circle class="st2" cx="153.3" cy="103.1" r="1.5"/>
  </g>
  <path class="st2" d="M246.5,256.2s-5.2,4.8-5.2,10.3,4,10.2,4,10.2"/>
  <ellipse class="st2" cx="297.5" cy="266.5" rx="129.1" ry="11.2"/>
  <rect class="st2" x="252" y="258.9" width="42.8" height="14.9" rx="7.5" ry="7.5"/>
  <g>
    <circle class="st2" cx="267.6" cy="266.4" r=".7"/>
    <circle class="st2" cx="273.4" cy="266.3" r=".7"/>
    <circle class="st2" cx="279.2" cy="266.3" r=".7"/>
  </g>
  <path class="st2" d="M509.7,304.2H88.5c-8.5,0-15.3-6.9-15.3-15.3,0,0-3.8-63.2-3.8-102.6s3.8-116.6,3.8-116.6c0-8.5,6.9-15.3,15.3-15.3,0,0,160.4-8.2,209.9-8.2s211.2,8.2,211.2,8.2c8.5,0,15.3,6.9,15.3,15.3,0,0,3.8,63.6,3.8,104s-3.8,115.3-3.8,115.3c0,8.5-6.9,15.3-15.3,15.3Z"/>
  <path id="circle9" class="st0" d="M140.7,134.8c-20.6,0-37.4,16.7-37.4,37.4s16.7,37.4,37.4,37.4,37.4-16.7,37.4-37.4-16.8-37.4-37.4-37.4ZM140.7,135.9c20,0,36.3,16.2,36.3,36.3s-16.3,36.3-36.3,36.3-36.3-16.2-36.3-36.3c0-20,16.2-36.3,36.3-36.3Z"/>
  <path id="path11" class="st3" d="M134.5,144.6c-1.7,0-3.2,1.4-3.2,3.2v14.7c0,.3,0,.4,0,.3,0,0,0,0-.4,0h-14.7c-1.7,0-3.2,1.4-3.2,3.2v12.5c0,1.7,1.4,3.2,3.2,3.2h14.6c.3,0,.3,0,.4,0,0,0,0,0,0,.3v14.7c0,1.7,1.4,3.2,3.2,3.2h12.5c1.7,0,3.2-1.4,3.2-3.2v-14.7c0-.2,0-.2,0-.2,0,0,.1,0,.3,0h14.6c1.7,0,3.2-1.4,3.2-3.2v-12.5c0-1.7-1.4-3.2-3.2-3.2h-14.7c-.2,0-.3,0-.3,0,0,0,0,0,0-.3v-14.7c0-1.7-1.4-3.2-3.2-3.2h-12.5ZM134.5,145.7h12.5c1.2,0,2.1.9,2.1,2.1v14.7c0,.4.1.8.4,1,.3.3.7.4,1,.4h14.7c1.2,0,2.1.9,2.1,2.1v12.5c0,1.2-.9,2.1-2.1,2.1h-14.6c-.4,0-.8.1-1.1.4-.3.3-.4.6-.4,1v14.7c0,1.2-.9,2.1-2.1,2.1h-12.5c-1.2,0-2.1-.9-2.1-2.1v-14.7c0-.4-.1-.8-.4-1.1-.3-.3-.7-.4-1.1-.4h-14.6c-1.2,0-2.1-.9-2.1-2.1v-12.5c0-1.2.9-2.1,2.1-2.1h14.7c.5,0,.9,0,1.2-.4.3-.3.3-.7.3-1v-14.7c0-1.2.9-2.1,2.1-2.1h0Z"/>
  <path id="path13" class="st3" d="M133.3,143.1c-1.7,0-3.2,1.4-3.2,3.2v14.7c0,.3,0,.4,0,.3,0,0,0,0-.4,0h-14.7c-1.7,0-3.2,1.4-3.2,3.2v15.4c0,1.7,1.4,3.2,3.2,3.2h14.6c.3,0,.3,0,.4,0,0,0,0,0,0,.3v14.7c0,1.7,1.4,3.1,3.2,3.1h14.8c1.7,0,3.2-1.4,3.2-3.1v-14.7c0-.2,0-.2,0-.2,0,0,.1,0,.3,0h14.6c1.7,0,3.2-1.4,3.2-3.2v-15.4c0-1.7-1.4-3.2-3.2-3.2h-14.7c-.2,0-.3,0-.3,0,0,0,0,0,0-.3v-14.7c0-1.7-1.4-3.2-3.2-3.2h-14.8ZM133.3,144.2h14.8c1.2,0,2.1.9,2.1,2.1v14.7c0,.4.1.8.4,1,.3.3.7.4,1,.4h14.7c1.2,0,2.1.9,2.1,2.1v15.4c0,1.2-.9,2.1-2.1,2.1h-14.6c-.4,0-.8.1-1.1.4-.3.3-.4.6-.4,1v14.7c0,1.2-.9,2.1-2.1,2.1h-14.8c-1.2,0-2.1-.9-2.1-2.1v-14.7c0-.4-.1-.8-.4-1.1s-.7-.3-1.1-.3h-14.6c-1.2,0-2.1-.9-2.1-2.1v-15.4c0-1.2.9-2.1,2.1-2.1h14.7c.5,0,.9,0,1.2-.4.3-.3.3-.7.3-1v-14.7c0-1.2.9-2.1,2.1-2.1h0Z"/>
  <path id="circle15" class="st0" d="M140.7,165.1c-3.9,0-7.1,3.2-7.1,7.1s3.2,7.1,7.1,7.1,7.1-3.2,7.1-7.1-3.2-7.1-7.1-7.1ZM140.7,166.2c3.3,0,6,2.7,6,6s-2.7,6-6,6-6-2.7-6-6c0-3.3,2.7-6,6-6Z"/>
  <path id="path17" class="st0" d="M140.7,146.9c-.8,0-1.5.4-1.8,1.1h0s0,0,0,0l-4.1,8.5c-.1.3-.2.6-.2.9,0,1.2,1,2.1,2.1,2.1h8.1c1.2,0,2.1-.9,2.1-2.1s0-.6-.2-.9l-4.1-8.6h0s0,0,0,0c-.4-.6-1-1-1.8-1h0ZM140.7,148c.4,0,.7.2.9.5h0s4.1,8.5,4.1,8.5c0,.1.1.3.1.4,0,.6-.5,1-1,1h-8.1c-.6,0-1-.4-1-1s0-.3.1-.4l4.1-8.5h0c.2-.3.5-.5.9-.5h0Z"/>
  <path id="path19" class="st0" d="M126,166c-.3,0-.6,0-.9.2l-8.6,4.1h0c-.6.4-1,1.1-1,1.8s.4,1.5,1.1,1.8h0s0,0,0,0l8.5,4.1h0c.3.1.6.2.9.2,1.2,0,2.1-.9,2.1-2.1v-8.1c0-1.2-1-2.1-2.1-2.1h0ZM126,167.1c.6,0,1,.5,1,1v8.1c0,.6-.5,1-1,1s-.3,0-.4,0h0l-8.5-4.1s0,0,0,0c-.3-.2-.5-.5-.5-.9s.2-.7.5-.8l8.6-4.1c.1,0,.3-.1.4-.1h0Z"/>
  <path id="path21" class="st0" d="M136.7,184.8c-1.2,0-2.1,1-2.1,2.1s0,.6.2.9l4.1,8.6h0s0,0,0,0c.4.6,1,1,1.8,1s1.5-.4,1.9-1.1h0s0,0,0,0l4.1-8.5h0c.1-.3.2-.6.2-.9,0-1.2-1-2.1-2.1-2.1h-8.1ZM136.7,185.8h8.1c.6,0,1,.5,1,1s0,.3-.1.4l-4.1,8.5s0,0,0,0c-.2.3-.5.5-.9.5s-.7-.2-.8-.5h0s0,0,0,0l-4.1-8.5s0,0,0,0c0-.1-.1-.3-.1-.4,0-.6.5-1,1-1h0Z"/>
  <path id="path23" class="st0" d="M155.4,166c-1.2,0-2.1,1-2.1,2.1v8.1c0,1.2,1,2.1,2.1,2.1s.6,0,.9-.2l8.6-4.1h0c.6-.4,1-1.1,1-1.8s-.4-1.5-1.1-1.8h0s0,0,0,0l-8.5-4.1c-.3-.1-.6-.2-.9-.2h0ZM155.4,167.1c.2,0,.3,0,.4.1,0,0,0,0,0,0l8.5,4.1h0c.3.2.5.5.5.9s-.2.7-.5.9c0,0,0,0,0,0l-8.5,4.1c-.1,0-.3,0-.4,0-.6,0-1-.4-1-1v-8.1c0-.6.5-1,1-1h0Z"/>
  <rect class="st2" x="211.3" y="78.2" width="172.9" height="137.5" rx="4.9" ry="4.9"/>
  <path class="st2" d="M71,221.9h5.9s9.2,0,15.6.4,31.5,4.7,31.5,4.7l42.7,6.6s5.6,1.1,8.5.9h239.4s18.3-1.4,24.2-2.2,29.1-4.6,29.1-4.6l21.7-3.4s9.9-2.1,15.9-2.1,14.4-.3,14.4-.3h7.4"/>
  <circle class="st2" cx="437.1" cy="90.2" r="6.5"/>
  <circle class="st2" cx="437.1" cy="90.2" r="10.5"/>
  <circle class="st2" cx="439.9" cy="147.7" r="11.2"/>
  <circle class="st2" cx="480.3" cy="134.5" r="11.2"/>
  <rect class="st2" x="418.9" y="126.3" width="81.5" height="30" rx="15" ry="15" transform="translate(-21 158.1) rotate(-19.1)"/>
  <circle class="st2" cx="441.9" cy="184.8" r="11.2"/>
  <circle class="st2" cx="482.3" cy="171.6" r="11.2"/>
  <rect class="st2" x="420.8" y="163.5" width="81.5" height="30" rx="15" ry="15" transform="translate(-33 160.8) rotate(-19.1)"/>
</svg>