<?xml version="1.0" encoding="UTF-8"?>
<svg xmlns="http://www.w3.org/2000/svg" version="1.1" xmlns:cc="http://creativecommons.org/ns#" xmlns:dc="http://purl.org/dc/elements/1.1/" xmlns:inkscape="http://www.inkscape.org/namespaces/inkscape" xmlns:ns="&amp;#38;ns_sfw;" xmlns:rdf="http://www.w3.org/1999/02/22-rdf-syntax-ns#" xmlns:sodipodi="http://sodipodi.sourceforge.net/DTD/sodipodi-0.dtd" xmlns:svg="http://www.w3.org/2000/svg" viewBox="0 0 598.2 350.3">
  <!-- Generator: Adobe Illustrator 29.1.0, SVG Export Plug-In . SVG Version: 2.1.0 Build 142)  -->
  <defs>
    <style>
      .st0 {
        fill: #f4f4f4;
      }
    </style>
  </defs>
  <g id="Layer_3" inkscape:version="1.0 (4035a4fb49, 2020-05-01)">
    <g>
      <path class="st0" d="M201.4,119.5c0-13.1-10.8-23.8-23.9-23.8s-23.9,10.7-23.9,23.9,10.7,23.9,23.9,23.9,23.9-10.7,23.9-23.8c0,0,0,0,0-.1,0,0,0,0,0-.1,0,0,0,0,0,0ZM177.5,142.1c-12.4,0-22.4-10-22.4-22.4s10-22.4,22.4-22.4,22.4,10,22.4,22.4-10,22.4-22.4,22.4Z"/>
      <path class="st0" d="M211.4,121.2c0-.3-.1-.6-.2-1-.2-.8-.5-1.7-.8-2.9-.7-2.3-1.6-5.1-2.6-8-1-2.9-2-5.7-2.8-7.9-.4-1.1-.8-2-1.1-2.8-.2-.4-.3-.7-.4-.9-.1-.2-.2-.4-.4-.6-.2-.2-.3-.3-.6-.4-.2-.1-.5-.3-.8-.5-.7-.4-1.6-.9-2.6-1.4-2.1-1.1-4.8-2.5-7.5-3.8-2.7-1.3-5.4-2.6-7.6-3.6-1.1-.5-2-.9-2.7-1.2-.4-.1-.7-.3-.9-.3-.3,0-.4-.2-.7-.2h0c-.3,0-.4,0-.7,0-.3,0-.6.1-1,.2-.8.2-1.7.5-2.9.8-2.3.7-5.1,1.6-8,2.6-2.9,1-5.7,2-7.9,2.8-1.1.4-2,.8-2.8,1.1-.4.2-.7.3-.9.4-.2.1-.4.2-.6.4-.2.2-.3.3-.4.6-.1.2-.3.5-.5.8-.4.7-.9,1.6-1.4,2.6-1.1,2.1-2.5,4.8-3.8,7.5-1.3,2.7-2.6,5.4-3.6,7.6-.5,1.1-.9,2-1.2,2.7s-.3.7-.3.9c0,.3-.2.4-.2.7,0,.3,0,.4,0,.7s.1.6.2,1c.2.8.5,1.7.8,2.9.7,2.3,1.6,5.1,2.6,8s2,5.7,2.8,7.9c.4,1.1.8,2,1.1,2.8.2.4.3.7.4.9s.2.4.4.6c.2.2.3.3.6.4s.5.3.8.5c.7.4,1.6.9,2.6,1.4,2.1,1.1,4.8,2.5,7.5,3.8,2.7,1.3,5.4,2.6,7.6,3.6,1.1.5,2,.9,2.7,1.2s.7.3.9.3.4.2.7.2c.3,0,.4,0,.7,0,.3,0,.6-.1,1-.2.8-.2,1.7-.5,2.9-.8,2.3-.7,5.1-1.6,8-2.6,2.9-1,5.7-2,7.9-2.8,1.1-.4,2-.8,2.8-1.1.4-.2.7-.3.9-.4.2-.1.4-.2.6-.4.2-.2.3-.3.4-.6.1-.2.3-.5.5-.8.4-.7.9-1.6,1.4-2.6,1.1-2.1,2.5-4.8,3.8-7.5,1.3-2.7,2.6-5.4,3.6-7.6.5-1.1.9-2,1.2-2.7.1-.4.3-.7.3-.9,0-.3.2-.4.2-.7,0-.3,0-.4,0-.7ZM209.5,122.9c-.3.7-.7,1.6-1.2,2.7-1,2.1-2.3,4.8-3.6,7.5s-2.7,5.4-3.8,7.4c-.5,1-1,1.9-1.4,2.6-.2.3-.3.6-.5.8,0,.1-.2.2-.2.3,0,0-.1,0-.3.2-.2,0-.5.2-.8.4-.7.3-1.6.7-2.7,1.1-2.2.8-5,1.8-7.9,2.8s-5.7,1.9-7.9,2.6c-1.1.3-2.1.6-2.8.8-.4,0-.7.2-.9.2-.1,0-.3,0-.3,0,0,0-.2,0-.3,0-.2,0-.5-.2-.8-.3-.7-.3-1.6-.7-2.7-1.2-2.1-1-4.8-2.3-7.5-3.6-2.7-1.3-5.4-2.7-7.4-3.8-1-.5-1.9-1-2.6-1.4-.3-.2-.6-.3-.8-.5-.1,0-.2-.2-.3-.2,0,0,0-.1-.2-.3,0-.2-.2-.5-.4-.8-.3-.7-.7-1.6-1.1-2.7-.8-2.2-1.8-5-2.8-7.9-1-2.8-1.9-5.7-2.6-7.9-.3-1.1-.6-2.1-.8-2.8,0-.4-.2-.7-.2-.9,0-.1,0-.3,0-.3,0,0,0-.2,0-.3,0-.2.2-.5.3-.8.3-.7.7-1.6,1.2-2.7,1-2.1,2.3-4.8,3.6-7.5,1.3-2.7,2.7-5.4,3.8-7.4.5-1,1-1.9,1.4-2.6.2-.3.3-.6.5-.8,0-.1.2-.2.2-.3,0,0,.1,0,.3-.2.2,0,.5-.2.8-.4.7-.3,1.6-.7,2.7-1.1,2.2-.8,5-1.8,7.9-2.8,2.8-1,5.7-1.9,7.9-2.6,1.1-.3,2.1-.6,2.8-.8.4,0,.7-.2.9-.2.1,0,.3,0,.3,0,0,0,.2,0,.3,0,.2,0,.5.2.8.3.7.3,1.6.7,2.7,1.2,2.1,1,4.8,2.3,7.5,3.6,2.7,1.3,5.4,2.7,7.4,3.8,1,.5,1.9,1,2.6,1.4.3.2.6.3.8.5.1,0,.2.2.3.2,0,0,0,.1.2.3,0,.2.2.5.4.8.3.7.7,1.6,1.1,2.7.8,2.2,1.8,5,2.8,7.9,1,2.8,1.9,5.7,2.6,7.9.3,1.1.6,2.1.8,2.8,0,.4.2.7.2.9,0,.1,0,.3,0,.3,0,0,0,.2,0,.3,0,.2-.2.5-.3.8Z"/>
      <path class="st0" d="M224.3,119.8s0,0,0-.1c0,0,0,0,0-.1,0,0,0,0,0,0,0-25.8-21-46.7-46.9-46.7s-46.9,21-46.9,46.9,21,46.9,46.9,46.9,46.8-20.9,46.9-46.7ZM177.5,165.1c-25.1,0-45.4-20.3-45.4-45.4s20.3-45.4,45.4-45.4,45.4,20.3,45.4,45.4-20.3,45.4-45.4,45.4Z"/>
      <path class="st0" d="M201.3,206c0,18.6,15.1,33.7,33.7,33.7s33.6-15,33.7-33.6h0c0,0,0-.1,0-.2,0,0,0,0,0-.1,0,0,0,0,0,0,0-18.5-15.1-33.6-33.7-33.6s-33.7,15.1-33.7,33.7ZM267.2,206c0,17.8-14.4,32.2-32.2,32.2s-32.2-14.4-32.2-32.2,14.4-32.2,32.2-32.2,32.2,14.4,32.2,32.2Z"/>
      <path class="st0" d="M226.3,183.4v12.9c0,.7-.1.9,0,.9,0,0-.2,0-.9,0h-12.8c-1.9,0-3.5,1.6-3.5,3.5v10.5c0,1.9,1.6,3.5,3.5,3.5h12.9c.7,0,.9.1.9.1s.1.2.1.7v13c0,1.9,1.6,3.5,3.5,3.5h10.5c1.9,0,3.5-1.6,3.5-3.5v-13c0-.5,0-.7.1-.7,0,0,.2-.1.8-.1h13c1.9,0,3.5-1.6,3.5-3.5v-10.5c0-1.9-1.6-3.5-3.5-3.5h-13c-.4,0-.6,0-.7,0,0,0,0,0-.1,0,0,0,0-.2,0-.9v-12.9c0-1.9-1.6-3.5-3.5-3.5h-10.5c-1.9,0-3.5,1.6-3.5,3.5ZM242.3,183.4v12.9c0,.8,0,1.4.5,2,.3.3.6.4.9.5s.6,0,1,0h13c1.1,0,2,.9,2,2v10.5c0,1.1-.9,2-2,2h-13c-.7,0-1.4,0-1.9.6-.5.5-.5,1.1-.5,1.8v13c0,1.1-.9,2-2,2h-10.5c-1.1,0-2-.9-2-2v-13c0-.7,0-1.3-.6-1.8-.5-.5-1.2-.6-2-.6h-12.9c-1.1,0-2-.9-2-2v-10.5c0-1.1.9-2,2-2h12.8c.8,0,1.5,0,2-.6.5-.5.5-1.2.5-2v-12.9c0-1.1.9-2,2-2h10.5c1.1,0,2,.9,2,2Z"/>
      <path class="st0" d="M235.1,199.7h0c-3.5,0-6.3,2.8-6.3,6.3s2.8,6.3,6.3,6.3,6.1-2.7,6.3-6c0,0,0-.2,0-.3,0,0,0-.2,0-.3,0,0,0,0,0,0-.2-3.3-2.9-6-6.3-6ZM235.1,210.8c-2.7,0-4.8-2.1-4.8-4.8s2.2-4.8,4.8-4.8,4.8,2.1,4.8,4.8-2.1,4.8-4.8,4.8Z"/>
      <path class="st0" d="M248.1,201.4v9.7l9.8-5-9.8-4.6ZM249.6,203.7l4.9,2.3-4.9,2.5v-4.8Z"/>
      <path class="st0" d="M222,211v-9.7l-9.8,5,9.8,4.6ZM220.5,208.6l-4.9-2.3,4.9-2.5v4.8Z"/>
      <path class="st0" d="M239.9,193.2l-5-9.8-4.6,9.8h9.7ZM234.9,186.8l2.5,4.9h-4.8l2.3-4.9Z"/>
      <path class="st0" d="M230.2,219.2l5,9.8,4.6-9.8h-9.7ZM235.2,225.6l-2.5-4.9h4.8l-2.3,4.9Z"/>
      <path class="st0" d="M420.7,95.8c-13.2,0-23.8,10.6-23.9,23.8,0,0,0,0,0,0,0,0,0,0,0,.1,0,0,0,.1,0,.2h0c0,13.1,10.8,23.8,23.9,23.8s23.9-10.7,23.9-23.9-10.7-23.9-23.9-23.9ZM420.7,142.1c-12.4,0-22.4-10-22.4-22.4s10-22.4,22.4-22.4,22.4,10,22.4,22.4-10,22.4-22.4,22.4Z"/>
      <path class="st0" d="M465.8,132.6c2.7-.7,5-2.5,6.4-4.9,1-1.7,1.2-3.6,1.5-5.4,2.6-15.2-3.2-25.4-11.4-31.3-1.7-1.3-3.9-1.9-6.1-1.9h0s0,0,0,0c-7.1-8.2-17-13.9-28.2-15.7-.8-2.5-2.5-4.6-4.8-5.9-1.7-1-3.6-1.2-5.4-1.5-1.9-.3-3.7-.5-5.5-.6h0c-12.2-.4-20.6,5-25.8,12.2-1.2,1.7-1.8,3.9-1.8,6.1,0,0,0,0,0,0,0,1.6.4,3.2,1.1,4.6-7.4,8.3-12,19.2-12,31.2,0,0,0,0,0,0,0,0,0,0,0,.1,0,0,0,.1,0,.2h0c0,2.3.2,4.6.6,6.9-.1,0-.3,0-.4,0h0c-8.7,0-15.7,7-15.7,15.7s7,15.7,15.7,15.7,9.7-2.5,12.6-6.4c8.6,9.1,20.7,14.8,34.2,14.8,21.4,0,39.5-14.4,45.1-34ZM472.3,122c-.3,1.9-.5,3.6-1.3,4.9-1.6,2.7-4.6,4.5-8,4.5-4.8,0-8.7-3.6-9.2-8.3,0-.3,0-.6,0-1h0c0-5.1.1-7.2-.5-9.3-.7-2.1-2-3.9-4.7-8.7-1-1.7-1.4-3.3-1.4-4.4,0-5.1,4.1-9.3,9.3-9.3h0c2,0,3.8.5,5.2,1.6,7.8,5.7,13.3,15.1,10.8,29.9ZM387.8,78.6c4.9-6.9,12.7-12,24.5-11.6,1.7,0,3.4.2,5.3.5,1.9.3,3.6.5,4.9,1.3,2.7,1.6,4.6,4.5,4.6,7.9,0,4.8-3.6,8.8-8.2,9.3-.3,0-.6,0-1,0-5.1,0-7.2,0-9.3.6-2.1.7-3.9,2-8.6,4.8-1.7,1-3.2,1.5-4.4,1.5-5.1,0-9.3-4.1-9.4-9.2,0-2,.5-3.8,1.5-5.2ZM374,156.6c-7.8,0-14.2-6.3-14.2-14.2s6.3-14.2,14.2-14.2,14.2,6.3,14.2,14.2-6.3,14.2-14.2,14.2ZM420.7,165.1c-13.2,0-25-5.6-33.3-14.6,1.4-2.3,2.2-5,2.2-7.9,0,0,0-.1,0-.2,0,0,0,0,0-.1,0,0,0,0,0,0,0-7.9-6-14.4-13.7-15.4-.4-2.3-.6-4.7-.6-7.2,0-11.5,4.3-22,11.3-29.9,2,2.9,5.3,4.8,9,4.7,1.5,0,3.3-.6,5.1-1.7,4.7-2.8,6.6-4.1,8.3-4.7,1.8-.6,3.7-.5,8.8-.6h0c.4,0,.8,0,1.1,0,5.4-.6,9.6-5.3,9.6-10.8,0-.6,0-1.2-.2-1.7,10.2,1.7,19.3,6.9,26,14.3-5,.9-8.9,5.3-8.9,10.6s.6,3.3,1.6,5.1c2.7,4.8,4,6.6,4.6,8.4s.5,3.7.5,8.8h0c0,.4,0,.8,0,1.1.6,5.4,5.2,9.7,10.7,9.7s.8,0,1.2,0c-5.6,18.6-22.9,32.2-43.4,32.2Z"/>
      <path class="st0" d="M493.2,152.7c-1-11.6-2.3-21.7-3.9-30.5,0-.8,0-1.7,0-2.5,0-25-13.3-46.8-33.3-58.8-1.3-2.5-2.6-4.2-4-5.5-5.2-8.1-13.4-12.4-19.4-14.6-3.7-1.4-8.8-2.3-13.8-2.2-1.9,0-3.8.2-5.7.6-4.8-1.3-8.8-2.1-12-2.3-3.9-.2-6.8.4-8.5,2.1h0c-3-.7-6.1-1.4-9.2-2.2-30.6-7.4-64.3-13.4-84.6-13.4v1.5c20,0,53.7,6,84.3,13.4s29.8,7.7,41.7,11.5c2.6.8,5,1.6,7.3,2.4-3.7-.6-7.6-1-11.5-1h0c-37.9,0-68.6,30.7-68.6,68.6h0c.4,14.7-2,24.9-5.4,32.3-19.3-4.3-37-4.9-47.6-4.9s-28.3.6-47.6,4.9c-3.4-7.4-5.8-17.6-5.4-32.2h0c0-37.9-30.7-68.7-68.6-68.7-3.8,0-7.5.3-11.1.9,2.2-.7,4.5-1.5,6.9-2.3,11.8-3.8,26.4-7.8,41.6-11.5,30.5-7.4,64.1-13.4,84.1-13.4v-1.5c-20.3,0-54,6-84.5,13.4-7.6,1.8-15.1,3.8-22.1,5.7-3.3-2.8-8.1-3.9-13.1-4h0c-5,0-10.1.9-13.8,2.2-7.1,2.6-17.2,8.2-21.9,19.3-20.7,11.8-34.8,34.1-34.8,59.7,0,.8,0,1.7,0,2.5-1.6,8.8-3,18.9-3.9,30.5-5.7,67.9-8.9,100.3-2.1,132.4,3.6,16.9,8.3,27.6,13.6,34,5.3,6.4,11.2,8.4,16.8,7.6,5.6-.8,10.7-4.3,14.9-8.7,4.1-4.4,7.2-9.6,8.6-14.1,1.4-4.5,2.8-13.2,4.7-24.3,1.9-11.1,4.3-24.5,7.5-38.1,2.9-12,6.5-24.1,11-35,2.5,4.2,4.8,9.2,6.8,15.6h0s0,0,0,0c6.5,19.8,25.1,34.2,47.1,34.2,27.4,0,49.5-22.2,49.5-49.5,0-13.6-5.5-25.9-14.3-34.8h0s0,0,0,0c-4.2-3.6-10-7.6-14.8-15.3-.7-1-1.3-2.2-1.9-3.3,19-4.2,36.4-4.8,46.9-4.8s27.9.6,46.9,4.8c-.6,1.2-1.2,2.3-1.9,3.4-4.8,7.6-10.6,11.7-14.8,15.3h0s0,0,0,0c-8.9,8.9-14.3,21.3-14.3,34.8,0,27.4,22.2,49.5,49.5,49.5,22,0,40.6-14.3,47.1-34.2h0s0,0,0,0c1.9-6.4,4.2-11.5,6.8-15.6,4.5,10.8,8.1,23,11,35,3.3,13.6,5.6,27,7.5,38.1,1.9,11.1,3.3,19.8,4.7,24.3,1.4,4.5,4.5,9.7,8.6,14.1,4.1,4.4,9.3,7.9,14.9,8.7,5.6.8,11.5-1.2,16.8-7.6,5.3-6.4,10-17.2,13.6-34,6.8-32.2,3.5-64.6-2.1-132.4ZM166,42.1c3.5-1.3,8.4-2.2,13.2-2.1,4.3,0,8.4,1,11.3,3-6.4,1.8-12.4,3.6-17.8,5.3-9.3,3-16.9,5.8-22,8.2-1.7.7-3.3,1.5-5,2.4,4.8-9.4,13.7-14.3,20.2-16.7ZM167.4,241.2c-3.3,13.7-5.7,27.1-7.6,38.2s-3.3,19.9-4.6,24.1c-1.3,4.2-4.3,9.3-8.3,13.5-4,4.2-8.9,7.5-14,8.3-5.1.7-10.4-1-15.4-7.1-5-6.1-9.7-16.7-13.2-33.4-6.7-31.9-3.5-64.1,2.1-132,.8-9.1,1.8-17.3,2.9-24.6,2,16.4,9.8,31,21.3,41.7,0,0,0,0,0,0,10.8,11,22,14.7,31.8,20.4,6,3.5,11.6,7.6,16.2,14.7-4.7,11.2-8.5,23.8-11.4,36.2ZM267.8,173.1c8.6,8.7,13.9,20.6,13.9,33.8,0,26.5-21.5,48-48,48-21.3,0-39.4-13.9-45.7-33.1-5.8-19-14.7-27-24.7-32.7-10-5.8-21-9.4-31.5-20.1h0s0,0,0,0c-13.2-12.3-21.4-29.7-21.4-49.2,0-25.2,13.8-47.1,34.3-58.6h0s0,0,0,0c9.7-5.4,20.8-8.5,32.7-8.5,37.1,0,67.1,30,67.1,67.1-.5,18.3,3.3,29.9,8.2,37.8,4.9,7.9,11,12.1,15.1,15.6ZM418.9,40c4.8,0,9.8.9,13.2,2.1,4.8,1.8,11,4.9,15.8,10.3-1.9-1-6.2-3-11.7-5.3-5.9-2.4-12.9-5.1-19.4-7,.7,0,1.4,0,2.1-.1ZM425.4,48.3c-9.1-2.9-19.7-5.9-31-8.8,1.4-.9,3.5-1.4,6.7-1.2,3.7.2,8.8,1.3,15.2,3.2,6.4,1.9,13.5,4.6,19.3,7s10.5,4.6,11.9,5.4c2.3,1.4,4.2,2.7,6,5.5-2-1.1-4.1-2.1-6.2-3-5.1-2.4-12.7-5.2-22-8.2ZM410.2,221.8c-6.3,19.2-24.3,33.1-45.7,33.1-26.5,0-48-21.5-48-48,0-13.2,5.3-25.1,13.9-33.8,4.1-3.5,10.1-7.7,15.1-15.6,4.9-7.9,8.7-19.5,8.2-37.8,0-37.1,30.1-67.1,67.1-67.1,12.5,0,24.2,3.4,34.2,9.4,0,0,0,0,0,0h0c3.5,2.1,6.8,4.5,9.9,7.1l7.8,8.3c-.5-.7-.9-1.3-1.4-1.9,10.4,11.8,16.6,27.3,16.6,44.2,0,.7,0,1.4,0,2.1h-.1c0,.2,0,.4.1.6-.7,18.4-8.8,34.8-21.4,46.5h0s0,0,0,0c-10.5,10.7-21.5,14.4-31.5,20.1-10,5.8-18.9,13.7-24.7,32.7ZM493.9,284.8c-3.5,16.7-8.2,27.3-13.2,33.4-5,6.1-10.3,7.8-15.4,7.1-5.1-.7-10-4-14-8.3-4-4.2-7-9.3-8.3-13.5-1.3-4.2-2.7-13-4.6-24.1s-4.3-24.5-7.6-38.2c-3-12.4-6.7-25-11.4-36.2,4.7-7,10.2-11.2,16.2-14.7,9.8-5.7,21.1-9.4,31.8-20.4,11.5-10.7,19.3-25.3,21.3-41.7,1.2,7.3,2.2,15.5,2.9,24.6,5.7,67.9,8.8,100.1,2.1,132Z"/>
      <path class="st0" d="M395.3,204.4c-.2-.7-.6-1.6-1-2.7-.8-2.1-1.9-4.8-3-7.4-1.1-2.7-2.2-5.3-3.2-7.4-.5-1-.9-1.9-1.2-2.6-.2-.3-.3-.6-.4-.8-.1-.2-.2-.4-.4-.6-.2-.2-.3-.3-.6-.4s-.5-.3-.8-.4c-.7-.3-1.5-.7-2.6-1.2-2.1-.9-4.7-2.1-7.4-3.2-2.7-1.1-5.3-2.2-7.4-3-1.1-.4-2-.7-2.7-1-.4-.1-.7-.2-.9-.3-.3,0-.4-.1-.7-.1s-.4,0-.7.1c-.3,0-.5.2-.9.3-.7.2-1.6.6-2.7,1-2.1.8-4.8,1.9-7.4,3-2.7,1.1-5.3,2.2-7.4,3.2-1,.5-1.9.9-2.6,1.2-.3.2-.6.3-.8.4s-.4.2-.6.4c-.2.2-.3.3-.4.6-.1.2-.3.5-.4.8-.3.7-.7,1.5-1.2,2.6-.9,2.1-2.1,4.7-3.2,7.4-1.1,2.7-2.2,5.3-3,7.4-.4,1.1-.7,2-1,2.7-.1.4-.2.7-.3.9,0,.3-.1.4-.1.7s0,.4.1.7.2.6.3.9c.2.7.6,1.6,1,2.7.8,2.1,1.9,4.8,3,7.4,1.1,2.7,2.2,5.3,3.2,7.4.5,1,.9,1.9,1.2,2.6.2.3.3.6.4.8.1.2.2.4.4.6.2.2.3.3.6.4.2.1.5.3.8.4.7.3,1.5.7,2.6,1.2,2.1.9,4.7,2.1,7.4,3.2,2.7,1.1,5.3,2.2,7.4,3,1.1.4,2,.7,2.7,1,.4.1.7.2.9.3.3,0,.4.1.7.1s.4,0,.7-.1c.3,0,.6-.2.9-.3.7-.2,1.6-.6,2.7-1,2.1-.8,4.8-1.9,7.4-3,2.7-1.1,5.3-2.2,7.4-3.2,1-.5,1.9-.9,2.6-1.2.3-.2.6-.3.8-.4.2-.1.4-.2.6-.4s.3-.3.4-.6c.1-.2.3-.5.4-.8.3-.7.7-1.5,1.2-2.6.9-2.1,2.1-4.7,3.2-7.4,1.1-2.7,2.2-5.3,3-7.4.4-1.1.7-2,1-2.7.1-.4.2-.7.3-.9,0-.3.1-.4.1-.7s0-.4-.1-.7c0-.3-.2-.6-.3-.9ZM393.9,207.1c-.2.7-.5,1.6-.9,2.6-.8,2.1-1.9,4.8-3,7.4-1.1,2.7-2.2,5.3-3.1,7.3-.5,1-.9,1.9-1.2,2.5-.2.3-.3.6-.4.8,0,.1-.1.2-.2.2,0,0-.1,0-.2.2-.2.1-.4.2-.8.4-.6.3-1.5.7-2.5,1.2-2,.9-4.7,2-7.3,3.1-2.7,1.1-5.3,2.2-7.4,3-1,.4-1.9.7-2.6.9-.3.1-.6.2-.8.3-.1,0-.2,0-.3,0,0,0-.2,0-.3,0-.2,0-.5-.1-.8-.3-.7-.2-1.6-.5-2.6-.9-2.1-.8-4.8-1.9-7.4-3-2.7-1.1-5.3-2.2-7.3-3.1-1-.5-1.9-.9-2.5-1.2-.3-.2-.6-.3-.8-.4-.1,0-.2-.1-.2-.2,0,0,0-.1-.2-.2-.1-.2-.2-.4-.4-.8-.3-.6-.7-1.5-1.2-2.5-.9-2-2-4.7-3.1-7.3-1.1-2.7-2.2-5.3-3-7.4-.4-1-.7-1.9-.9-2.6-.1-.3-.2-.6-.3-.8,0-.1,0-.2,0-.3,0,0,0-.2,0-.3,0-.2.1-.5.3-.8.2-.7.5-1.6.9-2.6.8-2.1,1.9-4.8,3-7.4,1.1-2.7,2.2-5.3,3.1-7.3.5-1,.9-1.9,1.2-2.5.2-.3.3-.6.4-.8,0-.1.1-.2.2-.2,0,0,.1,0,.2-.2.2-.1.4-.2.8-.4.6-.3,1.5-.7,2.5-1.2,2-.9,4.7-2,7.3-3.1,2.7-1.1,5.3-2.2,7.4-3,1-.4,1.9-.7,2.6-.9.3-.1.6-.2.8-.3.1,0,.2,0,.3,0,0,0,.2,0,.3,0,.2,0,.5.1.8.3.7.2,1.6.5,2.6.9,2.1.8,4.8,1.9,7.4,3,2.7,1.1,5.3,2.2,7.3,3.1,1,.5,1.9.9,2.5,1.2.3.2.6.3.8.4.1,0,.2.1.2.2,0,0,0,.1.2.2.1.2.2.4.4.8.3.6.7,1.5,1.2,2.5.9,2,2,4.7,3.1,7.3,1.1,2.7,2.2,5.3,3,7.4.4,1,.7,1.9.9,2.6s.2.6.3.8c0,.1,0,.2,0,.3,0,0,0,.2,0,.3,0,.2-.1.5-.3.8Z"/>
      <path class="st0" d="M381.3,205.8c0-9.9-8.2-18-18.1-18h0c-10,0-18.1,8.1-18.1,18.1s8.1,18.1,18.1,18.1,18-8.1,18.1-18c0,0,0,0,0-.1,0,0,0,0,0-.1,0,0,0,0,0,0ZM363.2,222.6c-9.2,0-16.6-7.4-16.6-16.6s7.4-16.6,16.6-16.6,16.6,7.4,16.6,16.6-7.4,16.6-16.6,16.6Z"/>
      <path class="st0" d="M298,113.5c-5.9,0-10.6,4.8-10.6,10.7s4.8,10.6,10.6,10.6,10.4-4.6,10.6-10.4c0,0,0,0,0,0,0,0,0-.2,0-.3,0,0,0-.2,0-.3h0c-.2-5.7-4.8-10.4-10.6-10.4h0ZM307.2,124.1c0,5.1-4.1,9.1-9.2,9.1s-9.1-4.1-9.1-9.1,4.1-9.2,9.1-9.2,9.2,4.1,9.2,9.2Z"/>
    </g>
  </g>
</svg>