<?xml version="1.0" encoding="UTF-8"?>
<svg id="Layer_2" xmlns="http://www.w3.org/2000/svg" version="1.1" viewBox="0 0 598.2 350.3">
  <!-- Generator: Adobe Illustrator 29.0.1, SVG Export Plug-In . SVG Version: 2.1.0 Build 192)  -->
  <defs>
    <style>
      .st0 {
        fill: #f4f4f4;
      }
    </style>
  </defs>
  <path class="st0" d="M360.1,222.8h-120.6v-126.6h120.6v126.6ZM241.5,220.8h116.6v-122.6h-116.6v122.6Z"/>
  <path class="st0" d="M390.1,258.4h-180.7c-12.1,0-22-9.9-22-22V76.1c0-12.1,9.9-22,22-22h180.7c12.1,0,22,9.9,22,22v160.3c0,12.1-9.9,22-22,22ZM209.4,56.1c-11,0-20,9-20,20v160.3c0,11,9,20,20,20h180.7c11,0,20-9,20-20V76.1c0-11-9-20-20-20h-180.7Z"/>
  <path class="st0" d="M460.4,270.8c-9.3,0-16.9-7.6-16.9-16.9s7.6-16.9,16.9-16.9,16.9,7.6,16.9,16.9-7.6,16.9-16.9,16.9ZM460.4,238.9c-8.2,0-14.9,6.7-14.9,14.9s6.7,14.9,14.9,14.9,14.9-6.7,14.9-14.9-6.7-14.9-14.9-14.9Z"/>
  <path class="st0" d="M507.5,243.5c-9.3,0-16.9-7.6-16.9-16.9s7.6-16.9,16.9-16.9,16.9,7.6,16.9,16.9-7.6,16.9-16.9,16.9ZM507.5,211.7c-8.2,0-14.9,6.7-14.9,14.9s6.7,14.9,14.9,14.9,14.9-6.7,14.9-14.9-6.7-14.9-14.9-14.9Z"/>
  <path class="st0" d="M465,161.2c-1.4,0-2.7-.4-3.9-1.3-1.4-1-2.3-2.6-2.5-4.3-.2-1.7.2-3.4,1.2-4.8,1-1.4,2.6-2.3,4.3-2.5,3.5-.5,6.8,2,7.3,5.5h0c.5,3.5-2,6.8-5.5,7.3-.3,0-.6,0-.9,0ZM465,150.2c-.2,0-.4,0-.6,0-1.2.2-2.2.8-2.9,1.7-.7,1-1,2.1-.9,3.3.2,1.2.8,2.2,1.7,2.9s2.1,1,3.3.9c2.4-.3,4.1-2.6,3.8-5.1-.3-2.2-2.2-3.8-4.4-3.8Z"/>
  <g>
    <path class="st0" d="M86,112.1c-1.9,0-3.6-1.4-3.8-3.3-.1-1,.1-2,.7-2.9.6-.8,1.5-1.4,2.6-1.5,1-.1,2,.1,2.9.7.8.6,1.4,1.5,1.5,2.6.3,2.1-1.2,4.1-3.3,4.4-.2,0-.4,0-.5,0ZM86,106.3c0,0-.2,0-.3,0-.5,0-.9.3-1.2.7-.3.4-.4.9-.4,1.4.1,1,1.1,1.7,2.1,1.6,1-.1,1.7-1.1,1.6-2.1h0c0-.5-.3-.9-.7-1.2-.3-.2-.7-.4-1.1-.4Z"/>
    <path class="st0" d="M97.2,112.1c-.8,0-1.6-.3-2.3-.8-.8-.6-1.4-1.5-1.5-2.6-.1-1,.1-2,.7-2.9s1.5-1.4,2.6-1.5c1-.1,2,.1,2.9.7.8.6,1.4,1.5,1.5,2.6h0c.3,2.1-1.2,4.1-3.3,4.4-.2,0-.4,0-.6,0ZM97.2,106.3c0,0-.2,0-.3,0-.5,0-.9.3-1.2.7s-.4.9-.4,1.4c0,.5.3.9.7,1.2.4.3.9.4,1.4.4,1-.1,1.7-1.1,1.6-2.1,0-.5-.3-.9-.7-1.2-.3-.2-.7-.4-1.1-.4Z"/>
    <path class="st0" d="M108.4,112.1c-.8,0-1.6-.3-2.3-.8-.8-.6-1.4-1.5-1.5-2.6-.1-1,.1-2,.7-2.9s1.5-1.4,2.6-1.5c2.1-.3,4.1,1.2,4.4,3.3h0c.3,2.1-1.2,4.1-3.3,4.4-.2,0-.4,0-.6,0ZM108.4,106.3c0,0-.2,0-.3,0-.5,0-.9.3-1.2.7s-.4.9-.4,1.4c0,.5.3.9.7,1.2.4.3.9.4,1.4.4,1-.1,1.7-1.1,1.6-2.1-.1-.9-.9-1.6-1.9-1.6Z"/>
    <path class="st0" d="M119.6,112.1c-1.9,0-3.6-1.4-3.8-3.3-.1-1,.1-2,.7-2.9s1.5-1.4,2.6-1.5c2.1-.3,4.1,1.2,4.4,3.3h0c.3,2.1-1.2,4.1-3.3,4.4-.2,0-.4,0-.5,0ZM119.6,106.3c0,0-.2,0-.3,0-.5,0-.9.3-1.2.7s-.4.9-.4,1.4c.1,1,1.1,1.7,2.1,1.6,1-.1,1.7-1.1,1.6-2.1-.1-.9-.9-1.6-1.9-1.6Z"/>
  </g>
  <g>
    <path class="st0" d="M86,122.9c-.8,0-1.6-.3-2.3-.8-.8-.6-1.4-1.5-1.5-2.6-.3-2.1,1.2-4.1,3.3-4.4,1-.1,2,.1,2.9.7.8.6,1.4,1.5,1.5,2.6h0c.1,1-.1,2-.7,2.9s-1.5,1.4-2.6,1.5c-.2,0-.4,0-.6,0ZM86,117.2c0,0-.2,0-.3,0-1,.1-1.7,1.1-1.6,2.1,0,.5.3.9.7,1.2s.9.4,1.4.4c.5,0,.9-.3,1.2-.7s.4-.9.4-1.4h0c0-.5-.3-.9-.7-1.2-.3-.2-.7-.4-1.1-.4Z"/>
    <path class="st0" d="M74.3,122.9c-1.9,0-3.6-1.4-3.8-3.3-.3-2.1,1.2-4.1,3.3-4.4,2.1-.3,4.1,1.2,4.4,3.3h0c.1,1-.1,2-.7,2.9s-1.5,1.4-2.6,1.5c-.2,0-.4,0-.5,0ZM74.3,117.2c0,0-.2,0-.3,0-1,.1-1.7,1.1-1.6,2.1,0,.5.3.9.7,1.2.4.3.9.4,1.4.4.5,0,.9-.3,1.2-.7s.4-.9.4-1.4h0c-.1-.9-.9-1.6-1.9-1.6Z"/>
    <path class="st0" d="M97.2,122.9c-.8,0-1.6-.3-2.3-.8-.8-.6-1.4-1.5-1.5-2.6-.3-2.1,1.2-4.1,3.3-4.4,1-.1,2,.1,2.9.7.8.6,1.4,1.5,1.5,2.6h0c.1,1-.1,2-.7,2.9-.6.8-1.5,1.4-2.6,1.5-.2,0-.4,0-.6,0ZM97.2,117.2c0,0-.2,0-.3,0-1,.1-1.7,1.1-1.6,2.1,0,.5.3.9.7,1.2s.9.4,1.4.4c.5,0,.9-.3,1.2-.7.3-.4.4-.9.4-1.4h0c0-.5-.3-.9-.7-1.2-.3-.2-.7-.4-1.1-.4Z"/>
    <path class="st0" d="M108.4,122.9c-.8,0-1.6-.3-2.3-.8-.8-.6-1.4-1.5-1.5-2.6-.3-2.1,1.2-4.1,3.3-4.4,2.1-.3,4.1,1.2,4.4,3.3h0c.1,1-.1,2-.7,2.9s-1.5,1.4-2.6,1.5c-.2,0-.4,0-.6,0ZM108.4,117.2c0,0-.2,0-.3,0-1,.1-1.7,1.1-1.6,2.1,0,.5.3.9.7,1.2.4.3.9.4,1.4.4.5,0,.9-.3,1.2-.7.3-.4.4-.9.4-1.4h0c-.1-.9-.9-1.6-1.9-1.6Z"/>
    <path class="st0" d="M119.6,122.9c-1.9,0-3.6-1.4-3.8-3.3-.3-2.1,1.2-4.1,3.3-4.4,2.1-.3,4.1,1.2,4.4,3.3h0c.1,1-.1,2-.7,2.9s-1.5,1.4-2.6,1.5c-.2,0-.4,0-.5,0ZM119.6,117.2c0,0-.2,0-.3,0-1,.1-1.7,1.1-1.6,2.1.1,1,1.1,1.7,2.1,1.6.5,0,.9-.3,1.2-.7s.4-.9.4-1.4h0c-.1-.9-.9-1.6-1.9-1.6Z"/>
  </g>
  <g>
    <path class="st0" d="M86,134.8c-.8,0-1.6-.3-2.3-.8-.8-.6-1.4-1.5-1.5-2.6-.3-2.1,1.2-4.1,3.3-4.4,1-.1,2,.1,2.9.7.8.6,1.4,1.5,1.5,2.6h0c.1,1-.1,2-.7,2.9s-1.5,1.4-2.6,1.5c-.2,0-.4,0-.6,0ZM86,129.1c0,0-.2,0-.3,0-1,.1-1.7,1.1-1.6,2.1,0,.5.3.9.7,1.2s.9.4,1.4.4c.5,0,.9-.3,1.2-.7s.4-.9.4-1.4h0c0-.5-.3-.9-.7-1.2-.3-.2-.7-.4-1.1-.4Z"/>
    <path class="st0" d="M74.3,134.8c-1.9,0-3.6-1.4-3.8-3.3-.3-2.1,1.2-4.1,3.3-4.4,2.1-.3,4.1,1.2,4.4,3.3h0c.1,1-.1,2-.7,2.9s-1.5,1.4-2.6,1.5c-.2,0-.4,0-.5,0ZM74.3,129.1c0,0-.2,0-.3,0-1,.1-1.7,1.1-1.6,2.1,0,.5.3.9.7,1.2s.9.4,1.4.4c.5,0,.9-.3,1.2-.7s.4-.9.4-1.4h0c-.1-.9-.9-1.6-1.9-1.6Z"/>
    <path class="st0" d="M97.2,134.8c-.8,0-1.6-.3-2.3-.8-.8-.6-1.4-1.5-1.5-2.6-.3-2.1,1.2-4.1,3.3-4.4,2.1-.3,4.1,1.2,4.4,3.3h0c.1,1-.1,2-.7,2.9-.6.8-1.5,1.4-2.6,1.5-.2,0-.4,0-.6,0ZM97.2,129.1c0,0-.2,0-.3,0-1,.1-1.7,1.1-1.6,2.1,0,.5.3.9.7,1.2s.9.4,1.4.4c.5,0,.9-.3,1.2-.7.3-.4.4-.9.4-1.4h0c-.1-.9-.9-1.6-1.9-1.6Z"/>
    <path class="st0" d="M108.4,134.8c-.8,0-1.6-.3-2.3-.8-.8-.6-1.4-1.5-1.5-2.6-.3-2.1,1.2-4.1,3.3-4.4,2.1-.3,4.1,1.2,4.4,3.3h0c.1,1-.1,2-.7,2.9s-1.5,1.4-2.6,1.5c-.2,0-.4,0-.6,0ZM108.4,129.1c0,0-.2,0-.3,0-1,.1-1.7,1.1-1.6,2.1,0,.5.3.9.7,1.2.4.3.9.4,1.4.4.5,0,.9-.3,1.2-.7.3-.4.4-.9.4-1.4h0c-.1-.9-.9-1.6-1.9-1.6Z"/>
    <path class="st0" d="M119.6,134.8c-1.9,0-3.6-1.4-3.8-3.3-.3-2.1,1.2-4.1,3.3-4.4,2.1-.3,4.1,1.2,4.4,3.3h0c.1,1-.1,2-.7,2.9s-1.5,1.4-2.6,1.5c-.2,0-.4,0-.5,0ZM119.6,129.1c0,0-.2,0-.3,0-1,.1-1.7,1.1-1.6,2.1s1.1,1.7,2.1,1.6c.5,0,.9-.3,1.2-.7s.4-.9.4-1.4h0c-.1-.9-.9-1.6-1.9-1.6Z"/>
    <g id="path11">
      <path class="st0" d="M113.3,215c-1.9-.7-4.1.2-4.9,2.2l-6.3,16.4c-.1.3-.2.4-.1.4,0,0,0,0-.4-.1l-16.4-6.3c-1.9-.7-4.2.2-4.9,2.2l-5.4,14c-.7,1.9.2,4.1,2.2,4.9l16.3,6.3c.3.1.4.2.4.2,0,0,0,0,0,.3l-6.3,16.4c-.7,1.9.2,4.1,2.2,4.9l14,5.4c1.9.7,4.1-.2,4.9-2.2l6.4-16.5c0-.2.1-.2.2-.2,0,0,.2,0,.4,0l16.4,6.3c1.9.7,4.2-.2,4.9-2.2l5.4-14c.7-1.9-.2-4.1-2.2-4.9l-16.4-6.3c-.2,0-.3-.2-.3-.2,0,0,0-.1,0-.3l6.3-16.4c.7-1.9-.2-4.1-2.2-4.9l-14-5.4h0ZM112.8,216.2l14,5.4c1.3.5,1.9,1.9,1.4,3.2l-6.3,16.4c-.2.4-.2.9,0,1.3.2.4.6.7,1,.9l16.4,6.3c1.3.5,1.9,1.9,1.4,3.2l-5.4,14c-.5,1.3-1.9,1.9-3.2,1.4l-16.4-6.3c-.4-.2-.9-.2-1.4,0-.4.2-.7.5-.9.9l-6.4,16.5c-.5,1.3-1.9,1.9-3.2,1.4l-14-5.4c-1.3-.5-1.9-1.9-1.4-3.2l6.3-16.4c.2-.4.2-.9,0-1.4-.2-.4-.6-.7-1.1-.9l-16.3-6.3c-1.3-.5-1.9-1.9-1.4-3.2l5.4-14c.5-1.3,1.9-1.9,3.2-1.4l16.4,6.3c.5.2,1,.3,1.5,0,.5-.2.6-.7.7-1l6.3-16.4c.5-1.3,1.9-1.9,3.2-1.4h0Z"/>
    </g>
    <g id="path13">
      <path class="st0" d="M112.6,212.9c-1.9-.7-4.1.2-4.9,2.2l-6.3,16.4c-.1.3-.2.4-.1.3,0,0,0,0-.4-.1l-16.4-6.3c-1.9-.7-4.2.2-4.9,2.2l-6.6,17.2c-.7,1.9.2,4.2,2.2,4.9l16.3,6.3c.3.1.4.2.4.2,0,0,0,0,0,.3l-6.3,16.4c-.7,1.9.2,4.1,2.2,4.9l16.6,6.4c1.9.7,4.1-.2,4.9-2.2l6.3-16.5c0-.2.1-.2.2-.2,0,0,.1,0,.4,0l16.4,6.3c1.9.7,4.2-.2,4.9-2.2l6.6-17.2c.7-1.9-.2-4.2-2.2-4.9l-16.4-6.3c-.2,0-.3-.1-.3-.2,0,0,0-.1,0-.3l6.3-16.4c.7-1.9-.2-4.1-2.2-4.9l-16.6-6.4h0ZM112.1,214.1l16.6,6.4c1.3.5,1.9,1.9,1.4,3.2l-6.3,16.4c-.2.4-.2.9,0,1.3.2.4.6.7,1,.9l16.4,6.3c1.3.5,1.9,1.9,1.4,3.2l-6.6,17.2c-.5,1.3-1.9,1.9-3.2,1.4l-16.4-6.3c-.4-.2-.9-.2-1.3,0-.4.2-.7.6-.9,1l-6.3,16.5c-.5,1.3-1.9,1.9-3.2,1.4l-16.6-6.4c-1.3-.5-1.9-1.9-1.4-3.2l6.3-16.4c.2-.4.2-.9,0-1.4s-.6-.7-1.1-.8l-16.3-6.3c-1.3-.5-1.9-1.9-1.4-3.2l6.6-17.2c.5-1.3,1.9-1.9,3.2-1.4l16.4,6.3c.5.2,1,.3,1.5,0,.5-.2.6-.6.7-1l6.3-16.4c.5-1.3,1.9-1.9,3.2-1.4h0Z"/>
    </g>
    <g id="circle15">
      <path class="st0" d="M111.4,240.6c-4.4-1.7-9.3.5-11,4.9s.5,9.3,4.9,11,9.3-.5,11-4.9-.5-9.3-4.9-11ZM111,241.8c3.7,1.4,5.6,5.6,4.1,9.3s-5.6,5.5-9.3,4.1-5.6-5.6-4.1-9.3c1.4-3.7,5.6-5.6,9.3-4.1Z"/>
    </g>
    <g id="path17">
      <path class="st0" d="M119.3,220.3c-.9-.3-1.8-.1-2.5.4h0s0,0,0,0l-8.2,7.8c-.3.2-.5.6-.6.9-.5,1.3.2,2.7,1.5,3.2l9,3.5c1.3.5,2.8-.1,3.3-1.4s.2-.7.2-1.1l-.9-11.4h0s0,0,0,0c-.1-.8-.7-1.6-1.6-1.9h0ZM118.8,221.5c.4.2.7.5.8.9h0s.9,11.3.9,11.3c0,.2,0,.4,0,.5-.2.6-.9.9-1.6.7l-9-3.5c-.6-.2-1-.9-.7-1.6s.2-.3.3-.4l8.2-7.8h0c.3-.3.8-.4,1.2-.2h0Z"/>
    </g>
    <g id="path19">
      <path class="st0" d="M94.6,235.3c-.4-.1-.7-.2-1.1-.2l-11.4.9h0s0,0,0,0c-.8.1-1.6.7-1.9,1.6s-.2,1.8.4,2.5h0s0,0,0,0l7.8,8.2h0c.2.3.6.5.9.6,1.3.5,2.8-.1,3.3-1.4l3.5-9c.5-1.3-.2-2.8-1.4-3.3h0ZM94.1,236.5c.6.2,1,1,.7,1.6l-3.5,9c-.2.6-.9.9-1.6.7s-.3-.2-.4-.3h0s-7.7-8.2-7.7-8.2c0,0,0,0,0,0-.3-.3-.3-.8-.2-1.2s.5-.7.9-.7l11.4-.9c.2,0,.4,0,.5,0h0Z"/>
    </g>
    <g id="path21">
      <path class="st0" d="M98.4,260.9c-1.3-.5-2.8.2-3.3,1.4s-.2.7-.2,1.1l.9,11.4h0s0,0,0,0c.1.8.7,1.6,1.6,1.9s1.9.1,2.5-.4h0s0,0,0,0l8.2-7.8h0c.3-.3.5-.6.6-.9.5-1.3-.2-2.8-1.4-3.3l-9-3.5h0ZM98,262.1l9,3.5c.6.2,1,1,.7,1.6s-.2.3-.3.4l-8.2,7.8s0,0,0,0c-.3.3-.8.3-1.2.2s-.7-.5-.7-.9h0c0,0,0,0,0,0l-.9-11.3s0,0,0,0c0-.2,0-.3,0-.5.2-.6,1-1,1.6-.7h0Z"/>
    </g>
    <g id="path23">
      <path class="st0" d="M127.5,248c-1.3-.5-2.8.2-3.3,1.4l-3.5,9c-.5,1.3.2,2.7,1.5,3.2s.7.2,1.1.2l11.4-.9h0s0,0,0,0c.8-.1,1.6-.7,1.9-1.6s.2-1.8-.4-2.5h0s0,0,0,0l-7.8-8.2c-.2-.3-.6-.5-.9-.6h0ZM127,249.2c.2,0,.3.2.4.3,0,0,0,0,0,0l7.7,8.2h0c.3.4.4.8.2,1.2s-.5.7-.9.8c0,0,0,0,0,0l-11.3.9c-.2,0-.4,0-.5,0-.6-.2-1-.9-.7-1.6l3.5-9c.2-.6,1-1,1.6-.7h0Z"/>
    </g>
    <path class="st0" d="M232.7,315.6c-5.3,0-129.5-2.3-153.1-12.2-24-10.1-27.6-42.2-27.7-42.5h0c0-.5,0-42.4.9-87,.9-44.6,9.4-103.6,9.5-104.1v-.8c.1,0,.9,0,.9,0,.3,0,26.5-2.4,38.8-2.2,12.8.2,20.2,14.1,20.5,14.7v.2c0,0,14,49.1,14,49.1l28.9,109.1c0,.3,3.6,18.6,13.7,25.8,10.2,7.3,23.8,7.8,24,7.8,1.8,0,185.3.2,196.9-1.1,11.2-1.3,16.9-6.2,23.3-12.5,6-6,7.4-21.8,7.4-21.9v-9.8c0-1.4-2.2-137.3-2.2-148.9s16.9-13.6,17.1-13.6c.4,0,31.3.2,39,.4,6.3.2,8.6-4,11.2-8.8.3-.6.6-1.1.9-1.7,2.8-5,.2-11,.2-11l-.7-1.5h1.7c.7.2,16.7,1.2,23.4,2.8,7.2,1.7,8.4,12.1,8.5,12.6l12.6,107.3c.4,3.8,10.7,94.2-3,116.6-13,21.2-35.9,23.2-52.5,24.7-1.2.1-2.3.2-3.5.3-16.2,1.5-133.6,8.3-134.8,8.4h-115.8ZM53.9,260.7c.2,1.4,4,31.4,26.5,40.8,23.3,9.8,151.1,12,152.3,12.1h115.7c1.1,0,118.5-6.9,134.6-8.4,1.1-.1,2.3-.2,3.5-.3,16.2-1.4,38.5-3.4,51-23.7,13.4-21.8,2.8-114.4,2.7-115.3l-12.6-107.3c0-.1-1.1-9.5-7-10.8-5.3-1.2-17.3-2.2-21.5-2.5.7,2.3,1.6,7-.8,11.3-.3.6-.6,1.1-.9,1.7-2.7,5-5.5,10.1-13,9.9-7.6-.2-38.5-.4-38.8-.4-.6,0-15.1,1-15.1,11.6s2.2,147.5,2.2,148.8v9.9c0,.8-1.5,16.8-8,23.2-6.6,6.6-12.6,11.8-24.4,13.1-11.6,1.3-189.6,1.1-197.1,1.1-.6,0-14.4-.5-25.1-8.1-10.8-7.7-14.4-26.2-14.5-27l-28.9-109-13.9-49c-.6-1.1-7.6-13.3-18.7-13.5-11-.2-33.3,1.7-37.8,2.1-1,7.1-8.6,61.4-9.4,103.1-.9,43.8-.9,85-.9,86.8Z"/>
  </g>
  <g>
    <path class="st0" d="M86,146c-.8,0-1.6-.3-2.3-.8-.8-.6-1.4-1.5-1.5-2.6-.3-2.1,1.2-4.1,3.3-4.4,1-.1,2,.1,2.9.7.8.6,1.4,1.5,1.5,2.6h0c.1,1-.1,2-.7,2.9s-1.5,1.4-2.6,1.5c-.2,0-.4,0-.6,0ZM86,140.2c0,0-.2,0-.3,0-1,.1-1.7,1.1-1.6,2.1,0,.5.3.9.7,1.2.4.3.9.4,1.4.4.5,0,.9-.3,1.2-.7.3-.4.4-.9.4-1.4h0c0-.5-.3-.9-.7-1.2-.3-.2-.7-.4-1.1-.4Z"/>
    <path class="st0" d="M97.2,146c-.8,0-1.6-.3-2.3-.8-.8-.6-1.4-1.5-1.5-2.6-.3-2.1,1.2-4.1,3.3-4.4,1-.1,2,.1,2.9.7.8.6,1.4,1.5,1.5,2.6h0c.3,2.1-1.2,4.1-3.3,4.4-.2,0-.4,0-.6,0ZM97.2,140.2c0,0-.2,0-.3,0-1,.1-1.7,1.1-1.6,2.1,0,.5.3.9.7,1.2.4.3.9.4,1.4.4,1-.1,1.7-1.1,1.6-2.1h0c0-.5-.3-.9-.7-1.2-.3-.2-.7-.4-1.1-.4Z"/>
    <path class="st0" d="M108.4,146c-.8,0-1.6-.3-2.3-.8-.8-.6-1.4-1.5-1.5-2.6-.3-2.1,1.2-4.1,3.3-4.4,2.1-.3,4.1,1.2,4.4,3.3h0c.3,2.1-1.2,4.1-3.3,4.4-.2,0-.4,0-.6,0ZM108.4,140.2c0,0-.2,0-.3,0-1,.1-1.7,1.1-1.6,2.1,0,.5.3.9.7,1.2.4.3.9.4,1.4.4,1-.1,1.7-1.1,1.6-2.1h0c-.1-.9-.9-1.6-1.9-1.6Z"/>
    <path class="st0" d="M119.6,146c-1.9,0-3.6-1.4-3.8-3.3-.3-2.1,1.2-4.1,3.3-4.4,2.1-.3,4.1,1.2,4.4,3.3h0c.1,1-.1,2-.7,2.9s-1.5,1.4-2.6,1.5c-.2,0-.4,0-.5,0ZM119.6,140.2c0,0-.2,0-.3,0-1,.1-1.7,1.1-1.6,2.1s1.1,1.7,2.1,1.6c.5,0,.9-.3,1.2-.7.3-.4.4-.9.4-1.4h0c-.1-.9-.9-1.6-1.9-1.6Z"/>
  </g>
  <path class="st0" d="M498.8,147.1c-3.2,0-5.9-2.3-6.4-5.6-.5-3.5,2-6.8,5.5-7.3,1.7-.2,3.4.2,4.8,1.2,1.4,1,2.3,2.6,2.5,4.3h0c.2,1.7-.2,3.4-1.2,4.8-1,1.4-2.6,2.3-4.3,2.5-.3,0-.6,0-.9,0ZM498.8,136.1c-.2,0-.4,0-.6,0-2.4.3-4.1,2.6-3.8,5.1.3,2.4,2.6,4.1,5.1,3.8,1.2-.2,2.2-.8,2.9-1.7.7-1,1-2.1.9-3.3h0c-.2-1.2-.8-2.2-1.7-2.9-.8-.6-1.7-.9-2.7-.9Z"/>
  <path class="st0" d="M62.4,70.3c-.1-.3-3.5-7.1,0-15,3.7-8.4,11.2-10.1,18.7-10.6h.3c22.7-1.6,137.9-9.7,180.3-9.9,5.3,0,10.9,0,16.6,0,41.5-.2,93.1-.4,138.2,2,24.3,1.3,42.2,2.2,54,2.8,13.5.7,20.2,1,22.3,1.2,4.4.5,5.6,2.6,5.8,2.8l-1.7,1h0s-.9-1.4-4.2-1.8c-2.1-.2-8.8-.6-22.2-1.2-11.8-.6-29.7-1.5-54-2.8-45.1-2.4-96.7-2.2-138.1-2-5.7,0-11.2,0-16.6,0-42.3.1-157.5,8.2-180.2,9.8h-.3c-8,.6-13.9,2.4-17,9.4-3.1,7,0,13.2,0,13.3l-1.8.9Z"/>
</svg>