<?xml version="1.0" encoding="UTF-8"?>
<svg id="Layer_2" xmlns="http://www.w3.org/2000/svg" version="1.1" viewBox="0 0 598.2 350.3">
  <!-- Generator: Adobe Illustrator 29.0.1, SVG Export Plug-In . SVG Version: 2.1.0 Build 192)  -->
  <defs>
    <style>
      .st0 {
        fill: #f4f4f4;
      }
    </style>
  </defs>
  <path class="st0" d="M480.3,285.1H117.9c-32.9,0-59.6-26.8-59.6-59.6V81.1c0-8.8,7.1-15.9,15.9-15.9h449.9c8.8,0,15.9,7.1,15.9,15.9v144.4c0,32.9-26.8,59.6-59.6,59.6ZM74.2,67.2c-7.7,0-13.9,6.2-13.9,13.9v144.4c0,31.8,25.9,57.6,57.6,57.6h362.4c31.8,0,57.6-25.9,57.6-57.6V81.1c0-7.7-6.2-13.9-13.9-13.9H74.2Z"/>
  <path class="st0" d="M471.3,277.8H126.1c-32.9,0-59.6-26.8-59.6-59.6V87.7c0-.8-.7-7.7,3.3-12.2,2.2-2.5,5.3-3.7,9.4-3.7h119.1v2h-119.1c-3.4,0-6.1,1-7.9,3.1-3.6,4-2.8,10.7-2.8,10.7h0v130.7c0,31.8,25.9,57.6,57.6,57.6h345.2c31.8,0,57.6-25.9,57.6-57.6V87.6c0-7.7-6.2-13.9-13.9-13.9v-2c8.8,0,15.9,7.1,15.9,15.9v130.5c0,32.9-26.8,59.6-59.6,59.6Z"/>
  <g id="circle9">
    <path class="st0" d="M150.4,135.8c-31.5,0-57,25.1-57,56.1s25.5,56.1,57,56.1,57-25.1,57-56.1-25.6-56.1-57-56.1ZM150.4,137.4c30.6,0,55.4,24.4,55.4,54.5s-24.8,54.5-55.4,54.5-55.4-24.4-55.4-54.5c0-30.1,24.8-54.5,55.4-54.5Z"/>
  </g>
  <g id="path11">
    <path class="st0" d="M140.9,150.5c-2.7,0-4.8,2.1-4.8,4.7v22.1c0,.4,0,.6,0,.5,0,0,0,0-.5,0h-22.4c-2.6,0-4.8,2.1-4.8,4.7v18.8c0,2.6,2.2,4.7,4.8,4.7h22.3c.4,0,.5,0,.5.1,0,0,0,0,0,.4v22c0,2.6,2.2,4.7,4.8,4.7h19.1c2.6,0,4.8-2.1,4.8-4.7v-22.1c0-.2,0-.3,0-.3,0,0,.2-.1.5-.1h22.3c2.6,0,4.8-2.1,4.8-4.7v-18.8c0-2.6-2.2-4.7-4.8-4.7h-22.4c-.3,0-.4,0-.4-.1,0,0-.1-.1-.1-.4v-22.1c0-2.6-2.2-4.7-4.8-4.7h-19.1ZM140.9,152.1h19.1c1.8,0,3.2,1.4,3.2,3.1v22.1c0,.6.2,1.1.6,1.5.4.4,1,.6,1.6.6h22.4c1.8,0,3.2,1.4,3.2,3.1v18.8c0,1.7-1.4,3.1-3.2,3.1h-22.3c-.6,0-1.2.2-1.6.6-.4.4-.6,1-.6,1.5v22.1c0,1.7-1.4,3.1-3.2,3.1h-19.1c-1.8,0-3.2-1.4-3.2-3.1v-22c0-.6-.2-1.2-.6-1.6-.5-.4-1-.5-1.6-.5h-22.3c-1.8,0-3.2-1.4-3.2-3.1v-18.8c0-1.7,1.4-3.1,3.2-3.1h22.4c.7,0,1.3,0,1.8-.6.4-.5.4-1,.4-1.5v-22.1c0-1.7,1.4-3.1,3.2-3.1h0Z"/>
  </g>
  <g id="path13">
    <path class="st0" d="M139.1,148.3c-2.7,0-4.8,2.1-4.8,4.7v22.1c0,.4,0,.5,0,.5,0,0,0,0-.5,0h-22.4c-2.6,0-4.8,2.1-4.8,4.8v23.1c0,2.6,2.2,4.8,4.8,4.8h22.3c.4,0,.5,0,.5.1,0,0,0,0,0,.4v22c0,2.6,2.2,4.7,4.8,4.7h22.6c2.6,0,4.8-2.1,4.8-4.7v-22.1c0-.2,0-.3,0-.4,0,0,.2-.1.5-.1h22.3c2.6,0,4.8-2.1,4.8-4.8v-23.1c0-2.6-2.2-4.8-4.8-4.8h-22.4c-.3,0-.4,0-.4-.1,0,0-.1-.1-.1-.4v-22.1c0-2.6-2.2-4.7-4.8-4.7h-22.6ZM139.1,149.9h22.6c1.8,0,3.2,1.4,3.2,3.1v22.1c0,.6.2,1.1.6,1.5.4.4,1,.6,1.6.6h22.4c1.8,0,3.2,1.4,3.2,3.1v23.1c0,1.7-1.4,3.1-3.2,3.1h-22.3c-.6,0-1.2.2-1.6.6-.4.4-.6,1-.6,1.5v22.1c0,1.7-1.4,3.1-3.2,3.1h-22.6c-1.8,0-3.2-1.4-3.2-3.1v-22c0-.6-.2-1.2-.6-1.6s-1-.5-1.6-.5h-22.3c-1.8,0-3.2-1.4-3.2-3.1v-23.1c0-1.7,1.4-3.1,3.2-3.1h22.4c.7,0,1.3,0,1.8-.6.4-.5.4-1,.4-1.5v-22.1c0-1.7,1.4-3.1,3.2-3.1h0Z"/>
  </g>
  <g id="circle15">
    <path class="st0" d="M150.4,203.6c-6.5,0-11.8-5.2-11.8-11.6s5.3-11.6,11.8-11.6,11.8,5.2,11.8,11.6-5.3,11.6-11.8,11.6ZM150.4,183.9c-4.5,0-8.2,3.6-8.2,8s3.7,8,8.2,8,8.2-3.6,8.2-8-3.7-8-8.2-8Z"/>
  </g>
  <g id="path17">
    <path class="st0" d="M150.4,154c-1.2,0-2.3.7-2.8,1.6h0s0,0,0,0l-6.2,12.8c-.2.4-.3.9-.3,1.3,0,1.7,1.5,3.1,3.2,3.1h12.3c1.8,0,3.2-1.4,3.2-3.1s-.1-1-.3-1.4l-6.3-12.9h0c0,0,0,0,0,0-.6-.9-1.6-1.5-2.8-1.5h0ZM150.4,155.6c.6,0,1.1.3,1.3.7h0s6.2,12.8,6.2,12.8c0,.2.2.4.2.7,0,.9-.7,1.5-1.6,1.5h-12.3c-.9,0-1.6-.7-1.6-1.5s0-.5.2-.7l6.2-12.8h0c.3-.5.8-.8,1.3-.8h0Z"/>
  </g>
  <g id="path19">
    <path class="st0" d="M128,182.7c-.5,0-.9.1-1.4.3l-13.1,6.2h0c-.9.6-1.5,1.6-1.5,2.7s.7,2.2,1.6,2.8h0s0,0,0,0l13,6.1h0c.4.2.9.3,1.4.3,1.8,0,3.2-1.4,3.2-3.1v-12.1c0-1.7-1.5-3.2-3.2-3.2h0ZM128,184.3c.9,0,1.6.7,1.6,1.5v12.1c0,.9-.7,1.5-1.6,1.5s-.4,0-.6-.1h0l-13-6.1s0,0,0,0c-.5-.3-.8-.8-.8-1.3s.3-1,.7-1.3l13.1-6.2c.2,0,.4-.2.7-.2h0Z"/>
  </g>
  <g id="path21">
    <path class="st0" d="M144.3,210.9c-1.8,0-3.2,1.4-3.2,3.2s.1.9.3,1.3l6.3,12.9h0s0,0,0,0c.6.9,1.6,1.5,2.7,1.5s2.3-.7,2.8-1.6h0s0,0,0,0l6.2-12.8h0c.2-.4.3-.9.3-1.3,0-1.7-1.5-3.2-3.2-3.2h-12.3ZM144.3,212.5h12.3c.9,0,1.6.7,1.6,1.5s0,.4-.2.6l-6.2,12.8s0,0,0,0c-.3.4-.8.8-1.4.8s-1-.3-1.3-.7h0c0,0,0,0,0,0l-6.2-12.8s0,0,0,0c0-.2-.2-.4-.2-.6,0-.9.7-1.5,1.6-1.5h0Z"/>
  </g>
  <g id="path23">
    <path class="st0" d="M172.9,182.7c-1.8,0-3.2,1.4-3.2,3.2v12.1c0,1.7,1.5,3.1,3.2,3.1s.9-.1,1.4-.3l13.1-6.2h0c.9-.6,1.5-1.6,1.5-2.7s-.7-2.2-1.6-2.8h0s0,0,0,0l-13-6.1c-.4-.2-.9-.3-1.4-.3h0ZM172.9,184.3c.2,0,.4,0,.6.2,0,0,0,0,0,0l13,6.1h0c.5.3.8.8.8,1.3s-.3,1-.7,1.3c0,0,0,0,0,0l-13,6.2c-.2.1-.4.1-.7.1-.9,0-1.6-.7-1.6-1.5v-12.1c0-.9.7-1.5,1.6-1.5h0Z"/>
  </g>
  <path class="st0" d="M395,232.6c-13.6,0-24.6-11-24.6-24.6s11-24.6,24.6-24.6,24.6,11,24.6,24.6-11,24.6-24.6,24.6ZM395,185.3c-12.5,0-22.6,10.2-22.6,22.6s10.2,22.6,22.6,22.6,22.6-10.2,22.6-22.6-10.2-22.6-22.6-22.6Z"/>
  <path class="st0" d="M458.8,232.6c-13.6,0-24.6-11-24.6-24.6s11-24.6,24.6-24.6,24.6,11,24.6,24.6-11,24.6-24.6,24.6ZM458.8,185.3c-12.5,0-22.6,10.2-22.6,22.6s10.2,22.6,22.6,22.6,22.6-10.2,22.6-22.6-10.2-22.6-22.6-22.6Z"/>
  <path class="st0" d="M342.8,231.3h-85.5v-37.6h85.5v37.6ZM259.4,229.3h81.5v-33.6h-81.5v33.6Z"/>
  <path class="st0" d="M303.1,163.1c-1.2,0-2.5-.2-3.7-.5l-84.9-24.1c-5.8-1.6-9.8-7-9.8-12.9v-58.7h2v58.7c0,5.1,3.4,9.6,8.3,11l84.9,24.1c2,.6,4.2.6,6.3,0l84.9-24.1c4.9-1.4,8.3-5.9,8.3-11v-58.7h2v58.7c0,6-4,11.3-9.8,12.9l-84.9,24.1c-1.2.3-2.4.5-3.7.5Z"/>
  <path class="st0" d="M303.3,172.3c-1.3,0-2.7-.2-3.9-.5l-91.7-25c-6.2-1.7-10.5-7.2-10.5-13.4v-60.8h2v60.8c0,5.3,3.7,10,9,11.4l91.7,25c2.2.6,4.6.6,6.8,0l91.7-25c5.3-1.4,9-6.1,9-11.4v-60.8h2v60.8c0,6.2-4.3,11.7-10.5,13.4l-91.7,25c-1.3.4-2.6.5-3.9.5Z"/>
  <rect class="st0" x="408.4" y="71.7" width="106.6" height="2"/>
</svg>