<?xml version="1.0" encoding="UTF-8"?>
<svg id="Layer_4" xmlns="http://www.w3.org/2000/svg" version="1.1" viewBox="0 0 598.2 350.3">
  <!-- Generator: Adobe Illustrator 29.0.1, SVG Export Plug-In . SVG Version: 2.1.0 Build 192)  -->
  <defs>
    <style>
      .st0 {
        fill: none;
        stroke: #f4f4f4;
        stroke-miterlimit: 10;
        stroke-width: 2px;
      }

      .st1 {
        fill: #f4f4f4;
      }
    </style>
  </defs>
  <path class="st1" d="M220.3,287.5c0-3.9,3.2-7.1,7.1-7.1h0c3.9,0,7.1,3.2,7.1,7.1h0c0,3.9-3.2,7.1-7.1,7.1h0c-3.9,0-7.1-3.2-7.1-7.1h0ZM222.7,287.5c0,2.6,2.1,4.7,4.7,4.7h0c2.6,0,4.7-2.1,4.7-4.7h0c0-2.6-2.1-4.7-4.7-4.7h0c-2.6,0-4.7,2.1-4.7,4.7h0Z"/>
  <path class="st1" d="M308.1,302v-2.4h11.8c6.6,0,12-5.4,12-12h0c0-6.7-5.4-12-12-12h-11.8c-6.7,0-12,5.4-12,12h0c0,6.6,5.4,12,12,12h0v2.4c-8,0-14.4-6.5-14.4-14.4h0c0-8,6.5-14.4,14.4-14.4h11.8c8,0,14.4,6.5,14.4,14.4h0c0,8-6.5,14.4-14.4,14.4h-11.8Z"/>
  <path class="st1" d="M308.9,295.6v-2.4h11.5c3.4,0,6.1-2.7,6.1-6.1h0c0-3.4-2.7-6.1-6.1-6.1h-11.5c-3.4,0-6.1,2.7-6.1,6.1h0c0,3.4,2.7,6.1,6.1,6.1h0v2.4c-4.7,0-8.5-3.8-8.5-8.5h0c0-4.7,3.8-8.5,8.5-8.5h11.5c4.7,0,8.5,3.8,8.5,8.5h0c0,4.7-3.8,8.5-8.5,8.5h-11.5Z"/>
  <path class="st1" d="M358.1,302v-2.4h11.9c6.6,0,12-5.4,12-12h0c0-6.7-5.4-12-12-12h-11.9c-6.6,0-12,5.4-12,12h0c0,6.6,5.4,12,12,12h0v2.4c-8,0-14.4-6.5-14.4-14.4h0c0-8,6.5-14.4,14.4-14.4h11.9c8,0,14.4,6.5,14.4,14.4h0c0,8-6.5,14.4-14.4,14.4h-11.9Z"/>
  <path class="st1" d="M358.9,295.6v-2.4h11.5c3.4,0,6.1-2.7,6.1-6.1h0c0-3.4-2.7-6.1-6.1-6.1h-11.5c-3.4,0-6.1,2.7-6.1,6.1h0c0,3.4,2.7,6.1,6.1,6.1h0v2.4c-4.7,0-8.5-3.8-8.5-8.5h0c0-4.7,3.8-8.5,8.5-8.5h11.5c4.7,0,8.5,3.8,8.5,8.5h0c0,4.7-3.8,8.5-8.5,8.5h-11.5Z"/>
  <path class="st1" d="M204.6,235.1c-6.5,0-11.8-5.3-11.8-11.8h0V89c0-6.5,5.3-11.8,11.8-11.8h204.6c6.5,0,11.8,5.3,11.8,11.8h0v134.3h0c0,6.5-5.3,11.8-11.8,11.8h-204.6ZM195.1,89v134.3c0,5.2,4.2,9.5,9.5,9.5h204.6c5.2,0,9.5-4.2,9.5-9.5h0V89c0-5.2-4.2-9.5-9.5-9.5h-204.6c-5.2,0-9.5,4.2-9.5,9.5h0Z"/>
  <path class="st1" d="M205.8,227.8c-3.3,0-5.9-2.7-5.9-5.9h0V90.4c0-3.3,2.7-5.9,5.9-5.9h202.2c3.3,0,5.9,2.7,5.9,5.9h0v131.5c0,3.3-2.7,5.9-5.9,5.9h-202.2ZM202.3,90.4v131.5c0,2,1.6,3.6,3.6,3.6h202.2c2,0,3.5-1.6,3.6-3.6h0V90.4c0-2-1.6-3.6-3.6-3.6h-202.2c-2,0-3.6,1.6-3.6,3.6h0Z"/>
  <path class="st1" d="M83.8,316.1c-1.3,0-2.4-1.1-2.4-2.4h0V33.7c0-1.3,1.1-2.4,2.4-2.4h445.8c1.3,0,2.4,1.1,2.4,2.4h0v280h0c0,1.3-1.1,2.4-2.4,2.4H83.8ZM83.8,33.7v280h445.8V33.7s0,0,0,0H83.8s0,0,0,0h0Z"/>
  <path class="st1" d="M73.3,330.9c-3.9,0-7.1-3.2-7.1-7.1h0V23.7c0-3.9,3.2-7.1,7.1-7.1h466.8c3.9,0,7.1,3.2,7.1,7.1h0v300.1c0,3.9-3.2,7.1-7.1,7.1H73.3ZM68.5,23.7v300.1c0,2.6,2.1,4.7,4.7,4.7h466.8c2.6,0,4.7-2.1,4.7-4.7h0V23.7c0-2.6-2.1-4.7-4.7-4.7H73.3c-2.6,0-4.7,2.1-4.7,4.7h0Z"/>
  <path id="path3" class="st1" d="M126,123.7c-3.2,0-5.8,2.6-5.8,5.8v20.7c0,0,0,0,0,0h-20.8c-3.2,0-5.8,2.6-5.8,5.8v22.3c0,3.2,2.6,5.8,5.8,5.8h20.8c0,0,0,0,0,0v20.7c0,3.2,2.6,5.8,5.8,5.8h22.3c3.2,0,5.8-2.6,5.8-5.8v-20.7c0-.1,0,0,0,0h20.8c3.2,0,5.8-2.6,5.8-5.8v-22.3c0-3.2-2.6-5.8-5.8-5.8h-20.7c0,0,0,0,0,0v-20.8c0-3.2-2.6-5.8-5.8-5.8h-22.3ZM126,126.2h22.3c1.9,0,3.4,1.5,3.4,3.4v20.8c0,.7.3,1.5.9,1.9.6.4,1.2.5,1.6.5h20.7c1.9,0,3.4,1.5,3.4,3.4v22.3c0,1.9-1.5,3.4-3.4,3.4h-20.8c-.7,0-1.4.1-1.9.7s-.5,1.3-.5,1.8v20.7c0,1.9-1.5,3.4-3.4,3.4h-22.3c-1.9,0-3.4-1.5-3.4-3.4v-20.7c0-.5,0-1-.4-1.7-.4-.6-1.3-.9-2-.9h-20.9c-1.9,0-3.4-1.5-3.4-3.4v-22.3c0-1.9,1.5-3.4,3.4-3.4h20.9c.5,0,1.2-.1,1.7-.7.5-.5.6-1.2.6-1.9v-20.7c0-1.9,1.5-3.4,3.4-3.4h0Z"/>
  <path id="circle75" class="st1" d="M137.1,155.4c-6.6,0-12,5.4-12,11.9s5.4,12,12,12,11.9-5.4,11.9-12-5.4-11.9-11.9-11.9ZM137.1,157.8c5.3,0,9.5,4.2,9.5,9.5s-4.2,9.5-9.5,9.5-9.5-4.3-9.5-9.5,4.3-9.5,9.5-9.5Z"/>
  <circle class="st0" cx="459.1" cy="184.1" r="18.2"/>
  <circle class="st0" cx="492.6" cy="150.6" r="18.2"/>
</svg>