<?xml version="1.0" encoding="UTF-8"?>
<svg xmlns="http://www.w3.org/2000/svg" version="1.1" xmlns:cc="http://creativecommons.org/ns#" xmlns:dc="http://purl.org/dc/elements/1.1/" xmlns:inkscape="http://www.inkscape.org/namespaces/inkscape" xmlns:rdf="http://www.w3.org/1999/02/22-rdf-syntax-ns#" xmlns:sodipodi="http://sodipodi.sourceforge.net/DTD/sodipodi-0.dtd" xmlns:svg="http://www.w3.org/2000/svg" viewBox="0 0 400 268.6">
  <!-- Generator: Adobe Illustrator 29.0.1, SVG Export Plug-In . SVG Version: 2.1.0 Build 192)  -->
  <defs>
    <style>
      .st0 {
        fill: none;
        stroke: #f4f4f4;
        stroke-miterlimit: 10;
        stroke-width: 2px;
      }
    </style>
  </defs>
  <g id="svg" inkscape:version="0.92.4 (5da689c313, 2019-01-14)">
    <sodipodi:namedview id="namedview5" bordercolor="#666666" borderopacity="1" gridtolerance="10" guidetolerance="10" inkscape:current-layer="svgg" inkscape:cx="181.92441" inkscape:cy="201.34578" inkscape:pagecheckerboard="true" inkscape:pageopacity="0" inkscape:pageshadow="2" inkscape:window-height="1017" inkscape:window-maximized="1" inkscape:window-width="1920" inkscape:window-x="1432" inkscape:window-y="-8" inkscape:zoom="9.9421496" objecttolerance="10" pagecolor="#ffffff" showgrid="false"/>
    <path class="st0" d="M192.5,75.6c0,.8-.8.8-.8.8h-.8c-.8,0-.8-.8-1.5-1.5,0,0-.8-.8-.8-1.5s0-.8.8-.8l1.5.8c.8.8,1.5,1.5,1.5,2.3M178.8,68c0-3.8-1.5-6.1-3.8-6.1,0,0,0,.8-.8.8v1.5h2.3c0,1.5.8,2.3.8,3.8h1.5M205.4,64.2c1.5,0,2.3,1.5,3,3.8h1.5c-.8-.8-.8-1.5-.8-2.3s0-1.5-.8-2.3-1.5-1.5-2.3-1.5c0,0-.8.8-1.5.8,0,.8.8.8.8,1.5M182.6,76.4q-.8,0-.8-.8c0-.8,0-1.5.8-2.3,1.5,0,2.3-.8,2.3-.8.8,0,.8.8.8.8,0,.8-.8,1.5-2.3,3h-.8M174.3,75.6c-3-1.5-3.8-3.8-3.8-7.6s0-3.8,1.5-5.3c.8-1.5,2.3-2.3,3.8-2.3s2.3.8,3.8,2.3c.8,2.3,1.5,4.6,1.5,6.8v1.5h.8v-.8c.8,0,.8-1.5.8-4.6s0-4.6-1.5-6.8-3-3.8-6.1-3.8-4.6,1.5-5.3,3.8c-1.5,3-1.8,5.3-1.8,9.1s1.1,6.1,4.1,9.1c.8-.8,1.5-.8,2.3-1.5M269.3,182.7c.8,0,.8-.3.8-1,0-1.7-.8-3.6-3-5.9-2.3-2.3-6.1-3.7-10.6-4.3-.8,0-1.5,0-1.5,0q-.8-.2-1.5-.2c-.8,0-2.3-.2-3-.4,2.3-7.1,3-13.3,3-18.8s-1.5-12.9-4.6-17.5c-3-4.6-6.1-6.8-9.9-7.6q-.8.8-.8,1.5c3.8,1.5,7.6,4.6,9.9,9.1,2.3,5.3,3,9.9,3,15.2s-.8,10.6-3.8,18.6c-3,1.2-6.1,4-8.4,8.4,0,.7,0,1.1.8,1.1,0,0,.8-.7,1.5-2,1.5-1.3,2.3-2.6,3.8-3.9,2.3-1.3,3.8-2,6.1-2,3.8,0,7.6.5,9.9,1.6,3,1,4.6,2.1,5.3,3.3.8,1.1,1.5,2.2,2.3,3.2,0,1,.8,1.4.8,1.4M199.4,72.6c-.8-.8-.8-2.3-.8-3.8,0-3,0-4.6,1.5-6.8,1.5-1.5,3-2.3,4.6-2.3,2.3,0,3.8,1.5,5.3,3,.8,2.3,1.5,3.8,1.5,6.1,0,3.8-1.5,6.1-4.6,6.8,0,0,.8.8,1.5.8,1.5,0,2.3.8,3.8,1.5.8-4.6,1.5-7.6,1.5-11.4s-.8-7.6-2.3-9.9c-2.3-2.3-4.6-3-7.6-3s-4.6.8-6.8,2.3c-1.5,2.3-2.3,3.8-2.3,6.1,0,3.8.8,6.8,2.3,9.9.8,0,1.5.8,2.3.8M208.5,84.7c-9.9,6.8-17.5,9.9-23.6,9.9s-10.6-2.3-15.2-6.1c.8,1.5,1.5,3,2.3,3.8l4.6,4.6c3,3,6.8,4.6,10.6,4.6s11.4-3,19-8.4l6.8-4.6c1.5-1.5,3-3,3-5.3s0-1.5-.8-1.5c-.8-1.5-4.6-3.8-12.2-6.1-6.8-3-12.2-4.6-15.2-4.6s-6.1,1.5-11.4,4.6c-4.6,3-7.6,6.1-7.6,9.1,0,0,.8.8,1.5,2.3,4.6,3.8,9.1,6.1,13.7,6.1s13.7-3,23.6-10.6v1.5c.8,0,.8.8.8.8M226,238.2c3,5.7,8.4,8.6,14.4,8.6s3-.2,4.6-.7c1.5-.3,3-.8,3.8-1.4.8-.5,1.5-1.1,2.3-1.7,1.5-.5,1.5-.9,2.3-1.3l12.9-11.2c3-2.4,6.1-4.5,9.9-6.4,3-1.8,6.1-3,7.6-3.7,2.3-.6,3.8-1.5,5.3-2.7.8-1.1,1.5-2.6,1.5-4.4s-1.5-3.9-3-5.1-3-2.1-4.6-2.6-3-1.7-5.3-3.8c-1.5-2-3-4.7-3.8-8.3l-.8-4.4c-.8-2.1-.8-3.6-1.5-4.4,0-.2,0-.3-.8-.3s-2.3.7-3,2c-1.5,1.3-3,2.7-4.6,4.3-.8,1.5-3,2.9-4.6,4.2-2.3,1.3-4.6,2-6.1,2-6.1,0-9.1-1.7-11.4-4.9-1.5-2.4-2.3-5.2-3-8.4-1.5-1.3-2.3-2-3.8-2-3.8,0-5.3,4-5.3,11.9v23.6c0,.7-.8,2.2-.8,4.6-.8,2.4-.8,5-.8,8.1l-1.5,8.4h0M115.8,234.2c7.1,1,15.2,3.2,24.4,6.6,9.2,3.3,14.8,5.1,16.9,5.1,5.3,0,9.7-2.4,13.4-6.9.8-1.5.8-3.2.8-5.2,0-7.2-4.3-16.3-13-27.3l-5.2-6.9c-1.1-1.4-2.4-3.6-4-6.6-1.6-3-3-5.2-4.2-6.8-1-1.7-2.6-3.5-4.6-5.2-2-1.7-4.3-2.9-6.8-3.5-3.2.6-5.4,1.7-6.5,3.1s-1.7,3-1.8,4.7c-.2,1.6-.7,2.7-1.4,3.2-.8.5-2.1.8-3.8,1.2-.4,0-1.1,0-2.1,0h-2.1c-4,0-6.8.5-8.2,1.2-1.9,2.2-2.9,4.7-2.9,7.4s.3,3.3.9,6.2c.6,2.8.9,5.1.9,6.7,0,3.1-.9,6.2-2.8,9.3-1.9,3.3-2.9,5.7-2.9,7.4.8,2.9,5.8,5,15,6.2M141.1,165.1c0-5.2,1.4-11,4.2-17.9,2.7-6.8,5.5-11.4,8.1-14.4-.2-.8-.5-.8-1.1-.8l-.8-.8c-2.2,2.3-4.9,7.6-8.1,15.2-3.2,6.8-4.9,13.1-4.9,17.8s.8,6.4,2.4,9c1.7,2.5,5.7,6.2,12.1,10.8l8.1,5.2c8.6,7.4,13.1,12.6,13.1,15.7s-.8,3.2-3,4.9c-1.5,1.8-3.6,2.7-5.3,2.7s-.2.2-.2.5.8,1.6,2.4,4.6c3.2,4.3,10,6.5,19.1,6.5,16.7,0,29.6-6.8,39.5-20.5,0-3.8,0-6.2-.8-7.1v-2.8c0-4.9.8-8.7,2.3-11.1s3-3.6,5.3-3.6,3,.5,4.6,1.7c.8-5.9.8-10.9.8-15.5,0-6.9,0-12.6-1.5-17.9-.8-4.6-2.3-8.4-3.8-11.4l-4.6-6.8c-1.5-2.3-2.3-4.6-3.8-6.8-.8-3-1.5-5.3-1.5-9.1-2.3-3.8-3.8-7.6-6.1-11.4-1.5-3.8-3-7.6-4.6-10.6l-6.8,5.3c-7.6,5.3-13.7,7.6-19,7.6s-8.4-.8-10.6-3.8l-4.6-3.8c0,2.3-.8,5.3-2.3,8.4l-4.8,9.1c-2.1,5.3-3.3,8.4-3.5,10.6-.3,1.5-.5,3-.7,3l-5.7,11.4c-6.2,11.4-9.3,22-9.3,30.7s.2,3.6.5,5.4c-3.4-2.4-5.1-5.6-5.1-9.9M195.5,237c-9.9,0-17.5,1.3-22.8,4v-.2c-3.8,4.6-8.1,6.9-14,6.9s-9.6-1.4-17.5-4.3c-8-2.7-15-4.8-21.2-6.2-.6-.2-2-.4-4.2-.8-2.1-.3-4.1-.7-5.9-1-1.6-.3-3.4-.9-5.4-1.6-1.9-.6-3.4-1.4-4.6-2.3-1-1-1.6-2-1.6-3.2s.3-2.5.8-3.9c.5-.8,1-1.7,1.6-2.4.5-.8,1-1.6,1.3-2.4.5-.7.8-1.4,1.1-2.1.3-.7.6-1.4.8-2.2.2-.8.3-1.5.3-2.3s-.3-3-.9-7.1c-.6-4-.9-6.5-.9-7.5,0-3.3.8-6,2.4-7.9s3.3-2.9,4.9-2.9h8.7c.7,0,1.7-.4,3.3-1.3.5-1.2,1-2.2,1.3-3.1.4-.9.5-1.6.7-1.9.2-.5.3-.9.5-1.3.3-.5.7-1.1,1.2-1.7-.6-.8-.9-1.7-.9-3s0-1.6.2-2.1c0-2.7,1.3-6.6,4-11.7l2.7-4.8c2.2-4.1,3.9-7.1,5.1-10.2,1.3-3,2.7-7.6,4.2-13.7,1.2-5.3,4.1-10.6,8.7-16l5.7-6.8c4-4.6,6.5-8.4,8-11.4s2.2-6.8,2.2-9.9-.4-6.1-1.2-13.7c-.8-7.6-1.1-15.2-1.1-22s.5-9.1,1.4-12.9,2.7-7.6,5.3-10.6c2.3-3,5.3-6.1,9.9-7.6s9.9-2.3,16-2.3,4.6,0,6.8.8c2.3,0,5.3.8,9.1,2.3,3,1.5,6.1,3,8.4,5.3,3,2.3,5.3,6.1,7.6,9.9,1.5,4.6,3,9.1,3.8,15.2.8,3.8.8,7.6,1.5,12.9,0,4.6.8,7.6.8,9.9.8,2.3.8,5.3,1.5,9.1.8,3,1.5,6.1,3,8.4,1.5,3,3,6.1,5.3,9.1,2.3,3.8,5.3,7.6,8.4,12.2,6.8,7.6,12.2,16,15.2,24.3,3.8,7.6,6.1,17.5,6.1,28s-.8,10.3-2.3,15.3c1.5,0,2.3.6,3,1.7s1.5,3.3,2.3,6.9l.8,5.6c.8,1.7,1.5,3.3,3.8,4.6,1.5,1.4,3,2.5,5.3,3.4,1.5.8,3.8,1.8,5.3,3.2,1.5,1.5,2.3,3.1,2.3,4.8,0,2.6-.8,4.5-2.3,5.9-1.5,1.5-3,2.6-5.3,3.3-1.5.8-4.6,2.3-9.1,4.4-3.8,2.2-7.6,5-11.4,8.2l-7.6,6.5c-3,3-6.1,5.1-8.4,6.4-2.3,1.4-5.3,2.1-8.4,2.1l-5.3-.6c-6.1-1.6-9.9-4.6-12.2-9.3-12.2-1.5-22-2.2-28.1-2.2"/>
  </g>
</svg>