<?xml version="1.0" encoding="UTF-8"?>
<svg id="Layer_1" xmlns="http://www.w3.org/2000/svg" version="1.1" viewBox="0 0 1000 750">
  <!-- Generator: Adobe Illustrator 29.4.0, SVG Export Plug-In . SVG Version: 2.1.0 Build 152)  -->
  <defs>
    <style>
      .st0 {
        fill: #fff;
      }
    </style>
  </defs>
  <path class="st0" d="M946.9,567.3H53.1c-17.2,0-31.2-14-31.2-31.2V193.7c0-17.2,14-31.2,31.2-31.2h893.9c17.2,0,31.2,14,31.2,31.2v342.4c0,17.2-14,31.2-31.2,31.2ZM53.1,167.5c-14.5,0-26.2,11.8-26.2,26.2v342.4c0,14.5,11.8,26.2,26.2,26.2h893.9c14.5,0,26.2-11.8,26.2-26.2V193.7c0-14.5-11.8-26.2-26.2-26.2H53.1Z"/>
  <polygon class="st0" points="919.6 524.7 550.2 524.7 501.5 489.9 24.3 489.9 24.3 484.9 503.1 484.9 551.8 519.7 916.8 519.7 937.9 484.9 974.4 484.9 974.4 489.9 940.7 489.9 919.6 524.7"/>
  <rect class="st0" x="24.3" y="227.4" width="950" height="5"/>
  <path class="st0" d="M613.7,492.1c-35,0-63.5-28.5-63.5-63.5s28.5-63.5,63.5-63.5,63.5,28.5,63.5,63.5-28.5,63.5-63.5,63.5ZM613.7,370.2c-32.2,0-58.5,26.2-58.5,58.5s26.2,58.5,58.5,58.5,58.5-26.2,58.5-58.5-26.2-58.5-58.5-58.5Z"/>
  <path class="st0" d="M812.3,492.1c-35,0-63.5-28.5-63.5-63.5s28.5-63.5,63.5-63.5,63.5,28.5,63.5,63.5-28.5,63.5-63.5,63.5ZM812.3,370.2c-32.2,0-58.5,26.2-58.5,58.5s26.2,58.5,58.5,58.5,58.5-26.2,58.5-58.5-26.2-58.5-58.5-58.5Z"/>
  <path class="st0" d="M892.9,337.7H366.8v-83.9h526.2v83.9ZM371.8,332.7h516.2v-73.9H371.8v73.9Z"/>
  <path class="st0" d="M315.6,479.4H120.7c-10.5,0-19-8.5-19-19v-203.9c0-10.5,8.5-19,19-19h194.9c10.5,0,19,8.5,19,19v203.9c0,10.5-8.5,19-19,19ZM120.7,242.5c-7.7,0-14,6.3-14,14v203.9c0,7.7,6.3,14,14,14h194.9c7.7,0,14-6.3,14-14v-203.9c0-7.7-6.3-14-14-14H120.7Z"/>
  <g>
    <path class="st0" d="M218.2,401.7c-26.2,0-47.6-21.4-47.6-47.6s21.4-47.6,47.6-47.6,47.6,21.4,47.6,47.6-21.4,47.6-47.6,47.6ZM218.2,311.5c-23.5,0-42.6,19.1-42.6,42.6s19.1,42.6,42.6,42.6,42.6-19.1,42.6-42.6-19.1-42.6-42.6-42.6Z"/>
    <g>
      <path class="st0" d="M153.8,318.3l-17-37.3,37.1,17.2-20.1,20.1ZM146.9,291.2l8.4,18.5,10-10-18.4-8.5Z"/>
      <path class="st0" d="M282.6,318.3l-20.1-20.1,37.1-17.2-17,37.3ZM271.1,299.7l10,10,8.4-18.5-18.4,8.5Z"/>
    </g>
    <g>
      <path class="st0" d="M136.8,435.9l17-37.3,20.1,20.1-37.1,17.2ZM155.3,407.2l-8.4,18.5,18.4-8.5-10-10Z"/>
      <path class="st0" d="M299.6,435.9l-37.1-17.2,20.1-20.1,17,37.3ZM271.1,417.2l18.4,8.5-8.4-18.5-10,10Z"/>
    </g>
  </g>
  <g>
    <path class="st0" d="M221.2,303.8h-6.1c-2.4,0-4.3-1.9-4.3-4.3v-42.7c0-2.4,1.9-4.3,4.3-4.3h6.1c2.4,0,4.3,1.9,4.3,4.3v42.7c0,2.4-1.9,4.3-4.3,4.3ZM215.8,298.8h4.7v-41.3h-4.7v41.3Z"/>
    <path class="st0" d="M221.2,464.4h-6.1c-2.4,0-4.3-1.9-4.3-4.3v-42.7c0-2.4,1.9-4.3,4.3-4.3h6.1c2.4,0,4.3,1.9,4.3,4.3v42.7c0,2.4-1.9,4.3-4.3,4.3ZM215.8,459.4h4.7v-41.3h-4.7v41.3Z"/>
  </g>
  <g>
    <path class="st0" d="M319.8,365.8h-42.7c-2.4,0-4.3-1.9-4.3-4.3v-6.1c0-2.4,1.9-4.3,4.3-4.3h42.7c2.4,0,4.3,1.9,4.3,4.3v6.1c0,2.4-1.9,4.3-4.3,4.3ZM277.8,360.8h41.3v-4.7h-41.3v4.7Z"/>
    <path class="st0" d="M159.2,365.8h-42.7c-2.4,0-4.3-1.9-4.3-4.3v-6.1c0-2.4,1.9-4.3,4.3-4.3h42.7c2.4,0,4.3,1.9,4.3,4.3v6.1c0,2.4-1.9,4.3-4.3,4.3ZM117.2,360.8h41.3v-4.7h-41.3v4.7Z"/>
  </g>
</svg>