<?xml version="1.0" encoding="UTF-8"?>
<svg id="Layer_3" xmlns="http://www.w3.org/2000/svg" version="1.1" xmlns:cc="http://creativecommons.org/ns#" xmlns:dc="http://purl.org/dc/elements/1.1/" xmlns:rdf="http://www.w3.org/1999/02/22-rdf-syntax-ns#" viewBox="0 0 598.2 350.3">
  <!-- Generator: Adobe Illustrator 29.1.0, SVG Export Plug-In . SVG Version: 2.1.0 Build 142)  -->
  <defs>
    <style>
      .st0 {
        fill: #f4f4f4;
      }
    </style>
  </defs>
  <polygon class="st0" points="82.2 109.4 79 109.4 79 111.1 83 111.1 83.9 111.1 83.9 110.2 83.9 26.1 82.2 26.1 82.2 109.4"/>
  <path class="st0" d="M550.2,25.3h-2.7v-6.8c0-.9-.8-1.7-1.7-1.7H52.3h0c-.9,0-1.7.8-1.7,1.7v6.8h-3.5v85.8h4.7v3.3c-.7.2-1.2.8-1.2,1.6v208.5c0,.9.8,1.7,1.7,1.7h493.5c.9,0,1.7-.8,1.7-1.7V115.9c0-.9-.8-1.7-1.7-1.7h-.2v-3.2h5.4V25.3h-.9ZM48.8,27h26.1v82.4h-26.1V27ZM545.7,116v208.4H52.3V116h493.4ZM543.9,114.3H53.5v-3.2h23.1V25.3h-24.2v-6.7h493.4v6.7h-276.6v85.8h274.8v3.2ZM549.3,109.4h-278.5V27h278.5v82.4Z"/>
  <polygon class="st0" points="89.5 109.4 86.4 109.4 86.4 111.1 90.4 111.1 91.2 111.1 91.2 110.2 91.2 26.1 89.5 26.1 89.5 109.4"/>
  <polygon class="st0" points="96.9 109.4 93.7 109.4 93.7 111.1 97.7 111.1 98.6 111.1 98.6 110.2 98.6 26.1 96.9 26.1 96.9 109.4"/>
  <polygon class="st0" points="104.2 109.4 101.1 109.4 101.1 111.1 105.1 111.1 106 111.1 106 110.2 106 26.1 104.2 26.1 104.2 109.4"/>
  <polygon class="st0" points="111.6 109.4 108.4 109.4 108.4 111.1 112.4 111.1 113.3 111.1 113.3 110.2 113.3 26.1 111.6 26.1 111.6 109.4"/>
  <polygon class="st0" points="118.9 109.4 115.8 109.4 115.8 111.1 119.8 111.1 120.6 111.1 120.6 110.2 120.6 26.1 118.9 26.1 118.9 109.4"/>
  <polygon class="st0" points="126.3 109.4 123.1 109.4 123.1 111.1 127.1 111.1 128 111.1 128 110.2 128 26.1 126.3 26.1 126.3 109.4"/>
  <polygon class="st0" points="133.6 109.4 130.4 109.4 130.4 111.1 134.5 111.1 135.3 111.1 135.3 110.2 135.3 26.1 133.6 26.1 133.6 109.4"/>
  <polygon class="st0" points="141 109.4 137.8 109.4 137.8 111.1 141.8 111.1 142.7 111.1 142.7 110.2 142.7 26.1 141 26.1 141 109.4"/>
  <polygon class="st0" points="148.3 109.4 145.1 109.4 145.1 111.1 149.2 111.1 150 111.1 150 110.2 150 26.1 148.3 26.1 148.3 109.4"/>
  <polygon class="st0" points="155.6 109.4 152.5 109.4 152.5 111.1 156.5 111.1 157.3 111.1 157.3 110.2 157.3 26.1 155.6 26.1 155.6 109.4"/>
  <polygon class="st0" points="163 109.4 159.8 109.4 159.8 111.1 163.8 111.1 164.7 111.1 164.7 110.2 164.7 26.1 163 26.1 163 109.4"/>
  <polygon class="st0" points="170.3 109.4 167.1 109.4 167.1 111.1 171.2 111.1 172 111.1 172 110.2 172 26.1 170.3 26.1 170.3 109.4"/>
  <polygon class="st0" points="177.7 109.4 174.5 109.4 174.5 111.1 178.5 111.1 179.4 111.1 179.4 110.2 179.4 26.1 177.7 26.1 177.7 109.4"/>
  <polygon class="st0" points="185 109.4 181.8 109.4 181.8 111.1 185.9 111.1 186.7 111.1 186.7 110.2 186.7 26.1 185 26.1 185 109.4"/>
  <polygon class="st0" points="192.4 109.4 189.2 109.4 189.2 111.1 193.2 111.1 194.1 111.1 194.1 110.2 194.1 26.1 192.4 26.1 192.4 109.4"/>
  <polygon class="st0" points="199.7 109.4 196.5 109.4 196.5 111.1 200.5 111.1 201.4 111.1 201.4 110.2 201.4 26.1 199.7 26.1 199.7 109.4"/>
  <polygon class="st0" points="207 109.4 203.9 109.4 203.9 111.1 207.9 111.1 208.7 111.1 208.7 110.2 208.7 26.1 207 26.1 207 109.4"/>
  <polygon class="st0" points="214.4 109.4 211.2 109.4 211.2 111.1 215.2 111.1 216.1 111.1 216.1 110.2 216.1 26.1 214.4 26.1 214.4 109.4"/>
  <polygon class="st0" points="221.7 109.4 218.5 109.4 218.5 111.1 222.6 111.1 223.4 111.1 223.4 110.2 223.4 26.1 221.7 26.1 221.7 109.4"/>
  <polygon class="st0" points="229.1 109.4 225.9 109.4 225.9 111.1 229.9 111.1 230.8 111.1 230.8 110.2 230.8 26.1 229.1 26.1 229.1 109.4"/>
  <polygon class="st0" points="236.4 109.4 233.2 109.4 233.2 111.1 237.3 111.1 238.1 111.1 238.1 110.2 238.1 26.1 236.4 26.1 236.4 109.4"/>
  <polygon class="st0" points="243.7 109.4 240.6 109.4 240.6 111.1 244.6 111.1 245.5 111.1 245.5 110.2 245.5 26.1 243.7 26.1 243.7 109.4"/>
  <polygon class="st0" points="251.1 109.4 247.9 109.4 247.9 111.1 251.9 111.1 252.8 111.1 252.8 110.2 252.8 26.1 251.1 26.1 251.1 109.4"/>
  <polygon class="st0" points="258.4 109.4 255.3 109.4 255.3 111.1 259.3 111.1 260.1 111.1 260.1 110.2 260.1 26.1 258.4 26.1 258.4 109.4"/>
  <polygon class="st0" points="265.8 109.4 262.6 109.4 262.6 111.1 266.6 111.1 267.5 111.1 267.5 110.2 267.5 26.1 265.8 26.1 265.8 109.4"/>
  <path class="st0" d="M341.7,71.7h196.9c.9,0,1.7-.8,1.7-1.7v-32.9c0-.9-.7-1.7-1.7-1.7h-196.9c-.9,0-1.7.7-1.7,1.7v32.9c0,.9.8,1.7,1.7,1.7ZM341.8,37.2h196.8v32.8h-196.8v-32.8Z"/>
  <path class="st0" d="M495.8,40.2h-148.3c-1.1,0-2.1.9-2.1,2.1v22.5c0,1.1,1,2.1,2.1,2.1h148.3c.8,0,1.4-.5,1.7-1.2h.3v-23.4c0-1.1-.9-2.1-2.1-2.1ZM496.1,64v.9c0,.2-.1.3-.3.3h-148.3c-.2,0-.4-.1-.4-.3v-22.5c0-.2.2-.3.4-.3h148.3c.2,0,.3.1.3.3v21.7Z"/>
  <path class="st0" d="M493.8,43h-144c-.7,0-1.3.6-1.3,1.3v18.5c0,.7.6,1.3,1.3,1.3h144c.7,0,1.3-.6,1.3-1.3v-18.5c0-.7-.6-1.3-1.3-1.3ZM493.3,62.4h-143.1v-17.6h143.1v17.6Z"/>
  <path class="st0" d="M520.5,41.8c-6.5,0-11.7,5.3-11.7,11.7s5.3,11.7,11.7,11.7,11.7-5.3,11.7-11.7-5.3-11.7-11.7-11.7ZM520.5,63.6c-5.5,0-10-4.5-10-10,0-5.5,4.5-10,10-10s10,4.5,10,10-4.5,10-10,10Z"/>
  <path class="st0" d="M75.4,189.6h16c1.8,0,3.3-1.5,3.3-3.3v-16c0-1.8-1.5-3.3-3.3-3.3h-16c-1.8,0-3.3,1.5-3.3,3.3v16c0,1.8,1.5,3.3,3.3,3.3ZM73.8,170.3c0-.9.7-1.6,1.6-1.6h16c.9,0,1.5.7,1.5,1.6v16c0,.9-.7,1.6-1.5,1.6h-16c-.9,0-1.6-.7-1.6-1.6v-16Z"/>
  <path class="st0" d="M115.2,167.1h-16c-1.8,0-3.3,1.5-3.3,3.3v16c0,1.8,1.5,3.3,3.3,3.3h16c1.8,0,3.3-1.5,3.3-3.3v-16c0-1.8-1.5-3.3-3.3-3.3ZM116.8,186.3c0,.9-.7,1.6-1.6,1.6h-16c-.9,0-1.6-.7-1.6-1.6v-16c0-.9.7-1.6,1.6-1.6h16c.9,0,1.6.7,1.6,1.6v16Z"/>
  <path class="st0" d="M139.1,167.1h-16c-1.8,0-3.3,1.5-3.3,3.3v16c0,1.8,1.5,3.3,3.3,3.3h16c1.8,0,3.3-1.5,3.3-3.3v-16c0-1.8-1.5-3.3-3.3-3.3ZM140.7,186.3c0,.9-.7,1.6-1.6,1.6h-16c-.9,0-1.6-.7-1.6-1.6v-16c0-.9.7-1.6,1.6-1.6h16c.9,0,1.6.7,1.6,1.6v16Z"/>
  <path class="st0" d="M143.7,170.3v16c0,1.8,1.5,3.3,3.3,3.3h16c1.8,0,3.3-1.5,3.3-3.3v-16c0-1.8-1.5-3.3-3.3-3.3h-16c-1.8,0-3.3,1.5-3.3,3.3ZM164.5,170.3v16c0,.9-.7,1.6-1.6,1.6h-16c-.9,0-1.5-.7-1.5-1.6v-16c0-.9.7-1.6,1.5-1.6h16c.9,0,1.6.7,1.6,1.6Z"/>
  <path class="st0" d="M186.8,167.1h-16c-1.8,0-3.3,1.5-3.3,3.3v16c0,1.8,1.5,3.3,3.3,3.3h16c1.8,0,3.3-1.5,3.3-3.3v-16c0-1.8-1.5-3.3-3.3-3.3ZM188.4,186.3c0,.9-.7,1.6-1.5,1.6h-16c-.9,0-1.5-.7-1.5-1.6v-16c0-.9.7-1.6,1.5-1.6h16c.9,0,1.5.7,1.5,1.6v16Z"/>
  <path class="st0" d="M210.7,167.1h-16c-1.8,0-3.3,1.5-3.3,3.3v16c0,1.8,1.5,3.3,3.3,3.3h16c1.8,0,3.3-1.5,3.3-3.3v-16c0-1.8-1.5-3.3-3.3-3.3ZM212.3,186.3c0,.9-.7,1.6-1.5,1.6h-16c-.9,0-1.5-.7-1.5-1.6v-16c0-.9.7-1.6,1.5-1.6h16c.9,0,1.5.7,1.5,1.6v16Z"/>
  <path class="st0" d="M234.6,167.1h-16c-1.8,0-3.3,1.5-3.3,3.3v16c0,1.8,1.5,3.3,3.3,3.3h16c1.8,0,3.3-1.5,3.3-3.3v-16c0-1.8-1.5-3.3-3.3-3.3ZM236.1,186.3c0,.9-.7,1.6-1.5,1.6h-16c-.9,0-1.6-.7-1.6-1.6v-16c0-.9.7-1.6,1.6-1.6h16c.9,0,1.5.7,1.5,1.6v16Z"/>
  <path class="st0" d="M258.5,167.1h-16c-1.8,0-3.3,1.5-3.3,3.3v16c0,1.8,1.5,3.3,3.3,3.3h16c1.8,0,3.3-1.5,3.3-3.3v-16c0-1.8-1.5-3.3-3.3-3.3ZM260,186.3c0,.9-.7,1.6-1.6,1.6h-16c-.9,0-1.6-.7-1.6-1.6v-16c0-.9.7-1.6,1.6-1.6h16c.9,0,1.6.7,1.6,1.6v16Z"/>
  <path class="st0" d="M263.1,170.3v16c0,1.8,1.5,3.3,3.3,3.3h16c1.8,0,3.3-1.5,3.3-3.3v-16c0-1.8-1.5-3.3-3.3-3.3h-16c-1.8,0-3.3,1.5-3.3,3.3ZM264.8,170.3c0-.9.7-1.6,1.5-1.6h16c.9,0,1.6.7,1.6,1.6v16c0,.9-.7,1.6-1.6,1.6h-16c-.9,0-1.5-.7-1.5-1.6v-16Z"/>
  <path class="st0" d="M290.2,189.6h16c1.8,0,3.3-1.5,3.3-3.3v-16c0-1.8-1.5-3.3-3.3-3.3h-16c-1.8,0-3.3,1.5-3.3,3.3v16c0,1.8,1.5,3.3,3.3,3.3ZM288.7,170.3c0-.9.7-1.6,1.5-1.6h16c.9,0,1.6.7,1.6,1.6v16c0,.9-.7,1.6-1.6,1.6h-16c-.9,0-1.5-.7-1.5-1.6v-16Z"/>
  <path class="st0" d="M454.8,155.3h16c1.8,0,3.3-1.5,3.3-3.3v-16c0-1.8-1.5-3.3-3.3-3.3h-16c-1.8,0-3.3,1.5-3.3,3.3v16c0,1.8,1.5,3.3,3.3,3.3ZM453.2,136c0-.9.7-1.5,1.6-1.5h16c.9,0,1.6.7,1.6,1.5v16c0,.9-.7,1.5-1.6,1.5h-16c-.9,0-1.6-.7-1.6-1.5v-16Z"/>
  <path class="st0" d="M478.6,155.3h16c1.8,0,3.3-1.5,3.3-3.3v-16c0-1.8-1.5-3.3-3.3-3.3h-16c-1.8,0-3.3,1.5-3.3,3.3v16c0,1.8,1.5,3.3,3.3,3.3ZM477.1,136c0-.9.7-1.5,1.5-1.5h16c.9,0,1.6.7,1.6,1.5v16c0,.9-.7,1.5-1.6,1.5h-16c-.9,0-1.5-.7-1.5-1.5v-16Z"/>
  <path class="st0" d="M502.5,155.3h16c1.8,0,3.3-1.5,3.3-3.3v-16c0-1.8-1.5-3.3-3.3-3.3h-16c-1.8,0-3.3,1.5-3.3,3.3v16c0,1.8,1.5,3.3,3.3,3.3ZM500.9,136c0-.9.7-1.5,1.5-1.5h16c.9,0,1.5.7,1.5,1.5v16c0,.9-.7,1.5-1.5,1.5h-16c-.9,0-1.5-.7-1.5-1.5v-16Z"/>
  <path class="st0" d="M314.1,189.6h16c1.8,0,3.3-1.5,3.3-3.3v-16c0-1.8-1.5-3.3-3.3-3.3h-16c-1.8,0-3.3,1.5-3.3,3.3v16c0,1.8,1.5,3.3,3.3,3.3ZM312.5,170.3c0-.9.7-1.6,1.5-1.6h16c.9,0,1.5.7,1.5,1.6v16c0,.9-.7,1.6-1.5,1.6h-16c-.9,0-1.5-.7-1.5-1.6v-16Z"/>
  <path class="st0" d="M337.9,189.6h16c1.8,0,3.3-1.5,3.3-3.3v-16c0-1.8-1.5-3.3-3.3-3.3h-16c-1.8,0-3.3,1.5-3.3,3.3v16c0,1.8,1.5,3.3,3.3,3.3ZM336.4,170.3c0-.9.7-1.6,1.5-1.6h16c.9,0,1.5.7,1.5,1.6v16c0,.9-.7,1.6-1.5,1.6h-16c-.9,0-1.5-.7-1.5-1.6v-16Z"/>
  <path class="st0" d="M361.8,189.6h16c1.8,0,3.3-1.5,3.3-3.3v-16c0-1.8-1.5-3.3-3.3-3.3h-16c-1.8,0-3.3,1.5-3.3,3.3v16c0,1.8,1.5,3.3,3.3,3.3ZM360.3,170.3c0-.9.7-1.6,1.6-1.6h16c.9,0,1.5.7,1.5,1.6v16c0,.9-.7,1.6-1.5,1.6h-16c-.9,0-1.6-.7-1.6-1.6v-16Z"/>
  <path class="st0" d="M401.7,189.6c1.8,0,3.3-1.5,3.3-3.3v-16c0-1.8-1.5-3.3-3.3-3.3h-16c-1.8,0-3.3,1.5-3.3,3.3v16c0,1.8,1.5,3.3,3.3,3.3h16ZM384.1,186.3v-16c0-.9.7-1.6,1.6-1.6h16c.9,0,1.6.7,1.6,1.6v16c0,.9-.7,1.6-1.6,1.6h-16c-.9,0-1.6-.7-1.6-1.6Z"/>
  <path class="st0" d="M409.6,167.1c-1.8,0-3.3,1.5-3.3,3.3v16c0,1.8,1.5,3.3,3.3,3.3h16c1.8,0,3.3-1.5,3.3-3.3v-16c0-1.8-1.5-3.3-3.3-3.3h-16ZM427.1,170.3v16c0,.9-.7,1.6-1.6,1.6h-16c-.9,0-1.5-.7-1.5-1.6v-16c0-.9.7-1.6,1.5-1.6h16c.9,0,1.6.7,1.6,1.6Z"/>
  <path class="st0" d="M112.1,234.1v-16c0-1.8-1.5-3.3-3.3-3.3h-21.2c-1.8,0-3.3,1.5-3.3,3.3v16c0,1.8,1.5,3.3,3.3,3.3h21.2c1.8,0,3.3-1.5,3.3-3.3ZM86,234.1v-16c0-.9.7-1.5,1.6-1.5h21.2c.9,0,1.6.7,1.6,1.5v16c0,.9-.7,1.6-1.6,1.6h-21.2c-.9,0-1.6-.7-1.6-1.6Z"/>
  <path class="st0" d="M135.9,234.1v-16c0-1.8-1.5-3.3-3.3-3.3h-16c-1.8,0-3.3,1.5-3.3,3.3v16c0,1.8,1.5,3.3,3.3,3.3h16c1.8,0,3.3-1.5,3.3-3.3ZM115.1,234.1v-16c0-.9.7-1.5,1.5-1.5h16c.9,0,1.6.7,1.6,1.5v16c0,.9-.7,1.6-1.6,1.6h-16c-.9,0-1.5-.7-1.5-1.6Z"/>
  <path class="st0" d="M137.3,218.1v16c0,1.8,1.5,3.3,3.3,3.3h16c1.8,0,3.3-1.5,3.3-3.3v-16c0-1.8-1.5-3.3-3.3-3.3h-16c-1.8,0-3.3,1.5-3.3,3.3ZM158.1,218.1v16c0,.9-.7,1.6-1.5,1.6h-16c-.9,0-1.5-.7-1.5-1.6v-16c0-.9.7-1.5,1.5-1.5h16c.9,0,1.5.7,1.5,1.5Z"/>
  <path class="st0" d="M183.7,234.1v-16c0-1.8-1.5-3.3-3.3-3.3h-16c-1.8,0-3.3,1.5-3.3,3.3v16c0,1.8,1.5,3.3,3.3,3.3h16c1.8,0,3.3-1.5,3.3-3.3ZM162.8,234.1v-16c0-.9.7-1.5,1.5-1.5h16c.9,0,1.5.7,1.5,1.5v16c0,.9-.7,1.6-1.5,1.6h-16c-.9,0-1.5-.7-1.5-1.6Z"/>
  <path class="st0" d="M207.5,234.1v-16c0-1.8-1.5-3.3-3.3-3.3h-16c-1.8,0-3.3,1.5-3.3,3.3v16c0,1.8,1.5,3.3,3.3,3.3h16c1.8,0,3.3-1.5,3.3-3.3ZM186.7,234.1v-16c0-.9.7-1.5,1.6-1.5h16c.9,0,1.5.7,1.5,1.5v16c0,.9-.7,1.6-1.5,1.6h-16c-.9,0-1.6-.7-1.6-1.6Z"/>
  <path class="st0" d="M231.4,234.1v-16c0-1.8-1.5-3.3-3.3-3.3h-16c-1.8,0-3.3,1.5-3.3,3.3v16c0,1.8,1.5,3.3,3.3,3.3h16c1.8,0,3.3-1.5,3.3-3.3ZM210.6,234.1v-16c0-.9.7-1.5,1.6-1.5h16c.9,0,1.6.7,1.6,1.5v16c0,.9-.7,1.6-1.6,1.6h-16c-.9,0-1.6-.7-1.6-1.6Z"/>
  <path class="st0" d="M255.3,234.1v-16c0-1.8-1.5-3.3-3.3-3.3h-16c-1.8,0-3.3,1.5-3.3,3.3v16c0,1.8,1.5,3.3,3.3,3.3h16c1.8,0,3.3-1.5,3.3-3.3ZM234.5,234.1v-16c0-.9.7-1.5,1.6-1.5h16c.9,0,1.6.7,1.6,1.5v16c0,.9-.7,1.6-1.6,1.6h-16c-.9,0-1.6-.7-1.6-1.6Z"/>
  <path class="st0" d="M256.6,218.1v16c0,1.8,1.5,3.3,3.3,3.3h16c1.8,0,3.3-1.5,3.3-3.3v-16c0-1.8-1.5-3.3-3.3-3.3h-16c-1.8,0-3.3,1.5-3.3,3.3ZM277.5,218.1v16c0,.9-.7,1.6-1.6,1.6h-16c-.9,0-1.5-.7-1.5-1.6v-16c0-.9.7-1.5,1.5-1.5h16c.9,0,1.6.7,1.6,1.5Z"/>
  <path class="st0" d="M280.5,218.1v16c0,1.8,1.5,3.3,3.3,3.3h16c1.8,0,3.3-1.5,3.3-3.3v-16c0-1.8-1.5-3.3-3.3-3.3h-16c-1.8,0-3.3,1.5-3.3,3.3ZM301.3,218.1v16c0,.9-.7,1.6-1.5,1.6h-16c-.9,0-1.5-.7-1.5-1.6v-16c0-.9.7-1.5,1.5-1.5h16c.9,0,1.5.7,1.5,1.5Z"/>
  <path class="st0" d="M304.4,218.1v16c0,1.8,1.5,3.3,3.3,3.3h16c1.8,0,3.3-1.5,3.3-3.3v-16c0-1.8-1.5-3.3-3.3-3.3h-16c-1.8,0-3.3,1.5-3.3,3.3ZM325.2,218.1v16c0,.9-.7,1.6-1.5,1.6h-16c-.9,0-1.5-.7-1.5-1.6v-16c0-.9.7-1.5,1.5-1.5h16c.9,0,1.5.7,1.5,1.5Z"/>
  <path class="st0" d="M328.3,218.1v16c0,1.8,1.5,3.3,3.3,3.3h16c1.8,0,3.3-1.5,3.3-3.3v-16c0-1.8-1.5-3.3-3.3-3.3h-16c-1.8,0-3.3,1.5-3.3,3.3ZM349.1,218.1v16c0,.9-.7,1.6-1.5,1.6h-16c-.9,0-1.6-.7-1.6-1.6v-16c0-.9.7-1.5,1.6-1.5h16c.9,0,1.5.7,1.5,1.5Z"/>
  <path class="st0" d="M352.1,218.1v16c0,1.8,1.5,3.3,3.3,3.3h16c1.8,0,3.3-1.5,3.3-3.3v-16c0-1.8-1.5-3.3-3.3-3.3h-16c-1.8,0-3.3,1.5-3.3,3.3ZM373,218.1v16c0,.9-.7,1.6-1.6,1.6h-16c-.9,0-1.6-.7-1.6-1.6v-16c0-.9.7-1.5,1.6-1.5h16c.9,0,1.6.7,1.6,1.5Z"/>
  <path class="st0" d="M376,218.1v16c0,1.8,1.5,3.3,3.3,3.3h16c1.8,0,3.3-1.5,3.3-3.3v-16c0-1.8-1.5-3.3-3.3-3.3h-16c-1.8,0-3.3,1.5-3.3,3.3ZM396.8,218.1v16c0,.9-.7,1.6-1.6,1.6h-16c-.9,0-1.5-.7-1.5-1.6v-16c0-.9.7-1.5,1.5-1.5h16c.9,0,1.6.7,1.6,1.5Z"/>
  <path class="st0" d="M419.2,237.4c1.8,0,3.3-1.5,3.3-3.3v-16c0-1.8-1.5-3.3-3.3-3.3h-16c-1.8,0-3.3,1.5-3.3,3.3v16c0,1.8,1.5,3.3,3.3,3.3h16ZM401.6,234.1v-16c0-.9.7-1.5,1.5-1.5h16c.9,0,1.5.7,1.5,1.5v16c0,.9-.7,1.6-1.5,1.6h-16c-.9,0-1.5-.7-1.5-1.6Z"/>
  <path class="st0" d="M120,238.7h-27.3c-1.8,0-3.3,1.5-3.3,3.3v16c0,1.8,1.5,3.3,3.3,3.3h27.3c1.8,0,3.3-1.5,3.3-3.3v-16c0-1.8-1.5-3.3-3.3-3.3ZM121.6,258c0,.9-.7,1.6-1.6,1.6h-27.3c-.9,0-1.6-.7-1.6-1.6v-16c0-.9.7-1.6,1.6-1.6h27.3c.9,0,1.6.7,1.6,1.6v16Z"/>
  <path class="st0" d="M127.9,261.3h16c1.8,0,3.3-1.5,3.3-3.3v-16c0-1.8-1.5-3.3-3.3-3.3h-16c-1.8,0-3.3,1.5-3.3,3.3v16c0,1.8,1.5,3.3,3.3,3.3ZM126.4,242c0-.9.7-1.6,1.5-1.6h16c.9,0,1.5.7,1.5,1.6v16c0,.9-.7,1.6-1.5,1.6h-16c-.9,0-1.5-.7-1.5-1.6v-16Z"/>
  <path class="st0" d="M151.8,238.7c-1.8,0-3.3,1.5-3.3,3.3v16c0,1.8,1.5,3.3,3.3,3.3h16c1.8,0,3.3-1.5,3.3-3.3v-16c0-1.8-1.5-3.3-3.3-3.3h-16ZM169.4,242v16c0,.9-.7,1.6-1.5,1.6h-16c-.9,0-1.5-.7-1.5-1.6v-16c0-.9.7-1.6,1.5-1.6h16c.9,0,1.5.7,1.5,1.6Z"/>
  <path class="st0" d="M175.7,261.3h16c1.8,0,3.3-1.5,3.3-3.3v-16c0-1.8-1.5-3.3-3.3-3.3h-16c-1.8,0-3.3,1.5-3.3,3.3v16c0,1.8,1.5,3.3,3.3,3.3ZM174.1,242c0-.9.7-1.6,1.6-1.6h16c.9,0,1.5.7,1.5,1.6v16c0,.9-.7,1.6-1.5,1.6h-16c-.9,0-1.6-.7-1.6-1.6v-16Z"/>
  <path class="st0" d="M199.6,261.3h16c1.8,0,3.3-1.5,3.3-3.3v-16c0-1.8-1.5-3.3-3.3-3.3h-16c-1.8,0-3.3,1.5-3.3,3.3v16c0,1.8,1.5,3.3,3.3,3.3ZM198,242c0-.9.7-1.6,1.6-1.6h16c.9,0,1.6.7,1.6,1.6v16c0,.9-.7,1.6-1.6,1.6h-16c-.9,0-1.6-.7-1.6-1.6v-16Z"/>
  <path class="st0" d="M223.4,261.3h16c1.8,0,3.3-1.5,3.3-3.3v-16c0-1.8-1.5-3.3-3.3-3.3h-16c-1.8,0-3.3,1.5-3.3,3.3v16c0,1.8,1.5,3.3,3.3,3.3ZM221.9,242c0-.9.7-1.6,1.6-1.6h16c.9,0,1.6.7,1.6,1.6v16c0,.9-.7,1.6-1.6,1.6h-16c-.9,0-1.6-.7-1.6-1.6v-16Z"/>
  <path class="st0" d="M247.3,261.3h16c1.8,0,3.3-1.5,3.3-3.3v-16c0-1.8-1.5-3.3-3.3-3.3h-16c-1.8,0-3.3,1.5-3.3,3.3v16c0,1.8,1.5,3.3,3.3,3.3ZM245.7,242c0-.9.7-1.6,1.5-1.6h16c.9,0,1.6.7,1.6,1.6v16c0,.9-.7,1.6-1.6,1.6h-16c-.9,0-1.5-.7-1.5-1.6v-16Z"/>
  <path class="st0" d="M271.2,238.7c-1.8,0-3.3,1.5-3.3,3.3v16c0,1.8,1.5,3.3,3.3,3.3h16c1.8,0,3.3-1.5,3.3-3.3v-16c0-1.8-1.5-3.3-3.3-3.3h-16ZM288.7,242v16c0,.9-.7,1.6-1.5,1.6h-16c-.9,0-1.5-.7-1.5-1.6v-16c0-.9.7-1.6,1.5-1.6h16c.9,0,1.5.7,1.5,1.6Z"/>
  <path class="st0" d="M295.1,238.7c-1.8,0-3.3,1.5-3.3,3.3v16c0,1.8,1.5,3.3,3.3,3.3h16c1.8,0,3.3-1.5,3.3-3.3v-16c0-1.8-1.5-3.3-3.3-3.3h-16ZM312.6,242v16c0,.9-.7,1.6-1.5,1.6h-16c-.9,0-1.6-.7-1.6-1.6v-16c0-.9.7-1.6,1.6-1.6h16c.9,0,1.5.7,1.5,1.6Z"/>
  <path class="st0" d="M318.9,238.7c-1.8,0-3.3,1.5-3.3,3.3v16c0,1.8,1.5,3.3,3.3,3.3h16c1.8,0,3.3-1.5,3.3-3.3v-16c0-1.8-1.5-3.3-3.3-3.3h-16ZM336.5,242v16c0,.9-.7,1.6-1.5,1.6h-16c-.9,0-1.6-.7-1.6-1.6v-16c0-.9.7-1.6,1.6-1.6h16c.9,0,1.5.7,1.5,1.6Z"/>
  <path class="st0" d="M342.8,238.7h0c-1.8,0-3.3,1.5-3.3,3.3v16c0,1.8,1.5,3.3,3.3,3.3h16c1.8,0,3.3-1.5,3.3-3.3v-16c0-1.8-1.5-3.3-3.3-3.3h-16ZM360.4,242v16c0,.9-.7,1.6-1.6,1.6h-16c-.9,0-1.6-.7-1.6-1.6v-16c0-.9.7-1.6,1.6-1.6h16c.9,0,1.6.7,1.6,1.6Z"/>
  <path class="st0" d="M382.7,238.7h-16c-1.8,0-3.3,1.5-3.3,3.3v16c0,1.8,1.5,3.3,3.3,3.3h16c1.8,0,3.3-1.5,3.3-3.3v-16c0-1.8-1.5-3.3-3.3-3.3ZM384.2,258c0,.9-.7,1.6-1.6,1.6h-16c-.9,0-1.5-.7-1.5-1.6v-16c0-.9.7-1.6,1.5-1.6h16c.9,0,1.6.7,1.6,1.6v16Z"/>
  <path class="st0" d="M419.4,238.7h-28.9c-1.8,0-3.3,1.5-3.3,3.3v16c0,1.8,1.5,3.3,3.3,3.3h28.9c1.8,0,3.3-1.5,3.3-3.3v-16c0-1.8-1.5-3.3-3.3-3.3ZM421,258c0,.9-.7,1.6-1.6,1.6h-28.9c-.9,0-1.5-.7-1.5-1.6v-16c0-.9.7-1.6,1.5-1.6h28.9c.9,0,1.6.7,1.6,1.6v16Z"/>
  <path class="st0" d="M143.9,262.6h-16c-1.8,0-3.3,1.5-3.3,3.3v16c0,1.8,1.5,3.3,3.3,3.3h16c1.8,0,3.3-1.5,3.3-3.3v-16c0-1.8-1.5-3.3-3.3-3.3ZM145.5,281.9c0,.9-.7,1.5-1.6,1.5h-16c-.9,0-1.6-.7-1.6-1.5v-16c0-.9.7-1.5,1.6-1.5h16c.9,0,1.6.7,1.6,1.5v16Z"/>
  <path class="st0" d="M167.8,262.6h-16c-1.8,0-3.3,1.5-3.3,3.3v16c0,1.8,1.5,3.3,3.3,3.3h16c1.8,0,3.3-1.5,3.3-3.3v-16c0-1.8-1.5-3.3-3.3-3.3ZM169.4,281.9c0,.9-.7,1.5-1.6,1.5h-16c-.9,0-1.6-.7-1.6-1.5v-16c0-.9.7-1.5,1.6-1.5h16c.9,0,1.6.7,1.6,1.5v16Z"/>
  <path class="st0" d="M362,262.6h-186.3c-1.8,0-3.3,1.5-3.3,3.3v16c0,1.8,1.5,3.3,3.3,3.3h186.3c1.8,0,3.3-1.5,3.3-3.3v-16c0-1.8-1.5-3.3-3.3-3.3ZM363.5,281.9c0,.9-.7,1.5-1.6,1.5h-186.3c-.9,0-1.5-.7-1.5-1.5v-16c0-.9.7-1.5,1.5-1.5h186.3c.9,0,1.6.7,1.6,1.5v16Z"/>
  <path class="st0" d="M105.7,211.1h.2v-16.9c0-1.8-1.5-3.3-3.3-3.3h-22c-1.8,0-3.3,1.5-3.3,3.3v16c0,1.8,1.5,3.3,3.3,3.3h22c1.5,0,2.7-1,3.1-2.4ZM79,210.2v-16c0-.9.7-1.5,1.6-1.5h22c.9,0,1.6.7,1.6,1.5v16c0,.9-.7,1.5-1.6,1.5h-22c-.9,0-1.6-.7-1.6-1.5Z"/>
  <path class="st0" d="M107.2,194.2v16c0,1.8,1.5,3.3,3.3,3.3h16c1.8,0,3.3-1.5,3.3-3.3v-16c0-1.8-1.5-3.3-3.3-3.3h-16c-1.8,0-3.3,1.5-3.3,3.3ZM128.1,194.2v16c0,.9-.7,1.5-1.6,1.5h-16c-.9,0-1.6-.7-1.6-1.5v-16c0-.9.7-1.5,1.6-1.5h16c.9,0,1.6.7,1.6,1.5Z"/>
  <path class="st0" d="M150.4,191h-16c-1.8,0-3.3,1.5-3.3,3.3v16c0,1.8,1.5,3.3,3.3,3.3h16c1.8,0,3.3-1.5,3.3-3.3v-16c0-1.8-1.5-3.3-3.3-3.3ZM151.9,210.2c0,.9-.7,1.5-1.6,1.5h-16c-.9,0-1.5-.7-1.5-1.5v-16c0-.9.7-1.5,1.5-1.5h16c.9,0,1.6.7,1.6,1.5v16Z"/>
  <path class="st0" d="M155,194.2v16c0,1.8,1.5,3.3,3.3,3.3h16c1.8,0,3.3-1.5,3.3-3.3v-16c0-1.8-1.5-3.3-3.3-3.3h-16c-1.8,0-3.3,1.5-3.3,3.3ZM175.8,194.2v16c0,.9-.7,1.5-1.5,1.5h-16c-.9,0-1.5-.7-1.5-1.5v-16c0-.9.7-1.5,1.5-1.5h16c.9,0,1.5.7,1.5,1.5Z"/>
  <path class="st0" d="M178.8,194.2v16c0,1.8,1.5,3.3,3.3,3.3h16c1.8,0,3.3-1.5,3.3-3.3v-16c0-1.8-1.5-3.3-3.3-3.3h-16c-1.8,0-3.3,1.5-3.3,3.3ZM199.7,194.2v16c0,.9-.7,1.5-1.5,1.5h-16c-.9,0-1.5-.7-1.5-1.5v-16c0-.9.7-1.5,1.5-1.5h16c.9,0,1.5.7,1.5,1.5Z"/>
  <path class="st0" d="M202.7,194.2v16c0,1.8,1.5,3.3,3.3,3.3h16c1.8,0,3.3-1.5,3.3-3.3v-16c0-1.8-1.5-3.3-3.3-3.3h-16c-1.8,0-3.3,1.5-3.3,3.3ZM223.5,194.2v16c0,.9-.7,1.5-1.5,1.5h-16c-.9,0-1.6-.7-1.6-1.5v-16c0-.9.7-1.5,1.6-1.5h16c.9,0,1.5.7,1.5,1.5Z"/>
  <path class="st0" d="M226.6,194.2v16c0,1.8,1.5,3.3,3.3,3.3h16c1.8,0,3.3-1.5,3.3-3.3v-16c0-1.8-1.5-3.3-3.3-3.3h-16c-1.8,0-3.3,1.5-3.3,3.3ZM247.4,194.2v16c0,.9-.7,1.5-1.6,1.5h-16c-.9,0-1.6-.7-1.6-1.5v-16c0-.9.7-1.5,1.6-1.5h16c.9,0,1.6.7,1.6,1.5Z"/>
  <path class="st0" d="M269.7,191h-16c-1.8,0-3.3,1.5-3.3,3.3v16c0,1.8,1.5,3.3,3.3,3.3h16c1.8,0,3.3-1.5,3.3-3.3v-16c0-1.8-1.5-3.3-3.3-3.3ZM271.3,210.2c0,.9-.7,1.5-1.6,1.5h-16c-.9,0-1.5-.7-1.5-1.5v-16c0-.9.7-1.5,1.5-1.5h16c.9,0,1.6.7,1.6,1.5v16Z"/>
  <path class="st0" d="M293.6,191h-16c-1.8,0-3.3,1.5-3.3,3.3v16c0,1.8,1.5,3.3,3.3,3.3h16c1.8,0,3.3-1.5,3.3-3.3v-16c0-1.8-1.5-3.3-3.3-3.3ZM295.2,210.2c0,.9-.7,1.5-1.6,1.5h-16c-.9,0-1.5-.7-1.5-1.5v-16c0-.9.7-1.5,1.5-1.5h16c.9,0,1.6.7,1.6,1.5v16Z"/>
  <path class="st0" d="M317.5,191h-16c-1.8,0-3.3,1.5-3.3,3.3v16c0,1.8,1.5,3.3,3.3,3.3h16c1.8,0,3.3-1.5,3.3-3.3v-16c0-1.8-1.5-3.3-3.3-3.3ZM319,210.2c0,.9-.7,1.5-1.5,1.5h-16c-.9,0-1.5-.7-1.5-1.5v-16c0-.9.7-1.5,1.5-1.5h16c.9,0,1.5.7,1.5,1.5v16Z"/>
  <path class="st0" d="M341.4,191h-16c-1.8,0-3.3,1.5-3.3,3.3v16c0,1.8,1.5,3.3,3.3,3.3h16c1.8,0,3.3-1.5,3.3-3.3v-16c0-1.8-1.5-3.3-3.3-3.3ZM342.9,210.2c0,.9-.7,1.5-1.5,1.5h-16c-.9,0-1.5-.7-1.5-1.5v-16c0-.9.7-1.5,1.5-1.5h16c.9,0,1.5.7,1.5,1.5v16Z"/>
  <path class="st0" d="M365.2,191h-16c-1.8,0-3.3,1.5-3.3,3.3v16c0,1.8,1.5,3.3,3.3,3.3h16c1.8,0,3.3-1.5,3.3-3.3v-16c0-1.8-1.5-3.3-3.3-3.3ZM366.8,210.2c0,.9-.7,1.5-1.5,1.5h-16c-.9,0-1.6-.7-1.6-1.5v-16c0-.9.7-1.5,1.6-1.5h16c.9,0,1.5.7,1.5,1.5v16Z"/>
  <path class="st0" d="M369.8,194.2v16c0,1.8,1.5,3.3,3.3,3.3h16c1.8,0,3.3-1.5,3.3-3.3v-16c0-1.8-1.5-3.3-3.3-3.3h-16c-1.8,0-3.3,1.5-3.3,3.3ZM390.7,194.2v16c0,.9-.7,1.5-1.6,1.5h-16c-.9,0-1.6-.7-1.6-1.5v-16c0-.9.7-1.5,1.6-1.5h16c.9,0,1.6.7,1.6,1.5Z"/>
  <path class="st0" d="M425.5,191h-28.5c-1.8,0-3.3,1.5-3.3,3.3v16c0,1.8,1.5,3.3,3.3,3.3h28.5c1.8,0,3.3-1.5,3.3-3.3v-16c0-1.8-1.5-3.3-3.3-3.3ZM427,210.2c0,.9-.7,1.5-1.5,1.5h-28.5c-.9,0-1.5-.7-1.5-1.5v-16c0-.9.7-1.5,1.5-1.5h28.5c.9,0,1.5.7,1.5,1.5v16Z"/>
  <path class="st0" d="M96.8,154.5h25.7c1.8,0,3.3-1.5,3.3-3.3v-16c0-1.8-1.5-3.3-3.3-3.3h-25.7c-1.8,0-3.3,1.5-3.3,3.3v16c0,1.8,1.5,3.3,3.3,3.3ZM95.2,135.2c0-.9.7-1.5,1.5-1.5h25.7c.9,0,1.5.7,1.5,1.5v16c0,.9-.7,1.5-1.5,1.5h-25.7c-.9,0-1.5-.7-1.5-1.5v-16Z"/>
  <path class="st0" d="M131.9,154.5h25.7c1.8,0,3.3-1.5,3.3-3.3v-16c0-1.8-1.5-3.3-3.3-3.3h-25.7c-1.8,0-3.3,1.5-3.3,3.3v16c0,1.8,1.5,3.3,3.3,3.3ZM130.4,135.2c0-.9.7-1.5,1.6-1.5h25.7c.9,0,1.6.7,1.6,1.5v16c0,.9-.7,1.5-1.6,1.5h-25.7c-.9,0-1.6-.7-1.6-1.5v-16Z"/>
  <path class="st0" d="M167.1,154.5h25.7c1.8,0,3.3-1.5,3.3-3.3v-16c0-1.8-1.5-3.3-3.3-3.3h-25.7c-1.8,0-3.3,1.5-3.3,3.3v16c0,1.8,1.5,3.3,3.3,3.3ZM165.5,135.2c0-.9.7-1.5,1.5-1.5h25.7c.9,0,1.5.7,1.5,1.5v16c0,.9-.7,1.5-1.5,1.5h-25.7c-.9,0-1.5-.7-1.5-1.5v-16Z"/>
  <path class="st0" d="M202.2,154.5h25.7c1.8,0,3.3-1.5,3.3-3.3v-16c0-1.8-1.5-3.3-3.3-3.3h-25.7c-1.8,0-3.3,1.5-3.3,3.3v16c0,1.8,1.5,3.3,3.3,3.3ZM200.7,135.2c0-.9.7-1.5,1.6-1.5h25.7c.9,0,1.6.7,1.6,1.5v16c0,.9-.7,1.5-1.6,1.5h-25.7c-.9,0-1.6-.7-1.6-1.5v-16Z"/>
  <path class="st0" d="M237.4,154.5h25.7c1.8,0,3.3-1.5,3.3-3.3v-16c0-1.8-1.5-3.3-3.3-3.3h-25.7c-1.8,0-3.3,1.5-3.3,3.3v16c0,1.8,1.5,3.3,3.3,3.3ZM235.8,135.2c0-.9.7-1.5,1.5-1.5h25.7c.9,0,1.5.7,1.5,1.5v16c0,.9-.7,1.5-1.5,1.5h-25.7c-.9,0-1.5-.7-1.5-1.5v-16Z"/>
  <path class="st0" d="M361.9,154.5h25.7c1.8,0,3.3-1.5,3.3-3.3v-16c0-1.8-1.5-3.3-3.3-3.3h-25.7c-1.8,0-3.3,1.5-3.3,3.3v16c0,1.8,1.5,3.3,3.3,3.3ZM360.3,135.2c0-.9.7-1.5,1.6-1.5h25.7c.9,0,1.5.7,1.5,1.5v16c0,.9-.7,1.5-1.5,1.5h-25.7c-.9,0-1.6-.7-1.6-1.5v-16Z"/>
  <path class="st0" d="M397,154.5h25.7c1.8,0,3.3-1.5,3.3-3.3v-16c0-1.8-1.5-3.3-3.3-3.3h-25.7c-1.8,0-3.3,1.5-3.3,3.3v16c0,1.8,1.5,3.3,3.3,3.3ZM395.5,135.2c0-.9.7-1.5,1.5-1.5h25.7c.9,0,1.5.7,1.5,1.5v16c0,.9-.7,1.5-1.5,1.5h-25.7c-.9,0-1.5-.7-1.5-1.5v-16Z"/>
  <path class="st0" d="M476.5,257.6c5.5,5.5,14.5,5.5,20,0l24.7-24.7c5.5-5.5,5.5-14.5,0-20h0s-24.3-24.3-24.3-24.3c-2.8-2.8-6.4-4.1-10-4.1h0c-3.6,0-7.3,1.4-10,4.1l-24.7,24.7c-5.5,5.5-5.5,14.5,0,20l24.3,24.3ZM494,255.7c-4.1,4.1-10.7,4.1-14.7,0l-11.6-11.6,19-19h0l19,19-11.6,11.6ZM519.2,215.8c4.1,4.1,4.1,10.7,0,14.7l-11.6,11.6-19-19,19-19,11.6,11.6ZM479.3,190.6c2-2,4.7-3,7.4-3h0c2.7,0,5.3,1,7.4,3l11.6,11.6-19,19-19-19,11.6-11.6ZM454.1,215.8l11.6-11.6h0s19,19,19,19l-19,19-11.6-11.6c-4.1-4.1-4.1-10.7,0-14.7Z"/>
  <path class="st0" d="M451.6,263.9h70.1c3.1,0,5.7-2.6,5.7-5.7v-70.1c0-3.1-2.6-5.7-5.7-5.7h-70.1c-3.1,0-5.7,2.6-5.7,5.7v70.1c0,3.1,2.6,5.7,5.7,5.7ZM447.6,188.1c0-2.2,1.8-4,4-4h70.1c2.2,0,4,1.8,4,4v70.1c0,2.2-1.8,4-4,4h-70.1c-2.2,0-4-1.8-4-4v-70.1Z"/>
  <path class="st0" d="M77.2,147.9h9.1c.9,0,1.7-.8,1.7-1.7v-7c0-.9-.7-1.7-1.7-1.7h-9.1c-.9,0-1.7.8-1.7,1.7v7c0,.9.7,1.7,1.7,1.7ZM77.3,139.3h9v6.9h-9v-6.9Z"/>
  <path class="st0" d="M68.1,228.7h7.8c.9,0,1.7-.7,1.7-1.7v-2.7c0-.9-.7-1.7-1.7-1.7h-7.8c-.9,0-1.7.8-1.7,1.7v2.7c0,.9.8,1.7,1.7,1.7Z"/>
  <path class="st0" d="M431.8,222.7h7.8c.9,0,1.7.7,1.7,1.7v2.7c0,.9-.7,1.7-1.7,1.7h-7.8c-.9,0-1.7-.7-1.7-1.7v-2.7c0-.9.7-1.7,1.7-1.7Z"/>
  <path class="st0" d="M369.4,62.3h.5c.9,0,1.7-.8,1.7-1.7v-14.2c0-.9-.7-1.7-1.7-1.7h-.5c-.9,0-1.7.8-1.7,1.7v14.2c0,.9.7,1.7,1.7,1.7ZM369.5,46.5h.4v14.1h-.4v-14.1Z"/>
  <path class="st0" d="M474.3,62.3h.5c.9,0,1.7-.7,1.7-1.7v-14.2c0-.9-.7-1.7-1.7-1.7h-.5c-.9,0-1.7.8-1.7,1.7v14.2c0,.9.7,1.7,1.7,1.7ZM474.3,46.5h.4v14.1h-.4v-14.1Z"/>
</svg>