<?xml version="1.0" encoding="UTF-8"?>
<svg id="Layer_3" xmlns="http://www.w3.org/2000/svg" version="1.1" viewBox="0 0 598.2 350.3">
  <!-- Generator: Adobe Illustrator 29.0.1, SVG Export Plug-In . SVG Version: 2.1.0 Build 192)  -->
  <defs>
    <style>
      .st0 {
        fill: none;
        stroke: #f4f4f4;
        stroke-miterlimit: 10;
        stroke-width: 2px;
      }
    </style>
  </defs>
  <rect class="st0" x="104.3" y="149.9" width="306.6" height="133.4" rx="4.4" ry="4.4"/>
  <rect class="st0" x="144.7" y="172" width="22.3" height="22.3" rx="4.1" ry="4.1"/>
  <rect class="st0" x="115.1" y="172" width="22.3" height="40.2" rx="4.1" ry="4.1"/>
  <rect class="st0" x="376.1" y="172" width="22.3" height="40.2" rx="4.1" ry="4.1"/>
  <rect class="st0" x="173.6" y="172" width="22.3" height="22.3" rx="4.1" ry="4.1"/>
  <rect class="st0" x="202.6" y="172" width="22.3" height="22.3" rx="4.1" ry="4.1"/>
  <rect class="st0" x="231.6" y="172" width="22.3" height="22.3" rx="4.1" ry="4.1"/>
  <rect class="st0" x="260.6" y="172" width="22.3" height="22.3" rx="4.1" ry="4.1"/>
  <rect class="st0" x="289.6" y="172" width="22.3" height="22.3" rx="4.1" ry="4.1"/>
  <rect class="st0" x="318.5" y="172" width="22.3" height="22.3" rx="4.1" ry="4.1"/>
  <rect class="st0" x="347.5" y="172" width="22.3" height="22.3" rx="4.1" ry="4.1"/>
  <rect class="st0" x="144.7" y="202" width="22.3" height="22.3" rx="4.1" ry="4.1"/>
  <rect class="st0" x="173.6" y="202" width="22.3" height="22.3" rx="4.1" ry="4.1"/>
  <rect class="st0" x="202.6" y="202" width="22.3" height="22.3" rx="4.1" ry="4.1"/>
  <rect class="st0" x="231.6" y="202" width="22.3" height="22.3" rx="4.1" ry="4.1"/>
  <rect class="st0" x="260.6" y="202" width="22.3" height="22.3" rx="4.1" ry="4.1"/>
  <rect class="st0" x="289.6" y="202" width="22.3" height="22.3" rx="4.1" ry="4.1"/>
  <rect class="st0" x="318.5" y="202" width="22.3" height="22.3" rx="4.1" ry="4.1"/>
  <rect class="st0" x="347.5" y="202" width="22.3" height="22.3" rx="4.1" ry="4.1"/>
  <rect class="st0" x="271.7" y="242.9" width="77.3" height="22.3" rx="4.1" ry="4.1"/>
  <rect class="st0" x="425.5" y="169.5" width="56.2" height="19.7" rx="4.1" ry="4.1"/>
  <rect class="st0" x="415.7" y="204" width="77.3" height="79.3" rx="4.1" ry="4.1"/>
  <rect class="st0" x="415.7" y="147.5" width="77.3" height="51.7" rx="4.1" ry="4.1"/>
  <rect class="st0" x="157.3" y="242.9" width="77.3" height="22.3" rx="4.1" ry="4.1"/>
  <circle class="st0" cx="454.8" cy="243.6" r="23"/>
  <circle class="st0" cx="456.2" cy="243.6" r="8.8"/>
  <circle class="st0" cx="456.2" cy="243.6" r="2.4"/>
  <line class="st0" x1="410.8" y1="33.2" x2="410.8" y2="91.9"/>
  <line class="st0" x1="420.5" y1="33.2" x2="420.5" y2="91.9"/>
  <line class="st0" x1="430.2" y1="33.2" x2="430.2" y2="91.9"/>
  <line class="st0" x1="439.9" y1="33.2" x2="439.9" y2="91.9"/>
  <line class="st0" x1="449.6" y1="33.2" x2="449.6" y2="91.9"/>
  <line class="st0" x1="459.2" y1="33.2" x2="459.2" y2="91.9"/>
  <line class="st0" x1="468.9" y1="33.2" x2="468.9" y2="91.9"/>
  <line class="st0" x1="478.6" y1="33.2" x2="478.6" y2="91.9"/>
  <line class="st0" x1="488.3" y1="33.2" x2="488.3" y2="91.9"/>
  <line class="st0" x1="498" y1="33.2" x2="498" y2="91.9"/>
  <line class="st0" x1="507.7" y1="33.2" x2="507.7" y2="91.9"/>
  <path class="st0" d="M517.4,91.9v-58.7h19.8s5.5.1,5.5,5.5,3.8,91,3.8,91v11.5l-1.9,72-2.9,93.8v10s.7,6-.9,7.7-1.2,3.1-5.2,3.1h-170.9l-236.3-1.6-60.1-.3s-7.3-.4-9.3-2.4-1.8-4.7-1.8-7.8-5-172-5-172v-16.6l1.9-51.7,1.6-38.6s0-4.7,4.7-4.7h347.2l1.6,1.1"/>
  <path class="st0" d="M90.3,322.5l-5.5-182.2s.6-6.3,7.6-6.3h412.2s8.5-1.2,8.5,8.5-1.8,52.3-1.8,52.3l-3.3,83.3-1.7,49.6"/>
  <rect class="st0" x="210.4" y="49.8" width="174.5" height="56.1"/>
</svg>