<?xml version="1.0" encoding="UTF-8"?>
<svg id="Layer_2" xmlns="http://www.w3.org/2000/svg" version="1.1" xmlns:cc="http://creativecommons.org/ns#" xmlns:dc="http://purl.org/dc/elements/1.1/" xmlns:rdf="http://www.w3.org/1999/02/22-rdf-syntax-ns#" viewBox="0 0 598.2 350.3">
  <!-- Generator: Adobe Illustrator 29.0.1, SVG Export Plug-In . SVG Version: 2.1.0 Build 192)  -->
  <defs>
    <style>
      .st0 {
        fill: none;
        stroke: #f4f4f4;
        stroke-miterlimit: 10;
        stroke-width: 2px;
      }
    </style>
  </defs>
  <rect class="st0" x="243.6" y="85.8" width="112.6" height="132.5"/>
  <path class="st0" d="M242.7,64.4s-4.4.4-10.2,25.4c-5.7,25-11.9,37.4-9.7,76.6s13.7,57.3,13.7,57.3c0,0,4,7.1,25.8,12.1s66.3,0,66.3,0c0,0,24.5-2.7,33.1-11.3,8.6-8.6,15.2-56.1,15.2-56.1,0,0,1.5-26.5-1.5-42.4s-9.7-44.8-13.5-51.7-6.8-10.8-6.8-10.8"/>
  <path class="st0" d="M408.5,77.1s4.1-1.5,10.6-1.1c6.5.4,15,.1,17.2,1.1s4.6,4.8,2.8,6.6-8.7,6.2-13.8,8.3-9.3,3.7-9.3,3.7"/>
  <path class="st0" d="M418.2,102.7s-10.3,3.2-17.8,8.3-7.6,7.3-7.6,7.3c0,0-1,4.1,5.9,5.2,6.8,1.1,33.1,0,33.1,0l39.1-5.1,11.5-1.7s5.2-.9,5.2-3.9-3.3-13.1-4.1-16.1-4.6-6.6-7.1-6.5-58.2,12.5-58.2,12.5Z"/>
  <path class="st0" d="M451.3,96.4s2.3,4.4,3.9,10.7,2.5,13,2.5,13"/>
  <path class="st0" d="M460,127.2s2.4,9.9,2.4,16.7v10.8"/>
  <path class="st0" d="M425,130.7s-13.3,1.5-19.5,4.4-8.7,5.9-9.6,7.3-2.1,4.5,1,6.1,8.2,5.1,18.8,5.6c10.6.6,49.8.7,49.8.7l23.6-.8s4.7,0,5-3.8-2-16.8-2-16.8l-.7-3.6s-.7-4.4-4.4-4.4-30.4,1.9-30.4,1.9l-31.6,3.4Z"/>
  <path class="st0" d="M427.8,161c-.8,0-17.4.9-22.4,2.4s-7.1,2.5-9.5,5.3-2.7,4.3-1.6,6.1,5,5,9.1,6.3c8,2.5,21.6,5.9,24.2,5.9s48,3.7,48,3.7c0,0,13,1.2,15.9,1,2.9-.2,5.5-1.9,5.5-3.8v-20.3s-.2-4.3-3.1-5.2-66.2-1.4-66.2-1.4Z"/>
  <path class="st0" d="M462.4,162.5s-.1,8.7-.4,12.7-.7,12.8-1.4,14.4"/>
  <path class="st0" d="M426.1,192.3c-1,.3-10.7-1.4-18.9-.5-8.2.9-12.4,2.4-13.2,3.6s-2.8,5,1.7,8.9,35.1,14.5,35.1,14.5l26,6.8s7.7,2.3,12.8-.7l5.1-3,14-13.8s2.1-5.1-3.5-6.9-59.1-8.8-59.1-8.8Z"/>
  <path class="st0" d="M459,196.8s-.3,4.9-2.2,10.8-4.4,12.5-5.4,14.3-1.3,1.9-1.3,1.9"/>
  <path class="st0" d="M438.6,231l-25.3-4.3s-8.7-1.3-16.9,0-8.8,5.3-8.9,6.2-.7,4.3,5.9,9.6,16,10.9,16,10.9c0,0,3.3,1.4,6.2.5,3-.9,26.7-12.4,26.7-12.4,0,0,4.7-1.9,3.4-6.3s-7-4.1-7-4.1Z"/>
  <path class="st0" d="M102.9,163.2l10.7-64.1s1-10.2,15.5-10.2,48.6,13.7,48.6,13.7c0,0,18.8,8.1,27.7,25.5s-13.8,31.1-13.8,31.1c0,0-12.8,8.7-27.7,10.2s-38.7,2.2-38.7,2.2c0,0-11.8,0-15.5-.7s-7.4-3.8-6.8-7.6Z"/>
  <path class="st0" d="M179.6,102.8l2.5-6.6s13,2.8,16.2,3.3.7.3,3.5.6,8-.2,9.2-2.7-.3-5.4-4.7-9.1-15.2-10-15.2-10c0,0-2.1-1.4-5.7-1.3s-20,1.1-20,1.1c0,0-3.2-.1-4.8,2.1s-.7,5.7-.7,5.7c0,0,4.8,3.7,9.6,5.3s12.4,5,12.4,5"/>
  <path class="st0" d="M190.4,77s.2-1.6,3-5.8,6.2-6.5,6.2-6.5"/>
  <path class="st0" d="M85.2,184.2s-1.3,21.2,15.7,35.8,62.7,48.6,140.2,62.9,154.4-9.3,154.4-9.3c0,0,54.3-17.7,88.8-44.4s28.3-40.2,28.3-40.2c0,0,2.2-10.6-3.3-45.3-5.5-34.7-8.6-49.7-13-59.6s-9.9-14.4-16.6-15.9-44.8-4.2-87.7-4.9-154.4-.9-171.8,0-91.7,6.2-91.7,6.2c0,0-23-.4-27.6,15.7s-10.8,50.8-10.8,50.8l-4.9,48.1Z"/>
  <path class="st0" d="M133.8,181.3l-26.7,3.9s-6.4.4-4.7,7.8,7.6,15.3,7.6,15.3c0,0,4.4,5.9,8,8s8.3,2.1,11.3,2h3.1c0-.1,46.7-13.4,46.7-13.4,0,0,13.7-5.6,18.1-8.2,4.4-2.5,8.3-6.8,8.2-10.5s-6-6.1-10.5-6.6-13.3-1.8-29.3-1c-11.4.6-22.8,1.7-28.3,2.3s-3.5.4-3.5.4Z"/>
  <path class="st0" d="M136.7,181s.1,8.9,2,17.4,5.1,16.6,5.1,16.6"/>
  <path class="st0" d="M169.5,168.5s1.6,30.5,7.4,46.4c5.7,15.9,12.1,35.9,16.3,40.6,4.3,4.7,26.8,11.5,30.5,12.5s50.7,12.8,87.2,9.6c36.5-3.2,69.8-10.2,81-14.6s13.4-6.5,15-8.7,16.2-35.9,18.7-52,6.6-47.1,0-75.5c-6.6-28.4-9.6-31.2-9.6-31.2,0,0-6.8,1.7-13.8,2.8s-8.5,1.2-11.3.6-3.5-.9-3.1-3.4,2.9-7.2,10.7-12.1,9.6-5.9,9.6-5.9c0,0,.4-1.3-1.5-4.3s-4.9-6.8-4.9-6.8l-1.3-3.2"/>
  <path class="st0" d="M182.4,229.2s19.4-3.3,28.5,2.1c9.1,5.4-18.6,22.2-18.6,22.2,0,0-2.4,1.8-3.5,1.9s-2.4.8-7.4-1.5-25.1-11.5-25.1-11.5c0,0-2.4-.7-2.1-4.6s5.4-4.5,5.4-4.5l22.8-4.2Z"/>
  <circle class="st0" cx="158" cy="133.4" r="29.8"/>
  <polygon class="st0" points="158 110.1 160.5 112.6 155.5 112.6 158 110.1"/>
  <polygon class="st0" points="158.7 156.9 156.2 154.4 161.2 154.4 158.7 156.9"/>
  <polygon class="st0" points="135.3 133.8 137.8 131.3 137.8 136.3 135.3 133.8"/>
  <polygon class="st0" points="182.1 133 179.6 135.6 179.6 130.5 182.1 133"/>
</svg>