<?xml version="1.0" encoding="UTF-8"?>
<svg xmlns="http://www.w3.org/2000/svg" version="1.1" xmlns:cc="http://creativecommons.org/ns#" xmlns:dc="http://purl.org/dc/elements/1.1/" xmlns:inkscape="http://www.inkscape.org/namespaces/inkscape" xmlns:rdf="http://www.w3.org/1999/02/22-rdf-syntax-ns#" xmlns:sodipodi="http://sodipodi.sourceforge.net/DTD/sodipodi-0.dtd" xmlns:svg="http://www.w3.org/2000/svg" viewBox="0 0 598.9 351">
  <!-- Generator: Adobe Illustrator 29.0.1, SVG Export Plug-In . SVG Version: 2.1.0 Build 192)  -->
  <defs>
    <style>
      .st0 {
        fill: none;
        stroke: #f4f4f4;
        stroke-miterlimit: 10;
        stroke-width: 2px;
      }

      .st1 {
        fill: #f4f4f4;
      }
    </style>
  </defs>
  <g id="svg9136" inkscape:version="0.91 r13725">
    <g>
      <path class="st1" d="M378,257.6h-154.4c-2.2,0-4.1-1.8-4.1-4.1V43.6c0-2.2,1.8-4.1,4.1-4.1h154.4c2.2,0,4.1,1.8,4.1,4.1v209.9c0,2.2-1.8,4.1-4.1,4.1ZM223.6,41.6c-1.1,0-2.1.9-2.1,2.1v209.9c0,1.1.9,2.1,2.1,2.1h154.4c1.1,0,2.1-.9,2.1-2.1V43.6c0-1.1-.9-2.1-2.1-2.1h-154.4Z"/>
      <path class="st1" d="M323.9,326.2c-1.9,0-3.9,0-6,0-20.9-.5-44.5-5.8-65.3-10.4-7.2-1.6-14-3.1-20.3-4.4-17.8-3.5-30.1-2.9-30.2-2.9h0c-8.4,0-10.1-4.9-10.1-8.9V25.7c0-6.2,5-11.2,11.2-11.2h192.6c6.2,0,11.2,5,11.2,11.2v273.9c0,5.9-3,7.4-9.5,10.5l-1.2.6c-.6.3-1.4.7-2.2,1.1-8.6,4.4-28.3,14.5-70,14.5ZM204.8,306.4c4.6,0,14.8.4,27.9,2.9,6.3,1.2,13.2,2.8,20.4,4.4,20.7,4.7,44.2,9.9,64.9,10.4,45.3,1,66.2-9.7,75-14.2.9-.4,1.6-.8,2.3-1.1l1.2-.6c6.4-3.1,8.4-4,8.4-8.7V25.7c0-5.1-4.1-9.2-9.2-9.2h-192.6c-5.1,0-9.2,4.1-9.2,9.2v273.9c0,4.7,2.6,7,8,7,0,0,1,0,2.7,0Z"/>
      <path class="st0" d="M243.1,325.2"/>
      <path class="st1" d="M229,299.6c-6.6,0-11.9-5.4-11.9-11.9s5.4-11.9,11.9-11.9,11.9,5.4,11.9,11.9-5.4,11.9-11.9,11.9ZM229,277.8c-5.5,0-9.9,4.5-9.9,9.9s4.5,9.9,9.9,9.9,9.9-4.5,9.9-9.9-4.5-9.9-9.9-9.9Z"/>
      <path class="st1" d="M264.8,299.6c-6.6,0-11.9-5.4-11.9-11.9s5.4-11.9,11.9-11.9,11.9,5.4,11.9,11.9-5.4,11.9-11.9,11.9ZM264.8,277.8c-5.5,0-9.9,4.5-9.9,9.9s4.5,9.9,9.9,9.9,9.9-4.5,9.9-9.9-4.5-9.9-9.9-9.9Z"/>
      <path class="st1" d="M334.1,299.6c-6.6,0-11.9-5.4-11.9-11.9s5.4-11.9,11.9-11.9,11.9,5.4,11.9,11.9-5.4,11.9-11.9,11.9ZM334.1,277.8c-5.5,0-9.9,4.5-9.9,9.9s4.5,9.9,9.9,9.9,9.9-4.5,9.9-9.9-4.5-9.9-9.9-9.9Z"/>
      <path class="st1" d="M369.9,299.6c-6.6,0-11.9-5.4-11.9-11.9s5.4-11.9,11.9-11.9,11.9,5.4,11.9,11.9-5.4,11.9-11.9,11.9ZM369.9,277.8c-5.5,0-9.9,4.5-9.9,9.9s4.5,9.9,9.9,9.9,9.9-4.5,9.9-9.9-4.5-9.9-9.9-9.9Z"/>
      <path class="st1" d="M310.1,286.8h-19.8c-1.5,0-2.7-1.2-2.7-2.7v-4.4c0-1.4,1.1-2.6,2.5-2.7.8-.2,5.3-1.3,9.8-1.3s9.5,1.1,10.3,1.3c1.4,0,2.5,1.3,2.5,2.7v4.4c0,1.5-1.2,2.7-2.7,2.7ZM299.9,277.8c-4.6,0-9.3,1.3-9.4,1.3h-.3c-.4,0-.7.3-.7.7v4.4c0,.4.3.7.7.7h19.8c.4,0,.7-.3.7-.7v-4.4c0-.4-.3-.7-.7-.7h-.3c0,0-4.6-1.3-9.9-1.3Z"/>
      <path class="st1" d="M299.9,307.4c-4.5,0-9-1.1-9.8-1.3-1.4,0-2.5-1.2-2.5-2.7v-4.4c0-1.5,1.2-2.7,2.7-2.7h19.8c1.5,0,2.7,1.2,2.7,2.7v4.4c0,1.4-1.1,2.6-2.5,2.7-.8.2-5.2,1.3-10.3,1.3ZM290.3,298.4c-.4,0-.7.3-.7.7v4.4c0,.4.3.7.7.7h.3s4.8,1.3,9.4,1.3,9.8-1.3,9.9-1.3h.3c.4,0,.7-.3.7-.7v-4.4c0-.4-.3-.7-.7-.7h-19.8Z"/>
      <path class="st1" d="M203.8,298.4h-7.4c-1.8,0-3.2-1.4-3.2-3.2v-14.2c0-1.8,1.4-3.2,3.2-3.2h7.4c1.8,0,3.2,1.4,3.2,3.2v14.2c0,1.8-1.4,3.2-3.2,3.2ZM196.4,279.7c-.7,0-1.2.5-1.2,1.2v14.2c0,.7.5,1.2,1.2,1.2h7.4c.7,0,1.2-.5,1.2-1.2v-14.2c0-.7-.5-1.2-1.2-1.2h-7.4Z"/>
      <path class="st1" d="M391.5,333.4h-188c-4,0-7.2-3.2-7.2-7.2v-19.5h2v19.5c0,2.9,2.3,5.2,5.2,5.2h188c2.9,0,5.2-2.3,5.2-5.2v-17.5h2v17.5c0,4-3.2,7.2-7.2,7.2Z"/>
      <path class="st1" d="M347.3,252.9h-93.1c-2,0-3.6-1.6-3.6-3.6v-42.6c0-2,1.6-3.6,3.6-3.6h93.1c2,0,3.6,1.6,3.6,3.6v42.6c0,2-1.6,3.6-3.6,3.6ZM254.2,205.2c-.9,0-1.6.7-1.6,1.6v42.6c0,.9.7,1.6,1.6,1.6h93.1c.9,0,1.6-.7,1.6-1.6v-42.6c0-.9-.7-1.6-1.6-1.6h-93.1Z"/>
      <path class="st1" d="M365.3,223.1c-5.2,0-9.5-4.3-9.5-9.5s4.3-9.5,9.5-9.5,9.5,4.3,9.5,9.5-4.3,9.5-9.5,9.5ZM365.3,206.1c-4.1,0-7.5,3.4-7.5,7.5s3.4,7.5,7.5,7.5,7.5-3.4,7.5-7.5-3.4-7.5-7.5-7.5Z"/>
      <path class="st1" d="M365.3,250.6c-5.2,0-9.5-4.3-9.5-9.5s4.3-9.5,9.5-9.5,9.5,4.3,9.5,9.5-4.3,9.5-9.5,9.5ZM365.3,233.6c-4.1,0-7.5,3.4-7.5,7.5s3.4,7.5,7.5,7.5,7.5-3.4,7.5-7.5-3.4-7.5-7.5-7.5Z"/>
      <path class="st1" d="M235.6,223.1c-5.2,0-9.5-4.3-9.5-9.5s4.3-9.5,9.5-9.5,9.5,4.3,9.5,9.5-4.3,9.5-9.5,9.5ZM235.6,206.1c-4.1,0-7.5,3.4-7.5,7.5s3.4,7.5,7.5,7.5,7.5-3.4,7.5-7.5-3.4-7.5-7.5-7.5Z"/>
      <path class="st1" d="M235.6,250.6c-5.2,0-9.5-4.3-9.5-9.5s4.3-9.5,9.5-9.5,9.5,4.3,9.5,9.5-4.3,9.5-9.5,9.5ZM235.6,233.6c-4.1,0-7.5,3.4-7.5,7.5s3.4,7.5,7.5,7.5,7.5-3.4,7.5-7.5-3.4-7.5-7.5-7.5Z"/>
      <rect class="st1" x="220.5" y="198.8" width="160.5" height="2"/>
    </g>
  </g>
</svg>