<?xml version="1.0" encoding="UTF-8"?>
<svg xmlns="http://www.w3.org/2000/svg" version="1.1" xmlns:cc="http://creativecommons.org/ns#" xmlns:dc="http://purl.org/dc/elements/1.1/" xmlns:rdf="http://www.w3.org/1999/02/22-rdf-syntax-ns#" xmlns:xlink="http://www.w3.org/1999/xlink" viewBox="0 0 598.2 350.3">
  <!-- Generator: Adobe Illustrator 29.0.1, SVG Export Plug-In . SVG Version: 2.1.0 Build 192)  -->
  <defs>
    <style>
      .st0 {
        display: none;
      }

      .st1 {
        fill: #f4f4f4;
      }
    </style>
  </defs>
  <g id="Layer_2" class="st0">
    <image width="2000" height="1275" transform="translate(-3 -43.1) scale(.3)" xlink:href="X:\Emulation stuff\custom theme\consoles cut out\pc88.webp"/>
  </g>
  <g id="Layer_3">
    <path id="rect4179-31-1-3" class="st1" d="M64,151.9c0,3.1,2.5,5.6,5.6,5.6h13.2c3.1,0,5.6-2.5,5.6-5.6v-12.4c0-3.1-2.5-5.6-5.6-5.6h-13.2c-3.1,0-5.6,2.5-5.6,5.6v12.4ZM65.2,151.9v-12.4c0-2.5,2-4.4,4.4-4.4h13.2c2.5,0,4.4,2,4.4,4.4v12.4c0,2.5-2,4.4-4.4,4.4h-13.2c-2.5,0-4.4-2-4.4-4.4Z"/>
    <path id="rect4179-31-1-31" data-name="rect4179-31-1-3" class="st1" d="M35.9,151.9c0,3.1,2.5,5.6,5.6,5.6h13.2c3.1,0,5.6-2.5,5.6-5.6v-12.4c0-3.1-2.5-5.6-5.6-5.6h-13.2c-3.1,0-5.6,2.5-5.6,5.6v12.4ZM37.1,151.9v-12.4c0-2.5,2-4.4,4.4-4.4h13.2c2.5,0,4.4,2,4.4,4.4v12.4c0,2.5-2,4.4-4.4,4.4h-13.2c-2.5,0-4.4-2-4.4-4.4Z"/>
    <path id="rect4179-31-1-32" data-name="rect4179-31-1-3" class="st1" d="M120.2,151.9c0,3.1,2.5,5.6,5.6,5.6h13.2c3.1,0,5.6-2.5,5.6-5.6v-12.4c0-3.1-2.5-5.6-5.6-5.6h-13.2c-3.1,0-5.6,2.5-5.6,5.6v12.4ZM121.4,151.9v-12.4c0-2.5,2-4.4,4.4-4.4h13.2c2.5,0,4.4,2,4.4,4.4v12.4c0,2.5-2,4.4-4.4,4.4h-13.2c-2.5,0-4.4-2-4.4-4.4Z"/>
    <path id="rect4179-31-1-33" data-name="rect4179-31-1-3" class="st1" d="M92.1,151.9c0,3.1,2.5,5.6,5.6,5.6h13.2c3.1,0,5.6-2.5,5.6-5.6v-12.4c0-3.1-2.5-5.6-5.6-5.6h-13.2c-3.1,0-5.6,2.5-5.6,5.6v12.4ZM93.3,151.9v-12.4c0-2.5,2-4.4,4.4-4.4h13.2c2.5,0,4.4,2,4.4,4.4v12.4c0,2.5-2,4.4-4.4,4.4h-13.2c-2.5,0-4.4-2-4.4-4.4Z"/>
    <path id="rect4179-31-1-34" data-name="rect4179-31-1-3" class="st1" d="M473.7,151.9c0,3.1,2.5,5.6,5.6,5.6h13.2c3.1,0,5.6-2.5,5.6-5.6v-12.4c0-3.1-2.5-5.6-5.6-5.6h-13.2c-3.1,0-5.6,2.5-5.6,5.6v12.4ZM474.8,151.9v-12.4c0-2.5,2-4.4,4.4-4.4h13.2c2.5,0,4.4,2,4.4,4.4v12.4c0,2.5-2,4.4-4.4,4.4h-13.2c-2.5,0-4.4-2-4.4-4.4Z"/>
    <path id="rect4179-31-1-35" data-name="rect4179-31-1-3" class="st1" d="M445.6,151.9c0,3.1,2.5,5.6,5.6,5.6h13.2c3.1,0,5.6-2.5,5.6-5.6v-12.4c0-3.1-2.5-5.6-5.6-5.6h-13.2c-3.1,0-5.6,2.5-5.6,5.6v12.4ZM446.7,151.9v-12.4c0-2.5,2-4.4,4.4-4.4h13.2c2.5,0,4.4,2,4.4,4.4v12.4c0,2.5-2,4.4-4.4,4.4h-13.2c-2.5,0-4.4-2-4.4-4.4Z"/>
    <path id="rect4179-31-1-36" data-name="rect4179-31-1-3" class="st1" d="M529.9,151.9c0,3.1,2.5,5.6,5.6,5.6h13.2c3.1,0,5.6-2.5,5.6-5.6v-12.4c0-3.1-2.5-5.6-5.6-5.6h-13.2c-3.1,0-5.6,2.5-5.6,5.6v12.4ZM531,151.9v-12.4c0-2.5,2-4.4,4.4-4.4h13.2c2.5,0,4.4,2,4.4,4.4v12.4c0,2.5-2,4.4-4.4,4.4h-13.2c-2.5,0-4.4-2-4.4-4.4Z"/>
    <path id="rect4179-31-1-37" data-name="rect4179-31-1-3" class="st1" d="M501.8,151.9c0,3.1,2.5,5.6,5.6,5.6h13.2c3.1,0,5.6-2.5,5.6-5.6v-12.4c0-3.1-2.5-5.6-5.6-5.6h-13.2c-3.1,0-5.6,2.5-5.6,5.6v12.4ZM502.9,151.9v-12.4c0-2.5,2-4.4,4.4-4.4h13.2c2.5,0,4.4,2,4.4,4.4v12.4c0,2.5-2,4.4-4.4,4.4h-13.2c-2.5,0-4.4-2-4.4-4.4Z"/>
    <path id="rect4179-31-1-38" data-name="rect4179-31-1-3" class="st1" d="M473.7,178.6c0,3.1,2.5,5.6,5.6,5.6h13.2c3.1,0,5.6-2.5,5.6-5.6v-12.4c0-3.1-2.5-5.6-5.6-5.6h-13.2c-3.1,0-5.6,2.5-5.6,5.6v12.4ZM474.8,178.6v-12.4c0-2.5,2-4.4,4.4-4.4h13.2c2.5,0,4.4,2,4.4,4.4v12.4c0,2.5-2,4.4-4.4,4.4h-13.2c-2.5,0-4.4-2-4.4-4.4Z"/>
    <path id="rect4179-31-1-39" data-name="rect4179-31-1-3" class="st1" d="M445.6,178.6c0,3.1,2.5,5.6,5.6,5.6h13.2c3.1,0,5.6-2.5,5.6-5.6v-12.4c0-3.1-2.5-5.6-5.6-5.6h-13.2c-3.1,0-5.6,2.5-5.6,5.6v12.4ZM446.7,178.6v-12.4c0-2.5,2-4.4,4.4-4.4h13.2c2.5,0,4.4,2,4.4,4.4v12.4c0,2.5-2,4.4-4.4,4.4h-13.2c-2.5,0-4.4-2-4.4-4.4Z"/>
    <path id="rect4179-31-1-310" data-name="rect4179-31-1-3" class="st1" d="M529.9,178.6c0,3.1,2.5,5.6,5.6,5.6h13.2c3.1,0,5.6-2.5,5.6-5.6v-12.4c0-3.1-2.5-5.6-5.6-5.6h-13.2c-3.1,0-5.6,2.5-5.6,5.6v12.4ZM531,178.6v-12.4c0-2.5,2-4.4,4.4-4.4h13.2c2.5,0,4.4,2,4.4,4.4v12.4c0,2.5-2,4.4-4.4,4.4h-13.2c-2.5,0-4.4-2-4.4-4.4Z"/>
    <path id="rect4179-31-1-311" data-name="rect4179-31-1-3" class="st1" d="M501.8,178.6c0,3.1,2.5,5.6,5.6,5.6h13.2c3.1,0,5.6-2.5,5.6-5.6v-12.4c0-3.1-2.5-5.6-5.6-5.6h-13.2c-3.1,0-5.6,2.5-5.6,5.6v12.4ZM502.9,178.6v-12.4c0-2.5,2-4.4,4.4-4.4h13.2c2.5,0,4.4,2,4.4,4.4v12.4c0,2.5-2,4.4-4.4,4.4h-13.2c-2.5,0-4.4-2-4.4-4.4Z"/>
    <path id="rect4179-31-1-312" data-name="rect4179-31-1-3" class="st1" d="M473.7,205.2c0,3.1,2.5,5.6,5.6,5.6h13.2c3.1,0,5.6-2.5,5.6-5.6v-12.4c0-3.1-2.5-5.6-5.6-5.6h-13.2c-3.1,0-5.6,2.5-5.6,5.6v12.4ZM474.8,205.2v-12.4c0-2.5,2-4.4,4.4-4.4h13.2c2.5,0,4.4,2,4.4,4.4v12.4c0,2.5-2,4.4-4.4,4.4h-13.2c-2.5,0-4.4-2-4.4-4.4Z"/>
    <path id="rect4179-31-1-313" data-name="rect4179-31-1-3" class="st1" d="M445.6,205.2c0,3.1,2.5,5.6,5.6,5.6h13.2c3.1,0,5.6-2.5,5.6-5.6v-12.4c0-3.1-2.5-5.6-5.6-5.6h-13.2c-3.1,0-5.6,2.5-5.6,5.6v12.4ZM446.7,205.2v-12.4c0-2.5,2-4.4,4.4-4.4h13.2c2.5,0,4.4,2,4.4,4.4v12.4c0,2.5-2,4.4-4.4,4.4h-13.2c-2.5,0-4.4-2-4.4-4.4Z"/>
    <path id="rect4179-31-1-314" data-name="rect4179-31-1-3" class="st1" d="M529.9,205.2c0,3.1,2.5,5.6,5.6,5.6h13.2c3.1,0,5.6-2.5,5.6-5.6v-12.4c0-3.1-2.5-5.6-5.6-5.6h-13.2c-3.1,0-5.6,2.5-5.6,5.6v12.4ZM531,205.2v-12.4c0-2.5,2-4.4,4.4-4.4h13.2c2.5,0,4.4,2,4.4,4.4v12.4c0,2.5-2,4.4-4.4,4.4h-13.2c-2.5,0-4.4-2-4.4-4.4Z"/>
    <path id="rect4179-31-1-315" data-name="rect4179-31-1-3" class="st1" d="M501.8,205.2c0,3.1,2.5,5.6,5.6,5.6h13.2c3.1,0,5.6-2.5,5.6-5.6v-12.4c0-3.1-2.5-5.6-5.6-5.6h-13.2c-3.1,0-5.6,2.5-5.6,5.6v12.4ZM502.9,205.2v-12.4c0-2.5,2-4.4,4.4-4.4h13.2c2.5,0,4.4,2,4.4,4.4v12.4c0,2.5-2,4.4-4.4,4.4h-13.2c-2.5,0-4.4-2-4.4-4.4Z"/>
    <path id="rect4179-31-1-316" data-name="rect4179-31-1-3" class="st1" d="M473.7,231.6c0,3.1,2.5,5.6,5.6,5.6h13.2c3.1,0,5.6-2.5,5.6-5.6v-12.4c0-3.1-2.5-5.6-5.6-5.6h-13.2c-3.1,0-5.6,2.5-5.6,5.6v12.4ZM474.8,231.6v-12.4c0-2.5,2-4.4,4.4-4.4h13.2c2.5,0,4.4,2,4.4,4.4v12.4c0,2.5-2,4.4-4.4,4.4h-13.2c-2.5,0-4.4-2-4.4-4.4Z"/>
    <path id="rect4179-31-1-317" data-name="rect4179-31-1-3" class="st1" d="M445.6,231.6c0,3.1,2.5,5.6,5.6,5.6h13.2c3.1,0,5.6-2.5,5.6-5.6v-12.4c0-3.1-2.5-5.6-5.6-5.6h-13.2c-3.1,0-5.6,2.5-5.6,5.6v12.4ZM446.7,231.6v-12.4c0-2.5,2-4.4,4.4-4.4h13.2c2.5,0,4.4,2,4.4,4.4v12.4c0,2.5-2,4.4-4.4,4.4h-13.2c-2.5,0-4.4-2-4.4-4.4Z"/>
    <path id="rect4179-31-1-318" data-name="rect4179-31-1-3" class="st1" d="M529.9,231.6c0,3.1,2.5,5.6,5.6,5.6h13.2c3.1,0,5.6-2.5,5.6-5.6v-12.4c0-3.1-2.5-5.6-5.6-5.6h-13.2c-3.1,0-5.6,2.5-5.6,5.6v12.4ZM531,231.6v-12.4c0-2.5,2-4.4,4.4-4.4h13.2c2.5,0,4.4,2,4.4,4.4v12.4c0,2.5-2,4.4-4.4,4.4h-13.2c-2.5,0-4.4-2-4.4-4.4Z"/>
    <path id="rect4179-31-1-319" data-name="rect4179-31-1-3" class="st1" d="M501.8,231.6c0,3.1,2.5,5.6,5.6,5.6h13.2c3.1,0,5.6-2.5,5.6-5.6v-12.4c0-3.1-2.5-5.6-5.6-5.6h-13.2c-3.1,0-5.6,2.5-5.6,5.6v12.4ZM502.9,231.6v-12.4c0-2.5,2-4.4,4.4-4.4h13.2c2.5,0,4.4,2,4.4,4.4v12.4c0,2.5-2,4.4-4.4,4.4h-13.2c-2.5,0-4.4-2-4.4-4.4Z"/>
    <path id="rect4179-31-1-320" data-name="rect4179-31-1-3" class="st1" d="M473.7,259.3c0,3.1,2.5,5.6,5.6,5.6h13.2c3.1,0,5.6-2.5,5.6-5.6v-12.4c0-3.1-2.5-5.6-5.6-5.6h-13.2c-3.1,0-5.6,2.5-5.6,5.6v12.4ZM474.8,259.3v-12.4c0-2.5,2-4.4,4.4-4.4h13.2c2.5,0,4.4,2,4.4,4.4v12.4c0,2.5-2,4.4-4.4,4.4h-13.2c-2.5,0-4.4-2-4.4-4.4Z"/>
    <path id="rect4179-31-1-321" data-name="rect4179-31-1-3" class="st1" d="M445.6,259.3c0,3.1,2.5,5.6,5.6,5.6h13.2c3.1,0,5.6-2.5,5.6-5.6v-12.4c0-3.1-2.5-5.6-5.6-5.6h-13.2c-3.1,0-5.6,2.5-5.6,5.6v12.4ZM446.7,259.3v-12.4c0-2.5,2-4.4,4.4-4.4h13.2c2.5,0,4.4,2,4.4,4.4v12.4c0,2.5-2,4.4-4.4,4.4h-13.2c-2.5,0-4.4-2-4.4-4.4Z"/>
    <path id="rect4179-31-1-322" data-name="rect4179-31-1-3" class="st1" d="M529.9,259.3c0,3.1,2.5,5.6,5.6,5.6h13.2c3.1,0,5.6-2.5,5.6-5.6v-12.4c0-3.1-2.5-5.6-5.6-5.6h-13.2c-3.1,0-5.6,2.5-5.6,5.6v12.4ZM531,259.3v-12.4c0-2.5,2-4.4,4.4-4.4h13.2c2.5,0,4.4,2,4.4,4.4v12.4c0,2.5-2,4.4-4.4,4.4h-13.2c-2.5,0-4.4-2-4.4-4.4Z"/>
    <path id="rect4179-31-1-323" data-name="rect4179-31-1-3" class="st1" d="M501.8,259.3c0,3.1,2.5,5.6,5.6,5.6h13.2c3.1,0,5.6-2.5,5.6-5.6v-12.4c0-3.1-2.5-5.6-5.6-5.6h-13.2c-3.1,0-5.6,2.5-5.6,5.6v12.4ZM502.9,259.3v-12.4c0-2.5,2-4.4,4.4-4.4h13.2c2.5,0,4.4,2,4.4,4.4v12.4c0,2.5-2,4.4-4.4,4.4h-13.2c-2.5,0-4.4-2-4.4-4.4Z"/>
    <path id="rect4179-31-1-324" data-name="rect4179-31-1-3" class="st1" d="M176.5,151.9c0,3.1,2.5,5.6,5.6,5.6h13.2c3.1,0,5.6-2.5,5.6-5.6v-12.4c0-3.1-2.5-5.6-5.6-5.6h-13.2c-3.1,0-5.6,2.5-5.6,5.6v12.4ZM177.6,151.9v-12.4c0-2.5,2-4.4,4.4-4.4h13.2c2.5,0,4.4,2,4.4,4.4v12.4c0,2.5-2,4.4-4.4,4.4h-13.2c-2.5,0-4.4-2-4.4-4.4Z"/>
    <path id="rect4179-31-1-325" data-name="rect4179-31-1-3" class="st1" d="M148.3,151.9c0,3.1,2.5,5.6,5.6,5.6h13.2c3.1,0,5.6-2.5,5.6-5.6v-12.4c0-3.1-2.5-5.6-5.6-5.6h-13.2c-3.1,0-5.6,2.5-5.6,5.6v12.4ZM149.5,151.9v-12.4c0-2.5,2-4.4,4.4-4.4h13.2c2.5,0,4.4,2,4.4,4.4v12.4c0,2.5-2,4.4-4.4,4.4h-13.2c-2.5,0-4.4-2-4.4-4.4Z"/>
    <path id="rect4179-31-1-326" data-name="rect4179-31-1-3" class="st1" d="M232.7,151.9c0,3.1,2.5,5.6,5.6,5.6h13.2c3.1,0,5.6-2.5,5.6-5.6v-12.4c0-3.1-2.5-5.6-5.6-5.6h-13.2c-3.1,0-5.6,2.5-5.6,5.6v12.4ZM233.8,151.9v-12.4c0-2.5,2-4.4,4.4-4.4h13.2c2.5,0,4.4,2,4.4,4.4v12.4c0,2.5-2,4.4-4.4,4.4h-13.2c-2.5,0-4.4-2-4.4-4.4Z"/>
    <path id="rect4179-31-1-327" data-name="rect4179-31-1-3" class="st1" d="M204.6,151.9c0,3.1,2.5,5.6,5.6,5.6h13.2c3.1,0,5.6-2.5,5.6-5.6v-12.4c0-3.1-2.5-5.6-5.6-5.6h-13.2c-3.1,0-5.6,2.5-5.6,5.6v12.4ZM205.7,151.9v-12.4c0-2.5,2-4.4,4.4-4.4h13.2c2.5,0,4.4,2,4.4,4.4v12.4c0,2.5-2,4.4-4.4,4.4h-13.2c-2.5,0-4.4-2-4.4-4.4Z"/>
    <path id="rect4179-31-1-328" data-name="rect4179-31-1-3" class="st1" d="M288.9,151.9c0,3.1,2.5,5.6,5.6,5.6h13.2c3.1,0,5.6-2.5,5.6-5.6v-12.4c0-3.1-2.5-5.6-5.6-5.6h-13.2c-3.1,0-5.6,2.5-5.6,5.6v12.4ZM290,151.9v-12.4c0-2.5,2-4.4,4.4-4.4h13.2c2.5,0,4.4,2,4.4,4.4v12.4c0,2.5-2,4.4-4.4,4.4h-13.2c-2.5,0-4.4-2-4.4-4.4Z"/>
    <path id="rect4179-31-1-329" data-name="rect4179-31-1-3" class="st1" d="M260.8,151.9c0,3.1,2.5,5.6,5.6,5.6h13.2c3.1,0,5.6-2.5,5.6-5.6v-12.4c0-3.1-2.5-5.6-5.6-5.6h-13.2c-3.1,0-5.6,2.5-5.6,5.6v12.4ZM261.9,151.9v-12.4c0-2.5,2-4.4,4.4-4.4h13.2c2.5,0,4.4,2,4.4,4.4v12.4c0,2.5-2,4.4-4.4,4.4h-13.2c-2.5,0-4.4-2-4.4-4.4Z"/>
    <path id="rect4179-31-1-330" data-name="rect4179-31-1-3" class="st1" d="M345.1,151.9c0,3.1,2.5,5.6,5.6,5.6h13.2c3.1,0,5.6-2.5,5.6-5.6v-12.4c0-3.1-2.5-5.6-5.6-5.6h-13.2c-3.1,0-5.6,2.5-5.6,5.6v12.4ZM346.2,151.9v-12.4c0-2.5,2-4.4,4.4-4.4h13.2c2.5,0,4.4,2,4.4,4.4v12.4c0,2.5-2,4.4-4.4,4.4h-13.2c-2.5,0-4.4-2-4.4-4.4Z"/>
    <path id="rect4179-31-1-331" data-name="rect4179-31-1-3" class="st1" d="M317,151.9c0,3.1,2.5,5.6,5.6,5.6h13.2c3.1,0,5.6-2.5,5.6-5.6v-12.4c0-3.1-2.5-5.6-5.6-5.6h-13.2c-3.1,0-5.6,2.5-5.6,5.6v12.4ZM318.1,151.9v-12.4c0-2.5,2-4.4,4.4-4.4h13.2c2.5,0,4.4,2,4.4,4.4v12.4c0,2.5-2,4.4-4.4,4.4h-13.2c-2.5,0-4.4-2-4.4-4.4Z"/>
    <path id="rect4179-31-1-332" data-name="rect4179-31-1-3" class="st1" d="M401.3,151.9c0,3.1,2.5,5.6,5.6,5.6h13.2c3.1,0,5.6-2.5,5.6-5.6v-12.4c0-3.1-2.5-5.6-5.6-5.6h-13.2c-3.1,0-5.6,2.5-5.6,5.6v12.4ZM402.4,151.9v-12.4c0-2.5,2-4.4,4.4-4.4h13.2c2.5,0,4.4,2,4.4,4.4v12.4c0,2.5-2,4.4-4.4,4.4h-13.2c-2.5,0-4.4-2-4.4-4.4Z"/>
    <path id="rect4179-31-1-333" data-name="rect4179-31-1-3" class="st1" d="M373.2,151.9c0,3.1,2.5,5.6,5.6,5.6h13.2c3.1,0,5.6-2.5,5.6-5.6v-12.4c0-3.1-2.5-5.6-5.6-5.6h-13.2c-3.1,0-5.6,2.5-5.6,5.6v12.4ZM374.3,151.9v-12.4c0-2.5,2-4.4,4.4-4.4h13.2c2.5,0,4.4,2,4.4,4.4v12.4c0,2.5-2,4.4-4.4,4.4h-13.2c-2.5,0-4.4-2-4.4-4.4Z"/>
    <g>
      <path id="rect4179-31-1-334" data-name="rect4179-31-1-3" class="st1" d="M87.2,204.1c0,3.1,2.5,5.6,5.6,5.6h13.2c3.1,0,5.6-2.5,5.6-5.6v-12.4c0-3.1-2.5-5.6-5.6-5.6h-13.2c-3.1,0-5.6,2.5-5.6,5.6v12.4ZM88.4,204.1v-12.4c0-2.5,2-4.4,4.4-4.4h13.2c2.5,0,4.4,2,4.4,4.4v12.4c0,2.5-2,4.4-4.4,4.4h-13.2c-2.5,0-4.4-2-4.4-4.4Z"/>
      <path id="rect4179-31-1-335" data-name="rect4179-31-1-3" class="st1" d="M59.1,204.1c0,3.1,2.5,5.6,5.6,5.6h13.2c3.1,0,5.6-2.5,5.6-5.6v-12.4c0-3.1-2.5-5.6-5.6-5.6h-13.2c-3.1,0-5.6,2.5-5.6,5.6v12.4ZM60.3,204.1v-12.4c0-2.5,2-4.4,4.4-4.4h13.2c2.5,0,4.4,2,4.4,4.4v12.4c0,2.5-2,4.4-4.4,4.4h-13.2c-2.5,0-4.4-2-4.4-4.4Z"/>
      <path id="rect4179-31-1-336" data-name="rect4179-31-1-3" class="st1" d="M143.5,204.1c0,3.1,2.5,5.6,5.6,5.6h13.2c3.1,0,5.6-2.5,5.6-5.6v-12.4c0-3.1-2.5-5.6-5.6-5.6h-13.2c-3.1,0-5.6,2.5-5.6,5.6v12.4ZM144.6,204.1v-12.4c0-2.5,2-4.4,4.4-4.4h13.2c2.5,0,4.4,2,4.4,4.4v12.4c0,2.5-2,4.4-4.4,4.4h-13.2c-2.5,0-4.4-2-4.4-4.4Z"/>
      <path id="rect4179-31-1-337" data-name="rect4179-31-1-3" class="st1" d="M115.3,204.1c0,3.1,2.5,5.6,5.6,5.6h13.2c3.1,0,5.6-2.5,5.6-5.6v-12.4c0-3.1-2.5-5.6-5.6-5.6h-13.2c-3.1,0-5.6,2.5-5.6,5.6v12.4ZM116.5,204.1v-12.4c0-2.5,2-4.4,4.4-4.4h13.2c2.5,0,4.4,2,4.4,4.4v12.4c0,2.5-2,4.4-4.4,4.4h-13.2c-2.5,0-4.4-2-4.4-4.4Z"/>
      <path id="rect4179-31-1-338" data-name="rect4179-31-1-3" class="st1" d="M199.7,204.1c0,3.1,2.5,5.6,5.6,5.6h13.2c3.1,0,5.6-2.5,5.6-5.6v-12.4c0-3.1-2.5-5.6-5.6-5.6h-13.2c-3.1,0-5.6,2.5-5.6,5.6v12.4ZM200.8,204.1v-12.4c0-2.5,2-4.4,4.4-4.4h13.2c2.5,0,4.4,2,4.4,4.4v12.4c0,2.5-2,4.4-4.4,4.4h-13.2c-2.5,0-4.4-2-4.4-4.4Z"/>
      <path id="rect4179-31-1-339" data-name="rect4179-31-1-3" class="st1" d="M171.6,204.1c0,3.1,2.5,5.6,5.6,5.6h13.2c3.1,0,5.6-2.5,5.6-5.6v-12.4c0-3.1-2.5-5.6-5.6-5.6h-13.2c-3.1,0-5.6,2.5-5.6,5.6v12.4ZM172.7,204.1v-12.4c0-2.5,2-4.4,4.4-4.4h13.2c2.5,0,4.4,2,4.4,4.4v12.4c0,2.5-2,4.4-4.4,4.4h-13.2c-2.5,0-4.4-2-4.4-4.4Z"/>
      <path id="rect4179-31-1-340" data-name="rect4179-31-1-3" class="st1" d="M255.9,204.1c0,3.1,2.5,5.6,5.6,5.6h13.2c3.1,0,5.6-2.5,5.6-5.6v-12.4c0-3.1-2.5-5.6-5.6-5.6h-13.2c-3.1,0-5.6,2.5-5.6,5.6v12.4ZM257,204.1v-12.4c0-2.5,2-4.4,4.4-4.4h13.2c2.5,0,4.4,2,4.4,4.4v12.4c0,2.5-2,4.4-4.4,4.4h-13.2c-2.5,0-4.4-2-4.4-4.4Z"/>
      <path id="rect4179-31-1-341" data-name="rect4179-31-1-3" class="st1" d="M227.8,204.1c0,3.1,2.5,5.6,5.6,5.6h13.2c3.1,0,5.6-2.5,5.6-5.6v-12.4c0-3.1-2.5-5.6-5.6-5.6h-13.2c-3.1,0-5.6,2.5-5.6,5.6v12.4ZM228.9,204.1v-12.4c0-2.5,2-4.4,4.4-4.4h13.2c2.5,0,4.4,2,4.4,4.4v12.4c0,2.5-2,4.4-4.4,4.4h-13.2c-2.5,0-4.4-2-4.4-4.4Z"/>
      <path id="rect4179-31-1-342" data-name="rect4179-31-1-3" class="st1" d="M312.1,204.1c0,3.1,2.5,5.6,5.6,5.6h13.2c3.1,0,5.6-2.5,5.6-5.6v-12.4c0-3.1-2.5-5.6-5.6-5.6h-13.2c-3.1,0-5.6,2.5-5.6,5.6v12.4ZM313.2,204.1v-12.4c0-2.5,2-4.4,4.4-4.4h13.2c2.5,0,4.4,2,4.4,4.4v12.4c0,2.5-2,4.4-4.4,4.4h-13.2c-2.5,0-4.4-2-4.4-4.4Z"/>
      <path id="rect4179-31-1-343" data-name="rect4179-31-1-3" class="st1" d="M284,204.1c0,3.1,2.5,5.6,5.6,5.6h13.2c3.1,0,5.6-2.5,5.6-5.6v-12.4c0-3.1-2.5-5.6-5.6-5.6h-13.2c-3.1,0-5.6,2.5-5.6,5.6v12.4ZM285.1,204.1v-12.4c0-2.5,2-4.4,4.4-4.4h13.2c2.5,0,4.4,2,4.4,4.4v12.4c0,2.5-2,4.4-4.4,4.4h-13.2c-2.5,0-4.4-2-4.4-4.4Z"/>
      <path id="rect4179-31-1-344" data-name="rect4179-31-1-3" class="st1" d="M368.3,204.1c0,3.1,2.5,5.6,5.6,5.6h13.2c3.1,0,5.6-2.5,5.6-5.6v-12.4c0-3.1-2.5-5.6-5.6-5.6h-13.2c-3.1,0-5.6,2.5-5.6,5.6v12.4ZM369.4,204.1v-12.4c0-2.5,2-4.4,4.4-4.4h13.2c2.5,0,4.4,2,4.4,4.4v12.4c0,2.5-2,4.4-4.4,4.4h-13.2c-2.5,0-4.4-2-4.4-4.4Z"/>
      <path id="rect4179-31-1-345" data-name="rect4179-31-1-3" class="st1" d="M340.2,204.1c0,3.1,2.5,5.6,5.6,5.6h13.2c3.1,0,5.6-2.5,5.6-5.6v-12.4c0-3.1-2.5-5.6-5.6-5.6h-13.2c-3.1,0-5.6,2.5-5.6,5.6v12.4ZM341.3,204.1v-12.4c0-2.5,2-4.4,4.4-4.4h13.2c2.5,0,4.4,2,4.4,4.4v12.4c0,2.5-2,4.4-4.4,4.4h-13.2c-2.5,0-4.4-2-4.4-4.4Z"/>
      <path id="rect4179-31-1-346" data-name="rect4179-31-1-3" class="st1" d="M396.4,204.1c0,3.1,2.5,5.6,5.6,5.6h13.2c3.1,0,5.6-2.5,5.6-5.6v-12.4c0-3.1-2.5-5.6-5.6-5.6h-13.2c-3.1,0-5.6,2.5-5.6,5.6v12.4ZM397.5,204.1v-12.4c0-2.5,2-4.4,4.4-4.4h13.2c2.5,0,4.4,2,4.4,4.4v12.4c0,2.5-2,4.4-4.4,4.4h-13.2c-2.5,0-4.4-2-4.4-4.4Z"/>
    </g>
    <path id="rect4179-31-1-347" data-name="rect4179-31-1-3" class="st1" d="M76.2,177.5c0,3.1,2.5,5.6,5.6,5.6h13.2c3.1,0,5.6-2.5,5.6-5.6v-12.4c0-3.1-2.5-5.6-5.6-5.6h-13.2c-3.1,0-5.6,2.5-5.6,5.6v12.4ZM77.3,177.5v-12.4c0-2.5,2-4.4,4.4-4.4h13.2c2.5,0,4.4,2,4.4,4.4v12.4c0,2.5-2,4.4-4.4,4.4h-13.2c-2.5,0-4.4-2-4.4-4.4Z"/>
    <path id="rect4179-31-1-348" data-name="rect4179-31-1-3" class="st1" d="M48.1,177.5c0,3.1,2.5,5.6,5.6,5.6h13.2c3.1,0,5.6-2.5,5.6-5.6v-12.4c0-3.1-2.5-5.6-5.6-5.6h-13.2c-3.1,0-5.6,2.5-5.6,5.6v12.4ZM49.2,177.5v-12.4c0-2.5,2-4.4,4.4-4.4h13.2c2.5,0,4.4,2,4.4,4.4v12.4c0,2.5-2,4.4-4.4,4.4h-13.2c-2.5,0-4.4-2-4.4-4.4Z"/>
    <path id="rect4179-31-1-349" data-name="rect4179-31-1-3" class="st1" d="M132.4,177.5c0,3.1,2.5,5.6,5.6,5.6h13.2c3.1,0,5.6-2.5,5.6-5.6v-12.4c0-3.1-2.5-5.6-5.6-5.6h-13.2c-3.1,0-5.6,2.5-5.6,5.6v12.4ZM133.6,177.5v-12.4c0-2.5,2-4.4,4.4-4.4h13.2c2.5,0,4.4,2,4.4,4.4v12.4c0,2.5-2,4.4-4.4,4.4h-13.2c-2.5,0-4.4-2-4.4-4.4Z"/>
    <path id="rect4179-31-1-350" data-name="rect4179-31-1-3" class="st1" d="M104.3,177.5c0,3.1,2.5,5.6,5.6,5.6h13.2c3.1,0,5.6-2.5,5.6-5.6v-12.4c0-3.1-2.5-5.6-5.6-5.6h-13.2c-3.1,0-5.6,2.5-5.6,5.6v12.4ZM105.4,177.5v-12.4c0-2.5,2-4.4,4.4-4.4h13.2c2.5,0,4.4,2,4.4,4.4v12.4c0,2.5-2,4.4-4.4,4.4h-13.2c-2.5,0-4.4-2-4.4-4.4Z"/>
    <path id="rect4179-31-1-351" data-name="rect4179-31-1-3" class="st1" d="M188.6,177.5c0,3.1,2.5,5.6,5.6,5.6h13.2c3.1,0,5.6-2.5,5.6-5.6v-12.4c0-3.1-2.5-5.6-5.6-5.6h-13.2c-3.1,0-5.6,2.5-5.6,5.6v12.4ZM189.8,177.5v-12.4c0-2.5,2-4.4,4.4-4.4h13.2c2.5,0,4.4,2,4.4,4.4v12.4c0,2.5-2,4.4-4.4,4.4h-13.2c-2.5,0-4.4-2-4.4-4.4Z"/>
    <path id="rect4179-31-1-352" data-name="rect4179-31-1-3" class="st1" d="M160.5,177.5c0,3.1,2.5,5.6,5.6,5.6h13.2c3.1,0,5.6-2.5,5.6-5.6v-12.4c0-3.1-2.5-5.6-5.6-5.6h-13.2c-3.1,0-5.6,2.5-5.6,5.6v12.4ZM161.7,177.5v-12.4c0-2.5,2-4.4,4.4-4.4h13.2c2.5,0,4.4,2,4.4,4.4v12.4c0,2.5-2,4.4-4.4,4.4h-13.2c-2.5,0-4.4-2-4.4-4.4Z"/>
    <path id="rect4179-31-1-353" data-name="rect4179-31-1-3" class="st1" d="M244.8,177.5c0,3.1,2.5,5.6,5.6,5.6h13.2c3.1,0,5.6-2.5,5.6-5.6v-12.4c0-3.1-2.5-5.6-5.6-5.6h-13.2c-3.1,0-5.6,2.5-5.6,5.6v12.4ZM246,177.5v-12.4c0-2.5,2-4.4,4.4-4.4h13.2c2.5,0,4.4,2,4.4,4.4v12.4c0,2.5-2,4.4-4.4,4.4h-13.2c-2.5,0-4.4-2-4.4-4.4Z"/>
    <path id="rect4179-31-1-354" data-name="rect4179-31-1-3" class="st1" d="M216.7,177.5c0,3.1,2.5,5.6,5.6,5.6h13.2c3.1,0,5.6-2.5,5.6-5.6v-12.4c0-3.1-2.5-5.6-5.6-5.6h-13.2c-3.1,0-5.6,2.5-5.6,5.6v12.4ZM217.9,177.5v-12.4c0-2.5,2-4.4,4.4-4.4h13.2c2.5,0,4.4,2,4.4,4.4v12.4c0,2.5-2,4.4-4.4,4.4h-13.2c-2.5,0-4.4-2-4.4-4.4Z"/>
    <path id="rect4179-31-1-355" data-name="rect4179-31-1-3" class="st1" d="M301.1,177.5c0,3.1,2.5,5.6,5.6,5.6h13.2c3.1,0,5.6-2.5,5.6-5.6v-12.4c0-3.1-2.5-5.6-5.6-5.6h-13.2c-3.1,0-5.6,2.5-5.6,5.6v12.4ZM302.2,177.5v-12.4c0-2.5,2-4.4,4.4-4.4h13.2c2.5,0,4.4,2,4.4,4.4v12.4c0,2.5-2,4.4-4.4,4.4h-13.2c-2.5,0-4.4-2-4.4-4.4Z"/>
    <path id="rect4179-31-1-356" data-name="rect4179-31-1-3" class="st1" d="M272.9,177.5c0,3.1,2.5,5.6,5.6,5.6h13.2c3.1,0,5.6-2.5,5.6-5.6v-12.4c0-3.1-2.5-5.6-5.6-5.6h-13.2c-3.1,0-5.6,2.5-5.6,5.6v12.4ZM274.1,177.5v-12.4c0-2.5,2-4.4,4.4-4.4h13.2c2.5,0,4.4,2,4.4,4.4v12.4c0,2.5-2,4.4-4.4,4.4h-13.2c-2.5,0-4.4-2-4.4-4.4Z"/>
    <path id="rect4179-31-1-357" data-name="rect4179-31-1-3" class="st1" d="M357.3,177.5c0,3.1,2.5,5.6,5.6,5.6h13.2c3.1,0,5.6-2.5,5.6-5.6v-12.4c0-3.1-2.5-5.6-5.6-5.6h-13.2c-3.1,0-5.6,2.5-5.6,5.6v12.4ZM358.4,177.5v-12.4c0-2.5,2-4.4,4.4-4.4h13.2c2.5,0,4.4,2,4.4,4.4v12.4c0,2.5-2,4.4-4.4,4.4h-13.2c-2.5,0-4.4-2-4.4-4.4Z"/>
    <path id="rect4179-31-1-358" data-name="rect4179-31-1-3" class="st1" d="M329.2,177.5c0,3.1,2.5,5.6,5.6,5.6h13.2c3.1,0,5.6-2.5,5.6-5.6v-12.4c0-3.1-2.5-5.6-5.6-5.6h-13.2c-3.1,0-5.6,2.5-5.6,5.6v12.4ZM330.3,177.5v-12.4c0-2.5,2-4.4,4.4-4.4h13.2c2.5,0,4.4,2,4.4,4.4v12.4c0,2.5-2,4.4-4.4,4.4h-13.2c-2.5,0-4.4-2-4.4-4.4Z"/>
    <path id="rect4179-31-1-359" data-name="rect4179-31-1-3" class="st1" d="M385.4,177.5c0,3.1,2.5,5.6,5.6,5.6h37.3c3.1,0,5.6-2.5,5.6-5.6v-12.4c0-3.1-2.5-5.6-5.6-5.6h-37.3c-3.1,0-5.6,2.5-5.6,5.6v12.4ZM386.5,177.5v-12.4c0-2.5,2-4.4,4.4-4.4h37.3c2.5,0,4.4,2,4.4,4.4v12.4c0,2.5-2,4.4-4.4,4.4h-37.3c-2.5,0-4.4-2-4.4-4.4Z"/>
    <path id="rect4179-31-1-360" data-name="rect4179-31-1-3" class="st1" d="M49.2,230.5c0,3.1,2.5,5.6,5.6,5.6h40.2c3.1,0,5.6-2.5,5.6-5.6v-12.4c0-3.1-2.5-5.6-5.6-5.6h-40.2c-3.1,0-5.6,2.5-5.6,5.6v12.4ZM50.4,230.5v-12.4c0-2.5,2-4.4,4.4-4.4h40.2c2.5,0,4.4,2,4.4,4.4v12.4c0,2.5-2,4.4-4.4,4.4h-40.2c-2.5,0-4.4-2-4.4-4.4Z"/>
    <path id="rect4179-31-1-361" data-name="rect4179-31-1-3" class="st1" d="M144.6,258.1c0,3.1,2.5,5.6,5.6,5.6h202.2c3.1,0,5.6-2.5,5.6-5.6v-12.4c0-3.1-2.5-5.6-5.6-5.6h-202.2c-3.1,0-5.6,2.5-5.6,5.6v12.4ZM145.7,258.1v-12.4c0-2.5,2-4.4,4.4-4.4h202.2c2.5,0,4.4,2,4.4,4.4v12.4c0,2.5-2,4.4-4.4,4.4h-202.2c-2.5,0-4.4-2-4.4-4.4Z"/>
    <path id="rect4179-31-1-362" data-name="rect4179-31-1-3" class="st1" d="M132.4,230.5c0,3.1,2.5,5.6,5.6,5.6h13.2c3.1,0,5.6-2.5,5.6-5.6v-12.4c0-3.1-2.5-5.6-5.6-5.6h-13.2c-3.1,0-5.6,2.5-5.6,5.6v12.4ZM133.6,230.5v-12.4c0-2.5,2-4.4,4.4-4.4h13.2c2.5,0,4.4,2,4.4,4.4v12.4c0,2.5-2,4.4-4.4,4.4h-13.2c-2.5,0-4.4-2-4.4-4.4Z"/>
    <path id="rect4179-31-1-363" data-name="rect4179-31-1-3" class="st1" d="M116.5,258.1c0,3.1,2.5,5.6,5.6,5.6h13.2c3.1,0,5.6-2.5,5.6-5.6v-12.4c0-3.1-2.5-5.6-5.6-5.6h-13.2c-3.1,0-5.6,2.5-5.6,5.6v12.4ZM117.6,258.1v-12.4c0-2.5,2-4.4,4.4-4.4h13.2c2.5,0,4.4,2,4.4,4.4v12.4c0,2.5-2,4.4-4.4,4.4h-13.2c-2.5,0-4.4-2-4.4-4.4Z"/>
    <path id="rect4179-31-1-364" data-name="rect4179-31-1-3" class="st1" d="M104.3,230.5c0,3.1,2.5,5.6,5.6,5.6h13.2c3.1,0,5.6-2.5,5.6-5.6v-12.4c0-3.1-2.5-5.6-5.6-5.6h-13.2c-3.1,0-5.6,2.5-5.6,5.6v12.4ZM105.4,230.5v-12.4c0-2.5,2-4.4,4.4-4.4h13.2c2.5,0,4.4,2,4.4,4.4v12.4c0,2.5-2,4.4-4.4,4.4h-13.2c-2.5,0-4.4-2-4.4-4.4Z"/>
    <path id="rect4179-31-1-365" data-name="rect4179-31-1-3" class="st1" d="M188.6,230.5c0,3.1,2.5,5.6,5.6,5.6h13.2c3.1,0,5.6-2.5,5.6-5.6v-12.4c0-3.1-2.5-5.6-5.6-5.6h-13.2c-3.1,0-5.6,2.5-5.6,5.6v12.4ZM189.8,230.5v-12.4c0-2.5,2-4.4,4.4-4.4h13.2c2.5,0,4.4,2,4.4,4.4v12.4c0,2.5-2,4.4-4.4,4.4h-13.2c-2.5,0-4.4-2-4.4-4.4Z"/>
    <path id="rect4179-31-1-366" data-name="rect4179-31-1-3" class="st1" d="M160.5,230.5c0,3.1,2.5,5.6,5.6,5.6h13.2c3.1,0,5.6-2.5,5.6-5.6v-12.4c0-3.1-2.5-5.6-5.6-5.6h-13.2c-3.1,0-5.6,2.5-5.6,5.6v12.4ZM161.7,230.5v-12.4c0-2.5,2-4.4,4.4-4.4h13.2c2.5,0,4.4,2,4.4,4.4v12.4c0,2.5-2,4.4-4.4,4.4h-13.2c-2.5,0-4.4-2-4.4-4.4Z"/>
    <path id="rect4179-31-1-367" data-name="rect4179-31-1-3" class="st1" d="M244.8,230.5c0,3.1,2.5,5.6,5.6,5.6h13.2c3.1,0,5.6-2.5,5.6-5.6v-12.4c0-3.1-2.5-5.6-5.6-5.6h-13.2c-3.1,0-5.6,2.5-5.6,5.6v12.4ZM246,230.5v-12.4c0-2.5,2-4.4,4.4-4.4h13.2c2.5,0,4.4,2,4.4,4.4v12.4c0,2.5-2,4.4-4.4,4.4h-13.2c-2.5,0-4.4-2-4.4-4.4Z"/>
    <path id="rect4179-31-1-368" data-name="rect4179-31-1-3" class="st1" d="M216.7,230.5c0,3.1,2.5,5.6,5.6,5.6h13.2c3.1,0,5.6-2.5,5.6-5.6v-12.4c0-3.1-2.5-5.6-5.6-5.6h-13.2c-3.1,0-5.6,2.5-5.6,5.6v12.4ZM217.9,230.5v-12.4c0-2.5,2-4.4,4.4-4.4h13.2c2.5,0,4.4,2,4.4,4.4v12.4c0,2.5-2,4.4-4.4,4.4h-13.2c-2.5,0-4.4-2-4.4-4.4Z"/>
    <path id="rect4179-31-1-369" data-name="rect4179-31-1-3" class="st1" d="M301.1,230.5c0,3.1,2.5,5.6,5.6,5.6h13.2c3.1,0,5.6-2.5,5.6-5.6v-12.4c0-3.1-2.5-5.6-5.6-5.6h-13.2c-3.1,0-5.6,2.5-5.6,5.6v12.4ZM302.2,230.5v-12.4c0-2.5,2-4.4,4.4-4.4h13.2c2.5,0,4.4,2,4.4,4.4v12.4c0,2.5-2,4.4-4.4,4.4h-13.2c-2.5,0-4.4-2-4.4-4.4Z"/>
    <path id="rect4179-31-1-370" data-name="rect4179-31-1-3" class="st1" d="M272.9,230.5c0,3.1,2.5,5.6,5.6,5.6h13.2c3.1,0,5.6-2.5,5.6-5.6v-12.4c0-3.1-2.5-5.6-5.6-5.6h-13.2c-3.1,0-5.6,2.5-5.6,5.6v12.4ZM274.1,230.5v-12.4c0-2.5,2-4.4,4.4-4.4h13.2c2.5,0,4.4,2,4.4,4.4v12.4c0,2.5-2,4.4-4.4,4.4h-13.2c-2.5,0-4.4-2-4.4-4.4Z"/>
    <path id="rect4179-31-1-371" data-name="rect4179-31-1-3" class="st1" d="M357.3,230.5c0,3.1,2.5,5.6,5.6,5.6h13.2c3.1,0,5.6-2.5,5.6-5.6v-12.4c0-3.1-2.5-5.6-5.6-5.6h-13.2c-3.1,0-5.6,2.5-5.6,5.6v12.4ZM358.4,230.5v-12.4c0-2.5,2-4.4,4.4-4.4h13.2c2.5,0,4.4,2,4.4,4.4v12.4c0,2.5-2,4.4-4.4,4.4h-13.2c-2.5,0-4.4-2-4.4-4.4Z"/>
    <path id="rect4179-31-1-372" data-name="rect4179-31-1-3" class="st1" d="M329.2,230.5c0,3.1,2.5,5.6,5.6,5.6h13.2c3.1,0,5.6-2.5,5.6-5.6v-12.4c0-3.1-2.5-5.6-5.6-5.6h-13.2c-3.1,0-5.6,2.5-5.6,5.6v12.4ZM330.3,230.5v-12.4c0-2.5,2-4.4,4.4-4.4h13.2c2.5,0,4.4,2,4.4,4.4v12.4c0,2.5-2,4.4-4.4,4.4h-13.2c-2.5,0-4.4-2-4.4-4.4Z"/>
    <path id="rect4179-31-1-373" data-name="rect4179-31-1-3" class="st1" d="M385.4,230.5c0,3.1,2.5,5.6,5.6,5.6h37.3c3.1,0,5.6-2.5,5.6-5.6v-12.4c0-3.1-2.5-5.6-5.6-5.6h-37.3c-3.1,0-5.6,2.5-5.6,5.6v12.4ZM386.5,230.5v-12.4c0-2.5,2-4.4,4.4-4.4h37.3c2.5,0,4.4,2,4.4,4.4v12.4c0,2.5-2,4.4-4.4,4.4h-37.3c-2.5,0-4.4-2-4.4-4.4Z"/>
    <path id="rect4179-31-1-374" data-name="rect4179-31-1-3" class="st1" d="M325.2,126.2c0,3.1,2.5,5.6,5.6,5.6h37.3c3.1,0,5.6-2.5,5.6-5.6v-12.4c0-3.1-2.5-5.6-5.6-5.6h-37.3c-3.1,0-5.6,2.5-5.6,5.6v12.4ZM326.4,126.2v-12.4c0-2.5,2-4.4,4.4-4.4h37.3c2.5,0,4.4,2,4.4,4.4v12.4c0,2.5-2,4.4-4.4,4.4h-37.3c-2.5,0-4.4-2-4.4-4.4Z"/>
    <path id="rect4179-31-1-375" data-name="rect4179-31-1-3" class="st1" d="M274.1,126.2c0,3.1,2.5,5.6,5.6,5.6h37.3c3.1,0,5.6-2.5,5.6-5.6v-12.4c0-3.1-2.5-5.6-5.6-5.6h-37.3c-3.1,0-5.6,2.5-5.6,5.6v12.4ZM275.2,126.2v-12.4c0-2.5,2-4.4,4.4-4.4h37.3c2.5,0,4.4,2,4.4,4.4v12.4c0,2.5-2,4.4-4.4,4.4h-37.3c-2.5,0-4.4-2-4.4-4.4Z"/>
    <path id="rect4179-31-1-376" data-name="rect4179-31-1-3" class="st1" d="M222.9,126.2c0,3.1,2.5,5.6,5.6,5.6h37.3c3.1,0,5.6-2.5,5.6-5.6v-12.4c0-3.1-2.5-5.6-5.6-5.6h-37.3c-3.1,0-5.6,2.5-5.6,5.6v12.4ZM224,126.2v-12.4c0-2.5,2-4.4,4.4-4.4h37.3c2.5,0,4.4,2,4.4,4.4v12.4c0,2.5-2,4.4-4.4,4.4h-37.3c-2.5,0-4.4-2-4.4-4.4Z"/>
    <path id="rect4179-31-1-377" data-name="rect4179-31-1-3" class="st1" d="M171.7,126.2c0,3.1,2.5,5.6,5.6,5.6h37.3c3.1,0,5.6-2.5,5.6-5.6v-12.4c0-3.1-2.5-5.6-5.6-5.6h-37.3c-3.1,0-5.6,2.5-5.6,5.6v12.4ZM172.8,126.2v-12.4c0-2.5,2-4.4,4.4-4.4h37.3c2.5,0,4.4,2,4.4,4.4v12.4c0,2.5-2,4.4-4.4,4.4h-37.3c-2.5,0-4.4-2-4.4-4.4Z"/>
    <path id="rect4179-31-1-378" data-name="rect4179-31-1-3" class="st1" d="M120.4,126.2c0,3.1,2.5,5.6,5.6,5.6h37.3c3.1,0,5.6-2.5,5.6-5.6v-12.4c0-3.1-2.5-5.6-5.6-5.6h-37.3c-3.1,0-5.6,2.5-5.6,5.6v12.4ZM121.5,126.2v-12.4c0-2.5,2-4.4,4.4-4.4h37.3c2.5,0,4.4,2,4.4,4.4v12.4c0,2.5-2,4.4-4.4,4.4h-37.3c-2.5,0-4.4-2-4.4-4.4Z"/>
  </g>
</svg>