<?xml version="1.0" encoding="UTF-8"?>
<svg xmlns="http://www.w3.org/2000/svg" version="1.1" xmlns:cc="http://creativecommons.org/ns#" xmlns:dc="http://purl.org/dc/elements/1.1/" xmlns:rdf="http://www.w3.org/1999/02/22-rdf-syntax-ns#" xmlns:xlink="http://www.w3.org/1999/xlink" viewBox="0 0 598.2 350.3">
  <!-- Generator: Adobe Illustrator 29.0.1, SVG Export Plug-In . SVG Version: 2.1.0 Build 192)  -->
  <defs>
    <style>
      .st0 {
        display: none;
      }

      .st1 {
        fill: #f4f4f4;
      }
    </style>
  </defs>
  <g id="Layer_2" class="st0">
    <image width="2000" height="1275" transform="translate(-3 -43.1) scale(.3)" xlink:href="X:\Emulation stuff\custom theme\consoles cut out\pc88.webp"/>
  </g>
  <g id="Layer_3">
    <path id="rect4179-31-1-3" class="st1" d="M61.8,155.3c0,3.1,2.5,5.6,5.6,5.6h13.2c3.1,0,5.6-2.5,5.6-5.6v-12.4c0-3.1-2.5-5.6-5.6-5.6h-13.2c-3.1,0-5.6,2.5-5.6,5.6v12.4ZM63,155.3v-12.4c0-2.5,2-4.4,4.4-4.4h13.2c2.5,0,4.4,2,4.4,4.4v12.4c0,2.5-2,4.4-4.4,4.4h-13.2c-2.5,0-4.4-2-4.4-4.4Z"/>
    <path id="rect4179-31-1-31" data-name="rect4179-31-1-3" class="st1" d="M33.7,155.3c0,3.1,2.5,5.6,5.6,5.6h13.2c3.1,0,5.6-2.5,5.6-5.6v-12.4c0-3.1-2.5-5.6-5.6-5.6h-13.2c-3.1,0-5.6,2.5-5.6,5.6v12.4ZM34.9,155.3v-12.4c0-2.5,2-4.4,4.4-4.4h13.2c2.5,0,4.4,2,4.4,4.4v12.4c0,2.5-2,4.4-4.4,4.4h-13.2c-2.5,0-4.4-2-4.4-4.4Z"/>
    <path id="rect4179-31-1-32" data-name="rect4179-31-1-3" class="st1" d="M118,155.3c0,3.1,2.5,5.6,5.6,5.6h13.2c3.1,0,5.6-2.5,5.6-5.6v-12.4c0-3.1-2.5-5.6-5.6-5.6h-13.2c-3.1,0-5.6,2.5-5.6,5.6v12.4ZM119.2,155.3v-12.4c0-2.5,2-4.4,4.4-4.4h13.2c2.5,0,4.4,2,4.4,4.4v12.4c0,2.5-2,4.4-4.4,4.4h-13.2c-2.5,0-4.4-2-4.4-4.4Z"/>
    <path id="rect4179-31-1-33" data-name="rect4179-31-1-3" class="st1" d="M89.9,155.3c0,3.1,2.5,5.6,5.6,5.6h13.2c3.1,0,5.6-2.5,5.6-5.6v-12.4c0-3.1-2.5-5.6-5.6-5.6h-13.2c-3.1,0-5.6,2.5-5.6,5.6v12.4ZM91.1,155.3v-12.4c0-2.5,2-4.4,4.4-4.4h13.2c2.5,0,4.4,2,4.4,4.4v12.4c0,2.5-2,4.4-4.4,4.4h-13.2c-2.5,0-4.4-2-4.4-4.4Z"/>
    <path id="rect4179-31-1-34" data-name="rect4179-31-1-3" class="st1" d="M471.5,155.3c0,3.1,2.5,5.6,5.6,5.6h13.2c3.1,0,5.6-2.5,5.6-5.6v-12.4c0-3.1-2.5-5.6-5.6-5.6h-13.2c-3.1,0-5.6,2.5-5.6,5.6v12.4ZM472.6,155.3v-12.4c0-2.5,2-4.4,4.4-4.4h13.2c2.5,0,4.4,2,4.4,4.4v12.4c0,2.5-2,4.4-4.4,4.4h-13.2c-2.5,0-4.4-2-4.4-4.4Z"/>
    <path id="rect4179-31-1-35" data-name="rect4179-31-1-3" class="st1" d="M443.4,155.3c0,3.1,2.5,5.6,5.6,5.6h13.2c3.1,0,5.6-2.5,5.6-5.6v-12.4c0-3.1-2.5-5.6-5.6-5.6h-13.2c-3.1,0-5.6,2.5-5.6,5.6v12.4ZM444.5,155.3v-12.4c0-2.5,2-4.4,4.4-4.4h13.2c2.5,0,4.4,2,4.4,4.4v12.4c0,2.5-2,4.4-4.4,4.4h-13.2c-2.5,0-4.4-2-4.4-4.4Z"/>
    <path id="rect4179-31-1-36" data-name="rect4179-31-1-3" class="st1" d="M527.7,155.3c0,3.1,2.5,5.6,5.6,5.6h13.2c3.1,0,5.6-2.5,5.6-5.6v-12.4c0-3.1-2.5-5.6-5.6-5.6h-13.2c-3.1,0-5.6,2.5-5.6,5.6v12.4ZM528.8,155.3v-12.4c0-2.5,2-4.4,4.4-4.4h13.2c2.5,0,4.4,2,4.4,4.4v12.4c0,2.5-2,4.4-4.4,4.4h-13.2c-2.5,0-4.4-2-4.4-4.4Z"/>
    <path id="rect4179-31-1-37" data-name="rect4179-31-1-3" class="st1" d="M499.6,155.3c0,3.1,2.5,5.6,5.6,5.6h13.2c3.1,0,5.6-2.5,5.6-5.6v-12.4c0-3.1-2.5-5.6-5.6-5.6h-13.2c-3.1,0-5.6,2.5-5.6,5.6v12.4ZM500.7,155.3v-12.4c0-2.5,2-4.4,4.4-4.4h13.2c2.5,0,4.4,2,4.4,4.4v12.4c0,2.5-2,4.4-4.4,4.4h-13.2c-2.5,0-4.4-2-4.4-4.4Z"/>
    <path id="rect4179-31-1-38" data-name="rect4179-31-1-3" class="st1" d="M471.5,182.1c0,3.1,2.5,5.6,5.6,5.6h13.2c3.1,0,5.6-2.5,5.6-5.6v-12.4c0-3.1-2.5-5.6-5.6-5.6h-13.2c-3.1,0-5.6,2.5-5.6,5.6v12.4ZM472.6,182.1v-12.4c0-2.5,2-4.4,4.4-4.4h13.2c2.5,0,4.4,2,4.4,4.4v12.4c0,2.5-2,4.4-4.4,4.4h-13.2c-2.5,0-4.4-2-4.4-4.4Z"/>
    <path id="rect4179-31-1-39" data-name="rect4179-31-1-3" class="st1" d="M443.4,182.1c0,3.1,2.5,5.6,5.6,5.6h13.2c3.1,0,5.6-2.5,5.6-5.6v-12.4c0-3.1-2.5-5.6-5.6-5.6h-13.2c-3.1,0-5.6,2.5-5.6,5.6v12.4ZM444.5,182.1v-12.4c0-2.5,2-4.4,4.4-4.4h13.2c2.5,0,4.4,2,4.4,4.4v12.4c0,2.5-2,4.4-4.4,4.4h-13.2c-2.5,0-4.4-2-4.4-4.4Z"/>
    <path id="rect4179-31-1-310" data-name="rect4179-31-1-3" class="st1" d="M527.7,182.1c0,3.1,2.5,5.6,5.6,5.6h13.2c3.1,0,5.6-2.5,5.6-5.6v-12.4c0-3.1-2.5-5.6-5.6-5.6h-13.2c-3.1,0-5.6,2.5-5.6,5.6v12.4ZM528.8,182.1v-12.4c0-2.5,2-4.4,4.4-4.4h13.2c2.5,0,4.4,2,4.4,4.4v12.4c0,2.5-2,4.4-4.4,4.4h-13.2c-2.5,0-4.4-2-4.4-4.4Z"/>
    <path id="rect4179-31-1-311" data-name="rect4179-31-1-3" class="st1" d="M499.6,182.1c0,3.1,2.5,5.6,5.6,5.6h13.2c3.1,0,5.6-2.5,5.6-5.6v-12.4c0-3.1-2.5-5.6-5.6-5.6h-13.2c-3.1,0-5.6,2.5-5.6,5.6v12.4ZM500.7,182.1v-12.4c0-2.5,2-4.4,4.4-4.4h13.2c2.5,0,4.4,2,4.4,4.4v12.4c0,2.5-2,4.4-4.4,4.4h-13.2c-2.5,0-4.4-2-4.4-4.4Z"/>
    <path id="rect4179-31-1-312" data-name="rect4179-31-1-3" class="st1" d="M471.5,208.7c0,3.1,2.5,5.6,5.6,5.6h13.2c3.1,0,5.6-2.5,5.6-5.6v-12.4c0-3.1-2.5-5.6-5.6-5.6h-13.2c-3.1,0-5.6,2.5-5.6,5.6v12.4ZM472.6,208.7v-12.4c0-2.5,2-4.4,4.4-4.4h13.2c2.5,0,4.4,2,4.4,4.4v12.4c0,2.5-2,4.4-4.4,4.4h-13.2c-2.5,0-4.4-2-4.4-4.4Z"/>
    <path id="rect4179-31-1-313" data-name="rect4179-31-1-3" class="st1" d="M443.4,208.7c0,3.1,2.5,5.6,5.6,5.6h13.2c3.1,0,5.6-2.5,5.6-5.6v-12.4c0-3.1-2.5-5.6-5.6-5.6h-13.2c-3.1,0-5.6,2.5-5.6,5.6v12.4ZM444.5,208.7v-12.4c0-2.5,2-4.4,4.4-4.4h13.2c2.5,0,4.4,2,4.4,4.4v12.4c0,2.5-2,4.4-4.4,4.4h-13.2c-2.5,0-4.4-2-4.4-4.4Z"/>
    <path id="rect4179-31-1-314" data-name="rect4179-31-1-3" class="st1" d="M527.7,208.7c0,3.1,2.5,5.6,5.6,5.6h13.2c3.1,0,5.6-2.5,5.6-5.6v-12.4c0-3.1-2.5-5.6-5.6-5.6h-13.2c-3.1,0-5.6,2.5-5.6,5.6v12.4ZM528.8,208.7v-12.4c0-2.5,2-4.4,4.4-4.4h13.2c2.5,0,4.4,2,4.4,4.4v12.4c0,2.5-2,4.4-4.4,4.4h-13.2c-2.5,0-4.4-2-4.4-4.4Z"/>
    <path id="rect4179-31-1-315" data-name="rect4179-31-1-3" class="st1" d="M499.6,208.7c0,3.1,2.5,5.6,5.6,5.6h13.2c3.1,0,5.6-2.5,5.6-5.6v-12.4c0-3.1-2.5-5.6-5.6-5.6h-13.2c-3.1,0-5.6,2.5-5.6,5.6v12.4ZM500.7,208.7v-12.4c0-2.5,2-4.4,4.4-4.4h13.2c2.5,0,4.4,2,4.4,4.4v12.4c0,2.5-2,4.4-4.4,4.4h-13.2c-2.5,0-4.4-2-4.4-4.4Z"/>
    <path id="rect4179-31-1-316" data-name="rect4179-31-1-3" class="st1" d="M471.5,235.1c0,3.1,2.5,5.6,5.6,5.6h13.2c3.1,0,5.6-2.5,5.6-5.6v-12.4c0-3.1-2.5-5.6-5.6-5.6h-13.2c-3.1,0-5.6,2.5-5.6,5.6v12.4ZM472.6,235.1v-12.4c0-2.5,2-4.4,4.4-4.4h13.2c2.5,0,4.4,2,4.4,4.4v12.4c0,2.5-2,4.4-4.4,4.4h-13.2c-2.5,0-4.4-2-4.4-4.4Z"/>
    <path id="rect4179-31-1-317" data-name="rect4179-31-1-3" class="st1" d="M443.4,235.1c0,3.1,2.5,5.6,5.6,5.6h13.2c3.1,0,5.6-2.5,5.6-5.6v-12.4c0-3.1-2.5-5.6-5.6-5.6h-13.2c-3.1,0-5.6,2.5-5.6,5.6v12.4ZM444.5,235.1v-12.4c0-2.5,2-4.4,4.4-4.4h13.2c2.5,0,4.4,2,4.4,4.4v12.4c0,2.5-2,4.4-4.4,4.4h-13.2c-2.5,0-4.4-2-4.4-4.4Z"/>
    <path id="rect4179-31-1-318" data-name="rect4179-31-1-3" class="st1" d="M527.7,235.1c0,3.1,2.5,5.6,5.6,5.6h13.2c3.1,0,5.6-2.5,5.6-5.6v-12.4c0-3.1-2.5-5.6-5.6-5.6h-13.2c-3.1,0-5.6,2.5-5.6,5.6v12.4ZM528.8,235.1v-12.4c0-2.5,2-4.4,4.4-4.4h13.2c2.5,0,4.4,2,4.4,4.4v12.4c0,2.5-2,4.4-4.4,4.4h-13.2c-2.5,0-4.4-2-4.4-4.4Z"/>
    <path id="rect4179-31-1-319" data-name="rect4179-31-1-3" class="st1" d="M499.6,235.1c0,3.1,2.5,5.6,5.6,5.6h13.2c3.1,0,5.6-2.5,5.6-5.6v-12.4c0-3.1-2.5-5.6-5.6-5.6h-13.2c-3.1,0-5.6,2.5-5.6,5.6v12.4ZM500.7,235.1v-12.4c0-2.5,2-4.4,4.4-4.4h13.2c2.5,0,4.4,2,4.4,4.4v12.4c0,2.5-2,4.4-4.4,4.4h-13.2c-2.5,0-4.4-2-4.4-4.4Z"/>
    <path id="rect4179-31-1-320" data-name="rect4179-31-1-3" class="st1" d="M471.5,262.7c0,3.1,2.5,5.6,5.6,5.6h13.2c3.1,0,5.6-2.5,5.6-5.6v-12.4c0-3.1-2.5-5.6-5.6-5.6h-13.2c-3.1,0-5.6,2.5-5.6,5.6v12.4ZM472.6,262.7v-12.4c0-2.5,2-4.4,4.4-4.4h13.2c2.5,0,4.4,2,4.4,4.4v12.4c0,2.5-2,4.4-4.4,4.4h-13.2c-2.5,0-4.4-2-4.4-4.4Z"/>
    <path id="rect4179-31-1-321" data-name="rect4179-31-1-3" class="st1" d="M443.4,262.7c0,3.1,2.5,5.6,5.6,5.6h13.2c3.1,0,5.6-2.5,5.6-5.6v-12.4c0-3.1-2.5-5.6-5.6-5.6h-13.2c-3.1,0-5.6,2.5-5.6,5.6v12.4ZM444.5,262.7v-12.4c0-2.5,2-4.4,4.4-4.4h13.2c2.5,0,4.4,2,4.4,4.4v12.4c0,2.5-2,4.4-4.4,4.4h-13.2c-2.5,0-4.4-2-4.4-4.4Z"/>
    <path id="rect4179-31-1-322" data-name="rect4179-31-1-3" class="st1" d="M527.7,262.7c0,3.1,2.5,5.6,5.6,5.6h13.2c3.1,0,5.6-2.5,5.6-5.6v-12.4c0-3.1-2.5-5.6-5.6-5.6h-13.2c-3.1,0-5.6,2.5-5.6,5.6v12.4ZM528.8,262.7v-12.4c0-2.5,2-4.4,4.4-4.4h13.2c2.5,0,4.4,2,4.4,4.4v12.4c0,2.5-2,4.4-4.4,4.4h-13.2c-2.5,0-4.4-2-4.4-4.4Z"/>
    <path id="rect4179-31-1-323" data-name="rect4179-31-1-3" class="st1" d="M499.6,262.7c0,3.1,2.5,5.6,5.6,5.6h13.2c3.1,0,5.6-2.5,5.6-5.6v-12.4c0-3.1-2.5-5.6-5.6-5.6h-13.2c-3.1,0-5.6,2.5-5.6,5.6v12.4ZM500.7,262.7v-12.4c0-2.5,2-4.4,4.4-4.4h13.2c2.5,0,4.4,2,4.4,4.4v12.4c0,2.5-2,4.4-4.4,4.4h-13.2c-2.5,0-4.4-2-4.4-4.4Z"/>
    <path id="rect4179-31-1-324" data-name="rect4179-31-1-3" class="st1" d="M174.3,155.3c0,3.1,2.5,5.6,5.6,5.6h13.2c3.1,0,5.6-2.5,5.6-5.6v-12.4c0-3.1-2.5-5.6-5.6-5.6h-13.2c-3.1,0-5.6,2.5-5.6,5.6v12.4ZM175.4,155.3v-12.4c0-2.5,2-4.4,4.4-4.4h13.2c2.5,0,4.4,2,4.4,4.4v12.4c0,2.5-2,4.4-4.4,4.4h-13.2c-2.5,0-4.4-2-4.4-4.4Z"/>
    <path id="rect4179-31-1-325" data-name="rect4179-31-1-3" class="st1" d="M146.1,155.3c0,3.1,2.5,5.6,5.6,5.6h13.2c3.1,0,5.6-2.5,5.6-5.6v-12.4c0-3.1-2.5-5.6-5.6-5.6h-13.2c-3.1,0-5.6,2.5-5.6,5.6v12.4ZM147.3,155.3v-12.4c0-2.5,2-4.4,4.4-4.4h13.2c2.5,0,4.4,2,4.4,4.4v12.4c0,2.5-2,4.4-4.4,4.4h-13.2c-2.5,0-4.4-2-4.4-4.4Z"/>
    <path id="rect4179-31-1-326" data-name="rect4179-31-1-3" class="st1" d="M230.5,155.3c0,3.1,2.5,5.6,5.6,5.6h13.2c3.1,0,5.6-2.5,5.6-5.6v-12.4c0-3.1-2.5-5.6-5.6-5.6h-13.2c-3.1,0-5.6,2.5-5.6,5.6v12.4ZM231.6,155.3v-12.4c0-2.5,2-4.4,4.4-4.4h13.2c2.5,0,4.4,2,4.4,4.4v12.4c0,2.5-2,4.4-4.4,4.4h-13.2c-2.5,0-4.4-2-4.4-4.4Z"/>
    <path id="rect4179-31-1-327" data-name="rect4179-31-1-3" class="st1" d="M202.4,155.3c0,3.1,2.5,5.6,5.6,5.6h13.2c3.1,0,5.6-2.5,5.6-5.6v-12.4c0-3.1-2.5-5.6-5.6-5.6h-13.2c-3.1,0-5.6,2.5-5.6,5.6v12.4ZM203.5,155.3v-12.4c0-2.5,2-4.4,4.4-4.4h13.2c2.5,0,4.4,2,4.4,4.4v12.4c0,2.5-2,4.4-4.4,4.4h-13.2c-2.5,0-4.4-2-4.4-4.4Z"/>
    <path id="rect4179-31-1-328" data-name="rect4179-31-1-3" class="st1" d="M286.7,155.3c0,3.1,2.5,5.6,5.6,5.6h13.2c3.1,0,5.6-2.5,5.6-5.6v-12.4c0-3.1-2.5-5.6-5.6-5.6h-13.2c-3.1,0-5.6,2.5-5.6,5.6v12.4ZM287.8,155.3v-12.4c0-2.5,2-4.4,4.4-4.4h13.2c2.5,0,4.4,2,4.4,4.4v12.4c0,2.5-2,4.4-4.4,4.4h-13.2c-2.5,0-4.4-2-4.4-4.4Z"/>
    <path id="rect4179-31-1-329" data-name="rect4179-31-1-3" class="st1" d="M258.6,155.3c0,3.1,2.5,5.6,5.6,5.6h13.2c3.1,0,5.6-2.5,5.6-5.6v-12.4c0-3.1-2.5-5.6-5.6-5.6h-13.2c-3.1,0-5.6,2.5-5.6,5.6v12.4ZM259.7,155.3v-12.4c0-2.5,2-4.4,4.4-4.4h13.2c2.5,0,4.4,2,4.4,4.4v12.4c0,2.5-2,4.4-4.4,4.4h-13.2c-2.5,0-4.4-2-4.4-4.4Z"/>
    <path id="rect4179-31-1-330" data-name="rect4179-31-1-3" class="st1" d="M342.9,155.3c0,3.1,2.5,5.6,5.6,5.6h13.2c3.1,0,5.6-2.5,5.6-5.6v-12.4c0-3.1-2.5-5.6-5.6-5.6h-13.2c-3.1,0-5.6,2.5-5.6,5.6v12.4ZM344,155.3v-12.4c0-2.5,2-4.4,4.4-4.4h13.2c2.5,0,4.4,2,4.4,4.4v12.4c0,2.5-2,4.4-4.4,4.4h-13.2c-2.5,0-4.4-2-4.4-4.4Z"/>
    <path id="rect4179-31-1-331" data-name="rect4179-31-1-3" class="st1" d="M314.8,155.3c0,3.1,2.5,5.6,5.6,5.6h13.2c3.1,0,5.6-2.5,5.6-5.6v-12.4c0-3.1-2.5-5.6-5.6-5.6h-13.2c-3.1,0-5.6,2.5-5.6,5.6v12.4ZM315.9,155.3v-12.4c0-2.5,2-4.4,4.4-4.4h13.2c2.5,0,4.4,2,4.4,4.4v12.4c0,2.5-2,4.4-4.4,4.4h-13.2c-2.5,0-4.4-2-4.4-4.4Z"/>
    <path id="rect4179-31-1-332" data-name="rect4179-31-1-3" class="st1" d="M399.1,155.3c0,3.1,2.5,5.6,5.6,5.6h13.2c3.1,0,5.6-2.5,5.6-5.6v-12.4c0-3.1-2.5-5.6-5.6-5.6h-13.2c-3.1,0-5.6,2.5-5.6,5.6v12.4ZM400.2,155.3v-12.4c0-2.5,2-4.4,4.4-4.4h13.2c2.5,0,4.4,2,4.4,4.4v12.4c0,2.5-2,4.4-4.4,4.4h-13.2c-2.5,0-4.4-2-4.4-4.4Z"/>
    <path id="rect4179-31-1-333" data-name="rect4179-31-1-3" class="st1" d="M371,155.3c0,3.1,2.5,5.6,5.6,5.6h13.2c3.1,0,5.6-2.5,5.6-5.6v-12.4c0-3.1-2.5-5.6-5.6-5.6h-13.2c-3.1,0-5.6,2.5-5.6,5.6v12.4ZM372.1,155.3v-12.4c0-2.5,2-4.4,4.4-4.4h13.2c2.5,0,4.4,2,4.4,4.4v12.4c0,2.5-2,4.4-4.4,4.4h-13.2c-2.5,0-4.4-2-4.4-4.4Z"/>
    <g>
      <path id="rect4179-31-1-334" data-name="rect4179-31-1-3" class="st1" d="M85,207.6c0,3.1,2.5,5.6,5.6,5.6h13.2c3.1,0,5.6-2.5,5.6-5.6v-12.4c0-3.1-2.5-5.6-5.6-5.6h-13.2c-3.1,0-5.6,2.5-5.6,5.6v12.4ZM86.2,207.6v-12.4c0-2.5,2-4.4,4.4-4.4h13.2c2.5,0,4.4,2,4.4,4.4v12.4c0,2.5-2,4.4-4.4,4.4h-13.2c-2.5,0-4.4-2-4.4-4.4Z"/>
      <path id="rect4179-31-1-335" data-name="rect4179-31-1-3" class="st1" d="M56.9,207.6c0,3.1,2.5,5.6,5.6,5.6h13.2c3.1,0,5.6-2.5,5.6-5.6v-12.4c0-3.1-2.5-5.6-5.6-5.6h-13.2c-3.1,0-5.6,2.5-5.6,5.6v12.4ZM58.1,207.6v-12.4c0-2.5,2-4.4,4.4-4.4h13.2c2.5,0,4.4,2,4.4,4.4v12.4c0,2.5-2,4.4-4.4,4.4h-13.2c-2.5,0-4.4-2-4.4-4.4Z"/>
      <path id="rect4179-31-1-336" data-name="rect4179-31-1-3" class="st1" d="M141.3,207.6c0,3.1,2.5,5.6,5.6,5.6h13.2c3.1,0,5.6-2.5,5.6-5.6v-12.4c0-3.1-2.5-5.6-5.6-5.6h-13.2c-3.1,0-5.6,2.5-5.6,5.6v12.4ZM142.4,207.6v-12.4c0-2.5,2-4.4,4.4-4.4h13.2c2.5,0,4.4,2,4.4,4.4v12.4c0,2.5-2,4.4-4.4,4.4h-13.2c-2.5,0-4.4-2-4.4-4.4Z"/>
      <path id="rect4179-31-1-337" data-name="rect4179-31-1-3" class="st1" d="M113.1,207.6c0,3.1,2.5,5.6,5.6,5.6h13.2c3.1,0,5.6-2.5,5.6-5.6v-12.4c0-3.1-2.5-5.6-5.6-5.6h-13.2c-3.1,0-5.6,2.5-5.6,5.6v12.4ZM114.3,207.6v-12.4c0-2.5,2-4.4,4.4-4.4h13.2c2.5,0,4.4,2,4.4,4.4v12.4c0,2.5-2,4.4-4.4,4.4h-13.2c-2.5,0-4.4-2-4.4-4.4Z"/>
      <path id="rect4179-31-1-338" data-name="rect4179-31-1-3" class="st1" d="M197.5,207.6c0,3.1,2.5,5.6,5.6,5.6h13.2c3.1,0,5.6-2.5,5.6-5.6v-12.4c0-3.1-2.5-5.6-5.6-5.6h-13.2c-3.1,0-5.6,2.5-5.6,5.6v12.4ZM198.6,207.6v-12.4c0-2.5,2-4.4,4.4-4.4h13.2c2.5,0,4.4,2,4.4,4.4v12.4c0,2.5-2,4.4-4.4,4.4h-13.2c-2.5,0-4.4-2-4.4-4.4Z"/>
      <path id="rect4179-31-1-339" data-name="rect4179-31-1-3" class="st1" d="M169.4,207.6c0,3.1,2.5,5.6,5.6,5.6h13.2c3.1,0,5.6-2.5,5.6-5.6v-12.4c0-3.1-2.5-5.6-5.6-5.6h-13.2c-3.1,0-5.6,2.5-5.6,5.6v12.4ZM170.5,207.6v-12.4c0-2.5,2-4.4,4.4-4.4h13.2c2.5,0,4.4,2,4.4,4.4v12.4c0,2.5-2,4.4-4.4,4.4h-13.2c-2.5,0-4.4-2-4.4-4.4Z"/>
      <path id="rect4179-31-1-340" data-name="rect4179-31-1-3" class="st1" d="M253.7,207.6c0,3.1,2.5,5.6,5.6,5.6h13.2c3.1,0,5.6-2.5,5.6-5.6v-12.4c0-3.1-2.5-5.6-5.6-5.6h-13.2c-3.1,0-5.6,2.5-5.6,5.6v12.4ZM254.8,207.6v-12.4c0-2.5,2-4.4,4.4-4.4h13.2c2.5,0,4.4,2,4.4,4.4v12.4c0,2.5-2,4.4-4.4,4.4h-13.2c-2.5,0-4.4-2-4.4-4.4Z"/>
      <path id="rect4179-31-1-341" data-name="rect4179-31-1-3" class="st1" d="M225.6,207.6c0,3.1,2.5,5.6,5.6,5.6h13.2c3.1,0,5.6-2.5,5.6-5.6v-12.4c0-3.1-2.5-5.6-5.6-5.6h-13.2c-3.1,0-5.6,2.5-5.6,5.6v12.4ZM226.7,207.6v-12.4c0-2.5,2-4.4,4.4-4.4h13.2c2.5,0,4.4,2,4.4,4.4v12.4c0,2.5-2,4.4-4.4,4.4h-13.2c-2.5,0-4.4-2-4.4-4.4Z"/>
      <path id="rect4179-31-1-342" data-name="rect4179-31-1-3" class="st1" d="M309.9,207.6c0,3.1,2.5,5.6,5.6,5.6h13.2c3.1,0,5.6-2.5,5.6-5.6v-12.4c0-3.1-2.5-5.6-5.6-5.6h-13.2c-3.1,0-5.6,2.5-5.6,5.6v12.4ZM311,207.6v-12.4c0-2.5,2-4.4,4.4-4.4h13.2c2.5,0,4.4,2,4.4,4.4v12.4c0,2.5-2,4.4-4.4,4.4h-13.2c-2.5,0-4.4-2-4.4-4.4Z"/>
      <path id="rect4179-31-1-343" data-name="rect4179-31-1-3" class="st1" d="M281.8,207.6c0,3.1,2.5,5.6,5.6,5.6h13.2c3.1,0,5.6-2.5,5.6-5.6v-12.4c0-3.1-2.5-5.6-5.6-5.6h-13.2c-3.1,0-5.6,2.5-5.6,5.6v12.4ZM282.9,207.6v-12.4c0-2.5,2-4.4,4.4-4.4h13.2c2.5,0,4.4,2,4.4,4.4v12.4c0,2.5-2,4.4-4.4,4.4h-13.2c-2.5,0-4.4-2-4.4-4.4Z"/>
      <path id="rect4179-31-1-344" data-name="rect4179-31-1-3" class="st1" d="M366.1,207.6c0,3.1,2.5,5.6,5.6,5.6h13.2c3.1,0,5.6-2.5,5.6-5.6v-12.4c0-3.1-2.5-5.6-5.6-5.6h-13.2c-3.1,0-5.6,2.5-5.6,5.6v12.4ZM367.2,207.6v-12.4c0-2.5,2-4.4,4.4-4.4h13.2c2.5,0,4.4,2,4.4,4.4v12.4c0,2.5-2,4.4-4.4,4.4h-13.2c-2.5,0-4.4-2-4.4-4.4Z"/>
      <path id="rect4179-31-1-345" data-name="rect4179-31-1-3" class="st1" d="M338,207.6c0,3.1,2.5,5.6,5.6,5.6h13.2c3.1,0,5.6-2.5,5.6-5.6v-12.4c0-3.1-2.5-5.6-5.6-5.6h-13.2c-3.1,0-5.6,2.5-5.6,5.6v12.4ZM339.1,207.6v-12.4c0-2.5,2-4.4,4.4-4.4h13.2c2.5,0,4.4,2,4.4,4.4v12.4c0,2.5-2,4.4-4.4,4.4h-13.2c-2.5,0-4.4-2-4.4-4.4Z"/>
      <path id="rect4179-31-1-346" data-name="rect4179-31-1-3" class="st1" d="M394.2,207.6c0,3.1,2.5,5.6,5.6,5.6h13.2c3.1,0,5.6-2.5,5.6-5.6v-12.4c0-3.1-2.5-5.6-5.6-5.6h-13.2c-3.1,0-5.6,2.5-5.6,5.6v12.4ZM395.3,207.6v-12.4c0-2.5,2-4.4,4.4-4.4h13.2c2.5,0,4.4,2,4.4,4.4v12.4c0,2.5-2,4.4-4.4,4.4h-13.2c-2.5,0-4.4-2-4.4-4.4Z"/>
    </g>
    <path id="rect4179-31-1-347" data-name="rect4179-31-1-3" class="st1" d="M74,181c0,3.1,2.5,5.6,5.6,5.6h13.2c3.1,0,5.6-2.5,5.6-5.6v-12.4c0-3.1-2.5-5.6-5.6-5.6h-13.2c-3.1,0-5.6,2.5-5.6,5.6v12.4ZM75.1,181v-12.4c0-2.5,2-4.4,4.4-4.4h13.2c2.5,0,4.4,2,4.4,4.4v12.4c0,2.5-2,4.4-4.4,4.4h-13.2c-2.5,0-4.4-2-4.4-4.4Z"/>
    <path id="rect4179-31-1-348" data-name="rect4179-31-1-3" class="st1" d="M45.9,181c0,3.1,2.5,5.6,5.6,5.6h13.2c3.1,0,5.6-2.5,5.6-5.6v-12.4c0-3.1-2.5-5.6-5.6-5.6h-13.2c-3.1,0-5.6,2.5-5.6,5.6v12.4ZM47,181v-12.4c0-2.5,2-4.4,4.4-4.4h13.2c2.5,0,4.4,2,4.4,4.4v12.4c0,2.5-2,4.4-4.4,4.4h-13.2c-2.5,0-4.4-2-4.4-4.4Z"/>
    <path id="rect4179-31-1-349" data-name="rect4179-31-1-3" class="st1" d="M130.2,181c0,3.1,2.5,5.6,5.6,5.6h13.2c3.1,0,5.6-2.5,5.6-5.6v-12.4c0-3.1-2.5-5.6-5.6-5.6h-13.2c-3.1,0-5.6,2.5-5.6,5.6v12.4ZM131.4,181v-12.4c0-2.5,2-4.4,4.4-4.4h13.2c2.5,0,4.4,2,4.4,4.4v12.4c0,2.5-2,4.4-4.4,4.4h-13.2c-2.5,0-4.4-2-4.4-4.4Z"/>
    <path id="rect4179-31-1-350" data-name="rect4179-31-1-3" class="st1" d="M102.1,181c0,3.1,2.5,5.6,5.6,5.6h13.2c3.1,0,5.6-2.5,5.6-5.6v-12.4c0-3.1-2.5-5.6-5.6-5.6h-13.2c-3.1,0-5.6,2.5-5.6,5.6v12.4ZM103.2,181v-12.4c0-2.5,2-4.4,4.4-4.4h13.2c2.5,0,4.4,2,4.4,4.4v12.4c0,2.5-2,4.4-4.4,4.4h-13.2c-2.5,0-4.4-2-4.4-4.4Z"/>
    <path id="rect4179-31-1-351" data-name="rect4179-31-1-3" class="st1" d="M186.4,181c0,3.1,2.5,5.6,5.6,5.6h13.2c3.1,0,5.6-2.5,5.6-5.6v-12.4c0-3.1-2.5-5.6-5.6-5.6h-13.2c-3.1,0-5.6,2.5-5.6,5.6v12.4ZM187.6,181v-12.4c0-2.5,2-4.4,4.4-4.4h13.2c2.5,0,4.4,2,4.4,4.4v12.4c0,2.5-2,4.4-4.4,4.4h-13.2c-2.5,0-4.4-2-4.4-4.4Z"/>
    <path id="rect4179-31-1-352" data-name="rect4179-31-1-3" class="st1" d="M158.3,181c0,3.1,2.5,5.6,5.6,5.6h13.2c3.1,0,5.6-2.5,5.6-5.6v-12.4c0-3.1-2.5-5.6-5.6-5.6h-13.2c-3.1,0-5.6,2.5-5.6,5.6v12.4ZM159.5,181v-12.4c0-2.5,2-4.4,4.4-4.4h13.2c2.5,0,4.4,2,4.4,4.4v12.4c0,2.5-2,4.4-4.4,4.4h-13.2c-2.5,0-4.4-2-4.4-4.4Z"/>
    <path id="rect4179-31-1-353" data-name="rect4179-31-1-3" class="st1" d="M242.6,181c0,3.1,2.5,5.6,5.6,5.6h13.2c3.1,0,5.6-2.5,5.6-5.6v-12.4c0-3.1-2.5-5.6-5.6-5.6h-13.2c-3.1,0-5.6,2.5-5.6,5.6v12.4ZM243.8,181v-12.4c0-2.5,2-4.4,4.4-4.4h13.2c2.5,0,4.4,2,4.4,4.4v12.4c0,2.5-2,4.4-4.4,4.4h-13.2c-2.5,0-4.4-2-4.4-4.4Z"/>
    <path id="rect4179-31-1-354" data-name="rect4179-31-1-3" class="st1" d="M214.5,181c0,3.1,2.5,5.6,5.6,5.6h13.2c3.1,0,5.6-2.5,5.6-5.6v-12.4c0-3.1-2.5-5.6-5.6-5.6h-13.2c-3.1,0-5.6,2.5-5.6,5.6v12.4ZM215.7,181v-12.4c0-2.5,2-4.4,4.4-4.4h13.2c2.5,0,4.4,2,4.4,4.4v12.4c0,2.5-2,4.4-4.4,4.4h-13.2c-2.5,0-4.4-2-4.4-4.4Z"/>
    <path id="rect4179-31-1-355" data-name="rect4179-31-1-3" class="st1" d="M298.8,181c0,3.1,2.5,5.6,5.6,5.6h13.2c3.1,0,5.6-2.5,5.6-5.6v-12.4c0-3.1-2.5-5.6-5.6-5.6h-13.2c-3.1,0-5.6,2.5-5.6,5.6v12.4ZM300,181v-12.4c0-2.5,2-4.4,4.4-4.4h13.2c2.5,0,4.4,2,4.4,4.4v12.4c0,2.5-2,4.4-4.4,4.4h-13.2c-2.5,0-4.4-2-4.4-4.4Z"/>
    <path id="rect4179-31-1-356" data-name="rect4179-31-1-3" class="st1" d="M270.7,181c0,3.1,2.5,5.6,5.6,5.6h13.2c3.1,0,5.6-2.5,5.6-5.6v-12.4c0-3.1-2.5-5.6-5.6-5.6h-13.2c-3.1,0-5.6,2.5-5.6,5.6v12.4ZM271.9,181v-12.4c0-2.5,2-4.4,4.4-4.4h13.2c2.5,0,4.4,2,4.4,4.4v12.4c0,2.5-2,4.4-4.4,4.4h-13.2c-2.5,0-4.4-2-4.4-4.4Z"/>
    <path id="rect4179-31-1-357" data-name="rect4179-31-1-3" class="st1" d="M355.1,181c0,3.1,2.5,5.6,5.6,5.6h13.2c3.1,0,5.6-2.5,5.6-5.6v-12.4c0-3.1-2.5-5.6-5.6-5.6h-13.2c-3.1,0-5.6,2.5-5.6,5.6v12.4ZM356.2,181v-12.4c0-2.5,2-4.4,4.4-4.4h13.2c2.5,0,4.4,2,4.4,4.4v12.4c0,2.5-2,4.4-4.4,4.4h-13.2c-2.5,0-4.4-2-4.4-4.4Z"/>
    <path id="rect4179-31-1-358" data-name="rect4179-31-1-3" class="st1" d="M327,181c0,3.1,2.5,5.6,5.6,5.6h13.2c3.1,0,5.6-2.5,5.6-5.6v-12.4c0-3.1-2.5-5.6-5.6-5.6h-13.2c-3.1,0-5.6,2.5-5.6,5.6v12.4ZM328.1,181v-12.4c0-2.5,2-4.4,4.4-4.4h13.2c2.5,0,4.4,2,4.4,4.4v12.4c0,2.5-2,4.4-4.4,4.4h-13.2c-2.5,0-4.4-2-4.4-4.4Z"/>
    <path id="rect4179-31-1-359" data-name="rect4179-31-1-3" class="st1" d="M383.2,181c0,3.1,2.5,5.6,5.6,5.6h37.3c3.1,0,5.6-2.5,5.6-5.6v-12.4c0-3.1-2.5-5.6-5.6-5.6h-37.3c-3.1,0-5.6,2.5-5.6,5.6v12.4ZM384.3,181v-12.4c0-2.5,2-4.4,4.4-4.4h37.3c2.5,0,4.4,2,4.4,4.4v12.4c0,2.5-2,4.4-4.4,4.4h-37.3c-2.5,0-4.4-2-4.4-4.4Z"/>
    <path id="rect4179-31-1-360" data-name="rect4179-31-1-3" class="st1" d="M47,234c0,3.1,2.5,5.6,5.6,5.6h40.2c3.1,0,5.6-2.5,5.6-5.6v-12.4c0-3.1-2.5-5.6-5.6-5.6h-40.2c-3.1,0-5.6,2.5-5.6,5.6v12.4ZM48.2,234v-12.4c0-2.5,2-4.4,4.4-4.4h40.2c2.5,0,4.4,2,4.4,4.4v12.4c0,2.5-2,4.4-4.4,4.4h-40.2c-2.5,0-4.4-2-4.4-4.4Z"/>
    <path id="rect4179-31-1-361" data-name="rect4179-31-1-3" class="st1" d="M142.4,261.6c0,3.1,2.5,5.6,5.6,5.6h202.2c3.1,0,5.6-2.5,5.6-5.6v-12.4c0-3.1-2.5-5.6-5.6-5.6h-202.2c-3.1,0-5.6,2.5-5.6,5.6v12.4ZM143.5,261.6v-12.4c0-2.5,2-4.4,4.4-4.4h202.2c2.5,0,4.4,2,4.4,4.4v12.4c0,2.5-2,4.4-4.4,4.4h-202.2c-2.5,0-4.4-2-4.4-4.4Z"/>
    <path id="rect4179-31-1-362" data-name="rect4179-31-1-3" class="st1" d="M130.2,234c0,3.1,2.5,5.6,5.6,5.6h13.2c3.1,0,5.6-2.5,5.6-5.6v-12.4c0-3.1-2.5-5.6-5.6-5.6h-13.2c-3.1,0-5.6,2.5-5.6,5.6v12.4ZM131.4,234v-12.4c0-2.5,2-4.4,4.4-4.4h13.2c2.5,0,4.4,2,4.4,4.4v12.4c0,2.5-2,4.4-4.4,4.4h-13.2c-2.5,0-4.4-2-4.4-4.4Z"/>
    <path id="rect4179-31-1-363" data-name="rect4179-31-1-3" class="st1" d="M114.3,261.6c0,3.1,2.5,5.6,5.6,5.6h13.2c3.1,0,5.6-2.5,5.6-5.6v-12.4c0-3.1-2.5-5.6-5.6-5.6h-13.2c-3.1,0-5.6,2.5-5.6,5.6v12.4ZM115.4,261.6v-12.4c0-2.5,2-4.4,4.4-4.4h13.2c2.5,0,4.4,2,4.4,4.4v12.4c0,2.5-2,4.4-4.4,4.4h-13.2c-2.5,0-4.4-2-4.4-4.4Z"/>
    <path id="rect4179-31-1-364" data-name="rect4179-31-1-3" class="st1" d="M102.1,234c0,3.1,2.5,5.6,5.6,5.6h13.2c3.1,0,5.6-2.5,5.6-5.6v-12.4c0-3.1-2.5-5.6-5.6-5.6h-13.2c-3.1,0-5.6,2.5-5.6,5.6v12.4ZM103.2,234v-12.4c0-2.5,2-4.4,4.4-4.4h13.2c2.5,0,4.4,2,4.4,4.4v12.4c0,2.5-2,4.4-4.4,4.4h-13.2c-2.5,0-4.4-2-4.4-4.4Z"/>
    <path id="rect4179-31-1-365" data-name="rect4179-31-1-3" class="st1" d="M186.4,234c0,3.1,2.5,5.6,5.6,5.6h13.2c3.1,0,5.6-2.5,5.6-5.6v-12.4c0-3.1-2.5-5.6-5.6-5.6h-13.2c-3.1,0-5.6,2.5-5.6,5.6v12.4ZM187.6,234v-12.4c0-2.5,2-4.4,4.4-4.4h13.2c2.5,0,4.4,2,4.4,4.4v12.4c0,2.5-2,4.4-4.4,4.4h-13.2c-2.5,0-4.4-2-4.4-4.4Z"/>
    <path id="rect4179-31-1-366" data-name="rect4179-31-1-3" class="st1" d="M158.3,234c0,3.1,2.5,5.6,5.6,5.6h13.2c3.1,0,5.6-2.5,5.6-5.6v-12.4c0-3.1-2.5-5.6-5.6-5.6h-13.2c-3.1,0-5.6,2.5-5.6,5.6v12.4ZM159.5,234v-12.4c0-2.5,2-4.4,4.4-4.4h13.2c2.5,0,4.4,2,4.4,4.4v12.4c0,2.5-2,4.4-4.4,4.4h-13.2c-2.5,0-4.4-2-4.4-4.4Z"/>
    <path id="rect4179-31-1-367" data-name="rect4179-31-1-3" class="st1" d="M242.6,234c0,3.1,2.5,5.6,5.6,5.6h13.2c3.1,0,5.6-2.5,5.6-5.6v-12.4c0-3.1-2.5-5.6-5.6-5.6h-13.2c-3.1,0-5.6,2.5-5.6,5.6v12.4ZM243.8,234v-12.4c0-2.5,2-4.4,4.4-4.4h13.2c2.5,0,4.4,2,4.4,4.4v12.4c0,2.5-2,4.4-4.4,4.4h-13.2c-2.5,0-4.4-2-4.4-4.4Z"/>
    <path id="rect4179-31-1-368" data-name="rect4179-31-1-3" class="st1" d="M214.5,234c0,3.1,2.5,5.6,5.6,5.6h13.2c3.1,0,5.6-2.5,5.6-5.6v-12.4c0-3.1-2.5-5.6-5.6-5.6h-13.2c-3.1,0-5.6,2.5-5.6,5.6v12.4ZM215.7,234v-12.4c0-2.5,2-4.4,4.4-4.4h13.2c2.5,0,4.4,2,4.4,4.4v12.4c0,2.5-2,4.4-4.4,4.4h-13.2c-2.5,0-4.4-2-4.4-4.4Z"/>
    <path id="rect4179-31-1-369" data-name="rect4179-31-1-3" class="st1" d="M298.8,234c0,3.1,2.5,5.6,5.6,5.6h13.2c3.1,0,5.6-2.5,5.6-5.6v-12.4c0-3.1-2.5-5.6-5.6-5.6h-13.2c-3.1,0-5.6,2.5-5.6,5.6v12.4ZM300,234v-12.4c0-2.5,2-4.4,4.4-4.4h13.2c2.5,0,4.4,2,4.4,4.4v12.4c0,2.5-2,4.4-4.4,4.4h-13.2c-2.5,0-4.4-2-4.4-4.4Z"/>
    <path id="rect4179-31-1-370" data-name="rect4179-31-1-3" class="st1" d="M270.7,234c0,3.1,2.5,5.6,5.6,5.6h13.2c3.1,0,5.6-2.5,5.6-5.6v-12.4c0-3.1-2.5-5.6-5.6-5.6h-13.2c-3.1,0-5.6,2.5-5.6,5.6v12.4ZM271.9,234v-12.4c0-2.5,2-4.4,4.4-4.4h13.2c2.5,0,4.4,2,4.4,4.4v12.4c0,2.5-2,4.4-4.4,4.4h-13.2c-2.5,0-4.4-2-4.4-4.4Z"/>
    <path id="rect4179-31-1-371" data-name="rect4179-31-1-3" class="st1" d="M355.1,234c0,3.1,2.5,5.6,5.6,5.6h13.2c3.1,0,5.6-2.5,5.6-5.6v-12.4c0-3.1-2.5-5.6-5.6-5.6h-13.2c-3.1,0-5.6,2.5-5.6,5.6v12.4ZM356.2,234v-12.4c0-2.5,2-4.4,4.4-4.4h13.2c2.5,0,4.4,2,4.4,4.4v12.4c0,2.5-2,4.4-4.4,4.4h-13.2c-2.5,0-4.4-2-4.4-4.4Z"/>
    <path id="rect4179-31-1-372" data-name="rect4179-31-1-3" class="st1" d="M327,234c0,3.1,2.5,5.6,5.6,5.6h13.2c3.1,0,5.6-2.5,5.6-5.6v-12.4c0-3.1-2.5-5.6-5.6-5.6h-13.2c-3.1,0-5.6,2.5-5.6,5.6v12.4ZM328.1,234v-12.4c0-2.5,2-4.4,4.4-4.4h13.2c2.5,0,4.4,2,4.4,4.4v12.4c0,2.5-2,4.4-4.4,4.4h-13.2c-2.5,0-4.4-2-4.4-4.4Z"/>
    <path id="rect4179-31-1-373" data-name="rect4179-31-1-3" class="st1" d="M383.2,234c0,3.1,2.5,5.6,5.6,5.6h37.3c3.1,0,5.6-2.5,5.6-5.6v-12.4c0-3.1-2.5-5.6-5.6-5.6h-37.3c-3.1,0-5.6,2.5-5.6,5.6v12.4ZM384.3,234v-12.4c0-2.5,2-4.4,4.4-4.4h37.3c2.5,0,4.4,2,4.4,4.4v12.4c0,2.5-2,4.4-4.4,4.4h-37.3c-2.5,0-4.4-2-4.4-4.4Z"/>
    <path id="rect4179-31-1-374" data-name="rect4179-31-1-3" class="st1" d="M323,129.7c0,3.1,2.5,5.6,5.6,5.6h37.3c3.1,0,5.6-2.5,5.6-5.6v-12.4c0-3.1-2.5-5.6-5.6-5.6h-37.3c-3.1,0-5.6,2.5-5.6,5.6v12.4ZM324.2,129.7v-12.4c0-2.5,2-4.4,4.4-4.4h37.3c2.5,0,4.4,2,4.4,4.4v12.4c0,2.5-2,4.4-4.4,4.4h-37.3c-2.5,0-4.4-2-4.4-4.4Z"/>
    <path id="rect4179-31-1-375" data-name="rect4179-31-1-3" class="st1" d="M271.9,129.7c0,3.1,2.5,5.6,5.6,5.6h37.3c3.1,0,5.6-2.5,5.6-5.6v-12.4c0-3.1-2.5-5.6-5.6-5.6h-37.3c-3.1,0-5.6,2.5-5.6,5.6v12.4ZM273,129.7v-12.4c0-2.5,2-4.4,4.4-4.4h37.3c2.5,0,4.4,2,4.4,4.4v12.4c0,2.5-2,4.4-4.4,4.4h-37.3c-2.5,0-4.4-2-4.4-4.4Z"/>
    <path id="rect4179-31-1-376" data-name="rect4179-31-1-3" class="st1" d="M220.7,129.7c0,3.1,2.5,5.6,5.6,5.6h37.3c3.1,0,5.6-2.5,5.6-5.6v-12.4c0-3.1-2.5-5.6-5.6-5.6h-37.3c-3.1,0-5.6,2.5-5.6,5.6v12.4ZM221.8,129.7v-12.4c0-2.5,2-4.4,4.4-4.4h37.3c2.5,0,4.4,2,4.4,4.4v12.4c0,2.5-2,4.4-4.4,4.4h-37.3c-2.5,0-4.4-2-4.4-4.4Z"/>
    <path id="rect4179-31-1-377" data-name="rect4179-31-1-3" class="st1" d="M169.5,129.7c0,3.1,2.5,5.6,5.6,5.6h37.3c3.1,0,5.6-2.5,5.6-5.6v-12.4c0-3.1-2.5-5.6-5.6-5.6h-37.3c-3.1,0-5.6,2.5-5.6,5.6v12.4ZM170.6,129.7v-12.4c0-2.5,2-4.4,4.4-4.4h37.3c2.5,0,4.4,2,4.4,4.4v12.4c0,2.5-2,4.4-4.4,4.4h-37.3c-2.5,0-4.4-2-4.4-4.4Z"/>
    <path id="rect4179-31-1-378" data-name="rect4179-31-1-3" class="st1" d="M118.2,129.7c0,3.1,2.5,5.6,5.6,5.6h37.3c3.1,0,5.6-2.5,5.6-5.6v-12.4c0-3.1-2.5-5.6-5.6-5.6h-37.3c-3.1,0-5.6,2.5-5.6,5.6v12.4ZM119.3,129.7v-12.4c0-2.5,2-4.4,4.4-4.4h37.3c2.5,0,4.4,2,4.4,4.4v12.4c0,2.5-2,4.4-4.4,4.4h-37.3c-2.5,0-4.4-2-4.4-4.4Z"/>
  </g>
</svg>