<?xml version="1.0" encoding="UTF-8"?>
<svg id="Layer_3" xmlns="http://www.w3.org/2000/svg" version="1.1" xmlns:cc="http://creativecommons.org/ns#" xmlns:dc="http://purl.org/dc/elements/1.1/" xmlns:rdf="http://www.w3.org/1999/02/22-rdf-syntax-ns#" viewBox="0 0 598.2 350.3">
  <!-- Generator: Adobe Illustrator 29.0.1, SVG Export Plug-In . SVG Version: 2.1.0 Build 192)  -->
  <defs>
    <style>
      .st0 {
        fill: #f4f4f4;
        fill-rule: evenodd;
      }
    </style>
  </defs>
  <path id="path4" class="st0" d="M269.7,48.8v53.9h58.9v-53.9h-58.9ZM274.2,52.9h49.8v45.6h-49.8v-45.6Z"/>
  <path id="path6" class="st0" d="M215.3,98.5v53.9h58.9v-53.9h-58.9ZM219.8,102.6h49.8v45.6h-49.8v-45.6Z"/>
  <path id="path10" class="st0" d="M324,98.5v53.9h58.9v-53.9h-58.9ZM328.5,102.6h49.8v45.6h-49.8v-45.6Z"/>
  <path id="path12" class="st0" d="M161,148.2v53.9h58.9v-53.9h-58.9ZM165.5,152.3h49.8v45.6h-49.8v-45.6Z"/>
  <path id="path14" class="st0" d="M378.3,148.2v53.9h58.9v-53.9h-58.9ZM382.9,152.3h49.8v45.6h-49.8v-45.6Z"/>
  <path id="path16" class="st0" d="M215.3,197.9v53.9h58.9v-53.9h-58.9ZM219.8,202.1h49.8v45.6h-49.8v-45.6Z"/>
  <path id="path18" class="st0" d="M324,197.9v53.9h58.9v-53.9h-58.9ZM328.5,202.1h49.8v45.6h-49.8v-45.6Z"/>
  <path id="path20" class="st0" d="M269.7,247.6v53.9h58.9v-53.9h-58.9ZM274.2,251.8h49.8v45.6h-49.8v-45.6Z"/>
</svg>