<?xml version="1.0" encoding="UTF-8"?>
<svg id="Layer_3" xmlns="http://www.w3.org/2000/svg" version="1.1" xmlns:cc="http://creativecommons.org/ns#" xmlns:dc="http://purl.org/dc/elements/1.1/" xmlns:rdf="http://www.w3.org/1999/02/22-rdf-syntax-ns#" viewBox="0 0 598.2 350.3">
  <!-- Generator: Adobe Illustrator 29.0.1, SVG Export Plug-In . SVG Version: 2.1.0 Build 192)  -->
  <defs>
    <style>
      .st0 {
        fill: #f4f4f4;
      }
    </style>
  </defs>
  <path id="path73" class="st0" d="M67.2,99.4c-2.3,0-4.2,2.1-4.2,4.6v22.2c0,2.5,1.9,4.6,4.2,4.6h20.5c2.3,0,4.2-2.1,4.2-4.6v-22.2c0-2.5-1.9-4.6-4.2-4.6h-20.5ZM67.2,101.7h20.5c1.1,0,2,1,2,2.2v22.2c0,1.2-.9,2.2-2,2.2h-20.5c-1.1,0-2-1-2-2.2v-22.2c0-1.2.9-2.2,2-2.2Z"/>
  <path id="path75" class="st0" d="M97.7,99.4c-2.3,0-4.2,2.1-4.2,4.6v22.2c0,2.5,1.9,4.6,4.2,4.6h20.5c2.3,0,4.2-2.1,4.2-4.6v-22.2c0-2.5-1.9-4.6-4.2-4.6h-20.5ZM97.7,101.7h20.5c1.1,0,2,1,2,2.2v22.2c0,1.2-.9,2.2-2,2.2h-20.5c-1.1,0-2-1-2-2.2v-22.2c0-1.2.9-2.2,2-2.2Z"/>
  <path id="path77" class="st0" d="M128.3,99.4c-2.3,0-4.2,2.1-4.2,4.6v22.2c0,2.5,1.9,4.6,4.2,4.6h20.5c2.3,0,4.2-2.1,4.2-4.6v-22.2c0-2.5-1.9-4.6-4.2-4.6h-20.5ZM128.3,101.7h20.5c1.1,0,2,1,2,2.2v22.2c0,1.2-.9,2.2-2,2.2h-20.5c-1.1,0-2-1-2-2.2v-22.2c0-1.2.9-2.2,2-2.2Z"/>
  <path id="path79" class="st0" d="M158.9,99.4c-2.3,0-4.2,2.1-4.2,4.6v22.2c0,2.5,1.9,4.6,4.2,4.6h20.5c2.3,0,4.2-2.1,4.2-4.6v-22.2c0-2.5-1.9-4.6-4.2-4.6h-20.5ZM158.9,101.7h20.5c1.1,0,2,1,2,2.2v22.2c0,1.2-.9,2.2-2,2.2h-20.5c-1.1,0-2-1-2-2.2v-22.2c0-1.2.9-2.2,2-2.2Z"/>
  <path id="path81" class="st0" d="M189.4,99.4c-2.3,0-4.2,2.1-4.2,4.6v22.2c0,2.5,1.9,4.6,4.2,4.6h20.5c2.3,0,4.2-2.1,4.2-4.6v-22.2c0-2.5-1.9-4.6-4.2-4.6h-20.5ZM189.4,101.7h20.5c1.1,0,2,1,2,2.2v22.2c0,1.2-.9,2.2-2,2.2h-20.5c-1.1,0-2-1-2-2.2v-22.2c0-1.2.9-2.2,2-2.2Z"/>
  <path id="path83" class="st0" d="M220,99.4c-2.3,0-4.2,2.1-4.2,4.6v22.2c0,2.5,1.9,4.6,4.2,4.6h20.5c2.3,0,4.2-2.1,4.2-4.6v-22.2c0-2.5-1.9-4.6-4.2-4.6h-20.5ZM220,101.7h20.5c1.1,0,2,1,2,2.2v22.2c0,1.2-.9,2.2-2,2.2h-20.5c-1.1,0-2-1-2-2.2v-22.2c0-1.2.9-2.2,2-2.2Z"/>
  <path id="path85" class="st0" d="M250.6,99.4c-2.3,0-4.2,2.1-4.2,4.6v22.2c0,2.5,1.9,4.6,4.2,4.6h20.5c2.3,0,4.2-2.1,4.2-4.6v-22.2c0-2.5-1.9-4.6-4.2-4.6h-20.5ZM250.6,101.7h20.5c1.1,0,2,1,2,2.2v22.2c0,1.2-.9,2.2-2,2.2h-20.5c-1.1,0-2-1-2-2.2v-22.2c0-1.2.9-2.2,2-2.2Z"/>
  <path id="path87" class="st0" d="M281.2,99.4c-2.3,0-4.2,2.1-4.2,4.6v22.2c0,2.5,1.9,4.6,4.2,4.6h20.5c2.3,0,4.2-2.1,4.2-4.6v-22.2c0-2.5-1.9-4.6-4.2-4.6h-20.5ZM281.2,101.7h20.5c1.1,0,2,1,2,2.2v22.2c0,1.2-.9,2.2-2,2.2h-20.5c-1.1,0-2-1-2-2.2v-22.2c0-1.2.9-2.2,2-2.2Z"/>
  <path id="path89" class="st0" d="M311.8,99.4c-2.3,0-4.2,2.1-4.2,4.6v22.2c0,2.5,1.9,4.6,4.2,4.6h20.5c2.3,0,4.2-2.1,4.2-4.6v-22.2c0-2.5-1.9-4.6-4.2-4.6h-20.5ZM311.8,101.7h20.5c1.1,0,2,1,2,2.2v22.2c0,1.2-.9,2.2-2,2.2h-20.5c-1.1,0-2-1-2-2.2v-22.2c0-1.2.9-2.2,2-2.2Z"/>
  <path id="path91" class="st0" d="M342.3,99.4c-2.3,0-4.2,2.1-4.2,4.6v22.2c0,2.5,1.9,4.6,4.2,4.6h20.5c2.3,0,4.2-2.1,4.2-4.6v-22.2c0-2.5-1.9-4.6-4.2-4.6h-20.5ZM342.3,101.7h20.5c1.1,0,2,1,2,2.2v22.2c0,1.2-.9,2.2-2,2.2h-20.5c-1.1,0-2-1-2-2.2v-22.2c0-1.2.9-2.2,2-2.2Z"/>
  <path id="path99" class="st0" d="M372.9,99.4c-2.3,0-4.2,2.1-4.2,4.6v22.2c0,2.5,1.9,4.6,4.2,4.6h20.5c2.3,0,4.2-2.1,4.2-4.6v-22.2c0-2.5-1.9-4.6-4.2-4.6h-20.5ZM372.9,101.7h20.5c1.1,0,2,1,2,2.2v22.2c0,1.2-.9,2.2-2,2.2h-20.5c-1.1,0-2-1-2-2.2v-22.2c0-1.2.9-2.2,2-2.2Z"/>
  <path id="path101" class="st0" d="M403.5,99.4c-2.3,0-4.2,2.1-4.2,4.6v22.2c0,2.5,1.9,4.6,4.2,4.6h20.5c2.3,0,4.2-2.1,4.2-4.6v-22.2c0-2.5-1.9-4.6-4.2-4.6h-20.5ZM403.5,101.7h20.5c1.1,0,2,1,2,2.2v22.2c0,1.2-.9,2.2-2,2.2h-20.5c-1.1,0-2-1-2-2.2v-22.2c0-1.2.9-2.2,2-2.2Z"/>
  <path id="path103" class="st0" d="M434.1,99.4c-2.3,0-4.2,2.1-4.2,4.6v22.2c0,2.5,1.9,4.6,4.2,4.6h20.5c2.3,0,4.2-2.1,4.2-4.6v-22.2c0-2.5-1.9-4.6-4.2-4.6h-20.5ZM434.1,101.7h20.5c1.1,0,2,1,2,2.2v22.2c0,1.2-.9,2.2-2,2.2h-20.5c-1.1,0-2-1-2-2.2v-22.2c0-1.2.9-2.2,2-2.2Z"/>
  <path id="path105" class="st0" d="M464.6,99.4c-2.3,0-4.2,2.1-4.2,4.6v22.2c0,2.5,1.9,4.6,4.2,4.6h20.5c2.3,0,4.2-2.1,4.2-4.6v-22.2c0-2.5-1.9-4.6-4.2-4.6h-20.5ZM464.6,101.7h20.5c1.1,0,2,1,2,2.2v22.2c0,1.2-.9,2.2-2,2.2h-20.5c-1.1,0-2-1-2-2.2v-22.2c0-1.2.9-2.2,2-2.2Z"/>
  <path id="path107" class="st0" d="M495.2,99.4c-2.3,0-4.2,2.1-4.2,4.6v22.2c0,2.5,1.9,4.6,4.2,4.6h20.5c2.3,0,4.2-2.1,4.2-4.6v-22.2c0-2.5-1.9-4.6-4.2-4.6h-20.5ZM495.2,101.7h20.5c1.1,0,2,1,2,2.2v22.2c0,1.2-.9,2.2-2,2.2h-20.5c-1.1,0-2-1-2-2.2v-22.2c0-1.2.9-2.2,2-2.2Z"/>
  <path id="path111" class="st0" d="M67.1,165.8c-2.3,0-4.2,2-4.2,4.5v22.2c0,2.5,1.9,4.6,4.2,4.6h20.5c2.3,0,4.2-2.1,4.2-4.6v-22.2c0-2.5-1.9-4.5-4.2-4.5h-20.5ZM67.1,168.2h20.5c1.1,0,2,.9,2,2.2v22.2c0,1.2-.9,2.2-2,2.2h-20.5c-1.1,0-2-1-2-2.2v-22.2c0-1.2.9-2.2,2-2.2Z"/>
  <path id="path113" class="st0" d="M97.7,165.8c-2.3,0-4.2,2-4.2,4.5v22.2c0,2.5,1.9,4.6,4.2,4.6h20.5c2.3,0,4.2-2.1,4.2-4.6v-22.2c0-2.5-1.9-4.5-4.2-4.5h-20.5ZM97.7,168.2h20.5c1.1,0,2,.9,2,2.2v22.2c0,1.2-.9,2.2-2,2.2h-20.5c-1.1,0-2-1-2-2.2v-22.2c0-1.2.9-2.2,2-2.2Z"/>
  <path id="path115" class="st0" d="M128.3,165.8c-2.3,0-4.2,2-4.2,4.5v22.2c0,2.5,1.9,4.6,4.2,4.6h20.5c2.3,0,4.2-2.1,4.2-4.6v-22.2c0-2.5-1.9-4.5-4.2-4.5h-20.5ZM128.3,168.2h20.5c1.1,0,2,.9,2,2.2v22.2c0,1.2-.9,2.2-2,2.2h-20.5c-1.1,0-2-1-2-2.2v-22.2c0-1.2.9-2.2,2-2.2Z"/>
  <path id="path117" class="st0" d="M158.9,165.8c-2.3,0-4.2,2-4.2,4.5v22.2c0,2.5,1.9,4.6,4.2,4.6h20.5c2.3,0,4.2-2.1,4.2-4.6v-22.2c0-2.5-1.9-4.5-4.2-4.5h-20.5ZM158.9,168.2h20.5c1.1,0,2,.9,2,2.2v22.2c0,1.2-.9,2.2-2,2.2h-20.5c-1.1,0-2-1-2-2.2v-22.2c0-1.2.9-2.2,2-2.2Z"/>
  <path id="path119" class="st0" d="M189.4,165.8c-2.3,0-4.2,2-4.2,4.5v22.2c0,2.5,1.9,4.6,4.2,4.6h20.5c2.3,0,4.2-2.1,4.2-4.6v-22.2c0-2.5-1.9-4.5-4.2-4.5h-20.5ZM189.4,168.2h20.5c1.1,0,2,.9,2,2.2v22.2c0,1.2-.9,2.2-2,2.2h-20.5c-1.1,0-2-1-2-2.2v-22.2c0-1.2.9-2.2,2-2.2Z"/>
  <path id="path121" class="st0" d="M220,165.8c-2.3,0-4.2,2-4.2,4.5v22.2c0,2.5,1.9,4.6,4.2,4.6h20.5c2.3,0,4.2-2.1,4.2-4.6v-22.2c0-2.5-1.9-4.5-4.2-4.5h-20.5ZM220,168.2h20.5c1.1,0,2,.9,2,2.2v22.2c0,1.2-.9,2.2-2,2.2h-20.5c-1.1,0-2-1-2-2.2v-22.2c0-1.2.9-2.2,2-2.2Z"/>
  <path id="path123" class="st0" d="M250.6,165.8c-2.3,0-4.2,2-4.2,4.5v22.2c0,2.5,1.9,4.6,4.2,4.6h20.5c2.3,0,4.2-2.1,4.2-4.6v-22.2c0-2.5-1.9-4.5-4.2-4.5h-20.5ZM250.6,168.2h20.5c1.1,0,2,.9,2,2.2v22.2c0,1.2-.9,2.2-2,2.2h-20.5c-1.1,0-2-1-2-2.2v-22.2c0-1.2.9-2.2,2-2.2Z"/>
  <path id="path125" class="st0" d="M281.2,165.8c-2.3,0-4.2,2-4.2,4.5v22.2c0,2.5,1.9,4.6,4.2,4.6h20.5c2.3,0,4.2-2.1,4.2-4.6v-22.2c0-2.5-1.9-4.5-4.2-4.5h-20.5ZM281.2,168.2h20.5c1.1,0,2,.9,2,2.2v22.2c0,1.2-.9,2.2-2,2.2h-20.5c-1.1,0-2-1-2-2.2v-22.2c0-1.2.9-2.2,2-2.2Z"/>
  <path id="path127" class="st0" d="M311.7,165.8c-2.3,0-4.2,2-4.2,4.5v22.2c0,2.5,1.9,4.6,4.2,4.6h20.5c2.3,0,4.2-2.1,4.2-4.6v-22.2c0-2.5-1.9-4.5-4.2-4.5h-20.5ZM311.7,168.2h20.5c1.1,0,2,.9,2,2.2v22.2c0,1.2-.9,2.2-2,2.2h-20.5c-1.1,0-2-1-2-2.2v-22.2c0-1.2.9-2.2,2-2.2Z"/>
  <path id="path129" class="st0" d="M342.3,165.8c-2.3,0-4.2,2-4.2,4.5v22.2c0,2.5,1.9,4.6,4.2,4.6h20.5c2.3,0,4.2-2.1,4.2-4.6v-22.2c0-2.5-1.9-4.5-4.2-4.5h-20.5ZM342.3,168.2h20.5c1.1,0,2,.9,2,2.2v22.2c0,1.2-.9,2.2-2,2.2h-20.5c-1.1,0-2-1-2-2.2v-22.2c0-1.2.9-2.2,2-2.2Z"/>
  <path id="path131" class="st0" d="M372.9,165.8c-2.3,0-4.2,2-4.2,4.5v22.2c0,2.5,1.9,4.6,4.2,4.6h20.5c2.3,0,4.2-2.1,4.2-4.6v-22.2c0-2.5-1.9-4.5-4.2-4.5h-20.5ZM372.9,168.2h20.5c1.1,0,2,.9,2,2.2v22.2c0,1.2-.9,2.2-2,2.2h-20.5c-1.1,0-2-1-2-2.2v-22.2c0-1.2.9-2.2,2-2.2Z"/>
  <path id="path133" class="st0" d="M403.5,165.8c-2.3,0-4.2,2-4.2,4.5v22.2c0,2.5,1.9,4.6,4.2,4.6h20.5c2.3,0,4.2-2.1,4.2-4.6v-22.2c0-2.5-1.9-4.5-4.2-4.5h-20.5ZM403.5,168.2h20.5c1.1,0,2,.9,2,2.2v22.2c0,1.2-.9,2.2-2,2.2h-20.5c-1.1,0-2-1-2-2.2v-22.2c0-1.2.9-2.2,2-2.2Z"/>
  <path id="path135" class="st0" d="M436.1,165.8c-3.4,0-6.3,2-6.3,4.5v22.2c0,2.5,2.8,4.6,6.3,4.6h30.8c3.5,0,6.3-2.1,6.3-4.6v-22.2c0-2.5-2.8-4.5-6.3-4.5h-30.8ZM436.1,168.2h30.8c1.7,0,3,.9,3,2.2v22.2c0,1.2-1.3,2.2-3,2.2h-30.8c-1.7,0-3-1-3-2.2v-22.2c0-1.2,1.3-2.2,3-2.2Z"/>
  <path id="path139" class="st0" d="M67.2,199c-2.3,0-4.2,2.1-4.2,4.6v22.2c0,2.5,1.9,4.6,4.2,4.6h20.5c2.3,0,4.2-2.1,4.2-4.6v-22.2c0-2.5-1.9-4.6-4.2-4.6h-20.5ZM67.2,201.4h20.5c1.1,0,2,1,2,2.2v22.2c0,1.2-.9,2.2-2,2.2h-20.5c-1.1,0-2-1-2-2.2v-22.2c0-1.2.9-2.2,2-2.2Z"/>
  <path id="path141" class="st0" d="M97.8,199c-2.3,0-4.2,2.1-4.2,4.6v22.2c0,2.5,1.9,4.6,4.2,4.6h20.5c2.3,0,4.2-2.1,4.2-4.6v-22.2c0-2.5-1.9-4.6-4.2-4.6h-20.5ZM97.8,201.4h20.5c1.1,0,2,1,2,2.2v22.2c0,1.2-.9,2.2-2,2.2h-20.5c-1.1,0-2-1-2-2.2v-22.2c0-1.2.9-2.2,2-2.2Z"/>
  <path id="path143" class="st0" d="M128.4,199c-2.3,0-4.2,2.1-4.2,4.6v22.2c0,2.5,1.9,4.6,4.2,4.6h20.5c2.3,0,4.2-2.1,4.2-4.6v-22.2c0-2.5-1.9-4.6-4.2-4.6h-20.5ZM128.4,201.4h20.5c1.1,0,2,1,2,2.2v22.2c0,1.2-.9,2.2-2,2.2h-20.5c-1.1,0-2-1-2-2.2v-22.2c0-1.2.9-2.2,2-2.2Z"/>
  <path id="path145" class="st0" d="M159,199c-2.3,0-4.2,2.1-4.2,4.6v22.2c0,2.5,1.9,4.6,4.2,4.6h20.5c2.3,0,4.2-2.1,4.2-4.6v-22.2c0-2.5-1.9-4.6-4.2-4.6h-20.5ZM159,201.4h20.5c1.1,0,2,1,2,2.2v22.2c0,1.2-.9,2.2-2,2.2h-20.5c-1.1,0-2-1-2-2.2v-22.2c0-1.2.9-2.2,2-2.2Z"/>
  <path id="path147" class="st0" d="M189.5,199c-2.3,0-4.2,2.1-4.2,4.6v22.2c0,2.5,1.9,4.6,4.2,4.6h20.5c2.3,0,4.2-2.1,4.2-4.6v-22.2c0-2.5-1.9-4.6-4.2-4.6h-20.5ZM189.5,201.4h20.5c1.1,0,2,1,2,2.2v22.2c0,1.2-.9,2.2-2,2.2h-20.5c-1.1,0-2-1-2-2.2v-22.2c0-1.2.9-2.2,2-2.2Z"/>
  <path id="path149" class="st0" d="M220.1,199c-2.3,0-4.2,2.1-4.2,4.6v22.2c0,2.5,1.9,4.6,4.2,4.6h20.5c2.3,0,4.2-2.1,4.2-4.6v-22.2c0-2.5-1.9-4.6-4.2-4.6h-20.5ZM220.1,201.4h20.5c1.1,0,2,1,2,2.2v22.2c0,1.2-.9,2.2-2,2.2h-20.5c-1.1,0-2-1-2-2.2v-22.2c0-1.2.9-2.2,2-2.2Z"/>
  <path id="path151" class="st0" d="M250.7,199c-2.3,0-4.2,2.1-4.2,4.6v22.2c0,2.5,1.9,4.6,4.2,4.6h20.5c2.3,0,4.2-2.1,4.2-4.6v-22.2c0-2.5-1.9-4.6-4.2-4.6h-20.5ZM250.7,201.4h20.5c1.1,0,2,1,2,2.2v22.2c0,1.2-.9,2.2-2,2.2h-20.5c-1.1,0-2-1-2-2.2v-22.2c0-1.2.9-2.2,2-2.2Z"/>
  <path id="path153" class="st0" d="M281.3,199c-2.3,0-4.2,2.1-4.2,4.6v22.2c0,2.5,1.9,4.6,4.2,4.6h20.5c2.3,0,4.2-2.1,4.2-4.6v-22.2c0-2.5-1.9-4.6-4.2-4.6h-20.5ZM281.3,201.4h20.5c1.1,0,2,1,2,2.2v22.2c0,1.2-.9,2.2-2,2.2h-20.5c-1.1,0-2-1-2-2.2v-22.2c0-1.2.9-2.2,2-2.2Z"/>
  <path id="path155" class="st0" d="M311.8,199c-2.3,0-4.2,2.1-4.2,4.6v22.2c0,2.5,1.9,4.6,4.2,4.6h20.5c2.3,0,4.2-2.1,4.2-4.6v-22.2c0-2.5-1.9-4.6-4.2-4.6h-20.5ZM311.8,201.4h20.5c1.1,0,2,1,2,2.2v22.2c0,1.2-.9,2.2-2,2.2h-20.5c-1.1,0-2-1-2-2.2v-22.2c0-1.2.9-2.2,2-2.2Z"/>
  <path id="path157" class="st0" d="M342.4,199c-2.3,0-4.2,2.1-4.2,4.6v22.2c0,2.5,1.9,4.6,4.2,4.6h20.5c2.3,0,4.2-2.1,4.2-4.6v-22.2c0-2.5-1.9-4.6-4.2-4.6h-20.5ZM342.4,201.4h20.5c1.1,0,2,1,2,2.2v22.2c0,1.2-.9,2.2-2,2.2h-20.5c-1.1,0-2-1-2-2.2v-22.2c0-1.2.9-2.2,2-2.2Z"/>
  <path id="path159" class="st0" d="M373,199c-2.3,0-4.2,2.1-4.2,4.6v22.2c0,2.5,1.9,4.6,4.2,4.6h20.5c2.3,0,4.2-2.1,4.2-4.6v-22.2c0-2.5-1.9-4.6-4.2-4.6h-20.5ZM373,201.4h20.5c1.1,0,2,1,2,2.2v22.2c0,1.2-.9,2.2-2,2.2h-20.5c-1.1,0-2-1-2-2.2v-22.2c0-1.2.9-2.2,2-2.2Z"/>
  <path id="path161" class="st0" d="M403.5,199c-2.3,0-4.2,2.1-4.2,4.6v22.2c0,2.5,1.9,4.6,4.2,4.6h37c2.3,0,4.2-2.1,4.2-4.6v-22.2c0-2.5-1.9-4.6-4.2-4.6h-37ZM403.5,201.4h37c1.1,0,2,1,2,2.2v22.2c0,1.2-.9,2.2-2,2.2h-37c-1.1,0-2-1-2-2.2v-22.2c0-1.2.9-2.2,2-2.2Z"/>
  <path id="path167" class="st0" d="M156,232.2c-2.3,0-4.2,2-4.2,4.5v22.3c0,2.5,1.9,4.5,4.2,4.5h238.6c2.3,0,4.2-2,4.2-4.5v-22.3c0-2.5-1.9-4.5-4.2-4.5h-238.6ZM156,234.6h238.6c1.1,0,2,.9,2,2.2v22.3c0,1.2-.9,2.2-2,2.2h-238.6c-1.1,0-2-.9-2-2.2v-22.3c0-1.2.9-2.2,2-2.2Z"/>
  <path id="path169" class="st0" d="M67.9,132.6c-2.7,0-5,2-5,4.5v22.3c0,2.5,2.3,4.5,5,4.5h33.4c2.3,0,4.1-1.4,4.7-3.3h.3v-23.5c0-2.5-2.3-4.5-5-4.5h-33.4ZM67.9,135h33.4c1.3,0,2.4.9,2.4,2.2v22.3c0,1.2-1.1,2.2-2.4,2.2h-33.4c-1.3,0-2.4-.9-2.4-2.2v-22.3c0-1.2,1.1-2.2,2.4-2.2Z"/>
  <path id="path171" class="st0" d="M112.2,132.6c-2.3,0-4.2,2-4.2,4.5v22.3c0,2.5,1.9,4.5,4.2,4.5h20.5c2.3,0,4.2-2,4.2-4.5v-22.3c0-2.5-1.9-4.5-4.2-4.5h-20.5ZM112.2,135h20.5c1.1,0,2,.9,2,2.2v22.3c0,1.2-.9,2.2-2,2.2h-20.5c-1.1,0-2-.9-2-2.2v-22.3c0-1.2.9-2.2,2-2.2Z"/>
  <path id="path173" class="st0" d="M142.7,132.6c-2.3,0-4.2,2-4.2,4.5v22.3c0,2.5,1.9,4.5,4.2,4.5h20.5c2.3,0,4.2-2,4.2-4.5v-22.3c0-2.5-1.9-4.5-4.2-4.5h-20.5ZM142.7,135h20.5c1.1,0,2,.9,2,2.2v22.3c0,1.2-.9,2.2-2,2.2h-20.5c-1.1,0-2-.9-2-2.2v-22.3c0-1.2.9-2.2,2-2.2Z"/>
  <path id="path175" class="st0" d="M173.3,132.6c-2.3,0-4.2,2-4.2,4.5v22.3c0,2.5,1.9,4.5,4.2,4.5h20.5c2.3,0,4.2-2,4.2-4.5v-22.3c0-2.5-1.9-4.5-4.2-4.5h-20.5ZM173.3,135h20.5c1.1,0,2,.9,2,2.2v22.3c0,1.2-.9,2.2-2,2.2h-20.5c-1.1,0-2-.9-2-2.2v-22.3c0-1.2.9-2.2,2-2.2Z"/>
  <path id="path177" class="st0" d="M203.9,132.6c-2.3,0-4.2,2-4.2,4.5v22.3c0,2.5,1.9,4.5,4.2,4.5h20.5c2.3,0,4.2-2,4.2-4.5v-22.3c0-2.5-1.9-4.5-4.2-4.5h-20.5ZM203.9,135h20.5c1.1,0,2,.9,2,2.2v22.3c0,1.2-.9,2.2-2,2.2h-20.5c-1.1,0-2-.9-2-2.2v-22.3c0-1.2.9-2.2,2-2.2Z"/>
  <path id="path179" class="st0" d="M234.5,132.6c-2.3,0-4.2,2-4.2,4.5v22.3c0,2.5,1.9,4.5,4.2,4.5h20.5c2.3,0,4.2-2,4.2-4.5v-22.3c0-2.5-1.9-4.5-4.2-4.5h-20.5ZM234.5,135h20.5c1.1,0,2,.9,2,2.2v22.3c0,1.2-.9,2.2-2,2.2h-20.5c-1.1,0-2-.9-2-2.2v-22.3c0-1.2.9-2.2,2-2.2Z"/>
  <path id="path181" class="st0" d="M265.1,132.6c-2.3,0-4.2,2-4.2,4.5v22.3c0,2.5,1.9,4.5,4.2,4.5h20.5c2.3,0,4.2-2,4.2-4.5v-22.3c0-2.5-1.9-4.5-4.2-4.5h-20.5ZM265.1,135h20.5c1.1,0,2,.9,2,2.2v22.3c0,1.2-.9,2.2-2,2.2h-20.5c-1.1,0-2-.9-2-2.2v-22.3c0-1.2.9-2.2,2-2.2Z"/>
  <path id="path183" class="st0" d="M295.6,132.6c-2.3,0-4.2,2-4.2,4.5v22.3c0,2.5,1.9,4.5,4.2,4.5h20.5c2.3,0,4.2-2,4.2-4.5v-22.3c0-2.5-1.9-4.5-4.2-4.5h-20.5ZM295.6,135h20.5c1.1,0,2,.9,2,2.2v22.3c0,1.2-.9,2.2-2,2.2h-20.5c-1.1,0-2-.9-2-2.2v-22.3c0-1.2.9-2.2,2-2.2Z"/>
  <path id="path185" class="st0" d="M326.2,132.6c-2.3,0-4.2,2-4.2,4.5v22.3c0,2.5,1.9,4.5,4.2,4.5h20.5c2.3,0,4.2-2,4.2-4.5v-22.3c0-2.5-1.9-4.5-4.2-4.5h-20.5ZM326.2,135h20.5c1.1,0,2,.9,2,2.2v22.3c0,1.2-.9,2.2-2,2.2h-20.5c-1.1,0-2-.9-2-2.2v-22.3c0-1.2.9-2.2,2-2.2Z"/>
  <path id="path187" class="st0" d="M356.8,132.6c-2.3,0-4.2,2-4.2,4.5v22.3c0,2.5,1.9,4.5,4.2,4.5h20.5c2.3,0,4.2-2,4.2-4.5v-22.3c0-2.5-1.9-4.5-4.2-4.5h-20.5ZM356.8,135h20.5c1.1,0,2,.9,2,2.2v22.3c0,1.2-.9,2.2-2,2.2h-20.5c-1.1,0-2-.9-2-2.2v-22.3c0-1.2.9-2.2,2-2.2Z"/>
  <path id="path189" class="st0" d="M387.3,132.6c-2.3,0-4.2,2-4.2,4.5v22.3c0,2.5,1.9,4.5,4.2,4.5h20.5c2.3,0,4.2-2,4.2-4.5v-22.3c0-2.5-1.9-4.5-4.2-4.5h-20.5ZM387.3,135h20.5c1.1,0,2,.9,2,2.2v22.3c0,1.2-.9,2.2-2,2.2h-20.5c-1.1,0-2-.9-2-2.2v-22.3c0-1.2.9-2.2,2-2.2Z"/>
  <path id="path191" class="st0" d="M417.9,132.6c-2.3,0-4.2,2-4.2,4.5v22.3c0,2.5,1.9,4.5,4.2,4.5h20.5c2.3,0,4.2-2,4.2-4.5v-22.3c0-2.5-1.9-4.5-4.2-4.5h-20.5ZM417.9,135h20.5c1.1,0,2,.9,2,2.2v22.3c0,1.2-.9,2.2-2,2.2h-20.5c-1.1,0-2-.9-2-2.2v-22.3c0-1.2.9-2.2,2-2.2Z"/>
  <path id="path193" class="st0" d="M448.5,132.6c-2.3,0-4.2,2-4.2,4.5v22.3c0,2.5,1.9,4.5,4.2,4.5h20.5c2.3,0,4.2-2,4.2-4.5v-22.3c0-2.5-1.9-4.5-4.2-4.5h-20.5ZM448.5,135h20.5c1.1,0,2,.9,2,2.2v22.3c0,1.2-.9,2.2-2,2.2h-20.5c-1.1,0-2-.9-2-2.2v-22.3c0-1.2.9-2.2,2-2.2Z"/>
  <path id="path195" class="st0" d="M479.1,132.6c-2.3,0-4.2,2-4.2,4.5v22.3c0,2.5,1.9,4.5,4.2,4.5h36.5c2.3,0,4.2-2,4.2-4.5v-22.3c0-2.5-1.9-4.5-4.2-4.5h-36.5ZM479.1,135h36.5c1.1,0,2,.9,2,2.2v22.3c0,1.2-.9,2.2-2,2.2h-36.5c-1.1,0-2-.9-2-2.2v-22.3c0-1.2.9-2.2,2-2.2Z"/>
</svg>