<?xml version="1.0" encoding="UTF-8"?>
<svg xmlns="http://www.w3.org/2000/svg" version="1.1" xmlns:cc="http://creativecommons.org/ns#" xmlns:dc="http://purl.org/dc/elements/1.1/" xmlns:inkscape="http://www.inkscape.org/namespaces/inkscape" xmlns:ns="&amp;ns_sfw;" xmlns:rdf="http://www.w3.org/1999/02/22-rdf-syntax-ns#" xmlns:sodipodi="http://sodipodi.sourceforge.net/DTD/sodipodi-0.dtd" xmlns:svg="http://www.w3.org/2000/svg" viewBox="0 0 598.2 350.3">
  <!-- Generator: Adobe Illustrator 29.1.0, SVG Export Plug-In . SVG Version: 2.1.0 Build 142)  -->
  <defs>
    <style>
      .st0 {
        fill: #f4f4f4;
      }
    </style>
  </defs>
  <g id="Layer_3" inkscape:version="1.0 (4035a4fb49, 2020-05-01)">
    <g>
      <path class="st0" d="M168.8,123.8c1.6,1.5,3.3,2.9,5.2,2.9s2.5-.2,3.3-.6c.8-.4,1.3-1,2.1-1.6,1.6-1.3,4.2-4,5-4.8.6-.7,2.3-2,2.3-4.7v-9.9c0-1.2-.2-2.5-1-3.6-.8-1.1-2.2-1.9-4.3-1.9-3.5,0-9.3,0-10.2,0h0s-.7,0-.7,0h-3.7c-1.8,0-3,.9-3.5,1.9-.5,1-.5,2.1-.5,2.6v8.7c0,2.9.2,4.5,2.1,6.7.9,1.1,2.3,2.9,3.9,4.4ZM164.3,104c0-.5,0-1.3.4-1.9s.8-1.1,2.2-1.1h0s3.7,0,3.7,0h0s7.2,0,10.9,0,2.5.5,3,1.3.7,1.8.7,2.8v9.9c0,2.2-1,2.8-1.9,3.7-.7.7-3.4,3.4-4.8,4.7-.8.7-1.2,1.1-1.8,1.4s-1.2.4-2.6.4-2.7-1.1-4.2-2.5-2.9-3.2-3.8-4.3c-1.7-2.1-1.8-2.9-1.8-5.8v-8.7Z"/>
      <path class="st0" d="M180.6,144.3c-1.6-1.5-3.3-2.9-5.2-2.9h0c-1.5,0-2.5.2-3.3.6-.8.4-1.3,1-2.1,1.6-1.6,1.3-4.2,4-5,4.8-.6.7-2.3,2-2.3,4.7v9.9c0,1.2.2,2.5,1,3.6s2.2,1.9,4.3,1.9c3.5,0,9.3,0,10.2,0h0s.7,0,.7,0h3.7c1.8,0,3-.9,3.5-1.9s.5-2.1.5-2.6v-8.7c0-2.9-.2-4.5-2.1-6.7-.9-1.1-2.3-2.9-3.9-4.4ZM185.2,164.1c0,.5,0,1.3-.4,1.9s-.8,1.1-2.2,1.1h-3.7s-7.2,0-10.9,0-2.5-.5-3-1.3-.7-1.8-.7-2.8v-9.9c0-2.2,1-2.8,1.9-3.7.7-.7,3.4-3.4,4.8-4.7.8-.7,1.2-1.1,1.8-1.4s1.2-.4,2.6-.4h0c1,0,2.7,1.1,4.2,2.5s2.9,3.2,3.8,4.3c1.7,2.1,1.8,2.9,1.8,5.8v8.7Z"/>
      <path class="st0" d="M142.1,145.5c1,.5,2.1.5,2.6.5h8.7c2.9,0,4.5-.2,6.7-2.1,1.1-.9,2.9-2.3,4.4-3.9s2.9-3.3,2.9-5.2-.2-2.5-.6-3.3c-.4-.8-1-1.3-1.6-2.1-1.3-1.6-4-4.2-4.8-5-.7-.6-2-2.3-4.7-2.3h-9.9c-1.2,0-2.5.2-3.6,1-1.1.8-1.9,2.2-1.9,4.3,0,3.5,0,9.3,0,10.2h0v.7h0s0,3.7,0,3.7c0,1.8.9,3,1.9,3.5ZM141.7,142v-3.7h0s0-7.2,0-10.9.5-2.5,1.3-3c.7-.5,1.8-.7,2.8-.7h9.9c2.2,0,2.8,1,3.7,1.9.7.7,3.4,3.4,4.7,4.8.7.8,1.1,1.2,1.4,1.8.3.5.4,1.2.4,2.6s-1.1,2.7-2.5,4.2-3.2,2.9-4.3,3.8c-2.1,1.7-2.9,1.8-5.8,1.8h-8.7c-.5,0-1.3,0-1.9-.4s-1.1-.8-1.1-2.2h0Z"/>
      <path class="st0" d="M185,128.2c-1.5,1.6-2.9,3.3-2.9,5.2h0c0,1.5.2,2.5.6,3.3.4.8,1,1.3,1.6,2.1,1.3,1.6,4,4.2,4.8,5,.7.6,2,2.3,4.7,2.3h9.9c1.2,0,2.5-.2,3.6-1,1.1-.8,1.9-2.2,1.9-4.3,0-3.5,0-9.3,0-10.2h0v-.7h0v-3.7c0-1.8-.9-3-1.9-3.5s-2.1-.5-2.6-.5h-8.7c-2.9,0-4.5.2-6.7,2.1-1.1.9-2.9,2.3-4.4,3.9ZM190.4,125.4c2.1-1.7,2.9-1.8,5.8-1.8h8.7c.5,0,1.3,0,1.9.4s1.1.8,1.1,2.2v3.7h0s0,7.2,0,10.9-.5,2.5-1.3,3c-.7.5-1.8.7-2.8.7h-9.9c-2.2,0-2.8-1-3.7-1.9-.7-.7-3.4-3.4-4.7-4.8-.7-.8-1.1-1.2-1.4-1.8-.3-.5-.4-1.2-.4-2.6h0c0-1,1.1-2.7,2.5-4.2,1.4-1.5,3.2-2.9,4.3-3.8Z"/>
      <path class="st0" d="M270,195.9h0c0-17.4-14.2-31.5-31.6-31.5h0c-17.5,0-31.7,14.2-31.7,31.7s14.2,31.7,31.7,31.7,31.6-14.1,31.6-31.5v-.2s0-.1,0-.1ZM238.3,226.2c-16.7,0-30.2-13.5-30.2-30.2s13.5-30.2,30.2-30.2,30.2,13.5,30.2,30.2-13.5,30.2-30.2,30.2Z"/>
      <path class="st0" d="M130.7,153.5c.2,0,.5,0,.8,0h0s21.6,0,21.6,0h0s.2,0,.4,0,.2,0,.4,0c.4,0,.9.2.9.3,0,0,.2.5.3.9,0,.4,0,.7,0,.7h0v21.8c0,.7,0,1.4,0,2.7,0,1.4,1,2.5,2.2,3.1v.4h34.2v-.2c1.5-.4,2.5-1.7,2.5-3.3,0-1.5,0-1.6,0-2.7h0v-21.6h0s0-.4,0-.9c0-.5.2-.9.3-1,0,0,.5-.2,1-.2,0,0,0,0,0,0,.4,0,.8,0,.8,0h0s21.4,0,21.4,0c.5,0,.9,0,1.6,0s.7,0,1.1,0c1.4,0,2.5-1,3.1-2.2h.4v-34.2h-.2c-.4-1.5-1.7-2.5-3.3-2.5-1,0-1.4,0-1.8,0s-.5,0-.8,0h0s-21.2,0-21.2,0h0s-.2,0-.5,0-.3,0-.4,0c-.5,0-1-.2-1.2-.3-.2-.2-.3-.7-.4-1.3,0-.6,0-1,0-1h0v-21c0-.7,0-1.4,0-2.7,0-1.4-1-2.5-2.2-3.1v-.4h-34.2v.2c-1.5.4-2.5,1.7-2.5,3.3,0,1.5,0,1.6,0,2.7h0v19.1s0,.7-.2,1.5c-.2.8-.6,1.7-1,2.1-.6.5-1.6.8-2.4.9-.5,0-.9,0-1.2,0s-.3,0-.3,0h0s-18.4,0-18.4,0c-.5,0-.9,0-1.6,0s-.7,0-1.1,0c-1.4,0-2.5,1-3.1,2.2h-.4v34.2h.2c.4,1.5,1.7,2.5,3.3,2.5,1,0,1.4,0,1.8,0ZM126.9,150.2h0v-32.6c.2-.9,1-1.6,2-1.6.4,0,.8,0,1.1,0,.6,0,1.1,0,1.6,0h18.4c0,0,.2,0,.3,0,.3,0,.8,0,1.4,0,1-.1,2.2-.4,3.2-1.2.9-.8,1.3-1.9,1.5-2.9.2-.9.2-1.7.2-1.7h0v-19.1c0-1.2,0-1.3,0-2.7,0-1,.8-1.9,1.8-2h0s32.2,0,32.2,0h.4c.9.2,1.6,1,1.6,2,0,1.3,0,2,0,2.7v20.8c0,.2,0,.7,0,1.3,0,.7.1,1.6.8,2.3.6.6,1.5.7,2.1.8.2,0,.4,0,.5,0,.3,0,.5,0,.6,0h21.1c.4,0,.7,0,.9,0,.5,0,.9,0,1.8,0,1,0,1.9.8,2,1.8h0v32.6c-.2.9-1,1.6-2,1.6-.4,0-.8,0-1.1,0-.6,0-1.1,0-1.6,0h-21.3c-.1,0-.5,0-1,0s0,0-.1,0c-.6,0-1.4,0-2.1.7s-.7,1.4-.7,2c0,.5,0,.9,0,1.1v21.4c0,1.2,0,1.3,0,2.7s-.8,1.9-1.8,2h0s-32.2,0-32.2,0h-.4c-.9-.2-1.6-1-1.6-2,0-1.3,0-2,0-2.7v-21.7c0-.1,0-.5,0-1,0-.5-.1-1.2-.7-1.8-.6-.6-1.3-.7-1.9-.7-.2,0-.3,0-.5,0-.3,0-.4,0-.5,0h-21.5c-.4,0-.7,0-.9,0-.5,0-.9,0-1.8,0s-1.9-.8-2-1.8Z"/>
      <path class="st0" d="M169.5,96.2c1.5,0,5.1,0,5.2,0h4.9c.5,0,.8,0,1.2-.2.3-.1.7-.3.8-.7.2-.3.1-.7,0-1s-.3-.5-.4-.7c-.4-.4-1.3-1.2-2.4-2-1.1-.9-2.2-1.8-2.7-2.2-.3-.2-.6-.4-1-.4h0c-.3,0-.7,0-1,0-.6.2-1,.6-1.4.9-.7.5-4,2.8-4.4,3.1-.3.2-.5.5-.6.7-.1.3-.2.6-.1,1,0,.4.2.7.5,1,.3.3.8.4,1.2.4ZM169.3,94.4h0c.6-.4,3.6-2.5,4.5-3.3.4-.3.7-.6.9-.6h0c.2,0,.2,0,.5.1.4.3,1.6,1.3,2.6,2.2,1,.8,2,1.7,2.2,1.9-.1,0-.2,0-.4,0h-5s-.6,0-.7,0c-.8,0-3.2,0-4.4,0-.2,0-.3,0-.3,0h0s0-.3,0-.3Z"/>
      <path class="st0" d="M180,171.9c-1.5,0-5.1,0-5.2,0h-4.9c-.5,0-.8,0-1.2.2-.3.1-.7.3-.8.7-.2.3-.1.7,0,1s.3.5.4.7c.4.4,1.3,1.2,2.4,2,1.1.9,2.2,1.8,2.7,2.2.6.5,1.3.6,1.9.4.6-.2,1-.6,1.4-.9.7-.5,4-2.8,4.4-3.1.3-.2.5-.5.6-.7s.2-.6.1-1-.2-.7-.5-1c-.3-.3-.8-.4-1.2-.4ZM180.2,173.8h0c-.6.4-3.6,2.5-4.5,3.3-.4.3-.7.6-.9.6-.2,0-.2,0-.5-.1-.4-.3-1.6-1.3-2.6-2.2-1-.8-2-1.7-2.2-1.9.1,0,.2,0,.4,0h5.7c.8,0,3.2,0,4.4,0,.2,0,.3,0,.3,0h0s0,.3,0,.3Z"/>
      <path class="st0" d="M130.6,135.9c.5.7,2.8,4,3.1,4.4.2.3.5.5.7.6s.6.2,1,.1.7-.2,1-.5c.3-.3.4-.8.4-1.2,0-1.5,0-5.1,0-5.2h0v-4.9c0-.5,0-.8-.2-1.2-.1-.3-.3-.7-.7-.8-.3-.2-.7-.1-1,0s-.5.3-.7.4c-.4.4-1.2,1.3-2,2.4-.9,1.1-1.8,2.2-2.2,2.7-.2.3-.4.6-.4,1h0c0,.3,0,.7,0,1,.2.6.6,1,.9,1.4ZM131.3,133.6c.3-.4,1.3-1.6,2.2-2.6.8-1,1.7-2,1.9-2.2,0,.1,0,.2,0,.4v5s0,.6,0,.7c0,.8,0,3.2,0,4.4,0,.2,0,.3,0,.3h0s-.2,0-.2,0h0c-.4-.6-2.4-3.6-3.2-4.6-.3-.4-.6-.7-.6-.9s0-.2.1-.5Z"/>
      <path class="st0" d="M212.6,134v4.9c0,.5,0,.8.2,1.2s.3.7.7.8c.3.2.7.1,1,0s.5-.3.7-.4c.4-.4,1.2-1.3,2-2.4.9-1.1,1.8-2.2,2.2-2.7.5-.6.6-1.3.4-1.9s-.6-1-.9-1.4c-.5-.7-2.8-4-3.1-4.4-.2-.3-.5-.5-.7-.6s-.6-.2-1-.1-.7.2-1,.5-.4.8-.4,1.2c0,1.5,0,5.1,0,5.2h0ZM214.1,128.9c0-.2,0-.3,0-.3h0s.2,0,.2,0h0c.4.6,2.4,3.6,3.2,4.6.3.4.6.7.6.9,0,.2,0,.2-.1.5-.3.4-1.3,1.6-2.2,2.6-.8,1-1.7,2-1.9,2.2,0-.1,0-.2,0-.4v-5.7c0-.8,0-3.2,0-4.4Z"/>
      <path class="st0" d="M359.9,163.5h0c-17.4,0-31.6,14.1-31.6,31.5h0s0,.2,0,.2v.2c.1,17.4,14.2,31.5,31.7,31.5s31.7-14.2,31.7-31.7-14.2-31.7-31.7-31.7ZM359.9,225.4c-16.7,0-30.2-13.5-30.2-30.2s13.5-30.2,30.2-30.2,30.2,13.5,30.2,30.2-13.5,30.2-30.2,30.2Z"/>
      <path class="st0" d="M504.5,252.5c-2.3-17.9-13.3-107.6-14.5-117.1,0-.2,0-.3,0-.5,0-24-13-44.9-32.2-56.2-.4-2.1-3.2-15.6-3.9-19.1-.5-2.6-1.2-4.6-3-6.5-.8-2.3-2.3-4.2-5.7-6.4-2.4-1.5-6-2.5-9.8-3.1s-7.9-.9-11.2-.9-7.6.2-11.6.8c-4,.5-7.7,1.3-9.8,2.6-2.7,1.7-3.9,3.2-4.6,5.1-2,1.9-2.6,3.8-3.3,6.4-.8,3.4-6.3,23-6.3,23h.3c-2.6,1.8-5.1,3.8-7.5,5.9h-73.1v-2.5h-16.7v2.5h-76c-2-1.8-4.2-3.4-6.4-4.9h.3c0,0-5.4-19.7-6.3-23-.6-2.6-1.3-4.5-3.3-6.4-.7-1.9-1.9-3.5-4.6-5.1-2.1-1.3-5.7-2-9.8-2.6-4-.5-8.4-.8-11.6-.8s-7.3.3-11.2.9c-3.8.6-7.4,1.6-9.8,3.1-3.4,2.2-4.8,4-5.7,6.4-1.8,1.9-2.5,3.9-3,6.5-.7,3.6-3.5,17-3.9,19.1-19.3,11.3-32.2,32.2-32.2,56.2s0,.3,0,.5c-1.2,9.5-12.2,99.2-14.5,117.1-2.5,19.1,3.3,39.9,24.7,50.3,10.8,5.2,22.7,4.5,32.9.8,10.2-3.8,18.8-10.5,22.9-17.8,7.5-13.2,31.3-54.8,34.1-59.8,7.7,7.5,18.3,12.2,30,12.2,19.7,0,36.3-13.3,41.3-31.3h39.2c5.4,17.6,21.7,30.4,41.1,30.4s22.2-4.6,30-12.2c2.9,5,26.6,46.6,34.1,59.8,4.1,7.2,12.7,14,22.9,17.8,10.2,3.8,22.1,4.4,32.9-.8,21.4-10.3,27.1-31.1,24.7-50.3ZM488.5,135c0,35.1-28.5,63.6-63.6,63.6s-15.2-1.4-22.1-3.9c-.3-22.1-17.4-40.3-39.1-42.2-1.6-5.5-2.4-11.4-2.4-17.4,0-35.1,28.5-63.6,63.6-63.6s63.6,28.5,63.6,63.6ZM403.6,47.5c1.6-1,5.2-1.8,9.2-2.3,3.9-.5,8.3-.8,11.4-.8s7.2.3,10.9.9c3.7.6,7.2,1.6,9.2,2.9,2,1.3,3.2,2.2,4.1,3.1-.5-.3-.9-.7-1.5-1-2.6-1.7-6.5-2.7-10.7-3.4-4.2-.7-8.6-1-12.2-1s-8.3.3-12.7.8c-4.2.6-8.1,1.4-10.4,2.6.7-.6,1.5-1.2,2.6-1.8ZM396.4,58.1c.9-3.4,1.2-5,5.2-7.3,1.8-1.1,5.8-2,10.1-2.6,4.3-.6,9-.8,12.5-.8s7.9.3,12,.9c4.1.7,7.9,1.7,10.1,3.1,4.7,3,5.4,4.8,6.2,8.6.6,3.1,2.8,13.8,3.6,17.8-9.2-5-19.8-7.9-31.1-7.9h0c-12.6,0-24.4,3.6-34.4,9.9,1.2-4.4,5.2-18.8,5.9-21.7ZM293.2,85.5h13.7v1h-13.7v-1ZM153.8,49c2-1.3,5.5-2.3,9.2-2.9,3.7-.6,7.7-.9,10.9-.9s7.5.2,11.4.8c3.9.5,7.6,1.4,9.2,2.3,1.1.7,1.9,1.3,2.6,1.8-2.3-1.3-6.1-2.1-10.4-2.6-4.4-.6-9.2-.8-12.7-.8s-8,.3-12.2,1c-4.2.7-8.1,1.7-10.7,3.4-.5.3-1,.7-1.5,1,.9-.8,2.1-1.8,4.1-3.1ZM145.8,60.9c.8-3.8,1.5-5.6,6.2-8.6,2.2-1.4,6-2.5,10.1-3.1,4.1-.7,8.5-.9,12-.9s8.2.3,12.5.8c4.3.6,8.3,1.5,10.1,2.6,3.9,2.4,4.3,3.9,5.2,7.3.7,3,4.7,17.3,5.9,21.7-10-6.2-21.8-9.9-34.4-9.9h0c-11.3,0-21.9,2.9-31.1,7.9.8-4,3-14.7,3.6-17.8ZM173.3,72.3c15.9,0,30.4,5.8,41.5,15.4v.3h.3c13.3,11.7,21.7,28.8,21.7,47.8s-.8,11.9-2.4,17.4c-21.7,1.9-38.8,20-39.1,42.2-6.9,2.5-14.3,3.9-22.1,3.9-35.1,0-63.6-28.5-63.6-63.6s28.5-63.6,63.6-63.6ZM172.9,285.9c-3.9,6.8-12.2,13.5-22.1,17.1-9.9,3.6-21.4,4.3-31.7-.7-20.8-10-26.2-30-23.8-48.7,2.1-16.3,11-90,13.4-110.5,3.6,32.5,31.2,57.8,64.7,57.8s15.2-1.4,22.1-3.9c.3,10.8,4.5,20.7,11.4,28.1-2.1,3.8-26.2,47.2-33.9,60.6ZM238.3,237.5c-22.9,0-41.4-18.5-41.4-41.4s18.5-41.4,41.4-41.4,41.4,18.5,41.4,41.4-18.5,41.4-41.4,41.4ZM280,206.2c.8-3.2,1.2-6.6,1.2-10.1,0-23.7-19.2-42.9-42.9-42.9s-1.5,0-2.3,0c1.5-5.5,2.3-11.3,2.3-17.3,0-18.9-8.1-36-21-47.8h162.5c-12.3,11.8-20.1,28.5-20.1,47s.8,11.8,2.3,17.3c-.8,0-1.5,0-2.3,0-23.7,0-42.9,19.2-42.9,42.9s.5,7.5,1.4,11h-38.4ZM359.9,236.6c-22.9,0-41.4-18.5-41.4-41.4s18.5-41.4,41.4-41.4,41.4,18.5,41.4,41.4-18.5,41.4-41.4,41.4ZM479.1,301.4c-10.3,5-21.8,4.3-31.7.7s-18.2-10.3-22.1-17.1c-7.6-13.4-31.8-56.8-33.9-60.6,6.9-7.4,11.2-17.3,11.4-28.1,6.9,2.5,14.3,3.9,22.1,3.9,33.5,0,61-25.3,64.7-57.8,2.5,20.5,11.3,94.2,13.4,110.5,2.4,18.7-3,38.7-23.8,48.7Z"/>
      <path class="st0" d="M407.4,83.9h-1.2v.4c-1.3.5-2.2,1.6-2.2,3.1,0,1.3,0,2,0,2.7v20.9h0c0,0,0,.5,0,1.1,0,.6-.2,1.1-.4,1.3s-.7.3-1.2.3c-.2,0-.3,0-.4,0-.3,0-.5,0-.5,0h0s-21.2,0-21.2,0h0c-.4,0-.6,0-.8,0-.5,0-.8,0-1.8,0-1.6,0-2.9,1.1-3.3,2.5h-.2v34.2h.4c.5,1.3,1.6,2.2,3.1,2.2.4,0,.8,0,1.1,0,.6,0,1.1,0,1.6,0h21.5s.4,0,.8,0,0,0,0,0c.5,0,.9.2,1,.2,0,0,.3.6.3,1,0,.5,0,.8,0,.8h0v21.6h0c0,1.1,0,1.2,0,2.7,0,1.6,1.1,2.9,2.5,3.3v.2h34.2v-.4c1.3-.5,2.2-1.6,2.2-3.1,0-1.3,0-2,0-2.7v-21.8h0s0-.4,0-.8c0-.4.2-.8.3-.9s.5-.2.9-.3c.1,0,.3,0,.4,0,.2,0,.4,0,.4,0h0s21.6,0,21.6,0h0c.4,0,.6,0,.8,0,.5,0,.8,0,1.8,0,1.6,0,2.9-1.1,3.3-2.5h.2v-34.2h-.4c-.5-1.3-1.6-2.2-3.1-2.2-.4,0-.8,0-1.1,0-.6,0-1.1,0-1.6,0h-18.5s-.1,0-.3,0c-.3,0-.7,0-1.2,0-.8-.1-1.8-.4-2.4-.9-.5-.4-.9-1.3-1-2.1-.2-.8-.2-1.5-.2-1.5v-19.1h0c0-1.1,0-1.2,0-2.7,0-1.6-1.1-2.9-2.5-3.3v-.2h-33ZM441.5,87.3c0,1.4,0,1.6,0,2.7v19.1h0s0,.8.2,1.8c.2.9.6,2.1,1.5,2.9,1,.8,2.2,1.1,3.2,1.2.6,0,1.1,0,1.4,0s.3,0,.3,0h18.4c.5,0,.9,0,1.6,0s.7,0,1.1,0c1,0,1.8.7,1.9,1.6v.2s0,.2,0,.2v32.2h0c0,1.1-.9,1.9-2,1.9-.9,0-1.3,0-1.8,0s-.5,0-.9,0h-21.5c0,0-.3,0-.5,0s-.3,0-.5,0c-.6,0-1.3.1-1.9.7-.6.6-.6,1.3-.7,1.8,0,.4,0,.8,0,1v21.7c0,.7,0,1.4,0,2.7,0,1-.7,1.8-1.6,1.9h-.2s-.2,0-.2,0h-32.2c-1,0-1.8-.9-1.8-2,0-1.4,0-1.6,0-2.7v-21.4c0-.1,0-.6,0-1.1,0-.6-.1-1.4-.7-2-.6-.6-1.4-.7-2.1-.7,0,0,0,0-.1,0-.5,0-.8,0-1,0h-21.3c-.5,0-.9,0-1.6,0s-.7,0-1.1,0c-1,0-1.8-.7-1.9-1.6v-.2s0-.2,0-.2v-32.2h0c0-1.1.9-1.9,2-1.9.9,0,1.3,0,1.8,0s.5,0,.9,0h21.1c0,0,.3,0,.6,0s.3,0,.5,0c.7,0,1.5-.2,2.1-.8s.8-1.6.8-2.3c0-.6,0-1.1,0-1.3v-20.8c0-.7,0-1.4,0-2.7,0-1,.7-1.8,1.6-1.9h.2s.2,0,.2,0h32.2c1,0,1.8.9,1.8,2Z"/>
      <path class="st0" d="M423.6,148.3h-.1s-.1,0-.1,0h0c-8.4,0-15.2,6.9-15.2,15.3h0c0,8.5,6.9,15.3,15.3,15.3s15.3-6.9,15.3-15.3-6.8-15.2-15.2-15.3ZM423.4,177.5c-7.6,0-13.8-6.2-13.8-13.8s6.2-13.8,13.8-13.8c7.6,0,13.8,6.2,13.8,13.8s-6.2,13.8-13.8,13.8Z"/>
      <path class="st0" d="M423.4,118c8.5,0,15.3-6.9,15.3-15.3s-6.8-15.2-15.2-15.3h-.2s-.1,0-.1,0h0c-8.4,0-15.2,6.9-15.2,15.3h0c0,8.5,6.9,15.3,15.3,15.3ZM423.4,88.9c7.6,0,13.8,6.2,13.8,13.8s-6.2,13.8-13.8,13.8-13.8-6.2-13.8-13.8,6.2-13.8,13.8-13.8Z"/>
      <path class="st0" d="M408.3,133.2h0c0-.1,0-.2,0-.2,0-8.4-6.9-15.2-15.3-15.2h0c-8.5,0-15.3,6.9-15.3,15.3s6.9,15.3,15.3,15.3,15.2-6.8,15.3-15.2h0ZM393,147c-7.6,0-13.8-6.2-13.8-13.8s6.2-13.8,13.8-13.8,13.8,6.2,13.8,13.8-6.2,13.8-13.8,13.8Z"/>
      <path class="st0" d="M453.9,148.5c8.4,0,15.2-6.8,15.3-15.2h0s0-.2,0-.2h0c0-.1,0-.2,0-.2,0-8.4-6.9-15.2-15.3-15.2h0c-8.5,0-15.3,6.9-15.3,15.3s6.9,15.3,15.3,15.3ZM453.9,119.3c7.6,0,13.8,6.2,13.8,13.8s-6.2,13.8-13.8,13.8-13.8-6.2-13.8-13.8,6.2-13.8,13.8-13.8Z"/>
      <path class="st0" d="M289.9,188.5v5.9h18.9v-6.7h-18.9v.8ZM291.4,189.2h15.9v3.7h-15.9v-3.7Z"/>
      <path class="st0" d="M283.1,165.5v15h31.4v-15.7h-31.4v.8ZM284.6,166.3h28.4v12.8h-28.4v-12.8Z"/>
      <path class="st0" d="M306.4,167.3h-15.1c-1,0-1.8.8-1.8,1.8v7.2c0,1,.8,1.8,1.8,1.8h15.1c1,0,1.8-.8,1.8-1.8v-7.2c0-1-.8-1.8-1.8-1.8ZM306.6,176.3c0,.2-.1.3-.3.3h-15.1c-.2,0-.3-.1-.3-.3v-7.2c0-.2.1-.3.3-.3h15.1c.2,0,.3.1.3.3v7.2Z"/>
      <path class="st0" d="M269.8,127h-16.7c-2.2,0-4,1.8-4,4v7.5c0,2.2,1.8,4,4,4h16.7c2.2,0,4-1.8,4-4v-7.5c0-2.2-1.8-4-4-4ZM272.3,138.5c0,1.4-1.1,2.5-2.5,2.5h-16.7c-1.4,0-2.5-1.1-2.5-2.5v-7.5c0-1.4,1.1-2.5,2.5-2.5h16.7c1.4,0,2.5,1.1,2.5,2.5v7.5Z"/>
      <path class="st0" d="M326.5,144c1.2.7,2.8.6,4.5,0,1.6-.5,5.4-1.5,9-2.5,3.6-1,7.1-1.9,8.2-2.3,2.4-.8,3.7-2.6,3.6-4.2,0-.6-.2-1.5-.8-2.4s-1.7-1.7-3.2-2.1c-2.9-.7-14.9-3.7-17.3-4.4-.7-.2-1.5-.2-2.2,0-2.1.4-3.7,2.3-3.7,4.4,0,2.2,0,3.3,0,3.3h0v6.4c0,1.8.7,3.2,1.9,3.8ZM328.6,127.5h0c.5-.1,1,0,1.5,0,2.6.8,14.5,3.8,17.4,4.4,1.3.3,2,.9,2.4,1.5s.5,1.2.6,1.7c0,.5-.7,2-2.6,2.7-1,.3-4.5,1.3-8.1,2.3s-7.4,2-9.1,2.5c-1.6.5-2.7.4-3.4,0-.7-.4-1.1-1.1-1.1-2.5v-6.4c0-.2,0-1.3,0-3.4,0-1.3,1.1-2.6,2.4-2.9Z"/>
    </g>
  </g>
</svg>