<?xml version="1.0" encoding="UTF-8"?>
<svg xmlns="http://www.w3.org/2000/svg" version="1.1" xmlns:cc="http://creativecommons.org/ns#" xmlns:dc="http://purl.org/dc/elements/1.1/" xmlns:inkscape="http://www.inkscape.org/namespaces/inkscape" xmlns:rdf="http://www.w3.org/1999/02/22-rdf-syntax-ns#" xmlns:sodipodi="http://sodipodi.sourceforge.net/DTD/sodipodi-0.dtd" xmlns:svg="http://www.w3.org/2000/svg" viewBox="0 0 400 268.6">
  <!-- Generator: Adobe Illustrator 29.0.1, SVG Export Plug-In . SVG Version: 2.1.0 Build 192)  -->
  <defs>
    <style>
      .st0 {
        fill: #fff;
        fill-rule: evenodd;
      }
    </style>
  </defs>
  <g id="svg" inkscape:version="0.92.4 (5da689c313, 2019-01-14)">
    <sodipodi:namedview id="namedview5" bordercolor="#666666" borderopacity="1" gridtolerance="10" guidetolerance="10" inkscape:current-layer="svgg" inkscape:cx="181.92441" inkscape:cy="201.34578" inkscape:pagecheckerboard="true" inkscape:pageopacity="0" inkscape:pageshadow="2" inkscape:window-height="1017" inkscape:window-maximized="1" inkscape:window-width="1920" inkscape:window-x="1432" inkscape:window-y="-8" inkscape:zoom="9.9421496" objecttolerance="10" pagecolor="#ffffff" showgrid="false"/>
    <g id="svgg">
      <path id="path0" class="st0" d="M289,24.4c-5.9.3-12.2,1.3-17,5.1-1.5,1.6-3.5,2.5-5.1,4-2.1,2.7-2.3,6.4-3,9.6-.8,4.8-1.5,9.6-2.2,14.4-19.2,0-38.4-.1-57.6.2-1.5,0-3,.2-4.5.6-6.7.4-13.5.4-20.2,0-2.7-.8-5.6-.5-8.5-.6-17.3-.2-34.5,0-51.8-.3-.7-.1-2,.3-2-.8-1.5-6.9-1.8-14-3.8-20.7-.6-2.2-2.5-3.4-4.3-4.5-2-1.6-4-3.4-6.5-4.3-7.1-2.7-14.9-3.2-22.3-1.9-4.3.8-8.6,2.5-11.8,5.6-1.8,1.4-4.2,2.4-4.9,4.7-1.6,5-2,10.3-2.9,15.5-.4,2-.5,4.1-1.1,6-2.4,2.4-5.4,4.1-7.8,6.5-7.1,6.5-12.3,14.9-15.2,24.1-1.5,3.4-1.6,7.1-2.4,10.7-5.5,33-9.8,66.2-15,99.3-.8,5.4-1,11.1,1.4,16.1,6.8,16.8,26.4,27.1,44.1,23.4,7.5-1.6,14.5-6,18.7-12.6,5.9-8.9,10.6-18.5,15.6-27.8,3.9-7.6,7.8-15.1,11.7-22.7,3.5,5.1,8,9.6,13.6,12.3,12.9,6.6,29.9,4.6,40.3-5.7,3-2.9,5.3-6.4,6.9-10.2h36.6c3.4,6.4,8.4,12,14.8,15.5,10.8,6.1,25,5.8,35.4-1.1,4.5-2.9,8.2-6.9,11.1-11.4.7.2,1,1.3,1.4,1.9,7.8,15.5,15.8,31,24.3,46.2,4.9,8.8,14,15.1,24,16.1,11.6,1.3,23.5-3.2,32-11,6.6-6.1,11.3-14.8,11-23.9-.8-7.2-2.3-14.4-3.2-21.6-4-26.4-7.4-52.8-11.8-79.1-1.5-8.7-3.1-17.6-7.6-25.3-4.8-8.5-12-15.6-20.4-20.7-1.1-6.5-1.8-13.2-3.5-19.6-.5-2.1-1.9-4-4-4.8-2.3-1.4-4-3.6-6.6-4.5-5-2.2-10.6-2.8-16-2.6h0ZM88.3,25.6c4.9,0,10,.4,14.5,2.5,1,.5,2,1.1,3,1.8-7.2-2.1-14.9-2.2-22.3-2-4.2.2-8.4.7-12.5,2.1,3.1-2.7,7.3-3.4,11.2-4,2.1-.3,4.1-.4,6.2-.4ZM291.1,25.6c5.5,0,11.1.7,15.8,3.7,1.5,1-.7.2-1.4,0-8-1.8-16.4-1.8-24.6-.9-2.6.3-5.1.9-7.7,1.5,2.4-2.3,5.9-2.8,9-3.5,2.9-.5,5.9-.8,8.9-.8ZM89.8,28.9c6.4,0,13.3.6,19,3.6,2.1,1.1,3.9,3.1,4,5.6,1.2,6,2.1,12.1,3.1,18.2-7-3.7-14.7-6.4-22.7-7.1-10.6-1-21.4,1.5-30.8,6.3-.4,0-1.8,1.1-1.4,0,.9-6.1,1.7-12.2,3-18.3,1-3.9,5-5.8,8.6-6.8,5.6-1.5,11.5-1.6,17.3-1.7ZM288.5,28.9c7.5,0,15.5,0,22.4,3.5,2,1,3.7,2.8,3.9,5.1,1.2,5.9,2.2,11.8,3,17.8-12.8-6.9-28.4-8.2-42.2-3.8-4.5,1.3-8.6,3.5-12.7,5.7.2-3.1,1-6.5,1.4-9.7.7-3.8,1.1-7.7,2.1-11.4,1.5-3.3,5.4-4.7,8.8-5.6,4.4-1.2,8.9-1.6,13.5-1.6h0ZM291.9,50c15.5,0,30.9,7.1,40.9,19.2,10.8,12.8,15.1,30.7,10.9,47-3.7,15-14.3,28.2-28.3,34.9-12.2,6.1-26.8,7.2-39.7,2.9-2-.3-1.8-2.6-2.1-4-1.7-10.5-8.4-20-17.9-24.9-4.2-2.3-8.9-3.5-13.6-4.2-1-.7-.9-2.3-1.4-3.4-4-14-1.7-29.4,5.9-41.7,8.6-14.2,23.9-24.2,40.4-25.6,1.6-.2,3.2-.2,4.9-.2h0ZM88.9,50c14.4,0,28.7,6.3,38.4,17,10.9,11.7,16.2,28.6,13.6,44.4-.5,2.9-1,5.9-2.1,8.7-1.1,1.3-3,.8-4.5,1.3-13,2.2-24.6,12.2-27.9,25.1-.7,2.2-.7,4.6-1.1,6.9-1,1.2-2.9,1.1-4.3,1.6-14.3,3.6-29.9.7-42.1-7.6-13.1-8.7-22.1-23.5-23.5-39.2-1.5-14.7,3.5-29.8,13.5-40.6,10.1-11.2,24.9-17.8,40-17.6ZM172.8,58.5c1.9,0,3.9,0,5.7.7,6,.6,12,.4,18,.3,1.9,0,3.8-.1,5.7-.7,10.1-.4,20.1-.2,30.2-.3h28.8c-3.2,2.3-6,4.9-8.8,7.6h-124.1c-2.6-2.7-5.5-5.1-8.4-7.4,27.5-.1,28.7-.1,53.1-.3ZM88.2,62.2c-4,.1-8.1-.2-12.1.3-1.5.4-3,1.5-3.1,3.2-.6,5.5-.3,11-.4,16.5v4.6c-6.6.1-13.1,0-19.6.3-1.9,0-4.1.8-4.6,2.9-.9,3.8-.4,7.8-.5,11.6.1,4.4-.4,8.8.4,13.1.3,2,2.2,3.1,4.1,3.2,5.4.4,10.9.1,16.3.3,1.3,0,2.5,0,3.8,0,.1,6.5,0,13,.2,19.4,0,1.9.8,4.2,2.9,4.6,3.9.9,8,.4,12,.5,4.2,0,8.5.5,12.7-.4,2-.3,3.1-2.4,3.2-4.3.3-5.8,0-11.7.1-17.5,0-1.2-.4-2.9,1.4-2.4,6.2-.1,12.3,0,18.5-.2,1.9,0,4-1,4.4-3,.8-4.2.3-8.4.4-12.7-.1-4.1.4-8.3-.4-12.3-.4-2.1-2.6-3-4.5-3-6.4-.3-12.9,0-19.3-.2-1.1-.1-.2-2.2-.5-3.2-.1-5.6.2-11.2-.1-16.8,0-1.9-1.2-3.9-3.1-4.2-4-.8-8.1-.3-12.2-.4ZM292,62.9c-4,.1-8.1-.2-12.1.3-1.5.4-3,1.5-3.1,3.2-.6,5.4-.3,10.9-.4,16.3v4.8c-6.7.1-13.4-.2-20.1.3-1.8,0-3.4,1.2-4.4,2.6v25.7c1.1,1.4,2.6,2.5,4.4,2.5,6.7.5,13.4.2,20,.3.1,6.5,0,13,.3,19.6,0,2,1,4.2,3.1,4.7,4.2.9,8.5.3,12.7.5,4-.1,8.1.4,12-.5,2.2-.4,3-2.8,3-4.7.2-6.5,0-13,0-19.4,6.6-.1,13.1,0,19.7-.2,1.9,0,4.1-.8,4.5-2.9.9-3.9.3-7.9.5-11.9-.1-4.4.4-8.8-.4-13.1-.3-2-2.2-3.1-4.1-3.1-5.4-.4-10.8-.1-16.1-.3h-4.1c0-6.5.2-13.1,0-19.6,0-1.9-.8-4.1-2.9-4.6-3.9-.9-7.9-.4-11.9-.5-.2,0-.4,0-.6,0ZM88.7,63.3c4,0,8,0,12,0,.8,1,2.2,1.8,1.8,3.3,0,6.8-.2,13.6.2,20.4,0,.9.7,1.3,1.5,1.1,7.1.2,14.1.1,21.2.1.8.9,2.2,1.6,1.8,3v23.8c-.9.8-1.6,2.2-3,1.8-7,0-14-.2-21,.2-.9.9-.4,2.5-.6,3.6,0,6.3,0,12.6,0,18.9-.8.7-1.3,2.3-2.6,1.9h-24.3c-.8-1-2.2-1.7-1.9-3.1-.1-7.1-.2-14.3-.3-21.4-7.5,0-15-.1-22.5-.2-.8-1-2.2-1.7-1.9-3.1,0-7.4-.3-14.9,0-22.3,0-1.3.9-2.6,2-3.2,7.5,0,14.9-.1,22.4-.2.1-7.5.2-15.1.3-22.6.9-1.2,2.2-2.1,3.7-2.1,3.7-.2,7.5,0,11.2-.1h0ZM287.9,63.9c5.5,0,11.1-.1,16.6.5,1.9.7,1.6,3,1.8,4.6.2,6.6.2,13.2.3,19.8,7.7.1,15.3.2,23,.3.8.9,1.9,1.8,1.5,3.2v23.4c-.8.9-1.5,2.2-2.9,1.8-7.2.1-14.4.2-21.6.3-.2,6.8,0,13.6-.3,20.4,0,1.8-.8,3.9-2.8,4.1-4.4.7-8.9,0-13.3.2-3.5,0-6.9,0-10.4,0-.8-1-2.5-1.7-2.1-3.3-.1-7.1-.2-14.3-.3-21.4-7.5,0-15-.1-22.6-.2-1.1-.9-2-2.1-1.9-3.5-.2-7.7,0-15.4,0-23.1.9-.8,1.6-2.3,3-1.9,7.1,0,14.2-.1,21.3-.2.1-7.5.2-15.1.3-22.6,1-1.1,2.1-2.4,3.7-2.1,2.2-.1,4.4-.1,6.5-.1h0ZM291.4,66.1c-5.6,0-10.5,4.6-11.4,10.1-1.1,5.3,2.1,11,7.1,13,4.7,2.1,10.6,1,13.9-2.9,3.7-3.9,4.1-10.3,1.1-14.7-2.3-3.6-6.5-5.7-10.7-5.5ZM88.2,66.8c-1.6.4-2.5,2-3.7,3-.8.8-1.7,1.5-2.3,2.5,1.3.5,2.9.2,4.3.3,2.3-.1,4.6.3,6.9-.3.8-.7-.6-1.6-1-2.1-1.4-1.1-2.3-2.8-4-3.4,0,0-.1,0-.2,0h0ZM291.9,67.1c5.5-.2,10.6,4.3,11.1,9.7.9,5.9-3.9,11.8-9.7,12.4-5.6.7-11.3-3.4-12.2-9-.9-5,2-10.5,6.9-12.2,1.3-.5,2.6-.8,3.9-.8ZM190.2,67.6c20.2,0,40.5,0,60.7.2-3.8,4.7-7.1,9.8-9.3,15.5-4.7,11.9-5.2,25.4-1.1,37.5-10.7.3-21.5,4.9-28.2,13.4-6.3,7.6-8.8,18.1-6.9,27.8.7,1.5-.4,1.7-1.6,1.5-9.6.1-19.2.2-28.8,0-.9,0-1.5-.2-.9-1.1,2.7-10.6-1.2-22.1-8.5-29.9-6.3-7-15.4-11.4-24.9-11.6-1.6.3-.2-1.4-.1-2.2,4-12.5,2.4-26.3-2.9-38.1-2.1-4.7-5-8.9-8.1-13h60.7ZM88.7,68.2c1.1,1.1,2.2,2.2,3.3,3.4h-8c1.4-1.3,2.8-2.6,4.1-3.8l.5.5ZM84.7,75.4c-1.4.2-3.2-.3-4.4.7-1.2,1.6-.6,3.8-.7,5.7.2,2.8-.2,5.7.7,8.3,1.2,2.1,3.5,3.2,5.3,4.7,1.2,1,3,1.9,4.3.7,2.2-1.8,4.7-3.3,6.6-5.5.4-3.5,0-7,0-10.5-.2-1.1,0-2.5-.6-3.3-3.2-.8-6.6-.7-9.9-.8h-1.2ZM84.2,76.6c3.6.1,7.3-.2,10.9.3.5,1.4.3,3.1.4,4.6,0,2.8.2,5.6-.1,8.4-2.2,1.9-4.6,3.8-7.1,5.3-2.6-1.4-4.9-3.5-7.2-5.3,0-3.9-.5-7.8-.3-11.7.1-1.8,2.2-1.6,3.5-1.6ZM316.5,91.2c-6,.3-11.4,5.6-11.5,11.7-.3,5.3,3.3,10.6,8.4,12.1,5.6,2.1,12.1-1,14.7-6.2,2.5-4.6,1.2-10.7-2.7-14.2-2.4-2.2-5.6-3.5-8.8-3.4ZM266,91.2c-6,.4-11.2,5.7-11.3,11.7-.3,5.3,3.4,10.6,8.5,12.1,4.7,1.7,10.2,0,13.1-4,3.3-4.1,3.7-10.3.5-14.5-2.4-3.4-6.7-5.4-10.9-5.2h0ZM317.1,92.2c5-.1,9.6,3.6,10.7,8.4,1.6,5.3-1.6,11.4-6.8,13.2-4.9,1.9-10.7-.3-13.3-4.7-3-4.6-1.6-11.1,2.6-14.4,1.9-1.5,4.3-2.5,6.8-2.5ZM267.3,92.2c5.5,0,10.4,4.8,10.6,10.3.5,5.9-4.3,11.6-10.2,11.9-5.5.5-11-3.8-11.8-9.2-1.1-5.5,2.8-11.2,8.2-12.6,1-.3,2.1-.4,3.1-.4ZM73.1,94c-3.4.2-6.8,0-10.2.4-1.8.4-1.7,2.6-1.7,4.1,0,3.5-.2,7,.1,10.5.1,1.6,1.8,2.1,3.2,2,3.8,0,7.8,0,11.5-.2,1.8-2.5,4.1-4.6,5.5-7.3.8-2-1.3-3.7-2.3-5.2-1.4-1.4-2.3-3.7-4.4-4.2-.6,0-1.1,0-1.7,0ZM106.8,94.2c-2.1,0-4.4-.1-6.5,0-1.9,2.5-4.2,4.7-5.7,7.5-.7,1.9,1.4,3.4,2.3,4.8,1.5,1.9,3,4.5,5.7,4.6,3.4.1,6.8.2,10.2,0,1.6,0,2.4-1.7,2.3-3.1,0-3.7.2-7.5,0-11.3,0-1.5-1.4-2.5-2.9-2.5-1.8-.1-3.7,0-5.5,0h0ZM78.1,98.5c.8,1.4,2.6,2.6,2.5,4.3-1,2.3-2.9,3.9-4.3,5.9-.6,1.4-2,1-3.2,1h-10.6v-14.3c4.3-.2,8.6-.3,12.9-.5l2.8,3.5ZM107,95.3c2.2,0,4.5,0,6.7.4.8,3.2.6,6.6.6,9.8-.1,1.4,0,3-.6,4.4-2.1.7-4.4.3-6.5.4h-5.7c-2.1-2.2-4.1-4.6-5.7-7.2-.3-1.5,1.3-2.6,2-3.8,1.1-1.3,2.1-2.7,3.2-4h6.1ZM118.2,96.6c.1,3.6-.2,7.2.2,10.8.2,1.1,1.4.2,1.8-.3,1.2-1.5,2.9-2.6,3.7-4.4,0-1.6-1.7-2.5-2.6-3.6-1-1-2-2-3-3v.5ZM57.7,96.8c-2.1,1.6-3.8,3.6-5.4,5.6,0,.9,1.2,1.5,1.6,2.2,1.3,1.2,2.5,2.7,4,3.7.6-1.1.2-2.6.4-3.9,0-2.5.2-5.1-.3-7.6,0-.2-.2,0-.3,0h0ZM57.2,99.4c0,2.4,0,4.8,0,7.1-1.3-1.3-2.5-2.6-3.8-3.9,1.2-1.4,2.5-2.8,3.7-4.1,0,.3,0,.6,0,.9ZM121,100.4c.7.7,1.4,1.4,1.9,2.2-1,1.4-2.4,2.6-3.6,3.8v-7.7c.6.5,1.1,1.1,1.7,1.6ZM158.3,99.5c-2.6.1-5.4,0-7.9.5-.7,2-.4,4.3-.5,6.4.2,1-.2,2.4.6,3.2,4.3.6,8.7.4,13.1.3,1.1-.2,2.5.2,3.3-.5.6-2.7.4-5.6.2-8.3,0-.8-.4-1.5-1.3-1.4-2.5-.2-5-.1-7.6-.1h0ZM214,99.6c-2,.2-2.3,2.7-2.4,4.3,0,2,.1,4.5,1.7,6,1.2.5,2.4-.5,3.5-.7,3.4-1.3,6.8-2.5,10-4.2,0-.7-1.2-.8-1.8-1.2-3.7-1.5-7.3-3.1-11.2-4.1ZM158.6,100.6h7.6v8.3h-15.3v-8.3h7.6ZM214.3,100.7c3.5.8,6.8,2.4,10.1,3.8,1.3.4-.8.7-1.2,1-3.1,1.1-6.1,2.5-9.3,3.4-1.2-.8-.8-2.6-.9-3.8.1-1.4-.3-3.1.5-4.2.2-.2.5-.2.8-.1ZM346.4,105.4c3,17.7,5.4,35.4,8,53.1,1.9,13.2,3.8,26.5,6,39.7,1,6.7.1,14-3.7,19.7-7.1,10.8-19.5,18.4-32.6,18.7-9.7.3-19.8-3.9-25.4-12-5.6-7.9-9.8-16.7-14.4-25.2-4.8-9.2-9.5-18.5-14.2-27.7,2.4-4.5,3.5-9.6,4-14.6.1-.8-.1-1.9.2-2.5,7.5,2.4,15.5,3.4,23.4,2.5,19.3-2.1,37-15,44.5-33,2.7-6.2,3.8-12.9,4.1-19.6,0,.3.1.5.2.8ZM34.1,105.3c.5,8.3,2.5,16.6,6.6,23.9,8.8,16.3,26.4,27.4,44.9,28.3,6.5.4,12.9-.6,19.1-2.3,1,.2.6,1.7.8,2.4.4,5.3,1.9,10.4,4.3,15.1-8.1,16.2-16.2,32.6-25.4,48.2-2.8,5-6.8,9.3-11.8,12-9.9,5.4-22.5,4.8-32.5-.3-6.9-3.5-12.8-8.9-16.8-15.4-4.3-7-3.7-15.6-2.4-23.3,4.6-28.9,8.2-57.9,13-86.8.1-.6.3-1.4.4-1.8h0ZM88.1,109c-2.2.3-3.7,2.3-5.5,3.5-1.5,1.1-3.1,2.5-3,4.5,0,3.4-.2,6.9,0,10.4,0,1.6,1.6,2.3,3,2.3,3.8,0,7.5.1,11.3,0,1.4,0,2.5-1.2,2.5-2.6.1-3.6.3-7.1.1-10.7-.3-2.6-3.1-3.7-4.7-5.3-1.1-.8-2.2-2-3.7-2ZM88.2,110c2.7,1.4,4.9,3.5,7.3,5.4,0,4.2.2,8.4-.3,12.5-.3,1.4-2.2.4-3.3.7-3.3-.1-6.7.2-10-.2-1.7-.4-1.3-2.6-1.4-3.9,0-2.9,0-5.9,0-8.8,2.3-2.1,4.8-4.3,7.6-5.7ZM291.2,116.4c-7.3.2-13,8.2-11,15.1,1.4,5.9,7.7,10,13.7,9,6.3-.9,11.3-7.4,10.1-13.7-.9-6.1-6.6-10.9-12.8-10.4ZM292.2,117.4c5,0,9.7,3.9,10.6,8.9,1.2,5.5-2.4,11.5-7.8,12.9-6,1.7-12.9-2.5-13.8-8.7-1-5.2,2.3-10.9,7.4-12.5,1.2-.4,2.4-.6,3.7-.6ZM188.6,118.2c-5.1.2-9.5,4.2-10.4,9.2-1.3,5.7,2.3,12,7.9,13.7,6.2,2,13.5-2.1,14.9-8.5,1.3-5.1-1.4-10.9-6.2-13.2-1.9-1-4.1-1.4-6.2-1.3ZM189.5,119.2c3.7-.1,7.2,1.9,9,5,2.8,4.1,2,10.2-1.7,13.6-4.5,4.3-12.8,3.3-16-1.9-3.3-5.1-1.7-12.9,3.9-15.6,1.5-.7,3.1-1.1,4.7-1.1h0ZM139.5,122c11-.1,22.1,5.4,28.1,14.7,7.3,10.8,7.8,25.9.7,37-6.5,10.3-19.1,16.8-31.4,15.4-12.7-1.2-24.3-10.1-28.5-22.1-3.7-10.1-2.1-22,4.3-30.7,6.1-8.6,16.2-14.1,26.8-14.2ZM239.6,122c11.5,0,22.8,6.4,28.6,16.4,6,9.8,6.4,22.8.8,33-4.9,9.2-14.3,16.2-24.7,17.5-12.7,1.8-26.1-4.2-32.9-15-5.8-9-7.2-20.8-3-30.7,5-12.4,17.8-21.4,31.3-21.1h0ZM239.2,128.5c-5.8.5-11.8,2.1-16.4,5.8-9.4,7.4-12.8,21.3-7.8,32.2,4.2,9.6,14.4,16.4,25,15.8,11.7-.3,22.9-8.8,25.7-20.3,2.1-8.4-.3-17.7-6.2-24.1-5.1-5.7-12.5-9.7-20.3-9.4h0ZM139,128.6c-9.9.6-19.4,6.8-23.5,15.9-3.9,8.2-3.1,18.5,2.2,25.9,5,7.3,13.6,12.3,22.5,12,11.8-.2,23.1-8.8,25.9-20.4,2.1-8.5-.1-18.1-6.3-24.4-5.3-5.6-13-9.3-20.8-9h0ZM140.2,129.7c9.8,0,19.3,6.1,23.2,15.2,3.9,8.4,2.8,18.8-2.8,26.2-5.1,7.1-13.9,11-22.6,10.2-9.7-.7-18.8-7.2-22.1-16.5-3.2-8.3-1.7-18.2,4-25.1,4.8-6.2,12.5-10,20.3-9.9ZM239.7,129.7c8.9,0,17.7,5.1,22.1,13,4.7,8,4.6,18.6-.4,26.4-4.8,8-14,12.7-23.2,12.2-9.1-.3-17.8-5.9-21.8-14.1-4-7.7-3.5-17.5,1.1-24.9,4.6-7.7,13.2-12.8,22.2-12.5h0ZM239,131.9c-9.1.3-17.8,6.2-21.2,14.7-3.3,7.6-2.1,16.9,3.1,23.4,4.7,6.3,12.8,9.9,20.7,9,9-.8,17.3-7.2,20.1-15.8,2.2-6.1,1.6-13.1-1.6-18.7-4.2-7.4-12.4-12.8-21.1-12.5h0ZM139.3,131.9c-8.7.3-17,5.8-20.6,13.8-3.9,8.1-2.7,18.5,3.4,25.2,5.3,6.2,14,9.4,22,7.7,9.5-1.8,17.7-9.8,19.1-19.5,1.4-8.7-2.7-17.8-9.9-22.9-4-2.9-9.1-4.6-14.1-4.4ZM82.1,132.9c1.9,1.7,3.5,3.8,5.5,5.3,1.4.5,2.2-1.2,3.2-1.9.9-1,2.4-1.8,2.8-3.1-.5-.9-1.9-.5-2.8-.7-3,0-6.1,0-9.1,0,.1.1.2.2.3.3h0ZM238.9,133c7.8-.1,15.7,3.9,19.7,10.8,5,8.2,4.1,19.7-2.5,26.8-5.8,6.4-15.4,9.1-23.6,6.2-9-2.9-15.6-11.9-15.5-21.4,0-9.2,6.3-17.8,14.8-21.1,2.3-.7,4.7-1.3,7.2-1.3ZM139.2,133c7.2-.2,14.5,3.1,18.8,9,5.5,7.3,5.9,18,.7,25.6-4.5,7-13,11.3-21.4,10.2-8.7-.9-16.6-7.5-18.8-16.1-2.1-7.2-.2-15.3,4.7-20.9,3.4-4.1,8.3-6.9,13.6-7.5.8-.2,1.6-.3,2.5-.3h0ZM88.1,133.6h4c-1.3,1.3-2.5,2.6-3.8,3.9-1.3-1.3-2.7-2.6-4-3.8,1.3,0,2.6,0,3.8,0h0ZM206.7,166.9c.6,1.3,1.1,2.6-.9,2.1-10.9,0-21.8.2-32.7-.2-1.7.3-.4-1.4-.3-2.3.1-1.5.9-2.1,2.4-1.8,10.2,0,20.5,0,30.7,0l.8,2.2h0Z" inkscape:connector-curvature="0" sodipodi:nodetypes="ccccccccccccccccccccccccccccccccccccccccccccccccccccccccccccccccccccccccccccccccccccccccccccccccccccccccccccccccccccccccccccccccccccccccccccccccccccccccccccccccccccccccccccccccccccccccccccccccccccccccccccccccccccccccccccccccccccccccccccccccccccccccccccccccccccccccccccccccccccccccccccccccccccccccccccccccccccccccccccccccccccccccccccccccccccccccccccccccccccccccccccccccccccccccccccccccccccccccccccccccccccccccccccccccccccccccccccccccccccccccccccccccccccccccccccccccccccccccccccccccccccccccccccccccccccccccccccccccccccccccccccccccccccccccccccccccccccccccccccccccccccccccc"/>
    </g>
  </g>
</svg>