<?xml version="1.0" encoding="UTF-8"?>
<svg id="Layer_3" xmlns="http://www.w3.org/2000/svg" version="1.1" xmlns:cc="http://creativecommons.org/ns#" xmlns:dc="http://purl.org/dc/elements/1.1/" xmlns:rdf="http://www.w3.org/1999/02/22-rdf-syntax-ns#" viewBox="0 0 598.2 350.3">
  <!-- Generator: Adobe Illustrator 29.0.1, SVG Export Plug-In . SVG Version: 2.1.0 Build 192)  -->
  <defs>
    <style>
      .st0 {
        fill: #f4f4f4;
      }
    </style>
  </defs>
  <path class="st0" d="M299.1,336.4c-52.7,0-95.6-42.9-95.6-95.6V13.8h191.2v227c0,52.7-42.9,95.6-95.6,95.6ZM205.5,15.8v225c0,51.6,42,93.6,93.6,93.6s93.6-42,93.6-93.6V15.8h-187.2Z"/>
  <path class="st0" d="M299.4,318.4c-43.9,0-79.7-34.5-79.7-76.9V13.8h159.3v227.6c0,42.4-35.7,76.9-79.7,76.9ZM221.8,15.8v225.6c0,41.3,34.8,74.9,77.7,74.9s77.7-33.6,77.7-74.9V15.8h-155.3Z"/>
  <path class="st0" d="M300.7,314.8c-40.4,0-73.2-32.8-73.2-73.2s32.8-73.2,73.2-73.2,73.2,32.8,73.2,73.2-32.8,73.2-73.2,73.2ZM300.7,170.4c-39.3,0-71.2,31.9-71.2,71.2s31.9,71.2,71.2,71.2,71.2-31.9,71.2-71.2-31.9-71.2-71.2-71.2Z"/>
  <path class="st0" d="M325.3,292.5h-49.3c-6.5,0-11.7-5.3-11.7-11.7v-78.3c0-6.5,5.3-11.7,11.7-11.7h49.3c6.5,0,11.7,5.3,11.7,11.7v78.3c0,6.5-5.3,11.7-11.7,11.7ZM276.1,192.7c-5.4,0-9.7,4.4-9.7,9.7v78.3c0,5.4,4.4,9.7,9.7,9.7h49.3c5.4,0,9.7-4.4,9.7-9.7v-78.3c0-5.4-4.4-9.7-9.7-9.7h-49.3Z"/>
  <path class="st0" d="M379.1,104.7h-159.3v-39.3h159.3v39.3ZM221.8,102.7h155.3v-35.3h-155.3v35.3Z"/>
  <path class="st0" d="M261.7,157.6c-10.3,0-18.6-8.4-18.6-18.6s8.4-18.6,18.6-18.6,18.6,8.4,18.6,18.6-8.4,18.6-18.6,18.6ZM261.7,122.3c-9.2,0-16.6,7.5-16.6,16.6s7.5,16.6,16.6,16.6,16.6-7.5,16.6-16.6-7.5-16.6-16.6-16.6Z"/>
  <path class="st0" d="M339.7,157.6c-10.3,0-18.6-8.4-18.6-18.6s8.4-18.6,18.6-18.6,18.6,8.4,18.6,18.6-8.4,18.6-18.6,18.6ZM339.7,122.3c-9.2,0-16.6,7.5-16.6,16.6s7.5,16.6,16.6,16.6,16.6-7.5,16.6-16.6-7.5-16.6-16.6-16.6Z"/>
  <path class="st0" d="M300.7,279.1c-13.5,0-24.4-11-24.4-24.4s11-24.4,24.4-24.4,24.4,11,24.4,24.4-11,24.4-24.4,24.4ZM300.7,232.2c-12.4,0-22.4,10.1-22.4,22.4s10.1,22.4,22.4,22.4,22.4-10.1,22.4-22.4-10.1-22.4-22.4-22.4Z"/>
  <path class="st0" d="M221.1,75.3h-17.6v-17.6h17.6v17.6ZM205.5,73.3h13.6v-13.6h-13.6v13.6Z"/>
  <path class="st0" d="M221.1,105.8h-17.6v-17.6h17.6v17.6ZM205.5,103.8h13.6v-13.6h-13.6v13.6Z"/>
  <path class="st0" d="M221.1,136.3h-17.6v-17.6h17.6v17.6ZM205.5,134.3h13.6v-13.6h-13.6v13.6Z"/>
  <path class="st0" d="M221.1,166.8h-17.6v-17.6h17.6v17.6ZM205.5,164.8h13.6v-13.6h-13.6v13.6Z"/>
  <path class="st0" d="M221.1,197.3h-17.6v-17.6h17.6v17.6ZM205.5,195.3h13.6v-13.6h-13.6v13.6Z"/>
  <path class="st0" d="M394.7,75.3h-17.6v-17.6h17.6v17.6ZM379.1,73.3h13.6v-13.6h-13.6v13.6Z"/>
  <path class="st0" d="M394.7,105.8h-17.6v-17.6h17.6v17.6ZM379.1,103.8h13.6v-13.6h-13.6v13.6Z"/>
  <path class="st0" d="M394.7,136.3h-17.6v-17.6h17.6v17.6ZM379.1,134.3h13.6v-13.6h-13.6v13.6Z"/>
  <path class="st0" d="M394.7,166.8h-17.6v-17.6h17.6v17.6ZM379.1,164.8h13.6v-13.6h-13.6v13.6Z"/>
  <path class="st0" d="M394.7,197.3h-17.6v-17.6h17.6v17.6ZM379.1,195.3h13.6v-13.6h-13.6v13.6Z"/>
</svg>