<?xml version="1.0" encoding="UTF-8"?>
<svg id="Layer_1" xmlns="http://www.w3.org/2000/svg" version="1.1" viewBox="0 0 598.2 350.3">
  <!-- Generator: Adobe Illustrator 29.1.0, SVG Export Plug-In . SVG Version: 2.1.0 Build 142)  -->
  <defs>
    <style>
      .st0 {
        fill: #f4f4f4;
      }
    </style>
  </defs>
  <path class="st0" d="M442.5,258.7c-1-.6-2.1-1.2-3.6-1.8-4-10-19.5-45.2-31.9-67.3-6.3-11.2-15.2-25.5-23.2-37.7-6.5-9.9-12.3-18.4-15.7-22.6,0-.7,0-3.2,0-6.7,0-12.1-.5-37.5-4.1-56.4-2.4-12.5-4.7-20.1-7.2-24.6-2.4-4.6-5.4-6.2-8.4-6.2-.1,0-.3,0-.4,0-2.4,0-4.6,1-6,3.1-1.4,2.1-2,5.2-2,9.7,0,1.8.1,3.9.3,6.2.1,1.4.2,2.7.2,3.9,0,10.7-4.4,15.1-6.8,16.5-2,1.2-3.2,1.8-3.6,1.7-.2,0-.3,0-.5-.2-4.5-5.8-11.3-13.1-18.2-19.9,0,0,.2,0,.3,0,.9-.3,2-1.1,2-2.5,0-.7-.3-1.5-.8-2.3-1.5-2.4-4.7-3-7.7-3-.7,0-1.4,0-2.1.1-3-2.7-5.9-5.1-8.4-7.1-6-4.6-13.1-7.5-19.6-7.5-4.8,0-9.2,1.6-12.5,5.1-1.7,1.8-3.3,4.3-4.7,7.1-2.6.6-5,1.9-7,3.5-2.6,2.1-4.4,4.6-4.4,6.9,0,1.8.3,3.5,1.3,4.7.8,1.1,2,1.8,3.6,2.2-1.9,6-3.5,11.9-5,16.4-3.7,11.6-13.5,26.2-24.7,36.4-11.4,10.5-22.4,24-24.5,30.6-.6,1.9-.9,4-.9,6.1,0,2.5.5,4.9,1.6,6.8,1.1,1.9,3.1,3.4,5.7,3.5.2,0,.4,0,.6,0,3.6,0,5.6-2.7,7.3-5,1.8-2.4,3.5-4.6,6.4-5.2,2.4-.5,4.2-.6,5.3-.6s1.1,0,1.5.1c-10,35-26.3,81.6-44.3,128.8-3.5,9.1-5.3,12.8-5.7,15.4-2.7,2-4.6,4.4-4.6,7.6,0,1.2.3,2.6.9,3.9.4,2,2.6,4.5,7.6,4.5h.1c2.2,0,4.9-.4,8.3-1.6,11.3-3.7,67.1-14.2,107.1-20,39.9-5.7,79.2-7.6,99.8-8.5,10.4-.5,22-1.8,31.6-3.6,4.8-.9,9-2,12.4-3.2,3.3-1.2,5.8-2.4,7-4,1.6-2.1,2.4-4.2,2.4-6.2,0-3.1-1.9-5.6-4.7-7.4ZM264,40.5c2.9-3.1,6.7-4.4,11.1-4.5,5.9,0,12.7,2.6,18.4,7.1,2.1,1.6,4.5,3.6,7,5.8-1.6.3-2.9.7-4,1.1-3.4,1.5-6.6,6-13.8,6-1.4,0-2.9-.2-4.5-.5-5.3-1.2-7.5-3.3-9.4-5.2-1.9-1.9-3.6-4-7.4-4.3-.3,0-.5,0-.8,0,0,0-.2,0-.3,0,1.2-2.2,2.4-4.1,3.7-5.5ZM249.3,60.2c-.6-.8-.9-1.9-.9-3.5,0-1.1,1.4-3.5,3.7-5.3,2.3-1.9,5.4-3.4,8.4-3.4.2,0,.4,0,.7,0,3,.2,4.1,1.6,6.1,3.7,2,2,4.7,4.5,10.4,5.8,1.8.4,3.5.6,5,.6,8.1,0,12.1-5.2,14.6-6.1,1.6-.7,4.9-1.4,7.9-1.4,2.8,0,5.3.7,6,2,.4.6.5,1.1.5,1.3,0,.3-.1.4-.7.6-.4.1-.8.2-1.1.2-.2-.2-.6-.4-1.1-.7,0,0-.1,0-.2,0-.8-.3-1.8-.6-3.1-.6s-1.2,0-1.8.2c-2.9.5-5,1.6-6.7,2.7,0,0,0,0,0,0-.4,0-.8.3-.9.7-.7.5-1.3,1-1.9,1.4-.3.3-.7.5-1,.8,0,0,0,0-.1,0-.4,0-.7.3-.8.6-1.7,1.1-3.8,1.9-7.2,2-.2,0-.5,0-.7,0-4.7,0-9.5-1.6-13.3-3.4-3.8-1.8-6.6-3.8-7.2-4.4-1.1-1.1-3.1-2.1-5.3-2.2-1.2,0-2.6.4-3.6,1.5-.2.1-.4.3-.5.5,0,0,0,0,0,.1,0,0-.1.1-.1.2,0,.2-.1.3-.1.5-.8,2.3-1.6,4.6-2.4,7-1.3-.3-2.1-.8-2.6-1.5ZM365.8,192.9c-.6,16.9-18.6,38-56.8,38-.4,0-.9,0-1.3,0-39.3-.6-53.1-13.9-60.1-27.3-2.2-4.2-3.1-8.7-3.1-13.2,0-9.7,4.6-19.3,11.1-24.4,9.4-7.6,35.4-14,45.9-14.4.4,0,.7,0,1.1,0,29.3,0,45.1,6.1,53.6,13.9,8.5,7.8,9.8,17.3,9.8,24.7,0,.9,0,1.8,0,2.6ZM364.5,205.6c-1.8,7.5-6,17.6-15.3,25.5-9.9,8.3-27.3,12.1-43.9,12.1-8.2,0-16.3-.9-23-2.6-17.2-4.3-22-13.8-25.7-22.2,9.5,8.2,24.9,14.4,51.1,14.7.5,0,.9,0,1.3,0h0c30.2,0,48.4-13,55.5-27.4ZM323.1,150.8c-6.1-.8-13-1.2-20.8-1.2-.4,0-.8,0-1.1,0v1s0-1,0-1c-4.3.2-10.8,1.3-17.8,3-9.3-4.4-15.7-10.1-18.4-15.8,1.9,1.3,4,2.5,6.3,3.6,6,2.7,14.5,4.2,23.6,4.2,14,0,29.4-3.5,39.2-12.1.4-.3.7-.6,1-1-.6,7.7-3.3,13.9-11.9,19.1-.1,0-.2.2-.3.2ZM332.9,131c-9.2,8.1-24.3,11.6-37.9,11.6-8.9,0-17.1-1.5-22.8-4-10.9-4.9-16.3-13-16.2-19.7,0-2.2.6-4.3,1.7-6.1,3.8-6,9.5-10.5,20.6-14.9,0,0,.1,0,.2,0,0,0,0,0,.1,0,.3,0,.7-.2.8-.5,2.8-1.1,6-2.2,9.6-3.3,4.2-1,9.9-1.8,16.7-1.8s9.2.3,14.3,1.2c8.6,1.3,19.3,13.1,19.2,24.3,0,4.7-1.7,9.2-6.2,13.1ZM260,83.1c4.7,4.7,12.3,8.4,21.3,8.4,1.1,0,2.2,0,3.4-.2,8.6-.9,16-3.9,20.7-8.3,0,.6.1,1.1.1,1.7,0,2.3-.7,4.6-1.4,5.7-6.2.1-11.6.9-15.6,1.8h0s0,0,0,0c-3.9,1.2-7.3,2.4-10.4,3.6-8-1-12.6-2.8-15-4.7-2.5-2-3-4.2-3-6.5,0-.5,0-1,0-1.5ZM305.3,80.4s0,0,0,.1c-4.2,4.5-11.5,8-20.7,8.9-1.1.1-2.1.2-3.2.2-12.9,0-22.6-8.1-24-14.8-.2-.9-.3-1.7-.3-2.5,0-5.7,4.8-9.9,12.3-12.6.3.1.6.3.9.4,1,.4,2,.9,3,1.3-7.3,2.9-11.3,8.5-11.4,12.4,0,.2,0,.4,0,.7.8,5.1,6.6,10.2,20.1,11.5.8,0,1.5.1,2.3.1,5.7,0,11-2,14.9-4.8,2.3-1.7,4.2-3.7,5.3-5.8.1-.1.2-.3.3-.5.7-1.4,1-2.8,1.1-4.2v-.2c0-3.9-2.4-6.8-5-8.7-1.7-1.2-3.4-1.9-4.9-2.4.5-.4,1.1-.8,1.6-1.2,1.4.3,4,1.5,6.3,3.5,2.7,2.4,5,5.7,5,9.9,0,0,0,.1,0,.1,0,3-1.3,6-3.7,8.6ZM293.9,61c1.3.1,3.8.9,5.9,2.4,2.3,1.7,4.2,4,4.2,7h0c0,.5,0,.9-.1,1.2-1-1.4-2.5-2.7-4.3-3.9-3-1.9-7.1-3.3-11.3-3.4-.3,0-.6,0-.9,0-7.8,0-14.9,2-19,6.9-1.4,1.6-2,3.3-1.9,4.9,0,1,.2,1.8.5,2.6-1.9-1.6-2.8-3.2-3-4.7,0-.1,0-.2,0-.4,0-2.8,4.2-9.1,12.3-11.3,0,0,0,0,.1,0,2.5.7,5.3,1.2,8,1.2.2,0,.5,0,.7,0,4.1-.1,6.7-1.2,8.7-2.6ZM272.2,81.8c0-.4-.4-.7-.8-.8-.9-.1-3.2-2.3-3.1-4.8,0-1.1.4-2.3,1.5-3.6,3.5-4.2,10-6.2,17.5-6.2.3,0,.6,0,.9,0,3.8,0,7.5,1.4,10.3,3.1,2.6,1.5,4.1,3.5,4.4,4.8-1,1.8-2.6,3.7-4.8,5.2-3.6,2.6-8.5,4.4-13.7,4.4-.7,0-1.4,0-2.1,0-4.2-.4-7.5-1.1-10.1-2.1ZM182.2,282.3c18.1-47.5,34.5-94.4,44.5-129.5,0,0,0,0,0,0,.2-.2.2-.5.2-.8,3.7-13.1,6.5-24.6,8.1-33.8,0-.5-.3-1.1-.8-1.2-.5,0-1.1.3-1.2.8-1.6,9-4.3,20.2-7.9,33-.5,0-1.2-.2-2-.2-1.3,0-3.2.2-5.7.7-3.8.7-5.8,3.6-7.6,6-1.8,2.4-3.3,4.2-5.7,4.2-.1,0-.3,0-.4,0-2-.2-3.2-1.1-4.1-2.6-.9-1.5-1.3-3.6-1.3-5.8,0-1.9.3-3.8.8-5.5,1.6-5.7,12.6-19.5,23.9-29.7,11.5-10.5,21.4-25.2,25.3-37.3,2.3-7,4.9-17.1,8.1-25.8.6-.8,1.4-1.1,2.3-1.1,1.5,0,3.3.9,3.9,1.6.6.6,2.2,1.8,4.5,3.1-7,2.8-12,7.4-12,13.9,0,1,.1,1.9.3,3,.5,2,1.4,4,2.9,5.8-.1,1.1-.3,2.3-.3,3.6,0,2.7.7,5.7,3.8,8.1,2.5,2,6.5,3.6,12.7,4.7-9.4,4.1-14.8,8.5-18.4,14.3-1.3,2.1-2,4.6-2,7.1,0,5.3,2.8,11,8.1,15.7,0,0,0,0,0,0,1.8,6.9,8.4,13.7,18.4,18.8-10.1,2.7-20.6,6.6-26.3,11.1-7,5.6-11.8,15.6-11.8,26,0,4.8,1,9.6,3.4,14.1,1.8,3.4,4,6.8,7,10,0,0,0,0,0,0,4.1,9,7.9,22.5,29,27.7,7,1.7,15.1,2.7,23.5,2.7,16.9,0,34.6-3.7,45.2-12.5,15.7-13.2,17.3-32.1,17.4-36.4,0-.2,0-.4-.2-.6.1-.8.2-1.7.2-2.5,0-.9,0-1.8,0-2.7,0-7.6-1.4-17.9-10.5-26.2-6.3-5.7-16-10.4-31.2-12.8,8.7-5.8,11.2-13.6,11.3-22.2,2.6-3.5,3.7-7.3,3.7-11.2,0-12.4-11-24.6-20.9-26.3-5-.8-9.6-1.1-13.9-1.2.7-1.5,1.2-3.5,1.2-5.7,0-1.1-.1-2.3-.5-3.4,2.5-2.8,3.9-6.1,3.9-9.6,0,0,0-.1,0-.1,0-5-2.7-8.9-5.7-11.5-1.8-1.6-3.7-2.7-5.4-3.4,1.2-.6,2.5-1.1,4.2-1.4.5-.1,1-.1,1.5-.1,1,0,1.7.2,2.3.5,7.6,7.3,15.4,15.6,20.2,21.9h0c0,0,0,.1,0,.1.5.5,1.2.8,1.9.8,1.4,0,2.6-.8,4.6-2,3-1.8,7.8-7,7.8-18.3,0-1.3,0-2.6-.2-4.1-.2-2.3-.3-4.3-.3-6,0-4.4.7-7.1,1.7-8.6,1-1.5,2.3-2.1,4.4-2.2.1,0,.2,0,.3,0,2.2,0,4.2.9,6.6,5.2,2.3,4.2,4.7,11.7,7,24,3.6,18.6,4,43.9,4,56,0,1.8,0,3.3,0,4.5-.4-.4-1-.3-1.4,0-.4.4-.4,1,0,1.4h0c2.3,2.3,9.4,12.4,17.4,24.6,8,12.2,16.9,26.5,23.1,37.6,11.8,20.9,26.5,54,31.2,65.6-6.8-1.8-20.1-3.4-51-4.8-5.9-.3-12-.4-18.1-.4-39.8,0-82.5,5.2-103.4,10.2-30.1,7.2-55.9,19.6-69.2,26.1-5.7,2.8-11.7,5-16.4,7.5-.4.2-.8.4-1.2.7.8-2.4,2.4-6.3,5.1-13.1ZM443.2,271.1c-.7,1-2.9,2.2-6.1,3.3-9.6,3.4-28,6-43.4,6.7-20.7.9-60,2.8-100,8.5-40.1,5.8-95.7,16.2-107.4,20-3.3,1.1-5.8,1.5-7.7,1.5-4.1,0-5.3-1.7-5.7-2.8,0-.1,0-.2,0-.3,0,0,0,0,0,0,0,0,0,0,0,0,0-.1,0-.3.7-.8,2.2-1.6,10-4.5,31.4-11,29.4-9,80.4-16.9,103.7-19.7,21.6-2.6,66.2-6.2,117.1-6.2s8.4,0,12.6,0c.6,0,1-.4,1-1,0-.6-.4-1-1-1h0c-4.3,0-8.5,0-12.6,0-51,0-95.7,3.6-117.4,6.2-23.5,2.8-74.5,10.7-104.1,19.8-14.3,4.4-22.5,7.1-27.2,9-2.4.9-3.8,1.7-4.8,2.4,0,0-.2.1-.2.2,0-.3,0-.7,0-1,0-3.2,2.6-5.7,7.2-8.1,4.5-2.4,10.5-4.7,16.3-7.5,13.3-6.5,38.9-18.8,68.8-25.9,20.6-4.9,63.4-10.1,102.9-10.1,6.1,0,12.2.1,18,.4,44,2,52.2,4.4,56.1,7,2.5,1.6,3.8,3.5,3.8,5.7s-.6,3.1-2,5Z"/>
  <path class="st0" d="M320.5,99.3c-4.4-1.9-10.4-2.8-16.3-2.8-4.9,0-9.9.6-14,1.8l.3,1-.3-1c-6.1,1.8-11.6,3.9-15.8,6.9-4.1,3-6.9,6.8-7.3,11.7,0,.5,0,1.1,0,1.6,0,4.4,1.7,8.3,5.8,11,4.1,2.7,10.4,4.2,19.7,4.5.8,0,1.7,0,2.5,0s0,0,0,0c18.3,0,28.5-6.8,33-13.3,1.4-2.1,2.1-4.4,2.1-6.8,0-5.9-3.8-11.9-9.6-14.5ZM295,132c-.8,0-1.6,0-2.4,0-8.7-.3-14.6-1.7-18.2-3.9,0,0,0,0,0-.1-.3-.4-.6-1.2-.5-2.2,0-3.7,3-10,10.9-12.5,4.6-1.5,12.8-3.1,20.6-3.1,5,0,9.9.7,13.5,2.3,3.7,1.7,6.1,4.2,6.7,8.1,0,0,0,0,0,0-4.5,5.6-13.8,11.4-30.6,11.4ZM327.1,118.3c-1.2-3.6-3.9-6.2-7.4-7.7-4.1-1.8-9.2-2.5-14.4-2.5-8.1,0-16.4,1.6-21.2,3.2-8.7,2.9-12.2,9.8-12.3,14.4,0,.1,0,.2,0,.3-2-2.1-2.8-4.6-2.8-7.6,0-.5,0-1,0-1.4.4-4.2,2.7-7.5,6.5-10.3,3.8-2.8,9.1-4.9,15.1-6.6h0c3.8-1.1,8.6-1.7,13.4-1.7,5.8,0,11.6.9,15.5,2.6,5,2.2,8.4,7.7,8.4,12.7,0,1.6-.3,3.1-1,4.5Z"/>
  <path class="st0" d="M344.5,166c-6.7-4-15.4-6.3-23.6-6.3v2c7.9,0,16.3,2.2,22.6,6,6.4,3.8,10.6,9.2,10.7,15.5,0,.1,0,.3,0,.5,0,3.6-1,7.5-3.1,11.4-1-10.9-11.1-18-21.4-20.2-5-1.1-12.5-1.9-20.6-1.9-10.1,0-21.2,1.3-29.2,5.3-10.8,5.4-16.3,13.7-16.3,22.1,0,1.6.2,3.1.6,4.7-2.1-1.8-3.6-3.9-4.6-6.2-1.2-2.9-1.8-5.7-1.8-8.4,0-9.9,7.3-18.7,18.1-23.3,12.4-5.3,24.7-5.6,39.8-5.6,1.7,0,3.4,0,5.1,0v-2c-1.7,0-3.5,0-5.1,0-15.1,0-27.8.3-40.6,5.8-11.2,4.8-19.3,14.2-19.3,25.1,0,3,.6,6.1,1.9,9.2,1.5,3.5,4.1,6.4,7.6,8.8.2.3.4.4.7.5,2.8,1.8,6.2,3.3,9.9,4.5,8.7,2.8,19.6,4,31.1,4,2.9,0,5.8,0,8.7-.2,26.3-1.4,40.4-19.6,40.5-33.7,0-.2,0-.3,0-.5-.2-7.2-5-13.1-11.7-17.2ZM315.7,215.3c-2.9.1-5.7.2-8.6.2-11.3,0-22.1-1.2-30.5-4-3.7-1.2-6.9-2.7-9.6-4.4-.9-2.2-1.4-4.5-1.4-6.8,0-7.5,4.8-15.2,15.2-20.3,7.5-3.8,18.4-5.1,28.3-5.1,8,0,15.4.8,20.2,1.9,10.3,2.2,20,9.4,19.9,20,0,.4,0,.8,0,1.3,0,0,0,0,0,.1-6,8.7-17.2,16.3-33.6,17.1Z"/>
</svg>