<?xml version="1.0" encoding="UTF-8"?>
<svg id="Layer_3" xmlns="http://www.w3.org/2000/svg" version="1.1" xmlns:cc="http://creativecommons.org/ns#" xmlns:dc="http://purl.org/dc/elements/1.1/" xmlns:rdf="http://www.w3.org/1999/02/22-rdf-syntax-ns#" viewBox="0 0 598.2 350.3">
  <!-- Generator: Adobe Illustrator 29.0.1, SVG Export Plug-In . SVG Version: 2.1.0 Build 192)  -->
  <defs>
    <style>
      .st0 {
        fill: #f4f4f4;
      }
    </style>
  </defs>
  <path id="path3" class="st0" d="M180,7.9c-4.9,0-9,4-9,9v315.1c0,4.9,4,9,9,9h238.5c4.9,0,9-4,9-9V16.9c0-4.9-4-9-9-9h-238.5ZM180,9.5h238.5c4.1,0,7.4,3.3,7.4,7.4v315.1c0,4.1-3.3,7.4-7.4,7.4h-238.5c-4.1,0-7.4-3.3-7.4-7.4V16.9c0-4.1,3.3-7.4,7.4-7.4h0Z"/>
  <path id="path5" class="st0" d="M215.1,33.3c-8.3,0-15,6.7-15,15v52.9h70V33.3h-.8s-54.2,0-54.2,0ZM215.1,34.9h53.4v64.8h-66.8v-51.3c0-7.4,6-13.4,13.4-13.4Z"/>
  <path id="path7" class="st0" d="M271.5,33.3v69h-71.2v196.5c0,8.3,6.7,15,15,15h167.9c8.3,0,15-6.7,15-15V48.3c0-8.3-6.7-15-15-15h-111.7ZM273.1,34.9h110.1c7.4,0,13.4,6,13.4,13.4v250.5c0,7.4-6,13.4-13.4,13.4h-167.9c-7.4,0-13.4-6-13.4-13.4V104h71.2V34.9h0Z"/>
  <path id="path9" class="st0" d="M219.4,106.1c-5.4,0-9.8,4.4-9.8,9.8v117.7c0,5.4,4.4,9.8,9.8,9.8h159.7c5.4,0,9.8-4.4,9.8-9.8v-117.7c0-5.4-4.4-9.8-9.8-9.8,0,0-159.7,0-159.7,0ZM219.4,107.7h159.7c4.6,0,8.2,3.7,8.2,8.2h0v117.7c0,4.6-3.7,8.2-8.2,8.2h-159.7c-4.6,0-8.2-3.7-8.2-8.2v-117.7h0c0-4.6,3.7-8.3,8.2-8.3ZM219.4,109.6c-3.5,0-6.4,2.8-6.4,6.4v117.7c0,3.5,2.9,6.4,6.4,6.4h159.7c3.5,0,6.4-2.9,6.4-6.4v-117.7c0-3.5-2.9-6.4-6.4-6.4h-159.7ZM219.4,111.2h159.7c2.7,0,4.8,2.1,4.8,4.8h0v117.7c0,2.7-2.1,4.8-4.8,4.8h-159.7c-2.7,0-4.8-2.1-4.8-4.8v-117.7h0c0-2.7,2.1-4.8,4.8-4.8Z"/>
  <path id="path11" class="st0" d="M299.2,125.7c-2.4,0-4.8.9-6.6,2.8l-4.3,4.3c-2.8,2.9-4.3,3.8-9.3,3.8h-5.9c-5.2,0-9.4,4.2-9.4,9.4v5.6c0,2.5-.1,4-.6,5.2-.4,1.2-1.2,2.3-2.8,4l-4.7,4.7c-3.7,3.7-3.7,9.6,0,13.3l4.5,4.5h0c1.4,1.3,2.3,2.3,2.8,3.8s.7,3.5.7,6.7v4.5c0,5.2,4.2,9.4,9.4,9.4h5.6c5.2,0,6.9,1.2,9.6,3.7l4.3,4.3c3.7,3.7,9.6,3.7,13.3,0l4.1-4.1c1.7-1.7,2.7-2.7,3.9-3.2,1.2-.6,2.7-.8,5.5-.8h6c5.2,0,9.4-4.2,9.4-9.4v-5.5c0-3.2.4-5.1,1.2-6.6.8-1.5,2-2.7,3.7-4.3h0s3.2-3.2,3.2-3.2c3.7-3.7,3.7-9.6,0-13.3l-3.4-3.4h0c-1.7-1.5-2.8-2.5-3.5-4-.7-1.5-1.1-3.4-1.1-6.7v-5.4c0-5.2-4.2-9.4-9.4-9.4h-6c-2.7,0-4.4-.4-5.7-1-1.3-.7-2.4-1.7-4-3.3l-3.8-3.7c-1.8-1.8-4.2-2.8-6.6-2.8h0ZM299.2,127.3c2,0,4,.8,5.5,2.3l3.8,3.7h0c1.6,1.6,2.8,2.8,4.4,3.6s3.5,1.2,6.4,1.2h6c4.3,0,7.8,3.5,7.8,7.8v5.4c0,3.4.4,5.6,1.3,7.4.9,1.8,2.2,3,3.9,4.5,0,0,0,0,0,0l3.4,3.4c3.1,3.1,3.1,8,0,11.1l-3.1,3.1h0c-1.8,1.6-3.1,2.9-4.1,4.7-.9,1.8-1.3,4-1.3,7.3v5.5c0,4.3-3.5,7.8-7.8,7.8h-6c-2.8,0-4.6.2-6.1.9s-2.7,1.9-4.4,3.6l-4.1,4c-3.1,3.1-8,3.1-11,0l-4.3-4.3h0c-2.7-2.7-5.2-4.2-10.7-4.2h-5.6c-4.3,0-7.8-3.5-7.8-7.8v-4.5c0-3.3-.2-5.5-.8-7.3-.6-1.8-1.7-3-3.2-4.4h0s-4.5-4.5-4.5-4.5c-3.1-3.1-3.1-8,0-11.1l4.7-4.7h0c1.6-1.7,2.6-3,3.2-4.6s.6-3.2.6-5.7v-5.6c0-4.3,3.5-7.8,7.8-7.8h5.9c5.2,0,7.5-1.2,10.4-4.3l4.3-4.3c1.5-1.5,3.5-2.3,5.5-2.3h0Z"/>
  <path id="path13" class="st0" d="M299.2,130.7c-2.2,0-4.3.8-6,2.5l-3.8,3.8c-2.5,2.6-3.8,3.3-8.2,3.3h-5.2c-4.7,0-8.5,3.8-8.5,8.5v5c0,2.2-.1,3.5-.5,4.6-.4,1.1-1.1,2.1-2.5,3.5l-4.2,4.2c-3.3,3.3-3.3,8.7,0,12l4,4h0s0,0,0,0c1.3,1.1,2,2,2.5,3.3.5,1.3.7,3.1.7,5.9v4c0,4.7,3.8,8.5,8.5,8.5h5c4.7,0,6.1,1,8.5,3.3l3.9,3.9c3.3,3.3,8.6,3.3,11.9,0l3.6-3.6c1.5-1.5,2.4-2.4,3.5-2.9,1.1-.5,2.4-.7,4.9-.7h5.4c4.7,0,8.4-3.8,8.4-8.5v-4.9c0-2.8.3-4.5,1-5.8.7-1.3,1.7-2.4,3.3-3.8h0s2.8-2.8,2.8-2.8c3.3-3.3,3.3-8.7,0-12l-3-3h0s0,0,0,0c-1.5-1.3-2.5-2.2-3.1-3.5-.6-1.3-1-3-1-5.9v-4.8c0-4.7-3.8-8.5-8.4-8.5h-5.4c-2.4,0-3.8-.3-5-.9-1.2-.6-2.2-1.5-3.6-2.9h0l-3.3-3.3h0c-1.6-1.6-3.8-2.5-6-2.5h0ZM299.2,132.3c1.8,0,3.5.7,4.9,2l3.3,3.4h0c1.4,1.4,2.5,2.4,4,3.2,1.5.7,3.2,1.1,5.7,1.1h5.4c3.8,0,6.8,3.1,6.8,6.9v4.8c0,3,.3,5,1.1,6.6.8,1.6,2,2.7,3.5,4,0,0,0,0,0,0l3,3c2.7,2.7,2.7,7,0,9.7l-2.8,2.8c-1.6,1.4-2.8,2.6-3.7,4.2s-1.2,3.6-1.2,6.5v4.9c0,3.8-3,6.9-6.8,6.9h-5.4c-2.5,0-4.1.2-5.5.8s-2.4,1.7-3.9,3.2l-3.6,3.6c-2.7,2.7-7,2.7-9.7,0l-3.9-3.9h0c-2.4-2.4-4.6-3.8-9.6-3.8h-5c-3.8,0-6.9-3.1-6.9-6.9v-4c0-3-.2-4.9-.8-6.5-.6-1.6-1.5-2.7-2.9-3.9h0s-4-4-4-4c-2.7-2.7-2.7-7,0-9.7l4.2-4.2h0c1.4-1.6,2.3-2.7,2.8-4.1.5-1.4.6-2.9.6-5.1v-5c0-3.8,3.1-6.9,6.9-6.9h5.2c4.6,0,6.7-1.1,9.3-3.8h0l3.8-3.8c1.3-1.3,3.1-2,4.9-2h0Z"/>
  <path id="circle15" class="st0" d="M299.2,149c-12.7,0-23,10.3-23,23.1s10.3,23,23,23,23-10.3,23-23-10.3-23.1-23-23.1ZM299.2,150.6c11.9,0,21.4,9.6,21.4,21.5s-9.6,21.4-21.4,21.4-21.4-9.6-21.4-21.4,9.6-21.5,21.4-21.5Z"/>
  <path id="circle17" class="st0" d="M299.2,156.8c-8.4,0-15.3,6.9-15.3,15.3s6.9,15.3,15.3,15.3,15.3-6.8,15.3-15.3-6.9-15.3-15.3-15.3ZM299.2,158.4c7.6,0,13.7,6.1,13.7,13.7s-6.1,13.7-13.7,13.7-13.7-6.1-13.7-13.7,6.1-13.7,13.7-13.7Z"/>
  <path id="path19" class="st0" d="M272.6,40c-.4,0-.8.4-.8.8s.4.8.8.8h108.8c4.3,0,7.8,3.5,7.8,7.8v248.4c0,4.3-3.5,7.8-7.8,7.8h-164.4c-4.3,0-7.8-3.5-7.8-7.8V103.2c0-.4-.3-.8-.8-.8-.4,0-.8.3-.8.8h0v194.6c0,5.2,4.2,9.4,9.4,9.4h164.4c5.2,0,9.4-4.2,9.4-9.4V49.4c0-5.2-4.2-9.4-9.4-9.4h-108.8s0,0,0,0h0Z"/>
  <path id="path21" class="st0" d="M217,40c-5.2,0-9.4,4.2-9.4,9.4v51.1c0,.4.3.8.8.8.4,0,.8-.3.8-.8h0v-51.1c0-4.3,3.5-7.8,7.8-7.8h52.1c.4,0,.8-.3.8-.8,0-.4-.3-.8-.8-.8h-52.2Z"/>
</svg>