<?xml version="1.0" encoding="UTF-8"?>
<svg id="Layer_3" xmlns="http://www.w3.org/2000/svg" version="1.1" xmlns:cc="http://creativecommons.org/ns#" xmlns:dc="http://purl.org/dc/elements/1.1/" xmlns:rdf="http://www.w3.org/1999/02/22-rdf-syntax-ns#" viewBox="0 0 598.2 350.3">
  <!-- Generator: Adobe Illustrator 29.0.1, SVG Export Plug-In . SVG Version: 2.1.0 Build 192)  -->
  <defs>
    <style>
      .st0 {
        fill: #f4f4f4;
      }
    </style>
  </defs>
  <g id="path9">
    <path class="st0" d="M25,97c-1.2,0-2.1,1-2.1,2.3v13.3c0,1.3,1,2.3,2.1,2.3h19.7c1.2,0,2.1-1,2.1-2.3v-.6h0v-12.6c0-1.3-1-2.3-2.1-2.3h-19.7,0ZM25,98.4h19.7c.5,0,.9.4.9.9v13.3h0c0,.5-.4.9-.9.9h-19.7c-.5,0-.9-.4-.9-.9v-13.3c0-.5.4-.9.9-.9h0Z"/>
  </g>
  <g id="path11">
    <path class="st0" d="M57.8,97c-1.2,0-2.1,1-2.1,2.3v13.3c0,1.3,1,2.3,2.1,2.3h19.7c1.2,0,2.1-1,2.1-2.3v-13.3c0-1.3-1-2.3-2.1-2.3h-19.7ZM57.8,98.4h19.7c.5,0,.9.4.9.9v13.3c0,.5-.4.9-.9.9h-19.7c-.5,0-.9-.4-.9-.9v-13.3c0-.5.4-.9.9-.9Z"/>
  </g>
  <g id="path13">
    <path class="st0" d="M90.6,97c-1.2,0-2.1,1-2.1,2.3v13.3c0,1.3,1,2.3,2.1,2.3h19.7c1.2,0,2.1-1,2.1-2.3v-13.3c0-1.3-1-2.3-2.1-2.3h-19.7ZM90.6,98.4h19.7c.5,0,.9.4.9.9v13.3c0,.5-.4.9-.9.9h-19.7c-.5,0-.9-.4-.9-.9v-13.3c0-.5.4-.9.9-.9Z"/>
  </g>
  <g id="path15">
    <path class="st0" d="M123.5,97c-1.2,0-2.1,1-2.1,2.3v13.3c0,1.3,1,2.3,2.1,2.3h19.7c1.2,0,2.1-1,2.1-2.3v-13.3c0-1.3-1-2.3-2.1-2.3h-19.7ZM123.5,98.4h19.7c.5,0,.9.4.9.9v13.3c0,.5-.4.9-.9.9h-19.7c-.5,0-.9-.4-.9-.9v-13.3c0-.5.4-.9.9-.9Z"/>
  </g>
  <g id="path17">
    <path class="st0" d="M156.3,97c-1.2,0-2.1,1-2.1,2.3v13.3c0,1.3,1,2.3,2.1,2.3h19.7c1.2,0,2.1-1,2.1-2.3v-13.3c0-1.3-1-2.3-2.1-2.3h-19.7ZM156.3,98.4h19.7c.5,0,.9.4.9.9v13.3c0,.5-.4.9-.9.9h-19.7c-.5,0-.9-.4-.9-.9v-13.3c0-.5.4-.9.9-.9Z"/>
  </g>
  <g id="path19">
    <path class="st0" d="M189.1,97c-1.2,0-2.1,1-2.1,2.3v13.3c0,1.3,1,2.3,2.1,2.3h19.7c1.2,0,2.1-1,2.1-2.3v-13.3c0-1.3-1-2.3-2.1-2.3h-19.7ZM189.1,98.4h19.7c.5,0,.9.4.9.9v13.3c0,.5-.4.9-.9.9h-19.7c-.5,0-.9-.4-.9-.9v-13.3c0-.5.4-.9.9-.9Z"/>
  </g>
  <g id="path21">
    <path class="st0" d="M222,97c-1.2,0-2.1,1-2.1,2.3v13.3c0,1.3,1,2.3,2.1,2.3h19.7c1.2,0,2.1-1,2.1-2.3v-13.3c0-1.3-1-2.3-2.1-2.3h-19.7ZM222,98.4h19.7c.5,0,.9.4.9.9v13.3c0,.5-.4.9-.9.9h-19.7c-.5,0-.9-.4-.9-.9v-13.3c0-.5.4-.9.9-.9Z"/>
  </g>
  <g id="path23">
    <path class="st0" d="M254.8,97c-1.2,0-2.1,1-2.1,2.3v13.3c0,1.3,1,2.3,2.1,2.3h19.7c1.2,0,2.1-1,2.1-2.3v-13.3c0-1.3-1-2.3-2.1-2.3h-19.7ZM254.8,98.4h19.7c.5,0,.9.4.9.9v13.3c0,.5-.4.9-.9.9h-19.7c-.5,0-.9-.4-.9-.9v-13.3c0-.5.4-.9.9-.9Z"/>
  </g>
  <g id="path25">
    <path class="st0" d="M287.6,97c-1.2,0-2.1,1-2.1,2.3v13.3c0,1.3,1,2.3,2.1,2.3h19.7c1.2,0,2.1-1,2.1-2.3v-13.3c0-1.3-1-2.3-2.1-2.3h-19.7ZM287.6,98.4h19.7c.5,0,.9.4.9.9v13.3c0,.5-.4.9-.9.9h-19.7c-.5,0-.9-.4-.9-.9v-13.3c0-.5.4-.9.9-.9Z"/>
  </g>
  <g id="path27">
    <path class="st0" d="M320.5,97c-1.2,0-2.1,1-2.1,2.3v13.3c0,1.3,1,2.3,2.1,2.3h19.7c1.2,0,2.1-1,2.1-2.3v-13.3c0-1.3-1-2.3-2.1-2.3h-19.7ZM320.5,98.4h19.7c.5,0,.9.4.9.9v13.3c0,.5-.4.9-.9.9h-19.7c-.5,0-.9-.4-.9-.9v-13.3c0-.5.4-.9.9-.9Z"/>
  </g>
  <g id="path231" data-name="path23">
    <path class="st0" d="M353.2,97c-1.2,0-2.1,1-2.1,2.3v13.3c0,1.3,1,2.3,2.1,2.3h19.7c1.2,0,2.1-1,2.1-2.3v-13.3c0-1.3-1-2.3-2.1-2.3h-19.7ZM353.2,98.4h19.7c.5,0,.9.4.9.9v13.3c0,.5-.4.9-.9.9h-19.7c-.5,0-.9-.4-.9-.9v-13.3c0-.5.4-.9.9-.9Z"/>
  </g>
  <g id="path251" data-name="path25">
    <path class="st0" d="M386,97c-1.2,0-2.1,1-2.1,2.3v13.3c0,1.3,1,2.3,2.1,2.3h19.7c1.2,0,2.1-1,2.1-2.3v-13.3c0-1.3-1-2.3-2.1-2.3h-19.7ZM386,98.4h19.7c.5,0,.9.4.9.9v13.3c0,.5-.4.9-.9.9h-19.7c-.5,0-.9-.4-.9-.9v-13.3c0-.5.4-.9.9-.9Z"/>
  </g>
  <g id="path271" data-name="path27">
    <path class="st0" d="M418.9,97c-1.2,0-2.1,1-2.1,2.3v13.3c0,1.3,1,2.3,2.1,2.3h34.6c1.2,0,2.1-1,2.1-2.3v-13.3c0-1.3-1-2.3-2.1-2.3h-34.6ZM418.9,98.4h34.6c.5,0,.9.4.9.9v13.3c0,.5-.4.9-.9.9h-34.6c-.5,0-.9-.4-.9-.9v-13.3c0-.5.4-.9.9-.9Z"/>
  </g>
  <g id="path272" data-name="path27">
    <path class="st0" d="M479.3,97c-1.2,0-2.1,1-2.1,2.3v13.3c0,1.3,1,2.3,2.1,2.3h19.7c1.2,0,2.1-1,2.1-2.3v-13.3c0-1.3-1-2.3-2.1-2.3h-19.7ZM479.3,98.4h19.7c.5,0,.9.4.9.9v13.3c0,.5-.4.9-.9.9h-19.7c-.5,0-.9-.4-.9-.9v-13.3c0-.5.4-.9.9-.9Z"/>
  </g>
  <g id="path29">
    <path class="st0" d="M25.6,131.7c-1.2,0-2.1,1-2.1,2.3v13.4c0,1.3,1,2.3,2.1,2.3h36.5c1.2,0,2.1-1,2.1-2.3v-13.4c0-1.3-1-2.3-2.1-2.3H25.6ZM25.6,133h36.5c.5,0,.9.4.9.9v13.4c0,.5-.4.9-.9.9H25.6c-.5,0-.9-.4-.9-.9v-13.4c0-.5.4-.9.9-.9Z"/>
  </g>
  <g id="path31">
    <path class="st0" d="M73.6,131.7c-1.2,0-2.1,1-2.1,2.3v13.4c0,1.3,1,2.3,2.1,2.3h19.7c1.2,0,2.1-1,2.1-2.3v-13.4c0-1.3-1-2.3-2.1-2.3h-19.7ZM73.6,133h19.7c.5,0,.9.4.9.9v13.4c0,.5-.4.9-.9.9h-19.7c-.5,0-.9-.4-.9-.9v-13.4c0-.5.4-.9.9-.9Z"/>
  </g>
  <g id="path33">
    <path class="st0" d="M106.3,131.7c-1.2,0-2.1,1-2.1,2.3v13.4c0,1.3,1,2.3,2.1,2.3h19.7c1.2,0,2.1-1,2.1-2.3v-13.4c0-1.3-1-2.3-2.1-2.3h-19.7ZM106.3,133h19.7c.5,0,.9.4.9.9v13.4c0,.5-.4.9-.9.9h-19.7c-.5,0-.9-.4-.9-.9v-13.4c0-.5.4-.9.9-.9Z"/>
  </g>
  <g id="path35">
    <path class="st0" d="M139.1,131.7c-1.2,0-2.1,1-2.1,2.3v13.4c0,1.3,1,2.3,2.1,2.3h19.7c1.2,0,2.1-1,2.1-2.3v-13.4c0-1.3-1-2.3-2.1-2.3h-19.7ZM139.1,133h19.7c.5,0,.9.4.9.9v13.4c0,.5-.4.9-.9.9h-19.7c-.5,0-.9-.4-.9-.9v-13.4c0-.5.4-.9.9-.9Z"/>
  </g>
  <g id="path37">
    <path class="st0" d="M171.8,131.7c-1.2,0-2.1,1-2.1,2.3v13.4c0,1.3,1,2.3,2.1,2.3h19.7c1.2,0,2.1-1,2.1-2.3v-13.4c0-1.3-1-2.3-2.1-2.3h-19.7ZM171.8,133h19.7c.5,0,.9.4.9.9v13.4c0,.5-.4.9-.9.9h-19.7c-.5,0-.9-.4-.9-.9v-13.4c0-.5.4-.9.9-.9Z"/>
  </g>
  <g id="path39">
    <path class="st0" d="M204.5,131.7c-1.2,0-2.1,1-2.1,2.3v13.4c0,1.3,1,2.3,2.1,2.3h19.7c1.2,0,2.1-1,2.1-2.3v-13.4c0-1.3-1-2.3-2.1-2.3h-19.7ZM204.5,133h19.7c.5,0,.9.4.9.9v13.4c0,.5-.4.9-.9.9h-19.7c-.5,0-.9-.4-.9-.9v-13.4c0-.5.4-.9.9-.9Z"/>
  </g>
  <g id="path41">
    <path class="st0" d="M237.3,131.7c-1.2,0-2.1,1-2.1,2.3v13.4c0,1.3,1,2.3,2.1,2.3h19.7c1.2,0,2.1-1,2.1-2.3v-13.4c0-1.3-1-2.3-2.1-2.3h-19.7ZM237.3,133h19.7c.5,0,.9.4.9.9v13.4c0,.5-.4.9-.9.9h-19.7c-.5,0-.9-.4-.9-.9v-13.4c0-.5.4-.9.9-.9Z"/>
  </g>
  <g id="path43">
    <path class="st0" d="M270,131.7c-1.2,0-2.1,1-2.1,2.3v13.4c0,1.3,1,2.3,2.1,2.3h19.7c1.2,0,2.1-1,2.1-2.3v-13.4c0-1.3-1-2.3-2.1-2.3h-19.7ZM270,133h19.7c.5,0,.9.4.9.9v13.4c0,.5-.4.9-.9.9h-19.7c-.5,0-.9-.4-.9-.9v-13.4c0-.5.4-.9.9-.9Z"/>
  </g>
  <g id="path45">
    <path class="st0" d="M302.8,131.7c-1.2,0-2.1,1-2.1,2.3v13.4c0,1.3,1,2.3,2.1,2.3h19.7c1.2,0,2.1-1,2.1-2.3v-13.4c0-1.3-1-2.3-2.1-2.3h-19.7ZM302.8,133h19.7c.5,0,.9.4.9.9v13.4c0,.5-.4.9-.9.9h-19.7c-.5,0-.9-.4-.9-.9v-13.4c0-.5.4-.9.9-.9Z"/>
  </g>
  <g id="path47">
    <path class="st0" d="M335.5,131.7c-1.2,0-2.1,1-2.1,2.3v13.4c0,1.3,1,2.3,2.1,2.3h19.7c1.2,0,2.1-1,2.1-2.3v-13.4c0-1.3-1-2.3-2.1-2.3h-19.7ZM335.5,133h19.7c.5,0,.9.4.9.9v13.4c0,.5-.4.9-.9.9h-19.7c-.5,0-.9-.4-.9-.9v-13.4c0-.5.4-.9.9-.9Z"/>
  </g>
  <g id="path431" data-name="path43">
    <path class="st0" d="M368.2,131.7c-1.2,0-2.1,1-2.1,2.3v13.4c0,1.3,1,2.3,2.1,2.3h19.7c1.2,0,2.1-1,2.1-2.3v-13.4c0-1.3-1-2.3-2.1-2.3h-19.7ZM368.2,133h19.7c.5,0,.9.4.9.9v13.4c0,.5-.4.9-.9.9h-19.7c-.5,0-.9-.4-.9-.9v-13.4c0-.5.4-.9.9-.9Z"/>
  </g>
  <g id="path451" data-name="path45">
    <path class="st0" d="M401,131.7c-1.2,0-2.1,1-2.1,2.3v13.4c0,1.3,1,2.3,2.1,2.3h19.7c1.2,0,2.1-1,2.1-2.3v-13.4c0-1.3-1-2.3-2.1-2.3h-19.7ZM401,133h19.7c.5,0,.9.4.9.9v13.4c0,.5-.4.9-.9.9h-19.7c-.5,0-.9-.4-.9-.9v-13.4c0-.5.4-.9.9-.9Z"/>
  </g>
  <g id="path471" data-name="path47">
    <path class="st0" d="M433.7,131.7c-1.2,0-2.1,1-2.1,2.3v13.4c0,1.3,1,2.3,2.1,2.3h19.7c1.2,0,2.1-1,2.1-2.3v-13.4c0-1.3-1-2.3-2.1-2.3h-19.7ZM433.7,133h19.7c.5,0,.9.4.9.9v13.4c0,.5-.4.9-.9.9h-19.7c-.5,0-.9-.4-.9-.9v-13.4c0-.5.4-.9.9-.9Z"/>
  </g>
  <g id="path49">
    <path class="st0" d="M51,166.3c-1.2,0-2.1,1-2.1,2.3v13.3c0,1.3,1,2.3,2.1,2.3h19.7c1.2,0,2.1-1,2.1-2.3v-13.3c0-1.3-1-2.3-2.1-2.3h-19.7ZM51,167.6h19.7c.5,0,.9.4.9.9v13.3c0,.5-.4.9-.9.9h-19.7c-.5,0-.9-.4-.9-.9v-13.3c0-.5.4-.9.9-.9Z"/>
  </g>
  <g id="path491" data-name="path49">
    <path class="st0" d="M18,166.3c-1.2,0-2.1,1-2.1,2.3v13.3c0,1.3,1,2.3,2.1,2.3h19.7c1.2,0,2.1-1,2.1-2.3v-13.3c0-1.3-1-2.3-2.1-2.3h-19.7ZM18,167.6h19.7c.5,0,.9.4.9.9v13.3c0,.5-.4.9-.9.9h-19.7c-.5,0-.9-.4-.9-.9v-13.3c0-.5.4-.9.9-.9Z"/>
  </g>
  <g id="path51">
    <path class="st0" d="M84,166.3c-1.2,0-2.1,1-2.1,2.3v13.3c0,1.3,1,2.3,2.1,2.3h19.7c1.2,0,2.1-1,2.1-2.3v-13.3c0-1.3-1-2.3-2.1-2.3h-19.7ZM84,167.6h19.7c.5,0,.9.4.9.9v13.3c0,.5-.4.9-.9.9h-19.7c-.5,0-.9-.4-.9-.9v-13.3c0-.5.4-.9.9-.9Z"/>
  </g>
  <g id="path53">
    <path class="st0" d="M117.1,166.3c-1.2,0-2.1,1-2.1,2.3v13.3c0,1.3,1,2.3,2.1,2.3h19.7c1.2,0,2.1-1,2.1-2.3v-13.3c0-1.3-1-2.3-2.1-2.3h-19.7ZM117.1,167.6h19.7c.5,0,.9.4.9.9v13.3c0,.5-.4.9-.9.9h-19.7c-.5,0-.9-.4-.9-.9v-13.3c0-.5.4-.9.9-.9Z"/>
  </g>
  <g id="path55">
    <path class="st0" d="M150.1,166.3c-1.2,0-2.1,1-2.1,2.3v13.3c0,1.3,1,2.3,2.1,2.3h19.7c1.2,0,2.1-1,2.1-2.3v-13.3c0-1.3-1-2.3-2.1-2.3h-19.7ZM150.1,167.6h19.7c.5,0,.9.4.9.9v13.3c0,.5-.4.9-.9.9h-19.7c-.5,0-.9-.4-.9-.9v-13.3c0-.5.4-.9.9-.9Z"/>
  </g>
  <g id="path57">
    <path class="st0" d="M183.1,166.3c-1.2,0-2.1,1-2.1,2.3v13.3c0,1.3,1,2.3,2.1,2.3h19.7c1.2,0,2.1-1,2.1-2.3v-13.3c0-1.3-1-2.3-2.1-2.3h-19.7ZM183.1,167.6h19.7c.5,0,.9.4.9.9v13.3c0,.5-.4.9-.9.9h-19.7c-.5,0-.9-.4-.9-.9v-13.3c0-.5.4-.9.9-.9Z"/>
  </g>
  <g id="path59">
    <path class="st0" d="M216.2,166.3c-1.2,0-2.1,1-2.1,2.3v13.3c0,1.3,1,2.3,2.1,2.3h19.7c1.2,0,2.1-1,2.1-2.3v-13.3c0-1.3-1-2.3-2.1-2.3h-19.7ZM216.2,167.6h19.7c.5,0,.9.4.9.9v13.3c0,.5-.4.9-.9.9h-19.7c-.5,0-.9-.4-.9-.9v-13.3c0-.5.4-.9.9-.9Z"/>
  </g>
  <g id="path61">
    <path class="st0" d="M249.2,166.3c-1.2,0-2.1,1-2.1,2.3v13.3c0,1.3,1,2.3,2.1,2.3h19.7c1.2,0,2.1-1,2.1-2.3v-13.3c0-1.3-1-2.3-2.1-2.3h-19.7ZM249.2,167.6h19.7c.5,0,.9.4.9.9v13.3c0,.5-.4.9-.9.9h-19.7c-.5,0-.9-.4-.9-.9v-13.3c0-.5.4-.9.9-.9Z"/>
  </g>
  <g id="path63">
    <path class="st0" d="M282.2,166.3c-1.2,0-2.1,1-2.1,2.3v13.3c0,1.3,1,2.3,2.1,2.3h19.7c1.2,0,2.1-1,2.1-2.3v-13.3c0-1.3-1-2.3-2.1-2.3h-19.7ZM282.2,167.6h19.7c.5,0,.9.4.9.9v13.3c0,.5-.4.9-.9.9h-19.7c-.5,0-.9-.4-.9-.9v-13.3c0-.5.4-.9.9-.9Z"/>
  </g>
  <g id="path65">
    <path class="st0" d="M315.3,166.3c-1.2,0-2.1,1-2.1,2.3v13.3c0,1.3,1,2.3,2.1,2.3h19.7c1.2,0,2.1-1,2.1-2.3v-13.3c0-1.3-1-2.3-2.1-2.3h-19.7ZM315.3,167.6h19.7c.5,0,.9.4.9.9v13.3c0,.5-.4.9-.9.9h-19.7c-.5,0-.9-.4-.9-.9v-13.3c0-.5.4-.9.9-.9Z"/>
  </g>
  <g id="path67">
    <path class="st0" d="M92.9,200.9c-1.2,0-2.1,1-2.1,2.3v13.3c0,1.3,1,2.3,2.1,2.3h19.7c1.2,0,2.1-1,2.1-2.3v-13.3c0-1.3-1-2.3-2.1-2.3h-19.7ZM92.9,202.2h19.7c.5,0,.9.4.9.9v13.3c0,.5-.4.9-.9.9h-19.7c-.5,0-.9-.4-.9-.9v-13.3c0-.5.4-.9.9-.9Z"/>
  </g>
  <g id="path69">
    <path class="st0" d="M52,200.9c-1.2,0-2.1,1-2.1,2.3v13.3c0,1.3,1,2.3,2.1,2.3h25.5c1.2,0,2.1-1,2.1-2.3v-13.3c0-1.3-1-2.3-2.1-2.3,0,0-25.5,0-25.5,0ZM52,202.2h25.5c.5,0,.9.4.9.9v13.3c0,.5-.4.9-.9.9h-25.5c-.5,0-.9-.4-.9-.9v-13.3c0-.5.4-.9.9-.9Z"/>
  </g>
  <g id="path71">
    <path class="st0" d="M125.7,200.9c-1.2,0-2.1,1-2.1,2.3v13.3c0,1.3,1,2.3,2.1,2.3h19.7c1.2,0,2.1-1,2.1-2.3v-13.3c0-1.3-1-2.3-2.1-2.3h-19.7ZM125.7,202.2h19.7c.5,0,.9.4.9.9v13.3c0,.5-.4.9-.9.9h-19.7c-.5,0-.9-.4-.9-.9v-13.3c0-.5.4-.9.9-.9Z"/>
  </g>
  <g id="path671" data-name="path67">
    <path class="st0" d="M92.9,235.4c-1.2,0-2.1,1-2.1,2.3v13.3c0,1.3,1,2.3,2.1,2.3h19.7c1.2,0,2.1-1,2.1-2.3v-13.3c0-1.3-1-2.3-2.1-2.3h-19.7ZM92.9,236.8h19.7c.5,0,.9.4.9.9v13.3c0,.5-.4.9-.9.9h-19.7c-.5,0-.9-.4-.9-.9v-13.3c0-.5.4-.9.9-.9Z"/>
  </g>
  <g id="path711" data-name="path71">
    <path class="st0" d="M125.7,235.4c-1.2,0-2.1,1-2.1,2.3v13.3c0,1.3,1,2.3,2.1,2.3h19.7c1.2,0,2.1-1,2.1-2.3v-13.3c0-1.3-1-2.3-2.1-2.3h-19.7ZM125.7,236.8h19.7c.5,0,.9.4.9.9v13.3c0,.5-.4.9-.9.9h-19.7c-.5,0-.9-.4-.9-.9v-13.3c0-.5.4-.9.9-.9Z"/>
  </g>
  <g id="path73">
    <path class="st0" d="M158.5,200.9c-1.2,0-2.1,1-2.1,2.3v13.3c0,1.3,1,2.3,2.1,2.3h19.7c1.2,0,2.1-1,2.1-2.3v-13.3c0-1.3-1-2.3-2.1-2.3h-19.7ZM158.5,202.2h19.7c.5,0,.9.4.9.9v13.3c0,.5-.4.9-.9.9h-19.7c-.5,0-.9-.4-.9-.9v-13.3c0-.5.4-.9.9-.9Z"/>
  </g>
  <g id="path75">
    <path class="st0" d="M191.3,200.9c-1.2,0-2.1,1-2.1,2.3v13.3c0,1.3,1,2.3,2.1,2.3h19.7c1.2,0,2.1-1,2.1-2.3v-13.3c0-1.3-1-2.3-2.1-2.3h-19.7ZM191.3,202.2h19.7c.5,0,.9.4.9.9v13.3c0,.5-.4.9-.9.9h-19.7c-.5,0-.9-.4-.9-.9v-13.3c0-.5.4-.9.9-.9Z"/>
  </g>
  <g id="path77">
    <path class="st0" d="M224.2,200.9c-1.2,0-2.1,1-2.1,2.3v13.3c0,1.3,1,2.3,2.1,2.3h19.7c1.2,0,2.1-1,2.1-2.3v-13.3c0-1.3-1-2.3-2.1-2.3h-19.7ZM224.2,202.2h19.7c.5,0,.9.4.9.9v13.3c0,.5-.4.9-.9.9h-19.7c-.5,0-.9-.4-.9-.9v-13.3c0-.5.4-.9.9-.9Z"/>
  </g>
  <g id="path79">
    <path class="st0" d="M257,200.9c-1.2,0-2.1,1-2.1,2.3v13.3c0,1.3,1,2.3,2.1,2.3h19.7c1.2,0,2.1-1,2.1-2.3v-13.3c0-1.3-1-2.3-2.1-2.3h-19.7ZM257,202.2h19.7c.5,0,.9.4.9.9v13.3c0,.5-.4.9-.9.9h-19.7c-.5,0-.9-.4-.9-.9v-13.3c0-.5.4-.9.9-.9Z"/>
  </g>
  <g id="path81">
    <path class="st0" d="M289.9,200.9c-1.2,0-2.1,1-2.1,2.3v13.3c0,1.3,1,2.3,2.1,2.3h19.7c1.2,0,2.1-1,2.1-2.3v-13.3c0-1.3-1-2.3-2.1-2.3h-19.7ZM289.9,202.2h19.7c.5,0,.9.4.9.9v13.3c0,.5-.4.9-.9.9h-19.7c-.5,0-.9-.4-.9-.9v-13.3c0-.5.4-.9.9-.9Z"/>
  </g>
  <g id="path83">
    <path class="st0" d="M322.7,200.9c-1.2,0-2.1,1-2.1,2.3v13.3c0,1.3,1,2.3,2.1,2.3h19.7c1.2,0,2.1-1,2.1-2.3v-13.3c0-1.3-1-2.3-2.1-2.3h-19.7ZM322.7,202.2h19.7c.5,0,.9.4.9.9v13.3c0,.5-.4.9-.9.9h-19.7c-.5,0-.9-.4-.9-.9v-13.3c0-.5.4-.9.9-.9Z"/>
  </g>
  <g id="path831" data-name="path83">
    <path class="st0" d="M356.2,200.9c-1.2,0-2.1,1-2.1,2.3v13.3c0,1.3,1,2.3,2.1,2.3h19.7c1.2,0,2.1-1,2.1-2.3v-13.3c0-1.3-1-2.3-2.1-2.3h-19.7ZM356.2,202.2h19.7c.5,0,.9.4.9.9v13.3c0,.5-.4.9-.9.9h-19.7c-.5,0-.9-.4-.9-.9v-13.3c0-.5.4-.9.9-.9Z"/>
  </g>
  <g id="path85">
    <path class="st0" d="M388.6,200.9c-1.2,0-2.1,1-2.1,2.3v13.3c0,1.3,1,2.3,2.1,2.3h34.1c1.2,0,2.1-1,2.1-2.3v-13.3c0-1.3-1-2.3-2.1-2.3h-34.1ZM388.6,202.2h34.1c.5,0,.9.4.9.9v13.3c0,.5-.4.9-.9.9h-34.1c-.5,0-.9-.4-.9-.9v-13.3c0-.5.4-.9.9-.9Z"/>
  </g>
  <g id="path851" data-name="path85">
    <path class="st0" d="M157.4,235.4c-1.2,0-2.1,1-2.1,2.3v13.3c0,1.3,1,2.3,2.1,2.3h150.2c1.2,0,2.1-1,2.1-2.3v-13.3c0-1.3-1-2.3-2.1-2.3h-150.2ZM157.4,236.8h150.2c.5,0,.9.4.9.9v13.3c0,.5-.4.9-.9.9h-150.2c-.5,0-.9-.4-.9-.9v-13.3c0-.5.4-.9.9-.9Z"/>
  </g>
  <g id="path87">
    <path class="st0" d="M348.3,166.3c-1.2,0-2.1,1-2.1,2.3v13.3c0,1.3,1,2.3,2.1,2.3h19.7c1.2,0,2.1-1,2.1-2.3v-13.3c0-1.3-1-2.3-2.1-2.3h-19.7ZM348.3,167.6h19.7c.5,0,.9.4.9.9v13.3c0,.5-.4.9-.9.9h-19.7c-.5,0-.9-.4-.9-.9v-13.3c0-.5.4-.9.9-.9Z"/>
  </g>
  <g id="path871" data-name="path87">
    <path class="st0" d="M381.4,166.3c-1.2,0-2.1,1-2.1,2.3v13.3c0,1.3,1,2.3,2.1,2.3h19.7c1.2,0,2.1-1,2.1-2.3v-13.3c0-1.3-1-2.3-2.1-2.3h-19.7ZM381.4,167.6h19.7c.5,0,.9.4.9.9v13.3c0,.5-.4.9-.9.9h-19.7c-.5,0-.9-.4-.9-.9v-13.3c0-.5.4-.9.9-.9Z"/>
  </g>
  <g id="path872" data-name="path87">
    <path class="st0" d="M416.5,166.3c-1.2,0-2.1,1-2.1,2.3v13.3c0,1.3,1,2.3,2.1,2.3h36.9c1.2,0,2.1-1,2.1-2.3v-13.3c0-1.3-1-2.3-2.1-2.3h-36.9ZM416.5,167.6h36.9c.5,0,.9.4.9.9v13.3c0,.5-.4.9-.9.9h-36.9c-.5,0-.9-.4-.9-.9v-13.3c0-.5.4-.9.9-.9Z"/>
  </g>
  <path class="st0" d="M525,232.5c-31.6,0-57.4-25.7-57.4-57.4s25.7-57.3,57.4-57.3,57.3,25.7,57.3,57.3-25.7,57.4-57.3,57.4ZM525,119.8c-30.5,0-55.4,24.8-55.4,55.3s24.8,55.4,55.4,55.4,55.3-24.8,55.3-55.4-24.8-55.3-55.3-55.3Z"/>
  <path class="st0" d="M525,222.5c-26.1,0-47.3-21.2-47.3-47.3s21.2-47.3,47.3-47.3,47.3,21.2,47.3,47.3-21.2,47.3-47.3,47.3ZM525,130c-25,0-45.3,20.3-45.3,45.3s20.3,45.3,45.3,45.3,45.3-20.3,45.3-45.3-20.3-45.3-45.3-45.3Z"/>
  <path class="st0" d="M525,199.4c-13.3,0-24.1-10.8-24.1-24.1s10.8-24.1,24.1-24.1,24.1,10.8,24.1,24.1-10.8,24.1-24.1,24.1ZM525,153.1c-12.2,0-22.1,9.9-22.1,22.1s9.9,22.1,22.1,22.1,22.1-9.9,22.1-22.1-9.9-22.1-22.1-22.1Z"/>
</svg>