<?xml version="1.0" encoding="UTF-8"?>
<svg xmlns="http://www.w3.org/2000/svg" version="1.1" xmlns:cc="http://creativecommons.org/ns#" xmlns:dc="http://purl.org/dc/elements/1.1/" xmlns:inkscape="http://www.inkscape.org/namespaces/inkscape" xmlns:rdf="http://www.w3.org/1999/02/22-rdf-syntax-ns#" xmlns:sodipodi="http://sodipodi.sourceforge.net/DTD/sodipodi-0.dtd" xmlns:svg="http://www.w3.org/2000/svg" viewBox="0 0 623.6 425.2">
  <!-- Generator: Adobe Illustrator 29.1.0, SVG Export Plug-In . SVG Version: 2.1.0 Build 142)  -->
  <defs>
    <style>
      .st0 {
        fill: #f4f4f4;
      }
    </style>
  </defs>
  <g id="svg2" inkscape:version="0.91 r13725">
    <g>
      <path class="st0" d="M518.2,113.5l-3.9-9.1-5.3-8.4-6.5-7.5-7.5-6.5-8.4-5.3-9-4.1-9.6-2.7-9.9-1.1h-4.7c0,0-10.4.8-10.4.8l-10.2,2.5-9.7,4-9,5.4-8,6.7-6.9,7.8-5.5,8.8-3.9,9.8-2.6,10.8-.7,11.1,1.1,11.1,2.8,10.8,4.5,10.2,6,9.3,7.5,8.1,8.9,6.7,9.6,5.2,10.3,3.5,10.7,1.8h10.9c0,.1,10.8-1.4,10.8-1.4l10.4-3.2,9.8-4.8,8.9-6.4,7.3-7.1,6-8.2,4.7-9,3.3-9.6,1.9-10,.4-10.1-1.1-10.1-2.7-9.8ZM519.3,141.8l-1.7,10-3.2,9.6-4.6,9-5.9,8.2-7.2,7.1-8.3,5.8-9.2,4.7-9.8,3.1-10.2,1.5h-10.3s-10.2-1.6-10.2-1.6l-9.8-3.1-9.2-4.7-8.3-6.2-6.8-6.7-5.7-7.7-4.5-8.4-3.2-9-1.9-9.3-.5-9.5.9-9.5,2.4-9.2,2.9-7.4,3.8-7,4.7-6.5,5.4-5.8,6.1-5.1,6.7-4.3,7.2-3.4,7.7-2.4,8.3-1.8,8.4-.7h0l11.1.6,10.7,2.6,10.1,4.4,9.3,6,8.2,7.5,6.8,8.7,5.2,9.8,3.3,10.6,1.5,10v10.1Z"/>
      <path class="st0" d="M278,202.7l-3-5.6-4-4.9-4.8-4-5.6-2.9-6.2-1.6-8.7-.6h0s-6.6,1.1-6.6,1.1l-6.1,2.5-5.4,3.7-4.6,4.7-3.6,5.5-2.5,6.1-1.3,6.5v6.6c.1,0,1.2,6,1.2,6l2.1,5.7,3.1,5.2,3.9,4.6,4.6,3.9,5.2,2.9,5.7,1.8,6.1.6,6.1-.4,5.9-1.6,5.5-2.6,4.9-3.5,4.2-4.4,3.3-5,2.3-5.6,1.1-6,.2-6.3-1-6.3-2-6.1ZM277.9,222.7l-1.5,5.5-2.4,5.1-3.2,4.6-4,3.9-4.7,3-5.4,2-5.9,1.1-5.9-.2-5.8-1.4-5.4-2.4-4.9-3.4-4.1-4.2-3.2-5-2-5.7-1.2-6.2v-6.3c.1,0,1.5-6.2,1.5-6.2l2.5-5.8,3.5-5.2,4.5-4.4,5.3-3.3,6.1-2,6.9-.7,5.4.5,5.2,1.5,4.8,2.4,4.3,3.2,3.7,3.9,3,4.5,2.1,4.9,1.1,5.3.5,5.6-.6,5.6Z"/>
      <path class="st0" d="M338.6,140.7l1.9,1.8,2.6,1,8.5.3h8.5c0,.1,4.2-.7,4.2-.7l3.2-2.6,1.6-3.8-.4-4.2-1.3-2.6-2-2.1-2.6-1.3-2.9-.4h0s-4.5.2-4.5.2l-4.5-.2h-4.5s-4.4.6-4.4.6l-2.4,1.4-1.6,2.1-.9,2.5-.2,2.7.5,2.6,1.2,2.3ZM340.1,132.1l2-2.2,2.8-1.1,3.1.2h5.8s5.8-.4,5.8-.4l2.2.2,1.9,1,1.4,1.6.9,1.9.4,2.1-.3,2.1-1,1.9-1.7,1.4-2.7.5h-2.8c0-.1-2.9-.3-2.9-.3l-2.8.3-4,.2-4.3-.5-3.4-1.8-1-1.6-.3-2.2.7-3.1Z"/>
      <path class="st0" d="M575.5,282.4l-1.6-14.8-4.8-29.4-5.5-29.2-8.4-36.3-10.4-35.8-6-17.6-6.6-17.4-7.3-17.2-7.9-16.9-4.3-7.5-5-7.2-6.2-5.4-3.7-2.4-3.9-2.3-9-4.6-8.7-5.1-8.9-4.8-9.4-3.6-8-2-8.2-.3-7.9,1.7-3.7,1.7-3.4,2.4-1.3,1.2-1.5.6-3.4.2h-3.6c0-.1-3.3.7-3.3.7l-3.1,1.5-2.8,2.1-2.3,2.6-1.7,3-93.4-.5h-46.7c0-.1-46.6.5-46.6.5l-3.2-3.9-1.6-1.9-2.1-1.4-3.7-1.9-4-.9-8.1-.8-4.6-3.2-4.9-2.6-5.2-1.6-5.6-.3h0s-10.2,1.8-10.2,1.8l-9.7,3.7-9.2,4.8-8.9,5.4-7.9,3.6-7.7,4.2-6.9,5.2-5.6,6.6-4,7.1-3.5,7.4-6.6,15-7.2,17.4-6.5,17.7-5.9,17.9-5.3,18.1-9,36.6-7,37-6.1,37.3-2.4,18.7-1.6,18.8.5,9.6,1.1,9.7,1.8,9.6,2.5,9.4,3.3,9.1,4.3,8.7,5.3,8.1,6.3,7.5,5.1,5,5.5,4.5,12,7.6,13.1,5.7,13.7,3.6,5.4.6h5.5s5.4-.7,5.4-.7l5.3-1.3,5.1-2,4.7-2.6,4.3-3.3,3.8-4,8.1-10.9,6.8-11.8,6.3-12.1,6.6-11.9,12.4-22.8,6.4-11.3,6.9-11,3.1-2.8,3.5-2.1,7.7-2.5,8.3-.8,8.2.2,76.3-.2h38.1s38.1.5,38.1.5l4.2.9,4,1.5,7.2,4.5,5.8,6.2,4.1,7.4,17.4,32.9,17.4,32.9,6.7,9.8,4,4.5,4.4,4,4.8,3.4,5.2,2.7,5.6,1.8,6,.8,9-.4,8.8-1.5,8.5-2.6,8.2-3.5,7.9-4.4,7.4-5.1,6.9-5.7,6.3-6.3,4.4-5.2,3.9-5.5,6.4-11.9,4.4-12.8,2.4-13.4,1.3-14.8v-14.8c.1,0-.7-14.8-.7-14.8ZM431.2,28.3l4.6-1.8,4.1-1.1,4.2-.4h0l7.3.9,7.2,2,6.9,2.8,9.4,4.8-8.4-2.2-6.7-1.1-12.1-1.4-19.7-.3,3.3-2.3ZM408.9,37.3l3.4-2.5,3.9-1.5,4.1-.5h0s17.4.3,17.4.3l9.5.3,8,1,8.6,1.3,8.5,1.9,8.3,2.6,8.1,3.4,5,2.5,7.2,4.6-6.9-2.5-4.5-1.4-8.3-1.5-15.4-2.3-14.8-1.3-14.9-.6-29.3-.4,2.2-3.3ZM152.3,31.2l4.5-2,9.2-3.2,4.5-.9,4.5-.3,4.3.5,4.2,1.3,7.3,4.1-21.4.6-10.6.9-6.2,1.1-8.1,2.1,7.7-4ZM121.9,47.8l2.9-1.9,8.2-4.1,8.5-3.1,8.2-2.4,9.3-1.7,18.2-1.4,18.1-.3h6.1s3.7.8,3.7.8l3.4,1.7,2.9,2.4,2.3,3-23,.6-23.1.4-11.5.6-11.4,1.3-11.3,2.1-11.1,3.1-4.6,2.2,4.5-3.3ZM573.5,314.7l-.8,9.1-1.4,9-2.1,8.9-2.9,8.7-4.9,9.7-6.2,9-7.3,8.2-8.2,7.3-9,6.2-9.7,5-10.3,3.8-10.7,2.4-8.9.5-8.7-1.5-8.1-3.5-3.7-2.5-3.3-3-4.9-5.4-4.3-5.8-7.4-12.4-6.6-13-6.8-12.8-11-21.1-5.7-10.4-6.2-10.2-3.4-3.5-3.8-2.9-4.2-2.3-4.5-1.7-9.5-1.8h-9.6s-149.5.4-149.5.4l-7.1.4-6.7,2.2-5.9,3.8-4.9,5.2-4.2,6.6-3.7,6.8-7.4,13.7-16.2,30-8.4,14.8-9,14.4-7.1,7.1-4.1,2.9-4.4,2.4-4.6,1.8-4.8,1.1-4.9.4-5-.3-7.3-1-7.1-1.7-6.9-2.4-6.7-3-6.4-3.6-6.1-4.1-11.1-9.5-5.2-6.1-4.6-6.5-3.9-6.9-3.3-7.3-2.7-7.5-2.1-7.7-2.4-15.8-.7-8.6v-8.6s1.6-17.2,1.6-17.2l5.2-34.2,8-44.7,4.8-22.2,5.5-22,6.3-21.8,7.2-21.5,8.1-21.2,9.2-20.8,3-6.9,3.7-6.7,4.8-5.7,3-2.3,3.5-1.7,9-3.1,9.2-2.3,9.3-1.6,9.4-1,19-.8h19c0-.1,44.3-1.2,44.3-1.2l44.3-.6h0l84.8.5,42.4.3,42.4,1,12.4,1,12.3,1.6,12.1,2.5,11.7,4,4.8,3.6,4,4.3,3.4,4.8,2.9,5.2,5,10.9,4.7,10.9,8.8,22.3,7.8,22.6,6.9,22.9,6.1,23.1,5.3,23.3,4.6,23.5,3.9,23.6,3.3,23.7,1.3,18.3v18.4Z"/>
      <path class="st0" d="M326,142.1l2.7-4.2,1.7-4.7.7-4.9-.4-4.9-1.5-4.7-2.8-4.2-3.7-3.5-4.4-2.5-4.8-1.4-5.1-.2h0s-4.8.7-4.8.7l-4.4,1.9-3.8,2.9-3.1,3.7-2.3,4.2-1.3,4.6-.2,4.8,1,4.8,1.7,4.1,2.6,3.6,3.3,3,3.8,2.3,4.2,1.5,4.4.6,4.4-.3,4.3-1.3,4.4-2.4,3.6-3.4ZM316.2,145.6l-4.7,1.1h-4.8s-4.6-1.2-4.6-1.2l-4.1-2.4-3.3-3.6-2.1-3.7-1.2-4.1-.3-4.3.6-4.3,1.5-4,2.3-3.5,3.2-2.8,4-1.9,4.2-1,4.3-.2h0l4.6.7,4,2,3.4,2.9,2.6,3.7,1.8,4.2.8,4.5-.3,4.5-1.5,4.3-2.6,4.1-3.6,3.1-4.3,2.1Z"/>
      <path class="st0" d="M269.8,206.1l-2.8-4.5-3.9-3.8-3.8-2.4-4.2-1.5-4.4-.8h-4.5c0,0-5.6.9-5.6.9l-5,2.5-4.3,3.6-3.4,4.5-2.3,5.2-1.1,5.5.3,5.6,1.8,5.4,2.8,4.8,3.8,3.9,4.6,2.9,5.1,1.9,5.4.7,5.4-.4,5.2-1.7,4.6-3,3.7-3.9,2.7-4.6,1.6-5.1.5-5.3-.6-5.3-1.7-5.1ZM269.1,220.8l-1.2,4-2,3.7-2.6,3.3-3.2,2.7-3.6,2-4,1.2-4.3.2-4.6-.5-4.3-1.5-3.9-2.5-3.3-3.2-2.6-3.8-1.8-4.2-.8-4.5.3-4.6.9-3.7,1.6-3.4,2.2-3.1,2.6-2.7,3.1-2.2,3.4-1.6,3.6-.9,3.8-.2h0s4.1.3,4.1.3l4,1.2,3.7,2,3.2,2.6,2.7,3.2,2,3.6,1.2,4,.2,4.2-.4,4.2Z"/>
      <path class="st0" d="M207.9,127.8l-2.2-.7h-2.4c0,0-7.5-.4-7.5-.4l-7.5.3h-7.5c0-.1-3.6-.8-3.6-.8l-3.6-1.2-1.5-2-.8-2.2-.4-4.7.2-4.9-.3-4.8.3-5.4v-5.7s-1.3-5.3-1.3-5.3l-1.4-2.3-2.1-1.9-2.3-.7h-2.4c0,0,0,0,0,0l-2.2.4-1.9,1-2.7,3.2-1.4,4.1v4.3s0,6.6,0,6.6l.3,6.7-.2,6.6-1.5,6.3-2.1,1.5-2.3.8-4.9.4-5.1-.2-5,.3-5.3-.3h-5.6s-5.1,1.4-5.1,1.4l-2.2,1.4-1.8,2.1-.8,2.1-.2,2.2,1.3,4.2,3.1,3,2,.8,2.3.2,7.9.4,8-.3,7.9.3,3.8.9,3.7,1.5,1.9,4.5.2,4.8-.3,5,.3,4.9-.3,5.2v5.5c0,0,1.4,5,1.4,5l1.5,2.1,2.2,1.7,2.4.8h2.4s2.3-.7,2.3-.7l2.1-1.2,1.7-1.7,1.2-2,.7-2.3v-2.5c0,0,.2-7.1.2-7.1l-.3-7.1v-7.1c.1,0,1.7-6.8,1.7-6.8l2-1.7,2.2-1,5-.7h5.2c0,.1,5.1,0,5.1,0l5.3.3h5.6s5.1-1.4,5.1-1.4l2.2-1.5,1.8-2.2.8-2.2v-2.3c0,0-1.6-4.2-1.6-4.2l-3.4-3ZM210,137.6l-2.3,2.8-3.4,1.5h-3.7s-14.2-.3-14.2-.3l-7.1.4-6.7,2-2.1,2.3-1.3,2.6-1,5.8.3,12.1v8.7s-1,4.2-1,4.2l-2.5,3.4-1.9.6h-1.9c0,0-3.2-1.9-3.2-1.9l-2-3.2v-3.8c-.1,0-.2-7.2-.2-7.2l.3-7.3-.3-7.2-1.8-6.9-2.3-1.9-2.6-1.3-5.7-1.1h-11.7c0-.1-9.4,0-9.4,0l-4.4-1-2-1.1-1.7-1.6-.4-1.9.2-1.8,1.9-3,3.2-1.8h3.7c0-.1,7.5-.2,7.5-.2l7.6.3,7.5-.3,3.6-.8,3.5-1.4,1.8-2.3,1.1-2.5.7-5.5-.3-5.8v-5.6s0-8.8,0-8.8l.8-4.3,2.3-3.6,2-.8,2.2-.2h0s2,.7,2,.7l1.5,1.2,1.5,3.5.4,4.2v4s-.3,12.2-.3,12.2l.4,6.1,1.8,5.8,2.2,2,2.5,1.2,5.7.9h6c0-.1,5.8,0,5.8,0l9.8-.2,4.5,1.2,1.9,1.3,1.5,2,.2,1.9-.4,1.7Z"/>
      <path class="st0" d="M280.3,128.9l-2.1-1.7-2.8-.8h-6.9s-7-.2-7-.2h-.6s0,0,0,0h0s-3.8.4-3.8.4l-3.5,1.6-2.4,2.8-.8,3.8.7,4,2.4,3.2,3.5,1.9h4.1c0,.1,8.4,0,8.4,0l8.3-.5,2.4-1.6,1.6-2.3.8-2.7v-2.8s-.7-2.7-.7-2.7l-1.5-2.4ZM279.5,137.9l-1,1.6-1.4,1.2-1.8.6-2.1-.2-9.9.4-4.9-.4-4.3-2-1.2-3.3.7-3.5,2.2-2.7,1.6-.7h1.8q0,0,0,0l4.8.2,5-.3,4.8.2,4.5,1.6,1.2,1.6.5,1.9-.6,3.9Z"/>
      <path class="st0" d="M223.1,169.2l4.3-9.9,2.7-10.5,1-10.8-.6-10.8-2.2-10.6-3.9-10.1-5.5-9.4-5.1-6.4-5.9-5.7-6.5-4.9-7.1-4.1-7.5-3.2-7.8-2.3-8-1.4-8.2-.4h0s-11.1,1-11.1,1l-10.7,2.8-10.1,4.5-9.3,6-8.2,7.4-6.9,8.6-5.4,9.7-3.6,10.6-1.3,6.2-.7,6.3.5,12.6,2.8,12.3,4.9,11.7,6.8,10.6,8.6,9.2,4.9,3.9,5.3,3.4,5.6,2.9,6,2.3,10.3,2.7,10.6,1,10.6-.7,10.4-2.2,9.9-3.7,9.2-5.2,8.3-6.6,7.1-7.9,5.9-9.1ZM203.1,188.7l-9.2,5.7-9.6,4.1-10.1,2.5-10.4.9-10.4-.7-10.1-2.3-9.6-3.9-8.9-5.4-7.9-7-6.8-8.1-5.3-9.1-3.8-9.9-2.3-10.3-.7-10.5,1-10.5,2.7-10.2,4.4-9.6,4.9-7.4,5.9-6.6,6.7-5.8,7.4-4.8,8-3.8,8.4-2.7,8.7-1.6,8.9-.4,10.7,1,10.3,2.9,9.7,4.6,8.8,6.1,7.8,7.4,6.5,8.6,4.9,9.5,3.1,10.3,1.5,10.6-.3,10.7-2,10.5-3.6,10.1-5.1,9.4-6.6,8.4-7.9,7.2Z"/>
      <path class="st0" d="M406.4,204.6l-2.7-2.9-3.3-2.1-3.8-1.3-3.9-.5-2.5-4-3.2-3.5-7.2-5.9-.3-3-.9-2.9-3.3-5-4.9-3.4-2.9-.9-3-.2h0s-3,.3-3,.3l-2.8.9-4.8,3.5-3.3,5-.9,2.8-.3,2.9-4.3,2.5-3.8,3.2-3.2,3.8-2.6,4.3h-4.3s-3.9,1.3-3.9,1.3l-3.4,2.4-2.7,3.2-1.9,3.8-.9,4.1.3,4.2,1.7,3.9,2.6,3.6,3.5,2.7,4.1,1.6,4.3.5,2.7,4.8,3.4,4.3,4.1,3.6,4.6,2.9.7,4.1,1.9,3.6,2.8,3,3.5,2.2,3.9,1.3,4,.2,3.9-.9,3.5-2.3,2.4-2.4,1.8-2.9,1.8-6.4,4.4-2.9,3.8-3.6,3.2-4.1,2.6-4.5,4.2-.6,3.7-1.8,3-2.8,2.3-3.5,1.4-4,.4-4.2-.7-4.1-1.9-3.8ZM353.6,178.7l2.9-3.7,4-2.5,4.7-.8,4.5.9,3.8,2.6,2.7,3.8,1.2,4.5-6.3-1.7-6.5-.8-6.5.4-6.2,1.9,1.5-4.5ZM377.2,186.7l-.8,3.6-2,3-2.8,2.3-3.4,1.5-3.6.6-3.6-.4-3.2-1.5-2.6-2.7-1.6-2.2-.9-2.6.5-2.4.9-.8,1.5-.5,6.5-1.1,7.8.6,3.8.9,3.5,1.7ZM331.8,217.7l1.6,9.3-3.9-.8-3.3-2-2.5-3-1.7-3.6-.7-3.9.3-3.9,1.5-3.5,2.8-2.9,3.1-1.9,3.5-.9,1.1,1.4-.3,1.9-.8,2.1-.4,2-.5,4.8.2,4.8ZM336,225.6l-.7-1.8-.7-3.9-.4-4.8.3-4.9,1-4.7,1.7-4.5h0s3.9,1.7,3.9,1.7l2.8,2.9,1.7,3.7.6,4.1-.5,4.2-1.6,3.8-2.7,3-3.8,1.9-1.5-.7ZM352.2,243.1l1-4.8,2.8-4,4-2.7,4.8-1h0s2.4.2,2.4.2l2.4.7,4.2,2.9,2.6,4.2.4,2.3-.3,2.4-6,1.9-6.3.7-6.3-.7-5.8-2.2ZM377,246.8l-.2.6h0s-1.3,3.4-1.3,3.4l-2.3,2.7-3,1.9-3.4,1-3.6.2-3.5-.8-3.1-1.8-2.4-2.8-1-1.5v-1.7c0,0,.8-1.1.8-1.1l1.8.3,5.3.8h5.4s5.4-.7,5.4-.7l5.2-1.5-.2.8ZM386.1,236.5l-3,2.8-3.2,2.1-.9-3.9-2-3.4-2.9-2.8-3.5-2-3.8-1.2h-3.9c0-.1-3.8.8-3.8.8l-3.4,2.2-2.3,2.2-1.8,2.7-2.1,5.9-3.6-2.6-3.3-3.1-2.8-3.5-2-3.8,4.3-1.8,3.3-3.1,2.3-4,1.2-4.5v-4.6s-1.1-4.4-1.1-4.4l-2.4-3.8-3.8-2.8-1.4-.7-.9-1.1v-1.3c0,0,.8-1.3.8-1.3l4.4-4.9,5.4-3.7.2.8v.3c0,0,0,0,0,0l1.2,4.2,2.5,3.4,3.5,2.4,4.1,1.4,4.3.4,4.3-.7,3.9-1.8,3.1-3,1.1-1.6.5-2,.6-1.9,1.3-1.1,5.3,4.6,4.2,5.6-3.9,1.7-3.2,2.8-2.3,3.5-1.4,4-.4,4.2.6,4.1,1.8,3.8,3,3.2,3.5,2.3,3.3,1.9-4.7,6.8ZM394.1,219.3l-1.9,7.4-3.9-1.1-3.1-2.3-2.3-3.2-1.3-3.8-.3-4,.7-3.8,1.9-3.4,3.2-2.5,1.7-1,1.9-.5h0s1.7,2.1,1.7,2.1l.8,2.7,1,5.7v7.6ZM405.4,219.1l-2,3.4-3.2,2.6-1.5.9-1.7.2-1.2-.7v-1.8c.1,0,.9-5.8.9-5.8v-5.9s-.9-5.8-.9-5.8l-1.8-5.6h.8c0,0,.4.1.4.1h0s0,0,0,0l4,1,3.2,2.3,2.2,3.3,1.3,3.8.2,4.1-.8,3.9Z"/>
    </g>
  </g>
</svg>