<?xml version="1.0" encoding="UTF-8"?>
<svg xmlns="http://www.w3.org/2000/svg" version="1.1" xmlns:cc="http://creativecommons.org/ns#" xmlns:dc="http://purl.org/dc/elements/1.1/" xmlns:inkscape="http://www.inkscape.org/namespaces/inkscape" xmlns:ns="&amp;ns_sfw;" xmlns:rdf="http://www.w3.org/1999/02/22-rdf-syntax-ns#" xmlns:sodipodi="http://sodipodi.sourceforge.net/DTD/sodipodi-0.dtd" xmlns:svg="http://www.w3.org/2000/svg" viewBox="0 0 598.2 350.3">
  <!-- Generator: Adobe Illustrator 29.1.0, SVG Export Plug-In . SVG Version: 2.1.0 Build 142)  -->
  <defs>
    <style>
      .st0 {
        fill: #f4f4f4;
      }
    </style>
  </defs>
  <g id="svg2" inkscape:version="0.91 r13725">
    <path id="path10865" class="st0" d="M260.3,318.8c-.3-.3-7.8-.6-16.8-.6-11.2,0-16.5-.3-17.2-.9-1-.8-8.8-1.1-14-.5-3.5.4-20.4-1.4-18.7-2,1.4-.5,7.5-1.5,15-2.4,1.9-.2,3.4-.7,3.4-1s.9-.8,2-1.1c1.8-.5,1.9-.6.5-1.1-.8-.3-1-.6-.4-.6,4.8-.2-10.8-3-16.4-2.9-1.3,0-2.4-.3-2.4-.6,0-.8,4.2-1.5,8.2-1.6,1.5,0,3.4-.4,4.3-.9,1.2-.7,1.6-.7,1.9,0,.2.5,1.1.9,2.1.9,2.2,0,4-2.6,4.2-6,0-1.4.2-2.4.4-2.3.6.6,5.1-1.5,7.8-3.7,1.7-1.3,3.5-2.4,4.1-2.4s1.3-.6,1.5-1.4c.2-.8,1.4-1.8,2.6-2.3,1.7-.7,2-1.3,1.7-2.4-.4-1.2-.3-1.3.7-.5.7.6,1.3.7,1.6.2.2-.4,0-.8-.4-1-.6-.2-.6-.6,0-1.7.4-.8.8-1,.8-.5,0,.7.4.7,1.7-.1.9-.6,2.9-1.4,4.4-1.9,2.5-.8,2.6-1,1.4-1.8-1.2-.9-1.2-1,.7-1.7,2.6-1,7.8-1,12.8,0,4.3.8,5.1,1.3,3.7,2.1-.7.4-.4.7,1,1.1,2.8.7,6.5,3.4,6.6,4.9,0,1.1-.1,1.1-2.2-.2-2.4-1.5-4.8-1.8-4.8-.7s.5.8,1.1,1.1c.6.2,1.1.9,1.1,1.5,0,1.2-1.1,1.5-1.8.4-.6-1-4-.9-4,0s-.7,0-1.6-.7c-1.9-1.8-2.9-1.9-2.3-.2.4,1.1.2,1.1-1.3-.2-1-.8-1.9-1.7-2.2-2-.2-.3-1.5-.5-2.9-.4-2.4.2-3.4.9-9.8,6.9-2.5,2.4-2.3,5.7.5,7.4,2.7,1.7,7.7,1.9,11.1.5,3-1.2,5.7-5.7,5.1-8.2-.2-.9,0-1.6.4-1.6,1.1,0,1,2.6-.2,5.9-.8,2.2-.8,2.6,0,2.3.5-.2,1-.7,1-1.2,0-.6.2-.6.5,0,.6,1,2.4,0,3.6-2.3.8-1.3.8-1.2.9.9,0,1.6.3,2.2.8,1.9.5-.3,1.3.2,2,1,1.6,2.2,3.8,1.4,6.1-2.2,2.4-3.8,2.5-2.7.1,1.6-1.1,2-1.6,3.5-1.2,4,.3.4.8,1.7,1.1,2.7,1.1,4.7,9.8,3.9,10.7-.9.3-1.4-.8-9.3-1.6-11.9-.8-2.6-3.8-5.7-4.9-5.1-.4.2-.9.1-1.2-.2-.2-.4.3-.8,1.2-.9,2.8-.4,2.2-1.7-1.6-3.1-2-.7-4.9-2.4-6.3-3.8s-3-2.5-3.3-2.5c-.3,0-.5-.3-.5-.7,0-.7,3.7,1.1,7.2,3.6,3.4,2.3,8.3,2.9,10,1.2s.9-1.4-.3-4.2c-1.9-4.4-8-10-10.8-10-1.2,0-3-.7-4-1.4-2.3-1.8-2.6-1.8-5.2.4-2.3,2-4.4,2.2-7.6,1-3-1.2-13.1-2.8-17.3-2.9-3.2,0-4-.4-6.8-2.9-3.1-2.7-3.2-2.9-2.7-6.1.4-3,.1-3.7-4.2-11.1-5-8.4-5.9-10.8-2.6-7,1.1,1.3,2.3,2.4,2.8,2.4.9,0,2.4,3.2,2.4,4.9,0,.7.6,2.2,1.4,3.5.7,1.2,1.6,3.3,1.9,4.5.6,2.7,7,8.8,9.2,8.8s1.9.5,2.5,1,2.6,1.2,4.5,1.5,5.7,1.1,8.4,2c4.9,1.6,7.4,1.3,7.4-.7s1.1-1.8,2.5-2.9c3.1-2.6,2.7-3.5-2.9-7.5-4.6-3.2-7.1-4-8-2.6-.5.8-.6.8-.6,0,0-.5-.3-.8-.7-.6s-1,0-1.5-.7c-.5-.6-1.3-1.1-1.9-1.1-1.8,0-7.5-6.3-7.5-8.3s.3-.4.7-.4.6.3.5.6c-.3,1.1,6,7.3,7.9,7.8,2.3.6,3.3-.3,1.5-1.3-2.7-1.5-7-5.8-7-7.1s-1.8-3.7-4.1-6.6c-4.9-6.3-5.7-7.6-3-4.6,4.3,4.8,7.7,9.5,7.9,11.2.2,1.1,1.5,2.7,3.5,4.1,1.8,1.3,3.8,2.8,4.4,3.4.6.6,3.1,2,5.4,3.3,2.3,1.2,5.2,3.1,6.4,4.1,2.5,2.2,6.8,4.1,8,3.6.5-.2,1.3-1.3,1.9-2.4.6-1.2,1.9-2.3,3.3-2.8,3.4-1.1,5.3-3.4,5.3-6.5s-.3-2.4-.7-2.2c-.7.4-2.2-5.6-2.2-8.6s-3-5.2-3.8-4.4-1.6-.4-2.9-1.4c-2.6-2-7.1-2.6-7-1,0,1.1,1.7,3.4,2.5,3.4s1.3.7,2.2,1.5l1.6,1.5,2-1.5c2.2-1.8,3.1-1.5,1.9.7-.6,1.2-.5,1.8,1,3.4,2.1,2.3,2.2,2.7.8,3.9-.9.7-1.1.5-1.5-1-.6-2.3-2.3-3.3-5.7-3.3s-2.5-.3-2.4-.8c.3-1.2-4.4-2.3-8-1.9-1.7.2-2.9,0-2.7-.3.2-.3,1.6-.7,3.1-.7h2.7c0,0-2-.9-2-.9-1.1-.4-2-1.1-2-1.4s.3-.4.8-.2c1.2.8,4.3-.3,4.3-1.5s-3.4-2.8-4.8-2.2c-.5.2-1.1-.2-1.3-.8-.4-.9,0-1.1,2.5-.8,3.4.3,3.5,0,1.5-5.3-.8-2.1-1.3-3.9-1.1-4.1s.3,0,.3.6.4.8,1,.5c.9-.4,3.1,2.7,2.8,4-.2.9,7.4,5.6,9.9,6.1,4.2.8,2.5-1.9-4-6.2-3.3-2.2-6.9-5-8.1-6.3-1.2-1.3-3.1-2.6-4.2-2.8-3-.8-12,1.7-13.5,3.7-.3.5-.5.4-.5-.1,0-.5.7-1.4,1.6-2l1.6-1.1h-1.8c-1,0-3.1.5-4.7,1.1-2.9,1-4.5.8-2.6-.4,1.8-1.1.5-1.4-2.9-.6-3.9.9-9.9,3.7-12,5.5-3.6,3.1-10.5,15.6-10.5,19,0,1,.7,3,1.5,4.3.8,1.4,1.3,1.9,1.1,1.2-.2-.7-.6-2.2-.8-3.3l-.4-1.9,1,1.8c.6,1,1.4,3.7,1.9,6,.5,2.3,1.1,4.2,1.5,4.2.6,0,2.4,4.4,1.9,4.8-.1.1-.8,0-1.4-.2-.7-.3-1.5-2.2-2.1-5.2-.5-2.6-1.1-4.4-1.2-4-.1.4.3,3.3.9,6.3,1.4,6.7,1.3,6.3,1.1,7.6,0,.6-.6-1.1-1.2-3.7-.6-2.6-1.6-6.6-2.3-8.8l-1.3-4v9.1c0,8.4.1,9.4,1.8,12.2,1.9,3.3,2.9,4,4.2,3.2.6-.4.5-.9-.5-1.9-1.6-1.7-2.5-4.7-1.3-4.2.5.2,2.1,1.7,3.6,3.4l2.7,3.1,5.8-.2c3.9-.1,6.5.2,7.8.8,1.1.6,2.5.8,3.1.6.7-.2,1.4,0,1.7.4s1.3.8,2.2.8,1.8.3,1.8.7.5.7,1.1.7,1.1-.3,1.1-.6,1.3-1.3,2.9-2.1c3.8-2,3.7-.8-.1,2-2.8,2.1-3.3,2.2-7.7,1.7l-4.7-.5.4,2.1c.4,2-.8,6.8-2,8.1s-.1-2,.9-5.2c.6-1.9.2-4.2-.8-4.9-.5-.3-2.1-.5-3.7-.6s-5.2-.7-8-1.4c-2.8-.8-6.5-1.4-8.2-1.4-3,0-3.2-.2-4.5-3.1-1.2-2.6-1.4-4.8-1.4-13.3,0-9.7-.1-10.4-1.9-13.8-1.1-2-2.4-4.4-2.9-5.5-1.1-2.1-3.1-3.9-8.4-7.6-2.4-1.7-4-3.6-5.7-6.9-2.1-4.1-2.4-5.3-2.6-11.8-.1-4-.6-8.5-1.1-9.9-.7-2.4-.6-3,1.1-5.4,2.6-3.7,3-7.5,1.6-13.8-1.4-6.3-1.4-16.2-.1-19.7.8-2.3,3.7-7,5.5-9.2,1.9-2.3,3.9-8.3,4.4-13.6.7-7.7,1.3-9.7,3.5-12.8,2-2.8,8.6-7.4,15.3-10.5,3.4-1.6,4.2-2.4,5.3-5.1.7-1.7,1.7-3.6,2.1-4.1,2.8-2.9,3.5-5,3.1-9.5-.3-3-.2-3.8.2-2.6.4,1.2.6-1,.7-6.9,0-8.5.1-8.8,2-10.4,2.5-2.2,2.8-1.7,1,1.8-1.2,2.3-1.4,4.2-1.4,9.7v6.9c0,0,1.1-3.6,1.1-3.6.6-2,1.7-5.8,2.5-8.5,2.3-7.9,7.6-11.8,15-11.2q4,.3,2.3-1c-1.9-1.5-8.9-1.9-9.7-.5-.3.5-.7.5-.9.1-.2-.4-1.6-.9-3.1-1.2-2.4-.4-2.8-.3-5.6,2.9-1.6,1.8-3,3.1-3,2.8,0-1.4,6.2-6.8,7.7-6.8s2.1-.8,2.9-2c.7-1.1,1.6-2.2,1.9-2.5.7-.5,2.7,0,3.3.8.2.2,1.3,1.1,2.5,1.8l2.2,1.4-1.2-1.8c-1.1-1.7-1.1-1.9.2-2.7,1.7-1.1,2.3-1.1,1.7,0-.5.9,1,3,1.8,2.5.3-.2,1.2,1.3,2.1,3.2,2,4.6,3.3,5.5,2.6,1.8-.3-1.5-1-3.6-1.5-4.6-.9-1.6-1-1.7-1-.4,0,1-.2,1.1-.5.4-.2-.6-.9-1.7-1.5-2.4-1-1.1-1-1.3,0-1.3s1.2.4,1.2.9c0,.7.2.6.6,0,.5-.7.8-.8,1.1-.2.3.5,1.1.6,1.8.4,1.5-.5,5.8,2.8,5.8,4.4s.3.9,1.4.3c2.3-1.3,2.9-.9,4.9,3.2,1.9,3.9,2,4,5,4s5.9-1.1,11.8-6.3c2.6-2.4,5.9-5.3,7.3-6.5l2.5-2.2-1.2-4.8c-1.5-5.9-1.5-5.4.2-6.3,1.1-.6,1.8-.4,3.5,1.1,1.2,1,2.5,1.8,2.9,1.8s2.1-1.8,3.7-3.9c3.1-4.1,5.8-6.5,10.4-9,2-1.1,3.9-1.5,7.6-1.4,2.7,0,5.3.4,5.8.8,1.5,1.2,5.5-2.7,8.9-8.7,1-1.8,2.1-3.3,2.5-3.3,1-.1,2.5,4.6,2.5,7.9,0,2.3-.6,4-2.7,7.2-2,3.2-2.6,4.7-2.3,6.1.4,1.6.1,1.9-2.5,2.7-3.9,1.2-5.3,1.1-9.8-.3-3.7-1.2-3.8-1.2-5,.3-1.6,2-3.7.9-3.6-1.8,0-1.4.2-1.7.7-.9.4.6,1.7,1,3.2.9,1.4,0,3.9.4,5.6,1,2.4.8,3.6.9,6.2.3,4.2-1.1,4.6-1.8.8-1.8s-7-1.9-7-5-.3-2.5-1-2.5c-1.3,0-2,1.8-1.4,3.4.4,1.1.3,1.1-.7.3-.9-.8-1.2-.7-1.6.3-.4,1.1-.6,1.1-1.2.2-.9-1.5-.9-1.7.8-3.5,1.6-1.7,1.3-3-.5-3s-7.8,3.1-10.5,5.9c-3.5,3.5-4.7,6.1-4.7,9.3,0,2.1.4,2.6,2.1,3,2.2.6,5.5-.3,5.5-1.5s-.3-1.6-.7-2.7c-1-2.7-.3-3.1,1-.5,1.1,2.1.9,5.2-.5,6.1-1,.7-6.3-.1-8.6-1.3-2.9-1.4-3.2-1.2-1.3.8.9,1,2.2,1.8,2.9,1.8s1.8.7,2.5,1.4c.7.8,1.1,1.4.9,1.4-.8,0-5.9-3-7.4-4.4-1.4-1.3-3.2-1.8-3.2-1s.4,1.1.9,2,.8,2.5.7,3.7c-.1,1.6,0,2,1,1.6.7-.3,1.3.1,1.7,1.1.4,1,.8,1.3,1.1.7.6-.9,3.5-1.2,4.3-.4.3.3.2.8-.2,1.3-.4.5-.4,1.2,0,1.8.5.9.8.9,1.9,0,1.1-.9,1.2-.9.8.3-.3.7-.5,1.5-.5,1.6s-1.1.3-2.4.3-3.2-.8-5.5-2.8c-2.7-2.4-3.3-3.4-4-7.1-1-4.9-.8-6.1,1.2-6.1s1.7-1.1-.9-3.6c-3.9-3.7-4.4-1.9-2.1,8.3,1.3,5.7,1.7,6.7,4.5,9.6,1.8,1.9,3.8,3.2,4.7,3.2s1.8.3,2,.6c.6.9,4.8,0,4.8-1s.5-1.4,1.2-1.9c1-.8,1.3-.8,1.5,0,.2.5.8,1.4,1.4,2,1.5,1.5.5,2.3-1.3,1.2-1.2-.8-1.4-.7-1.4.5s-.3,1.6-.6,1.8c-.7.4-.4,3.1.7,7,.5,1.8,1.4,2.9,2.9,3.5,1.2.5,2.4.7,2.6.3.3-.4,2-1,3.8-1.5,2.7-.7,3.9-.7,6.3.2,5.7,2,8.3,2.1,10.5.4,1.1-.9,2.3-2.8,2.7-4.4.9-3.5,1.6-3.7,1.4-.5-.3,3.9,0,4.9,1.3,4.9,2.6,0,4-2,4-5.5s-.3-3.7-2.4-5.4c-2.8-2.3-5.3-2.6-6.4-.8-.5.9-.7,1-.8.2,0-.6-.2-.8-.5-.5-.3.3-.8.2-1.3-.2-.6-.5-1.5,0-2.9,1.1-1.7,1.5-5.9,3.2-7.8,3.2-1.3,0-.4-1.9,1-2,2-.2,6-2.1,7.1-3.4.5-.6,1.3-1.1,1.8-1.1s1.3-.5,1.8-1.1c.8-1,1-1,2.1,0,1.6,1.5,5.5,1.4,7.3-.1,1.6-1.4,1.9-3.8.6-5.1-1.4-1.4-5-1-6.8.6-.9.8-2.9,1.6-4.4,1.8-7,.8-8.8,1.2-10.1,2.4-.8.7-2,1.5-2.7,1.8-.7.3-1.8,1.6-2.3,2.9-.9,2.1-1,2.2-1.1.6,0-1.4-.2-1.6-1.1-.8-1.7,1.4-1.4-.9.4-2.9.8-.9,1.7-2.7,2.1-4.1s1.3-3.4,2.2-4.5c.8-1.2,1.5-2.3,1.5-2.6,0-.9-4.2-.4-4.5.5-.2.5-.6.7-.9.4-.3-.3.1-1.6,1.1-2.8,1.6-2.2,1.6-3.9,0-2.2-1,1-3.5,1.1-3.5.1s.8-.7,1.8-.7,2-.4,2.3-.8c.3-.5,1.6-.6,3.8-.3,4.7.7,8.1.8,10.5,0,1.6-.5,2-.4,1.5.3-.4.6-.3.8.3.4.5-.3.8-1.5.6-2.6-.4-2.5-.2-2.6.9-.6.7,1.3.5,1.9-.7,3.6-1.5,2-1.5,2.1-.3,4.6,1.5,3.1,2.1,3.2,3.2.6.5-1.1.9-2.1,1.1-2.3.4-.6,2.4,1.6,2.4,2.8s.8,1.7,1.8,2.2c1,.5,2,1.6,2.2,2.3.6,1.8-.3,5.4-1.5,6.4-.6.5-1,1.1-1,1.4s1.8,2.4,4,4.7c4.5,4.6,7.6,10.4,9.6,18.4,1.2,4.9,1.6,5.4,4.5,7.3,6.4,4.1,11.4,10.1,14,16.7.7,1.8,2.1,4.2,3.1,5.4,2.6,3,4.5,7.5,4.5,10.4,0,1.3.6,3.3,1.4,4.4,2.2,3.1,4.2,10.1,4.7,16.5.4,5.4.3,6.2-1.4,9.8-1.1,2.3-3.1,4.8-4.8,6.1-2.2,1.7-3.1,3-4,5.9-1.1,3.9-2.7,6.4-6.3,9.9-2,2-2.3,2.1-6.8,1.6-2.6-.2-5.1-.8-5.7-1.2-.7-.6-1.7-.2-4.1,1.6-1.7,1.3-3.2,2.5-3.4,2.6s.4,1.1,1.1,2.2,2,3.3,2.7,4.9c1.2,2.5,1.4,2.7,2,1.6.6-1,.4-1.8-.8-3.4-2.2-2.9-1.9-3.4.4-.7,1,1.2,1.7,2.7,1.5,3.3-.2.6-.1,1.9.2,2.8.5,1.3.4,2-.4,2.6-.6.5-1.2.8-1.3.6-.1-.2-1.8-3.2-3.6-6.8-1.9-3.6-3.2-5.9-2.9-5.1.3.8,1.2,3.7,2,6.5.8,2.8,1.9,5.5,2.4,6,1.2,1.3,1.1,3.8-.2,5.5-2.2,2.9-2.3,10.9-.2,13.8,2,2.7,7-1.7,7-6.1s-.3-1.3-.8-1.1c-.5.3-.6-.4-.3-2.1.4-2,.1-3.2-1.1-5.2-2-3.4-1.6-3.8.6-.7,2.3,3.4,2.9,9.9,1.3,13-.7,1.3-2.2,2.9-3.4,3.6-1.5.9-2,1.6-1.7,2.5.3.7.8,2.9,1.2,4.9.6,3.1.4,4.4-.8,8.1l-1.5,4.3,1.5,4.4c1.7,5.1,1.9,11.2.4,13.9-1.5,2.6-1.3,2.9.9,2.9s2.4.6,2.9,1.4c.7,1.1,1.7,1.4,3.8,1.4s3.6.4,4.5.8l1.6.8-1.8.7c-1.2.4-1.9.4-2-.1-.1-.4-.9-.8-1.7-.8-1.5,0-4.3-1.3-5-2.3-.2-.3-2-.7-3.9-.7-2.3,0-4-.6-4.9-1.5-1.4-1.4-1.8-2.4-.6-1.7.4.2.7.1.7-.3s-.3-.8-.7-.9-1.1-.2-1.4-.3-1.3-.2-2-.3c-1.2-.1-1.2-.2,0-.8.8-.5,1.9-.4,3.2,0,1.4.5,2.2.5,3-.1.9-.7,1-.6.6,1.1-.3,1.2-.2,1.9.3,1.9,2.5,0,3.1-11.2.8-15.1-1.2-2-1.7-2.3-2.5-1.5-1.5,1.2-1.4.9,1.6-5.1,1.9-3.8,2.6-6.3,2.6-8.6,0-3.4-2.2-9-3.2-8.4-.3.2-1.1-.8-1.7-2.2-1.2-2.8-1.3-2.9-3.3-1.8-1.1.6-1.4.4-1.8-.7-.7-2.1-1.9-1.8-5.7,1.3-3.4,2.7-4.3,4.5-2.3,4.5s1.3,2-.3,2.9c-.8.4-2.2.7-3.1.7-1.2,0-.9-.3,1.2-1.1l2.9-1-3.1.2c-2.3.1-3,0-2.7-.8.2-.6-.3-.9-1.4-.9s-3.3-.4-5.2-.9c-2.7-.7-3.5-.7-3.7,0-.6,1.8-1.4.8-2.7-3.4-.9-3-1.2-5.3-.8-7.8.4-2.7.3-3.3-.4-2.6-1,1-1.8,12.1-1.1,14.9.5,2.1,2.6,3.1,3.5,1.8.4-.6.5-.1.2,1.2-.3,1.2-.5,3.1-.6,4.2,0,1.3-.4,1.9-1,1.7-.5-.2-.9,0-.9.4s1.3.6,3.8.3c2.1-.2,5.4-.5,7.4-.7,2-.1,4.7-.8,6-1.5s2.4-.9,2.4-.5c0,1.2,4.5,0,7.1-1.9,1.3-1,2.4-2.2,2.4-2.8s.3-1,.7-1c1.5,0,.7,1.7-2,4.1-1.5,1.3-3,2.5-3.5,2.5-1,0-5.4,5.7-5.4,6.9s2.1,2.7,4.3,2.3c1.5-.2,2,0,1.7.6-.2.6-1.6,1-3.9,1h-3.5l-.2,4.5-.2,4.5-4,2c-2.6,1.3-4.2,1.8-4.7,1.3-1-1-1.9-.9-1.9.3,0,2.4-1.8,4.7-4.5,5.8-1.6.6-2.6,1.5-2.4,1.9.3.4-.1,1.3-.9,2-2,1.8-3.6,4.6-4.2,7.2-.4,1.9-.2,2.4.9,3.1,1.8,1,9.3,1,9.9,0,.2-.4,1-.7,1.8-.7s2.4-1.2,3.8-2.8c3.1-3.4,7-6.3,7.7-5.6s-.2.9-.9,1.3c-.8.4-2.6,1.9-3.9,3.3-4,4-8.5,6.7-11.4,7-3.8.4-6.7,1.6-7.2,3.1-.2.7-.7,1.9-1.1,2.7-1.4,2.9-2.7,9.4-2.1,10.4.3.6.4,1.7.3,2.5s0,1.1.2.5c.3-.7,1.1.3,2.2,2.7,1.8,3.8,2.5,4.2,7.1,3.7.8,0,1.6.3,2,.8.5.8.8.8,1.3-.1.5-.7.7-.8.7-.2,0,.5.9.9,2.2.9s2.2-.4,2.2-.9c0-.5.3-.4.7.3.5.9,1.3,1.1,3.1.8,4.1-.7,4.7-1.1,3.1-1.8-1.2-.6-1.1-.6.5-.4,1.1.1,1.8,0,1.6-.4-.2-.4.2-.8,1.1-1.1,1.3-.3,1.4-.6.7-2.1-.4-.9-.6-2.2-.3-2.9.4-1,.7-1.1,1.6-.3.6.5,1.3.7,1.5.5.2-.2,1,.2,1.8,1.1,1.2,1.4,1.4,1.4,2.5.3,1.1-1.1,1.3-1.1,2.6.3.7.8,1.4,2,1.4,2.6s.4,1.1.8,1.1,1.8,1,2.9,2.3c1.2,1.3,2.7,2.3,3.4,2.4.7,0,1.6.3,2.1.6.5.3,1.1.1,1.3-.4.4-1.1,3-1.5,3.6-.5.7,1.2,4.7.8,4.7-.5s.3-1,.6-.7,1.5-.3,2.5-1.1c1.5-1.2,2-1.3,2.4-.5.3.5,1.3,1.2,2.2,1.4,1.4.3,1.6.1,1.6-1.3s1.1-2.3,1.8-.5c.4.9.6,1,1,.3.8-1.2,2.3-.8,3.8,1,.7.8,2.8,2,4.6,2.5,3.6,1,3.1,1.1,11.3-3.3.7-.4,2.1-2.2,3-4.1,1.5-3,1.8-3.2,3-2.4.7.5,1.1,1.2.7,1.5-.3.3-.7.1-.9-.4s-.6-.7-1-.5c-.9.5,1.1,2.5,2.5,2.5s1.4.4,1.8.9c.8,1,.8,5.9,0,6.7-.3.3-3.5.5-7.1.4-3.6,0-6.4.2-6.1.4.5.5.9.6,3,.8.7,0,1,.3.8.5-.2.2-5.2.4-11,.3-6.8,0-10.6.2-10.6.7s.7.7,1.4.7c1.8,0,1.9,1.2,0,2.1-1.5.8-7.9,1-9.8.3-.6-.2-1.1-.9-1.1-1.4,0-1.2-3.6-1.9-8.1-1.5-1.9.2-4.7,0-6.3-.2-1.6-.3-3.2-.2-3.6.1-.4.4-5.8.9-12.2,1.3-11.7.6-18.1,2-20.8,4.3-1.1.9-3.4,1.1-13.4,1.1-6.6,0-13.6-.3-15.5-.6-2.5-.4-4.5-.3-7.2.5-6.9,2-29.8,3.6-31.3,2.2h0ZM244.3,311c1.1-.6,2.4-.9,3-.6.6.2,1,0,1-.7,0-1.5-2.8-2.6-5.6-2.2-1.8.3-2.7,0-3.6-1.1-1.2-1.4-1.3-1.4-2.9.6l-1.7,2.1h1.9c1,0,1.9-.3,1.9-.8s.4-.4,1,.2c.9.8.8,1-.2,1.4-1,.4-1,.5-.1.6,1,0,1,.1,0,.8-1.8,1.2,3.1.9,5.4-.3ZM248.7,304.3c.2-.9.5-2.4.7-3.4.2-1,0-1.8-.3-1.8s-1.1-.4-1.7-1c-1.5-1.5-8.4-2-8.9-.7-.7,1.9-.4,5.7.7,7.2.9,1.3,1.8,1.5,5.1,1.4,3.6,0,4.1-.3,4.4-1.7ZM255.1,305.4c1.2-.6,2.4-.6,3.8,0,2.6.9,6.7.3,7.3-1,.6-1.5-2.6-8-4.2-8.4-.7-.2-2.7,0-4.4.2-4.1.7-6.4,3.4-6.4,7.3s.7,3.5,3.9,2h0ZM292.7,301.3c-.5-.1-1.5,0-2.2.2-1.1.4-1,.6.6,1.8,1.8,1.4,1.8,1.4,2.2-.2.3-1,0-1.7-.6-1.8h0ZM417.7,303.6c2.4-.6,1.7-2.6-1.1-3.2-1.9-.4-2.5-.2-3.1.9-1.3,2.5.3,3.4,4.3,2.3ZM230.6,302.8c1.7-1.3,2.8-4.5,2-6.1-.4-.9-.5-2.3-.2-3.1.3-.8.6-1,.6-.5s.4.7.8.5c.4-.3.6.5.3,1.9-.4,2.2-.3,2.3.6,1.1,1.1-1.4.9-8.3-.3-9.6-.4-.4-.6-.4-.6.2s-1.5,1.2-3.3,1.7-3.5,1.3-3.7,1.8c-.2.5-.8,1-1.4,1-1,0-3,5.5-2.3,6.3s2.7-1.1,2.5-2.2c0-.5.6-.9,1.5-1.1.9-.1,1.6,0,1.6.5s-.4.6-.9.4c-1.4-.5-2.9,2.4-2.3,4.8.5,2.3,3.3,3.6,5.1,2.3h0ZM228,300.8c0-.4.3-1.2.7-1.8.4-.6.7-.8.7-.4s-.3,1.2-.7,1.8-.7.8-.7.4ZM216.9,300.3c-.2-.5-.4,0-.4.9s.2,1.4.4.9c.2-.5.2-1.3,0-1.8ZM223.5,301.7c1.5-1.8-.2-2.4-2-.7-1.7,1.6-1.7,1.6-.3,1.6s1.8-.4,2.2-.9ZM307,300.8c0-.2-.9-.3-2-.3-1.4,0-1.7.2-1,.7.9.6,3,.3,3-.4h0ZM311,301.2c-.2-.4-1.1-.7-1.9-.7s-1.4.3-1.4.7.8.7,1.9.7,1.7-.3,1.4-.7h0ZM221.3,298.9c-.2-.7-.1-1.3.1-1.3s.6-.7.6-1.4c0-.8-.3-1.4-.9-1.4-1.8,0-3.3.9-3.3,1.9s.4.8.9.5c.7-.4.7-.3,0,.4-1.3,1.4-.4,3.6,1.3,3.1,1-.3,1.3-.8,1.1-1.7h0ZM291.8,296.1c1.6,0,3.7.5,4.6,1.1,1.3.8,2.6,1,5.4.6,2-.3,3.7-.8,3.7-1.1s1.3-.6,2.9-.6,3.1-.3,3.3-.7c.2-.4,1-.7,1.7-.7,1.1,0,1.2-.6,1-5-.3-4.5,0-5.6,2-9.9,1.2-2.6,2.3-5.2,2.3-5.7s-1.1-1.8-2.4-2.8c-2.4-1.8-2.4-1.9-2.1-6.8.3-4.8.2-5-2.1-7.6-1.3-1.5-3-2.7-3.6-2.7-.7,0-1.8-.9-2.6-1.9l-1.4-1.9-1,2.1c-1.3,2.7-2.4,3-3.4.8-.4-1-1.8-2.3-3-2.9-2.1-1.1-2.6-2.3-2.3-5.8,0-.8,0-1.2-.4-.9-.5.5-.8,2.2-.9,5,0,.7-.3,1.2-.6,1.2-3.4-.5-5,.2-6.9,3.3-1.7,2.6-1.9,3.7-1.5,5.8.3,1.4.8,2.8,1.1,3s.6,2.3.6,4.6c0,3.3-.4,4.8-2,7.4-1.1,1.8-2.9,3.7-4,4.3-2.2,1.2-2.3,1.1.6,9.4,1,3,2,7,2.3,8.9l.4,3.4,2.8-1.8c1.8-1.1,3.9-1.8,5.8-1.8h0ZM258.6,280.2c.5-.8,1.5-1.4,2.2-1.4s1.1-.3.9-.7-.7-.6-1.1-.3c-.4.2-1.3-.3-2.1-1.1-2.1-2.1-8-2.6-8.5-.6-.2.7-.8,1.4-1.4,1.4s-1,.3-1,.7.8.7,1.7.7,3,.6,4.5,1.4c3.6,1.8,3.7,1.8,4.8,0h0ZM229.1,265c-.2-.4-.8-.7-1.2-.7s-.5.3-.3.7c.2.4.8.7,1.2.7s.5-.3.3-.7ZM213.5,260.3c-.4-1.1-.9-1.8-1.1-1.6s0,1.2.5,2.3c1.1,2.5,1.6,2,.6-.6h0ZM234.8,256.2c-1.2-.4-3.8-2.3-5.6-4.2-1.9-2-3.4-3.2-3.4-2.7,0,.5,1.5,2.4,3.4,4.3,2.6,2.6,4,3.4,5.6,3.4h2.2s-2.2-.7-2.2-.7h0ZM313.4,250.7c.9-1.9.9-1.9,1.9-.6.9,1.2,1.2,1.3,2,.4,1.7-1.8,3.4-7.1,3.4-10.5,0-5.1,2.1-3.8,2.2,1.3,0,1.3.3,2.9.6,3.7.5,1.2.6,1.2,1.8-.5,1-1.5,1.8-1.9,4.1-1.9s3.6-.4,4.5-.8c.9-.5,2.1-1.1,2.7-1.4.7-.4,1-1.4.9-3.3,0-1.5-.3-2.8-.4-3s-2.3.4-4.9,1.2c-6.1,1.9-8.1,1.8-10.1-.3-1.4-1.5-1.7-2.5-1.7-7.1s.7-11.4,1.7-11.4.7-.7.7-1.5-.3-1.4-1.3-1c-.7.3-2.4.7-3.8.9-4,.6-5,1.4-5.8,4.7-.4,1.7-1,3.6-1.2,4.2-.6,1.7-1.4,8.9-1.6,14.8,0,2.8-.3,3.4-1,2.7-1.7-1.7-3.3-20.3-2.1-24.6.4-1.3.5-2.5.3-2.7-.6-.6-2.4,1.6-3.3,4.1-1.5,4.2-6.4,7.7-7.4,5.2-.5-1.4-1.9-1.3-1.9.2s-3.7,4.6-5.9,4.6c-2.1,0-2.9-1.2-2.3-3.7.3-1.3.2-1.5-.7-1.2-.6.2-1.3,0-1.5-.4-.7-1.8-1.9,1.3-1.9,5.1,0,2.1-.4,4-.8,4.3-.8.5-.6,2.9.8,8.4.8,3,.7,3.6-.4,5.3-1.4,2.2-1.2,2.8.9,2.2,1.2-.4,1.6-1.3,2-4.8.6-5.7,1.7-6.2,1.7-.9s.8,6,3.4,6,1.8-.5,2-1.6c.3-1.4,2.6-17.4,2.6-18.3s.5-.3,1.1-.3c1.2,0,1.2.3.4,5.4-.3,1.9-.3,4.7,0,6.2.3,1.4.7,4,.8,5.7.1,1.8.5,3.1,1.1,3.1s1,.3,1.1.6c.1.3,1,.9,1.9,1.2,1.3.4,1.8.2,2.1-1,.2-.8.6-1.5.9-1.5.8,0,4.4,3.5,4.4,4.3s1.1.8,2.4.8c1.9,0,2.6-.4,3.3-2h0ZM212,229.4c.9-3.1.7-4-.6-3.2-.4.3-.8,1.4-.8,2.6s-.3,2.1-.8,2.1-.6.3-.3.7c.9,1.4,1.6.7,2.5-2.2ZM322.9,225.8c-.8-2.8-1.4-3.5-1.4-1.5s.7,3.8,1.5,3.8.3-1,0-2.3h0ZM208.6,224.7c-.5-.9-.8-1-1.2-.3-.3.5-.1,1.2.4,1.5,1.3.8,1.7.3.8-1.2ZM206.3,223c-1.3-.8-1.8-.4-1.2,1.2.4,1,.7,1,1.4.4.7-.7.6-1-.2-1.5h0ZM215.7,221.1c0-.4-.6,0-1.4,1-.8.9-1.2,2-1,2.5.5.7,2.4-2,2.4-3.4ZM211.1,221.5c0-1.9-.1-2-.9-.9-.6.9-.7,1.5-.2,2.1,1,1.2,1.1,1.2,1.1-1.2ZM298.2,217.9c.9-2.8,1.9-4.9,2.2-4.7.4.2.7,0,.7-.3,0-.9-.2-.9-1.8-.3-.7.3-1.5,1.2-1.9,2.2-.4.9-1.1,1.7-1.6,1.7-.6,0-.6-.2.2-.7.9-.6.9-.7-.2-.7-1.3,0-3.3,3.2-2.5,4s1.1,0,1.9-.4c1.2-.6,1.5-.6,1.5.2s-.4,1.3-.8,1.8c-.7.7-.4,2.4.4,2.4s.9-2.3,1.8-5.1h0ZM201.5,221.1c.4-1.1,0-3.3-.8-3.3s-.8.5-1.4,1.1c-.9.9-.9,1.3-.2,2.2,1.1,1.4,1.9,1.4,2.4,0h0ZM207.4,219.5c-1.3-1.2-1.3-1.2-.9,0,.3.7.5,1.7.5,2.1s.3.5.9,0c.7-.7.6-1.2-.5-2.1h0ZM221.6,213.5c.4,0,.7-.7.7-1.4,0-2.2-1.4-1.7-2.3.9-.7,1.9-.9,2.1-1.3,1-.4-1.1-.8-1-3.3,1.2-2.1,1.9-2.9,3.1-3,4.9v2.4c-.1,0,4.2-4.5,4.2-4.5,2.4-2.5,4.6-4.5,5-4.5h0ZM215,217.2c1.7-1.5,2.2-1.7,2.2-1.1s-2.3,2.6-3.1,2.6,0-.7.9-1.4h0ZM264.3,220.3c-.6-1.1-.8-1.1-.8-.2,0,1.2.7,2.3,1.3,1.8.2-.2,0-.9-.5-1.6h0ZM323.1,220.8c.2-.8,0-1.3-.3-1-.4.2-.7.9-.7,1.4,0,1.5.5,1.3.9-.4ZM344.6,218.8c0-.9-.3-1.5-.7-1.2-.4.2-.7,1.5-.7,2.8,0,1.8.2,2.1.7,1.2.4-.6.7-1.8.7-2.8ZM205.5,218.2c0-.4,1.4-2.3,3-4.2,2.7-3.1,2.8-3.4,1.3-3.4s-1.5-.1-.5-.9c.9-.7,1-1.3.5-2.6-.5-1.4-.9-1.5-1.7-.9-1.8,1.5-3.5,5.9-3,8.1.3,1.5.1,2.1-.7,2.1s-1.1.8-1.1,2.7,0,2.6,1.1,1.3c.6-.8,1.1-1.8,1.1-2.2h0ZM341.4,219.3c-.3-.9-.1-1.4.4-1.4s.7-.5.4-1.1c-.7-1.8.2-3.1,1.9-2.8,1.1.2,1.3.2.6-.3-.8-.6-.8-.8.2-1.1,1.2-.4,1.5.5,1.2,3.4-.1,1.4-.1,1.4,1.9,0,1.1-.7,3-1.8,4.1-2.4,1.1-.6,2.4-1.7,2.8-2.5,1.1-2.1.2-7-1.7-8.5-1.4-1.1-1.5-1.5-.7-4.4.7-2.8.7-3.3-.4-4.1-1.7-1.2-2.2-1.1-3.1.5-.6,1.1-.6,1.4.3,1.4s1.2-.4,1.3-.9c.2-.7.4-.7.8,0,.3.5,0,1.1-.8,1.4-.7.3-1.3.9-1.4,1.4-.3,3.3-.1,3.2-4.6,2.7-5.2-.6-16.4,1-15.3,2.1.4.4.7,1.4.7,2.2s.2,1.3.9.6c1.1-1.1,2.9-1.1,5.3,0,2.3,1.1,2.4,2.1,0,2.1s-2.2.7-2.9,1.8c-.6,1-1.6,2.7-2.3,3.8l-1.2,2-1-2.5-1-2.5.4,3.3c.9,6.7,1.1,6.8,10.3,7.1,2.8.1,3.1,0,2.7-1.3h0ZM338.9,217.2c0-.4.3-.7.8-.7s.6.3.3.7c-.2.4-.6.7-.8.7s-.3-.3-.3-.7ZM199.4,216.2c.8.3,1,.1.6-.9-.3-.9-.2-1.1.4-.8.5.3.8,1,.7,1.7s.1,1.3.6,1.4c.4.1,1.5-1.9,2.3-4.6.8-2.7,1.8-5.4,2-6.1.4-1,.2-1.1-1-.8-.9.2-1.5,0-1.5-.5s-.2-.7-1.1,0c-1.3,1.1-.7,2.5.8,1.9.7-.3,1,.1,1,1,0,1.7-.9,1.8-2.2.3-.8-.9-1.1-.9-2.1.5-1.7,2.3-3.7,7.8-3.2,8.7.3.4.7,0,1-.8.4-1,1-1.4,1.7-1.1h0ZM200.5,212.8c0-.4.3-.7.7-.7s.7.3.7.7-.3.7-.7.7-.7-.3-.7-.7ZM211.4,217.2c0-.3-.5-1-1.1-1.5-1.4-1.1-2.9,0-2.3,1.7.4,1.1,3.4.9,3.4-.3ZM196.1,215.5c0-.5,1-3,2.2-5.6,2.3-4.9,5.9-8.7,9.9-10.5,4.5-2.1,7.1-3.1,8.7-3.6,1.2-.4,1.6-1,1.6-2.7s0-2.2-3.1-1.7c-3.1.5-15,5.9-15,6.8s.7.9,1.4,1.4c1.7,1.1,1.9,2.3.3,2.3s-1.3-.7-1.5-1.4c-.5-2-1.2-1.8-3.5.9-2.4,2.8-4.6,7.6-4.6,9.6,0,1.3.1,1.3.7-.2.6-1.5.8-1.6,1.8-.6,1.4,1.4,1.4,1.9,0,1.9s-1.4,1.3-.6,3.2c.5,1.4,1.7,1.5,1.7.2h0ZM195.2,208c-.7-.7-.6-1.7.2-1.7s.8.5,1.1,1.1c.4,1.1-.3,1.5-1.2.6h0ZM197.8,204.8c-.6-.9-.6-1.4-.1-1.4s.6-.3.3-.7c-.2-.4,0-.7.3-.7,1.1,0,1.7,1.9,1,3.2-.5,1-.7.9-1.5-.3h0ZM204.6,198.8c-.2-.6.2-1.2.9-1.4,1-.3,1.2,0,1,1-.4,1.6-1.3,1.8-1.9.3ZM208.8,196.9c-.2-.4-.1-.7.3-.7s.8.3.8.7-.1.7-.3.7-.5-.3-.8-.7ZM210.6,195.4c0-.4.5-.7,1.1-.7s1.1.3,1.1.7-.5.7-1.1.7-1.1-.3-1.1-.7ZM214.3,194.4c-.5-.7-.6-1.2-.1-1.5.4-.2,1.1.2,1.5,1,.9,1.7-.1,2-1.4.4ZM214,214.8c1.8-2,3.6-3.4,6.4-5,1.2-.7,2-1.4,1.9-1.6,0-.2-.2-1.1-.2-1.9s-.3-1.3-.7-1-.7,1-.7,1.8c0,1.5-2.4,2.8-2.8,1.5-.4-1.3-1.6-.8-1.6.7s-.3,1.4-.7,1.4-.7-.3-.7-.8-.4-.5-.8-.3c-.4.3-.6,1.3-.3,2.2.3,1.3.1,1.7-.7,1.7s-1-.4-.7-1.3c.4-1.2.4-1.2-.7,0-.8.8-1,1.7-.7,2.7.6,1.9,1.2,1.9,3.1-.1h0ZM325,212.3c0-4.1,0-4.1-.7-1.3-.8,4-.8,5.4,0,5.4s.7-1.8.6-4.2h0ZM357.6,213.1c.8-1.4,1.8-4,2.2-5.6.8-3.6.1-12.5-.8-10.2-.4,1-.5.3-.5-2.1,0-2.1-.2-3.7-.8-4-.5-.3-1-1.3-1-2.1-.1-1.7-1.2-2-2.6-.7-1,1-1.1,3.9-.2,4.6.4.2.5,1.8.3,3.5-.3,2.3,0,3.8,1,5.9,2.7,5.3,2.7,9.5,0,11.3-.6.4-.2,2.1.5,2.1s.9-1.2,1.8-2.6h0ZM358.6,203c0-1.2.2-1.6.4-.9s.2,1.7,0,2.2c-.2.5-.3,0-.3-1.3h0ZM225.8,209.8c.8,1.3,2.3.4,1.7-1-.5-1.3-1.7-1.3-3.4,0-.9.7-1.2,1.5-.8,2.3.5,1.2.6,1.1,1.2-.5.5-1.4.8-1.6,1.3-.8h0ZM277.1,211.1c2.5-.5,4.8-1.2,5.1-1.5.6-.6-3.5,0-10.7,1.4-4.2.8-4.4.9-1.8,1,1.6,0,5-.4,7.5-.9ZM213.1,209.7c.5-.5,1.6-1.4,2.4-2,3.6-2.8,12.7-7.2,14.7-7.2s1.8-.5,2.6-1.1c1.3-1,1.3-1.1.1-1.1-1.1,0-1.2-.3-.5-1.4,1-1.9,1-2.2-.6-2.2-2.3,0-3.6.8-3.2,1.9.3.8.6.9,1,.2.3-.5.5-.1.4,1-.2,2.6-1.7,2.4-2.3-.3-.3-1.4-.8-2-1.3-1.7-.5.3-1.9.4-3.3.3-1.8-.1-2.3,0-2,.8.2.5.6,1.5.9,2.3.3.9,1,1.2,2.2,1,2.3-.4,2.2.8-.2,1.7-2.2.8-2,1-2.9-2.2-.6-2.2-1-2.5-2.7-2.3-2.7.3-6.2,2.4-7.9,4.7-1.4,1.8-1.4,2-.2,4.4.7,1.4,1.2,2.9,1.2,3.3,0,1,.6,1,1.8-.1h0ZM214.3,205.6c-.6-.4-.8-.9-.6-1.2.7-.7,2.7.2,2.7,1.1s-.7.9-2.2,0h0ZM216.4,200.1c0-.7.4-1.1.8-.9.4.1.8.6.8.9s-.4.8-.8.9c-.4.1-.8-.3-.8-.9ZM223.3,198.3c.2-.4.6-.7.8-.7s.3.3.3.7-.3.7-.8.7-.6-.3-.3-.7ZM196.9,199.4c.8-.8,3.5-2.8,6.1-4.3,3.1-1.8,4.7-3.2,4.7-4.1s-.4-1.4-.8-1.4-.6-.6-.4-1.4c.4-1.7.3-1.8-1.6-.6-1,.6-1.3,1.4-1,3.2.3,1.7,0,2.4-.9,2.8-1,.4-1.2.2-.8-1.5.3-1.1.2-1.7-.1-1.3-.3.4-1.1.7-1.7.7s-1.1.6-1,1.6c0,1.3-.3,1.6-2,1.4-2.3-.3-3.8,1.6-3.1,3.9.3.8-.3,2.9-1.4,5-1,2-1.8,4.2-1.8,4.9,0,.7,1-.7,2.2-3,1.2-2.4,2.8-5,3.6-5.9h0ZM285.2,207.7c1.4-.3,3.7-.9,5.1-1.3s3.7-1,5.1-1.4c7.8-2.2,11.7-2.9,15.9-3,2.6,0,6.5-.3,8.7-.7,2.2-.4,6.5-1.1,9.5-1.6s5.7-1.1,6.1-1.5c.4-.3,1.4-.6,2.2-.6s2.2-.6,2.9-1.3,2.8-1.7,4.4-2.3c3.8-1.3,7.5-4.5,7.5-6.7,0-5-1.5-16.8-2.1-17.5-.4-.5-.5-1.3-.1-1.8s.5-3.3.4-6.1c-.1-2.9-.2-7-.2-9.1v-3.9s-2.2.5-2.2.5l-2.1.5,1.1-2.3c.8-1.7.9-2.5.3-3.1s-.8-.6-.8,0-.8.9-1.8.9-1.8.3-1.8.8.3.6.6.4c.4-.2.8.4,1,1.4.2,1.3,0,1.8-.7,1.8s-1,.6-.7,2.2c.5,3.4-.7,2.6-1.3-.9-.8-4.5-.5-8.9.8-11.4,1.6-3.1,1.4-4.4-.7-4.4s-1.8-.4-1.9-.9c0-.5-.4,0-.9.9-.7,1.7-.9,1.4-1.3-2.5-.5-4.4.6-8.3,2.2-8.3s.9,1.2,0,3c-.6,1.1-.5,1.9.4,3.2,1.7,2.6,4.4,2.3,6.2-.6,1.7-2.7,3.2-7,2.7-7.5-.2-.2-1.4.3-2.8,1.1-2.6,1.6-5,2-5,.8s.8-.7,1.7-.7c2.8,0,4.4-2.4,3.9-5.8-.4-2.9.5-4.8,1.1-2.4.2.7.4-1.4.4-4.7,0-3.3-.3-6.8-.7-8-.5-1.4-.5-2.1,0-2.3.4-.1.8-.9.8-1.7,0-1.7-2-5.7-2.8-5.7s-1-.7-1.4-1.6c-.8-1.5-.8-1.4-.4.9.2,1.4.6,4.3.7,6.5l.3,4-1-2.9-1-2.9v5.1c-.1,2.8-.5,6.1-.8,7.4-.4,1.4-.4,2.3,0,2.3s.7-.4.7-.9c0-.6.2-.6.4,0,.3.7-2.2,7.1-7,17.5-.8,1.7-1.4,3.7-1.4,4.5s-1,4.1-2.2,7.4c-1.2,3.3-3.3,9.2-4.6,13s-2.9,8-3.6,9.2c-.6,1.2-1,2.7-.8,3.3.2.6,0,1.3-.4,1.5-.5.3-.6,0-.4-.8.3-1,0-.9-1.1.4-1.5,1.7-2.1,4.2-.8,3.4.4-.2,0,1.1-1,3-.9,1.9-1.7,4.3-1.8,5.4-.2,3.6-.3,4.1-.9,3.7-.3-.2-.6-.1-.6.2,0,.3-.8,1.6-1.9,2.8-1.3,1.5-1.5,1.7-.7.4,1.9-3,1.4-4.3-.7-1.8-8.3,9.8-18.2,17.8-24.6,20-1.6.5-3.2,1.2-3.6,1.6-.4.3-1.4.6-2.3.6s-1.8.3-2.1.7c-.2.4-1.2.7-2,.7-.9,0-2.1.3-2.7.7-1.2.8,4.2.3,8.7-.8h0ZM302.2,201.3c.5-.8,4.8-1.5,4.8-.8s-2.6,1.4-4.2,1.4c-.5,0-.8-.3-.6-.6h0ZM331.6,183.6c0-.7.6-1.8,1.3-2.5,1.1-1.1,3-3.9,7.3-11,.9-1.5,1.2-1.6,1.7-.6,1,1.9-.7,8.6-2.3,9-.8.2-1.4.7-1.4,1.1s-.2.5-.5.3c-.3-.3-1.7.7-3.3,2.2-2,2-2.8,2.4-2.8,1.5h0ZM343.7,119.6c.2-1.9.8-3.8,1.2-4.2.5-.5.6.2.3,2.2-.2,1.6-.5,3.5-.5,4.2,0,.7-.3,1.3-.7,1.3s-.5-1.4-.3-3.4h0ZM231.6,206.9c0-.8-2-.8-2.5,0-.2.3-.2.8,0,1,.6.6,2.4-.2,2.4-1h0ZM277.3,207.1c1-.3,3.2-1,4.9-1.5,2.6-.8,3-1.2,2.6-2.4-.4-1.1-.2-1.3.7-1,.8.3,1.2,0,1.2-1s.3-1.3.8-1c.4.3,1.2-.1,1.8-.9.9-1.2,1-1.2,1-.2,0,.6.5,1.6,1,2,.8.7,1.5.5,3.1-.9l2.1-1.8-2.7.2c-2.1.2-2.6,0-2.6-1,0-.7.5-1.6,1.1-2.1.8-.8,1.1-.7,1.4.6.3,1.2.6,1.4,1.4.7.8-.7,1.2-.6,2,.5.9,1.3,1,1.2,1.9-.4.5-1,.9-2.5.8-3.3s.2-1.8.7-2.1c.6-.4.7,0,.4,1.4-.4,1.5-.2,1.9.7,1.9s1.3-.6,1.5-1.4c.2-.8.7-1.5,1.2-1.6,1.4-.4,7.5-7.3,9-10.4,1.7-3.4,4-13.8,3.3-15.1-.4-.7-.3-.7.6,0,1.8,1.5,3,0,3.1-4,0-2,.3-3.7.5-3.7s.9,1,1.5,2.3l1.1,2.3,3.1-9.7c1.7-5.3,3.4-10.3,3.7-11.1.8-2.2,4.4-14.9,4.8-17.2.6-3.3-.3-5.6-2.2-5.6s-2-.3-2.4-.7c-1.1-1.1-11.6-1.3-16.9-.2-5.6,1.1-6,1.1-5.5.3.2-.4,2.6-1.2,5.3-1.9s5.2-1.5,5.5-1.8c.3-.3,2.1-.2,4,.2,11.7,2.3,17.1.3,18.9-6.9,1-4,.6-6.4-1-5.8-.7.3-1.1,0-1.1-.9,0-.7-.2-2.1-.5-3-.4-1.3-.1-1.8,1.2-2.1,1.5-.4,1.6-.7,1.1-3.8-.3-1.8-.8-4.9-1.2-6.8l-.7-3.4-2.1,1.6c-1.2.9-3.4,1.6-4.9,1.7s-5.1,1.2-7.8,2.6c-2.7,1.3-5.3,2.5-5.7,2.5-1.6.2-4.4,1.7-6.2,3.3-1,.9-3.4,2.5-5.4,3.4-2,.9-4.1,2.3-4.8,3.1-.7.8-2,1.4-2.9,1.4-1,0-2.7,1-4.1,2.5-1.3,1.4-2.8,2.3-3.4,2.1-.5-.2-1.2,0-1.4.4-.3.4-1.4.8-2.6.8-1.8,0-2.2.3-2.6,2.2-.2,1.2-.7,2.4-1.1,2.6s-.6,1.5-.6,2.8-.3,3.2-.7,4.2c-1,2.7-5.1,7-6.6,7s-1.4.3-1.4.7-.4.7-1,.7c-.9,0-1.8,1.8-4.2,7.9-.4,1-.5,3.1-.2,4.9.8,5.4-.1,8-4.4,12.2-2.1,2.1-4,4.2-4.1,4.7s-1.8,1.1-3.5,1.3c-1.8.2-3.6.7-4.1,1.1-.6.5-1.5.1-2.7-1.2-1-1-2.5-1.9-3.3-1.9-1.8,0-2.9-2.1-2.9-5.7s-.4-3-1-3.3c-.6-.2-1.1-1.1-1.3-2.1-.2-1.5-.6-1.6-2.9-1.4-4.2.4-8.7-2.6-11.2-7.4-1.2-2.4-.9-3.3.6-1.5.5.7,2.2,2.5,3.7,4,2.3,2.4,3.2,2.8,5.8,2.8,3.7,0,5.1-.8,4.8-2.6-.3-2.1.8-5.5,2.1-6.5.6-.5,1.2-1.9,1.2-3.2s.2-2,.6-1.4c.5.7.6.7.6,0,0-.5,0-1.1,0-1.4,0-.3-.7-.7-1.6-.9-1.5-.4-1.5-.4-.4-1.6,1.2-1.2,1.3-1.2,2.8.2,1.8,1.7,6.7,1.9,11.9.5,4-1.1,5.6-3.1,5.2-6.7-.3-2.5.9-3.5,2-1.8.3.4,1.7-.6,3.3-2.4,1.7-1.9,3.7-3.4,5-3.6,3-.6,4.6-3.3,4-6.7-.3-1.5-.7-2.4-.9-2-.3.4-1.7.4-3.5,0-2.4-.5-3.3-1.1-4.2-2.8-.6-1.2-1-2.4-.8-2.6s.9.6,1.5,1.9,1.4,2.2,1.8,2.2,1.1.2,1.6.4,1.7-.3,2.6-1.1c1.5-1.4,1.6-2,1.2-5.7-.3-2.6-.1-5.2.4-6.8,1.2-3.5.4-8.1-1.4-8.6-1.9-.5-3.8,2.7-3.9,6.5,0,2.3-.4,3.1-1.2,3.1-.6,0-1.6.4-2.1.9-.8.7-.9.7-.5-.2.2-.6.8-2.5,1.3-4.2,1.1-4,5.4-8.5,6.9-7.3.9.7,1,.4,1-2.1s-.3-3-1.1-3-1.1.3-1.1.6c0,1-7.7,8.1-8.8,8.1-.2,0-.6,1.4-.9,3.1-.2,1.7-1,3.5-1.6,3.9s-1,1.2-.7,1.7c.7,1.2-2.6,5.8-4.5,6.3-.9.2-1.4.7-1.2,1.1.2.4,1.2.4,2.3.2,1.3-.3,1.7-.2,1.4.3-.5.8-8.4,1-8.4.2s-1.3-.3-3-.2c-2.8.3-5.1-.7-4-1.8s.9-.1,1.4.4c1.5,1.5,3,.9,6.7-2.6,3.4-3.3,5.5-4.7,7.3-4.8,1.7-.1,3.2-2.1,3.6-4.9.3-1.9,1-3.2,2.2-4,1-.6,1.6-1.6,1.4-2.1-.2-.6,0-.8.6-.6,1,.4,2.6-1.1,5.4-4.8,1.3-1.6,1.5-1.7,2.5-.7.9.9,1.2,2.9,1.3,8.7l.2,7.5,3.2,3.1c1.8,1.7,4.1,3.5,5.1,4,1,.5,2.6,1.5,3.6,2.2l1.7,1.3-1.9.7c-2.6,1-4.3.9-5.3-.1-1.5-1.5-1.8,0-.9,3.4.8,3,1.1,3.3,2.6,2.9,2.9-.7,5.1-1.7,6.1-2.7,2-2,5.5-4.1,6-3.7.3.3.5,0,.5-.4s.5-.6,1.1-.4c.6.2,1.1,0,1.1-.3s1.5-1.3,3.3-2c1.8-.7,3.8-2,4.5-2.8.7-.9,1.8-1.8,2.5-2s1.3-.8,1.3-1.3-.3-.6-.7-.4c-1,.6-3.2-6.8-3.2-10.6v-3.4s-3.1,0-3.1,0c-2,0-3.2.3-3.2.9,0,.5-.5,3.4-1.1,6.3-2.4,12.6-2.3,12.5-4,6.3-.5-1.9-1.2-3.6-1.6-3.8-1.1-.7-.6-3.1,1.5-7,3-5.5,4.3-14.3,2.5-16.3-1.4-1.5-3.1-1.1-3.1.7s-.5,2.4-1.1,3.3c-.6.9-.9,1.9-.7,2.3.2.4-.1.9-.9,1.1s-1.9.7-2.6,1.1c-.7.4-1.7.7-2.2.7s-2,.5-3.3,1.1c-2.4,1.2-4.6,1.2-4.5,0,0-.4,1-1.1,2.1-1.4,3.5-1.2,6.4-3.8,9.5-8.4,4-5.9,3.7-8-.5-3.6-1.7,1.8-3.1,3.6-3.1,4.1,0,1.5-5.3,3.6-16.6,6.8-3,.8-6.2,2-7.1,2.6l-1.7,1.1,1.5,1.4c2.2,2,1.2,2.4-1.4.6-1.7-1.2-2.5-1.4-3.6-.8-1,.5-1.6.5-2.2-.1-.7-.7-1-.6-1.5.2-.5.9-.7.9-.7,0,0-.7-.3-.8-1-.2-.5.4-1.6.9-2.4,1-4.6.8-11.2,7-10.2,9.6.7,1.8,4,2.9,5.6,1.9.9-.6,1.4-.6,1.4-.1s-.9,1.1-1.9,1.5c-1.6.6-2.4.4-4.7-1.1-2.2-1.5-2.8-1.6-2.8-.7,0,1.9,1.4,3.9,3.5,5,1.1.6,1.5,1.1.9,1.1-.6,0-2.3-1-3.8-2.2-1.5-1.2-2.7-1.9-2.8-1.4,0,.4-.1,1.1-.2,1.5,0,.4-.3.6-.5.5-.2,0-1,.4-1.7,1.1-1,1-1.1,1.5-.4,2.4,1.1,1.3,2.9,1.4,2.9.2,0-.6.2-.6.5-.2.8,1.1,3.6,2.5,4.9,2.5s1.1.3,1.1.7-.8.7-1.8.7c-2.1,0-2.2.5-.4,2.7,1.7,2,2.3,2,4,.2.7-.8,2.1-1.4,3.1-1.4s1.5-.3,1.3-.7c-.2-.4,0-.7.7-.7s1.1.1,1.1.3.2.9.4,1.6c.4,1.1.3,1.1-.4.2-.5-.7-.8-.8-.8-.2,0,.5-.4.9-.9.9s-2.2.6-3.8,1.4q-2.8,1.4-4.4,0c-1.9-1.8-2.5-1.8-2.5,0s.7,1.6,1.6,1.9c.9.3,1.3.7.8.9-.5.2-1.5,0-2.3-.4-1.8-1-5.2-1-5.2,0s.3,1.3.7,2c.4.7.8,1.8,1,2.4.2.6,1.3,1.4,2.4,1.6,3.8.7,8.6,2.3,9,2.9.2.3,1.5,0,2.8-.6,1.3-.7,2.8-1,3.3-.8.5.2,2.3-1.1,4-2.9,2.9-3.1,3-3.2,2.6-1.2-.6,2.4-3.6,5.3-5.5,5.3s-2.5.5-3.9,1.1c-2.3,1-3.1,1-7,0-2.4-.6-4.6-1.2-4.9-1.4-.2-.2-1.2,0-2.1.7-1.5,1-1.6,1-1.2,0,.2-.6,0-1.7-.6-2.4-1.4-1.6-2.2-6.7-1.2-7.9.4-.5,1.4-1,2.2-1s1.6-.5,1.8-1.1c.6-1.5-.9-4.7-2.3-4.7s-2.6-2.1-2.6-3.5.4-1.2.9-1.7c1.6-1.7,3.5-4.9,2.9-4.9s-6.7,6.5-7.6,8.5c-.4.9-1,1.6-1.3,1.6-.8,0-2.1,3.8-1.9,5.4,0,.9-.7,2-2.1,3-1.7,1.1-2.1,1.8-1.6,2.6.5.7.7.8.7.1,0-.5.5-.9,1.1-.9,1.7,0,1.3,1.1-.9,2.1-1.8.8-6.6,4.3-8.8,6.4-.5.5-1.3.9-1.7.9s2-2.4,4.4-4.1c.2-.1.1-.4-.1-.7-.2-.2-1.2,0-2.1.7-1.2.8-1.9.9-2.6.4-.7-.6-1.4-.5-2.8.4-2,1.3-2.2,1.9-1,3.1s.1,3.8-1.3,3.8-1.6-.5-2.2-1.1c-.6-.6-1.4-.9-1.8-.6-.4.3.2,1.4,1.5,2.7l2.2,2.3-2.3,6.7c-1.7,5.1-2.7,7-4.2,7.9-1.7,1-6.5,7.2-6.5,8.3s2,.4,4.5.4c5.2,0,8.1,1.2,9.8,4,1.4,2.4.9,3.2-1.4,2-2.4-1.3-10-1.2-12.7.3-3.9,2-5.4,4.6-5.2,8.8.2,3.4.4,3.7,2.6,4.4,1.9.6,2.4,1.1,2.4,2.6s.2,3,.5,4.3c.5,2.3.4,2.4-1.8,2l-2.2-.3.4,4.2c.3,3.8.2,4.4-1.5,6.4-3.1,3.7-2.3,5.1,1,1.6,2.7-2.9,4.4-4.1,3.2-2.2-.3.5-.2.6.3.3.4-.3.7-.9.5-1.4-.4-1,3.7-3.9,6.5-4.6,1-.3,2-.8,2.3-1.1.5-.9,5.2-3,5.9-2.7.3.1-.4,1.2-1.5,2.4-1.2,1.2-1.9,1.8-1.6,1.3.3-.5.2-.9-.2-.9-1.2,0-.9,2,.5,2.8,1.1.7,1.1.8.2,1.5-.8.5-1.2.4-1.4-.2-.4-1.3-1.5-1.8-3-1.4-2.1.6-3.1,2.1-2.2,3.6.7,1.2.8,1.2.8-.3,0-1.1.5-1.6,1.5-1.6s1.4.3,1.4.7-.3.6-.7.5c-.4,0-.7,0-.7.4-.1.9.5.8,3.8-.5,2.9-1.1,3.1-1.4,3-3.9v-2.7c0,0,7.5-1.5,7.5-1.5,4.2-.8,7.2-1.7,6.8-2-.5-.3-1.3-.3-1.8-.1-.6.2-1.5-.7-2.4-2.5-.8-1.6-1.7-2.9-2-2.9s-.6-1.1-.6-2.4v-2.4s1.4,2.7,1.4,2.7c1.6,3.1,5.6,6.4,7.7,6.4s1.7.6,2.2,1.3,2.5,2.2,4.5,3.3c3.3,1.8,3.8,1.9,4.2.8.8-2.1-.4-8.4-2.2-11.5-1-1.7-1.6-3.7-1.4-4.5.3-1.2,0-1.4-2-1.2-2,.2-2.9-.2-5.2-2.3-1.6-1.4-3.8-3.2-4.9-3.8-2-1.2-3.3-3.1-2.1-3.1s2.5,1.5,4.7,3.3c2.4,2,5.1,3.5,6.6,3.7,2.4.4,2.8.1,7-4.2,3.4-3.6,4.1-4.1,3.2-2.3-1.6,3.2-1.5,4.3.8,7.5,2.4,3.4,3.4,3.7,8.7,2.9,3.7-.6,5.2-1,9.7-2.6.7-.2,1.3-.7,1.3-1.1s.3-.6.8-.6c1.1,0,6.5-3.8,9.3-6.6,1.3-1.3,4.2-5.2,6.4-8.6,3.6-5.6,9.1-11.6,10.6-11.6.8,0,0,1.3-2.7,4.2-2.1,2.3-6.2,7.9-10.1,13.9-6,9-16.2,15.3-29.4,18.1l-4,.9.2,7.2c.2,6.7.4,7.5,2.7,11.3,1.4,2.3,2.7,5.6,2.9,7.6.5,3.5,2.4,5.7,5,5.7s1.1.3,1.1.7,1.5,1.1,3.4,1.6c1.8.5,4.5,1.9,5.8,3.2,2.3,2.1,2.8,2.2,6.2,2,2.1-.2,4.6-.6,5.6-.9h0ZM294.7,193.4c0-.9,2.2-3.4,2.8-3.4s1.6-1.1,2.9-2.4c2.3-2.4,4.8-3.4,3-1.3-.7.9-.7,1.1.3,1.1s1.2.3,1.2.7c0,.6-1.6.9-4,.7-.2,0-1.5,1.1-2.9,2.5-2.5,2.6-3.3,3-3.2,2ZM306.9,183.8c0-1-.2-1.4-.4-.9-.2.5-.7.9-1.1.9s-.4-.5,0-1.3c1.2-2.3,1-7.3-.3-8-1.4-.8-.7-2.4.8-1.9.6.2,1.2-.3,1.5-1.2.6-1.9,1.5-1.1,2.2,1.8.5,1.9.4,2.1-.6,1.3-.9-.8-1.2-.7-1.6.7-.2.9-.4,2.5-.4,3.5,0,1.4.1,1.6.7.7.5-.8.7-.5.7,1.4,0,3.1-1.4,5.8-1.5,2.9h0ZM310.7,178c0-.6.5-2.1,1-3.3l1-2.2-.4,2.2c-.5,2.7-1.6,4.9-1.6,3.3ZM203.8,173.5c-1.5-4.8-.8-7.8,1.8-7.8s1.4-.3,1.4-.7.4-.7.9-.7,1.6-.7,2.5-1.4c3.4-3.1,3.9-1.4,1.3,4-2.9,6-7.1,9.5-8,6.7h0ZM207.5,171c1.9-2.2,4.1-6,3.7-6.4s-1.8.4-3.7,1.3c-2.8,1.3-3.4,1.9-3.1,3.1.2.8.4,2,.4,2.7,0,1.8.6,1.6,2.7-.7ZM314,172.5c-.3-.3-.5-.8-.5-1.2s.3-.4.9.1c.5.5.7,1,.5,1.2-.2.2-.6.2-.9-.1ZM305.7,168.2c.7-.8,1.3-2.3,1.3-3.3,0-1.4.2-1.5.7-.7.4.6.7.7.7.2,0-1.3,2.4-.6,3,.9.9,2.4.7,2.7-.8,1.3-.9-.8-1.7-1.1-2-.7-.3.4-1.3,1.3-2.3,2.1l-1.8,1.4,1.3-1.5h0ZM303.7,167c.2-.5-.1-1.6-.7-2.4-1.1-1.4-1.1-1.4-2,0-.8,1.4-.9,1.3-1.3-.7-.4-2-.7-2.2-3-2.1-2.5,0-2.6,0-1.2-1.3.8-.8,1.7-1.2,2.1-.9.4.2,1.9-.1,3.3-.8,2.7-1.3,4.6-4.5,4.6-7.6s.2-1.4.5-1.1.5,2.4.5,4.6v4.2s-2.5,0-2.5,0c-2,0-2.6.3-2.8,1.4-.2,1.1,0,1.2.4.5.5-.8.8-.7,1.1.2.3.7.8,1,1.2.7.4-.3.7.7.7,2.4s-.3,3.1-.7,3.3c-.4.2-.5,0-.3-.5h0ZM197.2,163.5c-.2-.4-1.1-.7-1.8-.7-1.7,0-2.7-3.2-1.4-4.7.5-.6,2.7-1.7,4.9-2.6,3.3-1.2,4.4-1.4,6.4-.7,3.3,1.1,4.1,2.2,3,4.3-1.4,2.8-9.9,6.2-11,4.4h0ZM205.5,159.9c.4,0,.8-.7.8-1.4,0-1.3-.5-1.4-3.8-1.4-2.8,0-3.3.2-2,.6,2.2.6,3,3.7,1,3.7-1.1,0-1.2.1-.2.7.8.5,1.4.3,2.3-.7.7-.8,1.6-1.4,2-1.4h0ZM197.2,157.9c-.4-.7-2.5,1-2.5,2,0,2.1,1.8,2.1,2.2,0,.2-1,.4-2,.3-2.1h0ZM200.9,159.9c.2-.4-.2-.7-1-.7s-1.5.3-1.5.7.5.7,1,.7,1.2-.3,1.5-.7h0ZM313.7,159.7c-1.8-4.1-2-5.9-.9-6.6.4-.2.7.2.7,1s.4,1.6.9,1.7c.7.2.7.5,0,1.5-.8,1-.7,1.3.2,1.8.7.4,1.1,1.4.9,2.5-.2,1.6-.4,1.4-1.9-1.9h0ZM306.3,160.9c-.6-.7-.7-1.1-.4-.8s1.3,0,2.1-.7c1-.8,1.2-.9.7-.2-.4.6-.9,1.5-1.1,2.1-.2.7-.6.7-1.3-.4ZM317.3,155.6c-.1-4.2,0-5,1-4.6.6.2,1.8-.2,2.6-.9q1.5-1.3.6.5c-.5,1-1.1,2-1.4,2.2s-.9,1-1.5,1.8c-1,1.3-1,1.4.2.9,1.5-.5,1.6.6.6,3.4-1.2,3.1-1.9,2.1-2-3.2h0ZM308.2,156.6c-.9-.9-.5-2.9.8-4.1,1.2-1.1,1.3-1,1.4,1.7,0,2.7-.8,3.7-2.1,2.4ZM303.4,149.1c0-1.7.4-1.9,1-.4.2.6,0,1.3-.3,1.5-.4.2-.7-.2-.7-1.1ZM315.4,148.7c-.7-.5-1-1.1-.6-1.4.4-.2,1.1,0,1.6.7,1.2,1.5.6,1.9-1,.7ZM306.3,147.7c0-.4-1.1-1.2-2.5-1.8-2.3-1.1-2.4-1.3-1.8-3.5.8-2.9.9-2.7-.3-2.7s-3.6-4.8-2.7-6.3c.6-1,.7-1,1.2.5.3,1,1.5,2.9,2.6,4.2,1.5,1.8,1.8,2.7,1.2,3.1-.7.4-.7.6,0,.6.5,0,.9.7.9,1.5s.6,1.7,1.4,1.9c1.5.4,2.1,3.1.7,3.1s-.7-.3-.7-.6h0ZM317.5,146.8c-.7-2.2-.2-2.3,1.6-.3,1.5,1.6,1.5,1.8.2,1.8s-1.6-.7-1.8-1.5ZM284.6,143.8c0-1.3.9-3.1,2.7-5.1,3.8-4.3,4.7-5.4,8.1-9.9,1-1.3,5.1-3.7,6.4-3.7s1.6-.4,1.9-.9c.3-.7.5-.7.8,0,.3.6,1.2.3,3.1-1.3,1.7-1.4,3.4-2.2,5-2.2,2.4,0,3.4,1.4,1.1,1.5-1.1,0-1,.2.4,1.2,2,1.4,2.1,2.4.4,2.4-2.9,0-4.8,1.7-4.9,4.4,0,2.3.3,2.8,3.1,4.5,3.2,2,3.5,3.4.8,3.4s-1.4.3-1,1.4c.6,1.9-1,1.9-3.1,0-2.1-1.9-2-2.9.2-2.9s1.8-.3,1.8-.7-.3-.7-.6-.7-1.3-.7-2.2-1.5c-.9-.8-1.6-1.1-1.6-.7,0,1.2-1.3.8-1.6-.5-.5-1.8,0-3.1,1.3-3.1s.9-.4.7-.9c-.2-.5.9-1.6,2.6-2.6,2.7-1.6,2.8-1.7,1.7-2.9-1.1-1.1-1.3-1.1-3.1,1-1.5,1.8-2.6,2.3-5.5,2.6-2,.2-3.7.4-3.8.4,0,0-.2.9-.2,1.9s-.4,1.8-1.5,1.8-2,.9-2.7,2.2c-.7,1.2-1.8,2.2-2.4,2.2-1.5,0-3.6,2.3-3.5,4,0,1.1.3.9,1.2-.7l1.1-2.1,1.1,2.1,1.1,2.1,1-1.8c.5-1,1-2.3,1-2.9,0-.7.5-1.4,1-1.6.7-.3,1,.5.9,3.2,0,3-.3,3.5-1.3,3.3-1.1-.3-1.7.7-1.4,2.6.2,1-.9.6-2.5-.9-1.3-1.2-1.9-1.3-3.5-.7-1.1.4-1.9.5-2,.2,0-.3-.5.5-1.1,1.6l-1,2.2v-2s0,0,0,0ZM308,144c-.3-.4-.3-.9-.1-1.1.2-.2.5.2.8.8.5,1.3,0,1.5-.6.3h0ZM210.6,136.7c0-.4.5-1.9,1-3.3.8-1.9,1.5-2.5,2.9-2.5s2,.4,2.3.8c.4.6,0,.7-1.1.4-1.3-.3-1.8.1-3,2.4-1.4,2.8-2.1,3.5-2.1,2.1h0ZM208.5,135.9c0-1.6,1.5-4.9,2.2-4.9s.7-.7.9-1.4c.4-1.6,2.6-1.9,4.7-.8.7.4,2.4,1.1,3.7,1.6,1.4.5,2.1,1,1.7,1.2-.4.1-2.3-.4-4.2-1.2-3.2-1.4-3.5-1.4-4.7-.3-.7.6-2,2.5-2.8,4.2-.8,1.6-1.5,2.4-1.5,1.8h0ZM222.4,132.8c.5-.6,1-.9,1.2-.8.4.4-.7,1.8-1.4,1.8s-.3-.5.2-1h0ZM243.3,129c-.9-.9-2-1.5-2.2-1.3-.3.2-1.3-.6-2.3-1.6-1.3-1.5-1.4-1.6-.2-.7.8.7,2.5,1.3,3.6,1.3,1.6,0,1.9.2,1,.7-.9.6-.9.7.1.7.7,0,1.4.5,1.6,1.2.7,1.7.3,1.6-1.7-.2h0ZM220.8,127.8c-4.4-1.5-6.2-3.3-4.5-4.4.4-.2.6.1.6.8,0,.7.7,1.4,1.7,1.7,1,.3,3.2,1,4.9,1.5,3.5,1,4.8.5,2.7-1.1-1.3-1-1.3-1,.2-.6,1.7.4,1.9.9,1.2,2.7-.6,1.4-1.1,1.4-6.8-.6ZM220.8,124.5c0-.4.5-.5,1.1-.3.6.2,1.1.5,1.1.7s-.5.3-1.1.3-1.1-.3-1.1-.7ZM319.7,122.2c-1.4-1.3-1.4-1.3.5-1.3s2.3.5,1.4,1.9c-.4.5-1,.4-1.9-.5h0ZM226.2,122.5c-3.8-.8-7.6-1.9-7.6-2.2,0-2.2,6.5-8.6,7.4-7.2.5.8.6.7.8-.9,0-.4.4-.9.7-1.3.4-.4.4-.2.1.3-.8,1.4.4,1.1,1.5-.4.5-.7,1-.9,1-.5,0,1.1-5.1,6.3-5.6,5.8-.3-.3,0-.8.6-1.1.6-.4.8-.9.5-1.2-.6-.6-5.6,4.3-5.6,5.5s.9,1,2,1.2c1.1.2,2.9.7,4.1,1.1,2.7.8,3.3.8,3.3,0s-.7-.7-1.6-.7c-1.5,0-4.2-1.5-4.2-2.3s1.5.2,3.4.8c5,1.8,4.3,4.4-.9,3.2h0ZM334.9,111.9c-.2-.9-.5-2.9-.8-4.3l-.4-2.7h2.6q2.6,0,2.2,2.6c-1,5.3-2.9,7.7-3.6,4.5h0ZM337.4,106.9c0-.3-.5-.5-1.1-.5-1.2,0-1.3.1-.6,1.8.4,1,.6,1,1.1.2.3-.5.6-1.2.6-1.5ZM293.2,111.7c0-.2.5-.9,1-1.4.6-.6,1.1-1.3,1.3-1.7.1-.4,1-.9,1.9-1.1,2.3-.7,2.2,1.2-.2,2.5-1,.5-1.8,1.2-1.8,1.6s-.5.6-1.1.6-1.1-.2-1.1-.4ZM267.1,108.7c0-.4.7-1.3,1.6-2q1.5-1.4.7.2c-.9,1.8-2.3,2.8-2.3,1.8ZM247.2,107.1c-1.1-.5-.8-.6,1.5-.7,1.6,0,4.3-.7,6-1.5,2.7-1.3,3-1.6,2.1-2.6-.8-1-.7-1.1,1.4-.6,1.5.3,2.8.2,3.4-.4.8-.7,1.1-.7,1.1,0s.2.7.5.5c.8-.5,3.8.8,3.8,1.6s-1.4.5-3.1.3c-2.4-.3-4.2.2-8,1.9-5.1,2.3-6.5,2.6-8.9,1.5h0ZM309.4,102.4c2.7-2.2,7.5-3.8,8.5-2.8.5.5-.3,1.1-2.4,1.7-1.7.6-3.9,1.4-4.9,1.9-2.9,1.5-3.5,1-1.2-.8ZM326.4,102.9c-1.1-.7-2-1.4-2-1.7,0-.8,5-2.9,5.8-2.4.4.2.7,1.6.7,2.9,0,2.9-1.3,3.2-4.5,1.2ZM329.4,100.8c0-.6-.4-1-.9-.9-1.3.4-1.6,2-.3,2s1.1-.5,1.1-1.1ZM333.6,103.1c-.7-.7.3-4.1,1.3-4.5,1.3-.5,3.2,1.1,3.1,2.6,0,1-.2,1-1.1-.2-.8-1.1-1.3-1.2-1.9-.6-.6.6-.6,1.1,0,2,.8.9.7,1.1-.1,1.1s-1.2-.2-1.4-.4ZM266.4,101.4c0-.3.5-1,1.1-1.6.6-.5.9-1.5.7-2.3-.2-.7,0-1.3.3-1.3s.8,1.3.8,2.9c0,2.4-.2,2.9-1.4,2.9s-1.4-.3-1.4-.6ZM275.1,99.4c-.7-.8-.7-1.3-.1-1.9s1-.3,1.6.7c1,1.8-.1,2.7-1.4,1.2h0ZM331.7,95.3c.1-3.6.9-6.7,1.7-6.6.4,0,1.5,1.5,2.3,3.3l1.6,3.2-1.5,1.3c-.8.7-2.1,1.3-2.9,1.3-1.1,0-1.4-.5-1.3-2.4h0ZM335,93.8c-.2-.9-.4-1.9-.4-2.2,0-.3-.3-.4-.7-.1-1.2.8-.9,4,.4,4s1.1-.4.7-1.6h0ZM273.9,95.3c-.2-.4-.9-.5-1.4-.3-.7.3-1-.2-1-1.4s.3-1.8.7-1.8.7.3.7.7,1,.9,2.2,1.1c2.8.6,3.3,1.6,1.1,2-1,.2-2,0-2.2-.3h0ZM248.6,93.3c-.2-.4.2-.7,1.1-.7,1.7,0,1.9.4.4,1-.6.2-1.3,0-1.5-.3h0ZM324.7,92.6c-.2-.4,0-.7.7-.7s1,.3.7.7c-.2.4-.6.7-.7.7s-.5-.3-.7-.7ZM328.5,92.8c.5-.2.7-.9.4-1.6-.4-1.1-.3-1.1.8-.2,1.7,1.4,1.5,2.3-.4,2.2-.9,0-1.2-.2-.8-.4ZM252.6,91.3c0-.6,2.4-3,4.2-4.1,1.9-1.2.7.8-1.7,2.7-1.4,1.1-2.5,1.7-2.5,1.4ZM276.6,89.7c0-.4.4-.9.8-1.2.5-.3.6-1.6.4-3.5-.3-2.1-.2-2.7.3-1.9.8,1.2,1,4.4.3,6.1-.5,1.2-1.7,1.6-1.7.5ZM259.4,85.5c.9-.9,3.9-1,4.4-.2.3.5-.6.7-2.2.7s-2.5-.2-2.2-.5ZM281.3,79.5c.2-.4.8-.7,1.2-.7s.5.3.3.7c-.2.4-.8.7-1.2.7s-.5-.3-.3-.7h0ZM224.7,207.3c1.2-.4,1.6-3.9.5-3.9s-1,.8-1.4,1.8c-1.2,2.7-1.2,2.9.9,2.1h0ZM235.6,205.5c-.3-.5-.8-.4-1.5.1-1.5,1.3-1.2,2.3.4,1.4.8-.4,1.3-1.1,1-1.5ZM229.9,205.5c.2-.4.2-1.3,0-2.1-.7-2.2-2.7-1.4-3,1.2-.2,2,0,2.2,1.2,1.9.8-.2,1.6-.7,1.8-1h0ZM244.5,205.9c-.7-.7-6.3-1-6.8-.3-.2.4,1.2.7,3.4.7s3.6-.2,3.4-.4h0ZM302.1,205.1c-.5-.2-1.5-.2-2.2,0-.7.2-.3.3.9.4,1.2,0,1.8-.1,1.3-.3h0ZM208,203.3c.4-.7.5-1.5.3-1.7-.6-.6-4.2,1.6-4.2,2.7s3,.4,3.9-.9h0ZM233.8,203c0-2.5-2.5-2.5-2.6,0,0,1.3.3,1.8,1.3,1.8s1.4-.5,1.4-1.8ZM236.6,202.9c-.3-1.8-1.7-2-1.7-.2s.4,1.5,1,1.5.9-.5.8-1.2ZM244.5,203.2c-.2-.6-4.7-2.2-7.6-2.7-.4,0-.1,1.1.6,2.1.6,1,.8,1,1.4,0,.6-1,.7-1,.7,0,0,.7.9,1.1,2.6,1.2,1.6,0,2.5-.2,2.3-.7h0ZM289.9,202.4c.8-.6,1.1-1.2.6-1.5-1.1-.7-3.1.2-3.1,1.4s.8,1.3,2.5,0h0ZM193.3,200.5c0-1.4-.8-1.9-1.6-1-.6.6.2,2.5,1,2.5s.6-.7.6-1.4ZM242,199.3c-.5-.2-.9-1.1-.9-2.1s.3-1.6,1.2-1.3c.8.3,1,.2.7-.4-.5-.8-9.1-1-9.1-.1s.6,1,1.3,1.8.9,1.2.4.9c-.5-.3-.9-.2-.9.2s1.5.8,3.4,1c1.9.1,3.8.3,4.2.3.4,0,.3,0-.2-.3h0ZM237.9,197.8c-.7-.7-.6-1.7.2-1.7s.8.5,1.1,1.1c.4,1.1-.3,1.5-1.2.6ZM365.7,197.3c0-.2-.3-.5-.7-.8-.4-.2-.7-.1-.7.3s.3.8.7.8.7-.1.7-.3ZM194.4,193.9c.5-.9-1.1-2.2-2-1.7-.7.4,0,2.5.9,2.5s.8-.4,1.1-.8ZM220.4,194c-.2-.4-.1-.7.3-.7s.8.3.8.7.6.7,1.3.7,1.3-.5,1.3-2.2-.3-2.2-1.7-2.2-1.9.6-2.4,1.9c-.9,2.3-.9,2.5,0,2.5s.6-.3.3-.7h0ZM234.4,193.6c.1-.1,0-.9-.2-1.7-.3-1-1.1-1.5-2.2-1.5-1.9,0-2.2.7-.9,2,.7.7.6.9-.4.9s-1.2-.6-1.2-1.4-.5-1.4-1.7-1.4-1.7.4-1.7,2.1v2.1l4-.4c2.2-.2,4.2-.5,4.3-.6h0ZM238.9,191.1c0-1.4-.4-2.2-1.3-2.5-.7-.2.1-.2,1.8,0,1.7.2,3.1.1,3.1-.2s-.7-1.6-1.5-3c-1.8-2.9-3.8-3.7-9.8-3.9-1.7,0-2.2-.4-2.3-1.6-.2-2-.3-2.1-2.5-1.5-1.5.4-1.7.8-1.3,2,.3.8.6,1,.6.5,0-.8.2-.8,1.2,0,1,.9,1,1-.4,1.5-.9.3-1.3.9-1.1,1.4.4.6.7.5,1.1-.2.5-.8.6-.7.6.2,0,2-1.3,2.2-2.5.3-1.9-2.9-3.6-2-3.6,1.9v3.3s7.5-.4,7.5-.4c5.6-.3,7.4-.2,7,.4-.3.5-.2.8.2.8s.8.7.8,1.4.5,1.4,1.1,1.4,1.1-.7,1.1-2.1h0ZM230.9,186.7c0-.5.6-.6,1.6-.3,1.6.5,1.6.5.3-1.4-.7-1-1-1.9-.6-1.9.5,0,2.3,3.1,2.3,4s-.8.3-1.8.3-1.8-.3-1.8-.8ZM237.4,186.8c0-.4.5-.8,1.1-1.1.7-.3,1.1,0,1.1.6s-.5,1.1-1.1,1.1-1.1-.3-1.1-.6h0ZM242.5,191.9c0-.8-.5-1.6-1.1-1.8-.7-.3-.9-.1-.7.3.3.4,0,1.2-.4,1.8-.7.9-.6,1.1.7,1.1s1.5-.5,1.5-1.4ZM196,190.4c-.5-.8-1.1-1.2-1.4-1-.3.2-.2.8.3,1.4,1.3,1.5,2.1,1.3,1.1-.3h0ZM211.4,191.1c.4,0,.7-1.1.7-2.4s.5-2.7,1.4-3.3c1.3-.8,1.4-.7,1.2.6-.1.8-.6,1.8-1.1,2.3-1.6,1.6-.9,2.2,2.4,1.8,3.9-.4,3.8-.4,4.4-3.3.4-1.8.2-2.3-.7-2.3s-1.2-.3-1.2-.7-1.1-.7-2.5-.7-2.7.3-2.9.7c-.2.4-1,.7-1.7.7s-1.9.5-2.7,1c-1.2.9-1.3,1.3-.5,2.5.5.8.7,2,.4,2.7-.4,1-.2,1.1.8.8.7-.3,1.6-.5,1.9-.5h0ZM199,189c0-.4-.2-1.2-.4-1.8-.3-.9-.7-1-1.4-.4-.8.6-.8,1,0,1.8,1,1.2,2,1.3,2,.4h0ZM201.9,187.1c0-.5-1.9-2.5-2.5-2.5s-.4.7-.4,1.4.5,1.4,1.4,1.4,1.4-.2,1.4-.4h0ZM359.4,180c1.8-2.4,4.8-8.6,4.8-9.9s-1.1-1.3-2.5-1.9c-1.4-.7-3.3-2-4.3-3-1.7-1.7-1.9-1.7-2.4-.5-.6,1.6-.6,13.1,0,15.8.6,2.5,2.2,2.3,4.3-.5ZM215.3,180.5c.5-1.2-.8-2.6-2.1-2.2-.4.1-.8.9-1,1.8-.2,1.2.1,1.6,1.2,1.6s1.6-.5,1.9-1.2ZM223.7,180.7c0-1.6-.8-1.9-2.3-1-1.9,1.2-1.7,2,.4,2s1.8-.4,1.8-1ZM233.1,179.5c0-.4-.7-.7-1.4-.7-1.6,0-2,1.1-.5,1.7,1.1.4,2,0,2-1h0ZM217.9,179.2c0-.6.4-.9,1.1-.6.6.2,1.1,0,1.1-.4s-.8-.8-1.8-.8-1.8.4-1.8,1.4.3,1.4.7,1.4.7-.5.7-1.1h0ZM375.8,178.7c.6-.6,1.7-1.3,2.5-1.5,1.5-.3,4.7-5.7,5.7-9.5.3-1.1,1.9-3.1,3.7-4.6,4.3-3.6,6.2-6.9,6.2-11.1,0-8-3.4-17.8-7.6-22.1-1.9-1.9-1.9-2-.4-2s2-1.5.1-5.6c-1-2.2-1.8-3.1-2.9-3.1s-1.6-.6-2-2c-1.1-4.8-5-10.9-9.8-15.6-5.5-5.3-7.8-6.2-7.8-2.9,0,2.6-2,5.2-4.7,5.9-1.7.5-2.2,1-2.4,2.8-.2,1.8.4,2.9,2.4,5.2,2.6,2.9,2.6,2.9,1.3,4.7-1.3,1.7-4,3.8-8.1,6.3-1.2.7-2.1,2.1-2.4,4-.3,1.6-1.4,3.7-2.5,4.8-1.3,1.3-2,3-2.2,5.3-.2,1.8-.7,3.3-1,3.3s-.6.3-.6.7.7.7,1.4.7,1.4-.3,1.4-.7.7-.7,1.5-.7c1.2,0,1.4.3,1,1.5-.3,1-.2,1.4.3,1.1.4-.3,1.1.1,1.5.8.7,1.2.7,1.2.8-.2,0-.8.5-2.1,1.1-2.9.6-.8,1.1-2,1.1-2.8,0-1.3,4.6-6.8,9.1-10.7,1.5-1.4,2.7-1.8,3.8-1.6,1.4.4.9,1-4.4,6.1-3.3,3.1-6.2,5.7-6.5,5.7s-.8,1.2-1,2.7-.9,3.4-1.4,4.3c-.9,1.5-.7,2.4.5,2.4s.4-.5.2-1.1c-.2-.6,0-1.1.3-1.1s1,.7,1.2,1.5c.4,1.4.6,1.4,4.4-.7,2.2-1.2,4.9-2.2,6-2.2,2,0,4.7-1.9,5.4-3.8.2-.5.6-.7.9-.5,1.2,1.1-3.4,7.1-5.4,7.1s-1.5.3-1.9.7-2.2.8-3.9.9c-2.9.2-3.3.5-3.5,2-.1,1-.6,2-.9,2.2-1.1.7.6,4.3,2.1,4.4,3.8.3,5.1.2,7.4-.7,1.4-.5,2.8-1.4,3.1-2s.9-.9,1.3-.6c.4.2,1.2,0,1.8-.5,1.3-1.1,1.5-.9,2.1,1.5.4,1.5.2,1.9-1.1,2-1.4.1-3.9,2.3-4.5,3.9-.1.4-1.4.2-2.9-.4-4.1-1.7-4.5-1.5-4.5,2.1,0,3.6.3,3.9,4,6,2.5,1.4,4.4,1.2,5.7-.5.2-.3,1.5-1.2,2.9-2.2,2.3-1.5,2.2-1.4-.9,1.8-3.8,3.9-4.3,6.3-2.3,10.4,1.3,2.6,3.4,2.8,5.4.7h0ZM377.5,163c.7-.7,1.2-1.6,1.2-2s.5-2.5,1.2-4.7c.9-3,1.3-3.6,1.7-2.5.7,2.1-2.8,10.6-4.5,10.6s-.3-.6.4-1.3h0ZM364.5,152.4c-.2-.6-.3-1.5,0-2,.2-.5.5,0,.7,1.1.4,2.1,0,2.7-.6.9h0ZM379.9,149.9c-1.3-1.5-1.5-2.3-.6-2.3s1,.8,1.4,1.8c1,2.2.8,2.3-.8.5ZM374.8,145.2c.5-1.2,2.5-2.2,2.5-1.2s-.6,1-1.4,1.4c-1.1.6-1.4.6-1-.3ZM380,141.7c-.7-1.7-1.2-2.6-1.3-1.9,0,1.5-2.2,1.7-2.2.2s-.4-.9-1.3-.6c-1,.4-1.1.3-.4-.5.5-.5.9-1.6.9-2.3s.8-2.6,1.8-4.2c2-3.1,1.9-4.5-.4-7.4-1.4-1.7-1.7-1.8-6.5-1.4l-5,.4.4-2.5c.3-2,.1-2.6-.9-3-.8-.3-1.5-.1-1.9.4-.4.7-.6.6-.6-.3,0-2.4,1.4-2.1,4.3.9,2.5,2.6,3.2,3,5.3,2.6,3-.5,5.9,1.2,7.5,4.2,1.2,2.1,1.2,2.5,0,4.7-1.5,3.1-1.5,3.9.3,8.6.8,2.1,1.4,4.2,1.3,4.6-.1.4-.8-.7-1.4-2.4h0ZM360.9,142.1c-.3-.8-1-1.9-1.5-2.6-.9-1.1-.9-1.2.4-.8.8.2,1.6,1.2,1.8,2.3.4,2.3,0,3-.7,1.1ZM346.5,135.3c-.3-.4.4-.7,1.4-.7s1.9.3,1.9.7-.6.7-1.4.7-1.6-.3-1.9-.7h0ZM223.3,177.3c.2-.4,0-.7-.7-.7s-1,.3-.7.7c.2.4.6.7.7.7s.5-.3.7-.7ZM319.6,173.3c.2-.6.1-.9-.3-.7-.4.2-.7.7-.7,1.1,0,1,.5.8,1-.4h0ZM196,171c-.2-2.2-.5-2.8-1.9-2.9-1.3-.2-1.6.1-1.6,1.4s1.9,4.3,3.1,4.3.6-1.2.4-2.7h0ZM359.4,163.1c.7-1.9.5-3.2-.6-3.2s-1.2.6-1.5,1.4c-.8,2.5,1.2,4.1,2.1,1.8h0ZM257.1,153.6c.8-.8-1.4-3.3-2.4-2.6-.4.2-.7-.2-.7-.9,0-1.4,3-3.1,5.3-3.1s1.8.5,2.3,1.2c1.5,2.1,4.5.7,5.4-2.5,1.1-4,1-4.5-1.3-4.5s-2.3-.5-3-2.2c-1.1-2.5,0-5.8,1.8-5.8s.9-.4.7-1c-1-2.7-9.6-3.6-9.1-1,.2,1.5-.7,1.6-2.7.4-1.1-.7-1.8-.7-3.2,0-1,.5-2.2.7-2.7.4-.6-.4-.7-.3-.4.3.3.5-.2,1.6-1,2.5-1.3,1.4-1.5,2.1-1,4.9.3,1.8.5,4.5.4,5.9,0,1.5.2,2.9.6,3.1.4.2.7-.6.8-2,0-1.3.3-3.2.7-4.2.6-1.7.6-1.7.7-.2,0,1.7,1.5,2.3,1.6.7.1-1.7,2,3.4,2.1,5.5,0,1.7-.1,1.9-1,1.2-.8-.7-1.5-.7-3.3,0-2.2,1-2.6,1.7-1.8,3.6.4,1.1,10.2,1.1,11.4,0h0ZM249.1,152.3c0-.8.2-1,.4-.4.2.5.2,1.1,0,1.4-.2.2-.4-.2-.4-1h0ZM253.8,144.1c-1.9-3.6-.4-5.2,4.2-4.6,1.2.2,2.3.9,2.7,1.8.6,1.5.6,1.4.7-.3,0-1-.4-2.3-.9-2.8-.7-.8-.7-.9.1-.6.6.2,1.3,1.2,1.6,2.3.3,1.1,1.3,2.6,2.2,3.4,1.8,1.5,1.7,1.6-2.3,1.9-1.4.1-3.6.4-4.8.7-2,.4-2.4.3-3.4-1.7h0ZM248,138.1c-1.4-2-1.1-2.3,1.3-1.4,1,.4,2.4.5,3,.3,1.9-.7,1.2.4-1,1.5-2,1-2.2,1-3.2-.5h0ZM197,152.7c2-.9,4.5-1.4,7.3-1.4,4.8,0,5-.7.5-2.2-2.5-.8-3.4-.8-5.7,0-2.7.9-5.9,3.4-5.9,4.5s.5.8,3.8-.9h0ZM267.7,135.9c.5-.8.6-1.5,0-1.7-.4-.2-.7,0-.7.4s-.6.7-1.4.5c-.9-.2-1.4,0-1.4.5,0,2,2.3,2.2,3.5.3h0ZM204.2,132.4c.2-1.8.7-4.5,1-6,.4-2.1.3-2.7-.4-2.7-1.1,0-3.5,7.3-3.5,10.5s.3,1.8,1.3,1.7c.9-.2,1.4-1.2,1.7-3.5h0ZM208.5,124.8c0-.4-.8-1.5-1.8-2.5-2-1.9-2.5-1.2-.6.8,1,1.1,1.1,1.8.4,4.5-.4,1.8-.8,3.7-.8,4.2,0,1.1,2.9-5.9,2.9-7.1h0ZM271.5,127.6c.5-1.2.5-2.2,0-2.7-.4-.5-.4-1.2,0-1.9.4-.6.7-1.4.7-1.8,0-2.2-1.7,2.6-1.8,5.2-.2,3.6,0,3.9,1.1,1.2h0ZM354.1,121.1c.9-1.1.8-1.1-.8-.6-2.5.8-3.5,1.8-1.7,1.8s1.9-.5,2.5-1.2ZM210.6,118.7c0-.9-1.4-1.8-1.9-1.3-.5.5.4,1.9,1.3,1.9s.7-.3.7-.7ZM352.1,114.3c.5-2.6-.5-9.3-1.6-10.4-.6-.6-.8.9-.8,6.2s.2,6.9,1,6.6c.6-.2,1.2-1.3,1.4-2.4h0ZM276.1,115.3c.7-1.7.1-1.9-.9-.2-.5.8-.6,1.4-.2,1.4s.9-.5,1.1-1.2ZM279.3,111.7c-.2-.2-.6.2-.9.9-.4,1-.3,1.1.4.4.5-.5.7-1.1.5-1.3h0ZM219,111c1.2-1,1.7-1.7,1.1-1.4-.6.2-1.6.6-2.3.8-1.2.4-2.4,2.5-1.5,2.5.3,0,1.5-.8,2.7-1.9ZM222.9,110.7c1-.8,1.4-1.4.9-1.4-.5,0-.7-.3-.5-.7.2-.4.1-.7-.3-.7s-.9.3-1.2.7c-.2.4,0,.7.5.7.5,0,.1.7-.9,1.4-1,.8-1.5,1.4-1.1,1.4s1.5-.6,2.5-1.4h0ZM341.5,97.8c-.8-.8-1.3.5-.8,1.8.5,1.2.6,1.2.9,0,.2-.7.1-1.5-.1-1.8h0ZM360.6,99.6c1.5-1.2,2.2-6.1,1.3-9.4-.6-2.1-1.1-2.7-2.5-2.7-2,0-3.2-2.5-1.9-3.8.4-.4.8-1.2.8-1.7,0-.7-.4-.7-1.8,0-1.5.7-2.1.6-3-.3-1.1-1.1-1-1.4.5-3.8q1.6-2.7.2-4.1t-1.9,1.4c-.5,3.3-1.7,3.9-6.2,3.2-2.2-.3-3-.1-3.3.8-.2.6-.8,1-1.1.8-.6-.4-.4,1.3.6,5.1.6,2,4.8,7.2,9.6,11.7,4.1,3.9,6.5,4.7,8.8,2.9h0ZM343.2,94c-.4-1.6-.6-2-.7-1,0,1.6.6,4.1,1,3.7.1-.1,0-1.4-.4-2.7h0ZM263,93.7c.9-1.4.9-1.8.2-2.1-1.6-.6-2.8.6-2.3,2.3.6,1.9.7,1.9,2.1-.2ZM259.9,94.1c0-.9-.9-1.6-1.6-1.1-.7.5-.1,1.7.9,1.7s.7-.3.7-.6h0ZM318,89.6c.9-.5,2.1-1,2.6-1.3,1-.5,3-5.3,3-7.5,0-2-1.2-.8-1.7,1.8-.3,1.3-1.7,3.5-3.4,5.1-3.1,2.9-3.2,3.3-.5,1.9h0ZM247.2,78c-.8-1.3-1.6-.7-2.4,1.6-1.1,3.3-1,3.4,1,1.1,1-1.1,1.6-2.3,1.4-2.7ZM357,78.8c0-.8-.2-1.4-.3-1.4s-.7.7-1.1,1.4c-.6,1.2-.6,1.4.3,1.4s1.1-.6,1.1-1.4ZM306.4,73.2c.7-.1,1.4.1,1.7.5.7,1.1,3,.9,4.1-.5.8-.9.8-1.1,0-.7-1.7,1-3.8-1.7-3.8-4.8s-.3-2.8-.6-2.8c-1.1,0-2.3,1.7-2.3,3.3s-.5,1.8-1.1,2c-.6.2-1.1,1-1.1,1.8,0,1.6.8,2.6,1.4,1.8.2-.3,1-.6,1.6-.8h0ZM244.2,68.3c2.1-1.9,4.7-2.7,7-2.2,2.2.5,2.3.4,1.4-.6-1.2-1.4-5.2-1.6-7.5-.3-2.1,1.2-6.3,5.7-6.3,6.9,0,.8,1.2,0,5.3-3.8h0ZM261,70.8c-.2-.4-.9-.7-1.5-.7s-1,.3-1,.7.7.7,1.5.7,1.3-.3,1-.7ZM260.8,68.9c-.5-.2-1.3-.2-1.8,0s0,.4.9.4,1.4-.2.9-.4ZM313.4,67.8c1.1-1.1,1.1-2,0-2s-1.3.7-1.8,1.4c-.7,1.2-.7,1.4,0,1.4s1.3-.4,1.8-.9h0ZM271.2,64.7c-.7-1-1.8-1.9-2.5-1.9-.8,0-.9-.2-.3-.4,1.2-.5,1.2-2.4,0-2.4s-4.1,2.7-4.1,3.7,1,.9,2-.2c.6-.6.9-.6.9,0s-.5,1.2-1.1,1.7c-1.6,1.3-.2,2.5,1.7,1.5,1.1-.6,1.7-.5,2.4.3,1.6,1.9,2.5,0,1.1-2.2ZM263.5,61.4c0-2-1-3.5-1.7-2.4-.6,1,.4,5.3,1,4.9.4-.2.6-1.3.6-2.5ZM330.5,59.3c1.8-.8,3.9-1.5,4.7-1.5,2,0,1.5-1.7-.7-2-.9-.1-2.1.1-2.6.6s-1.3.6-1.8.4c-1.3-.8-3.6,1-5.1,4-1.9,3.7-1.8,4.1.4,1.9,1-1,3.3-2.5,5-3.3ZM261,59.6c-.3-4.4-1.1-5.1-1.1-.9s.4,4.2,1.1,4.2,0-1.5,0-3.3h0ZM243.4,59.1c.2-.7.7-.7,2.2,0,1,.5,2.3.8,2.8.6.6-.2.3-.6-.9-1.1-1.1-.4-2.1-1.1-2.4-1.6-.5-.9-3.3,1.1-3.3,2.3s1.3.7,1.6-.3ZM342.1,56.4c.2-.4,0-.7-.7-.7s-1.1.3-1.1.7.3.7.7.7.9-.3,1.1-.7ZM332.6,54.6c1.3-.4,2.7-.2,3.7.3.9.5,2.3.8,3,.6,1.9-.4,2.2-3.4.5-4.6-1.5-1.2-6.4-1.4-5.7-.3.4.6-.5,1-1.9.8-.2,0-1.4.9-2.5,2.1-2.2,2.3-2,2.4,2.8,1.1h0ZM347.5,53.6c0-.3-.3-.9-.6-1.4-.4-.7-.8-.4-1.4.9-1.1,2.5-1.1,2.7.6,1.8.8-.4,1.4-1,1.4-1.3ZM330.8,49.2c.3-2.1-1.8-2.9-3.3-1.3-1.1,1.1-1.1,1.3.2,2.2,1.8,1.4,2.8,1.1,3.1-.9ZM333.8,36.4c1-1.3,1-1.4-.2-.5-.7.5-1.3,1.3-1.3,1.8s0,.6.2.5c.1-.2.7-1,1.3-1.8ZM340.9,30.5c1.5-2.9,1.9-4.9,1.7-8-.2-2.4-1.1-2-2.5.9-.7,1.4-3,4.3-5.3,6.3s-4.4,4.4-4.8,5.1c-.6,1.2-.5,1.3,1,.8.9-.3,1.9-.7,2.1-1,.2-.2,1.2-1.1,2.2-1.9q1.8-1.4.7,0c-.6.8-1.2,2.4-1.3,3.6v2.2c-.1,0,2.3-2.6,2.3-2.6,1.3-1.4,3.1-3.9,3.9-5.5ZM188.9,304.5c0-.7,2.2-1,2.6-.4.2.4-.2.7-1.1.7s-1.5-.1-1.5-.3ZM207.9,299.4c.9-1.9,3.3-2.9,3.3-1.4s-.4,1-1,1-1,.3-1,.6-.5.8-1.1,1.1c-.9.3-.9,0-.3-1.3ZM418.9,298.3c-.2-.4-.1-.7.3-.7s.8.3.8.7-.1.7-.3.7-.5-.3-.8-.7ZM213.2,295.4c.2-.4.8-.7,1.2-.7s.5.3.3.7-.8.7-1.2.7-.5-.3-.3-.7ZM415.1,292.1c0-1.2.2-1.6.4-.9s.2,1.7,0,2.2c-.2.5-.3,0-.3-1.3h0ZM396.7,289.6c1.3-.9,2.2-1.8,2-2-.2-.2-.9,0-1.5.6-1,.8-1.3.7-2.3-.7-.8-1.2-1.4-1.4-1.9-.8-1,1-1.9,1-1.9.1s.8-.9,1.8-1.1c2.1-.5,2.4-1.9.4-2.4-.8-.2-1.5-1.2-1.7-2.3-.4-2.2,0-3,.9-1.6.4.6,1.4.8,2.7.6,2-.4,2-.4.6.8-1.4,1.1-1.4,1.3-.4,3.1,1.7,3,6.3,3.1,10.9.2,3.3-2.1,3.8-2.2,6.5-1.5,2.9.8,3.5,1.4,2.2,2.3-.4.2-.7,1.2-.7,2.1,0,1.6-.1,1.6-2.9.9-2.4-.6-3.3-.6-4.9.4-1.1.6-3.3,1.4-4.9,1.6-1.6.3-3.9.7-5.1.9l-2.2.4,2.4-1.6h0ZM406.6,286.2l2-2.6-2.3,1.4c-1.3.8-2.9,2-3.5,2.6-1.1,1.2-1,1.3.3,1.3s2.3-1.1,3.5-2.6ZM410.9,285.3c.2-.4.1-.7-.3-.7s-.8.3-.8.7.1.7.3.7.5-.3.8-.7ZM364.2,285.3c-.5-1.2-1.2-2.2-1.5-2.2s-.6-.3-.6-.7c0-1.3,1.6-.7,2,.8.2.8.8,1.3,1.3,1.2.6-.2.8.2.5,1.4-.4,2.2-.5,2.2-1.6-.4h0ZM369.8,286.2c-1-1-.4-1.7,1.7-1.7s3-.5,4-1.2,2.3-1,2.8-.8c.6.2,1.2,0,1.4-.3.2-.4.3-.3.2.2-.1.5-.7.8-1.4.7-1.4-.2-1.6,1-.3,1.5.5.2.7.6.4.8-.3.3-1.2.1-2.1-.3-1.2-.7-1.7-.7-2.2,0-.3.5-.9.7-1.4.4-.5-.3-1.3-.2-1.8.3-.5.4-1.2.6-1.4.3h0ZM383,285.7c0-.1.5-1.2,1.1-2.3,1.1-2,1.1-2,1.1-.3,0,1.7,0,1.7,1.4.5,1.4-1.3,3-1,2.9.5,0,.6-.2.6-.4,0-.3-.6-.7-.7-1.2-.2-1,.8-4.8,2.4-4.8,1.9h0ZM356.7,284.7c-.2-.3.2-1.1.9-1.7,2.6-2.2,3.2-2.2,1.5,0-1.9,2.5-1.9,2.5-2.4,1.7h0ZM355.9,280.2c-.5-1.5-2.1-1.9-2.9-.7-.5.9-1.8,1-1.8.2s1-.9,2.2-1.4c2-.8,2.3-.7,2.6.6.2.8.7,1.4,1,1.4s.6.3.6.7c0,1.3-1.3.8-1.8-.7h0ZM372.2,277.4c0-1.1-.5-1.5-1.5-1.5s-1.3-.3-1.1-.7c.4-.7,4.7.6,4.7,1.5s-.5.9-1.1,1.4c-.9.8-1.1.6-1.1-.6h0ZM349,277.4c0-.4.3-.9.7-1.2.4-.2.7-.1.7.3s-.3.9-.7,1.2c-.4.2-.7.1-.7-.3ZM386.5,275.8c-1.1-1.2-1.1-1.4-.2-1.4s1.8.7,2.7,1.4c1.5,1.4,1.5,1.4.2,1.4-.8,0-2-.7-2.7-1.4h0ZM343.2,276.1c0-1.8,2.9-3.9,5.3-3.9s2.7-.4,3-1.1c.8-2,.5-3.2-.6-2.7-2,.8-1.1-1.1,1.3-2.7,1.3-.9,2.9-2.2,3.5-2.9,1.3-1.4,2.8-1.7,2.8-.6s-.3.7-.7.7-1.6.8-2.6,1.8-1.6,1.8-1.1,1.8.8.5.8,1.1-.4,1.1-.9,1.1c-.5,0-1.4,1.1-2,2.4-.7,1.5-1.7,2.4-2.8,2.6-1.1.2-1.6.6-1.3,1.3.3.7,0,1-1,1s-1.9.2-2.5.4c-.6.2-1.1.2-1.1-.2h0ZM383,273.6c0-.4.3-.6.7-.3.4.2.7.6.7.8s-.3.3-.7.3-.7-.3-.7-.8h0ZM382.1,271c.3-.7-.3-1-1.7-1-2.1,0-5.2-1.8-4.4-2.6s1-.1,1.8.3c.7.4,2.7,1.1,4.4,1.5,3.4.9,4,1.9,1.3,2.4-1.2.2-1.6,0-1.4-.6h0ZM363.6,268.9c-.8-1-.8-1.3.1-2.3,1-1,1.6-1,4.1-.3,1.6.5,2.9,1.1,2.9,1.5,0,.5-4.9,2.3-5.9,2.2-.2,0-.7-.5-1.3-1.2h0ZM346.8,260.6c0-.4.3-.7.8-.7s.6.3.3.7c-.2.4-.6.7-.8.7s-.3-.3-.3-.7ZM220.1,252.5c0-.9.2-1.3.5-.9s.8.9,1.1,1.1c.3.2,0,.6-.5.9-.8.3-1.1,0-1.1-1.1h0ZM234.8,250.7l-.7-2.4,2.2,1.7c2.8,2.2,3.1,3,1,3s-1.9-.6-2.4-2.4h0ZM238,247.6c-2.9-3.1-2.4-4.2.5-1.3,1.4,1.4,2.5,2.7,2.5,3,0,1.1-1.1.5-3.1-1.7ZM231.8,247.2c-1.1-1.2-1.2-1.8-.3-1.8s1.8,2.2,1.4,2.6c-.1.1-.6-.3-1.1-.8h0ZM259.5,244.7c-.2-.4,0-.7.5-.7.7,0,.7-.2-.1-.7-1.4-.9-2.4-.9-1.8,0,.2.4.1.7-.3.7-1.1,0-1.6-1.3-.6-1.6.7-.2.6-.8-.4-2.2-1.7-2.6-1.6-4,.2-2.3.8.7,1.4,1.7,1.4,2.2s.9,1.6,1.9,2.4c1,.8,1.5,1.5,1,1.5s-.7.3-.4.7.1.7-.3.7-.9-.3-1.2-.7h0ZM227,242.4c-1.4-2-.7-2.9.7-1,.6.8,1,1,1,.5s.3-.9.7-.9.7.7.7,1.4c0,1.9-1.8,1.8-3.2-.1ZM232.2,242.8c.5-.2,1.3-.2,1.8,0s0,.4-.9.4-1.4-.2-.9-.4h0ZM252.8,242.7c.7-.2,1.7-.2,2.2,0,.5.2,0,.3-1.3.3-1.2,0-1.6-.2-.9-.4h0ZM251.2,238.8c0-.4.5-.6,1.1-.4,1.9.7,1.2-1.7-1.1-3.9-1.2-1.1-2.2-2.5-2.2-3,0-.6.2-.7.5-.2.3.4,1.4,1.3,2.4,1.9,1.8,1.2,2.9,3.7,2.3,5.5s-3.1,1.2-3.1,0h0ZM244,230.2c0-.4,1-.7,2.2-.7s2.2.3,2.2.7-1,.7-2.2.7-2.2-.3-2.2-.7ZM363.2,216.7c-.9-2.4-.4-3.5.7-1.5,1.3,2.4,1.3,2.6.4,2.6s-.8-.5-1.1-1.1ZM228.9,81.7c0-1,.2-1.4.4-.9s.2,1.3,0,1.8c-.2.5-.4,0-.4-.9ZM228.2,72.9c0-2.9.2-4.3,1-5,1.2-1,1.5,0,.4,1.1-.4.4-.8,2.3-1,4.3l-.3,3.6v-4.1q-.1,0-.1,0ZM321.9,71.6c-.7-.8-1.1-1.8-.9-2.4.2-.6.6-.3.9.7.4,1.2.9,1.6,1.9,1.3,1.1-.3,1.2-.2.5.7-1.1,1.3-.9,1.3-2.5-.4h0ZM239.4,64.3c.9-.9,1.7-1.5,1.9-1.4.2.2-.6.9-1.6,1.7l-1.9,1.4,1.6-1.7ZM320,54.7c0-.5.5-1.6,1.1-2.4.9-1.2,1.1-1.2,1.1-.2,0,.7.2,1.8.5,2.5.4,1.1.3,1.1-.4.2-.5-.7-.8-.8-.8-.2,0,.5-.3.9-.7.9s-.7-.4-.7-.9ZM325.1,53.5c0-.4.3-.7.8-.7s.6.3.3.7-.6.7-.8.7-.3-.3-.3-.7Z" inkscape:connector-curvature="0"/>
  </g>
</svg>