<?xml version="1.0" encoding="UTF-8"?>
<svg id="Layer_2" xmlns="http://www.w3.org/2000/svg" version="1.1" viewBox="0 0 598.2 350.3">
  <!-- Generator: Adobe Illustrator 29.0.1, SVG Export Plug-In . SVG Version: 2.1.0 Build 192)  -->
  <defs>
    <style>
      .st0 {
        fill: #f4f4f4;
      }
    </style>
  </defs>
  <path class="st0" d="M380.1,170.8h-162c-7.2,0-13.1-5.9-13.1-13.1V29.1c0-7.2,5.9-13.1,13.1-13.1h162c7.2,0,13.1,5.9,13.1,13.1v128.7c0,7.2-5.9,13.1-13.1,13.1ZM218.1,18c-6.1,0-11.1,5-11.1,11.1v128.7c0,6.1,5,11.1,11.1,11.1h162c6.1,0,11.1-5,11.1-11.1V29.1c0-6.1-5-11.1-11.1-11.1h-162Z"/>
  <path class="st0" d="M372.7,155.8h-146.5c-4.8,0-8.7-3.9-8.7-8.7V37.2c0-4.8,3.9-8.7,8.7-8.7h146.5c4.8,0,8.7,3.9,8.7,8.7v110c0,4.8-3.9,8.7-8.7,8.7ZM226.2,30.5c-3.7,0-6.7,3-6.7,6.7v110c0,3.7,3,6.7,6.7,6.7h146.5c3.7,0,6.7-3,6.7-6.7V37.2c0-3.7-3-6.7-6.7-6.7h-146.5Z"/>
  <path class="st0" d="M349.6,141.7h-101V43.2h101v98.4ZM250.6,139.7h97V45.2h-97v94.4Z"/>
  <path class="st0" d="M310.5,327.6h-23.2c-36.2,0-65.6-26.2-65.6-58.4v-32.6h-4.8v-2h6.8v34.6c0,31.1,28.6,56.4,63.6,56.4h23.2c35.1,0,63.6-25.3,63.6-56.4v-34.6h8v2h-6v32.6c0,32.2-29.4,58.4-65.6,58.4Z"/>
  <path class="st0" d="M312.2,334.3h-25.2c-39.2,0-71.1-26.2-71.1-58.4v-69.1c0-.1-.2-4.6,3.1-8.1,2.4-2.5,6-3.8,10.6-3.8h144.6c1.3,0,7.8.6,9,11.8h0v69.2c0,32.2-31.9,58.4-71.1,58.4ZM229.6,196.8c-4,0-7.1,1.1-9.1,3.1-2.7,2.8-2.6,6.7-2.6,6.7v69.2c0,31.1,31,56.4,69.1,56.4h25.2c38.1,0,69.1-25.3,69.1-56.4v-69.1c-1.1-9.5-6.1-10-7-10h-144.6Z"/>
  <path class="st0" d="M311.5,218.5h-15.9c-1.6,0-3-1.3-3-3v-.3c0-1.6,1.3-3,3-3h15.9c1.6,0,3,1.3,3,3v.3c0,1.6-1.3,3-3,3ZM295.6,214.2c-.5,0-1,.4-1,1v.3c0,.5.4,1,1,1h15.9c.5,0,1-.4,1-1v-.3c0-.5-.4-1-1-1h-15.9Z"/>
  <path class="st0" d="M343.6,218.5h-15.9c-1.6,0-3-1.3-3-3v-.3c0-1.6,1.3-3,3-3h15.9c1.6,0,3,1.3,3,3v.3c0,1.6-1.3,3-3,3ZM327.7,214.2c-.5,0-1,.4-1,1v.3c0,.5.4,1,1,1h15.9c.5,0,1-.4,1-1v-.3c0-.5-.4-1-1-1h-15.9Z"/>
  <path class="st0" d="M319,271.3c-6.5,0-11.9-5.3-11.9-11.9s5.3-11.9,11.9-11.9,11.9,5.3,11.9,11.9-5.3,11.9-11.9,11.9ZM319,249.6c-5.4,0-9.9,4.4-9.9,9.9s4.4,9.9,9.9,9.9,9.9-4.4,9.9-9.9-4.4-9.9-9.9-9.9Z"/>
  <path class="st0" d="M350.3,252.8c-6.5,0-11.9-5.3-11.9-11.9s5.3-11.9,11.9-11.9,11.9,5.3,11.9,11.9-5.3,11.9-11.9,11.9ZM350.3,231c-5.4,0-9.9,4.4-9.9,9.9s4.4,9.9,9.9,9.9,9.9-4.4,9.9-9.9-4.4-9.9-9.9-9.9Z"/>
  <rect class="st0" x="336.1" y="281" width="25.2" height="2"/>
  <rect class="st0" x="330.7" y="286.1" width="25.2" height="2"/>
  <rect class="st0" x="325.8" y="291.1" width="25.2" height="2"/>
  <path class="st0" d="M263.8,274.8c-1.5,0-2.9-.6-4.1-1.7l-19.5-19.5c-1.1-1.1-1.7-2.5-1.7-4.1s.6-3,1.7-4.1l19.5-19.5c2.2-2.2,5.9-2.2,8.1,0l19.5,19.5c1.1,1.1,1.7,2.5,1.7,4.1s-.6,3-1.7,4.1l-19.5,19.5c-1.1,1.1-2.6,1.7-4.1,1.7ZM261.1,271.7c1.5,1.5,3.8,1.5,5.3,0l19.5-19.5c1.5-1.5,1.5-3.8,0-5.3l-19.5-19.5c-1.5-1.5-3.8-1.5-5.3,0l-19.5,19.5c-1.5,1.5-1.5,3.8,0,5.3l19.5,19.5Z"/>
  <path class="st0" d="M263.8,268.9c-2.5,0-4.5-2-4.5-4.5v-10.4h-10.4c-2.5,0-4.5-2-4.5-4.5s2-4.5,4.5-4.5h10.4v-10.4c0-2.5,2-4.5,4.5-4.5s4.5,2,4.5,4.5v10.4h10.4c2.5,0,4.5,2,4.5,4.5s-2,4.5-4.5,4.5h-10.4v10.4c0,2.5-2,4.5-4.5,4.5ZM249,247.2c-1.4,0-2.5,1.1-2.5,2.5s1.1,2.5,2.5,2.5h12.4v12.4c0,1.4,1.1,2.5,2.5,2.5s2.5-1.1,2.5-2.5v-12.4h12.4c1.4,0,2.5-1.1,2.5-2.5s-1.1-2.5-2.5-2.5h-12.4v-12.4c0-1.4-1.1-2.5-2.5-2.5s-2.5,1.1-2.5,2.5v12.4h-12.4Z"/>
  <path class="st0" d="M365.8,177.4h-131.5c-1.8,0-3.3-1.5-3.3-3.3v-.4c0-1.8,1.5-3.3,3.3-3.3h131.5c1.8,0,3.3,1.5,3.3,3.3v.4c0,1.8-1.5,3.3-3.3,3.3ZM234.3,172.4c-.7,0-1.3.6-1.3,1.3v.4c0,.7.6,1.3,1.3,1.3h131.5c.7,0,1.3-.6,1.3-1.3v-.4c0-.7-.6-1.3-1.3-1.3h-131.5Z"/>
  <path class="st0" d="M365.8,183.3h-131.5c-1.8,0-3.3-1.5-3.3-3.3v-.4c0-1.8,1.5-3.3,3.3-3.3h131.5c1.8,0,3.3,1.5,3.3,3.3v.4c0,1.8-1.5,3.3-3.3,3.3ZM234.3,178.2c-.7,0-1.3.6-1.3,1.3v.4c0,.7.6,1.3,1.3,1.3h131.5c.7,0,1.3-.6,1.3-1.3v-.4c0-.7-.6-1.3-1.3-1.3h-131.5Z"/>
  <path class="st0" d="M365.8,189.3h-131.5c-1.8,0-3.3-1.5-3.3-3.3v-.4c0-1.8,1.5-3.3,3.3-3.3h131.5c1.8,0,3.3,1.5,3.3,3.3v.4c0,1.8-1.5,3.3-3.3,3.3ZM234.3,184.2c-.7,0-1.3.6-1.3,1.3v.4c0,.7.6,1.3,1.3,1.3h131.5c.7,0,1.3-.6,1.3-1.3v-.4c0-.7-.6-1.3-1.3-1.3h-131.5Z"/>
  <path class="st0" d="M365.8,196.1h-131.5c-1.8,0-3.3-1.5-3.3-3.3v-.4c0-1.8,1.5-3.3,3.3-3.3h131.5c1.8,0,3.3,1.5,3.3,3.3v.4c0,1.8-1.5,3.3-3.3,3.3ZM234.3,191.1c-.7,0-1.3.6-1.3,1.3v.4c0,.7.6,1.3,1.3,1.3h131.5c.7,0,1.3-.6,1.3-1.3v-.4c0-.7-.6-1.3-1.3-1.3h-131.5Z"/>
</svg>