<?xml version="1.0" encoding="UTF-8"?>
<svg id="Layer_3" xmlns="http://www.w3.org/2000/svg" version="1.1" xmlns:cc="http://creativecommons.org/ns#" xmlns:dc="http://purl.org/dc/elements/1.1/" xmlns:rdf="http://www.w3.org/1999/02/22-rdf-syntax-ns#" viewBox="0 0 598.2 350.3">
  <!-- Generator: Adobe Illustrator 29.0.1, SVG Export Plug-In . SVG Version: 2.1.0 Build 192)  -->
  <defs>
    <style>
      .st0 {
        fill: none;
        stroke: #f4f4f4;
        stroke-miterlimit: 10;
        stroke-width: 2px;
      }

      .st1 {
        fill: #f4f4f4;
      }
    </style>
  </defs>
  <circle class="st0" cx="508.5" cy="202.1" r="18.8"/>
  <circle class="st0" cx="461.4" cy="169.1" r="18.8"/>
  <circle class="st0" cx="416.7" cy="202.1" r="18.8"/>
  <circle class="st0" cx="462.6" cy="236.3" r="18.8"/>
  <rect class="st0" x="252.9" y="229" width="34.9" height="11" rx="5.5" ry="5.5"/>
  <rect class="st0" x="305.5" y="229" width="34.9" height="11" rx="5.5" ry="5.5"/>
  <path class="st0" d="M190,89.6s-4.4-6.8-10.6-7.1-33.9-.6-67.4,17.4-56.2,43.3-65.7,61.3-18,51.2-5,83.6,45.3,48.9,45.3,48.9c0,0,23.3,16.2,64.8,8.5s42.1-18.8,107.8-25.3,129.3,7.4,129.3,7.4c0,0,56.5,20.6,83.6,16.5s56.8-20.3,68.3-39.5,22.7-54.5,14.1-84.2-44.5-65.7-68.6-77.7-55.1-19.4-60.7-20-16.8-2.4-18.8,0-8.5,6.8-8.5,6.8c0,0-48-34.7-104-33.3s-104,36.8-104,36.8Z"/>
  <path id="circle9" class="st1" d="M128.3,154.6c-27.7,0-50.2,22.5-50.2,50.2s22.5,50.2,50.2,50.2,50.3-22.5,50.3-50.2-22.5-50.2-50.3-50.2ZM128.3,156.1c27,0,48.8,21.8,48.8,48.8s-21.9,48.8-48.8,48.8-48.8-21.8-48.8-48.8c0-27,21.8-48.8,48.8-48.8Z"/>
  <path id="path11" class="st1" d="M119.9,167.8c-2.3,0-4.2,1.9-4.2,4.2v19.8c0,.4,0,.5,0,.4,0,0,0,0-.5,0h-19.7c-2.3,0-4.3,1.9-4.3,4.2v16.8c0,2.3,1.9,4.2,4.3,4.2h19.6c.3,0,.5,0,.5,0,0,0,0,0,0,.4v19.7c0,2.3,1.9,4.2,4.2,4.2h16.8c2.3,0,4.2-1.9,4.2-4.2v-19.8c0-.2,0-.3,0-.3,0,0,.1-.1.4-.1h19.7c2.3,0,4.3-1.9,4.3-4.2v-16.8c0-2.3-1.9-4.2-4.3-4.2h-19.7c-.2,0-.3,0-.4-.1,0,0,0-.1,0-.3v-19.7c0-2.3-1.9-4.2-4.2-4.2h-16.8ZM119.9,169.3h16.8c1.6,0,2.8,1.2,2.8,2.8v19.8c0,.5.2,1,.5,1.4.4.4.9.5,1.4.5h19.7c1.6,0,2.8,1.2,2.8,2.8v16.8c0,1.6-1.3,2.8-2.8,2.8h-19.7c-.5,0-1.1.2-1.4.5-.4.4-.5.9-.5,1.3v19.8c0,1.6-1.2,2.8-2.8,2.8h-16.8c-1.6,0-2.8-1.2-2.8-2.8v-19.7c0-.5-.1-1.1-.5-1.4-.4-.4-.9-.5-1.4-.5h-19.6c-1.6,0-2.8-1.2-2.8-2.8v-16.8c0-1.6,1.3-2.8,2.8-2.8h19.7c.6,0,1.2,0,1.6-.5.4-.4.4-.9.4-1.4v-19.8c0-1.6,1.2-2.8,2.8-2.8h0Z"/>
  <path id="path13" class="st1" d="M118.3,165.9c-2.3,0-4.2,1.9-4.2,4.2v19.8c0,.4,0,.5,0,.4,0,0,0,0-.5,0h-19.7c-2.3,0-4.3,1.9-4.3,4.3v20.7c0,2.3,1.9,4.3,4.3,4.3h19.6c.3,0,.5,0,.5,0,0,0,0,0,0,.4v19.7c0,2.3,1.9,4.2,4.2,4.2h20c2.3,0,4.2-1.9,4.2-4.2v-19.8c0-.2,0-.3,0-.3,0,0,.1,0,.4,0h19.7c2.3,0,4.3-1.9,4.3-4.3v-20.7c0-2.3-1.9-4.3-4.3-4.3h-19.7c-.2,0-.3,0-.4,0,0,0,0-.1,0-.3v-19.8c0-2.3-1.9-4.2-4.2-4.2h-20ZM118.3,167.3h20c1.6,0,2.8,1.2,2.8,2.8v19.8c0,.5.2,1,.5,1.4.4.4.9.5,1.4.5h19.7c1.6,0,2.8,1.3,2.8,2.8v20.7c0,1.6-1.3,2.8-2.8,2.8h-19.7c-.5,0-1.1.1-1.4.5-.4.4-.5.9-.5,1.4v19.8c0,1.6-1.2,2.8-2.8,2.8h-20c-1.6,0-2.8-1.2-2.8-2.8v-19.7c0-.5-.1-1.1-.5-1.4s-.9-.5-1.4-.5h-19.6c-1.6,0-2.8-1.3-2.8-2.8v-20.7c0-1.6,1.3-2.8,2.8-2.8h19.7c.6,0,1.2,0,1.6-.5.4-.4.4-.9.4-1.4v-19.8c0-1.6,1.2-2.8,2.8-2.8h0Z"/>
  <path id="circle15" class="st1" d="M128.3,195.4c-5.2,0-9.5,4.3-9.5,9.5s4.3,9.5,9.5,9.5,9.5-4.3,9.5-9.5-4.3-9.5-9.5-9.5ZM128.3,196.8c4.5,0,8.1,3.6,8.1,8.1s-3.6,8.1-8.1,8.1-8.1-3.6-8.1-8.1c0-4.5,3.6-8.1,8.1-8.1Z"/>
  <path id="path17" class="st1" d="M128.3,170.9c-1.1,0-2,.6-2.5,1.5h0s0,0,0,0l-5.5,11.5c-.2.4-.3.8-.3,1.2,0,1.6,1.3,2.8,2.8,2.8h10.8c1.6,0,2.8-1.3,2.8-2.8s0-.9-.3-1.2l-5.5-11.5h0s0,0,0,0c-.5-.8-1.4-1.4-2.4-1.4h0ZM128.3,172.4c.5,0,.9.3,1.2.7h0s5.5,11.5,5.5,11.5c0,.2.1.4.1.6,0,.8-.6,1.4-1.4,1.4h-10.8c-.8,0-1.4-.6-1.4-1.4s0-.4.1-.6l5.5-11.4h0c.2-.4.7-.7,1.2-.7h0Z"/>
  <path id="path19" class="st1" d="M108.5,196.6c-.4,0-.8,0-1.2.3l-11.5,5.5h0c-.8.5-1.4,1.4-1.4,2.4s.6,2,1.4,2.5h0s0,0,0,0l11.5,5.5h0c.4.2.8.3,1.2.3,1.6,0,2.8-1.3,2.8-2.8v-10.8c0-1.6-1.3-2.8-2.8-2.8h0ZM108.5,198.1c.8,0,1.4.6,1.4,1.4v10.8c0,.8-.6,1.4-1.4,1.4s-.4,0-.6-.1h0l-11.4-5.5s0,0,0,0c-.4-.2-.7-.7-.7-1.2s.2-.9.6-1.1l11.5-5.5c.2,0,.4-.1.6-.1h0Z"/>
  <path id="path21" class="st1" d="M122.9,221.8c-1.6,0-2.8,1.3-2.8,2.8s0,.8.3,1.2l5.5,11.5h0s0,0,0,0c.5.8,1.4,1.4,2.4,1.4s2-.6,2.5-1.5h0s0,0,0,0l5.5-11.5h0c.2-.4.3-.8.3-1.2,0-1.6-1.3-2.8-2.8-2.8h-10.8ZM122.9,223.3h10.8c.8,0,1.4.6,1.4,1.4s0,.4-.1.6l-5.5,11.4s0,0,0,0c-.2.4-.7.7-1.2.7s-.9-.2-1.1-.6h0c0,0,0,0,0,0l-5.5-11.4s0,0,0,0c0-.2-.1-.4-.1-.6,0-.8.6-1.4,1.4-1.4h0Z"/>
  <path id="path23" class="st1" d="M148.1,196.6c-1.6,0-2.8,1.3-2.8,2.8v10.8c0,1.6,1.3,2.8,2.8,2.8s.8,0,1.2-.3l11.5-5.5h0c.8-.5,1.4-1.4,1.4-2.4s-.6-2-1.4-2.5h0s0,0,0,0l-11.5-5.5c-.4-.2-.8-.3-1.2-.3h0ZM148.1,198.1c.2,0,.4,0,.6.1,0,0,0,0,0,0l11.4,5.5h0c.4.3.7.7.7,1.2s-.2.9-.6,1.2c0,0,0,0,0,0l-11.5,5.5c-.2,0-.4.1-.6.1-.8,0-1.4-.6-1.4-1.4v-10.8c0-.8.6-1.4,1.4-1.4h0Z"/>
  <path class="st0" d="M190,89.6s9.9,11.8,23.5,5.8,33-22.4,77.4-22.7,82.2,18.8,82.2,18.8c0,0,10.9,5.3,17.7,1.2s7.1-6.7,7.1-6.7"/>
  <path class="st0" d="M228,115.4c-.4-3.5,6.2-7.7,6.2-7.7,0,0,30.3-15.9,64.9-15.5s46.9,10.4,54.2,15,5.5,10.2,5.5,10.2c0,0-6,26.9-7.1,30.5s-2.4,4.9-6,6.8-14.6-3.1-14.6-3.1c0,0-24.7-5.5-39.1-5.1s-31.6,5.4-40.9,8.1-12.8-4.4-12.8-4.4l-10.4-34.9Z"/>
</svg>