<?xml version="1.0" encoding="UTF-8"?>
<svg xmlns="http://www.w3.org/2000/svg" version="1.1" xmlns:cc="http://creativecommons.org/ns#" xmlns:dc="http://purl.org/dc/elements/1.1/" xmlns:inkscape="http://www.inkscape.org/namespaces/inkscape" xmlns:ns="&amp;ns_sfw;" xmlns:rdf="http://www.w3.org/1999/02/22-rdf-syntax-ns#" xmlns:sodipodi="http://sodipodi.sourceforge.net/DTD/sodipodi-0.dtd" xmlns:svg="http://www.w3.org/2000/svg" viewBox="0 0 598.2 350.3">
  <!-- Generator: Adobe Illustrator 29.1.0, SVG Export Plug-In . SVG Version: 2.1.0 Build 142)  -->
  <defs>
    <style>
      .st0 {
        fill: #f4f4f4;
      }
    </style>
  </defs>
  <g id="Layer_3" inkscape:version="1.0 (4035a4fb49, 2020-05-01)">
    <g>
      <path class="st0" d="M71.7,139.3c10.1,0,18.3-8.2,18.3-18.3s-8.2-18.3-18.3-18.3-18.3,8.2-18.3,18.3c0,10.1,8.2,18.3,18.3,18.3ZM54.9,121.7h3.3c.4,6.9,5.9,12.4,12.7,12.7v3.3c-8.7-.4-15.7-7.3-16-16ZM71.7,109c6.7,0,12,5.4,12,12s-5.4,12-12,12-12-5.4-12-12,5.4-12,12-12ZM72.5,137.8v-3.3c6.9-.4,12.4-5.9,12.7-12.7h3.3c-.4,8.7-7.3,15.7-16,16ZM88.5,120.2h-3.3c-.4-6.9-5.9-12.4-12.7-12.7v-3.3c8.7.4,15.7,7.3,16,16ZM71,104.2v3.3c-6.9.4-12.4,5.9-12.7,12.7h-3.3c.4-8.7,7.3-15.7,16-16Z"/>
      <path class="st0" d="M71.5,157.5h0c-5,0-9.1,4.1-9.1,9.1s4.1,9.1,9.1,9.1,8.9-3.9,9.1-8.8c0,0,0,0,0,0,0,0,0-.2,0-.3,0-.1,0-.2,0-.3-.2-4.9-4.1-8.8-9.1-8.8ZM71.5,174.2c-4.2,0-7.6-3.4-7.6-7.6,0-4.2,3.4-7.6,7.6-7.6s7.6,3.4,7.6,7.6-3.4,7.6-7.6,7.6Z"/>
      <path class="st0" d="M71.5,162l-4.5,7.8h9l-.7-1.1-3.8-6.6ZM69.7,168.3l1.9-3.3,1.9,3.3h-3.8Z"/>
      <path class="st0" d="M80.7,200.5c0-5-4.1-9.1-9.1-9.1s-8.9,3.9-9.1,8.8h0c0,0,0,.2,0,.3,0,.1,0,.2,0,.3.2,4.9,4.1,8.8,9.1,8.8h0c5,0,9.1-4.1,9.1-9.1ZM71.5,208.1c-4.2,0-7.6-3.4-7.6-7.6s3.4-7.6,7.6-7.6,7.6,3.4,7.6,7.6-3.4,7.6-7.6,7.6Z"/>
      <path class="st0" d="M67.7,198.4l3.8,6.6,4.5-7.8h-9l.7,1.1ZM73.4,198.8l-1.9,3.3-1.9-3.3h3.8Z"/>
      <path class="st0" d="M54.9,174.5h0c0,0-.2,0-.3,0-.1,0-.2,0-.3,0-4.9.2-8.8,4.1-8.8,9.1h0c0,5,4.1,9.1,9.1,9.1s9.1-4.1,9.1-9.1-3.9-8.9-8.8-9.1ZM54.6,191.2c-4.2,0-7.6-3.4-7.6-7.6s3.4-7.6,7.6-7.6,7.6,3.4,7.6,7.6-3.4,7.6-7.6,7.6Z"/>
      <path class="st0" d="M50,183.5l7.8,4.5v-9l-1.1.7-6.6,3.8ZM56.3,185.4l-3.3-1.9,3.3-1.9v3.8Z"/>
      <path class="st0" d="M88.5,174.4c-5,0-9.1,4.1-9.1,9.1s3.9,8.9,8.8,9.1c0,0,0,0,0,0,0,0,.2,0,.3,0,.1,0,.2,0,.3,0,4.9-.2,8.8-4.1,8.8-9.1h0c0-5-4.1-9.1-9.1-9.1ZM88.5,191.2c-4.2,0-7.6-3.4-7.6-7.6s3.4-7.6,7.6-7.6,7.6,3.4,7.6,7.6-3.4,7.6-7.6,7.6Z"/>
      <path class="st0" d="M85.3,188l1.1-.7,6.6-3.8-7.8-4.5v9ZM86.8,181.6l3.3,1.9-3.3,1.9v-3.8Z"/>
      <path class="st0" d="M99.9,84.3h-11.3c-.5,0-1,.4-1,1v2.9c0,.5.4,1,1,1h11.3c.5,0,1-.4,1-1v-2.9c0-.5-.4-1-1-1ZM99.4,87.7h-10.3v-1.9h10.3v1.9Z"/>
      <path class="st0" d="M501.6,91.6c0,.9.7,1.6,1.6,1.6h2.4c.9,0,1.6-.7,1.6-1.6v-1.9h1.9c.9,0,1.6-.7,1.6-1.6v-2.4c0-.9-.7-1.6-1.6-1.6h-1.9v-1.9c0-.9-.7-1.6-1.6-1.6h-2.4c-.9,0-1.6.7-1.6,1.6v1.9h-1.9c-.9,0-1.6.7-1.6,1.6v2.4c0,.9.7,1.6,1.6,1.6h1.9v1.9ZM499.7,88.2s0,0,0,0v-2.4s0,0,0,0h3.4v-3.4s0,0,0,0h2.4s0,0,0,0v3.4h3.4s0,0,0,0v2.4s0,0,0,0h-3.4v3.4s0,0,0,0h-2.4s0,0,0,0v-3.4h-3.4Z"/>
      <path class="st0" d="M89,218.3h-10.2c-1.2,0-2.2,1-2.2,2.2v10.2c0,1.2,1,2.2,2.2,2.2h10.2c1.2,0,2.2-1,2.2-2.2v-10.2c0-1.2-1-2.2-2.2-2.2ZM89.7,230.7c0,.4-.3.7-.7.7h-10.2c-.4,0-.7-.3-.7-.7v-10.2c0-.4.3-.7.7-.7h10.2c.4,0,.7.3.7.7v10.2Z"/>
      <path class="st0" d="M83.9,220.9c-2.6,0-4.7,2.1-4.7,4.7s2.1,4.7,4.7,4.7,4.7-2.1,4.7-4.7-2.1-4.7-4.7-4.7ZM83.9,228.8c-1.8,0-3.2-1.4-3.2-3.2s1.4-3.2,3.2-3.2,3.2,1.4,3.2,3.2-1.4,3.2-3.2,3.2Z"/>
      <polygon class="st0" points="511.6 224.6 512.5 224.6 512.5 228 516.3 228 516.3 224.6 517.2 224.6 514.4 221.8 511.6 224.6"/>
      <path class="st0" d="M514.4,217.8c-3.9,0-7,3.2-7,7s3.2,7,7,7,7-3.1,7-7-3.1-7-7-7ZM514.4,230.4c-3.1,0-5.5-2.5-5.5-5.5s2.5-5.5,5.5-5.5,5.5,2.5,5.5,5.5-2.5,5.5-5.5,5.5Z"/>
      <path class="st0" d="M514.4,214.6c-5.6,0-10.2,4.6-10.2,10.2s4.6,10.2,10.2,10.2,10.2-4.6,10.2-10.2-4.6-10.2-10.2-10.2ZM514.4,233.6c-4.8,0-8.7-3.9-8.7-8.7s3.9-8.7,8.7-8.7,8.7,3.9,8.7,8.7-3.9,8.7-8.7,8.7Z"/>
      <path class="st0" d="M526.5,164.8c-10.1,0-18.2,8.1-18.3,18.2,0,0,0,0,0,.1,0,0,0,0,0,.1,0,0,0,0,0,0,0,10,8.3,18.2,18.3,18.2h0c10.1,0,18.3-8.2,18.3-18.3s-8.2-18.3-18.3-18.3ZM543.3,182.4h-3.3c-.4-6.9-5.9-12.4-12.7-12.7v-3.3c8.7.4,15.7,7.3,16,16ZM526.5,195.1c-6.7,0-12-5.4-12-12s5.4-12,12-12,12,5.4,12,12-5.4,12-12,12ZM525.7,166.3v3.3c-6.9.4-12.3,5.9-12.7,12.7h-3.3c.4-8.7,7.3-15.7,16-16ZM509.7,183.9h3.3c.4,6.9,5.9,12.4,12.7,12.7v3.3c-8.7-.4-15.7-7.3-16-16ZM527.2,199.9v-3.3c6.9-.4,12.4-5.9,12.7-12.7h3.3c-.4,8.7-7.3,15.7-16,16Z"/>
      <path class="st0" d="M517.6,138.2s0,0,0,0c0,0,0,.2,0,.3,0,0,0,.2,0,.3h0c.2,4.9,4.1,8.8,9.1,8.8h0c5,0,9.1-4.1,9.1-9.1s-4.1-9.1-9.1-9.1-8.9,3.9-9.1,8.8ZM534.3,138.5c0,4.2-3.4,7.6-7.6,7.6s-7.6-3.4-7.6-7.6,3.4-7.6,7.6-7.6,7.6,3.4,7.6,7.6Z"/>
      <path class="st0" d="M526.6,113.8c4.9,0,8.9-4,9.1-8.8,0,0,0-.2,0-.3,0,0,0,0,0,0,0,0,0-.2,0-.3,0,0,0,0,0,0-.2-4.9-4.1-8.8-9.1-8.8h0c-5,0-9.1,4.1-9.1,9.1s4.1,9.1,9.1,9.1ZM526.6,97c4.2,0,7.6,3.4,7.6,7.6s-3.4,7.6-7.6,7.6-7.6-3.4-7.6-7.6,3.4-7.6,7.6-7.6Z"/>
      <path class="st0" d="M543.6,112.4c-5,0-9.1,4.1-9.1,9.1s3.9,8.9,8.8,9.1c0,0,.2,0,.3,0,0,0,.2,0,.3,0h0c4.9-.2,8.8-4.1,8.8-9.1h0c0-5-4.1-9.1-9.1-9.1ZM543.6,129.2c-4.2,0-7.6-3.4-7.6-7.6s3.4-7.6,7.6-7.6,7.6,3.4,7.6,7.6-3.4,7.6-7.6,7.6Z"/>
      <path class="st0" d="M518.8,121.6c0-4.9-3.9-8.9-8.8-9.1h0c0,0-.2,0-.3,0,0,0-.2,0-.3,0h0c-4.9.2-8.8,4.1-8.8,9.1h0c0,5,4.1,9.1,9.1,9.1s9.1-4.1,9.1-9.1ZM502.1,121.6c0-4.2,3.4-7.6,7.6-7.6s7.6,3.4,7.6,7.6-3.4,7.6-7.6,7.6-7.6-3.4-7.6-7.6Z"/>
      <path class="st0" d="M566.6,111.7c0-5.8-1-11.3-2.8-16.4l2.6-2.1-.2-.5c-7.7-19.1-26.7-32.8-50-32.8h-12.9v2.8h-12v.8c0,2,0,5.2,0,9.5-1.9-.1-3.4-.7-4.5-1.7-1.3-1.2-2.1-3-2.1-5.9v-.8H190.5v-2.9h-12v1.4h-9.1v-1.1h-12.3v2.6h-43.5v.8c0,2.9-.8,4.7-2.1,5.9-1.1,1-2.7,1.6-4.7,1.7,0-4.3,0-7.6,0-9.5v-.8h-.8c-11.6,0-6.7,0-11.2,0v-2.8h-12.9c-23.2,0-42.3,13.7-50,32.8l-.2.5,2.6,2.1c-1.8,5.1-2.8,10.7-2.8,16.4,0,12.5.1,38,0,63.7-.1,25.7,0,52.4,0,66,0,27,21.9,49,49,49h26.3v-.8c0-.2,0-.5,0-.7h384.5c0,.3,0,.5,0,.7v.8h26.3c27,0,49-21.9,49-49s-.1-38,0-63.7c.1-25.7,0-52.4,0-66ZM504.9,61.4h11.4c22.4,0,40.8,13.1,48.3,31.4l-1.3,1c-4.5-11.4-13-20.6-23.9-26,0,0,0,0,0,0-.4-.2-.8-.4-1.2-.6-.2-.1-.5-.2-.7-.3-.4-.2-.7-.3-1.1-.5-.3-.1-.7-.3-1-.4-.3-.1-.6-.2-.9-.3-.6-.2-1.3-.4-1.9-.6-.2,0-.5-.1-.7-.2-.5-.1-1-.3-1.5-.4-.2,0-.5-.1-.7-.2-.5-.1-1.1-.3-1.6-.4-.2,0-.4,0-.5-.1-.7-.1-1.5-.3-2.2-.4,0,0-.2,0-.3,0-.6,0-1.3-.2-2-.2-.2,0-.4,0-.6,0-.6,0-1.1,0-1.7-.1-.2,0-.4,0-.6,0-.8,0-1.5,0-2.3,0h-12.8v-1.3ZM189,63.3v1.4h-9v-1.4h9ZM158.5,63.5h9.3v1.1h-9.3v-1.1ZM33.7,92.7c7.6-18.3,25.9-31.4,48.3-31.4h11.4v1.3h-12.8c-.8,0-1.5,0-2.3,0-.2,0-.5,0-.7,0-.5,0-1.1,0-1.6.1-.3,0-.5,0-.8,0-.6,0-1.1.1-1.7.2-.2,0-.4,0-.5,0-.7.1-1.4.2-2.1.4-.3,0-.6.1-.9.2-.4,0-.8.2-1.2.3-.3,0-.7.2-1,.3-.3,0-.7.2-1,.3-1.5.4-2.9.9-4.3,1.5-.1,0-.2,0-.3.1-.5.2-1,.4-1.6.7,0,0,0,0-.1,0-11.6,5.2-20.9,14.9-25.5,26.8l-1.3-1ZM105.3,183.9c0,25.9,0,91.7,0,105h-24.8c-26.2,0-47.5-21.2-47.5-47.5,0-13.6-.1-40.3,0-66,.1-25.7,0-51.2,0-63.7s1-11.2,2.8-16.2v-.2c0,0,.1,0,.1-.1.2-.6.4-1.1.7-1.7.1-.3.2-.6.4-.9.2-.3.3-.7.5-1,.1-.3.3-.6.4-.9.2-.3.3-.6.5-1,.2-.3.3-.6.5-.9.2-.4.5-.8.7-1.2.2-.4.5-.8.8-1.2.2-.3.4-.6.6-.9.2-.3.4-.6.6-.9.2-.3.4-.5.6-.8.2-.3.4-.6.6-.9.2-.3.4-.5.6-.8.4-.4.7-.9,1.1-1.3.3-.3.5-.6.8-.9.2-.3.5-.5.7-.8.2-.2.4-.5.7-.7.3-.3.5-.5.8-.8.2-.2.5-.5.7-.7.3-.2.5-.5.8-.7.3-.3.6-.5.9-.8.4-.3.8-.7,1.2-1,.3-.2.6-.5.9-.7.3-.2.5-.4.8-.6.3-.2.6-.4.9-.6.3-.2.5-.4.8-.6.3-.2.7-.4,1-.6.2-.2.5-.3.7-.5.5-.3,1.1-.6,1.7-1,.2-.1.5-.3.8-.4.4-.2.7-.4,1.1-.6.3-.1.5-.3.8-.4.4-.2.8-.3,1.1-.5.3-.1.5-.2.8-.3.6-.2,1.2-.5,1.7-.7.2,0,.4-.1.5-.2.5-.2,1.1-.4,1.6-.5.2,0,.5-.2.7-.2.4-.1.9-.3,1.3-.4.3,0,.5-.1.8-.2.5-.1,1-.2,1.5-.4.2,0,.4,0,.6-.1.7-.1,1.4-.3,2.1-.4.2,0,.4,0,.6,0,.5,0,1.1-.1,1.6-.2.2,0,.5,0,.7,0,.5,0,1,0,1.6-.1.2,0,.5,0,.7,0,.7,0,1.5,0,2.2,0h24.8c0,14.3,0,93.9,0,119.7ZM106.8,287.4c0-16.8,0-78.7,0-103.5,0-21.9,0-82.7,0-109.5,2.2-.1,4.2-.7,5.7-2.1,1.5-1.4,2.3-3.5,2.4-6.3h368.5c.1,2.7.9,4.9,2.4,6.3,1.4,1.3,3.3,1.9,5.5,2.1,0,23.7,0,73.2,0,94.7,0,24.9,0,99.8,0,118.3H106.8ZM565.1,177.7c-.1,25.7,0,51.2,0,63.7,0,26.2-21.2,47.5-47.5,47.5h-24.8c0-14.3,0-93.9,0-119.7,0-25.9,0-91.7,0-105h24.8c.8,0,1.5,0,2.2,0,.2,0,.4,0,.6,0,.6,0,1.1,0,1.7.1.2,0,.4,0,.6,0,.6,0,1.2.1,1.8.2.1,0,.2,0,.3,0,.7.1,1.5.2,2.2.4,0,0,.1,0,.2,0,.7.1,1.3.3,2,.5.1,0,.3,0,.4.1.6.2,1.2.3,1.8.5.1,0,.2,0,.4.1,1.4.4,2.8,1,4.2,1.5,0,0,.1,0,.2,0,.6.3,1.2.5,1.8.8.1,0,.2,0,.3.2.6.3,1.2.6,1.9,1,0,0,0,0,0,0,1.3.7,2.6,1.5,3.8,2.3,0,0,.1,0,.2.1.6.4,1.1.8,1.7,1.2,0,0,0,0,.1.1,1.8,1.3,3.5,2.8,5.1,4.4,0,0,0,0,.1.1,8.6,8.6,13.9,20.4,13.9,33.5s.1,40.3,0,66Z"/>
      <path class="st0" d="M474.7,72.5H123.6c-3.4,0-6.2,2.8-6.2,6.2v196.2c0,3.4,2.8,6.2,6.2,6.2h351.1c3.4,0,6.2-2.8,6.2-6.2V78.7c0-3.4-2.8-6.2-6.2-6.2ZM479.4,274.9c0,2.6-2.1,4.7-4.7,4.7H123.6c-2.6,0-4.7-2.1-4.7-4.7V78.7c0-2.6,2.1-4.7,4.7-4.7h351.1c2.6,0,4.7,2.1,4.7,4.7v196.2Z"/>
      <path class="st0" d="M453.7,89.1H144.7c-.5,0-1,.4-1,1v173.5c0,.5.4,1,1,1h309c.5,0,1-.4,1-1V90c0-.5-.4-1-1-1ZM453.2,263.1H145.2V90.6h308v172.5Z"/>
    </g>
  </g>
</svg>