<?xml version="1.0" encoding="UTF-8"?>
<svg id="Layer_2" xmlns="http://www.w3.org/2000/svg" version="1.1" xmlns:cc="http://creativecommons.org/ns#" xmlns:dc="http://purl.org/dc/elements/1.1/" xmlns:rdf="http://www.w3.org/1999/02/22-rdf-syntax-ns#" viewBox="0 0 598.2 350.3">
  <!-- Generator: Adobe Illustrator 29.0.1, SVG Export Plug-In . SVG Version: 2.1.0 Build 192)  -->
  <defs>
    <style>
      .st0 {
        fill: #f4f4f4;
      }
    </style>
  </defs>
  <path class="st0" d="M357.3,219.3h-114.6V84.8h114.6v134.5ZM244.6,217.3h110.6V86.8h-110.6v130.5Z"/>
  <path class="st0" d="M289.4,239.1c-9.9,0-19.8-.6-27.2-2.3-22-5.1-26.3-12.3-26.5-12.6-.4-.7-11.6-18.7-13.8-57.7-1.8-31.7,1.8-45.7,6.4-63.5,1.1-4.2,2.2-8.5,3.3-13.4,5.5-23.8,9.8-26,11-26.2l.2,2c0,0,.1,0,.1,0,0,0-4.2,1.8-9.4,24.7-1.1,4.9-2.2,9.2-3.3,13.4-4.5,17.6-8.1,31.4-6.4,62.8,2.2,38.5,13.4,56.6,13.5,56.8,0,.1,4.3,6.8,25.2,11.7,21.4,5,65.5,0,65.9,0,.2,0,24.3-2.7,32.5-11,8.3-8.3,14.9-55.1,15-55.5,0-.2,1.5-26.5-1.5-42.1-3.3-16.9-9.8-44.9-13.4-51.4-3.7-6.7-6.7-10.7-6.8-10.7l1.6-1.2c.1.2,3.2,4.1,6.9,11,4.1,7.4,10.9,38.2,13.6,52,3.1,15.8,1.6,42.4,1.6,42.7-.3,2-6.8,48-15.5,56.7-8.8,8.8-32.7,11.4-33.7,11.6-1.2.1-20.3,2.3-39.4,2.3Z"/>
  <path class="st0" d="M416.3,96.6l-.7-1.9s4.2-1.6,9.3-3.7c4.9-2,11.7-6.4,13.5-8.1.1-.1.5-.4.3-1.3-.2-1.4-1.6-3.1-2.8-3.6-1.3-.6-5.8-.7-10.2-.8-2.3,0-4.6-.1-6.7-.2-6.2-.4-10.2,1-10.2,1l-.7-1.9c.2,0,4.4-1.5,11-1.2,2.1.1,4.4.2,6.6.2,5,.1,9.3.2,10.9,1,1.8.8,3.6,3.1,4,5.1.2,1.2,0,2.3-.9,3.1-1.9,1.8-8.9,6.3-14.2,8.5-5.1,2.1-9.3,3.7-9.3,3.7Z"/>
  <path class="st0" d="M410.4,125c-5,0-9.5-.1-11.8-.5-2.9-.5-4.9-1.5-6-3.1-1-1.5-.8-2.9-.7-3.2.1-.8,1.1-3.2,8-8,7.5-5.1,17.6-8.3,18-8.4h0c9.6-2.1,57.3-12.5,58.4-12.5,3.1-.1,7.2,4,8.1,7.3.2.8.6,2,1,3.5,1.3,4.4,3.1,10.5,3.1,12.9,0,3.8-5.8,4.8-6,4.9l-11.5,1.7-39.1,5.1c-.8,0-12,.5-21.6.5ZM418.5,103.7c-.7.2-10.4,3.4-17.5,8.1-6.6,4.5-7.2,6.6-7.2,6.6,0,.1-.2,1,.4,1.9.7,1.1,2.3,1.8,4.6,2.2,6.7,1.1,32.7,0,32.9,0l39-5.1,11.5-1.7c1.1-.2,4.3-1.1,4.3-2.9s-1.8-8.2-3-12.3c-.4-1.5-.8-2.8-1-3.5-.7-2.8-4.2-5.8-6.1-5.8-1.5.2-42.3,9-58,12.4Z"/>
  <path class="st0" d="M456.7,120.3c0,0-.9-6.7-2.5-12.9-1.5-6.1-3.8-10.4-3.8-10.4l1.8-.9c0,.2,2.4,4.5,4,10.9,1.5,6.3,2.5,13,2.5,13.1l-2,.3Z"/>
  <path class="st0" d="M463.4,154.7h-2v-10.8c0-6.5-2.4-16.3-2.4-16.4l1.9-.5c0,.4,2.5,10.1,2.5,16.9v10.8Z"/>
  <path class="st0" d="M465.4,155.7c-.4,0-39.4-.1-49.9-.7-9.4-.5-14.7-3.3-17.8-5-.5-.3-.9-.5-1.3-.7-1.2-.6-2-1.5-2.4-2.7-.6-2,.5-4,1-4.8,1-1.6,3.6-4.7,10-7.7,6.4-2.9,19.3-4.4,19.8-4.5h0s31.6-3.4,31.6-3.4c1.1,0,26.7-1.9,30.5-1.9s5.1,3.4,5.4,5.3l.7,3.6c0,.5,2.2,13.2,2,17-.2,3.7-4,4.7-6,4.7l-23.6.8ZM425.1,131.7c-.3,0-13.2,1.6-19.2,4.3-6,2.7-8.3,5.5-9.2,6.9-.3.4-1.1,2-.8,3.2.2.6.6,1.1,1.4,1.4s.9.5,1.4.7c3.2,1.7,8,4.3,17,4.8,10.5.5,49.4.7,49.8.7l23.6-.8c.2,0,3.8,0,4-2.8.2-3.6-2-16.4-2-16.6l-.7-3.6c0-.2-.6-3.6-3.4-3.6s-30,1.9-30.3,1.9l-31.5,3.4Z"/>
  <path class="st0" d="M490.6,192.8c-4.1,0-14.6-1-15.1-1-15.7-1.3-45.9-3.7-47.9-3.7,0,0,0,0,0,0-2.8,0-16.8-3.5-24.5-5.9-4.4-1.4-8.4-4.8-9.6-6.7-1.5-2.4.4-5.8,1.7-7.2,2.6-3.1,5-4.1,10-5.6,5.2-1.6,22-2.5,22.7-2.5h0c6.5,0,63.5.6,66.4,1.5,3.5,1.1,3.8,5.9,3.8,6.1v20.4c0,2.6-3.3,4.5-6.4,4.8-.3,0-.6,0-1,0ZM427.6,186c2.7,0,46.3,3.6,48.1,3.7.1,0,13,1.2,15.7,1,2.6-.2,4.6-1.6,4.6-2.8v-20.3h0s-.2-3.6-2.4-4.2c-2.2-.6-40.6-1.2-65.9-1.4-.7,0-17.4.9-22.1,2.4-5,1.6-6.8,2.4-9,5-1.3,1.5-2.2,3.8-1.5,4.9,1,1.6,4.8,4.7,8.5,5.9,8.1,2.6,21.4,5.8,23.9,5.8h0Z"/>
  <path class="st0" d="M461.5,189.9l-1.8-.8c.4-1,.8-6.4,1-10,0-1.5.2-2.9.3-4,.3-3.9.4-12.5.4-12.6h2c0,.4-.1,8.8-.4,12.8,0,1.1-.2,2.5-.3,4-.4,5.5-.6,9.5-1.2,10.7Z"/>
  <path class="st0" d="M462.9,227.5c-3.4,0-6.2-.8-6.4-.9l-26-6.8c-1.3-.5-30.9-10.7-35.5-14.7-5.2-4.5-2.8-9-1.9-10.2,1.6-2.4,9.4-3.6,13.9-4,5.7-.6,12,0,15.8.3,1.3.1,2.7.3,3,.2h.2c0,0,.2,0,.2,0,2.2.3,53.8,7,59.3,8.9,2,.7,3.3,1.8,4,3.3,1.1,2.4.1,4.9,0,5v.2c0,0-14.4,14.1-14.4,14.1l-5.1,3c-2.2,1.3-4.8,1.7-7.2,1.7ZM412.5,192.5c-1.7,0-3.5,0-5.2.3-8.8,1-12,2.5-12.5,3.2-1,1.5-2.1,4.4,1.6,7.6,3.4,3,24.3,10.7,34.8,14.3l25.9,6.8c0,0,7.4,2.1,12-.6l5-3,13.7-13.6c.2-.5.5-1.9,0-3.2-.5-1-1.4-1.7-2.8-2.2-5.2-1.7-55.6-8.4-58.8-8.8-.5,0-1.4,0-3.5-.2-2.6-.2-6.3-.6-10.2-.6Z"/>
  <path class="st0" d="M450.8,224.5l-1.5-1.3s.5-.6,1.2-1.8c.9-1.6,3.4-8.2,5.3-14.2,1.8-5.7,2.1-10.5,2.1-10.6h2c0,.3-.3,5.3-2.2,11.2-1.8,5.5-4.3,12.6-5.5,14.5-.8,1.4-1.4,2.1-1.4,2.1Z"/>
  <path class="st0" d="M413.3,255.2c-2.4,0-4.3-.9-4.4-.9h-.1c0-.1-9.6-5.7-16.1-11-4.5-3.7-6.6-7.2-6.2-10.4.2-1.7,1.6-5.8,9.8-7.1,8.2-1.3,16.8,0,17.2,0l25.2,4.2c.9,0,6.4,0,7.9,4.8,1.3,4.2-2,6.8-3.9,7.6-.9.4-23.7,11.4-26.7,12.4-.8.3-1.7.4-2.5.4ZM409.7,252.5c.4.2,3.1,1.2,5.5.4,2.3-.7,18.4-8.4,26.5-12.3.2,0,3.9-1.7,2.8-5.2-1.1-3.6-6-3.4-6-3.4h-.1s-.1,0-.1,0l-25.3-4.3c0,0-8.7-1.2-16.6,0-6.8,1.1-8,4.1-8.1,5.3-.3,2.5,1.5,5.4,5.5,8.7,6.1,5,15,10.3,15.8,10.8Z"/>
  <path class="st0" d="M125.2,172.6c-.5,0-12,0-15.7-.8-4.3-.9-8.3-4.4-7.6-8.8l10.7-64.1s1.3-11,16.4-11,47.6,13.2,49,13.8c.8.3,19.3,8.5,28.2,25.9,9.2,18-14,32.2-14.2,32.4-.5.3-13.1,8.8-28.1,10.3-14.7,1.5-38.6,2.2-38.8,2.2ZM129.1,90c-13.3,0-14.4,8.9-14.5,9.3l-10.8,64.1c-.5,3.2,2.7,5.8,6,6.5,3.5.7,15.1.7,15.3.7.2,0,24-.8,38.6-2.2,14.4-1.4,27.1-9.9,27.2-10,.3-.2,21.8-13.4,13.5-29.8-8.6-16.9-27-24.9-27.2-25-.3-.1-34.1-13.6-48.2-13.6Z"/>
  <path class="st0" d="M180.5,103.2l-1.9-.7,2.2-5.7c-1.9-.9-7.7-3.5-11.6-4.7-5-1.6-9.7-5.3-9.9-5.4l-.3-.2v-.3c-.1-.2-1.1-3.9.7-6.5,1.8-2.6,5.5-2.5,5.6-2.5.6,0,16.3-1,19.9-1.1,3.9-.1,6.2,1.4,6.3,1.5.4.2,10.9,6.5,15.3,10.1,4.8,4,6.5,7.3,5,10.3-1.5,3-7.1,3.4-10.1,3.2h-.6c-1-.1-1.1-.1-1.3-.2,0,0-.3-.1-1.7-.3-2.7-.5-12.4-2.5-15.4-3.1l-2.2,5.8ZM182.1,95.2h.2c.1,0,13,2.8,16.1,3.3,1.6.3,1.8.4,2,.4,0,0,.3,0,.8,0h.6c3.4.3,7.4-.4,8.2-2.1,1-1.9-.5-4.6-4.5-7.8-4.3-3.6-15-9.9-15.1-10,0,0-2-1.3-5.2-1.2-3.6.1-19.8,1.1-20,1.1,0,0,0,0,0,0-.4,0-2.8,0-4,1.7-1,1.4-.7,3.7-.6,4.5,1.1.8,5.1,3.6,9,4.9,4.5,1.4,11.2,4.5,12.3,5Z"/>
  <path class="st0" d="M191.4,77.1l-2-.3c0-.2.3-2,3.1-6.2,2.8-4.3,6.3-6.7,6.5-6.8l1.1,1.7s-3.3,2.3-5.9,6.3c-2.5,3.8-2.8,5.4-2.8,5.4Z"/>
  <path class="st0" d="M293.9,288.5c-17,0-35-1.3-53-4.6-74.4-13.8-120.1-45.5-140.7-63.2-17.2-14.7-16-36.4-16-36.6h0s4.9-48.2,4.9-48.2c0-.4,6.3-35,10.9-51,4.8-16.7,27.6-16.4,28.6-16.4.7,0,74.3-5.3,91.6-6.2,17.7-.9,129.5-.7,171.9,0,43.8.7,81.3,3.3,87.9,4.9,7.6,1.8,13,7,17.3,16.5,4.3,9.6,7.3,23.6,13.1,59.9,5.1,31.8,3.7,43.4,3.4,45.3.8,2.3,3.5,16.1-28.7,41.1-34.2,26.5-88.5,44.4-89.1,44.6-.6.2-46.1,13.9-101.9,13.9ZM86.2,184.2c0,.7-.9,21,15.3,34.9,20.5,17.5,65.9,49,139.8,62.7,76.4,14.1,153.1-9,153.9-9.2.5-.2,54.5-17.9,88.5-44.2,33.2-25.7,28-38.9,28-39v-.3c-.1,0,0-.3,0-.3,0-.1,2.1-11-3.3-44.9-5.7-36.1-8.8-50-13-59.4-3.9-8.9-9-13.7-15.9-15.3-6.4-1.5-44.5-4.2-87.5-4.8-42.4-.7-154.1-.9-171.8,0-17.2.9-90.9,6.1-91.6,6.2-.3,0-22.3-.2-26.7,15-4.6,15.9-10.7,50.4-10.8,50.7l-4.8,48Z"/>
  <path class="st0" d="M127.5,219.3c-3.3,0-7-.4-10.1-2.2-3.7-2.2-8.1-8-8.3-8.2-.2-.3-6.1-8.2-7.8-15.7-.6-2.7-.3-4.9.9-6.5,1.7-2.3,4.6-2.5,4.7-2.5l26.7-3.9s1.3-.2,3.5-.4c5.7-.6,16.9-1.7,28.4-2.3,15.3-.7,24.1.3,28.8.9h.7c4.5.6,11.2,3.1,11.4,7.7.1,4.3-4.4,8.9-8.7,11.4-4.4,2.5-17.7,8-18.2,8.2h-.1s-46.8,13.3-46.8,13.3h-3.2c-.6.1-1.2.1-1.8.1ZM133.9,182.3l-26.7,3.9c0,0-2.2.2-3.4,1.8-.8,1.1-1,2.8-.6,4.9,1.6,7.1,7.4,14.9,7.4,15s4.3,5.7,7.7,7.7c3.2,1.9,7.5,2,10.8,1.9h3c0-.1,46.5-13.3,46.5-13.3.9-.4,13.8-5.7,17.9-8.1,4.5-2.6,7.8-6.6,7.7-9.6,0-2.8-5.1-5.1-9.6-5.7h-.7c-4.6-.7-13.3-1.7-28.4-1-11.4.5-22.6,1.6-28.2,2.3-2.1.2-3.3.4-3.5.4Z"/>
  <path class="st0" d="M142.9,215.3c0,0-3.3-8.3-5.2-16.7-1.9-8.4-2-17.5-2-17.6h2c0,0,.1,8.9,2,17.2,1.8,8.3,5.1,16.3,5.1,16.4l-1.9.7Z"/>
  <path class="st0" d="M297.3,279.2c-35.2,0-73.5-10.1-73.9-10.2-.3,0-26.1-7.4-31-12.8-3.5-3.9-8.1-17-13-30.8-1.2-3.4-2.4-6.9-3.6-10.2-5.7-15.9-7.4-45.4-7.4-46.7h2c0,.2,1.7,30.4,7.3,46,1.2,3.3,2.4,6.7,3.6,10.2,4.6,13.1,9.3,26.5,12.5,30.1,3.8,4.2,24.6,10.7,30,12.2.5.1,49.1,12.9,86.8,9.5,35-3.1,69.1-10,80.7-14.5,11-4.3,13.1-6.4,14.6-8.3,1.5-2,16-35.6,18.5-51.5,1.7-11.1,7-45.1,0-75.2-5.2-22.5-8.1-28.8-9-30.3-1.9.5-7.6,1.8-13.3,2.7-6.7,1-8.7,1.2-11.7.6-2.8-.6-4.5-1.1-3.9-4.5.3-1.5,1.9-6.9,11.2-12.7,5.8-3.6,8.2-5.1,9.1-5.6,0-.5-.3-1.5-1.4-3.1-1.9-2.9-4.8-6.7-4.8-6.7v-.2c-.1,0-1.5-3.2-1.5-3.2l1.8-.8,1.3,3c.5.6,3.1,4,4.8,6.7,2.1,3.2,1.7,4.8,1.6,5.1v.4c-.1,0-.4.2-.4.2,0,0-1.9,1.1-9.5,5.9-6.9,4.3-9.8,8.7-10.3,11.4q-.3,1.7,2.3,2.2c2.6.6,4.6.4,11-.6,6.9-1.1,13.7-2.8,13.7-2.8h.5c0-.1.4.2.4.2.3.3,3.4,3.8,9.9,31.7,7.1,30.5,1.8,64.7,0,75.9-2.5,16-16.9,49.7-18.9,52.4-1.7,2.3-3.9,4.5-15.5,9-11.9,4.7-45.6,11.5-81.3,14.6-4.4.4-9,.6-13.6.6Z"/>
  <path class="st0" d="M187.1,256.6c-1.2,0-3-.3-6.1-1.7-4.8-2.2-24-11-25.1-11.5-.6-.2-3.1-1.3-2.8-5.6.4-4.7,6-5.4,6.3-5.4l22.8-4.2c.8-.1,19.8-3.3,29.2,2.3,1.9,1.1,2.3,2.7,2.3,3.8,0,7.2-18.5,18.7-20.8,20.1-.7.5-2.7,2-4,2.1-.2,0-.3,0-.5,0-.4,0-.8.1-1.3.1ZM182.6,230.2l-22.8,4.2c-.1,0-4.3.6-4.6,3.6-.2,3,1.4,3.5,1.4,3.5h.2c.2.1,20.2,9.3,25.1,11.5,3.9,1.8,5.2,1.6,6.2,1.5.2,0,.4,0,.6,0,.5,0,2-.9,3-1.7h0c5.5-3.4,19.9-13.2,19.9-18.5,0-.5-.1-1.3-1.4-2-8.7-5.2-27.4-2.1-27.8-2Z"/>
  <path class="st0" d="M158,164.2c-17,0-30.8-13.8-30.8-30.8s13.8-30.8,30.8-30.8,30.8,13.8,30.8,30.8-13.8,30.8-30.8,30.8ZM158,104.6c-15.9,0-28.8,12.9-28.8,28.8s12.9,28.8,28.8,28.8,28.8-12.9,28.8-28.8-12.9-28.8-28.8-28.8Z"/>
  <path class="st0" d="M162.9,113.6h-9.9l4.9-4.9,4.9,4.9ZM157.9,111.6h.2-.1c0-.1-.1,0-.1,0Z"/>
  <path class="st0" d="M158.7,158.3l-4.9-4.9h9.9l-4.9,4.9ZM158.6,155.4h.1c0,.1.1,0,.1,0h-.2Z"/>
  <path class="st0" d="M138.8,138.7l-4.9-4.9,4.9-4.9v9.9ZM136.7,133.8h.1c0,.1,0-.1,0-.1h-.1Z"/>
  <path class="st0" d="M178.6,138v-9.9l4.9,4.9-4.9,4.9ZM180.6,132.9v.2h.1c0-.1-.1-.2-.1-.2Z"/>
</svg>