<?xml version="1.0" encoding="UTF-8"?>
<svg id="Layer_2" xmlns="http://www.w3.org/2000/svg" version="1.1" viewBox="0 0 598.2 350.3">
  <!-- Generator: Adobe Illustrator 29.0.1, SVG Export Plug-In . SVG Version: 2.1.0 Build 192)  -->
  <defs>
    <style>
      .st0 {
        fill: #f4f4f4;
      }
    </style>
  </defs>
  <path id="path2" class="st0" d="M93.9,321.7c-4.2,0-7.5-3.4-7.5-7.5h0v-129.4c0-4.2,3.4-7.5,7.5-7.5h268.1c4.2,0,7.5,3.4,7.5,7.5h0v129.4c0,4.2-3.4,7.5-7.5,7.5H93.9ZM88.4,184.7v129.4c0,3,2.5,5.5,5.5,5.5h268.1c3.1,0,5.5-2.5,5.5-5.5h0v-129.4c0-3.1-2.5-5.5-5.5-5.5H93.9c-3.1,0-5.5,2.5-5.5,5.5h0Z"/>
  <path id="path4" class="st0" d="M100.4,310.2c-2.1,0-3.8-1.7-3.8-3.8h0v-16.6c0-2.1,1.7-3.8,3.8-3.8h16.6c2.1,0,3.8,1.7,3.8,3.8h0v16.6c0,2.1-1.7,3.8-3.8,3.8h-16.6ZM98.6,289.9v16.6c0,1,.8,1.8,1.8,1.8h16.6c1,0,1.8-.8,1.8-1.8h0v-16.6c0-1-.8-1.8-1.8-1.8h-16.6c-1,0-1.8.8-1.8,1.8Z"/>
  <path id="path6" class="st0" d="M100.4,285.4c-2.1,0-3.8-1.7-3.8-3.8h0v-16.6c0-2.1,1.7-3.8,3.8-3.8h16.6c2.1,0,3.8,1.7,3.8,3.8h0v16.6c0,2.1-1.7,3.8-3.8,3.8h-16.6ZM98.6,265v16.6c0,1,.8,1.8,1.8,1.8h16.6c1,0,1.8-.8,1.8-1.8h0v-16.6c0-1-.8-1.8-1.8-1.8h-16.6c-1,0-1.8.8-1.8,1.8Z"/>
  <path id="path8" class="st0" d="M124.2,285.4c-2.1,0-3.8-1.7-3.8-3.8h0v-16.6c0-2.1,1.7-3.8,3.8-3.8h16.6c2.1,0,3.8,1.7,3.8,3.8h0v16.6c0,2.1-1.7,3.8-3.8,3.8h-16.6ZM122.4,265v16.6c0,1,.8,1.8,1.8,1.8h16.6c1,0,1.8-.8,1.8-1.8h0v-16.6c0-1-.8-1.8-1.8-1.8h-16.5c-1,0-1.8.8-1.8,1.8Z"/>
  <path id="path10" class="st0" d="M147.9,285.4c-2.1,0-3.8-1.7-3.8-3.8h0v-16.6c0-2.1,1.7-3.8,3.8-3.8h16.6c2.1,0,3.8,1.7,3.8,3.8h0v16.6c0,2.1-1.7,3.8-3.8,3.8h-16.6ZM146.1,265v16.6c0,1,.8,1.8,1.8,1.8h16.6c1,0,1.8-.8,1.8-1.8h0v-16.6c0-1-.8-1.8-1.8-1.8h-16.6c-1,0-1.8.8-1.8,1.8Z"/>
  <path id="path12" class="st0" d="M171.8,285.4c-2.1,0-3.8-1.7-3.8-3.8h0v-16.6c0-2.1,1.7-3.8,3.8-3.8h16.6c2.1,0,3.8,1.7,3.8,3.8h0v16.6c0,2.1-1.7,3.8-3.8,3.8h-16.6ZM170,265v16.6c0,1,.8,1.8,1.8,1.8h16.6c1,0,1.8-.8,1.8-1.8h0v-16.6c0-1-.8-1.8-1.8-1.8h-16.6c-1,0-1.8.8-1.8,1.8Z"/>
  <path id="path14" class="st0" d="M195.5,285.4c-2.1,0-3.8-1.7-3.8-3.8h0v-16.6c0-2.1,1.7-3.8,3.8-3.8h16.6c2.1,0,3.8,1.7,3.8,3.8h0v16.6c0,2.1-1.7,3.8-3.8,3.8h-16.6ZM193.7,265v16.6c0,1,.8,1.8,1.8,1.8h16.6c1,0,1.8-.8,1.8-1.8h0v-16.6c0-1-.8-1.8-1.8-1.8h-16.6c-1,0-1.8.8-1.8,1.8Z"/>
  <path id="path16" class="st0" d="M219.3,285.4c-2.1,0-3.8-1.7-3.8-3.8h0v-16.6c0-2.1,1.7-3.8,3.8-3.8h16.6c2.1,0,3.8,1.7,3.8,3.8h0v16.6c0,2.1-1.7,3.8-3.8,3.8h-16.6ZM217.5,265v16.6c0,1,.8,1.8,1.8,1.8h16.6c1,0,1.8-.8,1.8-1.8h0v-16.6c0-1-.8-1.8-1.8-1.8h-16.6c-1,0-1.8.8-1.8,1.8Z"/>
  <path id="path18" class="st0" d="M243,285.4c-2.1,0-3.8-1.7-3.8-3.8h0v-16.6c0-2.1,1.7-3.8,3.8-3.8h16.6c2.1,0,3.8,1.7,3.8,3.8h0v16.6c0,2.1-1.7,3.8-3.8,3.8h-16.6ZM241.2,265v16.6c0,1,.8,1.8,1.8,1.8h16.6c1,0,1.8-.8,1.8-1.8h0v-16.6c0-1-.8-1.8-1.8-1.8h-16.6c-1,0-1.8.8-1.8,1.8h0Z"/>
  <path id="path20" class="st0" d="M266.9,285.4c-2.1,0-3.8-1.7-3.8-3.8h0v-16.6c0-2.1,1.7-3.8,3.8-3.8h16.6c2.1,0,3.8,1.7,3.8,3.8h0v16.6c0,2.1-1.7,3.8-3.8,3.8h-16.6ZM265.1,265v16.6c0,1,.8,1.8,1.8,1.8h16.6c1,0,1.8-.8,1.8-1.8h0v-16.6c0-1-.8-1.8-1.8-1.8h-16.6c-1,0-1.8.8-1.8,1.8Z"/>
  <path id="path22" class="st0" d="M290.6,285.4c-2.1,0-3.8-1.7-3.8-3.8h0v-16.6c0-2.1,1.7-3.8,3.8-3.8h16.6c2.1,0,3.8,1.7,3.8,3.8h0v16.6c0,2.1-1.7,3.8-3.8,3.8h-16.6ZM288.8,265v16.6c0,1,.8,1.8,1.8,1.8h16.6c1,0,1.8-.8,1.8-1.8h0v-16.6c0-1-.8-1.8-1.8-1.8h-16.6c-1,0-1.8.8-1.8,1.8Z"/>
  <path id="path24" class="st0" d="M314.4,285.4c-2.1,0-3.8-1.7-3.8-3.8h0v-16.6c0-2.1,1.7-3.8,3.8-3.8h16.6c2.1,0,3.8,1.7,3.8,3.8h0v16.6c0,2.1-1.7,3.8-3.8,3.8h-16.6ZM312.6,265v16.6c0,1,.8,1.8,1.8,1.8h16.6c1,0,1.8-.8,1.8-1.8h0v-16.6c0-1-.8-1.8-1.8-1.8h-16.6c-1,0-1.8.8-1.8,1.8h0Z"/>
  <path id="path26" class="st0" d="M107.5,261.4c-2.1,0-3.8-1.7-3.8-3.8h0v-16.6c0-2.1,1.7-3.8,3.8-3.8h16.6c2.1,0,3.8,1.7,3.8,3.8h0v16.6h0c0,2.1-1.7,3.8-3.8,3.8h-16.6ZM105.7,241v16.6c0,1,.8,1.8,1.8,1.8h16.6c1,0,1.8-.8,1.8-1.8h0v-16.6c0-1-.8-1.8-1.8-1.8h-16.6c-1,0-1.8.8-1.8,1.8Z"/>
  <path id="path28" class="st0" d="M131.3,261.4c-2.1,0-3.8-1.7-3.8-3.8h0v-16.6c0-2.1,1.7-3.8,3.8-3.8h16.6c2.1,0,3.8,1.7,3.8,3.8h0v16.6c0,2.1-1.7,3.8-3.8,3.8h-16.6ZM129.5,241v16.6c0,1,.8,1.8,1.8,1.8h16.6c1,0,1.8-.8,1.8-1.8h0v-16.6c0-1-.8-1.8-1.8-1.8h-16.6c-1,0-1.8.8-1.8,1.8Z"/>
  <path id="path30" class="st0" d="M155,261.4c-2.1,0-3.8-1.7-3.8-3.8h0v-16.6c0-2.1,1.7-3.8,3.8-3.8h16.6c2.1,0,3.8,1.7,3.8,3.8h0v16.6c0,2.1-1.7,3.8-3.8,3.8h-16.6ZM153.2,241v16.6c0,1,.8,1.8,1.8,1.8h16.6c1,0,1.8-.8,1.8-1.8h0v-16.6c0-1-.8-1.8-1.8-1.8h-16.6c-1,0-1.8.8-1.8,1.8Z"/>
  <path id="path32" class="st0" d="M178.9,261.4c-2.1,0-3.8-1.7-3.8-3.8h0v-16.6c0-2.1,1.7-3.8,3.8-3.8h16.6c2.1,0,3.8,1.7,3.8,3.8h0v16.6h0c0,2.1-1.7,3.8-3.8,3.8h-16.6ZM177.1,241v16.6c0,1,.8,1.8,1.8,1.8h16.6c1,0,1.8-.8,1.8-1.8h0v-16.6c0-1-.8-1.8-1.8-1.8h-16.6c-1,0-1.8.8-1.8,1.8Z"/>
  <path id="path34" class="st0" d="M202.6,261.4c-2.1,0-3.8-1.7-3.8-3.8h0v-16.6c0-2.1,1.7-3.8,3.8-3.8h16.6c2.1,0,3.8,1.7,3.8,3.8h0v16.6c0,2.1-1.7,3.8-3.8,3.8h-16.6ZM200.8,241v16.6c0,1,.8,1.8,1.8,1.8h16.6c1,0,1.8-.8,1.8-1.8h0v-16.6c0-1-.8-1.8-1.8-1.8h-16.6c-1,0-1.8.8-1.8,1.8h0Z"/>
  <path id="path36" class="st0" d="M226.5,261.4c-2.1,0-3.8-1.7-3.8-3.8h0v-16.6c0-2.1,1.7-3.8,3.8-3.8h16.6c2.1,0,3.8,1.7,3.8,3.8h0v16.6c0,2.1-1.7,3.8-3.8,3.8h-16.6ZM224.7,241v16.6c0,1,.8,1.8,1.8,1.8h16.6c1,0,1.8-.8,1.8-1.8h0v-16.6c0-1-.8-1.8-1.8-1.8h-16.6c-1,0-1.8.8-1.8,1.8Z"/>
  <path id="path38" class="st0" d="M250.2,261.4c-2.1,0-3.8-1.7-3.8-3.8h0v-16.6c0-2.1,1.7-3.8,3.8-3.8h16.6c2.1,0,3.8,1.7,3.8,3.8h0v16.6c0,2.1-1.7,3.8-3.8,3.8h-16.6ZM248.4,241v16.6c0,1,.8,1.8,1.8,1.8h16.6c1,0,1.8-.8,1.8-1.8h0v-16.6c0-1-.8-1.8-1.8-1.8h-16.6c-1,0-1.8.8-1.8,1.8Z"/>
  <path id="path40" class="st0" d="M274,261.4c-2.1,0-3.8-1.7-3.8-3.8h0v-16.6c0-2.1,1.7-3.8,3.8-3.8h16.6c2.1,0,3.8,1.7,3.8,3.8h0v16.6c0,2.1-1.7,3.8-3.8,3.8h-16.6ZM272.2,241v16.6c0,1,.8,1.8,1.8,1.8h16.6c1,0,1.8-.8,1.8-1.8h0v-16.6c0-1-.8-1.8-1.8-1.8h-16.6c-1,0-1.8.8-1.8,1.8h0Z"/>
  <path id="path42" class="st0" d="M297.7,261.4c-2.1,0-3.8-1.7-3.8-3.8h0v-16.6c0-2.1,1.7-3.8,3.8-3.8h16.6c2.1,0,3.8,1.7,3.8,3.8h0v16.6c0,2.1-1.7,3.8-3.8,3.8h-16.6ZM295.9,241v16.6c0,1,.8,1.8,1.8,1.8h16.6c1,0,1.8-.8,1.8-1.8h0v-16.6c0-1-.8-1.8-1.8-1.8h-16.6c-1,0-1.8.8-1.8,1.8Z"/>
  <path id="path44" class="st0" d="M321.6,261.4c-2.1,0-3.8-1.7-3.8-3.8h0v-16.6c0-2.1,1.7-3.8,3.8-3.8h16.6c2.1,0,3.8,1.7,3.8,3.8h0v16.6c0,2.1-1.7,3.8-3.8,3.8h-16.6ZM319.8,241v16.6c0,1,.8,1.8,1.8,1.8h16.6c1,0,1.8-.8,1.8-1.8h0v-16.6c0-1-.8-1.8-1.8-1.8h-16.6c-1,0-1.8.8-1.8,1.8Z"/>
  <path id="path46" class="st0" d="M345.3,261.4c-2.1,0-3.8-1.7-3.8-3.8h0v-16.6c0-2.1,1.7-3.8,3.8-3.8h16.6c2.1,0,3.8,1.7,3.8,3.8h0v16.6c0,2.1-1.7,3.8-3.8,3.8h-16.6ZM343.5,241v16.6c0,1,.8,1.8,1.8,1.8h16.6c1,0,1.8-.8,1.8-1.8h0v-16.6c0-1-.8-1.8-1.8-1.8h-16.6c-1,0-1.8.8-1.8,1.8Z"/>
  <path id="path48" class="st0" d="M101.7,237.5c-2.1,0-3.8-1.7-3.8-3.8h0v-16.6c0-2.1,1.7-3.8,3.8-3.8h16.6c2.1,0,3.8,1.7,3.8,3.8h0v16.6c0,2.1-1.7,3.8-3.8,3.8h-16.6ZM99.9,217.1v16.6c0,1,.8,1.8,1.8,1.8h16.6c1,0,1.8-.8,1.8-1.8h0v-16.6c0-1-.8-1.8-1.8-1.8h-16.6c-1,0-1.8.8-1.8,1.8Z"/>
  <path id="path50" class="st0" d="M125.6,237.5c-2.1,0-3.8-1.7-3.8-3.8h0v-16.6c0-2.1,1.7-3.8,3.8-3.8h16.6c2.1,0,3.8,1.7,3.8,3.8h0v16.6c0,2.1-1.7,3.8-3.8,3.8h-16.6ZM123.8,217.1v16.6c0,1,.8,1.8,1.8,1.8h16.6c1,0,1.8-.8,1.8-1.8h0v-16.6c0-1-.8-1.8-1.8-1.8h-16.6c-1,0-1.8.8-1.8,1.8Z"/>
  <path id="path52" class="st0" d="M149.3,237.5c-2.1,0-3.8-1.7-3.8-3.8h0v-16.6c0-2.1,1.7-3.8,3.8-3.8h16.6c2.1,0,3.8,1.7,3.8,3.8h0v16.6c0,2.1-1.7,3.8-3.8,3.8h-16.6ZM147.5,217.1v16.6c0,1,.8,1.8,1.8,1.8h16.6c1,0,1.8-.8,1.8-1.8h0v-16.6c0-1-.8-1.8-1.8-1.8h-16.6c-1,0-1.8.8-1.8,1.8Z"/>
  <path id="path54" class="st0" d="M173.1,237.5c-2.1,0-3.8-1.7-3.8-3.8h0v-16.6c0-2.1,1.7-3.8,3.8-3.8h16.6c2.1,0,3.8,1.7,3.8,3.8h0v16.6h0c0,2.1-1.7,3.8-3.8,3.8h-16.6ZM171.3,217.1v16.6c0,1,.8,1.8,1.8,1.8h16.6c1,0,1.8-.8,1.8-1.8h0v-16.6c0-1-.8-1.8-1.8-1.8h-16.6c-1,0-1.8.8-1.8,1.8Z"/>
  <path id="path56" class="st0" d="M196.8,237.5c-2.1,0-3.8-1.7-3.8-3.8h0v-16.6c0-2.1,1.7-3.8,3.8-3.8h16.6c2.1,0,3.8,1.7,3.8,3.8h0v16.6c0,2.1-1.7,3.8-3.8,3.8h-16.6ZM195,217.1v16.6c0,1,.8,1.8,1.8,1.8h16.6c1,0,1.8-.8,1.8-1.8h0v-16.6c0-1-.8-1.8-1.8-1.8h-16.6c-1,0-1.8.8-1.8,1.8Z"/>
  <path id="path58" class="st0" d="M220.7,237.4c-2.1,0-3.8-1.7-3.8-3.8h0v-16.6c0-2.1,1.7-3.8,3.8-3.8h16.6c2.1,0,3.8,1.7,3.8,3.8h0v16.6c0,2.1-1.7,3.8-3.8,3.8h-16.6ZM218.9,217.1v16.6c0,1,.8,1.8,1.8,1.8h16.6c1,0,1.8-.8,1.8-1.8h0v-16.6c0-1-.8-1.8-1.8-1.8h-16.6c-1,0-1.8.8-1.8,1.8Z"/>
  <path id="path60" class="st0" d="M244.4,237.4c-2.1,0-3.8-1.7-3.8-3.8h0v-16.6c0-2.1,1.7-3.8,3.8-3.8h16.6c2.1,0,3.8,1.7,3.8,3.8h0v16.6c0,2.1-1.7,3.8-3.8,3.8h-16.6ZM242.6,217.1v16.6c0,1,.8,1.8,1.8,1.8h16.6c1,0,1.8-.8,1.8-1.8h0v-16.6c0-1-.8-1.8-1.8-1.8h-16.6c-1,0-1.8.8-1.8,1.8Z"/>
  <path id="path62" class="st0" d="M268.3,237.5c-2.1,0-3.8-1.7-3.8-3.8h0v-16.6c0-2.1,1.7-3.8,3.8-3.8h16.6c2.1,0,3.8,1.7,3.8,3.8h0v16.6c0,2.1-1.7,3.8-3.8,3.8h-16.6ZM266.5,217.1v16.6c0,1,.8,1.8,1.8,1.8h16.6c1,0,1.8-.8,1.8-1.8h0v-16.6c0-1-.8-1.8-1.8-1.8h-16.6c-1,0-1.8.8-1.8,1.8Z"/>
  <path id="path64" class="st0" d="M292,237.5c-2.1,0-3.8-1.7-3.8-3.8h0v-16.6c0-2.1,1.7-3.8,3.8-3.8h16.6c2.1,0,3.8,1.7,3.8,3.8h0v16.6c0,2.1-1.7,3.8-3.8,3.8h-16.6ZM290.2,217.1v16.6c0,1,.8,1.8,1.8,1.8h16.6c1,0,1.8-.8,1.8-1.8h0v-16.6c0-1-.8-1.8-1.8-1.8h-16.6c-1,0-1.8.8-1.8,1.8Z"/>
  <path id="path66" class="st0" d="M315.8,237.4c-2.1,0-3.8-1.7-3.8-3.8h0v-16.6c0-2.1,1.7-3.8,3.8-3.8h16.6c2.1,0,3.8,1.7,3.8,3.8h0v16.6c0,2.1-1.7,3.8-3.8,3.8h-16.6ZM314,217.1v16.6c0,1,.8,1.8,1.8,1.8h16.6c1,0,1.8-.8,1.8-1.8h0v-16.6c0-1-.8-1.8-1.8-1.8h-16.6c-1,0-1.8.8-1.8,1.8h0Z"/>
  <path id="path68" class="st0" d="M339.5,237.5c-2.1,0-3.8-1.7-3.8-3.8h0v-16.6c0-2.1,1.7-3.8,3.8-3.8h16.6c2.1,0,3.8,1.7,3.8,3.8h0v16.6h0c0,2.1-1.7,3.8-3.8,3.8h-16.6ZM337.7,217.1v16.6c0,1,.8,1.8,1.8,1.8h16.6c1,0,1.8-.8,1.8-1.8h0v-16.6c0-1-.8-1.8-1.8-1.8h-16.6c-1,0-1.8.8-1.8,1.8Z"/>
  <path id="path70" class="st0" d="M94.1,213.3c-2.1,0-3.8-1.7-3.8-3.8h0v-16.6c0-2.1,1.7-3.8,3.8-3.8h16.6c2.1,0,3.8,1.7,3.8,3.8h0v16.6c0,2.1-1.7,3.8-3.8,3.8h-16.6ZM92.3,193v16.6c0,1,.8,1.8,1.8,1.8h16.6c1,0,1.8-.8,1.8-1.8h0v-16.6c0-1-.8-1.8-1.8-1.8h-16.6c-1,0-1.8.8-1.8,1.8Z"/>
  <path id="path72" class="st0" d="M118,213.3c-2.1,0-3.8-1.7-3.8-3.8h0v-16.6c0-2.1,1.7-3.8,3.8-3.8h16.6c2.1,0,3.8,1.7,3.8,3.8h0v16.6c0,2.1-1.7,3.8-3.8,3.8h-16.6ZM116.2,193v16.6c0,1,.8,1.8,1.8,1.8h16.6c1,0,1.8-.8,1.8-1.8h0v-16.6c0-1-.8-1.8-1.8-1.8h-16.6c-1,0-1.8.8-1.8,1.8Z"/>
  <path id="path74" class="st0" d="M141.7,213.3c-2.1,0-3.8-1.7-3.8-3.8h0v-16.6c0-2.1,1.7-3.8,3.8-3.8h16.6c2.1,0,3.8,1.7,3.8,3.8h0v16.6c0,2.1-1.7,3.8-3.8,3.8h-16.6ZM139.9,193v16.6c0,1,.8,1.8,1.8,1.8h16.6c1,0,1.8-.8,1.8-1.8h0v-16.6c0-1-.8-1.8-1.8-1.8h-16.6c-1,0-1.8.8-1.8,1.8Z"/>
  <path id="path76" class="st0" d="M165.5,213.3c-2.1,0-3.8-1.7-3.8-3.8h0v-16.6c0-2.1,1.7-3.8,3.8-3.8h16.6c2.1,0,3.8,1.7,3.8,3.8h0v16.6h0c0,2.1-1.7,3.8-3.8,3.8h-16.6ZM163.7,193v16.6c0,1,.8,1.8,1.8,1.8h16.6c1,0,1.8-.8,1.8-1.8h0v-16.6c0-1-.8-1.8-1.8-1.8h-16.6c-1,0-1.8.8-1.8,1.8Z"/>
  <path id="path78" class="st0" d="M189.2,213.3c-2.1,0-3.8-1.7-3.8-3.8h0v-16.6c0-2.1,1.7-3.8,3.8-3.8h16.6c2.1,0,3.8,1.7,3.8,3.8h0v16.6h0c0,2.1-1.7,3.8-3.8,3.8h-16.6ZM187.4,193v16.6c0,1,.8,1.8,1.8,1.8h16.6c1,0,1.8-.8,1.8-1.8h0v-16.6c0-1-.8-1.8-1.8-1.8h-16.6c-1,0-1.8.8-1.8,1.8Z"/>
  <path id="path80" class="st0" d="M213.1,213.3c-2.1,0-3.8-1.7-3.8-3.8h0v-16.6c0-2.1,1.7-3.8,3.8-3.8h16.6c2.1,0,3.8,1.7,3.8,3.8h0v16.6c0,2.1-1.7,3.8-3.8,3.8h-16.6ZM211.3,193v16.6c0,1,.8,1.8,1.8,1.8h16.6c1,0,1.8-.8,1.8-1.8h0v-16.6c0-1-.8-1.8-1.8-1.8h-16.6c-1,0-1.8.8-1.8,1.8Z"/>
  <path id="path82" class="st0" d="M236.8,213.3c-2.1,0-3.8-1.7-3.8-3.8h0v-16.6c0-2.1,1.7-3.8,3.8-3.8h16.6c2.1,0,3.8,1.7,3.8,3.8h0v16.6c0,2.1-1.7,3.8-3.8,3.8h-16.6ZM235,193v16.6c0,1,.8,1.8,1.8,1.8h16.6c1,0,1.8-.8,1.8-1.8h0v-16.6c0-1-.8-1.8-1.8-1.8h-16.6c-1,0-1.8.8-1.8,1.8Z"/>
  <path id="path84" class="st0" d="M260.6,213.3c-2.1,0-3.8-1.7-3.8-3.8h0v-16.6c0-2.1,1.7-3.8,3.8-3.8h16.6c2.1,0,3.8,1.7,3.8,3.8h0v16.6c0,2.1-1.7,3.8-3.8,3.8h-16.6ZM258.8,193v16.6c0,1,.8,1.8,1.8,1.8h16.6c1,0,1.8-.8,1.8-1.8h0v-16.6c0-1-.8-1.8-1.8-1.8h-16.6c-1,0-1.8.8-1.8,1.8Z"/>
  <path id="path86" class="st0" d="M284.4,213.3c-2.1,0-3.8-1.7-3.8-3.8h0v-16.6c0-2.1,1.7-3.8,3.8-3.8h16.6c2.1,0,3.8,1.7,3.8,3.8h0v16.6h0c0,2.1-1.7,3.8-3.8,3.8h-16.6ZM282.6,193v16.6c0,1,.8,1.8,1.8,1.8h16.6c1,0,1.8-.8,1.8-1.8h0v-16.6c0-1-.8-1.8-1.8-1.8h-16.6c-1,0-1.8.8-1.8,1.8Z"/>
  <path id="path88" class="st0" d="M308.2,213.3c-2.1,0-3.8-1.7-3.8-3.8h0v-16.6c0-2.1,1.7-3.8,3.8-3.8h16.6c2.1,0,3.8,1.7,3.8,3.8h0v16.6c0,2.1-1.7,3.8-3.8,3.8h-16.6ZM306.4,193v16.6c0,1,.8,1.8,1.8,1.8h16.6c1,0,1.8-.8,1.8-1.8h0v-16.6c0-1-.8-1.8-1.8-1.8h-16.6c-1,0-1.8.8-1.8,1.8Z"/>
  <path id="path90" class="st0" d="M331.9,213.3c-2.1,0-3.8-1.7-3.8-3.8h0v-16.6c0-2.1,1.7-3.8,3.8-3.8h16.6c2.1,0,3.8,1.7,3.8,3.8h0v16.6c0,2.1-1.7,3.8-3.8,3.8h-16.6ZM330.1,193v16.6c0,1,.8,1.8,1.8,1.8h16.6c1,0,1.8-.8,1.8-1.8h0v-16.6c0-1-.8-1.8-1.8-1.8h-16.6c-1,0-1.8.8-1.8,1.8h0Z"/>
  <path id="path92" class="st0" d="M337.9,285.4c-2.1,0-3.8-1.7-3.8-3.8h0v-16.6c0-2.1,1.7-3.8,3.8-3.8h24.4c2.1,0,3.8,1.7,3.8,3.8h0v16.6c0,2.1-1.7,3.8-3.8,3.8h-24.4ZM336.1,265v16.6c0,1,.8,1.8,1.8,1.8h24.4c1,0,1.8-.8,1.8-1.8h0v-16.6c0-1-.8-1.8-1.8-1.8h-24.4c-1,0-1.8.8-1.8,1.8Z"/>
  <path id="path94" class="st0" d="M123.8,310.2c-2.1,0-3.8-1.7-3.8-3.8h0v-16.6c0-2.1,1.7-3.8,3.8-3.8h16.6c2.1,0,3.8,1.7,3.8,3.8h0v16.6h0c0,2.1-1.7,3.8-3.8,3.8h-16.6ZM122,289.9v16.6c0,1,.8,1.8,1.8,1.8h16.6c1,0,1.8-.8,1.8-1.8h0v-16.6c0-1-.8-1.8-1.8-1.8h-16.6c-1,0-1.8.8-1.8,1.8Z"/>
  <path id="path96" class="st0" d="M330.4,310.2c-2.1,0-3.8-1.7-3.8-3.8h0v-16.6c0-2.1,1.7-3.8,3.8-3.8h16.6c2.1,0,3.8,1.7,3.8,3.8h0v16.6h0c0,2.1-1.7,3.8-3.8,3.8h-16.6ZM328.6,289.9v16.6c0,1,.8,1.8,1.8,1.8h16.6c1,0,1.8-.8,1.8-1.8h0v-16.6c0-1-.8-1.8-1.8-1.8h-16.6c-1,0-1.8.8-1.8,1.8Z"/>
  <path id="path98" class="st0" d="M147.5,310.2c-2.1,0-3.8-1.7-3.8-3.8h0v-16.6c0-2.1,1.7-3.8,3.8-3.8h175.6c2.1,0,3.8,1.7,3.8,3.8h0v16.6c0,2.1-1.7,3.8-3.8,3.8h-175.6ZM145.7,289.9v16.6c0,1,.8,1.8,1.8,1.8h175.6c1,0,1.8-.8,1.8-1.8h0v-16.6c0-1-.8-1.8-1.8-1.8h-175.6c-1,0-1.8.8-1.8,1.8h0Z"/>
  <path id="path100" class="st0" d="M383,321.2c-3.6,0-6.5-2.9-6.5-6.5h0v-173.7c0-3.6,2.9-6.5,6.5-6.5h124.5c3.6,0,6.5,2.9,6.5,6.5h0v173.7c0,3.6-2.9,6.5-6.5,6.5h-124.5ZM378.5,141.1v173.7c0,2.5,2,4.5,4.5,4.5h124.5c2.5,0,4.5-2,4.5-4.5h0v-173.7c0-2.5-2-4.5-4.5-4.5h-124.5c-2.5,0-4.5,2-4.5,4.5h0Z"/>
  <path id="path102" class="st0" d="M75.5,331.8c-3.6,0-6.5-2.9-6.5-6.5h0V16.2c0-3.6,2.9-6.5,6.5-6.5h447.2c3.6,0,6.5,2.9,6.5,6.5h0v309.1c0,3.6-2.9,6.5-6.5,6.5H75.5ZM71,16.2v309.1c0,2.5,2,4.5,4.5,4.5h447.2c2.5,0,4.5-2,4.5-4.5h0V16.2c0-2.5-2-4.5-4.5-4.5H75.5c-2.5,0-4.5,2-4.5,4.5Z"/>
  <path id="path104" class="st0" d="M380,92.1c-1.9,0-3.5-1.6-3.5-3.5h0c0-1.9,1.6-3.5,3.5-3.5h130.8c1.9,0,3.5,1.6,3.5,3.5h0c0,1.9-1.6,3.5-3.5,3.5h-130.8ZM378.5,88.6c0,.8.7,1.5,1.5,1.5h130.8c.8,0,1.5-.7,1.5-1.5h0c0-.8-.7-1.5-1.5-1.5h-130.8c-.8,0-1.5.7-1.5,1.5Z"/>
  <path id="path106" class="st0" d="M380,81.1c-1.9,0-3.5-1.6-3.5-3.5h0c0-1.9,1.6-3.5,3.5-3.5h130.8c1.9,0,3.5,1.6,3.5,3.5h0c0,1.9-1.6,3.5-3.5,3.5h-130.8ZM378.5,77.6c0,.8.7,1.5,1.5,1.5h130.8c.8,0,1.5-.7,1.5-1.5h0c0-.8-.7-1.5-1.5-1.5h-130.8c-.8,0-1.5.7-1.5,1.5Z"/>
  <path id="path108" class="st0" d="M380,70.1c-1.9,0-3.5-1.6-3.5-3.5h0c0-1.9,1.6-3.5,3.5-3.5h130.8c1.9,0,3.5,1.6,3.5,3.5h0c0,1.9-1.6,3.5-3.5,3.5h-130.8ZM378.5,66.6c0,.8.7,1.5,1.5,1.5h130.8c.8,0,1.5-.7,1.5-1.5h0c0-.8-.7-1.5-1.5-1.5h-130.8c-.8,0-1.5.7-1.5,1.5Z"/>
  <path id="path110" class="st0" d="M380,59.1c-1.9,0-3.5-1.6-3.5-3.5h0c0-1.9,1.6-3.5,3.5-3.5h130.8c1.9,0,3.5,1.6,3.5,3.5h0c0,1.9-1.6,3.5-3.5,3.5h-130.8ZM378.5,55.6c0,.8.7,1.5,1.5,1.5h130.8c.8,0,1.5-.7,1.5-1.5h0c0-.8-.7-1.5-1.5-1.5h-130.8c-.8,0-1.5.7-1.5,1.5Z"/>
  <path id="path112" class="st0" d="M380,48.1c-1.9,0-3.5-1.6-3.5-3.5h0c0-1.9,1.6-3.5,3.5-3.5h130.8c1.9,0,3.5,1.6,3.5,3.5h0c0,1.9-1.6,3.5-3.5,3.5h-130.8ZM378.5,44.6c0,.8.7,1.5,1.5,1.5h130.8c.8,0,1.5-.7,1.5-1.5h0c0-.8-.7-1.5-1.5-1.5h-130.8c-.8,0-1.5.7-1.5,1.5Z"/>
  <path id="path114" class="st0" d="M380,37.1c-1.9,0-3.5-1.6-3.5-3.5h0c0-1.9,1.6-3.5,3.5-3.5h130.8c1.9,0,3.5,1.6,3.5,3.5h0c0,1.9-1.6,3.5-3.5,3.5h-130.8ZM378.5,33.6c0,.8.7,1.5,1.5,1.5h130.8c.8,0,1.5-.7,1.5-1.5h0c0-.8-.7-1.5-1.5-1.5h-130.8c-.8,0-1.5.7-1.5,1.5Z"/>
  <path id="path116" class="st0" d="M380,26.1c-1.9,0-3.5-1.6-3.5-3.5h0c0-1.9,1.6-3.5,3.5-3.5h130.8c1.9,0,3.5,1.6,3.5,3.5h0c0,1.9-1.6,3.5-3.5,3.5h-130.8ZM378.5,22.6c0,.8.7,1.5,1.5,1.5h130.8c.8,0,1.5-.7,1.5-1.5h0c0-.8-.7-1.5-1.5-1.5h-130.8c-.8,0-1.5.7-1.5,1.5Z"/>
  <path id="path4021" class="st0" d="M70.2,115.2v-2h457.8v2H70.2Z"/>
  <path id="path4021-50" class="st0" d="M377.7,182v-2h136v2h-136Z"/>
  <path id="path124" class="st0" d="M394.3,311.1c-1.9,0-3.4-1.5-3.4-3.4h0v-6.8c0-1.9,1.5-3.4,3.4-3.4h101.9c1.9,0,3.4,1.5,3.4,3.4h0v6.8c0,1.9-1.5,3.4-3.4,3.4h-101.9ZM392.9,300.8v6.8c0,.8.6,1.4,1.4,1.4h101.9c.8,0,1.4-.6,1.4-1.4h0v-6.8h0c0-.8-.6-1.4-1.4-1.4h-101.9c-.8,0-1.4.6-1.4,1.4Z"/>
  <path id="path4021-5" class="st0" d="M70.1,156v-2h307.6v2H70.1Z"/>
</svg>