<?xml version="1.0" encoding="UTF-8"?>
<svg id="Layer_3" xmlns="http://www.w3.org/2000/svg" version="1.1" xmlns:cc="http://creativecommons.org/ns#" xmlns:dc="http://purl.org/dc/elements/1.1/" xmlns:rdf="http://www.w3.org/1999/02/22-rdf-syntax-ns#" viewBox="0 0 598.2 350.3">
  <!-- Generator: Adobe Illustrator 29.0.1, SVG Export Plug-In . SVG Version: 2.1.0 Build 192)  -->
  <defs>
    <style>
      .st0 {
        stroke-width: 2px;
      }

      .st0, .st1, .st2, .st3, .st4 {
        stroke: #f4f4f4;
      }

      .st0, .st2, .st4 {
        fill: none;
      }

      .st1 {
        fill: red;
      }

      .st1, .st2, .st3, .st4 {
        stroke-miterlimit: 11.3;
      }

      .st1, .st3, .st4 {
        stroke-width: 5px;
      }

      .st2 {
        stroke-width: 3.7px;
      }

      .st3, .st5 {
        fill: #f4f4f4;
      }
    </style>
  </defs>
  <g id="layer1">
    <path id="rect3285" class="st5" d="M199.4,20.5c-5.9,0-10.6,4.6-10.6,10.3v288.7c0,5.7,4.8,10.3,10.6,10.3h199.4c5.9,0,10.6-4.6,10.6-10.3V30.8c0-5.7-4.8-10.3-10.6-10.3h-199.4ZM199.4,22.5h199.4c4.7,0,8.5,3.7,8.5,8.3v288.7c0,4.6-3.8,8.3-8.5,8.3h-199.4c-4.7,0-8.5-3.7-8.5-8.3V30.8c0-4.6,3.8-8.3,8.5-8.3Z"/>
    <path id="rect3285-7" class="st5" d="M273.3,49.3v53.4h-57.1v189.7c0,4.7,3.9,8.6,8.8,8.6h147.6c4.9,0,8.8-3.8,8.8-8.6V57.8c0-4.7-4-8.6-8.8-8.6h-99.3ZM275.5,51.3h97.2c3.7,0,6.7,2.9,6.7,6.5v234.6c0,3.6-3,6.5-6.7,6.5h-147.6c-3.7,0-6.7-2.9-6.7-6.5V104.8h57.1v-53.4Z"/>
    <path id="rect3285-3" class="st5" d="M237.9,115.9c-2.5,0-4.5,2-4.5,4.5v109.4c0,2.5,2,4.5,4.5,4.5h122.3c2.5,0,4.5-2,4.5-4.5v-109.4c0-2.5-2-4.5-4.5-4.5h-122.3ZM237.9,117.9h122.3c1.4,0,2.5,1.1,2.5,2.6v109.4c0,1.4-1.1,2.6-2.5,2.6h-122.3c-1.4,0-2.5-1.1-2.5-2.6v-109.4c0-1.4,1.1-2.6,2.5-2.6Z"/>
    <path id="rect3285-0-2" class="st5" d="M225.5,47.5c-5.9,0-10.5,5.4-10.5,11.9v39.6h54.7v-51.5h-44.2ZM225.5,49.6h42.1v47.4h-50.4v-37.6c0-5.6,3.8-9.8,8.4-9.8Z"/>
    <path id="path8361-0" class="st1" d="M283.1,92.2h87.9"/>
    <path id="path8361-2" class="st4" d="M226.6,257.7h144.4"/>
    <path id="path8545" class="st0" d="M331.7,208.2c-2.8,2.6-15.8-1.6-19.5-.2-3.6,1.4-10.3,13.1-14.2,13-3.9,0-10-12-13.6-13.6-3.6-1.5-16.8,2.2-19.5-.6-2.7-2.7,1.7-15.4.2-18.9-1.4-3.5-13.4-10-13.4-13.8,0-3.8,12.4-9.8,13.9-13.2,1.6-3.5-2.2-16.3.6-18.9,2.8-2.6,15.8,1.6,19.5.2s10.3-13.1,14.2-13c3.9,0,10,12,13.6,13.6s16.8-2.2,19.5.6-1.7,15.4-.2,18.9,13.4,10,13.4,13.8c0,3.8-12.4,9.8-13.9,13.2-1.6,3.5,2.2,16.3-.6,18.9h0Z"/>
    <path id="path8361-2-3" class="st4" d="M226.6,278.4h144.4"/>
    <path id="path8361-0-1" class="st3" d="M283.1,71.1h87.9"/>
    <ellipse id="path8547-8" class="st2" cx="300.1" cy="176.6" rx="21.1" ry="20.5"/>
    <ellipse id="path8547-5-4" class="st4" cx="300.1" cy="176.6" rx="17" ry="16.5"/>
  </g>
</svg>