<?xml version="1.0" encoding="UTF-8"?>
<svg id="Layer_3" xmlns="http://www.w3.org/2000/svg" version="1.1" xmlns:cc="http://creativecommons.org/ns#" xmlns:dc="http://purl.org/dc/elements/1.1/" xmlns:rdf="http://www.w3.org/1999/02/22-rdf-syntax-ns#" viewBox="0 0 598.2 350.3">
  <!-- Generator: Adobe Illustrator 29.1.0, SVG Export Plug-In . SVG Version: 2.1.0 Build 142)  -->
  <defs>
    <style>
      .st0 {
        fill: #f4f4f4;
      }
    </style>
  </defs>
  <path class="st0" d="M593.1,209.4V74.2h-.4l-4.4-7.1-2-38.6h-2.5v-4.2h-143.3v2.6h-3.2v-2.6h-5.8v2.6h-3.2v-2.6h-5.8v2.6h-3.2v-2.6h-5.1v2.6h-3.2v-2.6h-5.8v2.6h-3.2v-2.6h-5.1v2.6h-3.2v-2.6h-5.8v2.6h-3.2v-2.6h-5.1v2.6h-3.2v-2.6h-5.8v2.6h-3.2v-2.6h-5.1v2.6h-3.2v-2.6h-5.8v2.6h-3.2v-2.6h-5.1v2.6h-3.2v-2.6h-5.8v2.6h-3.2v-2.6h-5.1v2.6h-3.2v-2.6h-5.8v2.6h-3.2v-2.6h-5.1v2.6h-3.2v-2.6h-5.8v2.6h-3.2v-2.6h-5.1v2.6h-3.2v-2.6h-5.8v2.6h-3.2v-2.6h-5.1v2.6h-3.2v-2.6h-5.8v2.6h-3.2v-2.6h-5.1v2.6h-3.2v-2.6h-5.8v2.6h-3.2v-2.6h-5.1v2.6h-3.2v-2.6h-5.8v2.6h-3.2v-2.6h-5.1v2.6h-3.2v-2.6h-5.8v2.6h-3.2v-2.6h-5.1v2.6h-3.2v-2.6h-5.8v2.6h-3.2v-2.6h-5.1v2.6h-3.2v-2.6h-5.8v2.6h-3.2v-2.6h-5.1v2.6h-3.2v-2.6h-5.8v2.6h-3.2v-2.6h-5.6v3.2H34.9v-3.3h-17.5v3.6h-1.9l-3.7,38.8h.4l-5.5,7.7h-.3v135.2l-2.9,91h2.9v5.4h586.6v-5.4h3c0-.1-2.9-91.1-2.9-91.1ZM6.4,298.4h-.8l.8-26.9v26.9ZM583.7,30.4h.6l1.7,33.1-2.3-3.8v-29.3ZM440.5,38.7v4.2c0,.9-.7,1.6-1.6,1.6s-1.6-.7-1.6-1.6v-4.2h3.2ZM437.2,28.8h3.2v7.9h-3.2v-7.9ZM431.5,38.8v4.2c0,.9-.7,1.6-1.6,1.6s-1.6-.7-1.6-1.6v-4.2h3.2ZM428.2,28.8h3.2v7.9h-3.2v-7.9ZM419.3,28.8h3.2v7.9h-3.2v-7.9ZM419.3,38.8h3.2v4.2c0,.9-.7,1.6-1.6,1.6s-1.6-.7-1.6-1.6v-4.2ZM411,28.8h3.2v7.9h-3.2v-7.9ZM414.3,38.8v4.2c0,.9-.7,1.6-1.6,1.6s-1.6-.7-1.6-1.6v-4.2h3.2ZM402,28.8h3.2v7.9h-3.2v-7.9ZM405.3,38.8v4.2c0,.9-.7,1.6-1.6,1.6s-1.6-.7-1.6-1.6v-4.2h3.2ZM393.8,28.8h3.2v7.9h-3.2v-7.9ZM397.1,38.8v4.2c0,.9-.7,1.6-1.6,1.6s-1.6-.7-1.6-1.6v-4.2h3.2ZM384.8,28.8h3.2v7.9h-3.2v-7.9ZM388.1,38.8v4.2c0,.9-.7,1.6-1.6,1.6s-1.6-.7-1.6-1.6v-4.2h3.2ZM376.6,28.8h3.2v7.9h-3.2v-7.9ZM379.8,38.8v4.2c0,.9-.7,1.6-1.6,1.6s-1.6-.7-1.6-1.6v-4.2h3.2ZM367.6,28.8h3.2v7.9h-3.2v-7.9ZM370.8,38.8v4.2c0,.9-.7,1.6-1.6,1.6s-1.6-.7-1.6-1.6v-4.2h3.2ZM359.4,28.8h3.2v7.9h-3.2v-7.9ZM359.4,38.8h3.2v4.2c0,.9-.7,1.6-1.6,1.6s-1.6-.7-1.6-1.6v-4.2ZM350.4,28.8h3.2v7.9h-3.2v-7.9ZM350.4,38.8h3.2v4.2c0,.9-.7,1.6-1.6,1.6s-1.6-.7-1.6-1.6v-4.2ZM342.2,28.8h3.2v7.9h-3.2v-7.9ZM342.2,38.8h3.2v4.2c0,.9-.7,1.6-1.6,1.6s-1.6-.7-1.6-1.6v-4.2ZM333.2,28.8h3.2v7.9h-3.2v-7.9ZM333.2,38.8h3.2v4.2c0,.9-.7,1.6-1.6,1.6s-1.6-.7-1.6-1.6v-4.2ZM324.9,28.8h3.2v7.9h-3.2v-7.9ZM328.2,38.8v4.2c0,.9-.7,1.6-1.6,1.6s-1.6-.7-1.6-1.6v-4.2h3.2ZM315.9,28.8h3.2v7.9h-3.2v-7.9ZM319.2,38.8v4.2c0,.9-.7,1.6-1.6,1.6s-1.6-.7-1.6-1.6v-4.2h3.2ZM307.7,28.8h3.2v7.9h-3.2v-7.9ZM311,38.8v4.2c0,.9-.7,1.6-1.6,1.6s-1.6-.7-1.6-1.6v-4.2h3.2ZM298.7,28.8h3.2v7.9h-3.2v-7.9ZM302,38.8v4.2c0,.9-.7,1.6-1.6,1.6s-1.6-.7-1.6-1.6v-4.2h3.2ZM290.5,28.8h3.2v7.9h-3.2v-7.9ZM293.8,38.8v4.2c0,.9-.7,1.6-1.6,1.6s-1.6-.7-1.6-1.6v-4.2h3.2ZM281.5,28.8h3.2v7.9h-3.2v-7.9ZM284.8,38.8v4.2c0,.9-.7,1.6-1.6,1.6s-1.6-.7-1.6-1.6v-4.2h3.2ZM273.3,28.8h3.2v7.9h-3.2v-7.9ZM273.3,38.8h3.2v4.2c0,.9-.7,1.6-1.6,1.6s-1.6-.7-1.6-1.6v-4.2ZM264.3,28.8h3.2v7.9h-3.2v-7.9ZM264.3,38.8h3.2v4.2c0,.9-.7,1.6-1.6,1.6s-1.6-.7-1.6-1.6v-4.2ZM256.1,28.8h3.2v7.9h-3.2v-7.9ZM259.3,38.8v4.2c0,.9-.7,1.6-1.6,1.6s-1.6-.7-1.6-1.6v-4.2h3.2ZM247.1,28.8h3.2v7.9h-3.2v-7.9ZM247.1,38.8h3.2v4.2c0,.9-.7,1.6-1.6,1.6s-1.6-.7-1.6-1.6v-4.2h0ZM238.9,28.8h3.2v7.9h-3.2v-7.9ZM238.9,38.8h3.2v4.2c0,.9-.7,1.6-1.6,1.6s-1.6-.7-1.6-1.6v-4.2h0ZM229.9,28.8h3.2v7.9h-3.2v-7.9ZM229.9,38.8h3.2v4.2c0,.9-.7,1.6-1.6,1.6s-1.6-.7-1.6-1.6v-4.2h0ZM221.6,28.8h3.2v7.9h-3.2v-7.9ZM224.9,38.8v4.2c0,.9-.7,1.6-1.6,1.6s-1.6-.7-1.6-1.6v-4.2h3.2ZM212.6,28.8h3.2v7.9h-3.2v-7.9ZM215.9,38.8v4.2c0,.9-.7,1.6-1.6,1.6s-1.6-.7-1.6-1.6v-4.2h3.2ZM204.4,28.8h3.2v7.9h-3.2v-7.9ZM207.7,38.8v4.2c0,.9-.7,1.6-1.6,1.6s-1.6-.7-1.6-1.6v-4.2h3.2ZM195.4,28.8h3.2v7.9h-3.2v-7.9ZM198.7,38.8v4.2c0,.9-.7,1.6-1.6,1.6s-1.6-.7-1.6-1.6v-4.2h3.2ZM187.2,28.8h3.2v7.9h-3.2v-7.9ZM187.2,38.8h3.2v4.2c0,.9-.7,1.6-1.6,1.6s-1.6-.7-1.6-1.6v-4.2h0ZM178.2,28.8h3.2v7.9h-3.2v-7.9ZM178.2,38.8h3.2v4.2c0,.9-.7,1.6-1.6,1.6s-1.6-.7-1.6-1.6v-4.2h0ZM170,28.8h3.2v7.9h-3.2v-7.9ZM170,38.8h3.2v4.2c0,.9-.7,1.6-1.6,1.6s-1.6-.7-1.6-1.6v-4.2h0ZM161,28.8h3.2v7.9h-3.2v-7.9ZM161,38.8h3.2v4.2c0,.9-.7,1.6-1.6,1.6s-1.6-.7-1.6-1.6v-4.2h0ZM157.4,26.2h1.6v16.7c0,2,1.6,3.6,3.6,3.6s3.6-1.6,3.6-3.6v-16.7h1.8v16.7c0,2,1.6,3.6,3.6,3.6s3.6-1.6,3.6-3.6v-16.7h1.1v16.7c0,2,1.6,3.6,3.6,3.6s3.6-1.6,3.6-3.6v-16.7h1.8v16.7c0,2,1.6,3.6,3.6,3.6s3.6-1.6,3.6-3.6v-16.7h1.1v16.7c0,2,1.6,3.6,3.6,3.6s3.6-1.6,3.6-3.6v-16.7h1.8v16.7c0,2,1.6,3.6,3.6,3.6s3.6-1.6,3.6-3.6v-16.7h1.1v16.7c0,2,1.6,3.6,3.6,3.6s3.6-1.6,3.6-3.6v-16.7h1.8v16.7c0,2,1.6,3.6,3.6,3.6s3.6-1.6,3.6-3.6v-16.7h1.1v16.7c0,2,1.6,3.6,3.6,3.6s3.6-1.6,3.6-3.6v-16.7h1.8v16.7c0,2,1.6,3.6,3.6,3.6s3.6-1.6,3.6-3.6v-16.7h1.1v16.7c0,2,1.6,3.6,3.6,3.6s3.6-1.6,3.6-3.6v-16.7h1.8v16.7c0,2,1.6,3.6,3.6,3.6s3.6-1.6,3.6-3.6v-16.7h1.1v16.7c0,2,1.6,3.6,3.6,3.6s3.6-1.6,3.6-3.6v-16.7h1.8v16.7c0,2,1.6,3.6,3.6,3.6s3.6-1.6,3.6-3.6v-16.7h1.1v16.7c0,2,1.6,3.6,3.6,3.6s3.6-1.6,3.6-3.6v-16.7h1.8v16.7c0,2,1.6,3.6,3.6,3.6s3.6-1.6,3.6-3.6v-16.7h1.1v16.7c0,2,1.6,3.6,3.6,3.6s3.6-1.6,3.6-3.6v-16.7h1.8v16.7c0,2,1.6,3.6,3.6,3.6s3.6-1.6,3.6-3.6v-16.7h1.1v16.7c0,2,1.6,3.6,3.6,3.6s3.6-1.6,3.6-3.6v-16.7h1.8v16.7c0,2,1.6,3.6,3.6,3.6s3.6-1.6,3.6-3.6v-16.7h1.1v16.7c0,2,1.6,3.6,3.6,3.6s3.6-1.6,3.6-3.6v-16.7h1.8v16.7c0,2,1.6,3.6,3.6,3.6s3.6-1.6,3.6-3.6v-16.7h1.1v16.7c0,2,1.6,3.6,3.6,3.6s3.6-1.6,3.6-3.6v-16.7h1.8v16.7c0,2,1.6,3.6,3.6,3.6s3.6-1.6,3.6-3.6v-16.7h1.1v16.7c0,2,1.6,3.6,3.6,3.6s3.6-1.6,3.6-3.6v-16.7h1.8v16.7c0,2,1.6,3.6,3.6,3.6s3.6-1.6,3.6-3.6v-16.7h1.1v16.7c0,2,1.6,3.6,3.6,3.6s3.6-1.6,3.6-3.6v-16.7h1.8v16.7c0,2,1.6,3.6,3.6,3.6s3.6-1.6,3.6-3.6v-16.7h1.1v16.7c0,2,1.6,3.6,3.6,3.6s3.6-1.6,3.6-3.6v-16.7h1.8v16.7c0,2,1.6,3.6,3.6,3.6s3.6-1.6,3.6-3.6v-16.7h1.1v16.7c0,2,1.6,3.6,3.6,3.6s3.6-1.6,3.6-3.6v-16.7h1.8v16.7c0,2,1.6,3.6,3.6,3.6s3.6-1.6,3.6-3.6v-16.7h1.8v16.7c0,2,1.6,3.6,3.6,3.6s3.6-1.6,3.6-3.6v-16.7h139.3v32.9H157.4V26.2ZM38.6,29.4h113.8v2.9H38.6v-2.9ZM34.9,29.4h1.7v4.9h117.8v-4.9h1v27.7h-20.6v-1.5h-12.2v1.3h-56.3v-1.3h-12.3v1.3h-19.1s0-27.5,0-27.5ZM19.4,26.1h13.5v32.4h-13.5s0-32.4,0-32.4ZM17.2,29.7h0v29.5l-3.3,4.6,3.2-34.1h.1ZM18.9,60.4h16v-1.7h21.1v-1.3h8.3v1.3h60.3v-1.3h8.2v1.5h22.6v2h426.7l8.1,13.1H9.2l9.7-13.7h0ZM591,303.8H8.4V76.2h582.6v227.6ZM593,298.4v-27.4l.9,27.4h-.9Z"/>
  <path class="st0" d="M45.4,283.8h507.5c10.8,0,19.6-8.8,19.6-19.6V110.2c0-10.8-8.8-19.6-19.6-19.6H45.4c-10.8,0-19.6,8.8-19.6,19.6v154c0,10.8,8.8,19.6,19.6,19.6h0ZM219.6,92.5h153.9v15.4h-153.9v-15.4ZM544.7,109.9c5,0,9.1,4.1,9.1,9.1v136.3c0,5-4.1,9.1-9.1,9.1H53.6c-5,0-9.1-4.1-9.1-9.1V119c0-5,4.1-9.1,9.1-9.1h491.1ZM27.8,110.2c0-9.7,7.9-17.6,17.6-17.6h172.2v15.4H53.6c-6.1,0-11.1,5-11.1,11.1v136.3c0,6.1,5,11.1,11.1,11.1h491.1c6.1,0,11.1-5,11.1-11.1V119c0-6.1-5-11.1-11.1-11.1h-169.2v-15.4h177.4c9.7,0,17.6,7.9,17.6,17.6v154h0c0,9.8-7.9,17.7-17.6,17.7H45.4c-9.7,0-17.6-7.9-17.6-17.6,0,0,0-154,0-154Z"/>
  <path class="st0" d="M426.9,229.7c0,3.9,3.2,7.1,7.1,7.1s7.1-3.2,7.1-7.1-3.2-7.1-7.1-7.1-7.1,3.2-7.1,7.1ZM434,224.6c2.8,0,5.1,2.3,5.1,5.1s-2.3,5.1-5.1,5.1-5.1-2.3-5.1-5.1,2.3-5.1,5.1-5.1Z"/>
  <path class="st0" d="M76.2,142.6h9.3c3.2,0,5.7-2.6,5.7-5.7v-9.3c0-3.2-2.6-5.7-5.7-5.7h-9.3c-3.2,0-5.7,2.6-5.7,5.7v9.3c0,3.2,2.6,5.7,5.7,5.7ZM72.4,127.6c0-2.1,1.7-3.7,3.7-3.7h9.3c2.1,0,3.7,1.7,3.7,3.7v9.3c0,2.1-1.7,3.7-3.7,3.7h-9.3c-2.1,0-3.7-1.7-3.7-3.7,0,0,0-9.3,0-9.3Z"/>
  <path class="st0" d="M103.1,142.6h9.3c3.2,0,5.7-2.6,5.7-5.7v-9.3c0-3.2-2.6-5.7-5.7-5.7h-9.3c-3.2,0-5.7,2.6-5.7,5.7v9.3c0,3.2,2.6,5.7,5.7,5.7ZM99.3,127.5c0-2.1,1.7-3.7,3.7-3.7h9.3c2.1,0,3.7,1.7,3.7,3.7v9.3c0,2.1-1.7,3.7-3.7,3.7h-9.3c-2.1,0-3.7-1.7-3.7-3.7v-9.3Z"/>
  <path class="st0" d="M130,142.6h9.3c3.2,0,5.7-2.6,5.7-5.7v-9.3c0-3.2-2.6-5.7-5.7-5.7h-9.3c-3.2,0-5.7,2.6-5.7,5.7v9.3c0,3.2,2.6,5.7,5.7,5.7ZM126.2,127.5c0-2.1,1.7-3.7,3.7-3.7h9.3c2.1,0,3.7,1.7,3.7,3.7v9.3c0,2.1-1.7,3.7-3.7,3.7h-9.3c-2.1,0-3.7-1.7-3.7-3.7v-9.3Z"/>
  <path class="st0" d="M156.9,142.6h9.3c3.2,0,5.7-2.6,5.7-5.7v-9.3c0-3.2-2.6-5.7-5.7-5.7h-9.3c-3.2,0-5.7,2.6-5.7,5.7v9.3c0,3.2,2.6,5.7,5.7,5.7ZM153.1,127.5c0-2.1,1.7-3.7,3.7-3.7h9.3c2.1,0,3.7,1.7,3.7,3.7v9.3c0,2.1-1.7,3.7-3.7,3.7h-9.3c-2.1,0-3.7-1.7-3.7-3.7v-9.3Z"/>
  <path class="st0" d="M183.7,142.6h9.3c3.2,0,5.7-2.6,5.7-5.7v-9.3c0-3.2-2.6-5.7-5.7-5.7h-9.3c-3.2,0-5.7,2.6-5.7,5.7v9.3c0,3.2,2.6,5.7,5.7,5.7ZM180,127.5c0-2.1,1.7-3.7,3.7-3.7h9.3c2.1,0,3.7,1.7,3.7,3.7v9.3c0,2.1-1.7,3.7-3.7,3.7h-9.3c-2.1,0-3.7-1.7-3.7-3.7v-9.3Z"/>
  <path class="st0" d="M210.6,142.6h9.3c3.2,0,5.7-2.6,5.7-5.7v-9.3c0-3.2-2.6-5.7-5.7-5.7h-9.3c-3.2,0-5.7,2.6-5.7,5.7v9.3c0,3.2,2.6,5.7,5.7,5.7ZM206.9,127.5c0-2.1,1.7-3.7,3.7-3.7h9.3c2.1,0,3.7,1.7,3.7,3.7v9.3c0,2.1-1.7,3.7-3.7,3.7h-9.3c-2.1,0-3.7-1.7-3.7-3.7v-9.3Z"/>
  <path class="st0" d="M237.5,142.6h9.3c3.2,0,5.7-2.6,5.7-5.7v-9.3c0-3.2-2.6-5.7-5.7-5.7h-9.3c-3.2,0-5.7,2.6-5.7,5.7v9.3c0,3.2,2.6,5.7,5.7,5.7ZM233.8,127.5c0-2.1,1.7-3.7,3.7-3.7h9.3c2.1,0,3.7,1.7,3.7,3.7v9.3c0,2.1-1.7,3.7-3.7,3.7h-9.3c-2.1,0-3.7-1.7-3.7-3.7v-9.3Z"/>
  <path class="st0" d="M264.4,142.6h9.3c3.2,0,5.7-2.6,5.7-5.7v-9.3c0-3.2-2.6-5.7-5.7-5.7h-9.3c-3.2,0-5.7,2.6-5.7,5.7v9.3c0,3.2,2.6,5.7,5.7,5.7ZM260.7,127.5c0-2.1,1.7-3.7,3.7-3.7h9.3c2.1,0,3.7,1.7,3.7,3.7v9.3c0,2.1-1.7,3.7-3.7,3.7h-9.3c-2.1,0-3.7-1.7-3.7-3.7v-9.3Z"/>
  <path class="st0" d="M291.3,142.6h9.3c3.2,0,5.7-2.6,5.7-5.7v-9.3c0-3.2-2.6-5.7-5.7-5.7h-9.3c-3.2,0-5.7,2.6-5.7,5.7v9.3c0,3.2,2.6,5.7,5.7,5.7ZM287.6,127.5c0-2.1,1.7-3.7,3.7-3.7h9.3c2.1,0,3.7,1.7,3.7,3.7v9.3c0,2.1-1.7,3.7-3.7,3.7h-9.3c-2.1,0-3.7-1.7-3.7-3.7v-9.3Z"/>
  <path class="st0" d="M318.2,142.6h9.3c3.2,0,5.7-2.6,5.7-5.7v-9.3c0-3.2-2.6-5.7-5.7-5.7h-9.3c-3.2,0-5.7,2.6-5.7,5.7v9.3c0,3.2,2.6,5.7,5.7,5.7ZM314.5,127.5c0-2.1,1.7-3.7,3.7-3.7h9.3c2.1,0,3.7,1.7,3.7,3.7v9.3c0,2.1-1.7,3.7-3.7,3.7h-9.3c-2.1,0-3.7-1.7-3.7-3.7v-9.3Z"/>
  <path class="st0" d="M344.9,142.6h9.3c3.2,0,5.7-2.6,5.7-5.7v-9.3c0-3.2-2.6-5.7-5.7-5.7h-9.3c-3.2,0-5.7,2.6-5.7,5.7v9.3c0,3.2,2.6,5.7,5.7,5.7ZM341.2,127.5c0-2.1,1.7-3.7,3.7-3.7h9.3c2.1,0,3.7,1.7,3.7,3.7v9.3c0,2.1-1.7,3.7-3.7,3.7h-9.3c-2.1,0-3.7-1.7-3.7-3.7v-9.3Z"/>
  <path class="st0" d="M371.8,142.6h9.3c3.2,0,5.7-2.6,5.7-5.7v-9.3c0-3.2-2.6-5.7-5.7-5.7h-9.3c-3.2,0-5.7,2.6-5.7,5.7v9.3c0,3.2,2.6,5.7,5.7,5.7ZM368.1,127.5c0-2.1,1.7-3.7,3.7-3.7h9.3c2.1,0,3.7,1.7,3.7,3.7v9.3c0,2.1-1.7,3.7-3.7,3.7h-9.3c-2.1,0-3.7-1.7-3.7-3.7v-9.3Z"/>
  <path class="st0" d="M398.7,142.6h9.3c3.2,0,5.7-2.6,5.7-5.7v-9.3c0-3.2-2.6-5.7-5.7-5.7h-9.3c-3.2,0-5.7,2.6-5.7,5.7v9.3c0,3.2,2.6,5.7,5.7,5.7ZM395,127.5c0-2.1,1.7-3.7,3.7-3.7h9.3c2.1,0,3.7,1.7,3.7,3.7v9.3c0,2.1-1.7,3.7-3.7,3.7h-9.3c-2.1,0-3.7-1.7-3.7-3.7v-9.3Z"/>
  <path class="st0" d="M472,157.9h9.3c3.2,0,5.7-2.6,5.7-5.7v-9.3c0-3.2-2.6-5.7-5.7-5.7h-9.3c-3.2,0-5.7,2.6-5.7,5.7v9.3c0,3.2,2.6,5.7,5.7,5.7ZM468.2,142.9c0-2.1,1.7-3.7,3.7-3.7h9.3c2.1,0,3.7,1.7,3.7,3.7v9.3c0,2.1-1.7,3.7-3.7,3.7h-9.3c-2.1,0-3.7-1.7-3.7-3.7v-9.3Z"/>
  <path class="st0" d="M498.9,157.9h9.3c3.2,0,5.7-2.6,5.7-5.7v-9.3c0-3.2-2.6-5.7-5.7-5.7h-9.3c-3.2,0-5.7,2.6-5.7,5.7v9.3c0,3.2,2.6,5.7,5.7,5.7h0ZM495.1,142.9c0-2.1,1.7-3.7,3.7-3.7h9.3c2.1,0,3.7,1.7,3.7,3.7v9.3c0,2.1-1.7,3.7-3.7,3.7h-9.3c-2.1,0-3.7-1.7-3.7-3.7v-9.3Z"/>
  <path class="st0" d="M525.8,157.9h9.3c3.2,0,5.7-2.6,5.7-5.7v-9.3c0-3.2-2.6-5.7-5.7-5.7h-9.3c-3.2,0-5.7,2.6-5.7,5.7v9.3c0,3.2,2.6,5.7,5.7,5.7ZM522,142.9c0-2.1,1.7-3.7,3.7-3.7h9.3c2.1,0,3.7,1.7,3.7,3.7v9.3c0,2.1-1.7,3.7-3.7,3.7h-9.3c-2.1,0-3.7-1.7-3.7-3.7v-9.3Z"/>
  <path class="st0" d="M472,183.9h9.3c3.2,0,5.7-2.6,5.7-5.7v-9.3c0-3.2-2.6-5.7-5.7-5.7h-9.3c-3.2,0-5.7,2.6-5.7,5.7v9.3c0,3.2,2.6,5.7,5.7,5.7ZM468.3,168.9c0-2.1,1.7-3.7,3.7-3.7h9.3c2.1,0,3.7,1.7,3.7,3.7v9.3c0,2.1-1.7,3.7-3.7,3.7h-9.3c-2.1,0-3.7-1.7-3.7-3.7v-9.3Z"/>
  <path class="st0" d="M508.2,163.2h-9.3c-3.2,0-5.7,2.6-5.7,5.7v9.3c0,3.2,2.6,5.7,5.7,5.7h9.3c3.2,0,5.7-2.6,5.7-5.7v-9.3c0-3.2-2.6-5.7-5.7-5.7ZM511.8,178.2c0,2.1-1.7,3.7-3.7,3.7h-9.3c-2.1,0-3.7-1.7-3.7-3.7v-9.3c0-2.1,1.7-3.7,3.7-3.7h9.3c2.1,0,3.7,1.7,3.7,3.7v9.3Z"/>
  <path class="st0" d="M535.1,163.2h-9.3c-3.2,0-5.7,2.6-5.7,5.7v9.3c0,3.2,2.6,5.7,5.7,5.7h9.3c3.2,0,5.7-2.6,5.7-5.7v-9.3c0-3.2-2.6-5.7-5.7-5.7ZM538.8,178.2c0,2.1-1.7,3.7-3.7,3.7h-9.3c-2.1,0-3.7-1.7-3.7-3.7v-9.3c0-2.1,1.7-3.7,3.7-3.7h9.3c2.1,0,3.7,1.7,3.7,3.7v9.3Z"/>
  <path class="st0" d="M472,210.1h9.3c3.2,0,5.7-2.6,5.7-5.7v-9.3c0-3.2-2.6-5.7-5.7-5.7h-9.3c-3.2,0-5.7,2.6-5.7,5.7v9.3c0,3.2,2.6,5.7,5.7,5.7ZM468.2,195.1c0-2.1,1.7-3.7,3.7-3.7h9.3c2.1,0,3.7,1.7,3.7,3.7v9.3c0,2.1-1.7,3.7-3.7,3.7h-9.3c-2.1,0-3.7-1.7-3.7-3.7v-9.3Z"/>
  <path class="st0" d="M508.2,189.4h-9.3c-3.2,0-5.7,2.6-5.7,5.7v9.3c0,3.2,2.6,5.7,5.7,5.7h9.3c3.2,0,5.7-2.6,5.7-5.7v-9.3c0-3.2-2.6-5.7-5.7-5.7ZM511.9,204.4c0,2.1-1.7,3.7-3.7,3.7h-9.3c-2.1,0-3.7-1.7-3.7-3.7v-9.3c0-2.1,1.7-3.7,3.7-3.7h9.3c2.1,0,3.7,1.7,3.7,3.7v9.3Z"/>
  <path class="st0" d="M535.1,189.4h-9.3c-3.2,0-5.7,2.6-5.7,5.7v9.3c0,3.2,2.6,5.7,5.7,5.7h9.3c3.2,0,5.7-2.6,5.7-5.7v-9.3c0-3.2-2.6-5.7-5.7-5.7ZM538.8,204.4c0,2.1-1.7,3.7-3.7,3.7h-9.3c-2.1,0-3.7-1.7-3.7-3.7v-9.3c0-2.1,1.7-3.7,3.7-3.7h9.3c2.1,0,3.7,1.7,3.7,3.7v9.3Z"/>
  <path class="st0" d="M468.4,241.7h17c2.1,0,3.9-1.1,4.9-2.8,1,1.7,2.8,2.8,4.9,2.8h17c2.1,0,3.9-1.1,4.9-2.8,1,1.7,2.8,2.8,4.9,2.8h17c3.2,0,5.7-2.6,5.7-5.7v-16.7c0-2-1-3.8-2.6-4.8,1.6-1,2.6-2.8,2.6-4.8v-16.7c0-2-1-3.7-2.5-4.7,1.5-1,2.5-2.8,2.5-4.7v-16.7c0-1.9-.9-3.6-2.4-4.7,1.4-1,2.4-2.7,2.4-4.7v-16.7c0-3.2-2.6-5.7-5.7-5.7h-17c-2.1,0-3.9,1.1-4.9,2.8-1-1.7-2.8-2.8-4.9-2.8h-17c-2.1,0-3.9,1.1-4.9,2.8-1-1.7-2.8-2.8-4.9-2.8h-17c-3.2,0-5.7,2.6-5.7,5.7v16.7c0,1.9.9,3.6,2.4,4.7-1.4,1-2.4,2.7-2.4,4.7v16.7c0,2,1,3.7,2.5,4.7-1.5,1-2.5,2.8-2.5,4.7v16.7c0,2,1,3.8,2.6,4.8-1.6,1-2.6,2.8-2.6,4.8v16.7c0,3.2,2.6,5.7,5.7,5.7h0ZM490.3,216.3c-.5-.8-1.1-1.4-1.8-1.9.7-.5,1.4-1.1,1.8-1.9.5.8,1.1,1.4,1.8,1.9-.7.5-1.4,1.1-1.8,1.9ZM515.5,188.1c.7-.5,1.3-1.1,1.7-1.8.4.7,1,1.3,1.7,1.8-.7.5-1.3,1.1-1.7,1.8-.4-.7-1-1.3-1.7-1.8ZM516,192.9v16.7c0,2.1-1.7,3.7-3.7,3.7h-17c-2.1,0-3.7-1.7-3.7-3.7v-16.7c0-2.1,1.7-3.7,3.7-3.7h17c2.1,0,3.7,1.7,3.7,3.7ZM515.9,183.3c0,2.1-1.7,3.7-3.7,3.7h-17c-2.1,0-3.7-1.7-3.7-3.7v-16.7c0-1.8,1.3-3.3,2.9-3.6h18.6c1.7.4,2.9,1.9,2.9,3.6v16.7ZM492,188.1c-.7.5-1.3,1.1-1.7,1.8-.4-.7-1-1.3-1.7-1.8.7-.5,1.3-1.1,1.7-1.8.4.7,1,1.3,1.7,1.8ZM516,236c0,2.1-1.7,3.7-3.7,3.7h-17c-2.1,0-3.7-1.7-3.7-3.7v-16.7c0-2.1,1.7-3.7,3.7-3.7h17c2.1,0,3.7,1.7,3.7,3.7v16.7ZM517.2,216.3c-.5-.8-1.1-1.4-1.8-1.9.7-.5,1.4-1.1,1.8-1.9.5.8,1.1,1.4,1.8,1.9-.7.5-1.4,1.1-1.8,1.9ZM542.9,219.3v16.7c0,2.1-1.7,3.7-3.7,3.7h-17c-2.1,0-3.7-1.7-3.7-3.7v-16.7c0-2.1,1.7-3.7,3.7-3.7h17c2.1,0,3.7,1.7,3.7,3.7ZM542.9,192.9v16.7c0,2.1-1.7,3.7-3.7,3.7h-17c-2.1,0-3.7-1.7-3.7-3.7v-16.7c0-2.1,1.7-3.7,3.7-3.7h17c2.1,0,3.7,1.7,3.7,3.7ZM542.9,166.7v16.7c0,2.1-1.7,3.7-3.7,3.7h-17c-2.1,0-3.7-1.7-3.7-3.7v-16.7c0-1.8,1.3-3.3,2.9-3.6h18.6c1.7.4,2.9,1.9,2.9,3.6ZM518.4,140.6c0-2.1,1.7-3.7,3.7-3.7h17c2.1,0,3.7,1.7,3.7,3.7v16.7c0,1.8-1.3,3.3-2.9,3.6h-18.6c-1.7-.4-2.9-1.9-2.9-3.6v-16.7ZM517.2,160.3c.4.7.9,1.3,1.6,1.7-.6.5-1.2,1-1.6,1.7-.4-.7-.9-1.3-1.6-1.7.6-.5,1.2-1,1.6-1.7ZM495.2,136.9h17c2.1,0,3.7,1.7,3.7,3.7v16.7c0,1.8-1.3,3.3-2.9,3.6h-18.6c-1.7-.4-2.9-1.9-2.9-3.6v-16.7h0c0-2.1,1.7-3.7,3.7-3.7ZM490.3,160.3c.4.7.9,1.3,1.6,1.7-.6.5-1.2,1-1.6,1.7-.4-.7-.9-1.3-1.6-1.7.6-.5,1.2-1,1.6-1.7ZM464.6,157.4h0v-16.7c0-2.1,1.7-3.7,3.7-3.7h17c2.1,0,3.7,1.7,3.7,3.7v16.7c0,1.8-1.3,3.3-2.9,3.6h-18.6c-1.7-.4-2.9-1.9-2.9-3.6h0ZM464.6,183.4h0v-16.7c0-1.8,1.3-3.3,2.9-3.6h18.6c1.7.4,2.9,1.9,2.9,3.6v16.7c0,2.1-1.7,3.7-3.7,3.7h-17c-2.1,0-3.7-1.7-3.7-3.7h0ZM464.6,209.6v-16.7c0-2.1,1.7-3.7,3.7-3.7h17c2.1,0,3.7,1.7,3.7,3.7v16.7c0,2.1-1.7,3.7-3.7,3.7h-17c-2.1,0-3.7-1.7-3.7-3.7ZM464.6,219.2c0-2.1,1.7-3.7,3.7-3.7h17c2.1,0,3.7,1.7,3.7,3.7v16.7c0,2.1-1.7,3.7-3.7,3.7h-17c-2.1,0-3.7-1.7-3.7-3.7v-16.7Z"/>
  <path class="st0" d="M472,236.5h9.3c3.2,0,5.7-2.6,5.7-5.7v-9.3c0-3.2-2.6-5.7-5.7-5.7h-9.3c-3.2,0-5.7,2.6-5.7,5.7v9.3c0,3.2,2.6,5.7,5.7,5.7ZM468.2,221.4c0-2.1,1.7-3.7,3.7-3.7h9.3c2.1,0,3.7,1.7,3.7,3.7v9.3c0,2.1-1.7,3.7-3.7,3.7h-9.3c-2.1,0-3.7-1.7-3.7-3.7v-9.3Z"/>
  <path class="st0" d="M508.2,215.7h-9.3c-3.2,0-5.7,2.6-5.7,5.7v9.3c0,3.2,2.6,5.7,5.7,5.7h9.3c3.2,0,5.7-2.6,5.7-5.7v-9.3c0-3.2-2.6-5.7-5.7-5.7ZM511.9,230.8c0,2.1-1.7,3.7-3.7,3.7h-9.3c-2.1,0-3.7-1.7-3.7-3.7v-9.3c0-2.1,1.7-3.7,3.7-3.7h9.3c2.1,0,3.7,1.7,3.7,3.7v9.3Z"/>
  <path class="st0" d="M535.1,215.7h-9.3c-3.2,0-5.7,2.6-5.7,5.7v9.3c0,3.2,2.6,5.7,5.7,5.7h9.3c3.2,0,5.7-2.6,5.7-5.7v-9.3c0-3.2-2.6-5.7-5.7-5.7ZM538.8,230.8c0,2.1-1.7,3.7-3.7,3.7h-9.3c-2.1,0-3.7-1.7-3.7-3.7v-9.3c0-2.1,1.7-3.7,3.7-3.7h9.3c2.1,0,3.7,1.7,3.7,3.7v9.3Z"/>
  <path class="st0" d="M60.8,173.7h-.9c0,.1,2,.1,2,.1-.9,1-1.4,2.3-1.4,3.7v16.7c0,2,1,3.7,2.5,4.7-1.4,1-2.3,2.7-2.3,4.6v16.7c0,3.2,2.6,5.7,5.7,5.7h30.9c2,0,3.7-1,4.7-2.5,1,1.5,2.8,2.5,4.7,2.5h17c2.1,0,3.9-1.1,4.9-2.8.4.7,1,1.3,1.6,1.8-1.7,1-2.8,2.8-2.8,4.9v16.7c0,3.2,2.6,5.7,5.7,5.7h205.1c3.2,0,5.7-2.6,5.7-5.7v-16.7c0-1.9-.9-3.6-2.4-4.6.9-.5,1.6-1.2,2.1-2.1,1,1.7,2.8,2.8,4.9,2.8h17c2,0,3.8-1,4.8-2.6,1,1.6,2.8,2.6,4.8,2.6h30.9c3.2,0,5.7-2.6,5.7-5.7v-16.7c0-1.4-.5-2.6-1.3-3.6h17.2c3.2,0,5.7-2.6,5.7-5.7v-16.7c0-2.6-1.7-4.7-4-5.5,1-1,1.6-2.4,1.6-4v-16.7c0-3.2-2.6-5.7-5.7-5.7h-9.1c.8-1,1.3-2.2,1.3-3.6v-16.7c0-3.2-2.6-5.7-5.7-5.7h-17c-2.1,0-3.9,1.1-4.9,2.8-1-1.7-2.8-2.8-4.9-2.8h-17c-2.1,0-3.9,1.1-4.9,2.8-1-1.7-2.8-2.8-4.9-2.8h-17c-2,0-3.8,1.1-4.8,2.6-1-1.6-2.8-2.6-4.8-2.6h-17c-2.1,0-3.9,1.1-4.9,2.8-1-1.7-2.8-2.8-4.9-2.8h-17c-2.1,0-3.9,1.1-4.9,2.8-1-1.7-2.8-2.8-4.9-2.8h-17c-2.1,0-3.9,1.1-4.9,2.8-1-1.7-2.8-2.8-4.9-2.8h-17c-2.1,0-3.9,1.1-4.9,2.8-1-1.7-2.8-2.8-4.9-2.8h-17c-2.1,0-3.9,1.1-4.9,2.8-1-1.7-2.8-2.8-4.9-2.8h-17c-2.1,0-3.9,1.1-4.9,2.8-1-1.7-2.8-2.8-4.9-2.8h-17c-2.1,0-3.9,1.1-4.9,2.8-1-1.7-2.8-2.8-4.9-2.8h-17c-2.1,0-3.9,1.1-4.9,2.8-1-1.7-2.8-2.8-4.9-2.8h-17c-2.1,0-3.9,1.1-4.9,2.8-1-1.7-2.8-2.8-4.9-2.8h-17c-3.2,0-5.7,2.6-5.7,5.7v16.7c0,1.4.5,2.6,1.3,3.6h-8.1c-3.2,0-5.7,2.6-5.7,5.7v16.7c0,3.2,2.6,5.7,5.7,5.7h0ZM62.4,194.2h0v-16.6c0-2.1,1.7-3.7,3.7-3.7h17c2.1,0,3.7,1.7,3.7,3.7v16.7c0,1.7-1.2,3.1-2.7,3.6h-18.8c-1.7-.3-3-1.9-3-3.7h0ZM81.9,171c.2.3.4.6.6.8h-1.2c.2-.3.4-.5.6-.8ZM81.5,147.7h.9c-.2.2-.3.4-.4.7h0c0-.2-.3-.4-.4-.7h0ZM88.2,174.6c-.2-.3-.4-.6-.6-.8h1.2c-.2.3-.4.5-.6.8ZM88.6,197.9h-.9c.2-.2.3-.4.4-.7h0c0,.2.3.4.4.7ZM91.8,199.9c.4,0,.9.2,1.3.2h-9.8c.5,0,.9,0,1.3-.2h7.2ZM93.3,202.1c2.1,0,3.7,1.7,3.7,3.7v9.3c0,2.1-1.7,3.7-3.7,3.7h-23.2c-2.1,0-3.7-1.7-3.7-3.7v-9.3c0-2.1,1.7-3.7,3.7-3.7h23.2ZM101,220.4c0,2.1-1.7,3.7-3.7,3.7h-30.9c-2.1,0-3.7-1.7-3.7-3.7v-16.7c0-1.8,1.2-3.2,2.9-3.6h4.4c-3.2,0-5.7,2.6-5.7,5.7v9.3c0,3.2,2.6,5.7,5.7,5.7h23.2c3.2,0,5.7-2.6,5.7-5.7v-9.3c0-3.2-2.6-5.7-5.7-5.7h5.1c1.6.4,2.7,1.9,2.7,3.6,0,0,0,16.7,0,16.7ZM102,200.3l-.3-.3h.6s-.2.2-.3.3ZM98.7,198.1c-.4,0-.9-.2-1.3-.2h-5.2c-1.6-.4-2.7-1.9-2.7-3.6v-16.7c0-2.1,1.7-3.7,3.7-3.7h17c2.1,0,3.7,1.7,3.7,3.7v16.7c0,1.7-1.2,3.1-2.7,3.6h-4.4c-.5,0-.9,0-1.3.2,0,0-6.8,0-6.8,0ZM108.8,171c.2.3.4.6.6.8h-1.2c.2-.3.4-.5.6-.8ZM108.4,147.8h.9c-.2.2-.3.4-.4.6h0c0-.2-.3-.4-.4-.6ZM127.6,220.3h0c0,2.1-1.7,3.7-3.7,3.7h-17c-2.1,0-3.7-1.7-3.7-3.7v-16.7c0-1.7,1.2-3.1,2.7-3.6h4.4c.5,0,.9,0,1.3-.2h7.2c.4,0,.9.2,1.3.2h4.8c1.6.4,2.7,1.9,2.7,3.6,0,0,0,16.7,0,16.7ZM115.1,174.6c-.2-.3-.4-.6-.6-.8h1.2c-.2.3-.4.5-.6.8ZM115.5,197.9h-.9c.2-.2.3-.4.4-.7h0c0,.2.3.4.4.7h0ZM128.8,200.7c0-.2-.3-.4-.4-.7h.8c-.2.2-.3.4-.4.7h0ZM125.2,198.1c-.4,0-.9-.2-1.3-.2h-4.8c-1.6-.4-2.7-1.9-2.7-3.6v-16.7c0-2.1,1.7-3.7,3.7-3.7h17c2.1,0,3.7,1.7,3.7,3.7v16.7c0,1.7-1.2,3.1-2.7,3.6h-4.4c-.5,0-.9,0-1.3.2h-7.2ZM135.7,171c.2.3.4.6.6.8h-1.2c.2-.3.4-.5.6-.8h0ZM135.3,147.7h.9c-.2.2-.3.4-.4.7h0c-.1-.2-.3-.4-.4-.7h-.1ZM130,220.3v-16.7c0-1.7,1.2-3.1,2.7-3.6h4.4c.5,0,.9,0,1.3-.2h7.2c.4,0,.9.2,1.3.2h4.8c1.6.4,2.7,1.9,2.7,3.6v16.7c0,2.1-1.7,3.7-3.7,3.7h-17c-2.1,0-3.7-1.7-3.7-3.7ZM142,174.6c-.2-.3-.4-.6-.6-.8h1.2c-.2.3-.4.5-.6.8h0ZM142.4,197.9h-.9c.2-.2.3-.4.4-.7h0c.1.2.3.4.4.7h.1ZM162.6,171c.2.3.4.6.6.8h-1.2c.2-.3.4-.5.6-.8h0ZM162.2,147.8h.9c-.2.2-.3.4-.4.6h0c-.1-.2-.3-.4-.4-.6h-.1ZM163.9,173.9c2.1,0,3.7,1.7,3.7,3.7v16.7c0,1.7-1.2,3.1-2.7,3.6h-4.4c-.5,0-.9,0-1.3.2h-7.2c-.4,0-.9-.2-1.3-.2h-4.8c-1.6-.4-2.7-1.9-2.7-3.6v-16.7c0-2.1,1.7-3.7,3.7-3.7h17ZM168.9,197.2c0,.2.3.4.4.7h-.9c.2-.2.3-.4.4-.7h.1ZM168.9,174.6c-.2-.3-.4-.6-.6-.8h1.2c-.2.3-.4.5-.6.8h0ZM172.5,199.8c.4,0,.9.2,1.3.2h4.8c1.6.4,2.7,1.9,2.7,3.6v16.7c0,2.1-1.7,3.7-3.7,3.7h-17c-2.1,0-3.7-1.7-3.7-3.7v-16.7c0-1.7,1.2-3.1,2.7-3.6h4.4c.5,0,.9,0,1.3-.2h7.2ZM189.5,171c.2.3.4.6.6.8h-1.2c.2-.3.4-.5.6-.8h0ZM189.1,147.7h.9c-.2.2-.3.4-.4.7h-.1c0-.2-.3-.4-.4-.7ZM190.8,173.8c2.1,0,3.7,1.7,3.7,3.7v16.7c0,1.7-1.2,3.1-2.7,3.6h-4.4c-.5,0-.9,0-1.3.2h-7.2c-.4,0-.9-.2-1.3-.2h-4.8c-1.6-.4-2.7-1.9-2.7-3.6v-16.7c0-2.1,1.7-3.7,3.7-3.7h17ZM195.8,174.6c-.2-.3-.4-.6-.6-.8h1.2c-.2.3-.4.5-.6.8h0ZM196.2,197.9h-.9c.2-.2.3-.4.4-.7h0c.1.2.3.4.4.7h.1ZM199.4,199.8c.4,0,.9.2,1.3.2h4.8c1.6.4,2.7,1.9,2.7,3.6v16.7c0,2.1-1.7,3.7-3.7,3.7h-17c-2.1,0-3.7-1.7-3.7-3.7v-16.7c0-1.7,1.2-3.1,2.7-3.6h4.4c.5,0,.9,0,1.3-.2h7.2ZM216.4,171c.2.3.4.6.6.8h-1.2c.2-.3.4-.5.6-.8h0ZM216,147.7h.9c-.2.2-.3.4-.4.7h0c-.1-.2-.3-.4-.4-.7h-.1ZM217.7,173.8c2.1,0,3.7,1.7,3.7,3.7v16.7c0,1.7-1.2,3.1-2.7,3.6h-4.4c-.5,0-.9,0-1.3.2h-7.2c-.4,0-.9-.2-1.3-.2h-4.8c-1.6-.4-2.7-1.9-2.7-3.6v-16.7c0-2.1,1.7-3.7,3.7-3.7h17ZM222.7,174.6c-.2-.3-.4-.6-.6-.8h1.2c-.2.3-.4.5-.6.8h0ZM223.1,197.9h-.9c.2-.2.3-.4.4-.7h.1c0,.2.3.4.4.7ZM226.2,199.8c.4,0,.9.2,1.3.2h4.8c1.6.4,2.7,1.9,2.7,3.6v16.7c0,2.1-1.7,3.7-3.7,3.7h-17c-2.1,0-3.7-1.7-3.7-3.7v-16.7c0-1.7,1.2-3.1,2.7-3.6h4.4c.5,0,.9,0,1.3-.2h7.2ZM243.2,171c.2.3.4.6.6.8h-1.2c.2-.3.4-.5.6-.8h0ZM242.8,147.8h.9c-.2.2-.3.4-.4.6h0c-.1-.2-.3-.4-.4-.6h-.1ZM244.6,173.8c2.1,0,3.7,1.7,3.7,3.7v16.7c0,1.7-1.2,3.1-2.7,3.6h-4.4c-.5,0-.9,0-1.3.2h-7.2c-.4,0-.9-.2-1.3-.2h-4.8c-1.6-.4-2.7-1.9-2.7-3.6v-16.7c0-2.1,1.7-3.7,3.7-3.7h17ZM249.6,197.2c0,.2.3.4.4.6h-.9c.2-.2.3-.4.4-.6h.1ZM249.6,174.6c-.2-.3-.4-.6-.6-.8h1.2c-.2.3-.4.5-.6.8h0ZM253.1,199.8c.4,0,.9.2,1.3.2h4.8c1.6.4,2.7,1.9,2.7,3.6v16.7c0,2.1-1.7,3.7-3.7,3.7h-17c-2.1,0-3.7-1.7-3.7-3.7v-16.7c0-1.7,1.2-3.1,2.7-3.6h4.4c.5,0,.9,0,1.3-.2h7.2ZM270.1,171c.2.3.4.6.6.8h-1.2c.2-.3.4-.5.6-.8ZM269.7,147.7h.9c-.2.2-.3.4-.4.7h0c-.1-.2-.3-.4-.4-.7h-.1ZM271.5,173.8c2.1,0,3.7,1.7,3.7,3.7v16.7c0,1.7-1.2,3.1-2.7,3.6h-4.4c-.5,0-.9,0-1.3.2h-7.2c-.4,0-.9-.2-1.3-.2h-4.8c-1.6-.4-2.7-1.9-2.7-3.6v-16.7c0-2.1,1.7-3.7,3.7-3.7h17ZM276.5,174.6c-.2-.3-.4-.6-.6-.8h1.2c-.2.3-.4.5-.6.8ZM276.9,197.8h-.9c.2-.2.3-.4.4-.6h0c.1.2.3.4.4.6h.1ZM280,199.8c.4,0,.9.2,1.3.2h4.8c1.6.4,2.7,1.9,2.7,3.6v16.7c0,2.1-1.7,3.7-3.7,3.7h-17c-2.1,0-3.7-1.7-3.7-3.7v-16.7c0-1.7,1.2-3.1,2.7-3.6h4.4c.5,0,.9,0,1.3-.2h7.2ZM297,171c.2.3.4.6.6.8h-1.2c.2-.3.4-.5.6-.8ZM296.6,147.7h.9c-.2.2-.3.4-.4.7h-.1c0-.2-.3-.4-.4-.7ZM298.4,173.8c2.1,0,3.7,1.7,3.7,3.7v16.7c0,1.7-1.2,3.1-2.7,3.6h-4.4c-.5,0-.9,0-1.3.2h-7.2c-.4,0-.9-.2-1.3-.2h-4.8c-1.6-.4-2.7-1.9-2.7-3.6v-16.7c0-2.1,1.7-3.7,3.7-3.7h17,0ZM303.3,174.6c-.2-.3-.4-.6-.6-.8h1.2c-.2.3-.4.5-.6.8ZM303.7,197.9h-.8c.2-.2.3-.4.4-.6.1.2.3.4.4.6ZM307,199.8c.4,0,.9.2,1.3.2h4.8c1.6.4,2.7,1.9,2.7,3.6v16.7c0,2.1-1.7,3.7-3.7,3.7h-17c-2.1,0-3.7-1.7-3.7-3.7v-16.7c0-1.7,1.2-3.1,2.7-3.6h4.4c.5,0,.9,0,1.3-.2h7.2ZM323.9,171c.2.3.4.6.6.8h-1.2c.2-.3.4-.5.6-.8ZM323.5,147.7h.9c-.2.2-.3.4-.4.7h0c-.1-.2-.3-.4-.4-.7h-.1ZM325.3,173.9c2.1,0,3.7,1.7,3.7,3.7v16.7c0,1.7-1.2,3.1-2.7,3.6h-4.4c-.5,0-.9,0-1.3.2h-7.2c-.4,0-.9-.2-1.3-.2h-4.8c-1.6-.4-2.7-1.9-2.7-3.6v-16.7c0-2.1,1.7-3.7,3.7-3.7h17,0ZM317,200.7c0-.2-.3-.4-.4-.7h.9c-.2.2-.3.4-.4.7h-.1ZM317,223.3c.2.3.5.7.7,1h-1.4c.3-.3.5-.6.7-1h0ZM290.1,223.3c.2.3.4.7.7,1h-1.4c.3-.3.5-.6.7-1h0ZM289.8,200h.8c-.2.2-.3.4-.4.6,0-.2-.3-.4-.4-.6ZM262.9,200h.8c-.2.2-.3.4-.4.6,0-.2-.3-.4-.4-.6ZM263.2,223.3c.2.3.4.7.7,1h-1.4c.3-.3.5-.6.7-1h0ZM236.3,223.3c.2.3.4.7.7,1h-1.4c.3-.3.5-.6.7-1ZM236,200h.8c-.2.2-.3.4-.4.7-.1-.2-.3-.4-.4-.7h0ZM209.4,223.3c.2.3.4.7.7,1h-1.4c.3-.3.5-.6.7-1ZM209.1,200h.8c-.2.2-.3.4-.4.6,0-.2-.3-.4-.4-.6h0ZM182.5,223.3c.2.3.4.7.7,1h-1.4c.3-.3.5-.6.7-1ZM182.2,200h.8c-.2.2-.3.4-.4.7-.1-.2-.3-.4-.4-.7h0ZM155.7,223.3c.2.3.4.7.7,1h-1.4c.3-.3.5-.6.7-1ZM155.3,200h.8c-.2.2-.3.4-.4.7,0-.2-.3-.4-.4-.7h0ZM342.2,230v16.7c0,2.1-1.7,3.7-3.7,3.7h-205.1c-2.1,0-3.7-1.7-3.7-3.7v-16.7c0-2.1,1.7-3.7,3.7-3.7h205.1c2.1,0,3.7,1.7,3.7,3.7ZM342.7,220.3c0,2.1-1.7,3.7-3.7,3.7h-17c-2.1,0-3.7-1.7-3.7-3.7v-16.7c0-1.7,1.2-3.1,2.7-3.6h4.4c.5,0,.9,0,1.3-.2h7.2c.4,0,.9.2,1.3.2h4.8c1.6.4,2.7,1.9,2.7,3.6v16.7h0ZM330.2,174.6c-.2-.3-.4-.6-.6-.8h1.2c-.2.3-.4.5-.6.8ZM330.6,197.9h-.9c.2-.2.3-.4.4-.7h0c.1.2.3.4.4.7h.1ZM344,200.6c0-.2-.3-.4-.4-.6h.8c-.2.2-.3.4-.4.6ZM340.3,198.1c-.4,0-.9-.2-1.3-.2h-4.8c-1.6-.4-2.7-1.9-2.7-3.6v-16.7c0-2.1,1.7-3.7,3.7-3.7h17c2.1,0,3.7,1.7,3.7,3.7v16.7c0,1.7-1.2,3.1-2.7,3.6h-4.4c-.5,0-.9,0-1.3.2h-7.2ZM350.8,171c.2.3.4.6.6.8h-1.2c.2-.3.4-.5.6-.8ZM350.4,147.7h.9c-.2.2-.3.4-.4.7h-.1c0-.2-.3-.4-.4-.7ZM365.9,224h-17c-2.1,0-3.7-1.7-3.7-3.7v-16.7c0-1.7,1.2-3.1,2.7-3.6h4.4c.5,0,.9,0,1.3-.2h7.1c.4,0,.9.2,1.3.2h4.9c1.6.4,2.7,1.9,2.7,3.6v16.7h0c0,2.1-1.7,3.7-3.7,3.7h0ZM357.2,174.6h0c-.2-.3-.3-.5-.5-.7h1.1c-.2.2-.4.5-.5.7h-.1ZM357.5,197.9h-.8c.1-.2.3-.4.4-.6,0,.2.3.4.4.6ZM370.7,200.5c0-.2-.2-.3-.3-.5h.6s-.2.3-.3.5h0ZM367.2,198.1c-.4,0-.9-.2-1.3-.2h-4.9c-1.6-.4-2.7-1.9-2.7-3.6v-16.7c0-2.1,1.7-3.7,3.7-3.7h39.5c2.1,0,3.7,1.7,3.7,3.7v16.7c0,1.7-1.2,3.1-2.7,3.6h-27c-.5,0-.9,0-1.3.2h-7ZM377.7,171c.2.3.4.6.6.8h-1.2c.2-.3.4-.5.6-.8ZM377.3,147.8h.9c-.2.2-.3.4-.4.6h-.1c0-.2-.3-.4-.4-.6ZM406.2,174.5c-.6-1-1.5-1.7-2.6-2.2.2-.2.4-.4.6-.6.7.9,1.7,1.6,2.8,1.9h0c-.3.3-.5.6-.7.9h0ZM406.5,197.9h-.7c.1-.2.2-.3.3-.5h.1c.1.2.2.3.3.5h0ZM410.1,220.2h0c0,2.2-1.7,3.8-3.7,3.8h-30.9c-2.1,0-3.7-1.7-3.7-3.7v-16.7c0-1.7,1.2-3.1,2.7-3.6h26.9c.5,0,.9,0,1.3-.2h3.7c2.1,0,3.7,1.7,3.7,3.7v16.7ZM431.8,177.6v16.7c0,2.1-1.7,3.7-3.7,3.7h-17c-2.1,0-3.7-1.7-3.7-3.7v-16.7c0-2.1,1.7-3.7,3.7-3.7h17c2.1,0,3.7,1.7,3.7,3.7ZM425.8,147.7c2.1,0,3.7,1.7,3.7,3.7v16.7c0,2.1-1.7,3.7-3.7,3.7h-17c-1.6,0-2.9-1-3.4-2.3,0-.5.2-.9.2-1.4v-16.7c0-.5,0-1-.2-1.4.4-1,1.3-1.8,2.4-2.1h3.5c-2.7.5-4.7,2.8-4.7,5.6v9.3c0,3.2,2.6,5.7,5.7,5.7h9.3c3.2,0,5.7-2.6,5.7-5.7v-9.3c0-3.2-2.6-5.7-5.7-5.7h-8.4,12.6ZM412.3,149.9h9.3c2.1,0,3.7,1.7,3.7,3.7v9.3c0,2.1-1.7,3.7-3.7,3.7h-9.3c-2.1,0-3.7-1.7-3.7-3.7v-9.3c0-2.1,1.7-3.7,3.7-3.7ZM395,121.6h17c2.1,0,3.7,1.7,3.7,3.7v16.7c0,1.7-1.2,3.1-2.7,3.6h-4.4c-.5,0-.9,0-1.3.2h-6.4c-.4,0-.9-.2-1.3-.2h-5.6c-1.6-.4-2.7-1.9-2.7-3.6v-16.7h0c0-2.1,1.7-3.7,3.7-3.7h0ZM390.1,145c0,.2.3.4.4.6h-.8c.2-.2.3-.4.4-.6ZM393.7,147.6c.4,0,.9.2,1.3.2h5.6c1.1.3,2,1.1,2.4,2.2,0,.5-.2.9-.2,1.4v16.7c0,.5,0,1,.2,1.4-.6,1.4-1.9,2.3-3.4,2.3h-17c-2.1,0-3.7-1.7-3.7-3.7v-16.7c0-1.7,1.2-3.1,2.7-3.6h3.6c.5,0,.9,0,1.3-.2h7.2ZM364.4,125.3c0-2.1,1.7-3.7,3.7-3.7h17c2.1,0,3.7,1.7,3.7,3.7v16.7c0,1.7-1.2,3.1-2.7,3.6h-3.6c-.5,0-.9,0-1.3.2h-7.2c-.4,0-.9-.2-1.3-.2h-5.6c-1.6-.4-2.7-1.9-2.7-3.6v-16.7ZM363.2,145c.1.2.3.4.4.6h-.8c.2-.2.3-.4.4-.6ZM366.8,147.6c.4,0,.9.2,1.3.2h5.6c1.6.4,2.7,1.9,2.7,3.6v16.7c0,2.1-1.7,3.7-3.7,3.7h-17c-2.1,0-3.7-1.7-3.7-3.7v-16.7c0-1.7,1.2-3.1,2.7-3.6h3.6c.5,0,.9,0,1.3-.2h7.2ZM337.5,125.3c0-2.1,1.7-3.7,3.7-3.7h17c2.1,0,3.7,1.7,3.7,3.7v16.7c0,1.7-1.2,3.1-2.7,3.6h-3.6c-.5,0-.9,0-1.3.2h-7.2c-.4,0-.9-.2-1.3-.2h-5.6c-1.6-.4-2.7-1.9-2.7-3.6v-16.7ZM336.4,145.1c.1.2.2.3.3.5h-.6c.1-.2.2-.3.3-.5h0ZM339.9,147.6c.4,0,.9.2,1.3.2h5.6c1.6.4,2.7,1.9,2.7,3.6v16.7c0,2.1-1.7,3.7-3.7,3.7h-17c-2.1,0-3.7-1.7-3.7-3.7v-16.7c0-1.7,1.2-3.1,2.7-3.6h3.8c.5,0,.9,0,1.3-.2h7ZM314.5,121.6h17c2.1,0,3.7,1.7,3.7,3.7v16.7c0,1.7-1.2,3.1-2.7,3.6h-3.8c-.5,0-.9,0-1.3.2h-7.2c-.4,0-.9-.2-1.3-.2h-5.4c-1.6-.4-2.7-1.9-2.7-3.6v-16.7h0c0-2.1,1.7-3.7,3.7-3.7h0ZM309.6,144.9c0,.2.3.4.4.7h-.8c.2-.2.3-.4.4-.7ZM313.2,147.6c.4.1.9.2,1.3.2h5.4c1.6.4,2.7,1.9,2.7,3.6v16.7c0,2.1-1.7,3.7-3.7,3.7h-17c-2.1,0-3.7-1.7-3.7-3.7v-16.7c0-1.7,1.2-3.1,2.7-3.6h3.8c.5,0,.9,0,1.3-.2h7.2ZM287.7,121.6h17c2.1,0,3.7,1.7,3.7,3.7v16.7c0,1.7-1.2,3.1-2.7,3.6h-3.8c-.5,0-.9,0-1.3.2h-7.2c-.4,0-.9-.2-1.3-.2h-5.4c-1.6-.4-2.7-1.9-2.7-3.6v-16.7h0c0-2.1,1.7-3.7,3.7-3.7h0ZM282.7,145c.1.2.3.4.4.6h-.8c.2-.2.3-.4.4-.6ZM286.3,147.6c.4,0,.9.2,1.3.2h5.4c1.6.4,2.7,1.9,2.7,3.6v16.7c0,2.1-1.7,3.7-3.7,3.7h-17c-2.1,0-3.7-1.7-3.7-3.7v-16.7c0-1.7,1.2-3.1,2.7-3.6h3.8c.5,0,.9,0,1.3-.2h7.2ZM257.1,125.3c0-2.1,1.7-3.7,3.7-3.7h17c2.1,0,3.7,1.7,3.7,3.7v16.7c0,1.7-1.2,3.1-2.7,3.6h-3.8c-.5,0-.9,0-1.3.2h-7.2c-.4,0-.9-.2-1.3-.2h-5.4c-1.6-.4-2.7-1.9-2.7-3.6v-16.7h0ZM255.8,144.9c.1.2.3.4.4.7h-.8c.2-.2.3-.4.4-.7ZM259.4,147.6c.4.1.9.2,1.3.2h5.4c1.6.4,2.7,1.9,2.7,3.6v16.7c0,2.1-1.7,3.7-3.7,3.7h-17c-2.1,0-3.7-1.7-3.7-3.7v-16.7c0-1.7,1.2-3.1,2.7-3.6h3.8c.5,0,.9,0,1.3-.2h7.2ZM230.2,125.3c0-2.1,1.7-3.7,3.7-3.7h17c2.1,0,3.7,1.7,3.7,3.7v16.7c0,1.7-1.2,3.1-2.7,3.6h-3.8c-.5,0-.9,0-1.3.2h-7.2c-.4,0-.9-.2-1.3-.2h-5.4c-1.6-.4-2.7-1.9-2.7-3.6v-16.7ZM228.9,145c0,.2.3.4.4.6h-.8c.2-.2.3-.4.4-.6h0ZM232.6,147.6c.4,0,.9.2,1.3.2h5.4c1.6.4,2.7,1.9,2.7,3.6v16.7c0,2.1-1.7,3.7-3.7,3.7h-17c-2.1,0-3.7-1.7-3.7-3.7v-16.7c0-1.7,1.2-3.1,2.7-3.6h3.8c.5,0,.9,0,1.3-.2h7.2ZM203.3,125.3c0-2.1,1.7-3.7,3.7-3.7h17c2.1,0,3.7,1.7,3.7,3.7v16.7c0,1.7-1.2,3.1-2.7,3.6h-3.8c-.5,0-.9,0-1.3.2h-7.2c-.4,0-.9-.2-1.3-.2h-5.4c-1.6-.4-2.7-1.9-2.7-3.6v-16.7ZM202,145c.1.2.3.4.4.6h-.8c.2-.2.3-.4.4-.6h0ZM205.7,147.6c.4,0,.9.2,1.3.2h5.4c1.6.4,2.7,1.9,2.7,3.6v16.7c0,2.1-1.7,3.7-3.7,3.7h-17c-2.1,0-3.7-1.7-3.7-3.7v-16.7c0-1.7,1.2-3.1,2.7-3.6h3.8c.5,0,.9,0,1.3-.2h7.2ZM176.4,125.3c0-2.1,1.7-3.7,3.7-3.7h17c2.1,0,3.7,1.7,3.7,3.7v16.7c0,1.7-1.2,3.1-2.7,3.6h-3.8c-.5,0-.9,0-1.3.2h-7.2c-.4,0-.9-.2-1.3-.2h-5.4c-1.6-.4-2.7-1.9-2.7-3.6v-16.7ZM178.8,147.6c.4,0,.9.2,1.3.2h5.4c1.6.4,2.7,1.9,2.7,3.6v16.7c0,2.1-1.7,3.7-3.7,3.7h-17c-2.1,0-3.7-1.7-3.7-3.7v-16.7c0-1.7,1.2-3.1,2.7-3.6h3.8c.5,0,.9,0,1.3-.2h7.2ZM175.1,144.9c0,.2.3.4.4.7h-.8c.2-.2.3-.4.4-.7h0ZM149.5,125.3c0-2.1,1.7-3.7,3.7-3.7h17c2.1,0,3.7,1.7,3.7,3.7v16.7c0,1.7-1.2,3.1-2.7,3.6h-3.8c-.5,0-.9,0-1.3.2h-7.2c-.4,0-.9-.2-1.3-.2h-5.4c-1.6-.4-2.7-1.9-2.7-3.6v-16.7ZM151.9,147.6c.4,0,.9.2,1.3.2h5.4c1.6.4,2.7,1.9,2.7,3.6v16.7c0,2.1-1.7,3.7-3.7,3.7h-17c-2.1,0-3.7-1.7-3.7-3.7v-16.7c0-1.7,1.2-3.1,2.7-3.6h3.8c.5,0,.9,0,1.3-.2h7.2ZM148.2,144.9c0,.2.3.4.4.7h-.8c.2-.2.3-.4.4-.7h0ZM122.6,125.3c0-2.1,1.7-3.7,3.7-3.7h17c2.1,0,3.7,1.7,3.7,3.7v16.7c0,1.7-1.2,3.1-2.7,3.6h-3.8c-.5,0-.9,0-1.3.2h-7.2c-.4,0-.9-.2-1.3-.2h-5.4c-1.6-.4-2.7-1.9-2.7-3.6v-16.7h0ZM125,147.6c.4,0,.9.2,1.3.2h5.4c1.6.4,2.7,1.9,2.7,3.6v16.7c0,2.1-1.7,3.7-3.7,3.7h-17c-2.1,0-3.7-1.7-3.7-3.7v-16.7c0-1.7,1.2-3.1,2.7-3.6h3.8c.5,0,.9,0,1.3-.2h7.2ZM121.4,145c0,.2.3.4.4.6h-.8c.2-.2.3-.4.4-.6ZM95.7,125.3c0-2.1,1.7-3.7,3.7-3.7h17c2.1,0,3.7,1.7,3.7,3.7v16.7c0,1.7-1.2,3.1-2.7,3.6h-3.8c-.5,0-.9,0-1.3.2h-7.2c-.4,0-.9-.2-1.3-.2h-5.4c-1.6-.4-2.7-1.9-2.7-3.6,0,0,0-16.7,0-16.7ZM98.1,147.6c.4,0,.9.2,1.3.2h5.4c1.6.4,2.7,1.9,2.7,3.6v16.7c0,2.1-1.7,3.7-3.7,3.7h-17c-2.1,0-3.7-1.7-3.7-3.7v-16.7c0-1.7,1.2-3.1,2.7-3.6h3.8c.5,0,.9,0,1.3-.2,0,0,7.2,0,7.2,0ZM94.5,145c0,.2.3.4.4.6h-.8c.2-.2.3-.4.4-.6ZM68.8,142.1v-16.7c0-2.1,1.7-3.7,3.7-3.7h17c2.1,0,3.7,1.7,3.7,3.7v16.7c0,1.7-1.2,3.1-2.7,3.6h-3.8c-.5,0-.9,0-1.3.2h-7.2c-.4,0-.9-.2-1.3-.2h-5.4c-1.6-.4-2.7-1.9-2.7-3.6ZM56.2,151.5h0c0-2.2,1.7-3.8,3.7-3.8h11.3c.4,0,.9.2,1.3.2h5.4c1.6.4,2.7,1.9,2.7,3.6v16.7c0,2.1-1.7,3.7-3.7,3.7h-17c-2.1,0-3.7-1.7-3.7-3.7,0,0,0-16.7,0-16.7Z"/>
  <path class="st0" d="M63.6,168.6h9.3c3.2,0,5.7-2.6,5.7-5.7v-9.3c0-3.2-2.6-5.7-5.7-5.7h-9.3c-3.2,0-5.7,2.6-5.7,5.7v9.3c0,3.2,2.6,5.7,5.7,5.7ZM59.8,153.6c0-2.1,1.7-3.7,3.7-3.7h9.3c2.1,0,3.7,1.7,3.7,3.7v9.3c0,2.1-1.7,3.7-3.7,3.7h-9.3c-2.1,0-3.7-1.7-3.7-3.7,0,0,0-9.3,0-9.3Z"/>
  <path class="st0" d="M84.7,153.6v9.3c0,3.2,2.6,5.7,5.7,5.7h9.3c3.2,0,5.7-2.6,5.7-5.7v-9.3c0-3.2-2.6-5.7-5.7-5.7h-9.3c-3.2,0-5.7,2.6-5.7,5.7ZM103.4,153.6v9.3c0,2.1-1.7,3.7-3.7,3.7h-9.3c-2.1,0-3.7-1.7-3.7-3.7v-9.3c0-2.1,1.7-3.7,3.7-3.7h9.3c2.1,0,3.7,1.7,3.7,3.7Z"/>
  <path class="st0" d="M111.6,153.6v9.3c0,3.2,2.6,5.7,5.7,5.7h9.3c3.2,0,5.7-2.6,5.7-5.7v-9.3c0-3.2-2.6-5.7-5.7-5.7h-9.3c-3.2,0-5.7,2.6-5.7,5.7ZM130.3,153.6v9.3c0,2.1-1.7,3.7-3.7,3.7h-9.3c-2.1,0-3.7-1.7-3.7-3.7v-9.3c0-2.1,1.7-3.7,3.7-3.7h9.3c2.1,0,3.7,1.7,3.7,3.7Z"/>
  <path class="st0" d="M138.5,153.6v9.3c0,3.2,2.6,5.7,5.7,5.7h9.3c3.2,0,5.7-2.6,5.7-5.7v-9.3c0-3.2-2.6-5.7-5.7-5.7h-9.3c-3.2,0-5.7,2.6-5.7,5.7ZM157.2,153.6v9.3c0,2.1-1.7,3.7-3.7,3.7h-9.3c-2.1,0-3.7-1.7-3.7-3.7v-9.3c0-2.1,1.7-3.7,3.7-3.7h9.3c2.1,0,3.7,1.7,3.7,3.7Z"/>
  <path class="st0" d="M165.4,153.6v9.3c0,3.2,2.6,5.7,5.7,5.7h9.3c3.2,0,5.7-2.6,5.7-5.7v-9.3c0-3.2-2.6-5.7-5.7-5.7h-9.3c-3.2,0-5.7,2.6-5.7,5.7ZM184.1,153.6v9.3c0,2.1-1.7,3.7-3.7,3.7h-9.3c-2.1,0-3.7-1.7-3.7-3.7v-9.3c0-2.1,1.7-3.7,3.7-3.7h9.3c2.1,0,3.7,1.7,3.7,3.7Z"/>
  <path class="st0" d="M192.3,153.6v9.3c0,3.2,2.6,5.7,5.7,5.7h9.3c3.2,0,5.7-2.6,5.7-5.7v-9.3c0-3.2-2.6-5.7-5.7-5.7h-9.3c-3.2,0-5.7,2.6-5.7,5.7ZM211,153.6v9.3c0,2.1-1.7,3.7-3.7,3.7h-9.3c-2.1,0-3.7-1.7-3.7-3.7v-9.3c0-2.1,1.7-3.7,3.7-3.7h9.3c2.1,0,3.7,1.7,3.7,3.7Z"/>
  <path class="st0" d="M219.2,153.6v9.3c0,3.2,2.6,5.7,5.7,5.7h9.3c3.2,0,5.7-2.6,5.7-5.7v-9.3c0-3.2-2.6-5.7-5.7-5.7h-9.3c-3.2,0-5.7,2.6-5.7,5.7ZM237.9,153.6v9.3c0,2.1-1.7,3.7-3.7,3.7h-9.3c-2.1,0-3.7-1.7-3.7-3.7v-9.3c0-2.1,1.7-3.7,3.7-3.7h9.3c2.1,0,3.7,1.7,3.7,3.7Z"/>
  <path class="st0" d="M246.1,153.6v9.3c0,3.2,2.6,5.7,5.7,5.7h9.3c3.2,0,5.7-2.6,5.7-5.7v-9.3c0-3.2-2.6-5.7-5.7-5.7h-9.3c-3.2,0-5.7,2.6-5.7,5.7ZM264.8,153.6v9.3c0,2.1-1.7,3.7-3.7,3.7h-9.3c-2.1,0-3.7-1.7-3.7-3.7v-9.3c0-2.1,1.7-3.7,3.7-3.7h9.3c2.1,0,3.7,1.7,3.7,3.7Z"/>
  <path class="st0" d="M273,153.6v9.3c0,3.2,2.6,5.7,5.7,5.7h9.3c3.2,0,5.7-2.6,5.7-5.7v-9.3c0-3.2-2.6-5.7-5.7-5.7h-9.3c-3.2,0-5.7,2.6-5.7,5.7ZM291.7,153.6v9.3c0,2.1-1.7,3.7-3.7,3.7h-9.3c-2.1,0-3.7-1.7-3.7-3.7v-9.3c0-2.1,1.7-3.7,3.7-3.7h9.3c2.1,0,3.7,1.7,3.7,3.7Z"/>
  <path class="st0" d="M299.9,153.6v9.3c0,3.2,2.6,5.7,5.7,5.7h9.3c3.2,0,5.7-2.6,5.7-5.7v-9.3c0-3.2-2.6-5.7-5.7-5.7h-9.3c-3.2,0-5.7,2.6-5.7,5.7ZM318.6,153.6v9.3c0,2.1-1.7,3.7-3.7,3.7h-9.3c-2.1,0-3.7-1.7-3.7-3.7v-9.3c0-2.1,1.7-3.7,3.7-3.7h9.3c2.1,0,3.7,1.7,3.7,3.7Z"/>
  <path class="st0" d="M326.8,153.6v9.3c0,3.2,2.6,5.7,5.7,5.7h9.3c3.2,0,5.7-2.6,5.7-5.7v-9.3c0-3.2-2.6-5.7-5.7-5.7h-9.3c-3.2,0-5.7,2.6-5.7,5.7ZM345.4,153.6v9.3c0,2.1-1.7,3.7-3.7,3.7h-9.3c-2.1,0-3.7-1.7-3.7-3.7v-9.3c0-2.1,1.7-3.7,3.7-3.7h9.3c2.1,0,3.7,1.7,3.7,3.7Z"/>
  <path class="st0" d="M353.7,153.6v9.3c0,3.2,2.6,5.7,5.7,5.7h9.3c3.2,0,5.7-2.6,5.7-5.7v-9.3c0-3.2-2.6-5.7-5.7-5.7h-9.3c-3.2,0-5.7,2.6-5.7,5.7ZM372.3,153.6v9.3c0,2.1-1.7,3.7-3.7,3.7h-9.3c-2.1,0-3.7-1.7-3.7-3.7v-9.3c0-2.1,1.7-3.7,3.7-3.7h9.3c2.1,0,3.7,1.7,3.7,3.7Z"/>
  <path class="st0" d="M380.6,153.6v9.3c0,3.2,2.6,5.7,5.7,5.7h9.3c3.2,0,5.7-2.6,5.7-5.7v-9.3c0-3.2-2.6-5.7-5.7-5.7h-9.3c-3.2,0-5.7,2.6-5.7,5.7ZM399.2,153.6v9.3c0,2.1-1.7,3.7-3.7,3.7h-9.3c-2.1,0-3.7-1.7-3.7-3.7v-9.3c0-2.1,1.7-3.7,3.7-3.7h9.3c2.1,0,3.7,1.7,3.7,3.7Z"/>
  <path class="st0" d="M69.9,194.8h9.3c3.2,0,5.7-2.6,5.7-5.7v-9.3c0-3.2-2.6-5.7-5.7-5.7h-9.3c-3.2,0-5.7,2.6-5.7,5.7v9.3c0,3.2,2.6,5.7,5.7,5.7ZM66.1,179.8c0-2.1,1.7-3.7,3.7-3.7h9.3c2.1,0,3.7,1.7,3.7,3.7v9.3c0,2.1-1.7,3.7-3.7,3.7h-9.3c-2.1,0-3.7-1.7-3.7-3.7v-9.3Z"/>
  <path class="st0" d="M111.8,189v-9.3c0-3.2-2.6-5.7-5.7-5.7h-9.3c-3.2,0-5.7,2.6-5.7,5.7v9.3c0,3.2,2.6,5.7,5.7,5.7h9.3c3.2,0,5.7-2.6,5.7-5.7ZM93.1,189.1v-9.3c0-2.1,1.7-3.7,3.7-3.7h9.3c2.1,0,3.7,1.7,3.7,3.7v9.3c0,2.1-1.7,3.7-3.7,3.7h-9.3c-2.1,0-3.7-1.7-3.7-3.7Z"/>
  <path class="st0" d="M138.7,189v-9.3c0-3.2-2.6-5.7-5.7-5.7h-9.3c-3.2,0-5.7,2.6-5.7,5.7v9.3c0,3.2,2.6,5.7,5.7,5.7h9.3c3.2,0,5.7-2.6,5.7-5.7ZM120,189.1v-9.3c0-2.1,1.7-3.7,3.7-3.7h9.3c2.1,0,3.7,1.7,3.7,3.7v9.3c0,2.1-1.7,3.7-3.7,3.7h-9.3c-2.1,0-3.7-1.7-3.7-3.7Z"/>
  <path class="st0" d="M144.9,179.8v9.3c0,3.2,2.6,5.7,5.7,5.7h9.3c3.2,0,5.7-2.6,5.7-5.7v-9.3c0-3.2-2.6-5.7-5.7-5.7h-9.3c-3.2,0-5.7,2.6-5.7,5.7ZM163.5,179.8v9.3c0,2.1-1.7,3.7-3.7,3.7h-9.3c-2.1,0-3.7-1.7-3.7-3.7v-9.3c0-2.1,1.7-3.7,3.7-3.7h9.3c2.1,0,3.7,1.7,3.7,3.7Z"/>
  <path class="st0" d="M171.7,179.8v9.3c0,3.2,2.6,5.7,5.7,5.7h9.3c3.2,0,5.7-2.6,5.7-5.7v-9.3c0-3.2-2.6-5.7-5.7-5.7h-9.3c-3.2,0-5.7,2.6-5.7,5.7ZM186.8,176.1c2.1,0,3.7,1.7,3.7,3.7v9.3c0,2.1-1.7,3.7-3.7,3.7h-9.3c-2.1,0-3.7-1.7-3.7-3.7v-9.3c0-2.1,1.7-3.7,3.7-3.7h9.3Z"/>
  <path class="st0" d="M198.6,179.8v9.3c0,3.2,2.6,5.7,5.7,5.7h9.3c3.2,0,5.7-2.6,5.7-5.7v-9.3c0-3.2-2.6-5.7-5.7-5.7h-9.3c-3.2,0-5.7,2.6-5.7,5.7ZM213.7,176.1c2.1,0,3.7,1.7,3.7,3.7v9.3c0,2.1-1.7,3.7-3.7,3.7h-9.3c-2.1,0-3.7-1.7-3.7-3.7v-9.3c0-2.1,1.7-3.7,3.7-3.7h9.3Z"/>
  <path class="st0" d="M225.5,179.8v9.3c0,3.2,2.6,5.7,5.7,5.7h9.3c3.2,0,5.7-2.6,5.7-5.7v-9.3c0-3.2-2.6-5.7-5.7-5.7h-9.3c-3.2,0-5.7,2.6-5.7,5.7ZM244.2,179.7v9.3c0,2.1-1.7,3.7-3.7,3.7h-9.3c-2.1,0-3.7-1.7-3.7-3.7v-9.3c0-2.1,1.7-3.7,3.7-3.7h9.3c2.1,0,3.7,1.7,3.7,3.7Z"/>
  <path class="st0" d="M252.4,179.8v9.3c0,3.2,2.6,5.7,5.7,5.7h9.3c3.2,0,5.7-2.6,5.7-5.7v-9.3c0-3.2-2.6-5.7-5.7-5.7h-9.3c-3.2,0-5.7,2.6-5.7,5.7h0ZM271.1,179.8v9.3c0,2.1-1.7,3.7-3.7,3.7h-9.3c-2.1,0-3.7-1.7-3.7-3.7v-9.3c0-2.1,1.7-3.7,3.7-3.7h9.3c2.1,0,3.7,1.7,3.7,3.7Z"/>
  <path class="st0" d="M279.3,179.8v9.3c0,3.2,2.6,5.7,5.7,5.7h9.3c3.2,0,5.7-2.6,5.7-5.7v-9.3c0-3.2-2.6-5.7-5.7-5.7h-9.3c-3.2,0-5.7,2.6-5.7,5.7ZM298,179.8v9.3c0,2.1-1.7,3.7-3.7,3.7h-9.3c-2.1,0-3.7-1.7-3.7-3.7v-9.3c0-2.1,1.7-3.7,3.7-3.7h9.3c2.1,0,3.7,1.7,3.7,3.7Z"/>
  <path class="st0" d="M306.2,179.7v9.3c0,3.2,2.6,5.7,5.7,5.7h9.3c3.2,0,5.7-2.6,5.7-5.7v-9.3c0-3.2-2.6-5.7-5.7-5.7h-9.3c-3.2,0-5.7,2.6-5.7,5.7ZM308.2,179.8c0-2.1,1.7-3.7,3.7-3.7h9.3c2.1,0,3.7,1.7,3.7,3.7v9.3c0,2.1-1.7,3.7-3.7,3.7h-9.3c-2.1,0-3.7-1.7-3.7-3.7v-9.3Z"/>
  <path class="st0" d="M353.8,189v-9.3c0-3.2-2.6-5.7-5.7-5.7h-9.3c-3.2,0-5.7,2.6-5.7,5.7v9.3c0,3.2,2.6,5.7,5.7,5.7h9.3c3.2,0,5.7-2.6,5.7-5.7ZM338.8,192.8c-2.1,0-3.7-1.7-3.7-3.7v-9.3c0-2.1,1.7-3.7,3.7-3.7h9.3c2.1,0,3.7,1.7,3.7,3.7v9.3c0,2.1-1.7,3.7-3.7,3.7h-9.3Z"/>
  <path class="st0" d="M424,174h-9.3c-3.2,0-5.7,2.6-5.7,5.7v9.3c0,3.2,2.6,5.7,5.7,5.7h9.3c3.2,0,5.7-2.6,5.7-5.7v-9.3c0-3.2-2.6-5.7-5.7-5.7ZM427.7,189.1c0,2.1-1.7,3.7-3.7,3.7h-9.3c-2.1,0-3.7-1.7-3.7-3.7v-9.3c0-2.1,1.7-3.7,3.7-3.7h9.3c2.1,0,3.7,1.7,3.7,3.7v9.3Z"/>
  <path class="st0" d="M119.7,200.1h-9.3c-3.2,0-5.7,2.6-5.7,5.7v9.3c0,3.2,2.6,5.7,5.7,5.7h9.3c3.2,0,5.7-2.6,5.7-5.7v-9.3c0-3.2-2.6-5.7-5.7-5.7ZM123.5,215.1c0,2.1-1.7,3.7-3.7,3.7h-9.3c-2.1,0-3.7-1.7-3.7-3.7v-9.3c0-2.1,1.7-3.7,3.7-3.7h9.3c2.1,0,3.7,1.7,3.7,3.7v9.3Z"/>
  <path class="st0" d="M402.3,200.1h-23.2c-3.2,0-5.7,2.6-5.7,5.7v9.3c0,3.2,2.6,5.7,5.7,5.7h23.2c3.2,0,5.7-2.6,5.7-5.7v-9.3c0-3.2-2.6-5.7-5.7-5.7ZM406,215.1c0,2.1-1.7,3.7-3.7,3.7h-23.2c-2.1,0-3.7-1.7-3.7-3.7v-9.3c0-2.1,1.7-3.7,3.7-3.7h23.2c2.1,0,3.7,1.7,3.7,3.7v9.3Z"/>
  <path class="st0" d="M403,189v-9.3c0-3.2-2.6-5.7-5.7-5.7h-31.7c-3.2,0-5.7,2.6-5.7,5.7v9.3c0,3.2,2.6,5.7,5.7,5.7h31.7c3.2,0,5.7-2.6,5.7-5.7ZM361.9,189.1v-9.3c0-2.1,1.7-3.7,3.7-3.7h31.7c2.1,0,3.7,1.7,3.7,3.7v9.3c0,2.1-1.7,3.7-3.7,3.7h-31.7c-2.1,0-3.7-1.7-3.7-3.7Z"/>
  <path class="st0" d="M334.3,226.4h-197.4c-3.2,0-5.7,2.6-5.7,5.7v9.3c0,3.2,2.6,5.7,5.7,5.7h197.4c3.2,0,5.7-2.6,5.7-5.7v-9.3c0-3.2-2.6-5.7-5.7-5.7ZM338.1,241.5c0,2.1-1.7,3.7-3.7,3.7h-197.4c-2.1,0-3.7-1.7-3.7-3.7v-9.3c0-2.1,1.7-3.7,3.7-3.7h197.4c2.1,0,3.7,1.7,3.7,3.7v9.3Z"/>
  <path class="st0" d="M137.3,220.9h9.3c3.2,0,5.7-2.6,5.7-5.7v-9.3c0-3.2-2.6-5.7-5.7-5.7h-9.3c-3.2,0-5.7,2.6-5.7,5.7v9.3c0,3.2,2.6,5.7,5.7,5.7ZM133.6,205.8c0-2.1,1.7-3.7,3.7-3.7h9.3c2.1,0,3.7,1.7,3.7,3.7v9.3c0,2.1-1.7,3.7-3.7,3.7h-9.3c-2.1,0-3.7-1.7-3.7-3.7v-9.3Z"/>
  <path class="st0" d="M158.5,205.9v9.3c0,3.2,2.6,5.7,5.7,5.7h9.3c3.2,0,5.7-2.6,5.7-5.7v-9.3c0-3.2-2.6-5.7-5.7-5.7h-9.3c-3.2,0-5.7,2.6-5.7,5.7ZM177.2,205.8v9.3c0,2.1-1.7,3.7-3.7,3.7h-9.3c-2.1,0-3.7-1.7-3.7-3.7v-9.3c0-2.1,1.7-3.7,3.7-3.7h9.3c2.1,0,3.7,1.7,3.7,3.7Z"/>
  <path class="st0" d="M185.4,205.9v9.3c0,3.2,2.6,5.7,5.7,5.7h9.3c3.2,0,5.7-2.6,5.7-5.7v-9.3c0-3.2-2.6-5.7-5.7-5.7h-9.3c-3.2,0-5.7,2.6-5.7,5.7ZM204.1,205.8v9.3c0,2.1-1.7,3.7-3.7,3.7h-9.3c-2.1,0-3.7-1.7-3.7-3.7v-9.3c0-2.1,1.7-3.7,3.7-3.7h9.3c2.1,0,3.7,1.7,3.7,3.7Z"/>
  <path class="st0" d="M212.3,205.9v9.3c0,3.2,2.6,5.7,5.7,5.7h9.3c3.2,0,5.7-2.6,5.7-5.7v-9.3c0-3.2-2.6-5.7-5.7-5.7h-9.3c-3.2,0-5.7,2.6-5.7,5.7ZM231,205.8v9.3c0,2.1-1.7,3.7-3.7,3.7h-9.3c-2.1,0-3.7-1.7-3.7-3.7v-9.3c0-2.1,1.7-3.7,3.7-3.7h9.3c2.1,0,3.7,1.7,3.7,3.7Z"/>
  <path class="st0" d="M239.2,205.9v9.3c0,3.2,2.6,5.7,5.7,5.7h9.3c3.2,0,5.7-2.6,5.7-5.7v-9.3c0-3.2-2.6-5.7-5.7-5.7h-9.3c-3.2,0-5.7,2.6-5.7,5.7ZM257.9,205.8v9.3c0,2.1-1.7,3.7-3.7,3.7h-9.3c-2.1,0-3.7-1.7-3.7-3.7v-9.3c0-2.1,1.7-3.7,3.7-3.7h9.3c2.1,0,3.7,1.7,3.7,3.7Z"/>
  <path class="st0" d="M266.1,205.9v9.3c0,3.2,2.6,5.7,5.7,5.7h9.3c3.2,0,5.7-2.6,5.7-5.7v-9.3c0-3.2-2.6-5.7-5.7-5.7h-9.3c-3.2,0-5.7,2.6-5.7,5.7ZM284.7,205.8v9.3c0,2.1-1.7,3.7-3.7,3.7h-9.3c-2.1,0-3.7-1.7-3.7-3.7v-9.3c0-2.1,1.7-3.7,3.7-3.7h9.3c2.1,0,3.7,1.7,3.7,3.7Z"/>
  <path class="st0" d="M293,205.8v9.3c0,3.2,2.6,5.7,5.7,5.7h9.3c3.2,0,5.7-2.6,5.7-5.7v-9.3c0-3.2-2.6-5.7-5.7-5.7h-9.3c-3.2,0-5.7,2.6-5.7,5.7ZM311.7,205.8v9.3c0,2.1-1.7,3.7-3.7,3.7h-9.3c-2.1,0-3.7-1.7-3.7-3.7v-9.3c0-2.1,1.7-3.7,3.7-3.7h9.3c2.1,0,3.7,1.7,3.7,3.7Z"/>
  <path class="st0" d="M334.9,200.1h-9.3c-3.2,0-5.7,2.6-5.7,5.7v9.3c0,3.2,2.6,5.7,5.7,5.7h9.3c3.2,0,5.7-2.6,5.7-5.7v-9.3c0-3.2-2.6-5.7-5.7-5.7ZM338.6,215.1c0,2.1-1.7,3.7-3.7,3.7h-9.3c-2.1,0-3.7-1.7-3.7-3.7v-9.3c0-2.1,1.7-3.7,3.7-3.7h9.3c2.1,0,3.7,1.7,3.7,3.7v9.3Z"/>
  <path class="st0" d="M361.8,200.1h-9.3c-3.2,0-5.7,2.6-5.7,5.7v9.3c0,3.2,2.6,5.7,5.7,5.7h9.3c3.2,0,5.7-2.6,5.7-5.7v-9.3c0-3.2-2.6-5.7-5.7-5.7ZM365.5,215.1c0,2.1-1.7,3.7-3.7,3.7h-9.3c-2.1,0-3.7-1.7-3.7-3.7v-9.3c0-2.1,1.7-3.7,3.7-3.7h9.3c2.1,0,3.7,1.7,3.7,3.7v9.3Z"/>
</svg>