<?xml version="1.0" encoding="UTF-8"?>
<svg id="Layer_3" xmlns="http://www.w3.org/2000/svg" version="1.1" xmlns:cc="http://creativecommons.org/ns#" xmlns:dc="http://purl.org/dc/elements/1.1/" xmlns:rdf="http://www.w3.org/1999/02/22-rdf-syntax-ns#" xmlns:x="http://ns.adobe.com/Extensibility/1.0/" viewBox="0 0 598.2 350.3">
  <!-- Generator: Adobe Illustrator 29.4.0, SVG Export Plug-In . SVG Version: 2.1.0 Build 152)  -->
  <defs>
    <style>
      .st0 {
        fill: #fff;
      }
    </style>
  </defs>
  <g id="path3">
    <path class="st0" d="M131.4,36.9c-22.1,0-42.8,4.7-60.8,14.9h0c-1,.6-1.5,1.5-1.6,2.5s0,13.1,0,14.4h1.9v-14.2c0-.6,0-.7.7-1h0c17.7-9.9,38.1-14.6,59.9-14.6h62.6c1.4,0,2.9.2,3.9.6s1.6,1,1.6,2.3v4.9h1.9v-4.9c0-2-1.2-3.4-2.7-4-1.5-.7-3.2-.8-4.7-.8h-62.7Z"/>
  </g>
  <g id="path31">
    <path class="st0" d="M468.3,36.9h-62.6c-1.5,0-3.2,0-4.7.8s-2.7,2.1-2.7,4v4.9h1.8v-4.9c.1-1.3.7-1.8,1.7-2.3s2.5-.6,3.9-.6h62.6c21.8,0,42.2,4.7,59.9,14.6h0c.6.3.6.4.7,1s0,12.8,0,14.2h1.9c0-1.3,0-13.5,0-14.4s-.6-1.9-1.6-2.4h0c-18-10.1-38.7-14.9-60.8-14.9h-.1Z"/>
  </g>
  <g id="path5">
    <path class="st0" d="M462.7,268.1H136.5c-61.2,0-110.9-49.8-110.9-110.9s49.8-110.9,110.9-110.9h326.2c61.2,0,110.9,49.8,110.9,110.9s-49.8,110.9-110.9,110.9h0ZM136.5,48.2c-60.1,0-108.9,48.9-108.9,108.9s48.9,108.9,108.9,108.9h326.2c60.1,0,108.9-48.9,108.9-108.9s-48.9-108.9-108.9-108.9c0,0-326.2,0-326.2,0Z"/>
  </g>
  <g id="circle9">
    <path class="st0" d="M131,73.8c-45.9,0-83.1,37.2-83.1,83.1s37.2,83.1,83.1,83.1,83.1-37.2,83.1-83.1-37.2-83.1-83.1-83.1ZM131,76.2c44.6,0,80.7,36.1,80.7,80.7s-36.1,80.7-80.7,80.7-80.7-36.1-80.7-80.7,36.1-80.7,80.7-80.7Z"/>
  </g>
  <g id="circle91">
    <path class="st0" d="M463.2,73.8c-45.9,0-83.1,37.2-83.1,83.1s37.2,83.1,83.1,83.1,83.1-37.2,83.1-83.1-37.2-83.1-83.1-83.1h0ZM463.2,76.2c44.6,0,80.7,36.1,80.7,80.7s-36.1,80.7-80.7,80.7-80.7-36.1-80.7-80.7,36.1-80.7,80.7-80.7Z"/>
  </g>
  <g id="path11">
    <path class="st0" d="M119.8,105.3c-3.1,0-5.6,2.5-5.6,5.6v26.2c0,.5,0,.7,0,.6h-26.8c-3.1,0-5.7,2.5-5.7,5.6v22.3c0,3.1,2.6,5.6,5.7,5.6h26.1c.5,0,.6,0,.6.1v26.7c0,3.1,2.5,5.6,5.6,5.6h22.3c3.1,0,5.6-2.5,5.6-5.6v-26.7s.2-.1.6-.1h26.1c3.1,0,5.7-2.5,5.7-5.6v-22.3c0-3.1-2.6-5.6-5.7-5.6h-26.2c-.3,0-.5,0-.5-.1,0,0-.1-.2-.1-.5v-26.2c0-3.1-2.5-5.6-5.6-5.6h-22.3.2ZM119.8,107.3h22.3c2.1,0,3.7,1.6,3.7,3.7v26.2c0,.7.2,1.4.7,1.8.5.5,1.2.7,1.9.7h26.2c2.1,0,3.7,1.6,3.7,3.7v22.3c0,2.1-1.7,3.7-3.7,3.7h-26.1c-.7,0-1.4.2-1.9.7s-.7,1.1-.7,1.8v26.3c0,2.1-1.6,3.7-3.7,3.7h-22.3c-2.1,0-3.7-1.6-3.7-3.7v-26.2c0-.7-.2-1.4-.7-1.9s-1.2-.6-1.9-.6h-26.1c-2.1,0-3.7-1.6-3.7-3.7v-22.3c0-2.1,1.7-3.7,3.7-3.7h26.2c.8,0,1.6-.1,2.1-.7.5-.6.5-1.2.5-1.8v-26.2c0-2.1,1.6-3.7,3.7-3.7h-.2Z"/>
  </g>
  <g id="path13">
    <path class="st0" d="M117.7,102.8c-3.1,0-5.6,2.5-5.6,5.6v26.2c0,.5,0,.6,0,.5h-26.8c-3.1,0-5.7,2.6-5.7,5.7v27.5c0,3.1,2.6,5.7,5.7,5.7h26.1c.5,0,.6,0,.6.1v26.7c0,3.1,2.5,5.6,5.6,5.6h26.5c3.1,0,5.6-2.5,5.6-5.6v-26.7s.2-.1.6-.1h26.1c3.1,0,5.7-2.6,5.7-5.7v-27.5c0-3.1-2.6-5.7-5.7-5.7h-26.2c-.3,0-.5,0-.5-.1,0,0-.1-.2-.1-.5v-26.2c0-3.1-2.5-5.6-5.6-5.6h-26.5.2ZM117.7,104.7h26.5c2.1,0,3.7,1.6,3.7,3.7v26.2c0,.7.2,1.4.7,1.8.5.5,1.2.7,1.9.7h26.2c2.1,0,3.7,1.7,3.7,3.7v27.5c0,2.1-1.7,3.7-3.7,3.7h-26.1c-.7,0-1.4.2-1.9.7s-.7,1.2-.7,1.8v26.3c0,2.1-1.6,3.7-3.7,3.7h-26.5c-2.1,0-3.7-1.6-3.7-3.7v-26.2c0-.7-.2-1.4-.7-1.9s-1.2-.6-1.9-.6h-26.1c-2.1,0-3.7-1.7-3.7-3.7v-27.5c0-2.1,1.7-3.7,3.7-3.7h26.2c.8,0,1.6-.1,2.1-.7.5-.6.5-1.2.5-1.8v-26.2c0-2.1,1.6-3.7,3.7-3.7h-.2Z"/>
  </g>
  <g id="circle15">
    <path class="st0" d="M131,141.9c-7,0-12.6,5.7-12.6,12.6s5.7,12.6,12.6,12.6,12.7-5.7,12.7-12.6-5.7-12.6-12.7-12.6ZM131,143.9c5.9,0,10.7,4.8,10.7,10.7s-4.8,10.7-10.7,10.7-10.7-4.8-10.7-10.7,4.8-10.7,10.7-10.7Z"/>
  </g>
  <g id="path17">
    <path class="st0" d="M131,109.5c-1.4,0-2.6.8-3.3,2h0l-7.3,15.2c-.2.5-.4,1-.4,1.6,0,2.1,1.7,3.7,3.8,3.7h14.4c2.1,0,3.8-1.7,3.8-3.7s-.1-1.1-.4-1.6l-7.3-15.3h0c-.7-1.1-1.9-1.8-3.2-1.8h-.1ZM131,111.4c.7,0,1.2.4,1.6.9h0l7.3,15.2c.1.2.2.5.2.8,0,1-.8,1.8-1.8,1.8h-14.4c-1,0-1.8-.8-1.8-1.8s0-.5.2-.8l7.2-15.2h0c.3-.6.9-1,1.6-1h-.1Z"/>
  </g>
  <g id="path19">
    <path class="st0" d="M104.7,143.6c-.6,0-1.1.1-1.6.4l-15.3,7.3h0c-1.1.7-1.8,1.9-1.8,3.2s.8,2.6,1.9,3.3h0l15.2,7.3h0c.5.3,1,.4,1.6.4,2.1,0,3.8-1.7,3.8-3.7v-14.4c0-2.1-1.7-3.8-3.8-3.8h0ZM104.7,145.5c1,0,1.8.8,1.8,1.8v14.4c0,1-.8,1.8-1.8,1.8s-.5,0-.8-.1h0l-15.2-7.3h0c-.6-.3-.9-.9-.9-1.6s.3-1.2.8-1.5l15.3-7.3c.2-.1.5-.2.8-.2h0Z"/>
  </g>
  <g id="path21">
    <path class="st0" d="M123.8,177.1c-2.1,0-3.8,1.7-3.8,3.8s0,1.1.4,1.6l7.3,15.3h0c.7,1.1,1.8,1.8,3.2,1.8s2.7-.8,3.3-2h0l7.3-15.2h0c.2-.5.4-1,.4-1.6,0-2.1-1.7-3.8-3.8-3.8h-14.4,0ZM123.8,179h14.4c1,0,1.8.8,1.8,1.8s0,.5-.2.8l-7.2,15.2h0c-.3.5-.9.9-1.6.9s-1.2-.3-1.5-.8h0l-7.3-15.2h0c0-.2-.2-.5-.2-.8,0-1,.8-1.8,1.8-1.8h0Z"/>
  </g>
  <g id="path23">
    <path class="st0" d="M157.2,143.6c-2.1,0-3.8,1.7-3.8,3.8v14.4c0,2.1,1.7,3.7,3.8,3.7s1.1-.1,1.6-.4l15.3-7.3h0c1.1-.7,1.8-1.9,1.8-3.2s-.8-2.6-1.9-3.3h0l-15.2-7.3c-.5-.2-1-.4-1.6-.4h0ZM157.2,145.5c.3,0,.5,0,.8.2h0l15.2,7.2h0c.5.3.9.9.9,1.6s-.3,1.2-.8,1.5h0l-15.2,7.3c-.2.1-.5.2-.8.2-1,0-1.8-.8-1.8-1.8v-14.4c0-1,.8-1.8,1.8-1.8h0Z"/>
  </g>
  <g id="path25">
    <path class="st0" d="M319.8,216.3c-1.6-1.6-3.8-2.6-6.3-2.6h-32.9c-4.9-.1-8.9,3.8-8.9,8.7s3.9,8.8,8.8,8.9h32.9c4.9.1,8.8-3.8,8.9-8.7,0-2.4-1-4.6-2.6-6.2h.1ZM318.5,217.7c1.2,1.3,2,3,2,4.9,0,3.8-3.1,6.9-6.9,6.9h-32.9c-3.8-.1-6.9-3.2-6.9-7.1s3.1-6.9,7-6.9h32.9c1.9.1,3.6.9,4.9,2.1h-.1Z"/>
  </g>
  <g id="path27">
    <path class="st0" d="M321.2,211.3c-2.2-1.5-4.8-2.3-7.6-2.3h-32.9c-7.5-.1-13.6,5.9-13.6,13.4s6.1,13.6,13.6,13.6h32.9c7.5.2,13.6-5.9,13.6-13.4s-2.3-8.9-5.9-11.3h-.1ZM321.8,214.3c2.1,2.1,3.4,5.1,3.4,8.3,0,6.5-5.3,11.6-11.7,11.6h-32.9c-6.5-.1-11.7-5.4-11.6-11.8,0-6.5,5.2-11.6,11.7-11.6h32.9c3.2.1,6.1,1.4,8.2,3.5h0Z"/>
  </g>
  <g id="circle35">
    <path class="st0" d="M418.7,132.8c-12.6,0-22.8,10.2-22.8,22.8s10.2,22.8,22.8,22.8,22.8-10.2,22.8-22.8-10.2-22.8-22.8-22.8ZM418.7,134.7c11.5,0,20.8,9.3,20.8,20.8s-9.3,20.8-20.8,20.8-20.8-9.3-20.8-20.8,9.3-20.8,20.8-20.8h0Z"/>
  </g>
  <g id="circle37">
    <path class="st0" d="M464.5,89.8c-12.6,0-22.7,10.2-22.7,22.8s10.2,22.8,22.7,22.8,22.8-10.2,22.8-22.8-10.2-22.8-22.8-22.8ZM464.5,91.7c11.5,0,20.8,9.3,20.8,20.8s-9.3,20.8-20.8,20.8-20.8-9.3-20.8-20.8,9.3-20.8,20.8-20.8Z"/>
  </g>
  <g id="circle371">
    <path class="st0" d="M464.5,93.1c-10.8,0-19.6,8.8-19.6,19.6s8.8,19.6,19.6,19.6,19.6-8.8,19.6-19.6-8.8-19.6-19.6-19.6ZM464.5,94.8c9.9,0,18,8,18,18s-8,18-18,18-17.9-8-17.9-18,8-18,17.9-18Z"/>
  </g>
  <g id="circle372">
    <path class="st0" d="M418.7,136c-10.8,0-19.6,8.8-19.6,19.6s8.8,19.6,19.6,19.6,19.6-8.8,19.6-19.6-8.8-19.6-19.6-19.6ZM418.7,137.6c9.9,0,18,8,18,18s-8,18-18,18-17.9-8-17.9-18,8-18,17.9-18Z"/>
  </g>
  <g id="circle373">
    <path class="st0" d="M466.3,178c-10.8,0-19.6,8.8-19.6,19.6s8.8,19.6,19.6,19.6,19.6-8.8,19.6-19.6-8.8-19.6-19.6-19.6ZM466.3,179.7c9.9,0,18,8,18,18s-8,18-18,18-17.9-8-17.9-18,8-18,17.9-18Z"/>
  </g>
  <g id="circle374">
    <path class="st0" d="M509.9,135c-10.8,0-19.6,8.8-19.6,19.6s8.8,19.6,19.6,19.6,19.6-8.8,19.6-19.6-8.8-19.6-19.6-19.6ZM509.9,136.6c9.9,0,18,8,18,18s-8,18-18,18-17.9-8-17.9-18,8-18,17.9-18h0Z"/>
  </g>
  <g id="circle41">
    <path class="st0" d="M466.3,174.9c-12.6,0-22.8,10.2-22.8,22.8s10.2,22.7,22.8,22.7,22.7-10.2,22.7-22.7-10.2-22.8-22.7-22.8ZM466.3,176.8c11.5,0,20.8,9.3,20.8,20.8s-9.3,20.8-20.8,20.8-20.8-9.3-20.8-20.8,9.3-20.8,20.8-20.8Z"/>
  </g>
  <g id="circle43">
    <path class="st0" d="M509.9,131.8c-12.6,0-22.8,10.2-22.8,22.8s10.2,22.8,22.8,22.8,22.8-10.2,22.8-22.8-10.2-22.8-22.8-22.8h0ZM509.9,133.7c11.5,0,20.8,9.3,20.8,20.8s-9.3,20.8-20.8,20.8-20.8-9.3-20.8-20.8,9.3-20.8,20.8-20.8h0Z"/>
  </g>
  <path class="st0" d="M348.4,240.9h-99.8c-12.9,0-23.4-10.5-23.4-23.4s10.5-23.4,23.4-23.4h99.8c12.9,0,23.4,10.5,23.4,23.4s-10.5,23.4-23.4,23.4ZM248.6,196.1c-11.8,0-21.4,9.6-21.4,21.4s9.6,21.4,21.4,21.4h99.8c11.8,0,21.4-9.6,21.4-21.4s-9.6-21.4-21.4-21.4h-99.8Z"/>
</svg>