<?xml version="1.0" encoding="UTF-8"?>
<svg xmlns="http://www.w3.org/2000/svg" version="1.1" xmlns:cc="http://creativecommons.org/ns#" xmlns:dc="http://purl.org/dc/elements/1.1/" xmlns:inkscape="http://www.inkscape.org/namespaces/inkscape" xmlns:ns0="&amp;#38;ns_sfw;" xmlns:rdf="http://www.w3.org/1999/02/22-rdf-syntax-ns#" xmlns:sodipodi="http://sodipodi.sourceforge.net/DTD/sodipodi-0.dtd" xmlns:svg="http://www.w3.org/2000/svg" viewBox="0 0 598.2 350.3">
  <!-- Generator: Adobe Illustrator 29.1.0, SVG Export Plug-In . SVG Version: 2.1.0 Build 142)  -->
  <defs>
    <style>
      .st0 {
        fill: #f4f4f4;
        isolation: isolate;
        opacity: 1;
      }
    </style>
  </defs>
  <g id="Layer_3" inkscape:version="1.0 (4035a4fb49, 2020-05-01)">
    <g>
      <path class="st0" d="M226.7,47.4c-23.2,0-37.4,15.1-45.7,33.4-8.3,18.3-10.8,39.8-10.8,53.1,0,46.8,7.3,87.2,18,115.9,5.3,14.3,11.5,25.8,18,33.7,3.4,4.1,6.9,7.2,10.4,9.3.6,5.6,4.8,10.1,10,10.1s9.4-4.5,10-10.1c3.5-2.1,7-5.2,10.4-9.2,6.5-7.8,12.7-19.1,18-33.4,10.7-28.5,18-68.9,18-116.3s-2.7-34.8-11-53.1c-8.4-18.3-22.6-33.4-45.5-33.4ZM226.7,301.3c-4.1,0-7.5-3.3-8.4-7.7,2.8,1.4,5.6,2.1,8.4,2.1s5.6-.7,8.3-2.1c-.9,4.4-4.3,7.7-8.3,7.7ZM263.8,249.6c-5.3,14.2-11.4,25.4-17.8,33-6.4,7.6-13,11.6-19.3,11.6s-12.9-4-19.3-11.7c-6.4-7.7-12.5-19-17.8-33.2-10.6-28.5-17.9-68.6-17.9-115.3s2.5-34.5,10.6-52.4c8.1-18,21.8-32.5,44.4-32.5s35.9,14.6,44.1,32.5c8.2,18,10.9,39.4,10.9,52.4,0,47.2-7.3,87.4-17.9,115.7Z"/>
      <path class="st0" d="M265.6,130.3c0-.2-.2-.5-.4-.9-.3-.8-.7-1.8-1.2-3.1-1-2.5-2.4-5.9-3.8-9.2-1.4-3.3-2.8-6.6-3.8-9.1s-1-2.3-1.3-3.1c-.2-.4-.3-.7-.4-.9,0-.1,0-.2-.1-.3,0,0,0,0-.2-.3s-.2-.2-.3-.2-.2,0-.3-.1c-.2-.1-.5-.2-.9-.4-.8-.3-1.8-.8-3.1-1.3-2.5-1.1-5.8-2.5-9.2-3.8-3.3-1.4-6.6-2.7-9.2-3.8-1.3-.5-2.3-.9-3.1-1.2s-.7-.3-.9-.3c-.1,0-.2,0-.3,0s0,0-.3,0-.3,0-.3,0-.2,0-.3,0c-.2,0-.5.2-.9.3-.8.3-1.8.7-3.1,1.2-2.5,1-5.9,2.4-9.2,3.8-3.3,1.4-6.6,2.8-9.2,3.8-1.3.5-2.3,1-3.1,1.3-.4.2-.7.3-.9.4-.1,0-.2,0-.3.1s0,0-.3.2c-.2.2-.2.2-.2.3s0,.2-.1.3c-.1.2-.2.5-.4.9-.3.8-.8,1.8-1.3,3.1-1.1,2.5-2.5,5.8-3.8,9.1-1.4,3.3-2.7,6.6-3.8,9.2-.5,1.3-.9,2.3-1.2,3.1s-.3.7-.4.9c0,.1,0,.2,0,.3s0,0,0,.3,0,.3,0,.3c0,0,0,.2,0,.3,0,.2.2.5.4.9.3.8.7,1.8,1.2,3.1,1,2.5,2.4,5.9,3.8,9.2,1.4,3.3,2.8,6.6,3.8,9.1s1,2.3,1.3,3.1c.2.4.3.7.4.9,0,.1,0,.2.1.3,0,0,0,0,.2.3.2.2.2.2.3.2,0,0,.2,0,.3.1.2.1.5.2.9.4.8.3,1.8.8,3.1,1.3,2.5,1.1,5.8,2.5,9.2,3.8,3.3,1.4,6.6,2.7,9.2,3.8,1.3.5,2.3.9,3.1,1.2s.7.3.9.3c.1,0,.2,0,.3,0,0,0,0,0,.3,0s.3,0,.3,0c0,0,.2,0,.3,0,.2,0,.5-.2.9-.3.8-.3,1.8-.7,3.1-1.2,2.5-1,5.9-2.4,9.2-3.8,3.3-1.4,6.6-2.8,9.2-3.8s2.3-1,3.1-1.3c.4-.2.7-.3.9-.4.1,0,.2,0,.3-.1,0,0,0,0,.3-.2s.2-.2.2-.3,0-.2.1-.3c.1-.2.2-.5.4-.9.3-.8.8-1.8,1.3-3.1,1.1-2.5,2.5-5.8,3.8-9.1,1.4-3.3,2.7-6.6,3.8-9.2.5-1.3.9-2.3,1.2-3.1s.3-.7.4-.9c0-.1,0-.2,0-.3,0,0,0,0,0-.3s0-.3,0-.3c0,0,0-.2,0-.3ZM264.1,131c0,.2-.2.5-.3.9-.3.8-.7,1.8-1.2,3.1-1,2.5-2.4,5.9-3.8,9.2-1.4,3.3-2.8,6.6-3.8,9.1-.5,1.3-1,2.3-1.3,3.1-.2.4-.3.7-.4.9,0,0,0,0,0,.1,0,0,0,0-.1,0-.2,0-.5.2-.9.4-.7.3-1.8.8-3.1,1.3-2.5,1.1-5.8,2.5-9.1,3.8-3.3,1.4-6.6,2.7-9.2,3.8-1.3.5-2.3.9-3.1,1.2-.4.1-.7.3-.9.3,0,0,0,0-.1,0,0,0,0,0-.1,0-.2,0-.5-.2-.9-.3-.8-.3-1.8-.7-3.1-1.2-2.5-1-5.8-2.4-9.2-3.8-3.3-1.4-6.6-2.8-9.1-3.8-1.3-.5-2.3-1-3.1-1.3-.4-.2-.7-.3-.9-.4,0,0,0,0-.1,0,0,0,0,0,0-.1,0-.2-.2-.5-.4-.9-.3-.7-.8-1.8-1.3-3.1-1.1-2.5-2.5-5.8-3.8-9.1-1.4-3.3-2.7-6.6-3.8-9.2s-.9-2.3-1.2-3.1c-.1-.4-.3-.7-.3-.9,0,0,0-.1,0-.1,0,0,0,0,0-.1,0-.2.2-.5.3-.9.3-.8.7-1.8,1.2-3.1,1-2.5,2.4-5.9,3.8-9.2,1.4-3.3,2.8-6.6,3.8-9.1.5-1.3,1-2.3,1.3-3.1.2-.4.3-.7.4-.9,0,0,0,0,0-.1,0,0,0,0,.1,0,.2,0,.5-.2.9-.4.7-.3,1.8-.8,3.1-1.3,2.5-1.1,5.8-2.5,9.1-3.8,3.3-1.4,6.6-2.7,9.2-3.8s2.3-.9,3.1-1.2.7-.3.9-.3c0,0,0,0,.1,0,0,0,0,0,.1,0,.2,0,.5.2.9.3.8.3,1.8.7,3.1,1.2,2.5,1,5.9,2.4,9.2,3.8,3.3,1.4,6.6,2.8,9.1,3.8,1.3.5,2.3,1,3.1,1.3.4.2.7.3.9.4,0,0,0,0,.1,0,0,0,0,0,0,.1,0,.2.2.5.4.9.3.7.8,1.8,1.3,3.1,1.1,2.5,2.5,5.8,3.8,9.1,1.4,3.3,2.7,6.6,3.8,9.2.5,1.3.9,2.3,1.2,3.1.1.4.3.7.3.9,0,0,0,0,0,.1,0,0,0,0,0,.1Z"/>
      <path class="st0" d="M254.8,130.8c0-15.5-12.6-28-28.1-28s-28.2,12.6-28.2,28.2,12.6,28.2,28.2,28.2,28.1-12.5,28.1-28c0,0,0,0,0-.1,0,0,0,0,0-.1h0ZM226.7,157.6c-14.7,0-26.7-11.9-26.7-26.7s11.9-26.7,26.7-26.7,26.7,11.9,26.7,26.7-11.9,26.7-26.7,26.7Z"/>
      <path class="st0" d="M226.7,110.4h0c-11.3,0-20.5,9.2-20.5,20.6s9.2,20.5,20.5,20.5,20.5-9.1,20.5-20.4c0,0,0,0,0-.1,0,0,0-.1,0-.2,0-11.3-9.2-20.4-20.5-20.4ZM226.7,150c-10.5,0-19-8.5-19-19s8.5-19.1,19-19.1,19,8.5,19,19.1-8.5,19-19,19Z"/>
      <path class="st0" d="M366.4,60v9.4c0,1.3,1.1,2.3,2.3,2.3h9.9c.8,0,1,.1,1,.1s.1.3.1,1v10c0,1.3,1.1,2.3,2.3,2.3h9.4c1.3,0,2.3-1.1,2.3-2.3v-10c0-.7.1-1,.1-1,0,0,.3-.1,1-.1h9.9c1.3,0,2.3-1.1,2.3-2.3v-9.4c0-1.3-1.1-2.3-2.3-2.3h-9.9c-.7,0-1-.1-1-.2,0,0-.1-.3-.1-1v-9.9c0-1.3-1.1-2.3-2.3-2.3h-9.4c-1.3,0-2.3,1.1-2.3,2.3v9.9c0,.7-.1,1-.1,1s-.3.1-1,.1h-9.9c-1.3,0-2.3,1.1-2.3,2.3ZM380.8,58.5c.5-.5.6-1.2.6-2.1v-9.9c0-.5.4-.8.8-.8h9.4c.5,0,.8.4.8.8v9.9c0,.8,0,1.5.6,2,.5.5,1.2.6,2.1.6h9.9c.5,0,.8.4.8.8v9.4c0,.5-.4.8-.8.8h-9.9c-.8,0-1.5,0-2.1.6s-.6,1.2-.6,2.1v10c0,.5-.4.8-.8.8h-9.4c-.5,0-.8-.4-.8-.8v-10c0-.8,0-1.5-.5-2.1-.5-.5-1.2-.6-2.1-.6h-9.9c-.5,0-.8-.4-.8-.8v-9.4c0-.5.4-.8.8-.8h9.9c.9,0,1.6,0,2.1-.6Z"/>
      <path class="st0" d="M366.2,34.6c4.3,0,7.9-3.5,7.9-7.9s-3.5-7.9-7.9-7.9-7.9,3.5-7.9,7.9,3.5,7.9,7.9,7.9ZM366.2,20.4c3.5,0,6.4,2.8,6.4,6.4s-2.8,6.4-6.4,6.4-6.4-2.8-6.4-6.4,2.8-6.4,6.4-6.4Z"/>
      <path class="st0" d="M386.8,99.4c-7.6,0-13.8,6.2-13.8,13.8s6.2,13.8,13.8,13.8,13.8-6.2,13.8-13.8-6.2-13.8-13.8-13.8ZM386.8,125.4c-6.8,0-12.2-5.5-12.2-12.2s5.5-12.2,12.2-12.2,12.2,5.5,12.2,12.2-5.5,12.2-12.2,12.2Z"/>
      <path class="st0" d="M372.1,167c-.2-4-3.4-7.2-7.4-7.2s-7.5,3.4-7.5,7.5,3.4,7.5,7.5,7.5,7.3-3.2,7.4-7.2h0c0,0,0-.2,0-.3,0,0,0-.2,0-.3,0,0,0,0,0,0ZM364.7,173.3c-3.3,0-6-2.7-6-6s2.7-6,6-6,6,2.7,6,6-2.7,6-6,6Z"/>
      <path class="st0" d="M394.3,167.6c0,0,0-.2,0-.3,0,0,0-.2,0-.3,0,0,0,0,0,0-.2-4-3.4-7.2-7.4-7.2h0c-4.1,0-7.5,3.4-7.5,7.5s3.4,7.5,7.5,7.5,7.3-3.2,7.4-7.2h0ZM386.8,173.3c-3.3,0-6-2.7-6-6s2.7-6,6-6,6,2.7,6,6-2.7,6-6,6Z"/>
      <path class="st0" d="M416.5,167c-.2-4-3.4-7.2-7.4-7.2s-7.5,3.4-7.5,7.5,3.4,7.5,7.5,7.5,7.3-3.2,7.4-7.2h0c0,0,0-.2,0-.3,0,0,0-.2,0-.3,0,0,0,0,0,0ZM409,173.3c-3.3,0-6-2.7-6-6s2.7-6,6-6,6,2.7,6,6-2.7,6-6,6Z"/>
      <circle class="st0" cx="381.3" cy="193.5" r="1"/>
      <circle class="st0" cx="381.3" cy="223.6" r="1"/>
      <circle class="st0" cx="381.3" cy="217.6" r="1.1"/>
      <circle class="st0" cx="381.3" cy="211.6" r="1.3"/>
      <circle class="st0" cx="381.3" cy="199.5" r="1.1"/>
      <circle class="st0" cx="381.3" cy="205.6" r="1.3"/>
      <circle class="st0" cx="386.8" cy="193.5" r="1"/>
      <circle class="st0" cx="386.8" cy="223.6" r="1"/>
      <circle class="st0" cx="386.8" cy="217.6" r="1.1"/>
      <circle class="st0" cx="386.8" cy="211.6" r="1.3"/>
      <circle class="st0" cx="386.8" cy="199.5" r="1.1"/>
      <circle class="st0" cx="386.8" cy="205.6" r="1.3"/>
      <circle class="st0" cx="392.4" cy="193.5" r="1"/>
      <circle class="st0" cx="392.4" cy="223.6" r="1"/>
      <circle class="st0" cx="392.4" cy="217.6" r="1.1"/>
      <circle class="st0" cx="392.4" cy="211.6" r="1.3"/>
      <circle class="st0" cx="392.4" cy="199.5" r="1.1"/>
      <circle class="st0" cx="392.4" cy="205.6" r="1.3"/>
      <path class="st0" d="M386.8,261.6c5.5,0,10-4.5,10-10s-4.5-10-10-10-10,4.5-10,10,4.5,10,10,10ZM386.8,243.1c4.7,0,8.5,3.8,8.5,8.5s-3.8,8.5-8.5,8.5-8.5-3.8-8.5-8.5,3.8-8.5,8.5-8.5Z"/>
      <path class="st0" d="M396.8,280.7h0c0,0,0-.2,0-.3,0-.1,0-.2,0-.3-.2-5.4-4.5-9.7-9.9-9.7s-10,4.5-10,10,4.5,10,10,10,9.8-4.3,9.9-9.7ZM386.8,288.9c-4.7,0-8.5-3.8-8.5-8.5s3.8-8.5,8.5-8.5,8.5,3.8,8.5,8.5-3.8,8.5-8.5,8.5Z"/>
      <path class="st0" d="M366.7,300.2h-2.9c-.9,0-1.6.7-1.6,1.6v2.9c0,.9.7,1.6,1.6,1.6h2.9c.9,0,1.6-.7,1.6-1.6v-2.9c0-.9-.7-1.6-1.6-1.6ZM366.8,304.8c0,0,0,.1-.1.1h-2.9c0,0-.1,0-.1-.1v-2.9c0,0,0-.1.1-.1h2.9c0,0,.1,0,.1.1v2.9Z"/>
      <path class="st0" d="M381.1,300.2h-2.9c-.9,0-1.6.7-1.6,1.6v2.9c0,.9.7,1.6,1.6,1.6h2.9c.9,0,1.6-.7,1.6-1.6v-2.9c0-.9-.7-1.6-1.6-1.6ZM381.2,304.8c0,0,0,.1-.1.1h-2.9c0,0-.1,0-.1-.1v-2.9c0,0,0-.1.1-.1h2.9c0,0,.1,0,.1.1v2.9Z"/>
      <path class="st0" d="M395.5,300.2h-2.9c-.9,0-1.6.7-1.6,1.6v2.9c0,.9.7,1.6,1.6,1.6h2.9c.9,0,1.6-.7,1.6-1.6v-2.9c0-.9-.7-1.6-1.6-1.6ZM395.6,304.8c0,0,0,.1-.1.1h-2.9c0,0-.1,0-.1-.1v-2.9c0,0,0-.1.1-.1h2.9c0,0,.1,0,.1.1v2.9Z"/>
      <path class="st0" d="M409.9,300.2h-2.9c-.9,0-1.6.7-1.6,1.6v2.9c0,.9.7,1.6,1.6,1.6h2.9c.9,0,1.6-.7,1.6-1.6v-2.9c0-.9-.7-1.6-1.6-1.6ZM410.1,304.8c0,0,0,.1-.1.1h-2.9c0,0-.1,0-.1-.1v-2.9c0,0,0-.1.1-.1h2.9c0,0,.1,0,.1.1v2.9Z"/>
      <path class="st0" d="M414.2,11.7h-53.5c-7.6,0-13.7,6.1-13.7,13.7v299.5c0,7.6,6.1,13.7,13.7,13.7h53.5c7.6,0,13.7-6.1,13.7-13.7V25.4c0-7.6-6.1-13.7-13.7-13.7ZM426.5,324.9c0,6.8-5.4,12.2-12.2,12.2h-53.5c-6.8,0-12.2-5.4-12.2-12.2V25.4c0-6.8,5.4-12.2,12.2-12.2h53.5c6.8,0,12.2,5.4,12.2,12.2v299.5Z"/>
    </g>
  </g>
</svg>