<?xml version="1.0" encoding="UTF-8"?>
<svg xmlns="http://www.w3.org/2000/svg" version="1.1" xmlns:cc="http://creativecommons.org/ns#" xmlns:dc="http://purl.org/dc/elements/1.1/" xmlns:inkscape="http://www.inkscape.org/namespaces/inkscape" xmlns:ns0="&amp;#38;#38;ns_sfw;" xmlns:rdf="http://www.w3.org/1999/02/22-rdf-syntax-ns#" xmlns:sodipodi="http://sodipodi.sourceforge.net/DTD/sodipodi-0.dtd" xmlns:svg="http://www.w3.org/2000/svg" viewBox="0 0 598.2 350.3">
  <!-- Generator: Adobe Illustrator 29.1.0, SVG Export Plug-In . SVG Version: 2.1.0 Build 142)  -->
  <defs>
    <style>
      .st0 {
        fill: #f4f4f4;
        isolation: isolate;
        opacity: 1;
      }
    </style>
  </defs>
  <g id="Layer_3" inkscape:version="1.0 (4035a4fb49, 2020-05-01)">
    <g>
      <path class="st0" d="M115.7,166.6v-11.6c0-1.1-.9-2.1-2.1-2.1h-15.6v-15.6c0-1.1-.9-2.1-2.1-2.1h-11.6c-1.1,0-2.1.9-2.1,2.1v15.6h-15.6c-1.1,0-2.1.9-2.1,2.1v11.6c0,1.1.9,2.1,2.1,2.1h15.6v15.6c0,1.1.9,2.1,2.1,2.1h11.6c1.1,0,2.1-.9,2.1-2.1v-15.6h15.6c1.1,0,2.1-.9,2.1-2.1ZM96.6,167.1v17.1c0,.3-.2.6-.6.6h-11.6c-.3,0-.6-.2-.6-.6v-17.1h-17.1c-.3,0-.6-.2-.6-.6v-11.6c0-.3.2-.6.6-.6h17.1v-17.1c0-.3.2-.6.6-.6h11.6c.3,0,.6.2.6.6v17.1h17.1c.3,0,.6.2.6.6v11.6c0,.3-.2.6-.6.6h-17.1Z"/>
      <path class="st0" d="M95,96.4s0,0,0-.1c0,0,0,0,0-.1,0,0,0,0,0,0,0-16.1-13.1-29.1-29.2-29.1s-29.2,13.1-29.2,29.2,13.1,29.2,29.2,29.2,29.2-13,29.2-29.1ZM38,96.3c0-15.3,12.4-27.8,27.8-27.8s27.8,12.4,27.8,27.8-12.4,27.8-27.8,27.8-27.8-12.4-27.8-27.8Z"/>
      <path class="st0" d="M86.2,96.4s0,0,0-.1c0,0,0,0,0-.1,0,0,0,0,0,0,0-11.2-9.2-20.3-20.5-20.3s-20.5,9.2-20.5,20.5,9.2,20.5,20.5,20.5,20.4-9.1,20.5-20.4ZM46.7,96.3c0-10.5,8.5-19,19-19s19,8.5,19,19-8.5,19-19,19-19-8.5-19-19Z"/>
      <path class="st0" d="M564.3,96.1c0-16.1-13.1-29.1-29.2-29.1s-29.2,13.1-29.2,29.2,13.1,29.2,29.2,29.2,29.2-13,29.2-29.1c0,0,0,0,0-.1,0,0,0,0,0-.1,0,0,0,0,0,0ZM535.1,124c-15.3,0-27.8-12.4-27.8-27.8s12.4-27.8,27.8-27.8,27.8,12.4,27.8,27.8-12.4,27.8-27.8,27.8Z"/>
      <path class="st0" d="M535.1,75.8c-11.3,0-20.5,9.2-20.5,20.5s9.2,20.5,20.5,20.5,20.4-9.1,20.5-20.4c0,0,0,0,0-.1,0,0,0,0,0-.1,0,0,0,0,0,0,0-11.2-9.2-20.3-20.5-20.3ZM535.1,115.3c-10.5,0-19-8.5-19-19s8.5-19,19-19,19,8.5,19,19-8.5,19-19,19Z"/>
      <path class="st0" d="M523.5,137c-.2-5.9-5-10.7-10.9-10.7s-11,4.9-11,11,4.9,11,11,11,10.8-4.8,10.9-10.7h0c0,0,0-.2,0-.3,0,0,0-.2,0-.3h0ZM512.6,146.8c-5.3,0-9.5-4.2-9.5-9.5s4.2-9.5,9.5-9.5,9.5,4.2,9.5,9.5-4.2,9.5-9.5,9.5Z"/>
      <path class="st0" d="M523.5,182.2c-.2-5.9-5-10.7-10.9-10.7s-11,4.9-11,11,4.9,11,11,11,10.8-4.8,10.9-10.7h0c0,0,0-.2,0-.3,0,0,0-.2,0-.3h0ZM512.6,192c-5.3,0-9.5-4.2-9.5-9.5s4.2-9.5,9.5-9.5,9.5,4.2,9.5,9.5-4.2,9.5-9.5,9.5Z"/>
      <path class="st0" d="M490.3,148.9h0c0,0-.2,0-.3,0,0,0-.2,0-.3,0h0c-5.9.2-10.7,5-10.7,10.9s4.9,11,11,11,11-4.9,11-11-4.8-10.8-10.7-10.9ZM490,169.4c-5.3,0-9.5-4.2-9.5-9.5s4.2-9.5,9.5-9.5,9.5,4.2,9.5,9.5-4.2,9.5-9.5,9.5Z"/>
      <path class="st0" d="M535.5,148.9h0c0,0-.2,0-.3,0,0,0-.2,0-.3,0h0c-5.9.2-10.7,5-10.7,10.9s4.9,11,11,11,11-4.9,11-11-4.8-10.8-10.7-10.9ZM535.2,169.4c-5.3,0-9.5-4.2-9.5-9.5s4.2-9.5,9.5-9.5,9.5,4.2,9.5,9.5-4.2,9.5-9.5,9.5Z"/>
      <path class="st0" d="M487.4,210.3c-4.5,0-8.2,3.7-8.2,8.2s3.7,8.2,8.2,8.2,8.2-3.7,8.2-8.2-3.7-8.2-8.2-8.2ZM487.4,225.2c-3.7,0-6.7-3-6.7-6.7s3-6.7,6.7-6.7,6.7,3,6.7,6.7-3,6.7-6.7,6.7Z"/>
      <path class="st0" d="M495.5,247.4c-.2-4.4-3.7-7.9-8.1-7.9h0c-4.5,0-8.2,3.7-8.2,8.2s3.7,8.2,8.2,8.2,7.9-3.5,8.1-7.9h0c0,0,0-.2,0-.3,0,0,0-.2,0-.3h0ZM487.4,254.3c-3.7,0-6.7-3-6.7-6.7s3-6.7,6.7-6.7,6.7,3,6.7,6.7-3,6.7-6.7,6.7Z"/>
      <path class="st0" d="M448.3,288.3c-3.9,0-7.1,3.2-7.1,7.1s3.2,7.1,7.1,7.1,7.1-3.2,7.1-7.1-3.2-7.1-7.1-7.1ZM448.3,301c-3.1,0-5.6-2.5-5.6-5.6s2.5-5.6,5.6-5.6,5.6,2.5,5.6,5.6-2.5,5.6-5.6,5.6Z"/>
      <path class="st0" d="M421.5,288.5h-4.6c-2.5,0-4.6,2.1-4.6,4.6v4.6c0,2.5,2.1,4.6,4.6,4.6h4.6c2.5,0,4.6-2.1,4.6-4.6v-4.6c0-2.5-2.1-4.6-4.6-4.6ZM424.7,297.7c0,1.8-1.4,3.2-3.2,3.2h-4.6c-1.8,0-3.2-1.4-3.2-3.2v-4.6c0-1.8,1.4-3.2,3.2-3.2h4.6c1.8,0,3.2,1.4,3.2,3.2v4.6Z"/>
      <circle class="st0" cx="390.1" cy="295.4" r="1.5"/>
      <path class="st0" d="M299.3,282.1c-7.3,0-13.2,5.9-13.2,13.2s5.9,13.2,13.2,13.2,13.2-5.9,13.2-13.2-5.9-13.2-13.2-13.2ZM299.3,307.1c-6.5,0-11.8-5.3-11.8-11.8s5.3-11.8,11.8-11.8,11.8,5.3,11.8,11.8-5.3,11.8-11.8,11.8Z"/>
      <circle class="st0" cx="265.6" cy="295.4" r="1.2"/>
      <path class="st0" d="M491,292.4h-6.6c-1.6,0-2.9,1.3-2.9,2.9s1.3,2.9,2.9,2.9h6.6c1.6,0,2.9-1.3,2.9-2.9s-1.3-2.9-2.9-2.9ZM491,296.8h-6.6c-.8,0-1.4-.6-1.4-1.4s.6-1.4,1.4-1.4h6.6c.8,0,1.4.6,1.4,1.4s-.6,1.4-1.4,1.4Z"/>
      <path class="st0" d="M113.8,292.4h-6.6c-1.6,0-2.9,1.3-2.9,2.9s1.3,2.9,2.9,2.9h6.6c1.6,0,2.9-1.3,2.9-2.9s-1.3-2.9-2.9-2.9ZM113.8,296.8h-6.6c-.8,0-1.4-.6-1.4-1.4s.6-1.4,1.4-1.4h6.6c.8,0,1.4.6,1.4,1.4s-.6,1.4-1.4,1.4Z"/>
      <path class="st0" d="M451.2,86.6H147c-1.6,0-2.9,1.3-2.9,2.9v171.1c0,1.6,1.3,2.9,2.9,2.9h304.1c1.6,0,2.9-1.3,2.9-2.9V89.6c0-1.6-1.3-2.9-2.9-2.9ZM452.6,260.7c0,.8-.6,1.4-1.4,1.4H147c-.8,0-1.4-.6-1.4-1.4V89.6c0-.8.6-1.4,1.4-1.4h304.1c.8,0,1.4.6,1.4,1.4v171.1Z"/>
      <path class="st0" d="M453.5,80.4H144.7c-4.1,0-7.4,3.3-7.4,7.4v174.8c0,4.1,3.3,7.4,7.4,7.4h308.8c4.1,0,7.4-3.3,7.4-7.4V87.7c0-4.1-3.3-7.4-7.4-7.4ZM459.3,262.5c0,3.3-2.6,5.9-5.9,5.9H144.7c-3.3,0-5.9-2.6-5.9-5.9V87.7c0-3.3,2.6-5.9,5.9-5.9h308.8c3.3,0,5.9,2.6,5.9,5.9v174.8Z"/>
      <path class="st0" d="M227.2,61.1h142.5c5.9,0,10.7-4.8,10.7-10.6s-4.8-10.7-10.7-10.7h-142.5c-5.9,0-10.6,4.8-10.6,10.7s4.8,10.6,10.6,10.6ZM227.2,41.3h142.5c5.1,0,9.2,4.1,9.2,9.2s-4.1,9.1-9.2,9.1h-142.5c-5.1,0-9.1-4.1-9.1-9.1s4.1-9.2,9.1-9.2Z"/>
      <path class="st0" d="M298.4,57.9c4.1,0,7.5-3.4,7.5-7.5s-3.4-7.5-7.5-7.5-7.5,3.4-7.5,7.5,3.4,7.5,7.5,7.5ZM298.4,44.5c3.3,0,6,2.7,6,6s-2.7,6-6,6-6-2.7-6-6,2.7-6,6-6Z"/>
      <path class="st0" d="M580.8,88.2c-4.9-35.1-36.3-62.2-74.3-62.2s-.1,0-.2,0h.1c-2.6-.2-5.2-.3-7.8-.3H99.5c-4.4,0-8.6.3-12.8,1-36,2.2-65.1,28.6-69.6,62.5-1.8,6.9-2.8,14.2-2.8,21.7v128.7c0,47.2,38,85.2,85.2,85.2h399.2c47.2,0,85.2-38,85.2-85.2V110.8c0-7.8-1.1-15.4-3-22.6ZM576.1,75.3c-9.9-21.6-28.6-38.3-51.5-45.6,24.2,5.9,43.6,23.2,51.5,45.6ZM68.2,31.6c-20.6,8.1-37.2,24-46.3,44,7.4-20.7,24.5-37.1,46.3-44ZM582.3,239.5c0,46.4-37.3,83.7-83.7,83.7H99.5c-46.4,0-83.7-37.3-83.7-83.7V110.8c0-46.4,37.3-83.7,83.7-83.7h399.2c38.6,0,71,25.9,80.7,61.4,0,0,0,.2,0,.2h0c1.9,7,2.9,14.4,2.9,22v128.7Z"/>
    </g>
  </g>
</svg>