<?xml version="1.0" encoding="UTF-8"?>
<svg id="Layer_3" xmlns="http://www.w3.org/2000/svg" version="1.1" xmlns:cc="http://creativecommons.org/ns#" xmlns:dc="http://purl.org/dc/elements/1.1/" xmlns:rdf="http://www.w3.org/1999/02/22-rdf-syntax-ns#" viewBox="0 0 598.2 350.3">
  <!-- Generator: Adobe Illustrator 29.0.1, SVG Export Plug-In . SVG Version: 2.1.0 Build 192)  -->
  <defs>
    <style>
      .st0 {
        fill: #f4f4f4;
      }
    </style>
  </defs>
  <path class="st0" d="M285.9,336.9c-21.4,0-41.8-6.5-57.3-18.7-5.6-4.2-11.5-10.3-16.2-16.6-3.1-4.1-4.8-8-6.6-12-.6-1.3-1.1-2.6-1.8-3.9-8.9-18.6-10.2-45.6-11.1-63.5v-1.7c-.7-16.1-2.2-33.3-3.8-50-1.2-13.2-2.5-26.8-3.2-39.4,0-17.1.6-32.4,2-45.5,1-11.4,5.3-28.5,11.1-37.7,4.9-8.8,13.5-16.6,25.7-23.1,14.5-7.1,33.8-10.9,55.8-11.2,8.5-.2,18.3.2,27.5,1,1.2.1,2.3.2,3.3.4,4.7.5,8.8.9,13.6,2.4,23.8,6.7,40.3,18.3,48.8,34.5,7,11.4,8.5,24,9.3,35,1.4,19.3,1.4,36.4,0,52.3-2.5,21.5-4.2,39.7-5,55.4-.5,7.3-1,14.8-1.5,22.1-.9,13.3-1.8,27-3,40.2-.4,2.4-.6,4.7-.9,7-.7,6.1-1.5,12.4-3.7,18-8.5,21.9-21.9,36.5-43.3,47.4-5.3,2.7-8.6,3.4-12.8,4.4-1.3.3-2.6.6-4.1.9-7.7,1.7-15.4,2.5-23,2.5ZM195,220.4v1.6c1,17.7,2.3,44.5,11,62.8.6,1.4,1.2,2.7,1.8,4,1.8,4.1,3.4,7.7,6.4,11.6,4.6,6.2,10.3,12.1,15.8,16.2,20.6,16.2,50,22.1,78.7,15.8,1.5-.4,2.9-.7,4.2-1,4.2-.9,7.3-1.6,12.3-4.2,21-10.6,34.1-24.9,42.4-46.3,2.1-5.4,2.8-11.3,3.5-17.5.3-2.3.5-4.7.9-7,1.2-13.1,2.1-26.8,3-40.1.5-7.3,1-14.9,1.5-22.1.8-15.8,2.5-34,5-55.5,1.4-15.8,1.4-32.8,0-51.9-.8-10.7-2.3-23.1-9.1-34.1-8.3-15.8-24.4-27.1-47.7-33.6-4.7-1.5-8.6-1.9-13.2-2.3-1.1-.1-2.2-.2-3.3-.4-9.2-.8-18.9-1.2-27.3-1-21.8.3-40.8,4.1-55,11-11.8,6.3-20.1,13.9-24.9,22.3-5.7,8.9-9.8,25.7-10.8,36.9-1.4,13.1-2.1,28.3-2,45.3.7,12.6,2,26.2,3.2,39.3,1.5,16.7,3.1,34,3.7,50.1h0Z"/>
  <path class="st0" d="M344.4,319l-1.9-.7c9.8-25.1,13.8-52.4,17.7-78.8.8-5.2,1.5-10.5,2.4-15.8,6.1-42.6,11.5-88.5,9.9-135.7-.5-43.9-21.1-64-71.1-69.4-5.6-.9-9.9-.3-11.7,1.7-1.2,1.3-1.3,3.4-.5,6.1.9,3.1,3.1,5.6,5.4,8.2,1.9,2.1,3.8,4.4,5.1,6.9,2.1,4.3,2,10.4,2,16.3,0,1.4,0,2.8,0,4.2,0,7.3,0,17.3-6.9,23.4-4.5,3.6-7.8,6.8-7,12.2h0c0,5.2,0,12.8.2,20.6,0,9.5.2,19.4.2,25.7,0,2.4-.3,6.6-1.6,7.9-.4.4-.8.4-1.1.4h-.3s-.2-.2-.2-.2c-1.8-1.2-1.9-4-2.1-6.5,0-.6,0-1.1,0-1.6,0-6.1,0-15.7-.1-25.1,0-8.6,0-17.1,0-22.3,0-3.3-.3-5-1.8-6.8-.4-.4-.8-.9-1.3-1.3-3.4-3.5-7.2-7.6-8.8-12.5-2.4-10.3-1.1-23.6.9-32.6,1-3.9,3.5-6.8,5.8-9.5,1.3-1.5,2.7-3.1,3.7-4.8,2.2-3.8,3.1-6.9,2.3-8.7-.4-.8-1.1-1.4-2.3-1.7-13.5-.2-30.7,3.5-47.3,10.1-20.3,7.7-31.9,27.3-35.4,59.7-1.9,26.5.3,52.6,2.4,77.9,1.3,9.9,3.1,19.5,4.8,28.7,1.6,8.6,3.3,17.5,4.5,26.7l.8,5c4.5,29.2,9.6,62.3,22.8,90.7l-1.8.8c-13.3-28.6-18.5-61.9-23-91.2l-.8-5c-1.2-9.1-2.9-18-4.5-26.6-1.7-9.3-3.5-18.8-4.8-28.8-2.1-25.4-4.4-51.6-2.4-78.2,3.7-33.3,15.7-53.4,36.7-61.4,16.8-6.7,34.4-10.5,48.2-10.3h.2c1.9.5,3.1,1.5,3.7,2.9,1.3,3.1-.6,7.4-2.4,10.5-1.2,1.9-2.6,3.5-3.9,5.1-2.3,2.7-4.5,5.3-5.4,8.7-2,8.8-3.2,21.7-.9,31.6,1.4,4.4,5.1,8.2,8.3,11.6.5.5.9.9,1.3,1.4,1.9,2.2,2.2,4.4,2.3,8.1,0,5.2,0,13.6,0,22.3,0,9.3,0,18.9.1,25,0,.4,0,1,.1,1.6,0,1.3.2,3.1.6,4.1.3-.9.6-2.7.6-5.7,0-6.2-.1-16.1-.2-25.7,0-7.8-.1-15.3-.2-20.4-.9-6.8,4.1-10.9,7.7-13.9,5.8-5.1,6.2-13.3,6.2-21.9,0-1.3,0-2.7,0-4.2,0-5.7,0-11.5-1.8-15.4-1.1-2.3-2.9-4.4-4.8-6.5-2.4-2.7-4.8-5.4-5.9-8.9-1.1-3.4-.8-6.1.9-8,3.1-3.6,9.8-3,13.5-2.4,24.8,2.7,41.7,8.7,53.3,19,12.9,11.4,19.3,28.5,19.5,52.3,1.6,47.4-3.9,93.4-10,136.1-.8,5.2-1.6,10.6-2.4,15.8-3.9,26.5-7.9,53.9-17.8,79.2Z"/>
  <path class="st0" d="M284.5,86.5c-3.2,0-6.4-1.8-8.4-4.7-3.6-5.7-3.3-10.7-3.1-17,0-1.6.1-3.2.2-5,0-.7,0-1.5,0-2.3.2-8.2.6-20.6,11.1-21.6h.2c4.4-.2,9.8,1.9,11.7,6.5h0c1.2,4.1,1.1,7.9,1.1,11.9,0,1.9,0,3.8,0,5.8,0,1.2,0,2.3,0,3.5,0,9.3-.2,21-11.6,22.9-.5,0-.9.1-1.4.1ZM284.7,37.9c-8.8.8-9.1,11.7-9.3,19.7,0,.8,0,1.6,0,2.3,0,1.8,0,3.4-.2,5-.3,6-.5,10.7,2.7,15.8,1.8,2.7,4.8,4.2,7.7,3.7,9.7-1.6,9.8-11.9,9.9-20.9,0-1.2,0-2.3,0-3.5,0-2,0-4,0-5.8,0-4,.1-7.4-1-11.1-1.5-3.7-6-5.4-9.7-5.2h-.1Z"/>
  <path class="st0" d="M365.1,203.6c-44.9-34.5-85.9-33.5-112.4-26.5-28.7,7.5-47.1,23.5-47.3,23.6l-1.3-1.5c.2-.2,18.8-16.4,48-24,26.9-7.1,68.6-8.2,114.2,26.8l-1.2,1.6Z"/>
</svg>