<?xml version="1.0" encoding="UTF-8"?>
<svg id="Layer_2" xmlns="http://www.w3.org/2000/svg" version="1.1" viewBox="0 0 598.2 350.3">
  <!-- Generator: Adobe Illustrator 29.0.1, SVG Export Plug-In . SVG Version: 2.1.0 Build 192)  -->
  <defs>
    <style>
      .st0 {
        fill: #f4f4f4;
      }
    </style>
  </defs>
  <path class="st0" d="M288.5,336.8c-11.3,0-16.3-2-27.3-6.5l-2.1-.9c-11.6-4.7-17.1-10.9-22-16.3-1.2-1.3-2.2-2.5-3.4-3.7-5.4-5.5-8.6-13.1-11.1-19.2-.4-.9-.7-1.7-1-2.5-2.8-6.5-4.6-13.9-4.8-29.2-.1-15.3-1.8-110.2-1.8-111.2h0c0-3.6-.3-88.4,0-91.5,0-.5,0-.9,0-1.3.1-2.2.3-3.3,3-8.3,3.5-6.5,12.4-7.1,12.7-7.2l72.9-2.2c4.9-.1,47.6-1.3,51.3,0,3.2,1.2,6.2,3.5,9,7.1,2.3,2.9,3.2,5.4,4,11.2.9,5.8,5.7,40.2,5.7,40.5l1.6,16.1,2.1,23.7c2.1,24.2,4.7,99,4.6,112.6-.1,13.4-1.2,29.2-12.4,47-10.7,17.2-31.2,29.8-37.5,32.9-5.7,2.8-23.7,8.1-39,8.6-1.7,0-3.2,0-4.7,0ZM217,147.4c0,1.3,1.6,95.9,1.8,111.2.1,15,2,22.2,4.6,28.5.3.8.7,1.6,1,2.5,2.5,5.9,5.5,13.3,10.7,18.6,1.2,1.2,2.3,2.4,3.4,3.7,4.7,5.3,10,11.2,21.3,15.8l2.1.9c12.5,5.1,16.7,6.8,31.2,6.3,15-.6,32.6-5.7,38.2-8.4,5-2.5,26-15.1,36.7-32.2,10.9-17.4,11.9-32.9,12.1-46,.1-13.6-2.5-88.3-4.6-112.4l-2.1-23.7-1.6-16c0-.3-4.9-34.6-5.7-40.4-.9-6-1.8-7.9-3.6-10.3-2.6-3.3-5.2-5.4-8.1-6.4-2.6-.9-31.7-.5-50.6,0l-72.9,2.2s-8.1.6-11.1,6.1c-2.6,4.8-2.6,5.7-2.7,7.5,0,.4,0,.9,0,1.4-.2,2.4,0,60.8,0,91.3Z"/>
  <rect class="st0" x="217" y="113.1" width="156.5" height="2" transform="translate(-3.7 10) rotate(-1.9)"/>
  <rect class="st0" x="305.5" y="37.8" width="2" height="76" transform="translate(-4.7 22.8) rotate(-4.2)"/>
  <path class="st0" d="M301.8,110c-.8,0-1.5-.3-2.1-.8-.6-.6-1-1.3-1.1-2.2l-4-61.8c-.1-1.7,1.2-3.2,2.9-3.3,1.7-.1,3.2,1.2,3.3,2.9l4,61.8c0,.8-.2,1.6-.8,2.3s-1.3,1-2.2,1.1c0,0-.1,0-.2,0ZM297.8,43.9s0,0,0,0c-.6,0-1.1.6-1.1,1.2l4,61.8c0,.3.2.6.4.8.2.2.5.3.8.3h0c.3,0,.6-.2.8-.4.2-.2.3-.5.3-.8l-4-61.8c0-.6-.5-1.1-1.1-1.1Z"/>
</svg>