<?xml version="1.0" encoding="UTF-8"?>
<svg xmlns="http://www.w3.org/2000/svg" version="1.1" xmlns:cc="http://creativecommons.org/ns#" xmlns:dc="http://purl.org/dc/elements/1.1/" xmlns:inkscape="http://www.inkscape.org/namespaces/inkscape" xmlns:ns="&amp;#38;#38;#38;#38;#38;ns_sfw;" xmlns:rdf="http://www.w3.org/1999/02/22-rdf-syntax-ns#" xmlns:sodipodi="http://sodipodi.sourceforge.net/DTD/sodipodi-0.dtd" xmlns:svg="http://www.w3.org/2000/svg" viewBox="0 0 598.2 350.1">
  <!-- Generator: Adobe Illustrator 29.1.0, SVG Export Plug-In . SVG Version: 2.1.0 Build 142)  -->
  <defs>
    <style>
      .st0 {
        fill: #f4f4f4;
      }
    </style>
  </defs>
  <g id="Layer_3" inkscape:version="0.91 r13725">
    <g>
      <path class="st0" d="M172.6,350.1h45.2c5.8,0,10.5-4.7,10.5-10.5v-45.2c0-5.8-4.7-10.5-10.5-10.5h-45.2c-5.8,0-10.5,4.7-10.5,10.5v45.2c0,5.8,4.7,10.5,10.5,10.5ZM163,294.5c0-5.3,4.3-9.6,9.6-9.6h45.2c5.3,0,9.6,4.3,9.6,9.6v45.2c0,5.3-4.3,9.6-9.6,9.6h-45.2c-5.3,0-9.6-4.3-9.6-9.6v-45.2Z"/>
      <path class="st0" d="M178.9,337.3h32.5c3.9,0,7.1-3.2,7.1-7.1v-32.5c0-3.9-3.2-7.1-7.1-7.1h-32.5c-3.9,0-7.1,3.2-7.1,7.1v32.5c0,3.9,3.2,7.1,7.1,7.1ZM172.7,297.6c0-3.4,2.8-6.2,6.2-6.2h32.5c3.4,0,6.2,2.8,6.2,6.2v32.5c0,3.4-2.8,6.2-6.2,6.2h-32.5c-3.4,0-6.2-2.8-6.2-6.2v-32.5Z"/>
      <path class="st0" d="M242.8,350.1h45.2c5.8,0,10.5-4.7,10.5-10.5v-45.2c0-5.8-4.7-10.5-10.5-10.5h-45.2c-5.8,0-10.5,4.7-10.5,10.5v45.2c0,5.8,4.7,10.5,10.5,10.5ZM233.2,294.5c0-5.3,4.3-9.6,9.6-9.6h45.2c5.3,0,9.6,4.3,9.6,9.6v45.2c0,5.3-4.3,9.6-9.6,9.6h-45.2c-5.3,0-9.6-4.3-9.6-9.6v-45.2Z"/>
      <path class="st0" d="M249.1,337.3h32.5c3.9,0,7.1-3.2,7.1-7.1v-32.5c0-3.9-3.2-7.1-7.1-7.1h-32.5c-3.9,0-7.1,3.2-7.1,7.1v32.5c0,3.9,3.2,7.1,7.1,7.1ZM242.9,297.6c0-3.4,2.8-6.2,6.2-6.2h32.5c3.4,0,6.2,2.8,6.2,6.2v32.5c0,3.4-2.8,6.2-6.2,6.2h-32.5c-3.4,0-6.2-2.8-6.2-6.2v-32.5Z"/>
      <path class="st0" d="M217.9,212.9h-45.2c-5.8,0-10.5,4.7-10.5,10.5v45.2c0,5.8,4.7,10.5,10.5,10.5h45.2c5.8,0,10.5-4.7,10.5-10.5v-45.2c0-5.8-4.7-10.5-10.5-10.5ZM227.5,268.6c0,5.3-4.3,9.6-9.6,9.6h-45.2c-5.3,0-9.6-4.3-9.6-9.6v-45.2c0-5.3,4.3-9.6,9.6-9.6h45.2c5.3,0,9.6,4.3,9.6,9.6v45.2Z"/>
      <path class="st0" d="M211.6,219.5h-32.5c-3.9,0-7.1,3.2-7.1,7.1v32.5c0,3.9,3.2,7.1,7.1,7.1h32.5c3.9,0,7.1-3.2,7.1-7.1v-32.5c0-3.9-3.2-7.1-7.1-7.1ZM217.8,259.1c0,3.4-2.8,6.2-6.2,6.2h-32.5c-3.4,0-6.2-2.8-6.2-6.2v-32.5c0-3.4,2.8-6.2,6.2-6.2h32.5c3.4,0,6.2,2.8,6.2,6.2v32.5Z"/>
      <path class="st0" d="M288.1,212.9h-45.2c-5.8,0-10.5,4.7-10.5,10.5v45.2c0,5.8,4.7,10.5,10.5,10.5h45.2c5.8,0,10.5-4.7,10.5-10.5v-45.2c0-5.8-4.7-10.5-10.5-10.5ZM297.7,268.6c0,5.3-4.3,9.6-9.6,9.6h-45.2c-5.3,0-9.6-4.3-9.6-9.6v-45.2c0-5.3,4.3-9.6,9.6-9.6h45.2c5.3,0,9.6,4.3,9.6,9.6v45.2Z"/>
      <path class="st0" d="M281.8,219.5h-32.5c-3.9,0-7.1,3.2-7.1,7.1v32.5c0,3.9,3.2,7.1,7.1,7.1h32.5c3.9,0,7.1-3.2,7.1-7.1v-32.5c0-3.9-3.2-7.1-7.1-7.1ZM288,259.1c0,3.4-2.8,6.2-6.2,6.2h-32.5c-3.4,0-6.2-2.8-6.2-6.2v-32.5c0-3.4,2.8-6.2,6.2-6.2h32.5c3.4,0,6.2,2.8,6.2,6.2v32.5Z"/>
      <path class="st0" d="M368.8,268.6v-45.2c0-5.8-4.7-10.5-10.5-10.5h-45.2c-5.8,0-10.5,4.7-10.5,10.5v45.2c0,5.8,4.7,10.5,10.5,10.5h45.2c5.8,0,10.5-4.7,10.5-10.5ZM303.6,268.6v-45.2c0-5.3,4.3-9.6,9.6-9.6h45.2c5.3,0,9.6,4.3,9.6,9.6v45.2c0,5.3-4.3,9.6-9.6,9.6h-45.2c-5.3,0-9.6-4.3-9.6-9.6Z"/>
      <path class="st0" d="M359.1,226.6c0-3.9-3.2-7.1-7.1-7.1h-32.5c-3.9,0-7.1,3.2-7.1,7.1v32.5c0,3.9,3.2,7.1,7.1,7.1h32.5c3.9,0,7.1-3.2,7.1-7.1v-32.5ZM352,265.3h-32.5c-3.4,0-6.2-2.8-6.2-6.2v-32.5c0-3.4,2.8-6.2,6.2-6.2h32.5c3.4,0,6.2,2.8,6.2,6.2v32.5c0,3.4-2.8,6.2-6.2,6.2Z"/>
      <path class="st0" d="M172.6,208.6h45.2c5.8,0,10.5-4.7,10.5-10.5v-45.2c0-5.8-4.7-10.5-10.5-10.5h-45.2c-5.8,0-10.5,4.7-10.5,10.5v45.2c0,5.8,4.7,10.5,10.5,10.5ZM163.1,153c0-5.3,4.3-9.6,9.6-9.6h45.2c5.3,0,9.6,4.3,9.6,9.6v45.2c0,5.3-4.3,9.6-9.6,9.6h-45.2c-5.3,0-9.6-4.3-9.6-9.6v-45.2Z"/>
      <path class="st0" d="M179,195.7h32.5c3.9,0,7.1-3.2,7.1-7.1v-32.5c0-3.9-3.2-7.1-7.1-7.1h-32.5c-3.9,0-7.1,3.2-7.1,7.1v32.5c0,3.9,3.2,7.1,7.1,7.1ZM172.7,156.1c0-3.4,2.8-6.2,6.2-6.2h32.5c3.4,0,6.2,2.8,6.2,6.2v32.5c0,3.4-2.8,6.2-6.2,6.2h-32.5c-3.4,0-6.2-2.8-6.2-6.2v-32.5Z"/>
      <path class="st0" d="M242.9,208.6h45.2c5.8,0,10.5-4.7,10.5-10.5v-45.2c0-5.8-4.7-10.5-10.5-10.5h-45.2c-5.8,0-10.5,4.7-10.5,10.5v45.2c0,5.8,4.7,10.5,10.5,10.5ZM233.3,153c0-5.3,4.3-9.6,9.6-9.6h45.2c5.3,0,9.6,4.3,9.6,9.6v45.2c0,5.3-4.3,9.6-9.6,9.6h-45.2c-5.3,0-9.6-4.3-9.6-9.6v-45.2Z"/>
      <path class="st0" d="M249.2,195.7h32.5c3.9,0,7.1-3.2,7.1-7.1v-32.5c0-3.9-3.2-7.1-7.1-7.1h-32.5c-3.9,0-7.1,3.2-7.1,7.1v32.5c0,3.9,3.2,7.1,7.1,7.1ZM243,156.1c0-3.4,2.8-6.2,6.2-6.2h32.5c3.4,0,6.2,2.8,6.2,6.2v32.5c0,3.4-2.8,6.2-6.2,6.2h-32.5c-3.4,0-6.2-2.8-6.2-6.2v-32.5Z"/>
      <path class="st0" d="M218,71.4h-45.2c-5.8,0-10.5,4.7-10.5,10.5v45.2c0,5.8,4.7,10.5,10.5,10.5h45.2c5.8,0,10.5-4.7,10.5-10.5v-45.2c0-5.8-4.7-10.5-10.5-10.5ZM227.6,127.1c0,5.3-4.3,9.6-9.6,9.6h-45.2c-5.3,0-9.6-4.3-9.6-9.6v-45.2c0-5.3,4.3-9.6,9.6-9.6h45.2c5.3,0,9.6,4.3,9.6,9.6v45.2Z"/>
      <path class="st0" d="M211.7,77.9h-32.5c-3.9,0-7.1,3.2-7.1,7.1v32.5c0,3.9,3.2,7.1,7.1,7.1h32.5c3.9,0,7.1-3.2,7.1-7.1v-32.5c0-3.9-3.2-7.1-7.1-7.1ZM217.9,117.6c0,3.4-2.8,6.2-6.2,6.2h-32.5c-3.4,0-6.2-2.8-6.2-6.2v-32.5c0-3.4,2.8-6.2,6.2-6.2h32.5c3.4,0,6.2,2.8,6.2,6.2v32.5Z"/>
      <path class="st0" d="M243,137.6h45.2c5.8,0,10.5-4.7,10.5-10.5v-45.2c0-5.8-4.7-10.5-10.5-10.5h-45.2c-5.8,0-10.5,4.7-10.5,10.5v45.2c0,5.8,4.7,10.5,10.5,10.5ZM233.5,81.9c0-5.3,4.3-9.6,9.6-9.6h45.2c5.3,0,9.6,4.3,9.6,9.6v45.2c0,5.3-4.3,9.6-9.6,9.6h-45.2c-5.3,0-9.6-4.3-9.6-9.6v-45.2Z"/>
      <path class="st0" d="M249.4,124.7h32.5c3.9,0,7.1-3.2,7.1-7.1v-32.5c0-3.9-3.2-7.1-7.1-7.1h-32.5c-3.9,0-7.1,3.2-7.1,7.1v32.5c0,3.9,3.2,7.1,7.1,7.1ZM243.1,85.1c0-3.4,2.8-6.2,6.2-6.2h32.5c3.4,0,6.2,2.8,6.2,6.2v32.5c0,3.4-2.8,6.2-6.2,6.2h-32.5c-3.4,0-6.2-2.8-6.2-6.2v-32.5Z"/>
      <path class="st0" d="M313.3,137.6h45.2c5.8,0,10.5-4.7,10.5-10.5v-45.2c0-5.8-4.7-10.5-10.5-10.5h-45.2c-5.8,0-10.5,4.7-10.5,10.5v45.2c0,5.8,4.7,10.5,10.5,10.5ZM303.7,81.9c0-5.3,4.3-9.6,9.6-9.6h45.2c5.3,0,9.6,4.3,9.6,9.6v45.2c0,5.3-4.3,9.6-9.6,9.6h-45.2c-5.3,0-9.6-4.3-9.6-9.6v-45.2Z"/>
      <path class="st0" d="M319.6,124.7h32.5c3.9,0,7.1-3.2,7.1-7.1v-32.5c0-3.9-3.2-7.1-7.1-7.1h-32.5c-3.9,0-7.1,3.2-7.1,7.1v32.5c0,3.9,3.2,7.1,7.1,7.1ZM313.4,85.1c0-3.4,2.8-6.2,6.2-6.2h32.5c3.4,0,6.2,2.8,6.2,6.2v32.5c0,3.4-2.8,6.2-6.2,6.2h-32.5c-3.4,0-6.2-2.8-6.2-6.2v-32.5Z"/>
      <path class="st0" d="M313.1,208.6h45.2c5.8,0,10.5-4.7,10.5-10.5v-45.2c0-5.8-4.7-10.5-10.5-10.5h-45.2c-5.8,0-10.5,4.7-10.5,10.5v45.2c0,5.8,4.7,10.5,10.5,10.5ZM303.5,153c0-5.3,4.3-9.6,9.6-9.6h45.2c5.3,0,9.6,4.3,9.6,9.6v45.2c0,5.3-4.3,9.6-9.6,9.6h-45.2c-5.3,0-9.6-4.3-9.6-9.6v-45.2Z"/>
      <path class="st0" d="M319.4,195.7h32.5c3.9,0,7.1-3.2,7.1-7.1v-32.5c0-3.9-3.2-7.1-7.1-7.1h-32.5c-3.9,0-7.1,3.2-7.1,7.1v32.5c0,3.9,3.2,7.1,7.1,7.1ZM313.2,156.1c0-3.4,2.8-6.2,6.2-6.2h32.5c3.4,0,6.2,2.8,6.2,6.2v32.5c0,3.4-2.8,6.2-6.2,6.2h-32.5c-3.4,0-6.2-2.8-6.2-6.2v-32.5Z"/>
      <path class="st0" d="M439.1,339.8v-116.4c0-5.8-4.7-10.5-10.5-10.5h-45.2c-5.8,0-10.5,4.7-10.5,10.5v116.4c0,5.8,4.7,10.5,10.5,10.5h45.2c5.8,0,10.5-4.7,10.5-10.5ZM373.8,339.8v-116.4c0-5.3,4.3-9.6,9.6-9.6h45.2c5.3,0,9.6,4.3,9.6,9.6v116.4c0,5.3-4.3,9.6-9.6,9.6h-45.2c-5.3,0-9.6-4.3-9.6-9.6Z"/>
      <path class="st0" d="M429.4,248.6c0-3.9-3.2-7.1-7.1-7.1h-32.5c-3.9,0-7.1,3.2-7.1,7.1v64.1c0,3.9,3.2,7.1,7.1,7.1h32.5c3.9,0,7.1-3.2,7.1-7.1v-64.1ZM422.3,318.9h-32.5c-3.4,0-6.2-2.8-6.2-6.2v-64.1c0-3.4,2.8-6.2,6.2-6.2h32.5c3.4,0,6.2,2.8,6.2,6.2v64.1c0,3.4-2.8,6.2-6.2,6.2Z"/>
      <path class="st0" d="M383.5,137.5h45.2c5.8,0,10.5-4.7,10.5-10.5v-45.2c0-5.8-4.7-10.5-10.5-10.5h-45.2c-5.8,0-10.5,4.7-10.5,10.5v45.2c0,5.8,4.7,10.5,10.5,10.5ZM373.9,81.8c0-5.3,4.3-9.6,9.6-9.6h45.2c5.3,0,9.6,4.3,9.6,9.6v45.2c0,5.3-4.3,9.6-9.6,9.6h-45.2c-5.3,0-9.6-4.3-9.6-9.6v-45.2Z"/>
      <path class="st0" d="M389.8,124.6h32.5c3.9,0,7.1-3.2,7.1-7.1v-32.5c0-3.9-3.2-7.1-7.1-7.1h-32.5c-3.9,0-7.1,3.2-7.1,7.1v32.5c0,3.9,3.2,7.1,7.1,7.1ZM383.6,85c0-3.4,2.8-6.2,6.2-6.2h32.5c3.4,0,6.2,2.8,6.2,6.2v32.5c0,3.4-2.8,6.2-6.2,6.2h-32.5c-3.4,0-6.2-2.8-6.2-6.2v-32.5Z"/>
      <path class="st0" d="M383.3,208.5h45.2c5.8,0,10.5-4.7,10.5-10.5v-45.2c0-5.8-4.7-10.5-10.5-10.5h-45.2c-5.8,0-10.5,4.7-10.5,10.5v45.2c0,5.8,4.7,10.5,10.5,10.5ZM373.7,152.9c0-5.3,4.3-9.6,9.6-9.6h45.2c5.3,0,9.6,4.3,9.6,9.6v45.2c0,5.3-4.3,9.6-9.6,9.6h-45.2c-5.3,0-9.6-4.3-9.6-9.6v-45.2Z"/>
      <path class="st0" d="M389.6,195.7h32.5c3.9,0,7.1-3.2,7.1-7.1v-32.5c0-3.9-3.2-7.1-7.1-7.1h-32.5c-3.9,0-7.1,3.2-7.1,7.1v32.5c0,3.9,3.2,7.1,7.1,7.1ZM383.4,156c0-3.4,2.8-6.2,6.2-6.2h32.5c3.4,0,6.2,2.8,6.2,6.2v32.5c0,3.4-2.8,6.2-6.2,6.2h-32.5c-3.4,0-6.2-2.8-6.2-6.2v-32.5Z"/>
      <path class="st0" d="M243.2,66.2h45.2c5.8,0,10.5-4.7,10.5-10.5V10.6c0-5.8-4.7-10.5-10.5-10.5h-45.2c-5.8,0-10.5,4.7-10.5,10.5v45.2c0,5.8,4.7,10.5,10.5,10.5ZM233.6,10.6c0-5.3,4.3-9.6,9.6-9.6h45.2c5.3,0,9.6,4.3,9.6,9.6v45.2c0,5.3-4.3,9.6-9.6,9.6h-45.2c-5.3,0-9.6-4.3-9.6-9.6V10.6Z"/>
      <path class="st0" d="M249.5,53.4h32.5c3.9,0,7.1-3.2,7.1-7.1V13.7c0-3.9-3.2-7.1-7.1-7.1h-32.5c-3.9,0-7.1,3.2-7.1,7.1v32.5c0,3.9,3.2,7.1,7.1,7.1ZM243.3,13.7h0c0-3.4,2.8-6.2,6.2-6.2h32.5c3.4,0,6.2,2.8,6.2,6.2v32.5c0,3.4-2.8,6.2-6.2,6.2h-32.5c-3.4,0-6.2-2.8-6.2-6.2V13.7Z"/>
      <path class="st0" d="M313.4,66.2h45.2c5.8,0,10.5-4.7,10.5-10.5V10.6c0-5.8-4.7-10.5-10.5-10.5h-45.2c-5.8,0-10.5,4.7-10.5,10.5v45.2c0,5.8,4.7,10.5,10.5,10.5ZM303.8,10.6c0-5.3,4.3-9.6,9.6-9.6h45.2c5.3,0,9.6,4.3,9.6,9.6v45.2c0,5.3-4.3,9.6-9.6,9.6h-45.2c-5.3,0-9.6-4.3-9.6-9.6V10.6Z"/>
      <path class="st0" d="M319.7,53.4h32.5c3.9,0,7.1-3.2,7.1-7.1V13.7c0-3.9-3.2-7.1-7.1-7.1h-32.5c-3.9,0-7.1,3.2-7.1,7.1v32.5c0,3.9,3.2,7.1,7.1,7.1ZM313.5,13.7c0-3.4,2.8-6.2,6.2-6.2h32.5c3.4,0,6.2,2.8,6.2,6.2v32.5c0,3.4-2.8,6.2-6.2,6.2h-32.5c-3.4,0-6.2-2.8-6.2-6.2V13.7Z"/>
      <path class="st0" d="M383.6,66.1h45.2c5.8,0,10.5-4.7,10.5-10.5V10.5c0-5.8-4.7-10.5-10.5-10.5h-45.2c-5.8,0-10.5,4.7-10.5,10.5v45.2c0,5.8,4.7,10.5,10.5,10.5ZM374,10.5c0-5.3,4.3-9.6,9.6-9.6h45.2c5.3,0,9.6,4.3,9.6,9.6v45.2c0,5.3-4.3,9.6-9.6,9.6h-45.2c-5.3,0-9.6-4.3-9.6-9.6V10.5Z"/>
      <path class="st0" d="M389.9,53.3h32.5c3.9,0,7.1-3.2,7.1-7.1V13.6c0-3.9-3.2-7.1-7.1-7.1h-32.5c-3.9,0-7.1,3.2-7.1,7.1v32.5c0,3.9,3.2,7.1,7.1,7.1ZM383.7,13.6c0-3.4,2.8-6.2,6.2-6.2h32.5c3.4,0,6.2,2.8,6.2,6.2v32.5c0,3.4-2.8,6.2-6.2,6.2h-32.5c-3.4,0-6.2-2.8-6.2-6.2V13.6Z"/>
      <path class="st0" d="M194.6,321c1.6,0,2.7-.6,3.5-1.7.7-1.1,1.1-2.9,1.1-5.3s-.4-4.1-1.1-5.2c-.7-1.1-1.9-1.7-3.4-1.7s-2.7.6-3.5,1.7c-.7,1.1-1.1,2.9-1.1,5.3s.4,4.1,1.1,5.2c.7,1.1,1.9,1.7,3.5,1.7ZM192.4,309.7c.5-.8,1.2-1.2,2.2-1.2s1.7.4,2.2,1.2c.4.8.7,2.3.7,4.3s-.2,3.6-.7,4.4c-.4.8-1.2,1.2-2.2,1.2s-1.7-.4-2.2-1.2c-.5-.8-.7-2.3-.7-4.4s.2-3.6.7-4.4Z"/>
      <path class="st0" d="M195.5,236.1h-1.3c0,.7-.3,1.1-.8,1.5-.5.3-1.2.5-2.3.5v1.1h2.8v9.2h-2.8v1.2h7.1v-1.2h-2.7v-12.2Z"/>
      <path class="st0" d="M266.3,244.5c.6-.6,1.1-1.1,1.5-1.7.4-.5.7-1.1.9-1.6.2-.5.3-1.1.3-1.7,0-1.1-.4-2-1.2-2.7-.8-.7-1.8-1-3.2-1s-2.5.3-3.7.8v1.7h0c1.2-.8,2.4-1.2,3.6-1.2s1.5.2,2,.6c.5.4.7,1,.7,1.7s-.3,1.6-.9,2.5c-.6.8-1.4,1.8-2.6,2.8-1.2,1.1-2.2,2-3.2,2.8v1.7h8.9v-1.4h-7.3c2.1-1.8,3.4-3,4-3.6Z"/>
      <path class="st0" d="M336.8,241.8h0c.8-.3,1.4-.7,1.9-1.2s.8-1.2.8-1.9-.4-1.8-1.1-2.3c-.7-.6-1.8-.9-3.2-.9s-2.5.3-3.7.8v1.7h0c1.2-.8,2.4-1.2,3.6-1.2s1.5.2,2,.5c.5.3.7.8.7,1.4s-.3,1.3-.8,1.7c-.5.4-1.3.6-2.2.6h-.6v1.4h.8c1.1,0,1.9.2,2.4.6.5.4.7,1,.7,1.9s-.3,1.6-.9,2.1c-.6.5-1.3.8-2.3.8s-2.5-.4-3.7-1.2h-.1v1.8c1.3.6,2.6.8,3.9.8s2.6-.4,3.4-1.2c.9-.8,1.3-1.8,1.3-3,0-1.9-1-3-2.9-3.4Z"/>
      <path class="st0" d="M194.9,179.2h1.6v-3.8h2v-1.3h-2v-8.2h-1.5l-6.5,7.6v1.9h6.4v3.8ZM189.6,174.1l5.3-6.2v6.2h-5.3Z"/>
      <path class="st0" d="M267.7,178c.9-.8,1.3-1.9,1.3-3.2s-.4-2.3-1.2-3c-.8-.7-2-1-3.6-1s-.8,0-1.6.1v-3.8h6.3v-1.4h-7.9v6.8c1.1-.2,2-.4,2.7-.4,2.4,0,3.6.9,3.6,2.6s-.3,1.7-.9,2.3c-.6.5-1.3.8-2.3.8s-2.4-.4-3.6-1.1h-.1v1.8c1.1.5,2.4.8,3.8.8s2.6-.4,3.5-1.3Z"/>
      <path class="st0" d="M334.9,179.5c1.3,0,2.4-.4,3.3-1.3.9-.9,1.3-2,1.3-3.3s-.4-2.4-1.2-3.1c-.8-.7-1.8-1.1-3.1-1.1s-2.1.3-3.3,1c.1-1.5.6-2.6,1.4-3.5.8-.8,1.8-1.2,3.1-1.2s1.2.1,1.7.4h.1v-1.6c-.4-.1-.9-.2-1.6-.2-2.1,0-3.7.7-4.8,2-1.1,1.4-1.7,3.2-1.7,5.7s.4,3.5,1.2,4.6c.8,1,2,1.6,3.5,1.6ZM331.8,172.9c.9-.5,1.9-.8,2.8-.8s1.9.3,2.4.8c.5.5.7,1.2.7,2.1s-.3,1.8-.8,2.3c-.5.6-1.2.8-2.1.8s-1.7-.4-2.3-1.1c-.5-.8-.8-1.9-.8-3.3s0-.4,0-.9Z"/>
      <polygon class="st0" points="190.3 96.5 197.9 96.5 191.5 108.4 193.3 108.4 199.3 96.9 199.3 95 190.3 95 190.3 96.5"/>
      <path class="st0" d="M260.1,104.6c0,1.2.4,2.1,1.3,2.9.8.7,2,1.1,3.4,1.1s2.5-.4,3.3-1.1c.9-.8,1.3-1.7,1.3-2.9s-.9-2.6-2.6-3.3h0c.7-.4,1.2-.9,1.6-1.4.4-.6.6-1.2.6-1.8,0-1-.4-1.8-1.2-2.4-.8-.6-1.8-.9-3.1-.9s-2.3.3-3.1,1c-.8.7-1.2,1.5-1.2,2.5s.7,2.2,2.1,3h0c-1.6.8-2.5,2-2.5,3.5ZM262.1,97.9c0-.6.2-1.1.7-1.5.5-.4,1.1-.6,1.9-.6s1.5.2,2,.6c.5.4.7.9.7,1.6,0,1.2-.5,2.1-1.6,2.8-1.3-.4-2.2-.8-2.8-1.2-.6-.4-.9-1-.9-1.7ZM263.7,101.5c1.3.5,2.2.8,2.7,1.1.5.2.8.5,1.1.8.2.3.4.8.4,1.3,0,.8-.3,1.4-.8,1.9-.5.5-1.2.7-2.1.7s-1.6-.3-2.2-.8c-.6-.5-.8-1.2-.8-2.1,0-1.3.6-2.3,1.9-3Z"/>
      <path class="st0" d="M334.9,102.7c1,0,2.1-.4,3.3-1.1-.3,3.2-1.8,4.7-4.5,4.7s-1.2-.1-1.7-.4h-.1v1.6c.4.1,1,.2,1.6.2,2.1,0,3.7-.7,4.8-2,1.1-1.4,1.7-3.3,1.7-5.7s-.4-3.6-1.3-4.6c-.8-1-2-1.5-3.5-1.5s-2.4.4-3.3,1.3c-.9.9-1.3,2-1.3,3.3s.4,2.3,1.2,3.1c.8.7,1.8,1.1,3.2,1.1ZM333,96.2c.5-.6,1.2-.8,2.1-.8s1.8.4,2.3,1.2c.5.8.8,1.9.8,3.3v.8c-1,.6-2,.8-2.9.8s-1.9-.3-2.4-.8c-.5-.5-.7-1.2-.7-2.1s.3-1.8.8-2.3Z"/>
      <polygon class="st0" points="266.4 311.1 264.3 311.1 262.8 316.8 263.9 316.8 266.4 311.1"/>
      <rect class="st0" x="399.6" y="28.2" width="11.8" height="1.3"/>
      <polygon class="st0" points="404.3 106.2 405.7 106.2 405.7 101.3 410.5 101.3 410.5 100 405.7 100 405.7 95.2 404.3 95.2 404.3 100 399.4 100 399.4 101.3 404.3 101.3 404.3 106.2"/>
      <polygon class="st0" points="330.3 31.3 330.9 32.4 334.3 30.3 334.3 34.3 335.5 34.3 335.4 30.3 338.9 32.4 339.5 31.3 336 29.3 339.5 27.4 338.9 26.3 335.4 28.3 335.5 24.3 334.3 24.3 334.3 28.3 330.9 26.3 330.3 27.4 333.8 29.3 330.3 31.3"/>
      <polygon class="st0" points="273.7 22.6 272.9 21.6 257.5 34.5 258.2 35.4 273.7 22.6"/>
      <rect class="st0" x="400.1" y="173.3" width="10.5" height="1.7"/>
      <rect class="st0" x="400.1" y="168.4" width="10.5" height="1.7"/>
      <path class="st0" d="M172.8,66.1h45.2c5.8,0,10.5-4.7,10.5-10.5V10.5C228.5,4.7,223.8,0,218,0h-45.2c-5.8,0-10.5,4.7-10.5,10.5v45.2c0,5.8,4.7,10.5,10.5,10.5ZM163.2,10.5c0-5.3,4.3-9.6,9.6-9.6h45.2c5.3,0,9.6,4.3,9.6,9.6v45.2c0,5.3-4.3,9.6-9.6,9.6h-45.2c-5.3,0-9.6-4.3-9.6-9.6V10.5Z"/>
      <path class="st0" d="M179.1,53.3h32.5c3.9,0,7.1-3.2,7.1-7.1V13.7c0-3.9-3.2-7.1-7.1-7.1h-32.5c-3.9,0-7.1,3.2-7.1,7.1v32.5c0,3.9,3.2,7.1,7.1,7.1ZM172.9,13.7c0-3.4,2.8-6.2,6.2-6.2h32.5c3.4,0,6.2,2.8,6.2,6.2v32.5c0,3.4-2.8,6.2-6.2,6.2h-32.5c-3.4,0-6.2-2.8-6.2-6.2V13.7Z"/>
      <rect class="st0" x="333.9" y="312.4" width="2" height="2.4"/>
      <polygon class="st0" points="388.8 282.6 392.9 282.6 392.9 281.2 388.8 281.2 388.8 277.4 393.1 277.4 393.1 275.9 387.7 275.9 387.7 288.7 393.2 288.7 393.2 287.3 388.8 287.3 388.8 282.6"/>
      <polygon class="st0" points="400.6 286.6 396.7 275.9 395.2 275.9 395.2 288.7 396.3 288.7 396.3 278 400.1 288.7 401.7 288.7 401.7 275.9 400.6 275.9 400.6 286.6"/>
      <polygon class="st0" points="402.8 277.4 405.9 277.4 405.9 288.7 407.1 288.7 407.1 277.4 410.2 277.4 410.2 275.9 402.8 275.9 402.8 277.4"/>
      <polygon class="st0" points="412.5 282.6 416.6 282.6 416.6 281.2 412.5 281.2 412.5 277.4 416.8 277.4 416.8 275.9 411.3 275.9 411.3 288.7 416.9 288.7 416.9 287.3 412.5 287.3 412.5 282.6"/>
      <path class="st0" d="M423.7,283.5c-.2-.4-.5-.7-.7-.8.5-.2.9-.6,1.1-1.1.3-.5.4-1.2.4-2,0-1.2-.2-2.2-.7-2.8-.5-.6-1.2-.9-2.2-.9h-2.6v12.8h1.2v-5.4h1.3c.5,0,.8.1,1.1.4.3.3.5.8.8,1.7l1.1,3.3h1.3l-1.2-3.5c-.2-.7-.5-1.3-.7-1.7ZM421.5,281.9h-1.5v-4.5h1.5c.6,0,1,.2,1.3.6.3.4.4.9.4,1.7s-.1,1.3-.4,1.7c-.3.4-.7.6-1.3.6Z"/>
      <path class="st0" d="M184.6,35.9c.8,0,1.5-.1,2.1-.3.7-.2,1.3-.5,1.9-.9v-1.8c-.6.5-1.2.9-1.9,1.2-.7.3-1.4.4-2.1.4-1.5,0-2.6-.4-3.3-1.3-.8-.9-1.2-2.2-1.2-3.9s.4-3,1.2-3.9c.8-.9,1.9-1.3,3.3-1.3s1.4.1,2.1.4c.7.3,1.3.7,1.9,1.2v-1.8c-.6-.4-1.2-.7-1.9-.9-.7-.2-1.4-.3-2.2-.3-1.9,0-3.5.6-4.6,1.8-1.1,1.2-1.7,2.8-1.7,4.8s.6,3.7,1.7,4.8c1.1,1.2,2.6,1.8,4.6,1.8Z"/>
      <polygon class="st0" points="199.2 34.2 193 34.2 193 22.9 191.3 22.9 191.3 35.7 199.2 35.7 199.2 34.2"/>
      <path class="st0" d="M202.8,30.3h1.9c.7,0,1.2.1,1.6.4.4.3.8.8,1.2,1.7l1.6,3.3h1.9l-1.8-3.5c-.4-.7-.7-1.3-1.1-1.7-.3-.4-.7-.7-1.1-.8.7-.2,1.3-.6,1.6-1.1.4-.5.6-1.2.6-2,0-1.2-.4-2.2-1.1-2.8s-1.8-.9-3.3-.9h-3.9v12.8h1.7v-5.4ZM202.8,24.3h2.2c.8,0,1.5.2,1.9.6.4.4.6.9.6,1.7s-.2,1.3-.6,1.7c-.4.4-1,.6-1.9.6h-2.2v-4.5Z"/>
      <path class="st0" d="M313,350.1h45.2c5.8,0,10.5-4.7,10.5-10.5v-45.2c0-5.8-4.7-10.5-10.5-10.5h-45.2c-5.8,0-10.5,4.7-10.5,10.5v45.2c0,5.8,4.7,10.5,10.5,10.5ZM303.4,294.5c0-5.3,4.3-9.6,9.6-9.6h45.2c5.3,0,9.6,4.3,9.6,9.6v45.2c0,5.3-4.3,9.6-9.6,9.6h-45.2c-5.3,0-9.6-4.3-9.6-9.6v-45.2Z"/>
      <path class="st0" d="M319.3,337.3h32.5c3.9,0,7.1-3.2,7.1-7.1v-32.5c0-3.9-3.2-7.1-7.1-7.1h-32.5c-3.9,0-7.1,3.2-7.1,7.1v32.5c0,3.9,3.2,7.1,7.1,7.1ZM313.1,297.6c0-3.4,2.8-6.2,6.2-6.2h32.5c3.4,0,6.2,2.8,6.2,6.2v32.5c0,3.4-2.8,6.2-6.2,6.2h-32.5c-3.4,0-6.2-2.8-6.2-6.2v-32.5Z"/>
    </g>
  </g>
</svg>