<?xml version="1.0" encoding="UTF-8"?>
<svg id="Layer_3" xmlns="http://www.w3.org/2000/svg" version="1.1" xmlns:cc="http://creativecommons.org/ns#" xmlns:dc="http://purl.org/dc/elements/1.1/" xmlns:rdf="http://www.w3.org/1999/02/22-rdf-syntax-ns#" xmlns:x="http://ns.adobe.com/Extensibility/1.0/" viewBox="0 0 598.2 350.3">
  <!-- Generator: Adobe Illustrator 29.4.0, SVG Export Plug-In . SVG Version: 2.1.0 Build 152)  -->
  <defs>
    <style>
      .st0, .st1 {
        fill: #fff;
      }

      .st1 {
        stroke: red;
        stroke-miterlimit: 10;
        stroke-width: 2px;
      }
    </style>
  </defs>
  <g id="path5">
    <path class="st0" d="M99.2,197.3,97.2,197.2"/>
  </g>
  <path class="st0" d="M460,321.8h-.2c0,0-2.2-.2-4-1.4l-.6-.4c-2.5-1.6-9.2-6-14.3-11.3-5.5-5.7-31.1-39.5-32.2-40.9,0,0-15.5-16.8-20-19.2-7.3-3.9-16.1-5.6-25.9-5.1-13.1.8-130.4.3-131.6.3,0,0-8.3.3-12,2.3-.6.3-1.2.6-1.7.9-3.1,1.6-5.8,3-9.6,6.4-4.5,4.1-18.7,20.8-18.8,20.9l-10.2,13.7-11.7,14.3c-.1.2-3.7,4.7-8.8,9.2-5,4.4-8.7,7.5-8.7,7.5h-.2c0,.2-2,1.2-3.5,1.9-1.7.8-2.9.9-4.8.4-1.7-.4-10.8-3.4-14.9-6-4-2.5-7.9-6.3-8.1-6.4-.4-.4-11.7-10.3-14.9-28.7-3.2-18.2-2.2-25.8-2.2-26.1,0-.1,1.5-16.5,2.1-21.6.6-5.1,7.7-36.6,8.1-38l19.6-62.3,12.6-32.6c0-.3,2.9-10.1,7.6-16,.8-.9,1.4-1.8,2-2.5,3-3.8,4.1-5.3,8.6-8,5.1-3.1,9.8-5.8,10-5.9.4-.3,8.7-5.2,15.4-7,2.4-.7,4.7-1.4,6.9-2.2,4-1.3,8-2.7,12.7-3.5,2.6-.4,4.6-.9,6.4-1.2,3-.6,5.1-1.1,7.9-1.1,4.3,0,7.3.3,11.1,1.2,1.3.3,2.6.7,3.9,1.2,2.7.9,5.5,1.8,8.3,1.8,4.3-.1,111.4-.2,118.2-.2,1.4-.5,10.4-3.9,16.6-3.9s23.7,3.3,24.4,3.4h.1c.9.3,22,7.2,31.5,12.9,9.5,5.7,12.9,9.9,13,10,.1.1,4.3,4.6,6.3,8.7,2.2,4.4,9.9,21.8,15.6,39.4,5.7,17.6,17.2,50.8,17.3,51.2,0,.2,3.8,14.1,7.6,30.2,3.8,16.1,6.5,37.3,6.5,37.5,0,1,1.3,23.1-.7,31.8-2,8.8-6.5,20.9-10.9,26-4.3,5-15.7,12.5-16.2,12.8h-.2c0,0-13.1,5.2-13.1,5.2ZM366.4,241.4c8.7,0,16.5,1.8,23.2,5.4,4.8,2.6,20,19,20.6,19.7.3.4,26.7,35.2,32.1,40.8,4.9,5.1,11.5,9.4,14,11l.6.4c1.1.7,2.4,1,2.8,1l12.6-4.9c1.1-.7,11.7-7.9,15.7-12.4,4.2-4.8,8.5-16.5,10.5-25.1,1.9-8.5.7-31,.6-31.2,0-.1-2.7-21.3-6.5-37.3-3.8-16-7.6-29.9-7.6-30,0-.3-11.6-33.5-17.3-51.1-5.6-17.5-13.3-34.8-15.5-39.2-1.9-3.8-6-8.2-6-8.2,0,0-3.4-4.1-12.6-9.6-9-5.5-29.7-12.2-31-12.7-1.1-.2-17.8-3.4-24-3.4s-15.9,3.7-16,3.8h-.2c0,0-.2,0-.2,0-1.1,0-114,.1-118.3.2-3.1,0-6.2-1-9-1.9-1.3-.4-2.6-.9-3.7-1.1-3.7-.9-6.6-1.2-10.7-1.2s-4.5.4-7.5,1c-1.8.4-3.8.8-6.5,1.3-4.5.8-8.3,2-12.4,3.4-2.2.7-4.5,1.5-7,2.2-6.5,1.8-14.9,6.8-14.9,6.8h0s-4.8,2.8-9.9,5.9c-4.2,2.5-5.2,3.8-8.1,7.5-.6.7-1.2,1.6-2,2.5-4.4,5.6-7.3,15.2-7.3,15.3l-12.6,32.7-19.6,62.1c0,.2-7.5,32.7-8,37.7-.5,5-2.1,21.4-2.1,21.6,0,.1-.9,7.7,2.2,25.5,3.1,17.7,14.2,27.5,14.3,27.6,0,0,4,3.8,7.8,6.2,3.9,2.4,12.7,5.3,14.4,5.7,1.5.4,2.3.3,3.5-.3,1.2-.6,2.9-1.5,3.3-1.7.5-.5,4-3.4,8.6-7.4,4.9-4.3,8.5-8.8,8.6-8.9l11.7-14.3,10.2-13.7c.6-.7,14.4-17,19.1-21.2,4-3.6,6.8-5.1,10.1-6.7.6-.3,1.1-.6,1.7-.9,4.1-2.2,12.5-2.5,12.9-2.5,1.2,0,118.5.4,131.5-.3,1.3,0,2.5-.1,3.8-.1Z"/>
  <path class="st0" d="M162.9,74l-1.9-.7c.4-1.2,4.2-11.4,8.1-14,3.8-2.4,21.4-10.5,22.1-10.9h.2c0,0,24-6.3,24-6.3.4-.1,10-2.4,14.4-1.1,4.1,1.2,8.8,4.4,9.4,4.8l6.5,3.5,109.6-.3c1.5,0,4.4-.3,5.5-1,1.7-1.2,10.7-5.8,11.7-6.3.6-.4,3-1.9,8.3-1,5.5.9,14.5,3,20.4,4.6,7.4,1.9,18.7,7,20.9,8,3.9,1.8,7.5,4.1,9.8,5.6.9.6,1.6,1,2,1.3,1.9,1.1,4.2,4.2,4.4,4.6v.2c0,0,3.2,6.9,3.2,6.9l-1.8.8-3-6.8c-.7-.9-2.4-3.2-3.7-3.9-.5-.3-1.2-.7-2.1-1.3-2.3-1.5-5.8-3.7-9.6-5.5-6-2.7-14.9-6.4-20.5-7.9-5.9-1.5-14.8-3.6-20.3-4.5-4.8-.8-6.8.7-6.8.7h-.2c-3.4,1.8-10.2,5.4-11.6,6.3-2,1.3-6.2,1.4-6.6,1.4l-110.1.3-7.2-3.8s-4.9-3.4-8.8-4.6c-3.9-1.1-13.3,1.1-13.4,1.1l-23.9,6.2c-1.3.6-18.3,8.4-21.8,10.7-2.8,1.8-6.2,10-7.3,13Z"/>
  <path class="st0" d="M378.3,133.2c-8,0-14.6-6.5-14.6-14.6s6.5-14.6,14.6-14.6,14.6,6.5,14.6,14.6-6.5,14.6-14.6,14.6ZM378.3,106.1c-6.9,0-12.6,5.7-12.6,12.6s5.7,12.6,12.6,12.6,12.6-5.7,12.6-12.6-5.7-12.6-12.6-12.6Z"/>
  <path class="st0" d="M405.5,106.7c-8,0-14.6-6.5-14.6-14.6s6.5-14.6,14.6-14.6,14.6,6.5,14.6,14.6-6.5,14.6-14.6,14.6ZM405.5,79.5c-6.9,0-12.6,5.7-12.6,12.6s5.7,12.6,12.6,12.6,12.6-5.7,12.6-12.6-5.7-12.6-12.6-12.6Z"/>
  <path class="st0" d="M432.7,134.9c-8,0-14.6-6.5-14.6-14.6s6.5-14.6,14.6-14.6,14.6,6.5,14.6,14.6-6.5,14.6-14.6,14.6ZM432.7,107.7c-6.9,0-12.6,5.7-12.6,12.6s5.7,12.6,12.6,12.6,12.6-5.7,12.6-12.6-5.7-12.6-12.6-12.6Z"/>
  <path class="st0" d="M405.5,161.2c-8,0-14.6-6.5-14.6-14.6s6.5-14.6,14.6-14.6,14.6,6.5,14.6,14.6-6.5,14.6-14.6,14.6ZM405.5,134c-6.9,0-12.6,5.7-12.6,12.6s5.7,12.6,12.6,12.6,12.6-5.7,12.6-12.6-5.7-12.6-12.6-12.6Z"/>
  <path class="st0" d="M330.7,126.3c-4.7,0-8.5-3.8-8.5-8.5s3.8-8.5,8.5-8.5,8.5,3.8,8.5,8.5-3.8,8.5-8.5,8.5ZM330.7,111.3c-3.6,0-6.5,2.9-6.5,6.5s2.9,6.5,6.5,6.5,6.5-2.9,6.5-6.5-2.9-6.5-6.5-6.5Z"/>
  <path class="st0" d="M271.7,126.3c-4.7,0-8.5-3.8-8.5-8.5s3.8-8.5,8.5-8.5,8.5,3.8,8.5,8.5-3.8,8.5-8.5,8.5ZM271.7,111.3c-3.6,0-6.5,2.9-6.5,6.5s2.9,6.5,6.5,6.5,6.5-2.9,6.5-6.5-2.9-6.5-6.5-6.5Z"/>
  <g>
    <path class="st0" d="M354.8,193.6c-7.9,0-14.3-6.4-14.3-14.3s6.4-14.3,14.3-14.3,14.3,6.4,14.3,14.3-6.4,14.3-14.3,14.3ZM354.8,167c-6.8,0-12.3,5.5-12.3,12.3s5.5,12.3,12.3,12.3,12.3-5.5,12.3-12.3-5.5-12.3-12.3-12.3Z"/>
    <path class="st0" d="M354.8,201.5c-12.2,0-22.2-10-22.2-22.2s10-22.2,22.2-22.2,22.2,10,22.2,22.2-10,22.2-22.2,22.2ZM354.8,159.1c-11.1,0-20.2,9.1-20.2,20.2s9.1,20.2,20.2,20.2,20.2-9.1,20.2-20.2-9.1-20.2-20.2-20.2Z"/>
    <path class="st0" d="M354.8,207.4c-15.5,0-28.1-12.6-28.1-28.1s12.6-28.1,28.1-28.1,28.1,12.6,28.1,28.1-12.6,28.1-28.1,28.1ZM354.8,153.1c-14.4,0-26.1,11.7-26.1,26.1s11.7,26.1,26.1,26.1,26.1-11.7,26.1-26.1-11.7-26.1-26.1-26.1Z"/>
  </g>
  <g>
    <path class="st0" d="M198,132.1c-7.9,0-14.3-6.4-14.3-14.3s6.4-14.3,14.3-14.3,14.3,6.4,14.3,14.3-6.4,14.3-14.3,14.3ZM198,105.5c-6.8,0-12.3,5.5-12.3,12.3s5.5,12.3,12.3,12.3,12.3-5.5,12.3-12.3-5.5-12.3-12.3-12.3Z"/>
    <path class="st0" d="M198,140c-12.2,0-22.2-10-22.2-22.2s10-22.2,22.2-22.2,22.2,10,22.2,22.2-10,22.2-22.2,22.2ZM198,97.6c-11.1,0-20.2,9.1-20.2,20.2s9.1,20.2,20.2,20.2,20.2-9.1,20.2-20.2-9.1-20.2-20.2-20.2Z"/>
    <path class="st0" d="M198,145.9c-15.5,0-28.1-12.6-28.1-28.1s12.6-28.1,28.1-28.1,28.1,12.6,28.1,28.1-12.6,28.1-28.1,28.1ZM198,91.6c-14.4,0-26.1,11.7-26.1,26.1s11.7,26.1,26.1,26.1,26.1-11.7,26.1-26.1-11.7-26.1-26.1-26.1Z"/>
  </g>
  <path class="st0" d="M283.7,100.2c-3.7,0-6.7,0-8.6-.2-10.3-.6-15.9-5.7-18.5-8.2-1.4-1.3-6.5-6.7-11.9-12.5-5-5.3-10.1-10.9-11.6-12.3-3.2-3.1-8.4-6.6-10.9-6.9-3-.4-9.2-.4-12.5,0-3.4.4-14.4,3.5-22.8,6.8-8.4,3.3-34.1,17.7-34.3,17.8l-1-1.7c1.1-.6,26.1-14.6,34.6-17.9,8.7-3.4,19.7-6.6,23.3-6.9,3.6-.4,9.9-.5,13,0,3.5.5,9.2,4.9,11.9,7.5,1.5,1.4,6.5,6.7,11.7,12.4,5.1,5.5,10.4,11.2,11.7,12.3,2.6,2.4,7.8,7.1,17.4,7.7,9.9.6,55.3-.8,55.7-.8.2,0,6.4.3,13.3-6.2,7.3-6.8,21.7-22.5,21.8-22.7.1-.2,4.9-6.2,10.7-8.8,6-2.6,11.9-2.7,21.1-.3,10.1,2.6,19.3,5.7,27.3,9.2,9.1,4,21.1,10.6,24.6,13.6l1.9,1.6-1.4,1.4-.9-.8-.9-.8c-3.4-2.9-15.3-9.5-24.1-13.3-8-3.5-17.1-6.6-27-9.1-8.7-2.2-14.3-2.2-19.8.2-5.4,2.3-10,8.2-10,8.2-.2.2-14.6,16-22,22.9-7.6,7.1-14.4,6.7-14.7,6.7-1.4,0-31,.9-47.2.9Z"/>
  <path class="st1" d="M290.6,88.2"/>
  <path class="st0" d="M249,217.5c-12.2,0-13.1-3.7-13.1-4.5v-13c0-1.7,0-2.6-.2-3.1l-15.6-.2c-.6,0-5.6-.6-5.6-12.5s5-12.4,5.6-12.4c.2,0,14.4.2,15.8.2,0,0,0-.2,0-.3v-.2s0-14.4,0-14.4c0-.4,0-1.6,1.1-2.9,1.9-2.2,5.8-3.2,11.6-3.2s10.1,1,11.7,3c.7,1,.7,1.9.7,2.2,0,1.3.4,13.5.4,15.1s0,.1,0,.2h0s.2,0,.2,0h15.3c.5,0,4.9.8,4.9,12.3s-4.1,12.7-4.5,12.8h-.2c-.6,0-14.4.3-16.3.4,0,0,0,0,0,0v.2s0,14.4,0,14.4c0,.4.1,1.5-.7,2.6-1.6,2-5.2,3.1-10.9,3.1ZM237.9,212.9c.1.3,1.5,2.7,11.1,2.7s8.7-1.4,9.3-2.3c.4-.6.4-1.1.4-1.1h0c0-.1,0-14.7,0-14.7,0-.3,0-1.1.4-1.7.3-.4.8-.6,1.4-.6,1,0,14.6-.3,16.2-.3.4-.2,2.9-1.9,2.9-10.9s-2.7-10.2-3.1-10.3h-15c-.4.1-1,.1-1.5-.2-.6-.4-.9-1-.9-2,0-1.7-.4-15-.4-15.1h0c0-.1,0-.3,0-.3,0,0,0,0,0,0,0,0,0-.3-.4-.8-.7-.8-3-2.2-10-2.2s-9.1,1.6-10,2.5c-.7.8-.7,1.5-.7,1.5h0v14.4c0,.4.1,1.2-.4,1.9-.3.3-.7.7-1.5.7-1.3,0-15.2-.2-15.7-.2,0,0-3.7.5-3.7,10.4s3.5,10.4,3.7,10.5l16.2.2c1.1,0,1.5,1.3,1.5,5v12.8ZM261.4,171.8h0Z"/>
  <g>
    <path class="st0" d="M301.6,95.7c-9.3,0-16.8-7.5-16.8-16.8s7.5-16.8,16.8-16.8,16.8,7.5,16.8,16.8-7.5,16.8-16.8,16.8ZM301.6,64.1c-8.2,0-14.8,6.6-14.8,14.8s6.6,14.8,14.8,14.8,14.8-6.6,14.8-14.8-6.6-14.8-14.8-14.8Z"/>
    <g>
      <path class="st0" d="M301.5,63.1s0,0,0,0c0,0,0,0,0,0,0,0,0,0,0,0Z"/>
      <path class="st0" d="M290.9,90.3c0-.2-.1-.4-.1-.7,0-1.9,2.1-5.3,5.7-9.1,2-2.2,4.9-4.7,5.2-4.6.6.1,5.4,4.8,7.1,7,2.8,3.5,4.1,6.3,3.5,7.6,0,0,0,.1-.1.2.8-.7,1.4-1.4,2-2.2,0,0,0-.2,0-.4.1-.7,0-2-.5-3.3-.9-2.9-4.1-8.2-6.9-11.8l-.9-1.1,1-.9c1.3-1.2,2.2-1.9,3.1-2.5.8-.5,1.8-.9,2.3-.9s.2,0,.3.2c-.9-.9-2-1.7-3.1-2.4h-.6c-1.5-.1-3.7.5-6.1,1.7-.7.3-1.3.6-1.4.6,0,0-.6-.3-1.3-.6-1.3-.7-3.4-1.4-4.5-1.6-.4,0-1.1-.1-1.5,0-.4,0-.6,0-.6,0-.4,0-2.9,2.3-2.9,2.3.3-.1.5,0,1.1.1,1.2.4,2.4,1.3,4.4,3l1.1,1-.6.8c-2.9,3.5-5.9,8.5-7,11.6-.6,1.7-.9,3.4-.6,4.1l1.7,1.9.2.2Z"/>
    </g>
  </g>
</svg>