<?xml version="1.0" encoding="UTF-8"?>
<svg id="Layer_3" xmlns="http://www.w3.org/2000/svg" version="1.1" xmlns:cc="http://creativecommons.org/ns#" xmlns:dc="http://purl.org/dc/elements/1.1/" xmlns:rdf="http://www.w3.org/1999/02/22-rdf-syntax-ns#" viewBox="0 0 598.2 350.3">
  <!-- Generator: Adobe Illustrator 29.0.1, SVG Export Plug-In . SVG Version: 2.1.0 Build 192)  -->
  <defs>
    <style>
      .st0 {
        fill: none;
        stroke: #f4f4f4;
        stroke-width: 1.8px;
      }

      .st1 {
        fill: #f4f4f4;
      }
    </style>
  </defs>
  <path id="path3" class="st1" d="M112.3,4.8c-1.7,0-3.4,0-4.7.7-.7.4-1.2.9-1.6,1.8s-.6,2-.6,3.3v325.2c0,1.3.2,2.4.6,3.2.4.8,1,1.3,1.7,1.5,1.3.4,2.9.2,4.6.2h374.3c1.7,0,3.3.3,4.6-.2.7-.2,1.3-.7,1.7-1.5.3-.6.5-1.4.5-2.3h0V10.6c0-1.3-.2-2.4-.6-3.3s-1-1.5-1.7-1.8c-1.3-.7-2.9-.6-4.7-.6H112.3ZM112.3,6.6h374.3c1.7,0,3.3,0,4.2.5.5.3.8.6,1,1.1.2.5.4,1.2.4,2.3v325.2c0,1.1-.2,1.7-.4,2.1-.2.4-.5.6-1,.8-1,.3-2.5.1-4.3.1H112.3c-1.8,0-3.3.2-4.3-.1-.5-.2-.8-.4-1-.8-.2-.4-.4-1.1-.4-2.2V10.6c0-1.1.1-1.8.4-2.3.2-.5.6-.9,1-1.1,1-.5,2.5-.5,4.2-.5h0Z"/>
  <path id="path5" class="st1" d="M124.3,167.1c-5.8,0-10.8,3-13.8,7.5l1.1.7c2.7-4.2,7.4-6.9,12.7-6.9h349.8c5.4,0,10.1,2.8,12.8,7.1l1.1-.7c-2.9-4.6-8-7.7-13.9-7.7H124.3Z"/>
  <path id="path7" class="st1" d="M117.1,174c-2.4,0-4.6,1-6.3,2.5l.9.9c1.4-1.3,3.3-2.2,5.4-2.2h364.2c2.3,0,4.4,1,5.8,2.6l1-.9c-1.7-1.9-4.1-3-6.8-3H117.1Z"/>
  <path id="path9" class="st1" d="M122.8,193.4c-1.2,0-2.2,1-2.2,2.2v12.7c0,1.2,1,2.2,2.2,2.2h20.4c1.2,0,2.2-1,2.2-2.2v-.6h0v-12.1c0-1.2-1-2.2-2.2-2.2h-20.4ZM122.8,194.7h20.4c.5,0,.9.4.9.9v12.7h0c0,.5-.4.9-.9.9h-20.4c-.5,0-.9-.4-.9-.9v-12.7c0-.5.4-.9.9-.9h0Z"/>
  <path id="path11" class="st1" d="M156.7,193.4c-1.2,0-2.2,1-2.2,2.2v12.7c0,1.2,1,2.2,2.2,2.2h20.4c1.2,0,2.2-1,2.2-2.2v-12.7c0-1.2-1-2.2-2.2-2.2h-20.4ZM156.7,194.7h20.4c.5,0,.9.4.9.9v12.7c0,.5-.4.9-.9.9h-20.4c-.5,0-.9-.4-.9-.9v-12.7c0-.5.4-.9.9-.9Z"/>
  <path id="path13" class="st1" d="M190.6,193.4c-1.2,0-2.2,1-2.2,2.2v12.7c0,1.2,1,2.2,2.2,2.2h20.4c1.2,0,2.2-1,2.2-2.2v-12.7c0-1.2-1-2.2-2.2-2.2h-20.4ZM190.6,194.7h20.4c.5,0,.9.4.9.9v12.7c0,.5-.4.9-.9.9h-20.4c-.5,0-.9-.4-.9-.9v-12.7c0-.5.4-.9.9-.9Z"/>
  <path id="path15" class="st1" d="M224.6,193.4c-1.2,0-2.2,1-2.2,2.2v12.7c0,1.2,1,2.2,2.2,2.2h20.4c1.2,0,2.2-1,2.2-2.2v-12.7c0-1.2-1-2.2-2.2-2.2h-20.4ZM224.6,194.7h20.4c.5,0,.9.4.9.9v12.7c0,.5-.4.9-.9.9h-20.4c-.5,0-.9-.4-.9-.9v-12.7c0-.5.4-.9.9-.9Z"/>
  <path id="path17" class="st1" d="M258.5,193.4c-1.2,0-2.2,1-2.2,2.2v12.7c0,1.2,1,2.2,2.2,2.2h20.4c1.2,0,2.2-1,2.2-2.2v-12.7c0-1.2-1-2.2-2.2-2.2h-20.4ZM258.5,194.7h20.4c.5,0,.9.4.9.9v12.7c0,.5-.4.9-.9.9h-20.4c-.5,0-.9-.4-.9-.9v-12.7c0-.5.4-.9.9-.9Z"/>
  <path id="path19" class="st1" d="M292.4,193.4c-1.2,0-2.2,1-2.2,2.2v12.7c0,1.2,1,2.2,2.2,2.2h20.4c1.2,0,2.2-1,2.2-2.2v-12.7c0-1.2-1-2.2-2.2-2.2h-20.4ZM292.4,194.7h20.4c.5,0,.9.4.9.9v12.7c0,.5-.4.9-.9.9h-20.4c-.5,0-.9-.4-.9-.9v-12.7c0-.5.4-.9.9-.9Z"/>
  <path id="path21" class="st1" d="M326.4,193.4c-1.2,0-2.2,1-2.2,2.2v12.7c0,1.2,1,2.2,2.2,2.2h20.4c1.2,0,2.2-1,2.2-2.2v-12.7c0-1.2-1-2.2-2.2-2.2h-20.4ZM326.4,194.7h20.4c.5,0,.9.4.9.9v12.7c0,.5-.4.9-.9.9h-20.4c-.5,0-.9-.4-.9-.9v-12.7c0-.5.4-.9.9-.9Z"/>
  <path id="path23" class="st1" d="M360.3,193.4c-1.2,0-2.2,1-2.2,2.2v12.7c0,1.2,1,2.2,2.2,2.2h20.4c1.2,0,2.2-1,2.2-2.2v-12.7c0-1.2-1-2.2-2.2-2.2h-20.4ZM360.3,194.7h20.4c.5,0,.9.4.9.9v12.7c0,.5-.4.9-.9.9h-20.4c-.5,0-.9-.4-.9-.9v-12.7c0-.5.4-.9.9-.9Z"/>
  <path id="path25" class="st1" d="M394.2,193.4c-1.2,0-2.2,1-2.2,2.2v12.7c0,1.2,1,2.2,2.2,2.2h20.4c1.2,0,2.2-1,2.2-2.2v-12.7c0-1.2-1-2.2-2.2-2.2h-20.4ZM394.2,194.7h20.4c.5,0,.9.4.9.9v12.7c0,.5-.4.9-.9.9h-20.4c-.5,0-.9-.4-.9-.9v-12.7c0-.5.4-.9.9-.9Z"/>
  <path id="path27" class="st1" d="M428.2,193.4c-1.2,0-2.2,1-2.2,2.2v12.7c0,1.2,1,2.2,2.2,2.2h20.4c1.2,0,2.2-1,2.2-2.2v-12.7c0-1.2-1-2.2-2.2-2.2h-20.4ZM428.2,194.7h20.4c.5,0,.9.4.9.9v12.7c0,.5-.4.9-.9.9h-20.4c-.5,0-.9-.4-.9-.9v-12.7c0-.5.4-.9.9-.9Z"/>
  <path id="path29" class="st1" d="M140.7,226.6c-1.2,0-2.2,1-2.2,2.2v12.8c0,1.2,1,2.2,2.2,2.2h20.4c1.2,0,2.2-1,2.2-2.2v-12.8c0-1.2-1-2.2-2.2-2.2h-20.4ZM140.7,227.9h20.4c.5,0,.9.4.9.9v12.8c0,.5-.4.9-.9.9h-20.4c-.5,0-.9-.4-.9-.9v-12.8c0-.5.4-.9.9-.9Z"/>
  <path id="path31" class="st1" d="M174.6,226.6c-1.2,0-2.2,1-2.2,2.2v12.8c0,1.2,1,2.2,2.2,2.2h20.4c1.2,0,2.2-1,2.2-2.2v-12.8c0-1.2-1-2.2-2.2-2.2h-20.4ZM174.6,227.9h20.4c.5,0,.9.4.9.9v12.8c0,.5-.4.9-.9.9h-20.4c-.5,0-.9-.4-.9-.9v-12.8c0-.5.4-.9.9-.9Z"/>
  <path id="path33" class="st1" d="M208.6,226.6c-1.2,0-2.2,1-2.2,2.2v12.8c0,1.2,1,2.2,2.2,2.2h20.4c1.2,0,2.2-1,2.2-2.2v-12.8c0-1.2-1-2.2-2.2-2.2h-20.4ZM208.6,227.9h20.4c.5,0,.9.4.9.9v12.8c0,.5-.4.9-.9.9h-20.4c-.5,0-.9-.4-.9-.9v-12.8c0-.5.4-.9.9-.9Z"/>
  <path id="path35" class="st1" d="M242.5,226.6c-1.2,0-2.2,1-2.2,2.2v12.8c0,1.2,1,2.2,2.2,2.2h20.4c1.2,0,2.2-1,2.2-2.2v-12.8c0-1.2-1-2.2-2.2-2.2h-20.4ZM242.5,227.9h20.4c.5,0,.9.4.9.9v12.8c0,.5-.4.9-.9.9h-20.4c-.5,0-.9-.4-.9-.9v-12.8c0-.5.4-.9.9-.9Z"/>
  <path id="path37" class="st1" d="M276.4,226.6c-1.2,0-2.2,1-2.2,2.2v12.8c0,1.2,1,2.2,2.2,2.2h20.4c1.2,0,2.2-1,2.2-2.2v-12.8c0-1.2-1-2.2-2.2-2.2h-20.4ZM276.4,227.9h20.4c.5,0,.9.4.9.9v12.8c0,.5-.4.9-.9.9h-20.4c-.5,0-.9-.4-.9-.9v-12.8c0-.5.4-.9.9-.9Z"/>
  <path id="path39" class="st1" d="M310.4,226.6c-1.2,0-2.2,1-2.2,2.2v12.8c0,1.2,1,2.2,2.2,2.2h20.4c1.2,0,2.2-1,2.2-2.2v-12.8c0-1.2-1-2.2-2.2-2.2h-20.4ZM310.4,227.9h20.4c.5,0,.9.4.9.9v12.8c0,.5-.4.9-.9.9h-20.4c-.5,0-.9-.4-.9-.9v-12.8c0-.5.4-.9.9-.9Z"/>
  <path id="path41" class="st1" d="M344.3,226.6c-1.2,0-2.2,1-2.2,2.2v12.8c0,1.2,1,2.2,2.2,2.2h20.4c1.2,0,2.2-1,2.2-2.2v-12.8c0-1.2-1-2.2-2.2-2.2h-20.4ZM344.3,227.9h20.4c.5,0,.9.4.9.9v12.8c0,.5-.4.9-.9.9h-20.4c-.5,0-.9-.4-.9-.9v-12.8c0-.5.4-.9.9-.9Z"/>
  <path id="path43" class="st1" d="M378.2,226.6c-1.2,0-2.2,1-2.2,2.2v12.8c0,1.2,1,2.2,2.2,2.2h20.4c1.2,0,2.2-1,2.2-2.2v-12.8c0-1.2-1-2.2-2.2-2.2h-20.4ZM378.2,227.9h20.4c.5,0,.9.4.9.9v12.8c0,.5-.4.9-.9.9h-20.4c-.5,0-.9-.4-.9-.9v-12.8c0-.5.4-.9.9-.9Z"/>
  <path id="path45" class="st1" d="M412.2,226.6c-1.2,0-2.2,1-2.2,2.2v12.8c0,1.2,1,2.2,2.2,2.2h20.4c1.2,0,2.2-1,2.2-2.2v-12.8c0-1.2-1-2.2-2.2-2.2h-20.4ZM412.2,227.9h20.4c.5,0,.9.4.9.9v12.8c0,.5-.4.9-.9.9h-20.4c-.5,0-.9-.4-.9-.9v-12.8c0-.5.4-.9.9-.9Z"/>
  <path id="path47" class="st1" d="M446.1,226.6c-1.2,0-2.2,1-2.2,2.2v12.8c0,1.2,1,2.2,2.2,2.2h20.4c1.2,0,2.2-1,2.2-2.2v-12.8c0-1.2-1-2.2-2.2-2.2h-20.4ZM446.1,227.9h20.4c.5,0,.9.4.9.9v12.8c0,.5-.4.9-.9.9h-20.4c-.5,0-.9-.4-.9-.9v-12.8c0-.5.4-.9.9-.9Z"/>
  <path id="path49" class="st1" d="M149.4,259.8c-1.2,0-2.2,1-2.2,2.2v12.7c0,1.2,1,2.2,2.2,2.2h20.4c1.2,0,2.2-1,2.2-2.2v-12.7c0-1.2-1-2.2-2.2-2.2h-20.4ZM149.4,261h20.4c.5,0,.9.4.9.9v12.7c0,.5-.4.9-.9.9h-20.4c-.5,0-.9-.4-.9-.9v-12.7c0-.5.4-.9.9-.9Z"/>
  <path id="path51" class="st1" d="M183.3,259.8c-1.2,0-2.2,1-2.2,2.2v12.7c0,1.2,1,2.2,2.2,2.2h20.4c1.2,0,2.2-1,2.2-2.2v-12.7c0-1.2-1-2.2-2.2-2.2h-20.4ZM183.3,261h20.4c.5,0,.9.4.9.9v12.7c0,.5-.4.9-.9.9h-20.4c-.5,0-.9-.4-.9-.9v-12.7c0-.5.4-.9.9-.9Z"/>
  <path id="path53" class="st1" d="M217.2,259.8c-1.2,0-2.2,1-2.2,2.2v12.7c0,1.2,1,2.2,2.2,2.2h20.4c1.2,0,2.2-1,2.2-2.2v-12.7c0-1.2-1-2.2-2.2-2.2h-20.4ZM217.2,261h20.4c.5,0,.9.4.9.9v12.7c0,.5-.4.9-.9.9h-20.4c-.5,0-.9-.4-.9-.9v-12.7c0-.5.4-.9.9-.9Z"/>
  <path id="path55" class="st1" d="M251.1,259.8c-1.2,0-2.2,1-2.2,2.2v12.7c0,1.2,1,2.2,2.2,2.2h20.4c1.2,0,2.2-1,2.2-2.2v-12.7c0-1.2-1-2.2-2.2-2.2h-20.4ZM251.1,261h20.4c.5,0,.9.4.9.9v12.7c0,.5-.4.9-.9.9h-20.4c-.5,0-.9-.4-.9-.9v-12.7c0-.5.4-.9.9-.9Z"/>
  <path id="path57" class="st1" d="M285.1,259.8c-1.2,0-2.2,1-2.2,2.2v12.7c0,1.2,1,2.2,2.2,2.2h20.4c1.2,0,2.2-1,2.2-2.2v-12.7c0-1.2-1-2.2-2.2-2.2h-20.4ZM285.1,261h20.4c.5,0,.9.4.9.9v12.7c0,.5-.4.9-.9.9h-20.4c-.5,0-.9-.4-.9-.9v-12.7c0-.5.4-.9.9-.9Z"/>
  <path id="path59" class="st1" d="M319,259.8c-1.2,0-2.2,1-2.2,2.2v12.7c0,1.2,1,2.2,2.2,2.2h20.4c1.2,0,2.2-1,2.2-2.2v-12.7c0-1.2-1-2.2-2.2-2.2h-20.4ZM319,261h20.4c.5,0,.9.4.9.9v12.7c0,.5-.4.9-.9.9h-20.4c-.5,0-.9-.4-.9-.9v-12.7c0-.5.4-.9.9-.9Z"/>
  <path id="path61" class="st1" d="M353,259.8c-1.2,0-2.2,1-2.2,2.2v12.7c0,1.2,1,2.2,2.2,2.2h20.4c1.2,0,2.2-1,2.2-2.2v-12.7c0-1.2-1-2.2-2.2-2.2h-20.4ZM353,261h20.4c.5,0,.9.4.9.9v12.7c0,.5-.4.9-.9.9h-20.4c-.5,0-.9-.4-.9-.9v-12.7c0-.5.4-.9.9-.9Z"/>
  <path id="path63" class="st1" d="M386.9,259.8c-1.2,0-2.2,1-2.2,2.2v12.7c0,1.2,1,2.2,2.2,2.2h20.4c1.2,0,2.2-1,2.2-2.2v-12.7c0-1.2-1-2.2-2.2-2.2h-20.4ZM386.9,261h20.4c.5,0,.9.4.9.9v12.7c0,.5-.4.9-.9.9h-20.4c-.5,0-.9-.4-.9-.9v-12.7c0-.5.4-.9.9-.9Z"/>
  <path id="path65" class="st1" d="M420.8,259.8c-1.2,0-2.2,1-2.2,2.2v12.7c0,1.2,1,2.2,2.2,2.2h20.4c1.2,0,2.2-1,2.2-2.2v-12.7c0-1.2-1-2.2-2.2-2.2h-20.4ZM420.8,261h20.4c.5,0,.9.4.9.9v12.7c0,.5-.4.9-.9.9h-20.4c-.5,0-.9-.4-.9-.9v-12.7c0-.5.4-.9.9-.9Z"/>
  <path id="path67" class="st1" d="M165.4,292.9c-1.2,0-2.2,1-2.2,2.2v12.7c0,1.2,1,2.2,2.2,2.2h20.4c1.2,0,2.2-1,2.2-2.2v-12.7c0-1.2-1-2.2-2.2-2.2h-20.4ZM165.4,294.2h20.4c.5,0,.9.4.9.9v12.7c0,.5-.4.9-.9.9h-20.4c-.5,0-.9-.4-.9-.9v-12.7c0-.5.4-.9.9-.9Z"/>
  <path id="path69" class="st1" d="M123.2,292.9c-1.2,0-2.2,1-2.2,2.2v12.7c0,1.2,1,2.2,2.2,2.2h26.4c1.2,0,2.2-1,2.2-2.2v-12.7c0-1.2-1-2.2-2.2-2.2h-26.4ZM123.2,294.2h26.4c.5,0,.9.4.9.9v12.7c0,.5-.4.9-.9.9h-26.4c-.5,0-.9-.4-.9-.9v-12.7c0-.5.4-.9.9-.9Z"/>
  <path id="path71" class="st1" d="M199.3,292.9c-1.2,0-2.2,1-2.2,2.2v12.7c0,1.2,1,2.2,2.2,2.2h20.4c1.2,0,2.2-1,2.2-2.2v-12.7c0-1.2-1-2.2-2.2-2.2h-20.4ZM199.3,294.2h20.4c.5,0,.9.4.9.9v12.7c0,.5-.4.9-.9.9h-20.4c-.5,0-.9-.4-.9-.9v-12.7c0-.5.4-.9.9-.9Z"/>
  <path id="path73" class="st1" d="M233.2,292.9c-1.2,0-2.2,1-2.2,2.2v12.7c0,1.2,1,2.2,2.2,2.2h20.4c1.2,0,2.2-1,2.2-2.2v-12.7c0-1.2-1-2.2-2.2-2.2h-20.4ZM233.2,294.2h20.4c.5,0,.9.4.9.9v12.7c0,.5-.4.9-.9.9h-20.4c-.5,0-.9-.4-.9-.9v-12.7c0-.5.4-.9.9-.9Z"/>
  <path id="path75" class="st1" d="M267.1,292.9c-1.2,0-2.2,1-2.2,2.2v12.7c0,1.2,1,2.2,2.2,2.2h20.4c1.2,0,2.2-1,2.2-2.2v-12.7c0-1.2-1-2.2-2.2-2.2h-20.4ZM267.1,294.2h20.4c.5,0,.9.4.9.9v12.7c0,.5-.4.9-.9.9h-20.4c-.5,0-.9-.4-.9-.9v-12.7c0-.5.4-.9.9-.9Z"/>
  <path id="path77" class="st1" d="M301.1,292.9c-1.2,0-2.2,1-2.2,2.2v12.7c0,1.2,1,2.2,2.2,2.2h20.4c1.2,0,2.2-1,2.2-2.2v-12.7c0-1.2-1-2.2-2.2-2.2h-20.4ZM301.1,294.2h20.4c.5,0,.9.4.9.9v12.7c0,.5-.4.9-.9.9h-20.4c-.5,0-.9-.4-.9-.9v-12.7c0-.5.4-.9.9-.9Z"/>
  <path id="path79" class="st1" d="M335,292.9c-1.2,0-2.2,1-2.2,2.2v12.7c0,1.2,1,2.2,2.2,2.2h20.4c1.2,0,2.2-1,2.2-2.2v-12.7c0-1.2-1-2.2-2.2-2.2h-20.4ZM335,294.2h20.4c.5,0,.9.4.9.9v12.7c0,.5-.4.9-.9.9h-20.4c-.5,0-.9-.4-.9-.9v-12.7c0-.5.4-.9.9-.9Z"/>
  <path id="path81" class="st1" d="M369,292.9c-1.2,0-2.2,1-2.2,2.2v12.7c0,1.2,1,2.2,2.2,2.2h20.4c1.2,0,2.2-1,2.2-2.2v-12.7c0-1.2-1-2.2-2.2-2.2h-20.4ZM369,294.2h20.4c.5,0,.9.4.9.9v12.7c0,.5-.4.9-.9.9h-20.4c-.5,0-.9-.4-.9-.9v-12.7c0-.5.4-.9.9-.9Z"/>
  <path id="path83" class="st1" d="M402.9,292.9c-1.2,0-2.2,1-2.2,2.2v12.7c0,1.2,1,2.2,2.2,2.2h20.4c1.2,0,2.2-1,2.2-2.2v-12.7c0-1.2-1-2.2-2.2-2.2h-20.4ZM402.9,294.2h20.4c.5,0,.9.4.9.9v12.7c0,.5-.4.9-.9.9h-20.4c-.5,0-.9-.4-.9-.9v-12.7c0-.5.4-.9.9-.9Z"/>
  <path id="path85" class="st1" d="M437.6,292.9c-1.2,0-2.2,1-2.2,2.2v12.7c0,1.2,1,2.2,2.2,2.2h35.2c1.2,0,2.2-1,2.2-2.2v-12.7c0-1.2-1-2.2-2.2-2.2h-35.2ZM437.6,294.2h35.2c.5,0,.9.4.9.9v12.7c0,.5-.4.9-.9.9h-35.2c-.5,0-.9-.4-.9-.9v-12.7c0-.5.4-.9.9-.9Z"/>
  <path id="path87" class="st1" d="M454.7,259.8c-1.2,0-2.2,1-2.2,2.2v12.7c0,1.2,1,2.2,2.2,2.2h20.4c1.2,0,2.2-1,2.2-2.2v-12.7c0-1.2-1-2.2-2.2-2.2h-20.4ZM454.7,261h20.4c.5,0,.9.4.9.9v12.7c0,.5-.4.9-.9.9h-20.4c-.5,0-.9-.4-.9-.9v-12.7c0-.5.4-.9.9-.9Z"/>
  <path id="path89" class="st0" d="M434.9,339.8"/>
  <path id="path97" class="st0" d="M440.1,339.8"/>
  <path id="path105" class="st0" d="M445.2,339.8"/>
  <path id="path113" class="st0" d="M450.3,339.8"/>
  <path id="path119" class="st0" d="M455.5,339.8"/>
  <path id="line147" class="st1" d="M105.9,333.2v1.3h386.9v-1.3H105.9Z"/>
</svg>