<?xml version="1.0" encoding="UTF-8"?>
<svg xmlns="http://www.w3.org/2000/svg" version="1.1" xmlns:xlink="http://www.w3.org/1999/xlink" viewBox="0 0 598.2 350.3">
  <!-- Generator: Adobe Illustrator 29.0.1, SVG Export Plug-In . SVG Version: 2.1.0 Build 192)  -->
  <defs>
    <style>
      .st0 {
        display: none;
      }

      .st1 {
        fill: #f4f4f4;
      }
    </style>
  </defs>
  <g id="Layer_2" class="st0">
    <image width="1200" height="630" transform="translate(-46.1 16.4) scale(.5)" xlink:href="zxnext-1.webp"/>
  </g>
  <g id="Layer_4">
    <g>
      <path class="st1" d="M153.4,119.1c-8.6,0-15.6-7-15.6-15.6s1-6.3,2.9-9l.3-.4h24.8l.3.4c1.9,2.6,2.9,5.7,2.9,9,0,8.6-7,15.6-15.6,15.6ZM142,96.1c-1.4,2.2-2.2,4.8-2.2,7.4,0,7.5,6.1,13.6,13.6,13.6s13.6-6.1,13.6-13.6-.8-5.2-2.2-7.4h-22.7Z"/>
      <path class="st1" d="M119.1,119.1c-8.6,0-15.6-7-15.6-15.6s1-6.3,2.9-9l.3-.4h24.8l.3.4c1.9,2.6,2.9,5.7,2.9,9,0,8.6-7,15.6-15.6,15.6ZM107.8,96.1c-1.4,2.2-2.2,4.8-2.2,7.4,0,7.5,6.1,13.6,13.6,13.6s13.6-6.1,13.6-13.6-.8-5.2-2.2-7.4h-22.7Z"/>
      <path class="st1" d="M84.9,119.1c-8.6,0-15.6-7-15.6-15.6s1-6.3,2.9-9l.3-.4h24.8l.3.4c1.9,2.6,2.9,5.7,2.9,9,0,8.6-7,15.6-15.6,15.6ZM73.5,96.1c-1.4,2.2-2.2,4.8-2.2,7.4,0,7.5,6.1,13.6,13.6,13.6s13.6-6.1,13.6-13.6-.8-5.2-2.2-7.4h-22.7Z"/>
      <path class="st1" d="M187.7,119.1c-8.6,0-15.6-7-15.6-15.6s1-6.3,2.9-9l.3-.4h24.8l.3.4c1.9,2.6,2.9,5.7,2.9,9,0,8.6-7,15.6-15.6,15.6ZM176.3,96.1c-1.4,2.2-2.2,4.8-2.2,7.4,0,7.5,6.1,13.6,13.6,13.6s13.6-6.1,13.6-13.6-.8-5.2-2.2-7.4h-22.7Z"/>
      <path class="st1" d="M221.9,119.1c-8.6,0-15.6-7-15.6-15.6s1-6.3,2.9-9l.3-.4h24.8l.3.4c1.9,2.6,2.9,5.7,2.9,9,0,8.6-7,15.6-15.6,15.6ZM210.5,96.1c-1.4,2.2-2.2,4.8-2.2,7.4,0,7.5,6.1,13.6,13.6,13.6s13.6-6.1,13.6-13.6-.8-5.2-2.2-7.4h-22.7Z"/>
      <path class="st1" d="M256.2,119.1c-8.6,0-15.6-7-15.6-15.6s1-6.3,2.9-9l.3-.4h24.8l.3.4c1.9,2.6,2.9,5.7,2.9,9,0,8.6-7,15.6-15.6,15.6ZM244.8,96.1c-1.4,2.2-2.2,4.8-2.2,7.4,0,7.5,6.1,13.6,13.6,13.6s13.6-6.1,13.6-13.6-.8-5.2-2.2-7.4h-22.7Z"/>
      <path class="st1" d="M290.4,119.1c-8.6,0-15.6-7-15.6-15.6s1-6.3,2.9-9l.3-.4h24.8l.3.4c1.9,2.6,2.9,5.7,2.9,9,0,8.6-7,15.6-15.6,15.6ZM279.1,96.1c-1.4,2.2-2.2,4.8-2.2,7.4,0,7.5,6.1,13.6,13.6,13.6s13.6-6.1,13.6-13.6-.8-5.2-2.2-7.4h-22.7Z"/>
      <path class="st1" d="M324.7,119.1c-8.6,0-15.6-7-15.6-15.6s1-6.3,2.9-9l.3-.4h24.8l.3.4c1.9,2.6,2.9,5.7,2.9,9,0,8.6-7,15.6-15.6,15.6ZM313.3,96.1c-1.4,2.2-2.2,4.8-2.2,7.4,0,7.5,6.1,13.6,13.6,13.6s13.6-6.1,13.6-13.6-.8-5.2-2.2-7.4h-22.7Z"/>
      <path class="st1" d="M241.1,154.5c-8.6,0-15.6-7-15.6-15.6s1-6.3,2.9-9l.3-.4h24.8l.3.4c1.9,2.6,2.9,5.7,2.9,9,0,8.6-7,15.6-15.6,15.6ZM229.7,131.5c-1.4,2.2-2.2,4.8-2.2,7.4,0,7.5,6.1,13.6,13.6,13.6s13.6-6.1,13.6-13.6-.8-5.2-2.2-7.4h-22.7Z"/>
      <path class="st1" d="M206.3,154.5c-8.6,0-15.6-7-15.6-15.6s1-6.3,2.9-9l.3-.4h24.8l.3.4c1.9,2.6,2.9,5.7,2.9,9,0,8.6-7,15.6-15.6,15.6ZM194.9,131.5c-1.4,2.2-2.2,4.8-2.2,7.4,0,7.5,6.1,13.6,13.6,13.6s13.6-6.1,13.6-13.6-.8-5.2-2.2-7.4h-22.7Z"/>
      <path class="st1" d="M171.8,154.5c-8.6,0-15.6-7-15.6-15.6s1-6.3,2.9-9l.3-.4h24.8l.3.4c1.9,2.6,2.9,5.7,2.9,9,0,8.6-7,15.6-15.6,15.6ZM160.4,131.5c-1.4,2.2-2.2,4.8-2.2,7.4,0,7.5,6.1,13.6,13.6,13.6s13.6-6.1,13.6-13.6-.8-5.2-2.2-7.4h-22.7Z"/>
      <path class="st1" d="M276,154.5c-8.6,0-15.6-7-15.6-15.6s1-6.3,2.9-9l.3-.4h24.8l.3.4c1.9,2.6,2.9,5.7,2.9,9,0,8.6-7,15.6-15.6,15.6ZM264.6,131.5c-1.4,2.2-2.2,4.8-2.2,7.4,0,7.5,6.1,13.6,13.6,13.6s13.6-6.1,13.6-13.6-.8-5.2-2.2-7.4h-22.7Z"/>
      <path class="st1" d="M310.9,154.5c-8.6,0-15.6-7-15.6-15.6s1-6.3,2.9-9l.3-.4h24.8l.3.4c1.9,2.6,2.9,5.7,2.9,9,0,8.6-7,15.6-15.6,15.6ZM299.6,131.5c-1.4,2.2-2.2,4.8-2.2,7.4,0,7.5,6.1,13.6,13.6,13.6s13.6-6.1,13.6-13.6-.8-5.2-2.2-7.4h-22.7Z"/>
      <path class="st1" d="M344.3,154.5c-8.6,0-15.6-7-15.6-15.6s1-6.3,2.9-9l.3-.4h24.8l.3.4c1.9,2.6,2.9,5.7,2.9,9,0,8.6-7,15.6-15.6,15.6ZM333,131.5c-1.4,2.2-2.2,4.8-2.2,7.4,0,7.5,6.1,13.6,13.6,13.6s13.6-6.1,13.6-13.6-.8-5.2-2.2-7.4h-22.7Z"/>
      <path class="st1" d="M378.9,154.5c-8.6,0-15.6-7-15.6-15.6s1-6.3,2.9-9l.3-.4h24.8l.3.4c1.9,2.6,2.9,5.7,2.9,9,0,8.6-7,15.6-15.6,15.6ZM367.6,131.5c-1.4,2.2-2.2,4.8-2.2,7.4,0,7.5,6.1,13.6,13.6,13.6s13.6-6.1,13.6-13.6-.8-5.2-2.2-7.4h-22.7Z"/>
      <path class="st1" d="M412.3,154.5c-8.6,0-15.6-7-15.6-15.6s1-6.3,2.9-9l.3-.4h24.8l.3.4c1.9,2.6,2.9,5.7,2.9,9,0,8.6-7,15.6-15.6,15.6ZM401,131.5c-1.4,2.2-2.2,4.8-2.2,7.4,0,7.5,6.1,13.6,13.6,13.6s13.6-6.1,13.6-13.6-.8-5.2-2.2-7.4h-22.7Z"/>
      <path class="st1" d="M446.3,154.5c-8.6,0-15.6-7-15.6-15.6s1-6.3,2.9-9l.3-.4h24.8l.3.4c1.9,2.6,2.9,5.7,2.9,9,0,8.6-7,15.6-15.6,15.6ZM434.9,131.5c-1.4,2.2-2.2,4.8-2.2,7.4,0,7.5,6.1,13.6,13.6,13.6s13.6-6.1,13.6-13.6-.8-5.2-2.2-7.4h-22.7Z"/>
      <path class="st1" d="M249.3,186.8c-8.6,0-15.6-7-15.6-15.6s1-6.3,2.9-9l.3-.4h24.8l.3.4c1.9,2.6,2.9,5.7,2.9,9,0,8.6-7,15.6-15.6,15.6ZM237.9,163.9c-1.4,2.2-2.2,4.8-2.2,7.4,0,7.5,6.1,13.6,13.6,13.6s13.6-6.1,13.6-13.6-.8-5.2-2.2-7.4h-22.7Z"/>
      <path class="st1" d="M214.4,186.8c-8.6,0-15.6-7-15.6-15.6s1-6.3,2.9-9l.3-.4h24.8l.3.4c1.9,2.6,2.9,5.7,2.9,9,0,8.6-7,15.6-15.6,15.6ZM203,163.9c-1.4,2.2-2.2,4.8-2.2,7.4,0,7.5,6.1,13.6,13.6,13.6s13.6-6.1,13.6-13.6-.8-5.2-2.2-7.4h-22.7Z"/>
      <path class="st1" d="M179.9,186.8c-8.6,0-15.6-7-15.6-15.6s1-6.3,2.9-9l.3-.4h24.8l.3.4c1.9,2.6,2.9,5.7,2.9,9,0,8.6-7,15.6-15.6,15.6ZM168.6,163.9c-1.4,2.2-2.2,4.8-2.2,7.4,0,7.5,6.1,13.6,13.6,13.6s13.6-6.1,13.6-13.6-.8-5.2-2.2-7.4h-22.7Z"/>
      <path class="st1" d="M284.2,186.8c-8.6,0-15.6-7-15.6-15.6s1-6.3,2.9-9l.3-.4h24.8l.3.4c1.9,2.6,2.9,5.7,2.9,9,0,8.6-7,15.6-15.6,15.6ZM272.8,163.9c-1.4,2.2-2.2,4.8-2.2,7.4,0,7.5,6.1,13.6,13.6,13.6s13.6-6.1,13.6-13.6-.8-5.2-2.2-7.4h-22.7Z"/>
      <path class="st1" d="M319.1,186.8c-8.6,0-15.6-7-15.6-15.6s1-6.3,2.9-9l.3-.4h24.8l.3.4c1.9,2.6,2.9,5.7,2.9,9,0,8.6-7,15.6-15.6,15.6ZM307.7,163.9c-1.4,2.2-2.2,4.8-2.2,7.4,0,7.5,6.1,13.6,13.6,13.6s13.6-6.1,13.6-13.6-.8-5.2-2.2-7.4h-22.7Z"/>
      <path class="st1" d="M352.5,186.8c-8.6,0-15.6-7-15.6-15.6s1-6.3,2.9-9l.3-.4h24.8l.3.4c1.9,2.6,2.9,5.7,2.9,9,0,8.6-7,15.6-15.6,15.6ZM341.1,163.9c-1.4,2.2-2.2,4.8-2.2,7.4,0,7.5,6.1,13.6,13.6,13.6s13.6-6.1,13.6-13.6-.8-5.2-2.2-7.4h-22.7Z"/>
      <path class="st1" d="M387.1,186.8c-8.6,0-15.6-7-15.6-15.6s1-6.3,2.9-9l.3-.4h24.8l.3.4c1.9,2.6,2.9,5.7,2.9,9,0,8.6-7,15.6-15.6,15.6ZM375.7,163.9c-1.4,2.2-2.2,4.8-2.2,7.4,0,7.5,6.1,13.6,13.6,13.6s13.6-6.1,13.6-13.6-.8-5.2-2.2-7.4h-22.7Z"/>
      <path class="st1" d="M420.5,186.8c-8.6,0-15.6-7-15.6-15.6s1-6.3,2.9-9l.3-.4h24.8l.3.4c1.9,2.6,2.9,5.7,2.9,9,0,8.6-7,15.6-15.6,15.6ZM409.1,163.9c-1.4,2.2-2.2,4.8-2.2,7.4,0,7.5,6.1,13.6,13.6,13.6s13.6-6.1,13.6-13.6-.8-5.2-2.2-7.4h-22.7Z"/>
      <path class="st1" d="M454.5,186.8c-8.6,0-15.6-7-15.6-15.6s1-6.3,2.9-9l.3-.4h24.8l.3.4c1.9,2.6,2.9,5.7,2.9,9,0,8.6-7,15.6-15.6,15.6ZM443.1,163.9c-1.4,2.2-2.2,4.8-2.2,7.4,0,7.5,6.1,13.6,13.6,13.6s13.6-6.1,13.6-13.6-.8-5.2-2.2-7.4h-22.7Z"/>
      <path class="st1" d="M275.6,220.6c-8.6,0-15.6-7-15.6-15.6s1-6.3,2.9-9l.3-.4h24.8l.3.4c1.9,2.6,2.9,5.8,2.9,9,0,8.6-7,15.6-15.6,15.6ZM264.2,197.6c-1.4,2.2-2.2,4.8-2.2,7.4,0,7.5,6.1,13.6,13.6,13.6s13.6-6.1,13.6-13.6-.8-5.2-2.2-7.4h-22.7Z"/>
      <path class="st1" d="M240.8,220.6c-8.6,0-15.6-7-15.6-15.6s1-6.3,2.9-9l.3-.4h24.8l.3.4c1.9,2.6,2.9,5.8,2.9,9,0,8.6-7,15.6-15.6,15.6ZM229.4,197.6c-1.4,2.2-2.2,4.8-2.2,7.4,0,7.5,6.1,13.6,13.6,13.6s13.6-6.1,13.6-13.6-.8-5.2-2.2-7.4h-22.7Z"/>
      <path class="st1" d="M206.3,220.6c-8.6,0-15.6-7-15.6-15.6s1-6.3,2.9-9l.3-.4h24.8l.3.4c1.9,2.6,2.9,5.8,2.9,9,0,8.6-7,15.6-15.6,15.6ZM194.9,197.6c-1.4,2.2-2.2,4.8-2.2,7.4,0,7.5,6.1,13.6,13.6,13.6s13.6-6.1,13.6-13.6-.8-5.2-2.2-7.4h-22.7Z"/>
      <path class="st1" d="M310.5,220.6c-8.6,0-15.6-7-15.6-15.6s1-6.3,2.9-9l.3-.4h24.8l.3.4c1.9,2.6,2.9,5.8,2.9,9,0,8.6-7,15.6-15.6,15.6ZM299.1,197.6c-1.4,2.2-2.2,4.8-2.2,7.4,0,7.5,6.1,13.6,13.6,13.6s13.6-6.1,13.6-13.6-.8-5.2-2.2-7.4h-22.7Z"/>
      <path class="st1" d="M152.1,256.2c-8.6,0-15.6-7-15.6-15.6s1-6.3,2.9-9l.3-.4h24.8l.3.4c1.9,2.6,2.9,5.8,2.9,9,0,8.6-7,15.6-15.6,15.6ZM140.7,233.2c-1.4,2.2-2.2,4.8-2.2,7.4,0,7.5,6.1,13.6,13.6,13.6s13.6-6.1,13.6-13.6-.8-5.2-2.2-7.4h-22.7Z"/>
      <path class="st1" d="M117.3,256.2c-8.6,0-15.6-7-15.6-15.6s1-6.3,2.9-9l.3-.4h24.8l.3.4c1.9,2.6,2.9,5.8,2.9,9,0,8.6-7,15.6-15.6,15.6ZM105.9,233.2c-1.4,2.2-2.2,4.8-2.2,7.4,0,7.5,6.1,13.6,13.6,13.6s13.6-6.1,13.6-13.6-.8-5.2-2.2-7.4h-22.7Z"/>
      <path class="st1" d="M82.8,256.2c-8.6,0-15.6-7-15.6-15.6s1-6.3,2.9-9l.3-.4h24.8l.3.4c1.9,2.6,2.9,5.8,2.9,9,0,8.6-7,15.6-15.6,15.6ZM71.4,233.2c-1.4,2.2-2.2,4.8-2.2,7.4,0,7.5,6.1,13.6,13.6,13.6s13.6-6.1,13.6-13.6-.8-5.2-2.2-7.4h-22.7Z"/>
      <path class="st1" d="M187,256.2c-8.6,0-15.6-7-15.6-15.6s1-6.3,2.9-9l.3-.4h24.8l.3.4c1.9,2.6,2.9,5.8,2.9,9,0,8.6-7,15.6-15.6,15.6ZM175.6,233.2c-1.4,2.2-2.2,4.8-2.2,7.4,0,7.5,6.1,13.6,13.6,13.6s13.6-6.1,13.6-13.6-.8-5.2-2.2-7.4h-22.7Z"/>
      <path class="st1" d="M221.9,256.2c-8.6,0-15.6-7-15.6-15.6s1-6.3,2.9-9l.3-.4h24.8l.3.4c1.9,2.6,2.9,5.8,2.9,9,0,8.6-7,15.6-15.6,15.6ZM210.5,233.2c-1.4,2.2-2.2,4.8-2.2,7.4,0,7.5,6.1,13.6,13.6,13.6s13.6-6.1,13.6-13.6-.8-5.2-2.2-7.4h-22.7Z"/>
      <path class="st1" d="M445.6,256.2c-8.6,0-15.6-7-15.6-15.6s1-6.3,2.9-9l.3-.4h24.8l.3.4c1.9,2.6,2.9,5.8,2.9,9,0,8.6-7,15.6-15.6,15.6ZM434.3,233.2c-1.4,2.2-2.2,4.8-2.2,7.4,0,7.5,6.1,13.6,13.6,13.6s13.6-6.1,13.6-13.6-.8-5.2-2.2-7.4h-22.7Z"/>
      <path class="st1" d="M410.8,256.2c-8.6,0-15.6-7-15.6-15.6s1-6.3,2.9-9l.3-.4h24.8l.3.4c1.9,2.6,2.9,5.7,2.9,9,0,8.6-7,15.6-15.6,15.6ZM399.4,233.2c-1.4,2.2-2.2,4.8-2.2,7.4,0,7.5,6.1,13.6,13.6,13.6s13.6-6.1,13.6-13.6-.8-5.2-2.2-7.4h-22.7Z"/>
      <path class="st1" d="M480.5,256.2c-8.6,0-15.6-7-15.6-15.6s1-6.3,2.9-9l.3-.4h24.8l.3.4c1.9,2.6,2.9,5.8,2.9,9,0,8.6-7,15.6-15.6,15.6ZM469.2,233.2c-1.4,2.2-2.2,4.8-2.2,7.4,0,7.5,6.1,13.6,13.6,13.6s13.6-6.1,13.6-13.6-.8-5.2-2.2-7.4h-22.7Z"/>
      <path class="st1" d="M515.4,256.2c-8.6,0-15.6-7-15.6-15.6s1-6.3,2.9-9l.3-.4h24.8l.3.4c1.9,2.6,2.9,5.7,2.9,9,0,8.6-7,15.6-15.6,15.6ZM504.1,233.2c-1.4,2.2-2.2,4.8-2.2,7.4,0,7.5,6.1,13.6,13.6,13.6s13.6-6.1,13.6-13.6-.8-5.2-2.2-7.4h-22.7Z"/>
      <path class="st1" d="M345.4,220.6c-8.6,0-15.6-7-15.6-15.6s1-6.3,2.9-9l.3-.4h24.8l.3.4c1.9,2.6,2.9,5.8,2.9,9,0,8.6-7,15.6-15.6,15.6ZM334.1,197.6c-1.4,2.2-2.2,4.8-2.2,7.4,0,7.5,6.1,13.6,13.6,13.6s13.6-6.1,13.6-13.6-.8-5.2-2.2-7.4h-22.7Z"/>
      <path class="st1" d="M378.8,220.6c-8.6,0-15.6-7-15.6-15.6s1-6.3,2.9-9l.3-.4h24.8l.3.4c1.9,2.6,2.9,5.8,2.9,9,0,8.6-7,15.6-15.6,15.6ZM367.4,197.6c-1.4,2.2-2.2,4.8-2.2,7.4,0,7.5,6.1,13.6,13.6,13.6s13.6-6.1,13.6-13.6-.8-5.2-2.2-7.4h-22.7Z"/>
      <path class="st1" d="M413.4,220.6c-8.6,0-15.6-7-15.6-15.6s1-6.3,2.9-9l.3-.4h24.8l.3.4c1.9,2.6,2.9,5.8,2.9,9,0,8.6-7,15.6-15.6,15.6ZM402.1,197.6c-1.4,2.2-2.2,4.8-2.2,7.4,0,7.5,6.1,13.6,13.6,13.6s13.6-6.1,13.6-13.6-.8-5.2-2.2-7.4h-22.7Z"/>
      <path class="st1" d="M446.8,220.6c-8.6,0-15.6-7-15.6-15.6s1-6.3,2.9-9l.3-.4h24.8l.3.4c1.9,2.6,2.9,5.8,2.9,9,0,8.6-7,15.6-15.6,15.6ZM435.4,197.6c-1.4,2.2-2.2,4.8-2.2,7.4,0,7.5,6.1,13.6,13.6,13.6s13.6-6.1,13.6-13.6-.8-5.2-2.2-7.4h-22.7Z"/>
      <path class="st1" d="M479.7,154.5c-8.6,0-15.6-7-15.6-15.6s1-6.3,2.9-9l.3-.4h24.8l.3.4c1.9,2.6,2.9,5.7,2.9,9,0,8.6-7,15.6-15.6,15.6ZM468.3,131.5c-1.4,2.2-2.2,4.8-2.2,7.4,0,7.5,6.1,13.6,13.6,13.6s13.6-6.1,13.6-13.6-.8-5.2-2.2-7.4h-22.7Z"/>
      <path class="st1" d="M359,119.1c-8.6,0-15.6-7-15.6-15.6s1-6.3,2.9-9l.3-.4h24.8l.3.4c1.9,2.6,2.9,5.7,2.9,9,0,8.6-7,15.6-15.6,15.6ZM347.6,96.1c-1.4,2.2-2.2,4.8-2.2,7.4,0,7.5,6.1,13.6,13.6,13.6s13.6-6.1,13.6-13.6-.8-5.2-2.2-7.4h-22.7Z"/>
      <path class="st1" d="M393.2,119.1c-8.6,0-15.6-7-15.6-15.6s1-6.3,2.9-9l.3-.4h24.8l.3.4c1.9,2.6,2.9,5.7,2.9,9,0,8.6-7,15.6-15.6,15.6ZM381.8,96.1c-1.4,2.2-2.2,4.8-2.2,7.4,0,7.5,6.1,13.6,13.6,13.6s13.6-6.1,13.6-13.6-.8-5.2-2.2-7.4h-22.7Z"/>
      <path class="st1" d="M427.5,119.1c-8.6,0-15.6-7-15.6-15.6s1-6.3,2.9-9l.3-.4h24.8l.3.4c1.9,2.6,2.9,5.7,2.9,9,0,8.6-7,15.6-15.6,15.6ZM416.1,96.1c-1.4,2.2-2.2,4.8-2.2,7.4,0,7.5,6.1,13.6,13.6,13.6s13.6-6.1,13.6-13.6-.8-5.2-2.2-7.4h-22.7Z"/>
      <path class="st1" d="M461.7,119.1c-8.6,0-15.6-7-15.6-15.6s1-6.3,2.9-9l.3-.4h24.8l.3.4c1.9,2.6,2.9,5.7,2.9,9,0,8.6-7,15.6-15.6,15.6ZM450.4,96.1c-1.4,2.2-2.2,4.8-2.2,7.4,0,7.5,6.1,13.6,13.6,13.6s13.6-6.1,13.6-13.6-.8-5.2-2.2-7.4h-22.7Z"/>
      <path class="st1" d="M513.1,119.1h-21c-6.9,0-12.5-5.6-12.5-12.5v-3.1c0-3.5,1.5-6.8,4-9.2l.3-.3h37.4l.3.3c2.6,2.4,4,5.7,4,9.2v3.1c0,6.9-5.6,12.5-12.5,12.5ZM484.7,96.1c-2,2-3.1,4.6-3.1,7.4v3.1c0,5.8,4.7,10.5,10.5,10.5h21c5.8,0,10.5-4.7,10.5-10.5v-3.1c0-2.8-1.1-5.4-3.1-7.4h-35.8Z"/>
      <path class="st1" d="M99,154.5h-17.3c-6.9,0-12.5-5.6-12.5-12.5v-3.1c0-3.5,1.5-6.8,4-9.2l.3-.3h33.6l.3.3c2.6,2.4,4,5.7,4,9.2v3.1c0,6.9-5.6,12.5-12.5,12.5ZM74.4,131.5c-2,2-3.1,4.6-3.1,7.4v3.1c0,5.8,4.7,10.5,10.5,10.5h17.3c5.8,0,10.5-4.7,10.5-10.5v-3.1c0-2.8-1.1-5.4-3.1-7.4h-32Z"/>
      <path class="st1" d="M104,186.8h-22.3c-6.9,0-12.5-5.6-12.5-12.5v-3.1c0-3.5,1.5-6.8,4-9.2l.3-.3h38.6l.3.3c2.6,2.4,4,5.7,4,9.2v3.1c0,6.9-5.6,12.5-12.5,12.5ZM74.4,163.9c-2,2-3.1,4.6-3.1,7.4v3.1c0,5.8,4.7,10.5,10.5,10.5h22.3c5.8,0,10.5-4.7,10.5-10.5v-3.1c0-2.8-1.1-5.4-3.1-7.4h-37Z"/>
      <path class="st1" d="M130,220.6h-48.3c-6.9,0-12.5-5.6-12.5-12.5v-3.1c0-3.5,1.5-6.8,4-9.2l.3-.3h64.6l.3.3c2.6,2.4,4,5.7,4,9.2v3.1c0,6.9-5.6,12.5-12.5,12.5ZM74.4,197.6c-2,2-3.1,4.6-3.1,7.4v3.1c0,5.8,4.7,10.5,10.5,10.5h48.3c5.8,0,10.5-4.7,10.5-10.5v-3.1c0-2.8-1.1-5.4-3.1-7.4h-63Z"/>
      <path class="st1" d="M379.3,256.2h-126.3c-6.9,0-12.5-5.6-12.5-12.5v-3.1c0-3.5,1.5-6.8,4-9.2l.3-.3h142.6l.3.3c2.6,2.4,4,5.7,4,9.2v3.1c0,6.9-5.6,12.5-12.5,12.5ZM245.7,233.2c-2,2-3.1,4.7-3.1,7.4v3.1c0,5.8,4.7,10.5,10.5,10.5h126.3c5.8,0,10.5-4.7,10.5-10.5v-3.1c0-2.8-1.1-5.5-3.1-7.4h-141Z"/>
      <path class="st1" d="M516.7,220.6h-39.3c-6.9,0-12.5-5.6-12.5-12.5v-3.1c0-3.5,1.5-6.8,4-9.2l.3-.3h55.6l.3.3c2.6,2.4,4,5.7,4,9.2v3.1c0,6.9-5.6,12.5-12.5,12.5ZM470.1,197.6c-2,2-3.1,4.6-3.1,7.4v3.1c0,5.8,4.7,10.5,10.5,10.5h39.3c5.8,0,10.5-4.7,10.5-10.5v-3.1c0-2.8-1.1-5.4-3.1-7.4h-54Z"/>
      <path class="st1" d="M149.7,186.8h-17.3c-6.9,0-12.5-5.6-12.5-12.5v-3.1c0-3.5,1.5-6.8,4-9.2l.3-.3h33.6l.3.3c2.6,2.4,4,5.7,4,9.2v3.1c0,6.9-5.6,12.5-12.5,12.5ZM125.1,163.9c-2,2-3.1,4.6-3.1,7.4v3.1c0,5.8,4.7,10.5,10.5,10.5h17.3c5.8,0,10.5-4.7,10.5-10.5v-3.1c0-2.8-1.1-5.4-3.1-7.4h-32Z"/>
      <path class="st1" d="M139.9,154.5h-13.3c-6.9,0-12.5-5.6-12.5-12.5v-3.1c0-3.5,1.5-6.8,4-9.2l.3-.3h29.6l.3.3c2.6,2.4,4,5.7,4,9.2v3.1c0,6.9-5.6,12.5-12.5,12.5ZM119.2,131.5c-2,2-3.1,4.6-3.1,7.4v3.1c0,5.8,4.7,10.5,10.5,10.5h13.3c5.8,0,10.5-4.7,10.5-10.5v-3.1c0-2.8-1.1-5.4-3.1-7.4h-28Z"/>
      <path class="st1" d="M173,220.6h-14.3c-6.9,0-12.5-5.6-12.5-12.5v-3.1c0-3.5,1.5-6.8,4-9.2l.3-.3h31.6l.3.3c2.6,2.4,4,5.7,4,9.2v3.1c0,6.7-6.3,12.5-13.5,12.5ZM151.3,197.6c-2,2-3.1,4.6-3.1,7.4v3.1c0,5.8,4.7,10.5,10.5,10.5h14.3c6.1,0,11.5-4.9,11.5-10.5v-3.1c0-2.8-1.1-5.4-3.1-7.4h-30Z"/>
      <path class="st1" d="M515.2,186.8h-30.3c-6.9,0-12.5-5.6-12.5-12.5v-3.1c0-3.5,1.5-6.8,4-9.2l.3-.3h21.2v-24.7c0-4.8,3.9-8.6,8.6-8.6h12.4c4.8,0,8.6,3.9,8.6,8.6v32.5c0,.6.1,1.1.1,1.6v3.1c0,6.9-5.6,12.5-12.5,12.5ZM477.6,163.9c-2,2-3.1,4.6-3.1,7.4v3.1c0,5.8,4.7,10.5,10.5,10.5h30.3c5.8,0,10.5-4.7,10.5-10.5v-3.1c0-.4,0-.8,0-1.4h0v-32.7c0-3.6-3-6.6-6.6-6.6h-12.4c-3.6,0-6.6,3-6.6,6.6v26.7h-22.4Z"/>
    </g>
  </g>
</svg>