<?xml version="1.0" encoding="UTF-8"?>
<svg id="Layer_1" xmlns="http://www.w3.org/2000/svg" version="1.1" viewBox="0 0 295.8 77.5">
  <!-- Generator: Adobe Illustrator 29.5.1, SVG Export Plug-In . SVG Version: 2.1.0 Build 141)  -->
  <defs>
    <style>
      .st0 {
        fill: #fff;
      }

      .st1 {
        stroke: #000;
        stroke-miterlimit: 10;
      }
    </style>
  </defs>
  <rect class="st1" x="9.8" y="6.7" width="275.7" height="64.4" rx="10" ry="10"/>
  <g>
    <path class="st0" d="M65.2,36.4v25.2h-27.4c-4.3,0-7.7-3.2-7.7-7.3v-12h28.7v-5.9c0-.7-.6-1.2-1.3-1.2h-27.4v-6h27.4c4.3,0,7.7,3.2,7.7,7.3h0ZM58.8,48.3h-22.2v5.9c0,.7.6,1.2,1.3,1.2h20.9v-7.2h0Z"/>
    <path class="st0" d="M70.2,18.4h6.4v35.8c0,.7.6,1.2,1.3,1.2h6.4v6h-6.4c-4.3,0-7.7-3.2-7.7-7.3,0,0,0-35.7,0-35.7Z"/>
    <path class="st0" d="M94.7,35.1v19.2c0,.7.6,1.2,1.3,1.2h12.8v6h-12.8c-4.3,0-7.7-3.2-7.7-7.3V18.4h6.4v10.6h14.2v6h-14.2Z"/>
    <path class="st0" d="M164.9,36.4v12h-28.7v5.9c0,.7.6,1.2,1.3,1.2h27.4v6h-27.4c-4.3,0-7.7-3.2-7.7-7.3v-17.9c0-4,3.5-7.3,7.7-7.3h19.6c4.3,0,7.7,3.2,7.7,7.3h0ZM158.4,42.3v-5.9c0-.7-.6-1.2-1.3-1.2h-19.6c-.7,0-1.3.6-1.3,1.2v5.9h22.2Z"/>
    <path class="st0" d="M222.9,36.4v25.2h-6.4v-25.2c0-.7-.6-1.2-1.4-1.2h-13.6c-.7,0-1.3.6-1.3,1.2v25.2h-6.4v-25.2c0-.7-.6-1.2-1.3-1.2h-13.7c-.7,0-1.3.6-1.3,1.2v25.2h-6.4V29.1h44.1c4.3,0,7.7,3.2,7.7,7.3h0Z"/>
    <path class="st0" d="M264.3,29.1v25.2c0,4-3.5,7.3-7.7,7.3h-19.6c-4.3,0-7.7-3.2-7.7-7.3v-25.2h6.4v25.2c0,.7.6,1.2,1.3,1.2h19.6c.7,0,1.3-.6,1.3-1.2v-25.2h6.4Z"/>
  </g>
  <path class="st0" d="M272.6,76.6H22.3c-8.2,0-14.9-8.5-14.9-19V22.2c0-10.5,6.7-19,14.9-19h250.3c8.2,0,14.9,8.5,14.9,19v35.4c0,10.5-6.7,19-14.9,19ZM22.3,9.2c-5.6,0-10.2,5.8-10.2,13v35.4c0,7.2,4.6,13,10.2,13h250.3c5.6,0,10.2-5.8,10.2-13V22.2c0-7.2-4.6-13-10.2-13,0,0-250.3,0-250.3,0Z"/>
</svg>