<?xml version="1.0" encoding="UTF-8"?>
<svg id="Layer_1" xmlns="http://www.w3.org/2000/svg" version="1.1" viewBox="0 0 18 18">
  <!-- Generator: Adobe Illustrator 29.4.0, SVG Export Plug-In . SVG Version: 2.1.0 Build 152)  -->
  <defs>
    <style>
      .st0 {
        fill: #fff;
      }
    </style>
  </defs>
  <path class="st0" d="M16.9,6.3h-.7v-1.3c0-.5-.4-.9-.9-.9H1.1c-.5,0-.9.4-.9.9v7.9c0,.5.4.9.9.9h14.3c.5,0,.9-.4.9-.9v-1.3h.7c.5,0,.9-.4.9-.9v-3.6c0-.5-.4-.9-.9-.9ZM15.1,12.7H1.3v-7.4h13.8v7.4Z"/>
  <path class="st0" d="M3.1,9.5h4.4l1.9,1.9s0,0,.1,0h1.7c.1,0,.2,0,.2-.2v-.8h1.5c.3,0,.5-.2.5-.5h0c0-.3-.2-.5-.5-.5h-1.5v-1h1.5c.3,0,.5-.2.5-.5h0c0-.3-.2-.5-.5-.5h-1.5v-.8c0-.1,0-.2-.2-.2h-1.7c0,0-.1,0-.1,0l-1.9,1.9H3.1c-.3,0-.5.2-.5.5s.2.5.5.5ZM10,8.5c.3,0,.5.2.5.5s-.2.5-.5.5-.5-.2-.5-.5.2-.5.5-.5Z"/>
</svg>