<?xml version="1.0" encoding="UTF-8"?>
<svg id="Layer_1" xmlns="http://www.w3.org/2000/svg" version="1.1" viewBox="0 0 367.5 77.5">
  <!-- Generator: Adobe Illustrator 29.5.1, SVG Export Plug-In . SVG Version: 2.1.0 Build 141)  -->
  <defs>
    <style>
      .st0 {
        fill: #fff;
      }

      .st1 {
        stroke: #000;
      }

      .st1, .st2 {
        stroke-miterlimit: 10;
      }

      .st2 {
        fill: none;
        stroke: #fff;
        stroke-width: 6px;
      }
    </style>
  </defs>
  <rect class="st1" x="10.4" y="8.8" width="350.5" height="64.4" rx="10" ry="10"/>
  <g>
    <path class="st0" d="M65.2,52.2v6h-27.4c-4.3,0-7.7-3.2-7.7-7.3v-17.9c0-4,3.5-7.3,7.7-7.3h27.2v6h-27.2c-.7,0-1.3.6-1.3,1.2v17.9c0,.7.6,1.2,1.3,1.2h27.4v.2Z"/>
    <path class="st0" d="M98.8,25.7c4.3,0,7.7,3.2,7.7,7.3v17.9c0,4-3.4,7.3-7.7,7.3h-19.6c-4.3,0-7.7-3.2-7.7-7.3v-17.9c0-4,3.5-7.3,7.7-7.3h19.6ZM79.1,31.8c-.7,0-1.3.6-1.3,1.2v17.9c0,.7.6,1.2,1.3,1.2h19.6c.7,0,1.3-.6,1.3-1.2v-17.9c0-.7-.6-1.2-1.3-1.2h-19.6Z"/>
    <path class="st0" d="M111.4,15.1h6.4v35.8c0,.7.6,1.2,1.3,1.2h6.4v6h-6.4c-4.3,0-7.7-3.2-7.7-7.3,0,0,0-35.7,0-35.7Z"/>
    <path class="st0" d="M129.4,15.1h6.4v35.8c0,.7.6,1.2,1.3,1.2h6.4v6h-6.4c-4.3,0-7.7-3.2-7.7-7.3V15.1Z"/>
    <path class="st0" d="M182.4,33v12h-28.7v5.9c0,.7.6,1.2,1.3,1.2h27.4v6h-27.4c-4.3,0-7.7-3.2-7.7-7.3v-17.9c0-4,3.5-7.3,7.7-7.3h19.6c4.3,0,7.7,3.2,7.7,7.3h0ZM176,39v-5.9c0-.7-.6-1.2-1.3-1.2h-19.6c-.7,0-1.3.6-1.3,1.2v5.9h22.2Z"/>
    <path class="st0" d="M223,52.2v6h-27.4c-4.3,0-7.7-3.2-7.7-7.3v-17.9c0-4,3.5-7.3,7.7-7.3h27.2v6h-27.2c-.7,0-1.3.6-1.3,1.2v17.9c0,.7.6,1.2,1.3,1.2h27.4v.2Z"/>
    <path class="st0" d="M234.6,31.8v19.2c0,.7.6,1.2,1.3,1.2h12.8v6h-12.8c-4.3,0-7.7-3.2-7.7-7.3V15.1h6.4v10.6h14.2v6h-14.2Z"/>
    <path class="st0" d="M258.9,15.1v6h-6.4v-6h6.4ZM252.5,25.7h6.4v32.5h-6.4V25.7Z"/>
    <path class="st0" d="M292.2,25.7c4.3,0,7.7,3.2,7.7,7.3v17.9c0,4-3.5,7.3-7.7,7.3h-19.6c-4.3,0-7.7-3.2-7.7-7.3v-17.9c0-4,3.5-7.3,7.7-7.3h19.6ZM272.5,31.8c-.7,0-1.3.6-1.3,1.2v17.9c0,.7.6,1.2,1.3,1.2h19.6c.7,0,1.3-.6,1.3-1.2v-17.9c0-.7-.6-1.2-1.3-1.2h-19.6Z"/>
    <path class="st0" d="M340.3,33v25.2h-6.4v-25.2c0-.7-.6-1.2-1.3-1.2h-19.6c-.7,0-1.3.6-1.3,1.2v25.2h-6.4V25.7h27.4c4.3,0,7.7,3.2,7.7,7.3h-.1Z"/>
  </g>
  <rect class="st2" x="10.4" y="6.2" width="351.4" height="67.4" rx="16" ry="16"/>
</svg>