<?xml version="1.0" encoding="UTF-8"?>
<svg id="Layer_1" xmlns="http://www.w3.org/2000/svg" version="1.1" viewBox="0 0 77.5 77.5">
  <!-- Generator: Adobe Illustrator 29.5.1, SVG Export Plug-In . SVG Version: 2.1.0 Build 141)  -->
  <defs>
    <style>
      .st0 {
        fill: #fff;
      }
    </style>
  </defs>
  <path class="st0" d="M62.7,36.9c-1.4,0-2.6-1.2-2.6-2.6v-5.4c0-2.4-2-4.5-4.5-4.5h-19.1c-.8,0-1.5-.3-2.1-1l-2.2-2.6c-.9-1.1-2.1-1.6-3.5-1.6h-6.9c-2.4,0-4.5,2-4.5,4.5v10.6c0,1.4-1.2,2.6-2.6,2.6s-2.6-1.2-2.6-2.6v-10.6c0-5.4,4.4-9.7,9.7-9.7h6.9c3,0,5.8,1.3,7.7,3.6l1.3,1.6h17.8c5.4,0,9.7,4.4,9.7,9.7v5.4c0,1.4-1.2,2.6-2.6,2.6h.1Z"/>
  <path class="st0" d="M67.4,34.8c-1.5-2-3.8-3.2-6.3-3.2H16.4c-2.5,0-4.8,1.1-6.3,3.2-1.5,2-2.1,4.5-1.4,6.9l3.9,14.7c1.1,4.3,5,7.2,9.4,7.2h33.5c4.4,0,8.3-3,9.4-7.2l3.9-14.7c.7-2.4.1-4.9-1.4-6.9h0Z"/>
</svg>