<?xml version="1.0" encoding="utf-8"?>
<!-- Generator: Adobe Illustrator 27.9.6, SVG Export Plug-In . SVG Version: 9.03 Build 54986)  -->
<svg version="1.1" id="Layer_1" xmlns="http://www.w3.org/2000/svg" xmlns:xlink="http://www.w3.org/1999/xlink" x="0px" y="0px"
	 viewBox="0 0 20 20" style="enable-background:new 0 0 20 20;" xml:space="preserve">
<style type="text/css">
	.st0{fill:#A30514;}
</style>
<g>
	<g>
		<path class="st0" d="M18.6,9.6h-3c0-0.6-0.2-1.3-0.4-1.8l0,0c0-0.1-0.1-0.1-0.1-0.2V7.5c0,0,0-0.1-0.1-0.1
			c-0.2-0.4-0.5-0.8-0.8-1.1l2.1-2.1c0.1-0.1,0.1-0.4,0-0.5s-0.4-0.1-0.5,0l-2.1,2.1c-0.9-0.8-2.1-1.3-3.4-1.4v-3
			c0-0.2-0.2-0.4-0.4-0.4S9.5,1.2,9.5,1.4v3c-0.5,0-1,0.2-1.6,0.4l0,0H7.8l0,0H7.7l0,0H7.6l0,0H7.5l0,0c0,0,0,0-0.1,0l0,0
			c0,0,0,0-0.1,0c0,0,0,0-0.1,0c0,0,0,0-0.1,0c0,0,0,0-0.1,0l0,0c0,0,0,0-0.1,0l0,0c0,0,0,0-0.1,0l0,0c0,0-0.1,0-0.1,0.1l0,0
			c0,0-0.1,0-0.1,0.1l0,0c0,0-0.1,0-0.1,0.1l0,0c0,0-0.1,0-0.1,0.1l0,0c0,0-0.1,0-0.1,0.1l0,0L6.2,5.4l0,0l-2-1.7
			c-0.1-0.1-0.4-0.1-0.5,0s-0.1,0.4,0,0.5l2.1,2.1C5,7.2,4.5,8.4,4.4,9.6h-3C1.2,9.6,1,9.8,1,10s0.2,0.4,0.4,0.4h3
			c0,0.6,0.2,1.3,0.4,1.8l0,0c0,0.1,0.1,0.1,0.1,0.2c0,0,0,0.1,0.1,0.1v0.1c0.2,0.4,0.5,0.8,0.8,1.1l-2.1,2.1
			c-0.1,0.1-0.1,0.4,0,0.5s0.4,0.1,0.5,0l2.1-2.1C6.6,14.5,7,14.8,7.4,15c0,0,0,0,0.1,0c0,0,0.1,0,0.1,0.1c0.1,0,0.1,0.1,0.2,0.1
			l0,0c0.6,0.2,1.2,0.4,1.8,0.4v3c0,0.2,0.2,0.4,0.4,0.4s0.4-0.2,0.4-0.4v-3c0.6,0,1.2-0.2,1.8-0.4l0,0c0.1,0,0.1,0,0.2-0.1
			c0,0,0.1,0,0.1-0.1c0,0,0,0,0.1,0c0.4-0.2,0.8-0.5,1.1-0.8l2.1,2.1c0.1,0.1,0.4,0.1,0.5,0s0.1-0.4,0-0.5l-2.1-2.1
			c0.3-0.4,0.6-0.7,0.8-1.1c0,0,0-0.1,0.1-0.1v-0.1c0-0.1,0.1-0.1,0.1-0.2l0,0c0.2-0.6,0.4-1.2,0.4-1.8h3c0.2,0,0.4-0.2,0.4-0.4
			C18.9,9.8,18.8,9.6,18.6,9.6z M10.4,5.1c0.5,0,0.9,0.1,1.3,0.3l0,0c0.1,0,0.1,0,0.2,0.1c0,0,0.1,0,0.1,0.1l0,0
			c0.4,0.2,0.8,0.4,1.1,0.7l-1.4,1.4c-0.1,0.1-0.1,0.4,0,0.5s0.4,0.1,0.5,0l1.4-1.4c0.3,0.3,0.5,0.7,0.7,1.1c0,0,0,0,0,0.1
			c0,0,0,0.1,0.1,0.1c0.2,0.5,0.3,1,0.4,1.5h-1.9h-0.1c-1.5-0.3-2.2-1-2.5-2.5l0,0L10.4,5.1L10.4,5.1z M5.4,8.3L5.4,8.3
			c0-0.1,0.1-0.1,0.1-0.2C5.7,7.6,6,7.2,6.3,6.8l1.4,1.4c0.1,0.1,0.4,0.1,0.5,0s0.1-0.4,0-0.5L6.8,6.3C7.2,6,7.6,5.7,8.1,5.5h0.1
			c0,0,0,0,0.1,0c0.4-0.2,0.9-0.2,1.3-0.3v1.9l0,0c-0.3,1.5-1,2.2-2.5,2.5H7H5.1C5.2,9.2,5.2,8.7,5.4,8.3z M9.6,14.9
			c-0.5,0-0.9-0.1-1.3-0.3l0,0c-0.1,0-0.1,0-0.2-0.1c-0.1,0-0.1-0.1-0.2-0.1l0,0c-0.4-0.2-0.8-0.4-1.1-0.7l1.4-1.4
			c0.1-0.1,0.1-0.4,0-0.5s-0.4-0.1-0.5,0l-1.4,1.4c-0.3-0.3-0.5-0.7-0.7-1.1l0,0c0-0.1,0-0.1-0.1-0.2c0-0.1,0-0.1-0.1-0.2l0,0
			c-0.2-0.4-0.3-0.9-0.3-1.3H7h0.1c1.5,0.3,2.2,1,2.5,2.5l0,0V14.9z M14.5,11.9c0,0,0,0.1-0.1,0.1l0,0c-0.2,0.4-0.4,0.8-0.7,1.1
			l-1.4-1.4c-0.1-0.1-0.4-0.1-0.5,0s-0.1,0.4,0,0.5l1.4,1.4c-0.3,0.3-0.7,0.5-1.1,0.7l0,0c-0.1,0-0.1,0-0.2,0.1
			c-0.1,0-0.1,0-0.2,0.1l0,0c-0.4,0.2-0.9,0.3-1.3,0.3v-1.9l0,0c0.3-1.5,1-2.2,2.5-2.5H13h1.9C14.8,10.9,14.7,11.4,14.5,11.9z"/>
	</g>
</g>
</svg>
