<?xml version="1.0" encoding="utf-8"?>
<!-- Generator: Adobe Illustrator 27.9.6, SVG Export Plug-In . SVG Version: 9.03 Build 54986)  -->
<svg version="1.1" id="Layer_1" xmlns="http://www.w3.org/2000/svg" xmlns:xlink="http://www.w3.org/1999/xlink" x="0px" y="0px"
	 viewBox="0 0 20 20" style="enable-background:new 0 0 20 20;" xml:space="preserve">
<style type="text/css">
	.st0{fill:#A30514;}
</style>
<path class="st0" d="M18.3,9.4h-7l4.9-4.9c0.2-0.2,0.2-0.6,0-0.8l0,0c-0.2-0.2-0.6-0.2-0.8,0l-4.9,4.9v-7c0-0.3-0.2-0.6-0.6-0.6l0,0
	C9.6,1,9.3,1.2,9.3,1.6v7L4.5,3.7c-0.2-0.2-0.6-0.2-0.8,0l0,0c-0.2,0.2-0.2,0.6,0,0.8l4.9,4.9h-7C1.3,9.4,1,9.6,1,10l0,0
	c0,0.3,0.2,0.6,0.6,0.6h7l-4.9,4.9c-0.2,0.2-0.2,0.6,0,0.8l0,0c0.2,0.2,0.6,0.2,0.8,0l4.9-4.9v7c0,0.3,0.2,0.6,0.6,0.6l0,0
	c0.3,0,0.6-0.2,0.6-0.6v-7l4.9,4.9c0.2,0.2,0.6,0.2,0.8,0l0,0c0.2-0.2,0.2-0.6,0-0.8l-4.9-4.9h7c0.3,0,0.6-0.2,0.6-0.6l0,0
	C18.9,9.7,18.6,9.4,18.3,9.4z"/>
</svg>
