<?xml version="1.0" encoding="utf-8"?>
<!-- Generator: Adobe Illustrator 27.9.6, SVG Export Plug-In . SVG Version: 9.03 Build 54986)  -->
<svg version="1.1" id="Layer_1" xmlns="http://www.w3.org/2000/svg" xmlns:xlink="http://www.w3.org/1999/xlink" x="0px" y="0px"
	 viewBox="0 0 20 20" style="enable-background:new 0 0 20 20;" xml:space="preserve">
<style type="text/css">
	.st0{fill:#A30514;}
</style>
<path class="st0" d="M16.7,12.5c0.6-0.7,1-1.4,1.1-2.2C18.6,9.4,19,8.4,19,7.4c0-1.5-1-3-2.7-4.1S12.4,1.7,10,1.7S5.4,2.3,3.7,3.4
	C1.9,4.4,1,5.9,1,7.4c0,1,0.4,2,1.2,2.8c0.1,0.8,0.5,1.5,1.1,2.2c0.1,0.8,0.4,1.6,1.1,2.2l0,0c0,1,0.6,1.9,1.7,2.6
	c1,0.7,2.4,1,3.9,1s2.9-0.4,3.9-1c1.1-0.7,1.7-1.6,1.7-2.6l0,0C16.3,14,16.7,13.3,16.7,12.5z M10,14.3c-1.7,0-3.3-0.4-4.6-1
	c0.2-0.3,0.5-0.5,0.8-0.7c1.2,0.3,2.4,0.5,3.7,0.5s2.6-0.2,3.7-0.5c0.3,0.2,0.6,0.5,0.8,0.7C13.3,14,11.7,14.3,10,14.3z M14.8,13.8
	c0.1,0.2,0.2,0.4,0.2,0.7c-0.2,0.2-0.4,0.3-0.6,0.4C13.3,15.6,11.7,16,10,16s-3.3-0.4-4.4-1.1c-0.2-0.1-0.4-0.3-0.6-0.4
	c0-0.3,0-0.5,0.2-0.7c1.4,0.7,3.1,1,4.8,1S13.5,14.5,14.8,13.8z M2.6,9.9c0-2.5,3.3-4.5,7.4-4.5s7.4,2,7.4,4.5c0,0.1,0,0.1,0,0.2
	c-0.3,0.3-0.6,0.6-1,0.8c-0.3-0.6-0.9-1.2-1.7-1.7C13.5,8.4,11.8,8,10,8S6.5,8.4,5.3,9.2c-0.8,0.5-1.3,1-1.7,1.7
	c-0.4-0.3-0.7-0.5-1-0.8C2.6,10,2.6,9.9,2.6,9.9z M13.8,12.1c-1-0.6-2.4-0.9-3.8-0.9s-2.8,0.3-3.8,0.9c-0.8-0.2-1.5-0.6-2.1-0.9
	c0.3-0.6,0.8-1.1,1.5-1.5C6.7,8.9,8.3,8.5,10,8.5s3.3,0.4,4.4,1.1c0.7,0.4,1.2,0.9,1.5,1.5C15.3,11.5,14.6,11.8,13.8,12.1z
	 M13.1,12.3c-1,0.2-2,0.3-3.1,0.3s-2.1-0.1-3.1-0.3c0.9-0.4,1.9-0.6,3.1-0.6C11.1,11.7,12.2,11.9,13.1,12.3z M16.6,11.4
	c0.2-0.1,0.4-0.3,0.6-0.4c-0.1,0.3-0.3,0.6-0.5,0.8C16.7,11.6,16.6,11.5,16.6,11.4z M3.4,11.4c0,0.1-0.1,0.3-0.1,0.4
	c-0.2-0.3-0.4-0.5-0.5-0.8C3,11.1,3.2,11.2,3.4,11.4z M3.9,11.6C4.4,12,5,12.2,5.7,12.4c-0.3,0.2-0.5,0.4-0.7,0.7
	c-0.5-0.3-0.9-0.6-1.2-0.9C3.8,12,3.8,11.8,3.9,11.6z M14.3,12.4c0.6-0.2,1.2-0.5,1.8-0.8c0.1,0.2,0.1,0.4,0.1,0.6
	c-0.3,0.3-0.7,0.6-1.2,0.9C14.8,12.9,14.6,12.7,14.3,12.4z M10,2.2c4.7,0,8.5,2.3,8.5,5.2c0,0.7-0.2,1.4-0.7,2
	c-0.2-1.2-1-2.3-2.3-3.1C14,5.4,12.1,4.9,10,4.9S6,5.4,4.5,6.3c-1.4,0.8-2.2,2-2.3,3.1c-0.4-0.6-0.7-1.3-0.7-2
	C1.5,4.6,5.3,2.2,10,2.2z M3.9,13c0.2,0.1,0.4,0.3,0.6,0.4c0.1,0,0.2,0.1,0.2,0.1c-0.1,0.2-0.1,0.3-0.2,0.5C4.2,13.7,4,13.4,3.9,13z
	 M13.6,16.8c-1,0.6-2.3,0.9-3.6,0.9c-1.4,0-2.7-0.3-3.6-0.9c-0.8-0.5-1.2-1.1-1.4-1.7c0.1,0.1,0.2,0.1,0.3,0.2
	c1.3,0.8,2.9,1.2,4.7,1.2s3.5-0.4,4.7-1.2c0.1-0.1,0.2-0.1,0.3-0.2C14.9,15.8,14.4,16.4,13.6,16.8z M15.3,13.6
	c0.1,0,0.2-0.1,0.2-0.1c0.2-0.1,0.4-0.3,0.6-0.4c-0.1,0.3-0.3,0.7-0.6,1C15.4,13.9,15.4,13.7,15.3,13.6z"/>
</svg>
