<?xml version="1.0" encoding="utf-8"?>
<!-- Generator: Adobe Illustrator 27.9.6, SVG Export Plug-In . SVG Version: 9.03 Build 54986)  -->
<svg version="1.1" id="Layer_1" xmlns="http://www.w3.org/2000/svg" xmlns:xlink="http://www.w3.org/1999/xlink" x="0px" y="0px"
	 viewBox="0 0 20 20" style="enable-background:new 0 0 20 20;" xml:space="preserve">
<style type="text/css">
	.st0{fill:#A30514;}
</style>
<g>
	<g>
		<g>
			<g>
				<g>
					<path class="st0" d="M9.2,2.4c0,0.1,0,0.2,0,0.2c0,0.1,0,0.1,0,0.2v0.1c0,0.1,0,0.2,0.1,0.2c0,0.1,0.1,0.1,0.1,0.2
						c0,0.1,0.1,0.2,0.1,0.2s0.1,0.1,0,0.2c0,0.1,0,0.1,0,0.2c0,0.2-0.2,0.3-0.3,0.2c-0.1,0-0.1,0-0.2,0s-0.2,0-0.2,0.1
						C8.4,4.3,8.2,4.4,8.1,4.5c0,0,0,0.1-0.1,0.1C8,4.7,7.9,4.9,7.8,5c0,0.1,0,0.1-0.1,0.2c0,0.2-0.1,0.4-0.2,0.6
						c0,0.1,0,0.2-0.1,0.2c0,0.1,0,0.2,0,0.2s0,0.2,0,0.3c0,0.2,0,0.2-0.1,0.4c0,0.2-0.1,0.4-0.1,0.5C7.1,7.5,7,7.7,7,7.9
						C7,8,7,8.1,6.9,8.2C6.8,8.4,6.7,8.6,6.6,8.8C6.5,8.8,6.4,9,6.3,9.1c0,0.1-0.1,0.2-0.2,0.2C6,9.2,5.9,9.4,5.8,9.5
						S5.6,9.7,5.5,9.7S5.4,9.8,5.3,9.8c0,0-0.1,0-0.1,0.1c0,0,0,0.1,0.1,0.1c0,0,0,0,0.1,0s0.2,0,0.2-0.1c0.1,0,0.1-0.1,0.2-0.1
						s0.1,0,0.1,0c0,0.1,0,0.1,0,0.2c-0.1,0.1-0.1,0.2-0.2,0.2c0,0.1-0.1,0.1-0.1,0.2c-0.1,0.1-0.1,0.2-0.2,0.3v0.1
						c0,0,0,0.1,0.1,0.1h0.1c0-0.1,0.1-0.1,0.1-0.2c0.1-0.1,0.2-0.2,0.2-0.3l0,0l0,0l0,0c-0.1,0.2-0.2,0.3-0.2,0.4
						c0,0.1-0.1,0.1-0.1,0.2l0,0h0.1h0.1c0-0.2,0.1-0.2,0.2-0.3c0-0.1,0.1-0.2,0.2-0.2l0,0l0,0l0,0C6.1,10.7,6,10.8,6,10.9
						C6,11,5.9,11,5.9,11.1V11C6,11.1,6,11.1,6.1,11C5.9,11,6,11,6,10.9c0.1-0.2,0.2-0.2,0.2-0.4v-0.1v0.1c-0.1,0.2-0.1,0.2-0.2,0.4
						V11c0,0,0,0.1,0.1,0.1h0.1c0.1-0.1,0.1-0.2,0.2-0.2c0.1-0.2,0.2-0.5,0.3-0.6c0-0.2,0-0.3,0-0.4c0-0.2,0.1-0.3,0.2-0.4
						C7,9.2,7.1,9.2,7.1,9c0.1-0.1,0.2-0.2,0.2-0.2c0.1-0.1,0.2-0.2,0.2-0.2c0.1-0.1,0.2-0.2,0.2-0.3C7.9,8,8.1,7.9,8.1,7.7V7.6
						c0-0.2,0-0.3,0.1-0.5s0.1-0.3,0.2-0.5c0-0.1,0.1-0.2,0.2-0.2l0,0c0,0.2,0.1,0.3,0.2,0.5S9,7.3,9,7.5c0,0.1,0,0.2,0,0.2
						C9,7.8,8.9,7.9,8.9,8c0,0.1-0.1,0.2,0,0.3c0,0.1,0,0.1,0,0.2C8.6,8.6,8.5,8.8,8.5,8.8c0,0.2,0,0.2,0,0.4c0,0.1,0,0.2,0,0.2
						C8.4,9.7,8.3,10,8.3,10.2c-0.1,0.2-0.1,0.5-0.1,0.7c0,0.3-0.1,0.6,0,1c0,0.2,0,0.3,0.1,0.4c0,0.1,0.1,0.2,0,0.3
						c-0.1,0.2-0.1,0.3-0.1,0.5c0,0.1,0,0.1,0,0.1C8.1,13.4,8,13.6,8,13.8S7.9,14,7.9,14.2c0,0.1,0,0.2,0,0.3c0,0.2,0,0.4,0,0.6
						S8,15.5,8,15.7s0,0.3,0,0.5c0,0.1,0,0.2,0,0.2c-0.1,0.1-0.1,0.2-0.1,0.3v0.1C7.8,16.9,7.8,17,7.7,17c-0.2,0.2-0.3,0.4-0.5,0.6
						c-0.1,0.1-0.1,0.2-0.1,0.2c0,0.2,0.3,0.3,0.5,0.2c0,0,0,0,0.1,0c0,0.1,0,0.1,0,0.1c0.1,0,0.2,0,0.2-0.1C8,17.9,8,17.8,8.1,17.7
						c0.1-0.2,0.2-0.2,0.2-0.2c0.2-0.1,0.2-0.2,0.2-0.3C8.5,17,8.4,17,8.4,17c0-0.1,0-0.2,0-0.2c0-0.2,0-0.2,0-0.4
						c0-0.2,0.1-0.3,0.1-0.5c0.1-0.2,0.1-0.4,0.2-0.6c0.1-0.2,0.2-0.4,0.2-0.6c0-0.2,0-0.3,0-0.5s0-0.4,0.1-0.6
						c0-0.1,0.1-0.2,0.1-0.2C9,13.2,9,13.1,9,13c0-0.2,0.1-0.3,0.1-0.6c0-0.1,0-0.2,0.1-0.2c0-0.2,0.1-0.2,0.2-0.4
						c0.1-0.2,0.1-0.2,0.2-0.4c0.1-0.2,0.2-0.6,0.2-1c0-0.1,0-0.1,0.1-0.1s0.1,0,0.2,0c0,0,0.1,0,0.1,0.1c0,0.4,0.2,0.9,0.3,1.3
						c0.1,0.2,0.2,0.5,0.2,0.7c0.1,0,0.1,0.2,0.1,0.4c0,0.1,0,0.2,0.1,0.2c0.1,0.2,0.1,0.3,0.2,0.5c0.1,0.2,0.1,0.3,0.1,0.5
						s0,0.4,0,0.6s0.1,0.3,0.2,0.6c0.1,0.1,0.1,0.2,0.2,0.3c0.1,0.2,0.1,0.3,0.2,0.4c0,0.2,0.1,0.3,0.1,0.5s0,0.3,0,0.5
						c0,0.1,0,0.1,0,0.2c-0.1,0.2,0,0.2,0.2,0.3c0.1,0.1,0.2,0.1,0.2,0.2c0.1,0.1,0.1,0.2,0.2,0.3c0,0.1,0.1,0.2,0.1,0.2
						c0.1,0,0.2,0,0.2,0c0-0.1,0,0,0.1,0l0,0c0.2,0.1,0.4-0.2,0.4-0.2c0-0.1,0-0.2-0.1-0.2c-0.1-0.1-0.1-0.1-0.2-0.2
						c-0.1-0.1-0.2-0.2-0.3-0.4c-0.1-0.1-0.1-0.2-0.1-0.2c0-0.1,0-0.2,0-0.2c-0.1-0.1-0.1-0.2-0.1-0.3c0-0.3,0.1-0.6,0.1-0.8
						c0-0.1,0-0.2,0-0.2c0.1-0.2,0-0.4,0-0.6c0-0.2,0-0.2-0.1-0.4s-0.2-0.4-0.2-0.6c-0.1-0.1-0.1-0.2-0.1-0.4s0-0.2-0.1-0.4
						c0-0.1,0-0.2,0-0.2c0-0.1,0-0.1,0.1-0.2c0-0.2,0.1-0.3,0.1-0.5c0-0.4,0-0.7-0.1-1.1c0,0,0,0,0-0.1s0-0.2-0.1-0.3
						c0-0.1-0.1-0.2-0.1-0.3s-0.1-0.2-0.1-0.3s-0.1-0.2-0.1-0.2s0-0.2,0-0.3s0-0.2-0.1-0.3c0-0.1-0.1-0.2-0.2-0.3c0,0,0,0,0-0.1
						s0-0.1,0-0.2S11.2,8,11.2,7.9c-0.1-0.1-0.1-0.2-0.1-0.3c0-0.1,0-0.2,0.1-0.2c0.1-0.2,0.1-0.3,0.2-0.5c0.1-0.2,0.1-0.3,0.2-0.5
						l0,0l0,0c0.1,0.1,0.1,0.2,0.2,0.3c0,0.2,0.1,0.2,0.1,0.4c0,0.1,0.1,0.2,0.1,0.3c0,0.2,0.1,0.3,0.2,0.5c0.1,0.2,0.2,0.3,0.3,0.4
						c0.1,0.1,0.2,0.2,0.3,0.3S13,8.8,13,8.9c0,0.2,0,0.3,0.1,0.3c0,0.2,0.1,0.3,0.1,0.5s0.1,0.3,0.2,0.4c0.1,0.1,0.2,0.2,0.2,0.2
						c0.1,0.2,0.2,0.2,0.2,0.4c0,0.1,0.1,0.2,0.2,0.2h0.1c0-0.1,0-0.1,0-0.2c-0.1-0.2-0.2-0.2-0.2-0.4v-0.1c0,0,0,0,0,0.1
						c0.1,0.2,0.2,0.3,0.2,0.4c0,0.1,0.1,0.1,0.1,0.2c0.1,0.1,0.1,0.1,0.2,0c0-0.1,0-0.1,0-0.1c-0.1-0.2-0.2-0.3-0.2-0.5l0,0l0,0
						l0,0c0.1,0.2,0.2,0.2,0.2,0.4c0.1,0.1,0.1,0.2,0.2,0.2c0.1,0.1,0.1,0.1,0.2,0c0,0,0-0.1,0-0.2c-0.1-0.1-0.1-0.2-0.1-0.2
						c-0.1-0.2-0.2-0.2-0.2-0.4l0,0l0,0c0.1,0.1,0.1,0.2,0.2,0.2c0.1,0.1,0.2,0.2,0.2,0.3H15c0,0,0.1,0,0.1-0.1v-0.1
						C15,10.3,15,10.3,15,10.2c-0.1-0.2-0.2-0.3-0.3-0.5c0-0.1-0.1-0.2,0-0.2c0-0.1,0.1-0.1,0.1,0l0.1,0.1c0.1,0.1,0.2,0.1,0.2,0.1
						c0.1,0,0.1,0,0.1-0.1s0-0.1-0.1-0.1c-0.1-0.1-0.2-0.1-0.3-0.2c-0.1-0.1-0.2-0.2-0.2-0.2c-0.1-0.1-0.2-0.2-0.4-0.2h-0.1
						c-0.1-0.1-0.2-0.2-0.2-0.2c-0.1-0.1-0.2-0.2-0.2-0.3c-0.2-0.3-0.2-0.5-0.3-0.7S13.2,7.2,13.1,7c-0.1-0.1-0.2-0.2-0.2-0.4
						c0-0.1,0-0.2,0-0.2c0-0.2,0-0.2,0-0.4c0-0.2,0-0.4-0.2-0.6l0,0c-0.1-0.2-0.1-0.4-0.2-0.6c-0.1-0.2-0.1-0.2-0.2-0.3
						c0,0-0.1,0-0.1-0.1c-0.2-0.2-0.3-0.2-0.5-0.3c-0.1,0-0.1,0-0.2,0c-0.1,0-0.2-0.1-0.3,0c-0.2,0-0.2,0-0.3-0.2
						c-0.1-0.1-0.1-0.2-0.1-0.4c0,0,0,0,0-0.1c0.1-0.1,0.1-0.2,0.1-0.2s0-0.1,0.1-0.2c0.1-0.1,0.1-0.2,0.1-0.2c0-0.1,0-0.1,0-0.2
						v0.1V2.6c0-0.1,0-0.2,0-0.2C11,2.2,10.9,2.1,10.7,2c-0.6-0.1-0.9-0.1-1.2,0C9.4,2.1,9.3,2.3,9.2,2.4z"/>
				</g>
			</g>
		</g>
	</g>
</g>
</svg>
