<?xml version="1.0" encoding="utf-8"?>
<!-- Generator: Adobe Illustrator 27.9.6, SVG Export Plug-In . SVG Version: 9.03 Build 54986)  -->
<svg version="1.1" id="Layer_1" xmlns="http://www.w3.org/2000/svg" xmlns:xlink="http://www.w3.org/1999/xlink" x="0px" y="0px"
	 viewBox="0 0 20 20" style="enable-background:new 0 0 20 20;" xml:space="preserve">
<style type="text/css">
	.st0{fill:#A30514;}
</style>
<g>
	<g>
		<g>
			<g>
				<path class="st0" d="M9.9,16.2c-2.6,0-5-0.6-6.9-1.8S0.1,11.7,0.1,10c0-1.5,0.9-3,2.5-4.1c1.9-1.3,4.5-2.1,7.3-2.1
					s5.4,0.8,7.3,2.1c1.6,1.1,2.5,2.6,2.5,4.1c0,1.7-1,3.2-2.9,4.4C15,15.6,12.5,16.2,9.9,16.2z M9.9,4.3C7.4,4.3,5,5,3.3,6.2
					C1.8,7.2,1,8.6,1,10c0,1.5,0.9,3,2.6,4c1.7,1.1,3.9,1.7,6.3,1.7s4.6-0.6,6.3-1.7s2.6-2.5,2.6-4c0-1.4-0.8-2.7-2.3-3.8
					C14.9,5,12.5,4.3,9.9,4.3z"/>
			</g>
		</g>
	</g>
	<g>
		<g>
			<g>
				<path class="st0" d="M9.9,16.2c-2.6,0-5-0.6-6.9-1.8S0.1,11.7,0.1,10c0-1.5,0.9-3,2.5-4.1c1.9-1.3,4.5-2.1,7.3-2.1
					s5.4,0.8,7.3,2.1c1.6,1.1,2.5,2.6,2.5,4.1c0,1.7-1,3.2-2.9,4.4C15,15.6,12.5,16.2,9.9,16.2z M9.9,4.3C7.4,4.3,5,5,3.3,6.2
					C1.8,7.2,1,8.6,1,10c0,1.5,0.9,3,2.6,4c1.7,1.1,3.9,1.7,6.3,1.7s4.6-0.6,6.3-1.7s2.6-2.5,2.6-4c0-1.4-0.8-2.7-2.3-3.8
					C14.9,5,12.5,4.3,9.9,4.3z"/>
			</g>
		</g>
	</g>
	<g>
		<g>
			<g>
				<path class="st0" d="M9.9,8.3c-1,0-2.1-0.1-3.1-0.3s-2-0.6-2.9-1C3.5,6.8,3.1,6.5,2.7,6.2L2.4,6l0.3-0.2C4.6,4.5,7.2,3.7,10,3.7
					s5.4,0.8,7.3,2.1L17.5,6l-0.3,0.2c-0.4,0.3-0.8,0.5-1.3,0.8C15,7.4,14.1,7.8,13,8C12.1,8.2,11,8.3,9.9,8.3z M3.6,6
					c0.3,0.2,0.6,0.4,0.9,0.5c0.8,0.4,1.7,0.7,2.6,0.9C8,7.7,9,7.8,9.9,7.8c1,0,1.9-0.1,2.9-0.3c0.9-0.2,1.8-0.5,2.6-0.9
					C15.7,6.4,16,6.2,16.3,6c-1.7-1.1-4-1.7-6.4-1.7S5.2,4.9,3.6,6z"/>
			</g>
		</g>
	</g>
	<g>
		<g>
			<g>
				<path class="st0" d="M9.9,16.2c-2.6,0-5-0.6-6.9-1.8l-0.3-0.2L3.1,14c0.4-0.2,0.8-0.5,1.2-0.6C5.1,13,6,12.7,6.9,12.5
					c1-0.2,2-0.3,3-0.3s2,0.1,3,0.3s1.9,0.5,2.7,0.9c0.4,0.2,0.8,0.4,1.2,0.6l0.3,0.2l-0.3,0.2C15,15.6,12.5,16.2,9.9,16.2z M4,14.2
					c1.6,0.9,3.7,1.5,5.9,1.5s4.3-0.5,5.9-1.5c-0.2-0.1-0.5-0.3-0.8-0.4c-0.7-0.3-1.6-0.6-2.4-0.8c-0.9-0.2-1.8-0.3-2.7-0.3
					S8,12.8,7.2,13c-0.9,0.2-1.7,0.4-2.4,0.8C4.5,14,4.2,14.1,4,14.2z"/>
			</g>
		</g>
	</g>
	<g>
		<g>
			<g>
				<path class="st0" d="M9.9,16.2c-2,0-3.8-0.7-5.2-1.9c-1.3-1.2-2.1-2.7-2.1-4.4s0.7-3.2,2.1-4.4C6.1,4.4,8,3.8,9.9,3.8
					c2,0,3.8,0.7,5.2,1.9c1.3,1.2,2.1,2.7,2.1,4.4s-0.7,3.2-2.1,4.4C13.7,15.6,11.9,16.2,9.9,16.2z M9.9,4.3c-3.5,0-6.4,2.5-6.4,5.7
					s2.9,5.7,6.4,5.7s6.4-2.5,6.4-5.7S13.5,4.3,9.9,4.3z"/>
			</g>
		</g>
	</g>
	<g>
		<g>
			<g>
				<path class="st0" d="M9.9,16.2c-1.1,0-2-0.7-2.7-1.9c-0.6-1.2-1-2.7-1-4.3s0.3-3.1,1-4.3c0.7-1.3,1.6-1.9,2.7-1.9s2,0.7,2.7,1.9
					c0.6,1.2,1,2.7,1,4.3s-0.3,3.1-1,4.3C12,15.6,11,16.2,9.9,16.2z M9.9,4.3C9.3,4.3,8.5,4.9,8,5.9C7.5,7,7.1,8.4,7.1,10
					s0.3,3,0.9,4.1c0.5,1,1.2,1.6,1.9,1.6c0.6,0,1.4-0.6,1.9-1.6c0.6-1.1,0.9-2.6,0.9-4.1c0-1.6-0.3-3-0.9-4.1
					C11.3,4.9,10.6,4.3,9.9,4.3z"/>
			</g>
		</g>
	</g>
	<g>
		<g>
			<g>
				<rect x="0.6" y="9.7" class="st0" width="18.6" height="0.6"/>
			</g>
		</g>
	</g>
	<g>
		<g>
			<g>
				<rect x="9.5" y="4" class="st0" width="0.9" height="11.9"/>
			</g>
		</g>
	</g>
</g>
</svg>
