<?xml version="1.0" encoding="UTF-8"?>
<svg id="svg4" xmlns="http://www.w3.org/2000/svg" version="1.1" xmlns:inkscape="http://www.inkscape.org/namespaces/inkscape" xmlns:sodipodi="http://sodipodi.sourceforge.net/DTD/sodipodi-0.dtd" xmlns:svg="http://www.w3.org/2000/svg" viewBox="0 0 128 128">
  <!-- Generator: Adobe Illustrator 29.1.0, SVG Export Plug-In . SVG Version: 2.1.0 Build 142)  -->
  <defs>
    <style>
      .st0 {
        fill: #fff;
      }
    </style>
  </defs>
  <sodipodi:namedview id="namedview5" bordercolor="#666666" borderopacity="1.0" inkscape:current-layer="svg4" inkscape:cx="64" inkscape:cy="64" inkscape:pagecheckerboard="0" inkscape:pageopacity="0.0" inkscape:pageshadow="2" inkscape:window-height="1377" inkscape:window-maximized="1" inkscape:window-width="2560" inkscape:window-x="-8" inkscape:window-y="-8" inkscape:zoom="6.8203125" pagecolor="#ffffff" showgrid="false"/>
  <path class="st0" d="M89.6,20.4h0M80.3,32l-1.1,11.3c-.2,1.7.4,3.3,1.5,4.6,1.1,1.2,2.7,1.9,4.3,1.9h0l15.2-.2-20.8,13.2c-1.5,1-2.5,2.6-2.7,4.3l-3.5,33-13.1-18.5c-1.1-1.6-3-2.5-4.8-2.5s-2.2.3-3.1.9l-20.6,12.9,16.6-21c1.6-2,1.7-4.9.2-7l-9.7-14.1,24.2-.5c1.7,0,3.4-.8,4.4-2.2l12.9-16.1M116.4,49.3h0M86.8,15.8c-.6,0-1.3.3-1.8.9l-22.1,27.7-30.3.7c-1.5,0-3.3,2-2.7,3l13.9,20.2L11.5,109c-1.4,1.7-1.2,3.2,0,3.2s.8,0,1.4-.5l42.5-26.7,18.9,26.7c.2.3.6.5,1,.5,1.2,0,2.9-1.5,3-3.3l4.3-41.1,33.7-21.4c1.5-1,1.5-3,0-3h0l-31.2.5,2.6-27.2c0-.6-.3-.9-.9-.9h0Z"/>
</svg>